%TF.GenerationSoftware,KiCad,Pcbnew,(5.1.6)-1*%
%TF.CreationDate,2020-09-22T22:19:13+03:00*%
%TF.ProjectId,Z80_devboard,5a38305f-6465-4766-926f-6172642e6b69,rev?*%
%TF.SameCoordinates,Original*%
%TF.FileFunction,Soldermask,Top*%
%TF.FilePolarity,Negative*%
%FSLAX46Y46*%
G04 Gerber Fmt 4.6, Leading zero omitted, Abs format (unit mm)*
G04 Created by KiCad (PCBNEW (5.1.6)-1) date 2020-09-22 22:19:13*
%MOMM*%
%LPD*%
G01*
G04 APERTURE LIST*
%ADD10O,1.800000X1.800000*%
%ADD11R,1.800000X1.800000*%
%ADD12R,1.600000X2.100000*%
%ADD13R,3.900000X2.100000*%
%ADD14R,2.100000X1.600000*%
%ADD15R,2.100000X3.900000*%
%ADD16R,1.575000X0.550000*%
%ADD17R,0.550000X1.575000*%
%ADD18R,0.700000X1.600000*%
%ADD19R,1.600000X0.700000*%
G04 APERTURE END LIST*
D10*
%TO.C,J10*%
X128460500Y-115811300D03*
X125920500Y-115811300D03*
X123380500Y-115811300D03*
X120840500Y-115811300D03*
X118300500Y-115811300D03*
X115760500Y-115811300D03*
X113220500Y-115811300D03*
X110680500Y-115811300D03*
X108140500Y-115811300D03*
X105600500Y-115811300D03*
D11*
X103060500Y-115811300D03*
%TD*%
D10*
%TO.C,J9*%
X130822700Y-54889400D03*
X128282700Y-54889400D03*
X125742700Y-54889400D03*
X123202700Y-54889400D03*
X120662700Y-54889400D03*
X118122700Y-54889400D03*
X115582700Y-54889400D03*
X113042700Y-54889400D03*
X110502700Y-54889400D03*
X107962700Y-54889400D03*
X105422700Y-54889400D03*
X102882700Y-54889400D03*
X100342700Y-54889400D03*
X97802700Y-54889400D03*
X95262700Y-54889400D03*
D11*
X92722700Y-54889400D03*
%TD*%
D10*
%TO.C,J8*%
X78308200Y-77127100D03*
X78308200Y-79667100D03*
X78308200Y-82207100D03*
X78308200Y-84747100D03*
X78308200Y-87287100D03*
X78308200Y-89827100D03*
X78308200Y-92367100D03*
D11*
X78308200Y-94907100D03*
%TD*%
%TO.C,R7*%
G36*
G01*
X128965800Y-77577300D02*
X128965800Y-77972300D01*
G75*
G02*
X128793300Y-78144800I-172500J0D01*
G01*
X128448300Y-78144800D01*
G75*
G02*
X128275800Y-77972300I0J172500D01*
G01*
X128275800Y-77577300D01*
G75*
G02*
X128448300Y-77404800I172500J0D01*
G01*
X128793300Y-77404800D01*
G75*
G02*
X128965800Y-77577300I0J-172500D01*
G01*
G37*
G36*
G01*
X129935800Y-77577300D02*
X129935800Y-77972300D01*
G75*
G02*
X129763300Y-78144800I-172500J0D01*
G01*
X129418300Y-78144800D01*
G75*
G02*
X129245800Y-77972300I0J172500D01*
G01*
X129245800Y-77577300D01*
G75*
G02*
X129418300Y-77404800I172500J0D01*
G01*
X129763300Y-77404800D01*
G75*
G02*
X129935800Y-77577300I0J-172500D01*
G01*
G37*
%TD*%
%TO.C,R6*%
G36*
G01*
X130696000Y-87014700D02*
X130696000Y-86619700D01*
G75*
G02*
X130868500Y-86447200I172500J0D01*
G01*
X131213500Y-86447200D01*
G75*
G02*
X131386000Y-86619700I0J-172500D01*
G01*
X131386000Y-87014700D01*
G75*
G02*
X131213500Y-87187200I-172500J0D01*
G01*
X130868500Y-87187200D01*
G75*
G02*
X130696000Y-87014700I0J172500D01*
G01*
G37*
G36*
G01*
X129726000Y-87014700D02*
X129726000Y-86619700D01*
G75*
G02*
X129898500Y-86447200I172500J0D01*
G01*
X130243500Y-86447200D01*
G75*
G02*
X130416000Y-86619700I0J-172500D01*
G01*
X130416000Y-87014700D01*
G75*
G02*
X130243500Y-87187200I-172500J0D01*
G01*
X129898500Y-87187200D01*
G75*
G02*
X129726000Y-87014700I0J172500D01*
G01*
G37*
%TD*%
%TO.C,R5*%
G36*
G01*
X105056500Y-66033000D02*
X105056500Y-66428000D01*
G75*
G02*
X104884000Y-66600500I-172500J0D01*
G01*
X104539000Y-66600500D01*
G75*
G02*
X104366500Y-66428000I0J172500D01*
G01*
X104366500Y-66033000D01*
G75*
G02*
X104539000Y-65860500I172500J0D01*
G01*
X104884000Y-65860500D01*
G75*
G02*
X105056500Y-66033000I0J-172500D01*
G01*
G37*
G36*
G01*
X106026500Y-66033000D02*
X106026500Y-66428000D01*
G75*
G02*
X105854000Y-66600500I-172500J0D01*
G01*
X105509000Y-66600500D01*
G75*
G02*
X105336500Y-66428000I0J172500D01*
G01*
X105336500Y-66033000D01*
G75*
G02*
X105509000Y-65860500I172500J0D01*
G01*
X105854000Y-65860500D01*
G75*
G02*
X106026500Y-66033000I0J-172500D01*
G01*
G37*
%TD*%
%TO.C,R4*%
G36*
G01*
X114971000Y-103829500D02*
X114971000Y-103434500D01*
G75*
G02*
X115143500Y-103262000I172500J0D01*
G01*
X115488500Y-103262000D01*
G75*
G02*
X115661000Y-103434500I0J-172500D01*
G01*
X115661000Y-103829500D01*
G75*
G02*
X115488500Y-104002000I-172500J0D01*
G01*
X115143500Y-104002000D01*
G75*
G02*
X114971000Y-103829500I0J172500D01*
G01*
G37*
G36*
G01*
X114001000Y-103829500D02*
X114001000Y-103434500D01*
G75*
G02*
X114173500Y-103262000I172500J0D01*
G01*
X114518500Y-103262000D01*
G75*
G02*
X114691000Y-103434500I0J-172500D01*
G01*
X114691000Y-103829500D01*
G75*
G02*
X114518500Y-104002000I-172500J0D01*
G01*
X114173500Y-104002000D01*
G75*
G02*
X114001000Y-103829500I0J172500D01*
G01*
G37*
%TD*%
D10*
%TO.C,J7*%
X132080000Y-103759000D03*
X132080000Y-101219000D03*
D11*
X132080000Y-98679000D03*
%TD*%
D10*
%TO.C,J6*%
X97663000Y-111950500D03*
X95123000Y-111950500D03*
D11*
X92583000Y-111950500D03*
%TD*%
D10*
%TO.C,J5*%
X94043500Y-94424500D03*
X91503500Y-94424500D03*
D11*
X88963500Y-94424500D03*
%TD*%
D12*
%TO.C,U2*%
X98820000Y-101307500D03*
X94220000Y-101307500D03*
X96520000Y-101307500D03*
D13*
X96520000Y-107607500D03*
%TD*%
D14*
%TO.C,U1*%
X82257500Y-100697000D03*
X82257500Y-105297000D03*
X82257500Y-102997000D03*
D15*
X88557500Y-102997000D03*
%TD*%
D10*
%TO.C,J4*%
X82359500Y-112014000D03*
D11*
X84899500Y-112014000D03*
%TD*%
%TO.C,C16*%
G36*
G01*
X98097500Y-98432000D02*
X98097500Y-98037000D01*
G75*
G02*
X98270000Y-97864500I172500J0D01*
G01*
X98615000Y-97864500D01*
G75*
G02*
X98787500Y-98037000I0J-172500D01*
G01*
X98787500Y-98432000D01*
G75*
G02*
X98615000Y-98604500I-172500J0D01*
G01*
X98270000Y-98604500D01*
G75*
G02*
X98097500Y-98432000I0J172500D01*
G01*
G37*
G36*
G01*
X97127500Y-98432000D02*
X97127500Y-98037000D01*
G75*
G02*
X97300000Y-97864500I172500J0D01*
G01*
X97645000Y-97864500D01*
G75*
G02*
X97817500Y-98037000I0J-172500D01*
G01*
X97817500Y-98432000D01*
G75*
G02*
X97645000Y-98604500I-172500J0D01*
G01*
X97300000Y-98604500D01*
G75*
G02*
X97127500Y-98432000I0J172500D01*
G01*
G37*
%TD*%
%TO.C,C15*%
G36*
G01*
X98034000Y-99575000D02*
X98034000Y-99180000D01*
G75*
G02*
X98206500Y-99007500I172500J0D01*
G01*
X98551500Y-99007500D01*
G75*
G02*
X98724000Y-99180000I0J-172500D01*
G01*
X98724000Y-99575000D01*
G75*
G02*
X98551500Y-99747500I-172500J0D01*
G01*
X98206500Y-99747500D01*
G75*
G02*
X98034000Y-99575000I0J172500D01*
G01*
G37*
G36*
G01*
X97064000Y-99575000D02*
X97064000Y-99180000D01*
G75*
G02*
X97236500Y-99007500I172500J0D01*
G01*
X97581500Y-99007500D01*
G75*
G02*
X97754000Y-99180000I0J-172500D01*
G01*
X97754000Y-99575000D01*
G75*
G02*
X97581500Y-99747500I-172500J0D01*
G01*
X97236500Y-99747500D01*
G75*
G02*
X97064000Y-99575000I0J172500D01*
G01*
G37*
%TD*%
%TO.C,C14*%
G36*
G01*
X91666500Y-104782000D02*
X91666500Y-104387000D01*
G75*
G02*
X91839000Y-104214500I172500J0D01*
G01*
X92184000Y-104214500D01*
G75*
G02*
X92356500Y-104387000I0J-172500D01*
G01*
X92356500Y-104782000D01*
G75*
G02*
X92184000Y-104954500I-172500J0D01*
G01*
X91839000Y-104954500D01*
G75*
G02*
X91666500Y-104782000I0J172500D01*
G01*
G37*
G36*
G01*
X90696500Y-104782000D02*
X90696500Y-104387000D01*
G75*
G02*
X90869000Y-104214500I172500J0D01*
G01*
X91214000Y-104214500D01*
G75*
G02*
X91386500Y-104387000I0J-172500D01*
G01*
X91386500Y-104782000D01*
G75*
G02*
X91214000Y-104954500I-172500J0D01*
G01*
X90869000Y-104954500D01*
G75*
G02*
X90696500Y-104782000I0J172500D01*
G01*
G37*
%TD*%
%TO.C,C13*%
G36*
G01*
X91684000Y-103194500D02*
X91684000Y-102799500D01*
G75*
G02*
X91856500Y-102627000I172500J0D01*
G01*
X92201500Y-102627000D01*
G75*
G02*
X92374000Y-102799500I0J-172500D01*
G01*
X92374000Y-103194500D01*
G75*
G02*
X92201500Y-103367000I-172500J0D01*
G01*
X91856500Y-103367000D01*
G75*
G02*
X91684000Y-103194500I0J172500D01*
G01*
G37*
G36*
G01*
X90714000Y-103194500D02*
X90714000Y-102799500D01*
G75*
G02*
X90886500Y-102627000I172500J0D01*
G01*
X91231500Y-102627000D01*
G75*
G02*
X91404000Y-102799500I0J-172500D01*
G01*
X91404000Y-103194500D01*
G75*
G02*
X91231500Y-103367000I-172500J0D01*
G01*
X90886500Y-103367000D01*
G75*
G02*
X90714000Y-103194500I0J172500D01*
G01*
G37*
%TD*%
%TO.C,C12*%
G36*
G01*
X91620500Y-101734000D02*
X91620500Y-101339000D01*
G75*
G02*
X91793000Y-101166500I172500J0D01*
G01*
X92138000Y-101166500D01*
G75*
G02*
X92310500Y-101339000I0J-172500D01*
G01*
X92310500Y-101734000D01*
G75*
G02*
X92138000Y-101906500I-172500J0D01*
G01*
X91793000Y-101906500D01*
G75*
G02*
X91620500Y-101734000I0J172500D01*
G01*
G37*
G36*
G01*
X90650500Y-101734000D02*
X90650500Y-101339000D01*
G75*
G02*
X90823000Y-101166500I172500J0D01*
G01*
X91168000Y-101166500D01*
G75*
G02*
X91340500Y-101339000I0J-172500D01*
G01*
X91340500Y-101734000D01*
G75*
G02*
X91168000Y-101906500I-172500J0D01*
G01*
X90823000Y-101906500D01*
G75*
G02*
X90650500Y-101734000I0J172500D01*
G01*
G37*
%TD*%
%TO.C,C11*%
G36*
G01*
X83642500Y-109544500D02*
X83642500Y-109149500D01*
G75*
G02*
X83815000Y-108977000I172500J0D01*
G01*
X84160000Y-108977000D01*
G75*
G02*
X84332500Y-109149500I0J-172500D01*
G01*
X84332500Y-109544500D01*
G75*
G02*
X84160000Y-109717000I-172500J0D01*
G01*
X83815000Y-109717000D01*
G75*
G02*
X83642500Y-109544500I0J172500D01*
G01*
G37*
G36*
G01*
X82672500Y-109544500D02*
X82672500Y-109149500D01*
G75*
G02*
X82845000Y-108977000I172500J0D01*
G01*
X83190000Y-108977000D01*
G75*
G02*
X83362500Y-109149500I0J-172500D01*
G01*
X83362500Y-109544500D01*
G75*
G02*
X83190000Y-109717000I-172500J0D01*
G01*
X82845000Y-109717000D01*
G75*
G02*
X82672500Y-109544500I0J172500D01*
G01*
G37*
%TD*%
D10*
%TO.C,J3*%
X103060500Y-112014000D03*
X105600500Y-112014000D03*
X108140500Y-112014000D03*
X110680500Y-112014000D03*
X113220500Y-112014000D03*
X115760500Y-112014000D03*
X118300500Y-112014000D03*
X120840500Y-112014000D03*
X123380500Y-112014000D03*
X125920500Y-112014000D03*
D11*
X128460500Y-112014000D03*
%TD*%
D10*
%TO.C,J2*%
X92710000Y-58610500D03*
X95250000Y-58610500D03*
X97790000Y-58610500D03*
X100330000Y-58610500D03*
X102870000Y-58610500D03*
X105410000Y-58610500D03*
X107950000Y-58610500D03*
X110490000Y-58610500D03*
X113030000Y-58610500D03*
X115570000Y-58610500D03*
X118110000Y-58610500D03*
X120650000Y-58610500D03*
X123190000Y-58610500D03*
X125730000Y-58610500D03*
X128270000Y-58610500D03*
D11*
X130810000Y-58610500D03*
%TD*%
D10*
%TO.C,J1*%
X82169000Y-94932500D03*
X82169000Y-92392500D03*
X82169000Y-89852500D03*
X82169000Y-87312500D03*
X82169000Y-84772500D03*
X82169000Y-82232500D03*
X82169000Y-79692500D03*
D11*
X82169000Y-77152500D03*
%TD*%
%TO.C,R3*%
G36*
G01*
X91115500Y-89334500D02*
X91510500Y-89334500D01*
G75*
G02*
X91683000Y-89507000I0J-172500D01*
G01*
X91683000Y-89852000D01*
G75*
G02*
X91510500Y-90024500I-172500J0D01*
G01*
X91115500Y-90024500D01*
G75*
G02*
X90943000Y-89852000I0J172500D01*
G01*
X90943000Y-89507000D01*
G75*
G02*
X91115500Y-89334500I172500J0D01*
G01*
G37*
G36*
G01*
X91115500Y-88364500D02*
X91510500Y-88364500D01*
G75*
G02*
X91683000Y-88537000I0J-172500D01*
G01*
X91683000Y-88882000D01*
G75*
G02*
X91510500Y-89054500I-172500J0D01*
G01*
X91115500Y-89054500D01*
G75*
G02*
X90943000Y-88882000I0J172500D01*
G01*
X90943000Y-88537000D01*
G75*
G02*
X91115500Y-88364500I172500J0D01*
G01*
G37*
%TD*%
%TO.C,R2*%
G36*
G01*
X113799000Y-93245500D02*
X113404000Y-93245500D01*
G75*
G02*
X113231500Y-93073000I0J172500D01*
G01*
X113231500Y-92728000D01*
G75*
G02*
X113404000Y-92555500I172500J0D01*
G01*
X113799000Y-92555500D01*
G75*
G02*
X113971500Y-92728000I0J-172500D01*
G01*
X113971500Y-93073000D01*
G75*
G02*
X113799000Y-93245500I-172500J0D01*
G01*
G37*
G36*
G01*
X113799000Y-94215500D02*
X113404000Y-94215500D01*
G75*
G02*
X113231500Y-94043000I0J172500D01*
G01*
X113231500Y-93698000D01*
G75*
G02*
X113404000Y-93525500I172500J0D01*
G01*
X113799000Y-93525500D01*
G75*
G02*
X113971500Y-93698000I0J-172500D01*
G01*
X113971500Y-94043000D01*
G75*
G02*
X113799000Y-94215500I-172500J0D01*
G01*
G37*
%TD*%
%TO.C,R1*%
G36*
G01*
X114878500Y-93245500D02*
X114483500Y-93245500D01*
G75*
G02*
X114311000Y-93073000I0J172500D01*
G01*
X114311000Y-92728000D01*
G75*
G02*
X114483500Y-92555500I172500J0D01*
G01*
X114878500Y-92555500D01*
G75*
G02*
X115051000Y-92728000I0J-172500D01*
G01*
X115051000Y-93073000D01*
G75*
G02*
X114878500Y-93245500I-172500J0D01*
G01*
G37*
G36*
G01*
X114878500Y-94215500D02*
X114483500Y-94215500D01*
G75*
G02*
X114311000Y-94043000I0J172500D01*
G01*
X114311000Y-93698000D01*
G75*
G02*
X114483500Y-93525500I172500J0D01*
G01*
X114878500Y-93525500D01*
G75*
G02*
X115051000Y-93698000I0J-172500D01*
G01*
X115051000Y-94043000D01*
G75*
G02*
X114878500Y-94215500I-172500J0D01*
G01*
G37*
%TD*%
D16*
%TO.C,IC6*%
X123935000Y-93984000D03*
X123935000Y-93334000D03*
X123935000Y-92684000D03*
X123935000Y-92034000D03*
X123935000Y-91384000D03*
X123935000Y-90734000D03*
X123935000Y-90084000D03*
X123935000Y-89434000D03*
X123935000Y-88784000D03*
X123935000Y-88134000D03*
X129811000Y-88134000D03*
X129811000Y-88784000D03*
X129811000Y-89434000D03*
X129811000Y-90084000D03*
X129811000Y-90734000D03*
X129811000Y-91384000D03*
X129811000Y-92034000D03*
X129811000Y-92684000D03*
X129811000Y-93334000D03*
X129811000Y-93984000D03*
%TD*%
D17*
%TO.C,IC5*%
X107057000Y-97646000D03*
X107707000Y-97646000D03*
X108357000Y-97646000D03*
X109007000Y-97646000D03*
X109657000Y-97646000D03*
X110307000Y-97646000D03*
X110957000Y-97646000D03*
X111607000Y-97646000D03*
X112257000Y-97646000D03*
X112907000Y-97646000D03*
X112907000Y-103522000D03*
X112257000Y-103522000D03*
X111607000Y-103522000D03*
X110957000Y-103522000D03*
X110307000Y-103522000D03*
X109657000Y-103522000D03*
X109007000Y-103522000D03*
X108357000Y-103522000D03*
X107707000Y-103522000D03*
X107057000Y-103522000D03*
%TD*%
%TO.C,IC4*%
X112907000Y-72407000D03*
X112257000Y-72407000D03*
X111607000Y-72407000D03*
X110957000Y-72407000D03*
X110307000Y-72407000D03*
X109657000Y-72407000D03*
X109007000Y-72407000D03*
X108357000Y-72407000D03*
X107707000Y-72407000D03*
X107057000Y-72407000D03*
X107057000Y-66531000D03*
X107707000Y-66531000D03*
X108357000Y-66531000D03*
X109007000Y-66531000D03*
X109657000Y-66531000D03*
X110307000Y-66531000D03*
X110957000Y-66531000D03*
X111607000Y-66531000D03*
X112257000Y-66531000D03*
X112907000Y-66531000D03*
%TD*%
D16*
%TO.C,IC3*%
X124062000Y-85284500D03*
X124062000Y-84634500D03*
X124062000Y-83984500D03*
X124062000Y-83334500D03*
X124062000Y-82684500D03*
X124062000Y-82034500D03*
X124062000Y-81384500D03*
X124062000Y-80734500D03*
X124062000Y-80084500D03*
X124062000Y-79434500D03*
X129938000Y-79434500D03*
X129938000Y-80084500D03*
X129938000Y-80734500D03*
X129938000Y-81384500D03*
X129938000Y-82034500D03*
X129938000Y-82684500D03*
X129938000Y-83334500D03*
X129938000Y-83984500D03*
X129938000Y-84634500D03*
X129938000Y-85284500D03*
%TD*%
%TO.C,IC2*%
X97108500Y-81530000D03*
X97108500Y-82180000D03*
X97108500Y-82830000D03*
X97108500Y-83480000D03*
X97108500Y-84130000D03*
X97108500Y-84780000D03*
X97108500Y-85430000D03*
X97108500Y-86080000D03*
X97108500Y-86730000D03*
X97108500Y-87380000D03*
X91232500Y-87380000D03*
X91232500Y-86730000D03*
X91232500Y-86080000D03*
X91232500Y-85430000D03*
X91232500Y-84780000D03*
X91232500Y-84130000D03*
X91232500Y-83480000D03*
X91232500Y-82830000D03*
X91232500Y-82180000D03*
X91232500Y-81530000D03*
%TD*%
D18*
%TO.C,IC1*%
X106459000Y-79313000D03*
X107259000Y-79313000D03*
X108059000Y-79313000D03*
X108859000Y-79313000D03*
X109659000Y-79313000D03*
X110459000Y-79313000D03*
X111259000Y-79313000D03*
X112059000Y-79313000D03*
X112859000Y-79313000D03*
X113659000Y-79313000D03*
X114459000Y-79313000D03*
D19*
X116209000Y-81063000D03*
X116209000Y-81863000D03*
X116209000Y-82663000D03*
X116209000Y-83463000D03*
X116209000Y-84263000D03*
X116209000Y-85063000D03*
X116209000Y-85863000D03*
X116209000Y-86663000D03*
X116209000Y-87463000D03*
X116209000Y-88263000D03*
X116209000Y-89063000D03*
D18*
X114459000Y-90813000D03*
X113659000Y-90813000D03*
X112859000Y-90813000D03*
X112059000Y-90813000D03*
X111259000Y-90813000D03*
X110459000Y-90813000D03*
X109659000Y-90813000D03*
X108859000Y-90813000D03*
X108059000Y-90813000D03*
X107259000Y-90813000D03*
X106459000Y-90813000D03*
D19*
X104709000Y-89063000D03*
X104709000Y-88263000D03*
X104709000Y-87463000D03*
X104709000Y-86663000D03*
X104709000Y-85863000D03*
X104709000Y-85063000D03*
X104709000Y-84263000D03*
X104709000Y-83463000D03*
X104709000Y-82663000D03*
X104709000Y-81863000D03*
X104709000Y-81063000D03*
%TD*%
%TO.C,C10*%
G36*
G01*
X132514500Y-84843000D02*
X132514500Y-84448000D01*
G75*
G02*
X132687000Y-84275500I172500J0D01*
G01*
X133032000Y-84275500D01*
G75*
G02*
X133204500Y-84448000I0J-172500D01*
G01*
X133204500Y-84843000D01*
G75*
G02*
X133032000Y-85015500I-172500J0D01*
G01*
X132687000Y-85015500D01*
G75*
G02*
X132514500Y-84843000I0J172500D01*
G01*
G37*
G36*
G01*
X131544500Y-84843000D02*
X131544500Y-84448000D01*
G75*
G02*
X131717000Y-84275500I172500J0D01*
G01*
X132062000Y-84275500D01*
G75*
G02*
X132234500Y-84448000I0J-172500D01*
G01*
X132234500Y-84843000D01*
G75*
G02*
X132062000Y-85015500I-172500J0D01*
G01*
X131717000Y-85015500D01*
G75*
G02*
X131544500Y-84843000I0J172500D01*
G01*
G37*
%TD*%
%TO.C,C9*%
G36*
G01*
X107498500Y-106462000D02*
X107893500Y-106462000D01*
G75*
G02*
X108066000Y-106634500I0J-172500D01*
G01*
X108066000Y-106979500D01*
G75*
G02*
X107893500Y-107152000I-172500J0D01*
G01*
X107498500Y-107152000D01*
G75*
G02*
X107326000Y-106979500I0J172500D01*
G01*
X107326000Y-106634500D01*
G75*
G02*
X107498500Y-106462000I172500J0D01*
G01*
G37*
G36*
G01*
X107498500Y-105492000D02*
X107893500Y-105492000D01*
G75*
G02*
X108066000Y-105664500I0J-172500D01*
G01*
X108066000Y-106009500D01*
G75*
G02*
X107893500Y-106182000I-172500J0D01*
G01*
X107498500Y-106182000D01*
G75*
G02*
X107326000Y-106009500I0J172500D01*
G01*
X107326000Y-105664500D01*
G75*
G02*
X107498500Y-105492000I172500J0D01*
G01*
G37*
%TD*%
%TO.C,C8*%
G36*
G01*
X132306500Y-93479000D02*
X132306500Y-93084000D01*
G75*
G02*
X132479000Y-92911500I172500J0D01*
G01*
X132824000Y-92911500D01*
G75*
G02*
X132996500Y-93084000I0J-172500D01*
G01*
X132996500Y-93479000D01*
G75*
G02*
X132824000Y-93651500I-172500J0D01*
G01*
X132479000Y-93651500D01*
G75*
G02*
X132306500Y-93479000I0J172500D01*
G01*
G37*
G36*
G01*
X131336500Y-93479000D02*
X131336500Y-93084000D01*
G75*
G02*
X131509000Y-92911500I172500J0D01*
G01*
X131854000Y-92911500D01*
G75*
G02*
X132026500Y-93084000I0J-172500D01*
G01*
X132026500Y-93479000D01*
G75*
G02*
X131854000Y-93651500I-172500J0D01*
G01*
X131509000Y-93651500D01*
G75*
G02*
X131336500Y-93479000I0J172500D01*
G01*
G37*
%TD*%
%TO.C,C7*%
G36*
G01*
X112465500Y-63908500D02*
X112070500Y-63908500D01*
G75*
G02*
X111898000Y-63736000I0J172500D01*
G01*
X111898000Y-63391000D01*
G75*
G02*
X112070500Y-63218500I172500J0D01*
G01*
X112465500Y-63218500D01*
G75*
G02*
X112638000Y-63391000I0J-172500D01*
G01*
X112638000Y-63736000D01*
G75*
G02*
X112465500Y-63908500I-172500J0D01*
G01*
G37*
G36*
G01*
X112465500Y-64878500D02*
X112070500Y-64878500D01*
G75*
G02*
X111898000Y-64706000I0J172500D01*
G01*
X111898000Y-64361000D01*
G75*
G02*
X112070500Y-64188500I172500J0D01*
G01*
X112465500Y-64188500D01*
G75*
G02*
X112638000Y-64361000I0J-172500D01*
G01*
X112638000Y-64706000D01*
G75*
G02*
X112465500Y-64878500I-172500J0D01*
G01*
G37*
%TD*%
%TO.C,C6*%
G36*
G01*
X88610000Y-82035000D02*
X88610000Y-82430000D01*
G75*
G02*
X88437500Y-82602500I-172500J0D01*
G01*
X88092500Y-82602500D01*
G75*
G02*
X87920000Y-82430000I0J172500D01*
G01*
X87920000Y-82035000D01*
G75*
G02*
X88092500Y-81862500I172500J0D01*
G01*
X88437500Y-81862500D01*
G75*
G02*
X88610000Y-82035000I0J-172500D01*
G01*
G37*
G36*
G01*
X89580000Y-82035000D02*
X89580000Y-82430000D01*
G75*
G02*
X89407500Y-82602500I-172500J0D01*
G01*
X89062500Y-82602500D01*
G75*
G02*
X88890000Y-82430000I0J172500D01*
G01*
X88890000Y-82035000D01*
G75*
G02*
X89062500Y-81862500I172500J0D01*
G01*
X89407500Y-81862500D01*
G75*
G02*
X89580000Y-82035000I0J-172500D01*
G01*
G37*
%TD*%
%TO.C,C5*%
G36*
G01*
X107893500Y-95023500D02*
X107498500Y-95023500D01*
G75*
G02*
X107326000Y-94851000I0J172500D01*
G01*
X107326000Y-94506000D01*
G75*
G02*
X107498500Y-94333500I172500J0D01*
G01*
X107893500Y-94333500D01*
G75*
G02*
X108066000Y-94506000I0J-172500D01*
G01*
X108066000Y-94851000D01*
G75*
G02*
X107893500Y-95023500I-172500J0D01*
G01*
G37*
G36*
G01*
X107893500Y-95993500D02*
X107498500Y-95993500D01*
G75*
G02*
X107326000Y-95821000I0J172500D01*
G01*
X107326000Y-95476000D01*
G75*
G02*
X107498500Y-95303500I172500J0D01*
G01*
X107893500Y-95303500D01*
G75*
G02*
X108066000Y-95476000I0J-172500D01*
G01*
X108066000Y-95821000D01*
G75*
G02*
X107893500Y-95993500I-172500J0D01*
G01*
G37*
%TD*%
%TO.C,C4*%
G36*
G01*
X112007000Y-74920000D02*
X112402000Y-74920000D01*
G75*
G02*
X112574500Y-75092500I0J-172500D01*
G01*
X112574500Y-75437500D01*
G75*
G02*
X112402000Y-75610000I-172500J0D01*
G01*
X112007000Y-75610000D01*
G75*
G02*
X111834500Y-75437500I0J172500D01*
G01*
X111834500Y-75092500D01*
G75*
G02*
X112007000Y-74920000I172500J0D01*
G01*
G37*
G36*
G01*
X112007000Y-73950000D02*
X112402000Y-73950000D01*
G75*
G02*
X112574500Y-74122500I0J-172500D01*
G01*
X112574500Y-74467500D01*
G75*
G02*
X112402000Y-74640000I-172500J0D01*
G01*
X112007000Y-74640000D01*
G75*
G02*
X111834500Y-74467500I0J172500D01*
G01*
X111834500Y-74122500D01*
G75*
G02*
X112007000Y-73950000I172500J0D01*
G01*
G37*
%TD*%
%TO.C,C3*%
G36*
G01*
X121549000Y-84384500D02*
X121549000Y-84779500D01*
G75*
G02*
X121376500Y-84952000I-172500J0D01*
G01*
X121031500Y-84952000D01*
G75*
G02*
X120859000Y-84779500I0J172500D01*
G01*
X120859000Y-84384500D01*
G75*
G02*
X121031500Y-84212000I172500J0D01*
G01*
X121376500Y-84212000D01*
G75*
G02*
X121549000Y-84384500I0J-172500D01*
G01*
G37*
G36*
G01*
X122519000Y-84384500D02*
X122519000Y-84779500D01*
G75*
G02*
X122346500Y-84952000I-172500J0D01*
G01*
X122001500Y-84952000D01*
G75*
G02*
X121829000Y-84779500I0J172500D01*
G01*
X121829000Y-84384500D01*
G75*
G02*
X122001500Y-84212000I172500J0D01*
G01*
X122346500Y-84212000D01*
G75*
G02*
X122519000Y-84384500I0J-172500D01*
G01*
G37*
%TD*%
%TO.C,C2*%
G36*
G01*
X99494500Y-82430000D02*
X99494500Y-82035000D01*
G75*
G02*
X99667000Y-81862500I172500J0D01*
G01*
X100012000Y-81862500D01*
G75*
G02*
X100184500Y-82035000I0J-172500D01*
G01*
X100184500Y-82430000D01*
G75*
G02*
X100012000Y-82602500I-172500J0D01*
G01*
X99667000Y-82602500D01*
G75*
G02*
X99494500Y-82430000I0J172500D01*
G01*
G37*
G36*
G01*
X98524500Y-82430000D02*
X98524500Y-82035000D01*
G75*
G02*
X98697000Y-81862500I172500J0D01*
G01*
X99042000Y-81862500D01*
G75*
G02*
X99214500Y-82035000I0J-172500D01*
G01*
X99214500Y-82430000D01*
G75*
G02*
X99042000Y-82602500I-172500J0D01*
G01*
X98697000Y-82602500D01*
G75*
G02*
X98524500Y-82430000I0J172500D01*
G01*
G37*
%TD*%
%TO.C,C1*%
G36*
G01*
X121485500Y-93147500D02*
X121485500Y-93542500D01*
G75*
G02*
X121313000Y-93715000I-172500J0D01*
G01*
X120968000Y-93715000D01*
G75*
G02*
X120795500Y-93542500I0J172500D01*
G01*
X120795500Y-93147500D01*
G75*
G02*
X120968000Y-92975000I172500J0D01*
G01*
X121313000Y-92975000D01*
G75*
G02*
X121485500Y-93147500I0J-172500D01*
G01*
G37*
G36*
G01*
X122455500Y-93147500D02*
X122455500Y-93542500D01*
G75*
G02*
X122283000Y-93715000I-172500J0D01*
G01*
X121938000Y-93715000D01*
G75*
G02*
X121765500Y-93542500I0J172500D01*
G01*
X121765500Y-93147500D01*
G75*
G02*
X121938000Y-92975000I172500J0D01*
G01*
X122283000Y-92975000D01*
G75*
G02*
X122455500Y-93147500I0J-172500D01*
G01*
G37*
%TD*%
M02*
