%TF.GenerationSoftware,KiCad,Pcbnew,(5.1.6)-1*%
%TF.CreationDate,2020-09-22T22:19:12+03:00*%
%TF.ProjectId,Z80_devboard,5a38305f-6465-4766-926f-6172642e6b69,rev?*%
%TF.SameCoordinates,Original*%
%TF.FileFunction,Copper,L2,Bot*%
%TF.FilePolarity,Positive*%
%FSLAX46Y46*%
G04 Gerber Fmt 4.6, Leading zero omitted, Abs format (unit mm)*
G04 Created by KiCad (PCBNEW (5.1.6)-1) date 2020-09-22 22:19:12*
%MOMM*%
%LPD*%
G01*
G04 APERTURE LIST*
%TA.AperFunction,ComponentPad*%
%ADD10O,1.700000X1.700000*%
%TD*%
%TA.AperFunction,ComponentPad*%
%ADD11R,1.700000X1.700000*%
%TD*%
%TA.AperFunction,ViaPad*%
%ADD12C,0.800000*%
%TD*%
%TA.AperFunction,Conductor*%
%ADD13C,0.700000*%
%TD*%
%TA.AperFunction,Conductor*%
%ADD14C,0.250000*%
%TD*%
%TA.AperFunction,Conductor*%
%ADD15C,0.254000*%
%TD*%
G04 APERTURE END LIST*
D10*
%TO.P,J10,11*%
%TO.N,/~RESET*%
X128460500Y-115811300D03*
%TO.P,J10,10*%
%TO.N,/~M1*%
X125920500Y-115811300D03*
%TO.P,J10,9*%
%TO.N,/~RFSH*%
X123380500Y-115811300D03*
%TO.P,J10,8*%
%TO.N,/~WR*%
X120840500Y-115811300D03*
%TO.P,J10,7*%
%TO.N,/~RD*%
X118300500Y-115811300D03*
%TO.P,J10,6*%
%TO.N,/~IORQ*%
X115760500Y-115811300D03*
%TO.P,J10,5*%
%TO.N,/~MREQ*%
X113220500Y-115811300D03*
%TO.P,J10,4*%
%TO.N,/~HALT*%
X110680500Y-115811300D03*
%TO.P,J10,3*%
%TO.N,/~NMI*%
X108140500Y-115811300D03*
%TO.P,J10,2*%
%TO.N,/~INT*%
X105600500Y-115811300D03*
D11*
%TO.P,J10,1*%
%TO.N,/CLK*%
X103060500Y-115811300D03*
%TD*%
D10*
%TO.P,J9,16*%
%TO.N,/A0*%
X130822700Y-54889400D03*
%TO.P,J9,15*%
%TO.N,/A1*%
X128282700Y-54889400D03*
%TO.P,J9,14*%
%TO.N,/A2*%
X125742700Y-54889400D03*
%TO.P,J9,13*%
%TO.N,/A3*%
X123202700Y-54889400D03*
%TO.P,J9,12*%
%TO.N,/A4*%
X120662700Y-54889400D03*
%TO.P,J9,11*%
%TO.N,/A5*%
X118122700Y-54889400D03*
%TO.P,J9,10*%
%TO.N,/A6*%
X115582700Y-54889400D03*
%TO.P,J9,9*%
%TO.N,/A7*%
X113042700Y-54889400D03*
%TO.P,J9,8*%
%TO.N,/A8*%
X110502700Y-54889400D03*
%TO.P,J9,7*%
%TO.N,/A9*%
X107962700Y-54889400D03*
%TO.P,J9,6*%
%TO.N,/A10*%
X105422700Y-54889400D03*
%TO.P,J9,5*%
%TO.N,/A11*%
X102882700Y-54889400D03*
%TO.P,J9,4*%
%TO.N,/A12*%
X100342700Y-54889400D03*
%TO.P,J9,3*%
%TO.N,/A13*%
X97802700Y-54889400D03*
%TO.P,J9,2*%
%TO.N,/A14*%
X95262700Y-54889400D03*
D11*
%TO.P,J9,1*%
%TO.N,/A15*%
X92722700Y-54889400D03*
%TD*%
D10*
%TO.P,J8,8*%
%TO.N,/D0*%
X78308200Y-77127100D03*
%TO.P,J8,7*%
%TO.N,/D1*%
X78308200Y-79667100D03*
%TO.P,J8,6*%
%TO.N,/D2*%
X78308200Y-82207100D03*
%TO.P,J8,5*%
%TO.N,/D3*%
X78308200Y-84747100D03*
%TO.P,J8,4*%
%TO.N,/D4*%
X78308200Y-87287100D03*
%TO.P,J8,3*%
%TO.N,/D5*%
X78308200Y-89827100D03*
%TO.P,J8,2*%
%TO.N,/D6*%
X78308200Y-92367100D03*
D11*
%TO.P,J8,1*%
%TO.N,/D7*%
X78308200Y-94907100D03*
%TD*%
D10*
%TO.P,J7,3*%
%TO.N,GND*%
X132080000Y-103759000D03*
%TO.P,J7,2*%
X132080000Y-101219000D03*
D11*
%TO.P,J7,1*%
X132080000Y-98679000D03*
%TD*%
D10*
%TO.P,J6,3*%
%TO.N,+3V3*%
X97663000Y-111950500D03*
%TO.P,J6,2*%
X95123000Y-111950500D03*
D11*
%TO.P,J6,1*%
X92583000Y-111950500D03*
%TD*%
D10*
%TO.P,J5,3*%
%TO.N,+5V*%
X94043500Y-94424500D03*
%TO.P,J5,2*%
X91503500Y-94424500D03*
D11*
%TO.P,J5,1*%
X88963500Y-94424500D03*
%TD*%
D10*
%TO.P,J4,2*%
%TO.N,/+VIN*%
X82359500Y-112014000D03*
D11*
%TO.P,J4,1*%
%TO.N,GND*%
X84899500Y-112014000D03*
%TD*%
D10*
%TO.P,J3,11*%
%TO.N,/CLK*%
X103060500Y-112014000D03*
%TO.P,J3,10*%
%TO.N,/~INT*%
X105600500Y-112014000D03*
%TO.P,J3,9*%
%TO.N,/~NMI*%
X108140500Y-112014000D03*
%TO.P,J3,8*%
%TO.N,/~HALT*%
X110680500Y-112014000D03*
%TO.P,J3,7*%
%TO.N,/~MREQ*%
X113220500Y-112014000D03*
%TO.P,J3,6*%
%TO.N,/~IORQ*%
X115760500Y-112014000D03*
%TO.P,J3,5*%
%TO.N,/~RD*%
X118300500Y-112014000D03*
%TO.P,J3,4*%
%TO.N,/~WR*%
X120840500Y-112014000D03*
%TO.P,J3,3*%
%TO.N,/~RFSH*%
X123380500Y-112014000D03*
%TO.P,J3,2*%
%TO.N,/~M1*%
X125920500Y-112014000D03*
D11*
%TO.P,J3,1*%
%TO.N,/~RESET*%
X128460500Y-112014000D03*
%TD*%
D10*
%TO.P,J2,16*%
%TO.N,/A15*%
X92710000Y-58610500D03*
%TO.P,J2,15*%
%TO.N,/A14*%
X95250000Y-58610500D03*
%TO.P,J2,14*%
%TO.N,/A13*%
X97790000Y-58610500D03*
%TO.P,J2,13*%
%TO.N,/A12*%
X100330000Y-58610500D03*
%TO.P,J2,12*%
%TO.N,/A11*%
X102870000Y-58610500D03*
%TO.P,J2,11*%
%TO.N,/A10*%
X105410000Y-58610500D03*
%TO.P,J2,10*%
%TO.N,/A9*%
X107950000Y-58610500D03*
%TO.P,J2,9*%
%TO.N,/A8*%
X110490000Y-58610500D03*
%TO.P,J2,8*%
%TO.N,/A7*%
X113030000Y-58610500D03*
%TO.P,J2,7*%
%TO.N,/A6*%
X115570000Y-58610500D03*
%TO.P,J2,6*%
%TO.N,/A5*%
X118110000Y-58610500D03*
%TO.P,J2,5*%
%TO.N,/A4*%
X120650000Y-58610500D03*
%TO.P,J2,4*%
%TO.N,/A3*%
X123190000Y-58610500D03*
%TO.P,J2,3*%
%TO.N,/A2*%
X125730000Y-58610500D03*
%TO.P,J2,2*%
%TO.N,/A1*%
X128270000Y-58610500D03*
D11*
%TO.P,J2,1*%
%TO.N,/A0*%
X130810000Y-58610500D03*
%TD*%
D10*
%TO.P,J1,8*%
%TO.N,/D7*%
X82169000Y-94932500D03*
%TO.P,J1,7*%
%TO.N,/D6*%
X82169000Y-92392500D03*
%TO.P,J1,6*%
%TO.N,/D5*%
X82169000Y-89852500D03*
%TO.P,J1,5*%
%TO.N,/D4*%
X82169000Y-87312500D03*
%TO.P,J1,4*%
%TO.N,/D3*%
X82169000Y-84772500D03*
%TO.P,J1,3*%
%TO.N,/D2*%
X82169000Y-82232500D03*
%TO.P,J1,2*%
%TO.N,/D1*%
X82169000Y-79692500D03*
D11*
%TO.P,J1,1*%
%TO.N,/D0*%
X82169000Y-77152500D03*
%TD*%
D12*
%TO.N,GND*%
X123596400Y-78181200D03*
X123850400Y-86969600D03*
X119481600Y-87122000D03*
X114300000Y-97536000D03*
X92100400Y-100431600D03*
X92100400Y-105816400D03*
X93421200Y-103276400D03*
X99568000Y-103276400D03*
X98399600Y-103378000D03*
X133908800Y-84683600D03*
X112471200Y-62382400D03*
X133604000Y-93268800D03*
X107238800Y-107848400D03*
X106235500Y-73723500D03*
X87058500Y-82169000D03*
X120015000Y-93345000D03*
X120142000Y-84582000D03*
X107696000Y-93662500D03*
X100838000Y-82169000D03*
X112204500Y-76390500D03*
X83159600Y-98755200D03*
X81991200Y-98704400D03*
X80416400Y-98704400D03*
X80264000Y-99923600D03*
X80264000Y-100939600D03*
X98704400Y-87376000D03*
X101498400Y-74117200D03*
X95300800Y-70358000D03*
%TO.N,+5V*%
X106578400Y-85039200D03*
X114147600Y-94996000D03*
X122110500Y-94361000D03*
X122047000Y-85598000D03*
X106680000Y-95631000D03*
X99060000Y-81216500D03*
X113411000Y-74168000D03*
%TO.N,+3V3*%
X100126800Y-107645200D03*
X127406400Y-77724000D03*
X132384800Y-85699600D03*
X113538000Y-64566800D03*
X131927600Y-94386400D03*
X106426000Y-105765600D03*
X89217500Y-81216500D03*
X116433600Y-105156000D03*
X132638800Y-88138000D03*
X102412800Y-66141600D03*
X89611200Y-90830400D03*
%TO.N,/+5V_D1*%
X94234000Y-82867500D03*
X94234000Y-89090500D03*
%TO.N,/+5V_D0*%
X95444500Y-81530000D03*
X95444500Y-88134000D03*
%TO.N,/+5V_D2*%
X103124000Y-86042500D03*
X99187000Y-83439000D03*
%TO.N,/+5V_D4*%
X101155500Y-84772500D03*
X102552500Y-81915000D03*
%TO.N,/+5V_CLK*%
X107645200Y-99669600D03*
X107289600Y-81127600D03*
%TD*%
D13*
%TO.N,+5V*%
X108523999Y-100619601D02*
X114147600Y-94996000D01*
X107189199Y-100619601D02*
X108523999Y-100619601D01*
X106680000Y-100110402D02*
X107189199Y-100619601D01*
X106680000Y-95631000D02*
X106680000Y-100110402D01*
X121475500Y-94996000D02*
X122110500Y-94361000D01*
X114147600Y-94996000D02*
X121475500Y-94996000D01*
X122110500Y-85661500D02*
X122047000Y-85598000D01*
X122110500Y-94361000D02*
X122110500Y-85661500D01*
X122047000Y-82804000D02*
X113411000Y-74168000D01*
X122047000Y-85598000D02*
X122047000Y-82804000D01*
X106578400Y-84473515D02*
X106578400Y-85039200D01*
X99311501Y-80964999D02*
X103069884Y-80964999D01*
X103069884Y-80964999D02*
X106578400Y-84473515D01*
X99060000Y-81216500D02*
X99311501Y-80964999D01*
%TO.N,+3V3*%
X105293201Y-106898399D02*
X106426000Y-105765600D01*
X100873601Y-106898399D02*
X105293201Y-106898399D01*
X100126800Y-107645200D02*
X100873601Y-106898399D01*
X106426000Y-105765600D02*
X115824000Y-105765600D01*
X115824000Y-105765600D02*
X116433600Y-105156000D01*
X116433600Y-105156000D02*
X116433600Y-105156000D01*
X121158000Y-105156000D02*
X131927600Y-94386400D01*
X116433600Y-105156000D02*
X121158000Y-105156000D01*
X131927600Y-94386400D02*
X131927600Y-88849200D01*
X131927600Y-88849200D02*
X132638800Y-88138000D01*
X132638800Y-88138000D02*
X132638800Y-88138000D01*
X132638800Y-85953600D02*
X132384800Y-85699600D01*
X132638800Y-88138000D02*
X132638800Y-85953600D01*
X132384800Y-85699600D02*
X127406400Y-80721200D01*
X127406400Y-80721200D02*
X127406400Y-77724000D01*
X127406400Y-77724000D02*
X127406400Y-75031600D01*
X116941600Y-64566800D02*
X113538000Y-64566800D01*
X127406400Y-75031600D02*
X116941600Y-64566800D01*
X113538000Y-64566800D02*
X103987600Y-64566800D01*
X103987600Y-64566800D02*
X102412800Y-66141600D01*
X102412800Y-66141600D02*
X102412800Y-66141600D01*
X102412800Y-68021200D02*
X89217500Y-81216500D01*
X102412800Y-66141600D02*
X102412800Y-68021200D01*
X89217500Y-81216500D02*
X89217500Y-90436700D01*
X89217500Y-90436700D02*
X89611200Y-90830400D01*
X89611200Y-90830400D02*
X89611200Y-90830400D01*
D14*
%TO.N,/+5V_D1*%
X94234000Y-82867500D02*
X94234000Y-89090500D01*
X94234000Y-89090500D02*
X94234000Y-89090500D01*
%TO.N,/+5V_D0*%
X95444500Y-81530000D02*
X95444500Y-88134000D01*
X95444500Y-88134000D02*
X95444500Y-88261000D01*
%TO.N,/+5V_D2*%
X99187000Y-84004685D02*
X101224815Y-86042500D01*
X99187000Y-83439000D02*
X99187000Y-84004685D01*
X101224815Y-86042500D02*
X103124000Y-86042500D01*
%TO.N,/+5V_D4*%
X101155500Y-84772500D02*
X101155500Y-83312000D01*
X101155500Y-83312000D02*
X102552500Y-81915000D01*
X102552500Y-81915000D02*
X102552500Y-81915000D01*
%TO.N,/+5V_CLK*%
X108421001Y-98893799D02*
X108421001Y-82259001D01*
X107645200Y-99669600D02*
X108421001Y-98893799D01*
X108421001Y-82259001D02*
X107289600Y-81127600D01*
X107289600Y-81127600D02*
X107289600Y-81127600D01*
%TD*%
D15*
%TO.N,GND*%
G36*
X135340001Y-122340000D02*
G01*
X75660000Y-122340000D01*
X75660000Y-114961300D01*
X101572428Y-114961300D01*
X101572428Y-116661300D01*
X101584688Y-116785782D01*
X101620998Y-116905480D01*
X101679963Y-117015794D01*
X101759315Y-117112485D01*
X101856006Y-117191837D01*
X101966320Y-117250802D01*
X102086018Y-117287112D01*
X102210500Y-117299372D01*
X103910500Y-117299372D01*
X104034982Y-117287112D01*
X104154680Y-117250802D01*
X104264994Y-117191837D01*
X104361685Y-117112485D01*
X104441037Y-117015794D01*
X104500002Y-116905480D01*
X104522013Y-116832920D01*
X104653868Y-116964775D01*
X104897089Y-117127290D01*
X105167342Y-117239232D01*
X105454240Y-117296300D01*
X105746760Y-117296300D01*
X106033658Y-117239232D01*
X106303911Y-117127290D01*
X106547132Y-116964775D01*
X106753975Y-116757932D01*
X106870500Y-116583540D01*
X106987025Y-116757932D01*
X107193868Y-116964775D01*
X107437089Y-117127290D01*
X107707342Y-117239232D01*
X107994240Y-117296300D01*
X108286760Y-117296300D01*
X108573658Y-117239232D01*
X108843911Y-117127290D01*
X109087132Y-116964775D01*
X109293975Y-116757932D01*
X109410500Y-116583540D01*
X109527025Y-116757932D01*
X109733868Y-116964775D01*
X109977089Y-117127290D01*
X110247342Y-117239232D01*
X110534240Y-117296300D01*
X110826760Y-117296300D01*
X111113658Y-117239232D01*
X111383911Y-117127290D01*
X111627132Y-116964775D01*
X111833975Y-116757932D01*
X111950500Y-116583540D01*
X112067025Y-116757932D01*
X112273868Y-116964775D01*
X112517089Y-117127290D01*
X112787342Y-117239232D01*
X113074240Y-117296300D01*
X113366760Y-117296300D01*
X113653658Y-117239232D01*
X113923911Y-117127290D01*
X114167132Y-116964775D01*
X114373975Y-116757932D01*
X114490500Y-116583540D01*
X114607025Y-116757932D01*
X114813868Y-116964775D01*
X115057089Y-117127290D01*
X115327342Y-117239232D01*
X115614240Y-117296300D01*
X115906760Y-117296300D01*
X116193658Y-117239232D01*
X116463911Y-117127290D01*
X116707132Y-116964775D01*
X116913975Y-116757932D01*
X117030500Y-116583540D01*
X117147025Y-116757932D01*
X117353868Y-116964775D01*
X117597089Y-117127290D01*
X117867342Y-117239232D01*
X118154240Y-117296300D01*
X118446760Y-117296300D01*
X118733658Y-117239232D01*
X119003911Y-117127290D01*
X119247132Y-116964775D01*
X119453975Y-116757932D01*
X119570500Y-116583540D01*
X119687025Y-116757932D01*
X119893868Y-116964775D01*
X120137089Y-117127290D01*
X120407342Y-117239232D01*
X120694240Y-117296300D01*
X120986760Y-117296300D01*
X121273658Y-117239232D01*
X121543911Y-117127290D01*
X121787132Y-116964775D01*
X121993975Y-116757932D01*
X122110500Y-116583540D01*
X122227025Y-116757932D01*
X122433868Y-116964775D01*
X122677089Y-117127290D01*
X122947342Y-117239232D01*
X123234240Y-117296300D01*
X123526760Y-117296300D01*
X123813658Y-117239232D01*
X124083911Y-117127290D01*
X124327132Y-116964775D01*
X124533975Y-116757932D01*
X124650500Y-116583540D01*
X124767025Y-116757932D01*
X124973868Y-116964775D01*
X125217089Y-117127290D01*
X125487342Y-117239232D01*
X125774240Y-117296300D01*
X126066760Y-117296300D01*
X126353658Y-117239232D01*
X126623911Y-117127290D01*
X126867132Y-116964775D01*
X127073975Y-116757932D01*
X127190500Y-116583540D01*
X127307025Y-116757932D01*
X127513868Y-116964775D01*
X127757089Y-117127290D01*
X128027342Y-117239232D01*
X128314240Y-117296300D01*
X128606760Y-117296300D01*
X128893658Y-117239232D01*
X129163911Y-117127290D01*
X129407132Y-116964775D01*
X129613975Y-116757932D01*
X129776490Y-116514711D01*
X129888432Y-116244458D01*
X129945500Y-115957560D01*
X129945500Y-115665040D01*
X129888432Y-115378142D01*
X129776490Y-115107889D01*
X129613975Y-114864668D01*
X129407132Y-114657825D01*
X129163911Y-114495310D01*
X128893658Y-114383368D01*
X128606760Y-114326300D01*
X128314240Y-114326300D01*
X128027342Y-114383368D01*
X127757089Y-114495310D01*
X127513868Y-114657825D01*
X127307025Y-114864668D01*
X127190500Y-115039060D01*
X127073975Y-114864668D01*
X126867132Y-114657825D01*
X126623911Y-114495310D01*
X126353658Y-114383368D01*
X126066760Y-114326300D01*
X125774240Y-114326300D01*
X125487342Y-114383368D01*
X125217089Y-114495310D01*
X124973868Y-114657825D01*
X124767025Y-114864668D01*
X124650500Y-115039060D01*
X124533975Y-114864668D01*
X124327132Y-114657825D01*
X124083911Y-114495310D01*
X123813658Y-114383368D01*
X123526760Y-114326300D01*
X123234240Y-114326300D01*
X122947342Y-114383368D01*
X122677089Y-114495310D01*
X122433868Y-114657825D01*
X122227025Y-114864668D01*
X122110500Y-115039060D01*
X121993975Y-114864668D01*
X121787132Y-114657825D01*
X121543911Y-114495310D01*
X121273658Y-114383368D01*
X120986760Y-114326300D01*
X120694240Y-114326300D01*
X120407342Y-114383368D01*
X120137089Y-114495310D01*
X119893868Y-114657825D01*
X119687025Y-114864668D01*
X119570500Y-115039060D01*
X119453975Y-114864668D01*
X119247132Y-114657825D01*
X119003911Y-114495310D01*
X118733658Y-114383368D01*
X118446760Y-114326300D01*
X118154240Y-114326300D01*
X117867342Y-114383368D01*
X117597089Y-114495310D01*
X117353868Y-114657825D01*
X117147025Y-114864668D01*
X117030500Y-115039060D01*
X116913975Y-114864668D01*
X116707132Y-114657825D01*
X116463911Y-114495310D01*
X116193658Y-114383368D01*
X115906760Y-114326300D01*
X115614240Y-114326300D01*
X115327342Y-114383368D01*
X115057089Y-114495310D01*
X114813868Y-114657825D01*
X114607025Y-114864668D01*
X114490500Y-115039060D01*
X114373975Y-114864668D01*
X114167132Y-114657825D01*
X113923911Y-114495310D01*
X113653658Y-114383368D01*
X113366760Y-114326300D01*
X113074240Y-114326300D01*
X112787342Y-114383368D01*
X112517089Y-114495310D01*
X112273868Y-114657825D01*
X112067025Y-114864668D01*
X111950500Y-115039060D01*
X111833975Y-114864668D01*
X111627132Y-114657825D01*
X111383911Y-114495310D01*
X111113658Y-114383368D01*
X110826760Y-114326300D01*
X110534240Y-114326300D01*
X110247342Y-114383368D01*
X109977089Y-114495310D01*
X109733868Y-114657825D01*
X109527025Y-114864668D01*
X109410500Y-115039060D01*
X109293975Y-114864668D01*
X109087132Y-114657825D01*
X108843911Y-114495310D01*
X108573658Y-114383368D01*
X108286760Y-114326300D01*
X107994240Y-114326300D01*
X107707342Y-114383368D01*
X107437089Y-114495310D01*
X107193868Y-114657825D01*
X106987025Y-114864668D01*
X106870500Y-115039060D01*
X106753975Y-114864668D01*
X106547132Y-114657825D01*
X106303911Y-114495310D01*
X106033658Y-114383368D01*
X105746760Y-114326300D01*
X105454240Y-114326300D01*
X105167342Y-114383368D01*
X104897089Y-114495310D01*
X104653868Y-114657825D01*
X104522013Y-114789680D01*
X104500002Y-114717120D01*
X104441037Y-114606806D01*
X104361685Y-114510115D01*
X104264994Y-114430763D01*
X104154680Y-114371798D01*
X104034982Y-114335488D01*
X103910500Y-114323228D01*
X102210500Y-114323228D01*
X102086018Y-114335488D01*
X101966320Y-114371798D01*
X101856006Y-114430763D01*
X101759315Y-114510115D01*
X101679963Y-114606806D01*
X101620998Y-114717120D01*
X101584688Y-114836818D01*
X101572428Y-114961300D01*
X75660000Y-114961300D01*
X75660000Y-111867740D01*
X80874500Y-111867740D01*
X80874500Y-112160260D01*
X80931568Y-112447158D01*
X81043510Y-112717411D01*
X81206025Y-112960632D01*
X81412868Y-113167475D01*
X81656089Y-113329990D01*
X81926342Y-113441932D01*
X82213240Y-113499000D01*
X82505760Y-113499000D01*
X82792658Y-113441932D01*
X83062911Y-113329990D01*
X83306132Y-113167475D01*
X83437987Y-113035620D01*
X83459998Y-113108180D01*
X83518963Y-113218494D01*
X83598315Y-113315185D01*
X83695006Y-113394537D01*
X83805320Y-113453502D01*
X83925018Y-113489812D01*
X84049500Y-113502072D01*
X84613750Y-113499000D01*
X84772500Y-113340250D01*
X84772500Y-112141000D01*
X85026500Y-112141000D01*
X85026500Y-113340250D01*
X85185250Y-113499000D01*
X85749500Y-113502072D01*
X85873982Y-113489812D01*
X85993680Y-113453502D01*
X86103994Y-113394537D01*
X86200685Y-113315185D01*
X86280037Y-113218494D01*
X86339002Y-113108180D01*
X86375312Y-112988482D01*
X86387572Y-112864000D01*
X86384500Y-112299750D01*
X86225750Y-112141000D01*
X85026500Y-112141000D01*
X84772500Y-112141000D01*
X84752500Y-112141000D01*
X84752500Y-111887000D01*
X84772500Y-111887000D01*
X84772500Y-110687750D01*
X85026500Y-110687750D01*
X85026500Y-111887000D01*
X86225750Y-111887000D01*
X86384500Y-111728250D01*
X86387572Y-111164000D01*
X86381319Y-111100500D01*
X91094928Y-111100500D01*
X91094928Y-112800500D01*
X91107188Y-112924982D01*
X91143498Y-113044680D01*
X91202463Y-113154994D01*
X91281815Y-113251685D01*
X91378506Y-113331037D01*
X91488820Y-113390002D01*
X91608518Y-113426312D01*
X91733000Y-113438572D01*
X93433000Y-113438572D01*
X93557482Y-113426312D01*
X93677180Y-113390002D01*
X93787494Y-113331037D01*
X93884185Y-113251685D01*
X93963537Y-113154994D01*
X94022502Y-113044680D01*
X94044513Y-112972120D01*
X94176368Y-113103975D01*
X94419589Y-113266490D01*
X94689842Y-113378432D01*
X94976740Y-113435500D01*
X95269260Y-113435500D01*
X95556158Y-113378432D01*
X95826411Y-113266490D01*
X96069632Y-113103975D01*
X96276475Y-112897132D01*
X96393000Y-112722740D01*
X96509525Y-112897132D01*
X96716368Y-113103975D01*
X96959589Y-113266490D01*
X97229842Y-113378432D01*
X97516740Y-113435500D01*
X97809260Y-113435500D01*
X98096158Y-113378432D01*
X98366411Y-113266490D01*
X98609632Y-113103975D01*
X98816475Y-112897132D01*
X98978990Y-112653911D01*
X99090932Y-112383658D01*
X99148000Y-112096760D01*
X99148000Y-111867740D01*
X101575500Y-111867740D01*
X101575500Y-112160260D01*
X101632568Y-112447158D01*
X101744510Y-112717411D01*
X101907025Y-112960632D01*
X102113868Y-113167475D01*
X102357089Y-113329990D01*
X102627342Y-113441932D01*
X102914240Y-113499000D01*
X103206760Y-113499000D01*
X103493658Y-113441932D01*
X103763911Y-113329990D01*
X104007132Y-113167475D01*
X104213975Y-112960632D01*
X104330500Y-112786240D01*
X104447025Y-112960632D01*
X104653868Y-113167475D01*
X104897089Y-113329990D01*
X105167342Y-113441932D01*
X105454240Y-113499000D01*
X105746760Y-113499000D01*
X106033658Y-113441932D01*
X106303911Y-113329990D01*
X106547132Y-113167475D01*
X106753975Y-112960632D01*
X106870500Y-112786240D01*
X106987025Y-112960632D01*
X107193868Y-113167475D01*
X107437089Y-113329990D01*
X107707342Y-113441932D01*
X107994240Y-113499000D01*
X108286760Y-113499000D01*
X108573658Y-113441932D01*
X108843911Y-113329990D01*
X109087132Y-113167475D01*
X109293975Y-112960632D01*
X109410500Y-112786240D01*
X109527025Y-112960632D01*
X109733868Y-113167475D01*
X109977089Y-113329990D01*
X110247342Y-113441932D01*
X110534240Y-113499000D01*
X110826760Y-113499000D01*
X111113658Y-113441932D01*
X111383911Y-113329990D01*
X111627132Y-113167475D01*
X111833975Y-112960632D01*
X111950500Y-112786240D01*
X112067025Y-112960632D01*
X112273868Y-113167475D01*
X112517089Y-113329990D01*
X112787342Y-113441932D01*
X113074240Y-113499000D01*
X113366760Y-113499000D01*
X113653658Y-113441932D01*
X113923911Y-113329990D01*
X114167132Y-113167475D01*
X114373975Y-112960632D01*
X114490500Y-112786240D01*
X114607025Y-112960632D01*
X114813868Y-113167475D01*
X115057089Y-113329990D01*
X115327342Y-113441932D01*
X115614240Y-113499000D01*
X115906760Y-113499000D01*
X116193658Y-113441932D01*
X116463911Y-113329990D01*
X116707132Y-113167475D01*
X116913975Y-112960632D01*
X117030500Y-112786240D01*
X117147025Y-112960632D01*
X117353868Y-113167475D01*
X117597089Y-113329990D01*
X117867342Y-113441932D01*
X118154240Y-113499000D01*
X118446760Y-113499000D01*
X118733658Y-113441932D01*
X119003911Y-113329990D01*
X119247132Y-113167475D01*
X119453975Y-112960632D01*
X119570500Y-112786240D01*
X119687025Y-112960632D01*
X119893868Y-113167475D01*
X120137089Y-113329990D01*
X120407342Y-113441932D01*
X120694240Y-113499000D01*
X120986760Y-113499000D01*
X121273658Y-113441932D01*
X121543911Y-113329990D01*
X121787132Y-113167475D01*
X121993975Y-112960632D01*
X122110500Y-112786240D01*
X122227025Y-112960632D01*
X122433868Y-113167475D01*
X122677089Y-113329990D01*
X122947342Y-113441932D01*
X123234240Y-113499000D01*
X123526760Y-113499000D01*
X123813658Y-113441932D01*
X124083911Y-113329990D01*
X124327132Y-113167475D01*
X124533975Y-112960632D01*
X124650500Y-112786240D01*
X124767025Y-112960632D01*
X124973868Y-113167475D01*
X125217089Y-113329990D01*
X125487342Y-113441932D01*
X125774240Y-113499000D01*
X126066760Y-113499000D01*
X126353658Y-113441932D01*
X126623911Y-113329990D01*
X126867132Y-113167475D01*
X126998987Y-113035620D01*
X127020998Y-113108180D01*
X127079963Y-113218494D01*
X127159315Y-113315185D01*
X127256006Y-113394537D01*
X127366320Y-113453502D01*
X127486018Y-113489812D01*
X127610500Y-113502072D01*
X129310500Y-113502072D01*
X129434982Y-113489812D01*
X129554680Y-113453502D01*
X129664994Y-113394537D01*
X129761685Y-113315185D01*
X129841037Y-113218494D01*
X129900002Y-113108180D01*
X129936312Y-112988482D01*
X129948572Y-112864000D01*
X129948572Y-111164000D01*
X129936312Y-111039518D01*
X129900002Y-110919820D01*
X129841037Y-110809506D01*
X129761685Y-110712815D01*
X129664994Y-110633463D01*
X129554680Y-110574498D01*
X129434982Y-110538188D01*
X129310500Y-110525928D01*
X127610500Y-110525928D01*
X127486018Y-110538188D01*
X127366320Y-110574498D01*
X127256006Y-110633463D01*
X127159315Y-110712815D01*
X127079963Y-110809506D01*
X127020998Y-110919820D01*
X126998987Y-110992380D01*
X126867132Y-110860525D01*
X126623911Y-110698010D01*
X126353658Y-110586068D01*
X126066760Y-110529000D01*
X125774240Y-110529000D01*
X125487342Y-110586068D01*
X125217089Y-110698010D01*
X124973868Y-110860525D01*
X124767025Y-111067368D01*
X124650500Y-111241760D01*
X124533975Y-111067368D01*
X124327132Y-110860525D01*
X124083911Y-110698010D01*
X123813658Y-110586068D01*
X123526760Y-110529000D01*
X123234240Y-110529000D01*
X122947342Y-110586068D01*
X122677089Y-110698010D01*
X122433868Y-110860525D01*
X122227025Y-111067368D01*
X122110500Y-111241760D01*
X121993975Y-111067368D01*
X121787132Y-110860525D01*
X121543911Y-110698010D01*
X121273658Y-110586068D01*
X120986760Y-110529000D01*
X120694240Y-110529000D01*
X120407342Y-110586068D01*
X120137089Y-110698010D01*
X119893868Y-110860525D01*
X119687025Y-111067368D01*
X119570500Y-111241760D01*
X119453975Y-111067368D01*
X119247132Y-110860525D01*
X119003911Y-110698010D01*
X118733658Y-110586068D01*
X118446760Y-110529000D01*
X118154240Y-110529000D01*
X117867342Y-110586068D01*
X117597089Y-110698010D01*
X117353868Y-110860525D01*
X117147025Y-111067368D01*
X117030500Y-111241760D01*
X116913975Y-111067368D01*
X116707132Y-110860525D01*
X116463911Y-110698010D01*
X116193658Y-110586068D01*
X115906760Y-110529000D01*
X115614240Y-110529000D01*
X115327342Y-110586068D01*
X115057089Y-110698010D01*
X114813868Y-110860525D01*
X114607025Y-111067368D01*
X114490500Y-111241760D01*
X114373975Y-111067368D01*
X114167132Y-110860525D01*
X113923911Y-110698010D01*
X113653658Y-110586068D01*
X113366760Y-110529000D01*
X113074240Y-110529000D01*
X112787342Y-110586068D01*
X112517089Y-110698010D01*
X112273868Y-110860525D01*
X112067025Y-111067368D01*
X111950500Y-111241760D01*
X111833975Y-111067368D01*
X111627132Y-110860525D01*
X111383911Y-110698010D01*
X111113658Y-110586068D01*
X110826760Y-110529000D01*
X110534240Y-110529000D01*
X110247342Y-110586068D01*
X109977089Y-110698010D01*
X109733868Y-110860525D01*
X109527025Y-111067368D01*
X109410500Y-111241760D01*
X109293975Y-111067368D01*
X109087132Y-110860525D01*
X108843911Y-110698010D01*
X108573658Y-110586068D01*
X108286760Y-110529000D01*
X107994240Y-110529000D01*
X107707342Y-110586068D01*
X107437089Y-110698010D01*
X107193868Y-110860525D01*
X106987025Y-111067368D01*
X106870500Y-111241760D01*
X106753975Y-111067368D01*
X106547132Y-110860525D01*
X106303911Y-110698010D01*
X106033658Y-110586068D01*
X105746760Y-110529000D01*
X105454240Y-110529000D01*
X105167342Y-110586068D01*
X104897089Y-110698010D01*
X104653868Y-110860525D01*
X104447025Y-111067368D01*
X104330500Y-111241760D01*
X104213975Y-111067368D01*
X104007132Y-110860525D01*
X103763911Y-110698010D01*
X103493658Y-110586068D01*
X103206760Y-110529000D01*
X102914240Y-110529000D01*
X102627342Y-110586068D01*
X102357089Y-110698010D01*
X102113868Y-110860525D01*
X101907025Y-111067368D01*
X101744510Y-111310589D01*
X101632568Y-111580842D01*
X101575500Y-111867740D01*
X99148000Y-111867740D01*
X99148000Y-111804240D01*
X99090932Y-111517342D01*
X98978990Y-111247089D01*
X98816475Y-111003868D01*
X98609632Y-110797025D01*
X98366411Y-110634510D01*
X98096158Y-110522568D01*
X97809260Y-110465500D01*
X97516740Y-110465500D01*
X97229842Y-110522568D01*
X96959589Y-110634510D01*
X96716368Y-110797025D01*
X96509525Y-111003868D01*
X96393000Y-111178260D01*
X96276475Y-111003868D01*
X96069632Y-110797025D01*
X95826411Y-110634510D01*
X95556158Y-110522568D01*
X95269260Y-110465500D01*
X94976740Y-110465500D01*
X94689842Y-110522568D01*
X94419589Y-110634510D01*
X94176368Y-110797025D01*
X94044513Y-110928880D01*
X94022502Y-110856320D01*
X93963537Y-110746006D01*
X93884185Y-110649315D01*
X93787494Y-110569963D01*
X93677180Y-110510998D01*
X93557482Y-110474688D01*
X93433000Y-110462428D01*
X91733000Y-110462428D01*
X91608518Y-110474688D01*
X91488820Y-110510998D01*
X91378506Y-110569963D01*
X91281815Y-110649315D01*
X91202463Y-110746006D01*
X91143498Y-110856320D01*
X91107188Y-110976018D01*
X91094928Y-111100500D01*
X86381319Y-111100500D01*
X86375312Y-111039518D01*
X86339002Y-110919820D01*
X86280037Y-110809506D01*
X86200685Y-110712815D01*
X86103994Y-110633463D01*
X85993680Y-110574498D01*
X85873982Y-110538188D01*
X85749500Y-110525928D01*
X85185250Y-110529000D01*
X85026500Y-110687750D01*
X84772500Y-110687750D01*
X84613750Y-110529000D01*
X84049500Y-110525928D01*
X83925018Y-110538188D01*
X83805320Y-110574498D01*
X83695006Y-110633463D01*
X83598315Y-110712815D01*
X83518963Y-110809506D01*
X83459998Y-110919820D01*
X83437987Y-110992380D01*
X83306132Y-110860525D01*
X83062911Y-110698010D01*
X82792658Y-110586068D01*
X82505760Y-110529000D01*
X82213240Y-110529000D01*
X81926342Y-110586068D01*
X81656089Y-110698010D01*
X81412868Y-110860525D01*
X81206025Y-111067368D01*
X81043510Y-111310589D01*
X80931568Y-111580842D01*
X80874500Y-111867740D01*
X75660000Y-111867740D01*
X75660000Y-94057100D01*
X76820128Y-94057100D01*
X76820128Y-95757100D01*
X76832388Y-95881582D01*
X76868698Y-96001280D01*
X76927663Y-96111594D01*
X77007015Y-96208285D01*
X77103706Y-96287637D01*
X77214020Y-96346602D01*
X77333718Y-96382912D01*
X77458200Y-96395172D01*
X79158200Y-96395172D01*
X79282682Y-96382912D01*
X79402380Y-96346602D01*
X79512694Y-96287637D01*
X79609385Y-96208285D01*
X79688737Y-96111594D01*
X79747702Y-96001280D01*
X79784012Y-95881582D01*
X79796272Y-95757100D01*
X79796272Y-94057100D01*
X79784012Y-93932618D01*
X79747702Y-93812920D01*
X79688737Y-93702606D01*
X79609385Y-93605915D01*
X79512694Y-93526563D01*
X79402380Y-93467598D01*
X79329820Y-93445587D01*
X79461675Y-93313732D01*
X79624190Y-93070511D01*
X79736132Y-92800258D01*
X79793200Y-92513360D01*
X79793200Y-92220840D01*
X79736132Y-91933942D01*
X79624190Y-91663689D01*
X79461675Y-91420468D01*
X79254832Y-91213625D01*
X79080440Y-91097100D01*
X79254832Y-90980575D01*
X79461675Y-90773732D01*
X79624190Y-90530511D01*
X79736132Y-90260258D01*
X79793200Y-89973360D01*
X79793200Y-89680840D01*
X79736132Y-89393942D01*
X79624190Y-89123689D01*
X79461675Y-88880468D01*
X79254832Y-88673625D01*
X79080440Y-88557100D01*
X79254832Y-88440575D01*
X79461675Y-88233732D01*
X79624190Y-87990511D01*
X79736132Y-87720258D01*
X79793200Y-87433360D01*
X79793200Y-87140840D01*
X79736132Y-86853942D01*
X79624190Y-86583689D01*
X79461675Y-86340468D01*
X79254832Y-86133625D01*
X79080440Y-86017100D01*
X79254832Y-85900575D01*
X79461675Y-85693732D01*
X79624190Y-85450511D01*
X79736132Y-85180258D01*
X79793200Y-84893360D01*
X79793200Y-84600840D01*
X79736132Y-84313942D01*
X79624190Y-84043689D01*
X79461675Y-83800468D01*
X79254832Y-83593625D01*
X79080440Y-83477100D01*
X79254832Y-83360575D01*
X79461675Y-83153732D01*
X79624190Y-82910511D01*
X79736132Y-82640258D01*
X79793200Y-82353360D01*
X79793200Y-82060840D01*
X79736132Y-81773942D01*
X79624190Y-81503689D01*
X79461675Y-81260468D01*
X79254832Y-81053625D01*
X79080440Y-80937100D01*
X79254832Y-80820575D01*
X79461675Y-80613732D01*
X79624190Y-80370511D01*
X79736132Y-80100258D01*
X79793200Y-79813360D01*
X79793200Y-79520840D01*
X79736132Y-79233942D01*
X79624190Y-78963689D01*
X79461675Y-78720468D01*
X79254832Y-78513625D01*
X79080440Y-78397100D01*
X79254832Y-78280575D01*
X79461675Y-78073732D01*
X79624190Y-77830511D01*
X79736132Y-77560258D01*
X79793200Y-77273360D01*
X79793200Y-76980840D01*
X79736132Y-76693942D01*
X79624190Y-76423689D01*
X79543215Y-76302500D01*
X80680928Y-76302500D01*
X80680928Y-78002500D01*
X80693188Y-78126982D01*
X80729498Y-78246680D01*
X80788463Y-78356994D01*
X80867815Y-78453685D01*
X80964506Y-78533037D01*
X81074820Y-78592002D01*
X81147380Y-78614013D01*
X81015525Y-78745868D01*
X80853010Y-78989089D01*
X80741068Y-79259342D01*
X80684000Y-79546240D01*
X80684000Y-79838760D01*
X80741068Y-80125658D01*
X80853010Y-80395911D01*
X81015525Y-80639132D01*
X81222368Y-80845975D01*
X81396760Y-80962500D01*
X81222368Y-81079025D01*
X81015525Y-81285868D01*
X80853010Y-81529089D01*
X80741068Y-81799342D01*
X80684000Y-82086240D01*
X80684000Y-82378760D01*
X80741068Y-82665658D01*
X80853010Y-82935911D01*
X81015525Y-83179132D01*
X81222368Y-83385975D01*
X81396760Y-83502500D01*
X81222368Y-83619025D01*
X81015525Y-83825868D01*
X80853010Y-84069089D01*
X80741068Y-84339342D01*
X80684000Y-84626240D01*
X80684000Y-84918760D01*
X80741068Y-85205658D01*
X80853010Y-85475911D01*
X81015525Y-85719132D01*
X81222368Y-85925975D01*
X81396760Y-86042500D01*
X81222368Y-86159025D01*
X81015525Y-86365868D01*
X80853010Y-86609089D01*
X80741068Y-86879342D01*
X80684000Y-87166240D01*
X80684000Y-87458760D01*
X80741068Y-87745658D01*
X80853010Y-88015911D01*
X81015525Y-88259132D01*
X81222368Y-88465975D01*
X81396760Y-88582500D01*
X81222368Y-88699025D01*
X81015525Y-88905868D01*
X80853010Y-89149089D01*
X80741068Y-89419342D01*
X80684000Y-89706240D01*
X80684000Y-89998760D01*
X80741068Y-90285658D01*
X80853010Y-90555911D01*
X81015525Y-90799132D01*
X81222368Y-91005975D01*
X81396760Y-91122500D01*
X81222368Y-91239025D01*
X81015525Y-91445868D01*
X80853010Y-91689089D01*
X80741068Y-91959342D01*
X80684000Y-92246240D01*
X80684000Y-92538760D01*
X80741068Y-92825658D01*
X80853010Y-93095911D01*
X81015525Y-93339132D01*
X81222368Y-93545975D01*
X81396760Y-93662500D01*
X81222368Y-93779025D01*
X81015525Y-93985868D01*
X80853010Y-94229089D01*
X80741068Y-94499342D01*
X80684000Y-94786240D01*
X80684000Y-95078760D01*
X80741068Y-95365658D01*
X80853010Y-95635911D01*
X81015525Y-95879132D01*
X81222368Y-96085975D01*
X81465589Y-96248490D01*
X81735842Y-96360432D01*
X82022740Y-96417500D01*
X82315260Y-96417500D01*
X82602158Y-96360432D01*
X82872411Y-96248490D01*
X83115632Y-96085975D01*
X83322475Y-95879132D01*
X83484990Y-95635911D01*
X83596932Y-95365658D01*
X83654000Y-95078760D01*
X83654000Y-94786240D01*
X83596932Y-94499342D01*
X83484990Y-94229089D01*
X83322475Y-93985868D01*
X83115632Y-93779025D01*
X82941240Y-93662500D01*
X83072941Y-93574500D01*
X87475428Y-93574500D01*
X87475428Y-95274500D01*
X87487688Y-95398982D01*
X87523998Y-95518680D01*
X87582963Y-95628994D01*
X87662315Y-95725685D01*
X87759006Y-95805037D01*
X87869320Y-95864002D01*
X87989018Y-95900312D01*
X88113500Y-95912572D01*
X89813500Y-95912572D01*
X89937982Y-95900312D01*
X90057680Y-95864002D01*
X90167994Y-95805037D01*
X90264685Y-95725685D01*
X90344037Y-95628994D01*
X90403002Y-95518680D01*
X90425013Y-95446120D01*
X90556868Y-95577975D01*
X90800089Y-95740490D01*
X91070342Y-95852432D01*
X91357240Y-95909500D01*
X91649760Y-95909500D01*
X91936658Y-95852432D01*
X92206911Y-95740490D01*
X92450132Y-95577975D01*
X92656975Y-95371132D01*
X92773500Y-95196740D01*
X92890025Y-95371132D01*
X93096868Y-95577975D01*
X93340089Y-95740490D01*
X93610342Y-95852432D01*
X93897240Y-95909500D01*
X94189760Y-95909500D01*
X94476658Y-95852432D01*
X94746911Y-95740490D01*
X94990132Y-95577975D01*
X95039046Y-95529061D01*
X105645000Y-95529061D01*
X105645000Y-95732939D01*
X105684774Y-95932898D01*
X105695000Y-95957586D01*
X105695001Y-100062012D01*
X105690235Y-100110402D01*
X105709253Y-100303495D01*
X105765576Y-100489168D01*
X105765577Y-100489169D01*
X105857041Y-100660286D01*
X105980131Y-100810272D01*
X106017712Y-100841114D01*
X106458479Y-101281880D01*
X106489329Y-101319471D01*
X106639315Y-101442561D01*
X106810432Y-101534025D01*
X106996105Y-101590348D01*
X107189198Y-101609366D01*
X107237578Y-101604601D01*
X108475619Y-101604601D01*
X108523999Y-101609366D01*
X108572379Y-101604601D01*
X108717093Y-101590348D01*
X108902766Y-101534025D01*
X109073883Y-101442561D01*
X109223869Y-101319471D01*
X109254715Y-101281885D01*
X114555601Y-95981000D01*
X121427120Y-95981000D01*
X121475500Y-95985765D01*
X121523880Y-95981000D01*
X121668594Y-95966747D01*
X121854267Y-95910424D01*
X122025384Y-95818960D01*
X122175370Y-95695870D01*
X122206216Y-95658284D01*
X122576069Y-95288431D01*
X122600756Y-95278205D01*
X122770274Y-95164937D01*
X122914437Y-95020774D01*
X123027705Y-94851256D01*
X123105726Y-94662898D01*
X123145500Y-94462939D01*
X123145500Y-94259061D01*
X123105726Y-94059102D01*
X123095500Y-94034414D01*
X123095500Y-85709880D01*
X123100265Y-85661500D01*
X123087260Y-85529456D01*
X123081247Y-85468406D01*
X123067456Y-85422943D01*
X123042226Y-85296102D01*
X123032000Y-85271414D01*
X123032000Y-82852379D01*
X123036765Y-82803999D01*
X123017747Y-82610905D01*
X122999650Y-82551247D01*
X122961424Y-82425233D01*
X122869960Y-82254116D01*
X122746870Y-82104130D01*
X122709284Y-82073284D01*
X114338431Y-73702431D01*
X114328205Y-73677744D01*
X114214937Y-73508226D01*
X114070774Y-73364063D01*
X113901256Y-73250795D01*
X113712898Y-73172774D01*
X113512939Y-73133000D01*
X113309061Y-73133000D01*
X113109102Y-73172774D01*
X112920744Y-73250795D01*
X112751226Y-73364063D01*
X112607063Y-73508226D01*
X112493795Y-73677744D01*
X112415774Y-73866102D01*
X112376000Y-74066061D01*
X112376000Y-74269939D01*
X112415774Y-74469898D01*
X112493795Y-74658256D01*
X112607063Y-74827774D01*
X112751226Y-74971937D01*
X112920744Y-75085205D01*
X112945431Y-75095431D01*
X121062001Y-83212001D01*
X121062000Y-85271414D01*
X121051774Y-85296102D01*
X121012000Y-85496061D01*
X121012000Y-85699939D01*
X121051774Y-85899898D01*
X121125501Y-86077889D01*
X121125500Y-93953000D01*
X121067500Y-94011000D01*
X114474186Y-94011000D01*
X114449498Y-94000774D01*
X114249539Y-93961000D01*
X114045661Y-93961000D01*
X113845702Y-94000774D01*
X113657344Y-94078795D01*
X113487826Y-94192063D01*
X113343663Y-94336226D01*
X113230395Y-94505744D01*
X113220170Y-94530429D01*
X109181001Y-98569599D01*
X109181001Y-82296326D01*
X109184677Y-82259001D01*
X109181001Y-82221676D01*
X109181001Y-82221668D01*
X109170004Y-82110015D01*
X109126547Y-81966754D01*
X109055975Y-81834725D01*
X108961002Y-81719000D01*
X108932004Y-81695202D01*
X108324600Y-81087799D01*
X108324600Y-81025661D01*
X108284826Y-80825702D01*
X108206805Y-80637344D01*
X108093537Y-80467826D01*
X107949374Y-80323663D01*
X107779856Y-80210395D01*
X107591498Y-80132374D01*
X107391539Y-80092600D01*
X107187661Y-80092600D01*
X106987702Y-80132374D01*
X106799344Y-80210395D01*
X106629826Y-80323663D01*
X106485663Y-80467826D01*
X106372395Y-80637344D01*
X106294374Y-80825702D01*
X106254600Y-81025661D01*
X106254600Y-81229539D01*
X106294374Y-81429498D01*
X106372395Y-81617856D01*
X106485663Y-81787374D01*
X106629826Y-81931537D01*
X106799344Y-82044805D01*
X106987702Y-82122826D01*
X107187661Y-82162600D01*
X107249799Y-82162600D01*
X107661002Y-82573804D01*
X107661001Y-95294761D01*
X107597205Y-95140744D01*
X107483937Y-94971226D01*
X107339774Y-94827063D01*
X107170256Y-94713795D01*
X106981898Y-94635774D01*
X106781939Y-94596000D01*
X106578061Y-94596000D01*
X106378102Y-94635774D01*
X106189744Y-94713795D01*
X106020226Y-94827063D01*
X105876063Y-94971226D01*
X105762795Y-95140744D01*
X105684774Y-95329102D01*
X105645000Y-95529061D01*
X95039046Y-95529061D01*
X95196975Y-95371132D01*
X95359490Y-95127911D01*
X95471432Y-94857658D01*
X95528500Y-94570760D01*
X95528500Y-94278240D01*
X95471432Y-93991342D01*
X95359490Y-93721089D01*
X95196975Y-93477868D01*
X94990132Y-93271025D01*
X94746911Y-93108510D01*
X94476658Y-92996568D01*
X94189760Y-92939500D01*
X93897240Y-92939500D01*
X93610342Y-92996568D01*
X93340089Y-93108510D01*
X93096868Y-93271025D01*
X92890025Y-93477868D01*
X92773500Y-93652260D01*
X92656975Y-93477868D01*
X92450132Y-93271025D01*
X92206911Y-93108510D01*
X91936658Y-92996568D01*
X91649760Y-92939500D01*
X91357240Y-92939500D01*
X91070342Y-92996568D01*
X90800089Y-93108510D01*
X90556868Y-93271025D01*
X90425013Y-93402880D01*
X90403002Y-93330320D01*
X90344037Y-93220006D01*
X90264685Y-93123315D01*
X90167994Y-93043963D01*
X90057680Y-92984998D01*
X89937982Y-92948688D01*
X89813500Y-92936428D01*
X88113500Y-92936428D01*
X87989018Y-92948688D01*
X87869320Y-92984998D01*
X87759006Y-93043963D01*
X87662315Y-93123315D01*
X87582963Y-93220006D01*
X87523998Y-93330320D01*
X87487688Y-93450018D01*
X87475428Y-93574500D01*
X83072941Y-93574500D01*
X83115632Y-93545975D01*
X83322475Y-93339132D01*
X83484990Y-93095911D01*
X83596932Y-92825658D01*
X83654000Y-92538760D01*
X83654000Y-92246240D01*
X83596932Y-91959342D01*
X83484990Y-91689089D01*
X83322475Y-91445868D01*
X83115632Y-91239025D01*
X82941240Y-91122500D01*
X83115632Y-91005975D01*
X83322475Y-90799132D01*
X83484990Y-90555911D01*
X83596932Y-90285658D01*
X83654000Y-89998760D01*
X83654000Y-89706240D01*
X83596932Y-89419342D01*
X83484990Y-89149089D01*
X83322475Y-88905868D01*
X83115632Y-88699025D01*
X82941240Y-88582500D01*
X83115632Y-88465975D01*
X83322475Y-88259132D01*
X83484990Y-88015911D01*
X83596932Y-87745658D01*
X83654000Y-87458760D01*
X83654000Y-87166240D01*
X83596932Y-86879342D01*
X83484990Y-86609089D01*
X83322475Y-86365868D01*
X83115632Y-86159025D01*
X82941240Y-86042500D01*
X83115632Y-85925975D01*
X83322475Y-85719132D01*
X83484990Y-85475911D01*
X83596932Y-85205658D01*
X83654000Y-84918760D01*
X83654000Y-84626240D01*
X83596932Y-84339342D01*
X83484990Y-84069089D01*
X83322475Y-83825868D01*
X83115632Y-83619025D01*
X82941240Y-83502500D01*
X83115632Y-83385975D01*
X83322475Y-83179132D01*
X83484990Y-82935911D01*
X83596932Y-82665658D01*
X83654000Y-82378760D01*
X83654000Y-82086240D01*
X83596932Y-81799342D01*
X83484990Y-81529089D01*
X83322475Y-81285868D01*
X83151168Y-81114561D01*
X88182500Y-81114561D01*
X88182500Y-81318439D01*
X88222274Y-81518398D01*
X88232500Y-81543086D01*
X88232501Y-90388310D01*
X88227735Y-90436700D01*
X88246753Y-90629793D01*
X88303076Y-90815466D01*
X88338693Y-90882100D01*
X88394541Y-90986584D01*
X88517631Y-91136570D01*
X88555211Y-91167411D01*
X88683769Y-91295969D01*
X88693995Y-91320656D01*
X88807263Y-91490174D01*
X88951426Y-91634337D01*
X89120944Y-91747605D01*
X89309302Y-91825626D01*
X89509261Y-91865400D01*
X89713139Y-91865400D01*
X89913098Y-91825626D01*
X90101456Y-91747605D01*
X90270974Y-91634337D01*
X90415137Y-91490174D01*
X90528405Y-91320656D01*
X90606426Y-91132298D01*
X90646200Y-90932339D01*
X90646200Y-90728461D01*
X90606426Y-90528502D01*
X90528405Y-90340144D01*
X90415137Y-90170626D01*
X90270974Y-90026463D01*
X90202500Y-89980710D01*
X90202500Y-82765561D01*
X93199000Y-82765561D01*
X93199000Y-82969439D01*
X93238774Y-83169398D01*
X93316795Y-83357756D01*
X93430063Y-83527274D01*
X93474000Y-83571211D01*
X93474001Y-88386788D01*
X93430063Y-88430726D01*
X93316795Y-88600244D01*
X93238774Y-88788602D01*
X93199000Y-88988561D01*
X93199000Y-89192439D01*
X93238774Y-89392398D01*
X93316795Y-89580756D01*
X93430063Y-89750274D01*
X93574226Y-89894437D01*
X93743744Y-90007705D01*
X93932102Y-90085726D01*
X94132061Y-90125500D01*
X94335939Y-90125500D01*
X94535898Y-90085726D01*
X94724256Y-90007705D01*
X94893774Y-89894437D01*
X95037937Y-89750274D01*
X95151205Y-89580756D01*
X95229226Y-89392398D01*
X95269000Y-89192439D01*
X95269000Y-89154368D01*
X95342561Y-89169000D01*
X95546439Y-89169000D01*
X95746398Y-89129226D01*
X95934756Y-89051205D01*
X96104274Y-88937937D01*
X96248437Y-88793774D01*
X96361705Y-88624256D01*
X96439726Y-88435898D01*
X96479500Y-88235939D01*
X96479500Y-88032061D01*
X96439726Y-87832102D01*
X96361705Y-87643744D01*
X96248437Y-87474226D01*
X96204500Y-87430289D01*
X96204500Y-82233711D01*
X96248437Y-82189774D01*
X96361705Y-82020256D01*
X96439726Y-81831898D01*
X96479500Y-81631939D01*
X96479500Y-81428061D01*
X96439726Y-81228102D01*
X96392696Y-81114561D01*
X98025000Y-81114561D01*
X98025000Y-81318439D01*
X98064774Y-81518398D01*
X98142795Y-81706756D01*
X98256063Y-81876274D01*
X98400226Y-82020437D01*
X98569744Y-82133705D01*
X98758102Y-82211726D01*
X98958061Y-82251500D01*
X99161939Y-82251500D01*
X99361898Y-82211726D01*
X99550256Y-82133705D01*
X99719774Y-82020437D01*
X99790212Y-81949999D01*
X101442699Y-81949999D01*
X100644498Y-82748201D01*
X100615500Y-82771999D01*
X100591702Y-82800997D01*
X100591701Y-82800998D01*
X100520526Y-82887724D01*
X100449954Y-83019754D01*
X100419680Y-83119558D01*
X100406498Y-83163014D01*
X100404553Y-83182766D01*
X100391824Y-83312000D01*
X100395501Y-83349332D01*
X100395500Y-84068789D01*
X100360703Y-84103586D01*
X100128271Y-83871155D01*
X100182226Y-83740898D01*
X100222000Y-83540939D01*
X100222000Y-83337061D01*
X100182226Y-83137102D01*
X100104205Y-82948744D01*
X99990937Y-82779226D01*
X99846774Y-82635063D01*
X99677256Y-82521795D01*
X99488898Y-82443774D01*
X99288939Y-82404000D01*
X99085061Y-82404000D01*
X98885102Y-82443774D01*
X98696744Y-82521795D01*
X98527226Y-82635063D01*
X98383063Y-82779226D01*
X98269795Y-82948744D01*
X98191774Y-83137102D01*
X98152000Y-83337061D01*
X98152000Y-83540939D01*
X98191774Y-83740898D01*
X98269795Y-83929256D01*
X98383063Y-84098774D01*
X98438013Y-84153724D01*
X98481454Y-84296932D01*
X98504123Y-84339342D01*
X98552026Y-84428961D01*
X98623201Y-84515687D01*
X98647000Y-84544686D01*
X98675998Y-84568484D01*
X100661016Y-86553503D01*
X100684814Y-86582501D01*
X100713812Y-86606299D01*
X100800539Y-86677474D01*
X100932568Y-86748046D01*
X101075829Y-86791503D01*
X101224815Y-86806177D01*
X101262148Y-86802500D01*
X102420289Y-86802500D01*
X102464226Y-86846437D01*
X102633744Y-86959705D01*
X102822102Y-87037726D01*
X103022061Y-87077500D01*
X103225939Y-87077500D01*
X103425898Y-87037726D01*
X103614256Y-86959705D01*
X103783774Y-86846437D01*
X103927937Y-86702274D01*
X104041205Y-86532756D01*
X104119226Y-86344398D01*
X104159000Y-86144439D01*
X104159000Y-85940561D01*
X104119226Y-85740602D01*
X104041205Y-85552244D01*
X103927937Y-85382726D01*
X103783774Y-85238563D01*
X103614256Y-85125295D01*
X103425898Y-85047274D01*
X103225939Y-85007500D01*
X103022061Y-85007500D01*
X102822102Y-85047274D01*
X102633744Y-85125295D01*
X102464226Y-85238563D01*
X102420289Y-85282500D01*
X102059513Y-85282500D01*
X102072705Y-85262756D01*
X102150726Y-85074398D01*
X102190500Y-84874439D01*
X102190500Y-84670561D01*
X102150726Y-84470602D01*
X102072705Y-84282244D01*
X101959437Y-84112726D01*
X101915500Y-84068789D01*
X101915500Y-83626801D01*
X102592302Y-82950000D01*
X102654439Y-82950000D01*
X102854398Y-82910226D01*
X103042756Y-82832205D01*
X103212274Y-82718937D01*
X103321548Y-82609663D01*
X105560944Y-84849060D01*
X105543400Y-84937261D01*
X105543400Y-85141139D01*
X105583174Y-85341098D01*
X105661195Y-85529456D01*
X105774463Y-85698974D01*
X105918626Y-85843137D01*
X106088144Y-85956405D01*
X106276502Y-86034426D01*
X106476461Y-86074200D01*
X106680339Y-86074200D01*
X106880298Y-86034426D01*
X107068656Y-85956405D01*
X107238174Y-85843137D01*
X107382337Y-85698974D01*
X107495605Y-85529456D01*
X107573626Y-85341098D01*
X107613400Y-85141139D01*
X107613400Y-84937261D01*
X107573626Y-84737302D01*
X107563400Y-84712614D01*
X107563400Y-84521895D01*
X107568165Y-84473515D01*
X107549147Y-84280421D01*
X107492824Y-84094748D01*
X107474786Y-84061002D01*
X107401360Y-83923631D01*
X107278270Y-83773645D01*
X107240690Y-83742804D01*
X103800600Y-80302715D01*
X103769754Y-80265129D01*
X103619768Y-80142039D01*
X103448651Y-80050575D01*
X103262978Y-79994252D01*
X103118264Y-79979999D01*
X103069884Y-79975234D01*
X103021504Y-79979999D01*
X99359880Y-79979999D01*
X99311500Y-79975234D01*
X99156603Y-79990490D01*
X99118407Y-79994252D01*
X98932734Y-80050575D01*
X98761617Y-80142039D01*
X98611631Y-80265129D01*
X98590723Y-80290605D01*
X98569744Y-80299295D01*
X98400226Y-80412563D01*
X98256063Y-80556726D01*
X98142795Y-80726244D01*
X98064774Y-80914602D01*
X98025000Y-81114561D01*
X96392696Y-81114561D01*
X96361705Y-81039744D01*
X96248437Y-80870226D01*
X96104274Y-80726063D01*
X95934756Y-80612795D01*
X95746398Y-80534774D01*
X95546439Y-80495000D01*
X95342561Y-80495000D01*
X95142602Y-80534774D01*
X94954244Y-80612795D01*
X94784726Y-80726063D01*
X94640563Y-80870226D01*
X94527295Y-81039744D01*
X94449274Y-81228102D01*
X94409500Y-81428061D01*
X94409500Y-81631939D01*
X94449274Y-81831898D01*
X94459722Y-81857122D01*
X94335939Y-81832500D01*
X94132061Y-81832500D01*
X93932102Y-81872274D01*
X93743744Y-81950295D01*
X93574226Y-82063563D01*
X93430063Y-82207726D01*
X93316795Y-82377244D01*
X93238774Y-82565602D01*
X93199000Y-82765561D01*
X90202500Y-82765561D01*
X90202500Y-81624500D01*
X103075084Y-68751916D01*
X103112670Y-68721070D01*
X103235760Y-68571084D01*
X103327224Y-68399967D01*
X103383547Y-68214294D01*
X103397800Y-68069580D01*
X103402565Y-68021201D01*
X103397800Y-67972821D01*
X103397800Y-66549600D01*
X104395601Y-65551800D01*
X113211414Y-65551800D01*
X113236102Y-65562026D01*
X113436061Y-65601800D01*
X113639939Y-65601800D01*
X113839898Y-65562026D01*
X113864586Y-65551800D01*
X116533600Y-65551800D01*
X126421401Y-75439601D01*
X126421400Y-77397414D01*
X126411174Y-77422102D01*
X126371400Y-77622061D01*
X126371400Y-77825939D01*
X126411174Y-78025898D01*
X126421401Y-78050588D01*
X126421400Y-80672820D01*
X126416635Y-80721200D01*
X126428113Y-80837734D01*
X126435653Y-80914293D01*
X126491976Y-81099966D01*
X126583440Y-81271084D01*
X126706530Y-81421070D01*
X126744116Y-81451916D01*
X131457370Y-86165171D01*
X131467595Y-86189856D01*
X131580863Y-86359374D01*
X131653801Y-86432312D01*
X131653800Y-87729999D01*
X131265311Y-88118489D01*
X131227731Y-88149330D01*
X131104641Y-88299316D01*
X131068196Y-88367500D01*
X131013176Y-88470434D01*
X130956853Y-88656107D01*
X130937835Y-88849200D01*
X130942601Y-88897590D01*
X130942600Y-93978400D01*
X120750000Y-104171000D01*
X116760186Y-104171000D01*
X116735498Y-104160774D01*
X116535539Y-104121000D01*
X116331661Y-104121000D01*
X116131702Y-104160774D01*
X115943344Y-104238795D01*
X115773826Y-104352063D01*
X115629663Y-104496226D01*
X115516395Y-104665744D01*
X115506169Y-104690431D01*
X115416000Y-104780600D01*
X106752586Y-104780600D01*
X106727898Y-104770374D01*
X106527939Y-104730600D01*
X106324061Y-104730600D01*
X106124102Y-104770374D01*
X105935744Y-104848395D01*
X105766226Y-104961663D01*
X105622063Y-105105826D01*
X105508795Y-105275344D01*
X105498570Y-105300029D01*
X104885201Y-105913399D01*
X100921980Y-105913399D01*
X100873600Y-105908634D01*
X100680507Y-105927652D01*
X100494834Y-105983975D01*
X100323717Y-106075439D01*
X100173731Y-106198529D01*
X100142885Y-106236115D01*
X99661231Y-106717769D01*
X99636544Y-106727995D01*
X99467026Y-106841263D01*
X99322863Y-106985426D01*
X99209595Y-107154944D01*
X99131574Y-107343302D01*
X99091800Y-107543261D01*
X99091800Y-107747139D01*
X99131574Y-107947098D01*
X99209595Y-108135456D01*
X99322863Y-108304974D01*
X99467026Y-108449137D01*
X99636544Y-108562405D01*
X99824902Y-108640426D01*
X100024861Y-108680200D01*
X100228739Y-108680200D01*
X100428698Y-108640426D01*
X100617056Y-108562405D01*
X100786574Y-108449137D01*
X100930737Y-108304974D01*
X101044005Y-108135456D01*
X101054231Y-108110769D01*
X101281601Y-107883399D01*
X105244821Y-107883399D01*
X105293201Y-107888164D01*
X105341581Y-107883399D01*
X105486295Y-107869146D01*
X105671968Y-107812823D01*
X105843085Y-107721359D01*
X105993071Y-107598269D01*
X106023916Y-107560684D01*
X106834001Y-106750600D01*
X115775620Y-106750600D01*
X115824000Y-106755365D01*
X115872380Y-106750600D01*
X116017094Y-106736347D01*
X116202767Y-106680024D01*
X116373884Y-106588560D01*
X116523870Y-106465470D01*
X116554716Y-106427884D01*
X116841600Y-106141000D01*
X121109620Y-106141000D01*
X121158000Y-106145765D01*
X121206380Y-106141000D01*
X121351094Y-106126747D01*
X121536767Y-106070424D01*
X121707884Y-105978960D01*
X121857870Y-105855870D01*
X121888716Y-105818284D01*
X123591110Y-104115890D01*
X130638524Y-104115890D01*
X130683175Y-104263099D01*
X130808359Y-104525920D01*
X130982412Y-104759269D01*
X131198645Y-104954178D01*
X131448748Y-105103157D01*
X131723109Y-105200481D01*
X131953000Y-105079814D01*
X131953000Y-103886000D01*
X132207000Y-103886000D01*
X132207000Y-105079814D01*
X132436891Y-105200481D01*
X132711252Y-105103157D01*
X132961355Y-104954178D01*
X133177588Y-104759269D01*
X133351641Y-104525920D01*
X133476825Y-104263099D01*
X133521476Y-104115890D01*
X133400155Y-103886000D01*
X132207000Y-103886000D01*
X131953000Y-103886000D01*
X130759845Y-103886000D01*
X130638524Y-104115890D01*
X123591110Y-104115890D01*
X126131110Y-101575890D01*
X130638524Y-101575890D01*
X130683175Y-101723099D01*
X130808359Y-101985920D01*
X130982412Y-102219269D01*
X131198645Y-102414178D01*
X131324255Y-102489000D01*
X131198645Y-102563822D01*
X130982412Y-102758731D01*
X130808359Y-102992080D01*
X130683175Y-103254901D01*
X130638524Y-103402110D01*
X130759845Y-103632000D01*
X131953000Y-103632000D01*
X131953000Y-101346000D01*
X132207000Y-101346000D01*
X132207000Y-103632000D01*
X133400155Y-103632000D01*
X133521476Y-103402110D01*
X133476825Y-103254901D01*
X133351641Y-102992080D01*
X133177588Y-102758731D01*
X132961355Y-102563822D01*
X132835745Y-102489000D01*
X132961355Y-102414178D01*
X133177588Y-102219269D01*
X133351641Y-101985920D01*
X133476825Y-101723099D01*
X133521476Y-101575890D01*
X133400155Y-101346000D01*
X132207000Y-101346000D01*
X131953000Y-101346000D01*
X130759845Y-101346000D01*
X130638524Y-101575890D01*
X126131110Y-101575890D01*
X128178000Y-99529000D01*
X130591928Y-99529000D01*
X130604188Y-99653482D01*
X130640498Y-99773180D01*
X130699463Y-99883494D01*
X130778815Y-99980185D01*
X130875506Y-100059537D01*
X130985820Y-100118502D01*
X131066466Y-100142966D01*
X130982412Y-100218731D01*
X130808359Y-100452080D01*
X130683175Y-100714901D01*
X130638524Y-100862110D01*
X130759845Y-101092000D01*
X131953000Y-101092000D01*
X131953000Y-98806000D01*
X132207000Y-98806000D01*
X132207000Y-101092000D01*
X133400155Y-101092000D01*
X133521476Y-100862110D01*
X133476825Y-100714901D01*
X133351641Y-100452080D01*
X133177588Y-100218731D01*
X133093534Y-100142966D01*
X133174180Y-100118502D01*
X133284494Y-100059537D01*
X133381185Y-99980185D01*
X133460537Y-99883494D01*
X133519502Y-99773180D01*
X133555812Y-99653482D01*
X133568072Y-99529000D01*
X133565000Y-98964750D01*
X133406250Y-98806000D01*
X132207000Y-98806000D01*
X131953000Y-98806000D01*
X130753750Y-98806000D01*
X130595000Y-98964750D01*
X130591928Y-99529000D01*
X128178000Y-99529000D01*
X129878000Y-97829000D01*
X130591928Y-97829000D01*
X130595000Y-98393250D01*
X130753750Y-98552000D01*
X131953000Y-98552000D01*
X131953000Y-97352750D01*
X132207000Y-97352750D01*
X132207000Y-98552000D01*
X133406250Y-98552000D01*
X133565000Y-98393250D01*
X133568072Y-97829000D01*
X133555812Y-97704518D01*
X133519502Y-97584820D01*
X133460537Y-97474506D01*
X133381185Y-97377815D01*
X133284494Y-97298463D01*
X133174180Y-97239498D01*
X133054482Y-97203188D01*
X132930000Y-97190928D01*
X132365750Y-97194000D01*
X132207000Y-97352750D01*
X131953000Y-97352750D01*
X131794250Y-97194000D01*
X131230000Y-97190928D01*
X131105518Y-97203188D01*
X130985820Y-97239498D01*
X130875506Y-97298463D01*
X130778815Y-97377815D01*
X130699463Y-97474506D01*
X130640498Y-97584820D01*
X130604188Y-97704518D01*
X130591928Y-97829000D01*
X129878000Y-97829000D01*
X132393169Y-95313831D01*
X132417856Y-95303605D01*
X132587374Y-95190337D01*
X132731537Y-95046174D01*
X132844805Y-94876656D01*
X132922826Y-94688298D01*
X132962600Y-94488339D01*
X132962600Y-94284461D01*
X132922826Y-94084502D01*
X132912600Y-94059814D01*
X132912600Y-89257200D01*
X133104371Y-89065430D01*
X133129056Y-89055205D01*
X133298574Y-88941937D01*
X133442737Y-88797774D01*
X133556005Y-88628256D01*
X133634026Y-88439898D01*
X133673800Y-88239939D01*
X133673800Y-88036061D01*
X133634026Y-87836102D01*
X133623800Y-87811414D01*
X133623800Y-86001979D01*
X133628565Y-85953599D01*
X133609547Y-85760505D01*
X133591071Y-85699600D01*
X133553224Y-85574833D01*
X133461760Y-85403716D01*
X133338670Y-85253730D01*
X133310976Y-85231002D01*
X133302005Y-85209344D01*
X133188737Y-85039826D01*
X133044574Y-84895663D01*
X132875056Y-84782395D01*
X132850371Y-84772170D01*
X128391400Y-80313200D01*
X128391400Y-78050586D01*
X128401626Y-78025898D01*
X128441400Y-77825939D01*
X128441400Y-77622061D01*
X128401626Y-77422102D01*
X128391400Y-77397414D01*
X128391400Y-75079979D01*
X128396165Y-75031599D01*
X128377147Y-74838506D01*
X128320824Y-74652833D01*
X128229360Y-74481716D01*
X128106270Y-74331730D01*
X128068684Y-74300884D01*
X117672316Y-63904516D01*
X117641470Y-63866930D01*
X117491484Y-63743840D01*
X117320367Y-63652376D01*
X117134694Y-63596053D01*
X116989980Y-63581800D01*
X116941600Y-63577035D01*
X116893220Y-63581800D01*
X113864586Y-63581800D01*
X113839898Y-63571574D01*
X113639939Y-63531800D01*
X113436061Y-63531800D01*
X113236102Y-63571574D01*
X113211414Y-63581800D01*
X104035980Y-63581800D01*
X103987600Y-63577035D01*
X103939220Y-63581800D01*
X103794506Y-63596053D01*
X103608833Y-63652376D01*
X103437716Y-63743840D01*
X103287730Y-63866930D01*
X103256889Y-63904510D01*
X101947230Y-65214170D01*
X101922544Y-65224395D01*
X101753026Y-65337663D01*
X101608863Y-65481826D01*
X101495595Y-65651344D01*
X101417574Y-65839702D01*
X101377800Y-66039661D01*
X101377800Y-66243539D01*
X101417574Y-66443498D01*
X101427800Y-66468186D01*
X101427801Y-67613199D01*
X88751931Y-80289069D01*
X88727244Y-80299295D01*
X88557726Y-80412563D01*
X88413563Y-80556726D01*
X88300295Y-80726244D01*
X88222274Y-80914602D01*
X88182500Y-81114561D01*
X83151168Y-81114561D01*
X83115632Y-81079025D01*
X82941240Y-80962500D01*
X83115632Y-80845975D01*
X83322475Y-80639132D01*
X83484990Y-80395911D01*
X83596932Y-80125658D01*
X83654000Y-79838760D01*
X83654000Y-79546240D01*
X83596932Y-79259342D01*
X83484990Y-78989089D01*
X83322475Y-78745868D01*
X83190620Y-78614013D01*
X83263180Y-78592002D01*
X83373494Y-78533037D01*
X83470185Y-78453685D01*
X83549537Y-78356994D01*
X83608502Y-78246680D01*
X83644812Y-78126982D01*
X83657072Y-78002500D01*
X83657072Y-76302500D01*
X83644812Y-76178018D01*
X83608502Y-76058320D01*
X83549537Y-75948006D01*
X83470185Y-75851315D01*
X83373494Y-75771963D01*
X83263180Y-75712998D01*
X83143482Y-75676688D01*
X83019000Y-75664428D01*
X81319000Y-75664428D01*
X81194518Y-75676688D01*
X81074820Y-75712998D01*
X80964506Y-75771963D01*
X80867815Y-75851315D01*
X80788463Y-75948006D01*
X80729498Y-76058320D01*
X80693188Y-76178018D01*
X80680928Y-76302500D01*
X79543215Y-76302500D01*
X79461675Y-76180468D01*
X79254832Y-75973625D01*
X79011611Y-75811110D01*
X78741358Y-75699168D01*
X78454460Y-75642100D01*
X78161940Y-75642100D01*
X77875042Y-75699168D01*
X77604789Y-75811110D01*
X77361568Y-75973625D01*
X77154725Y-76180468D01*
X76992210Y-76423689D01*
X76880268Y-76693942D01*
X76823200Y-76980840D01*
X76823200Y-77273360D01*
X76880268Y-77560258D01*
X76992210Y-77830511D01*
X77154725Y-78073732D01*
X77361568Y-78280575D01*
X77535960Y-78397100D01*
X77361568Y-78513625D01*
X77154725Y-78720468D01*
X76992210Y-78963689D01*
X76880268Y-79233942D01*
X76823200Y-79520840D01*
X76823200Y-79813360D01*
X76880268Y-80100258D01*
X76992210Y-80370511D01*
X77154725Y-80613732D01*
X77361568Y-80820575D01*
X77535960Y-80937100D01*
X77361568Y-81053625D01*
X77154725Y-81260468D01*
X76992210Y-81503689D01*
X76880268Y-81773942D01*
X76823200Y-82060840D01*
X76823200Y-82353360D01*
X76880268Y-82640258D01*
X76992210Y-82910511D01*
X77154725Y-83153732D01*
X77361568Y-83360575D01*
X77535960Y-83477100D01*
X77361568Y-83593625D01*
X77154725Y-83800468D01*
X76992210Y-84043689D01*
X76880268Y-84313942D01*
X76823200Y-84600840D01*
X76823200Y-84893360D01*
X76880268Y-85180258D01*
X76992210Y-85450511D01*
X77154725Y-85693732D01*
X77361568Y-85900575D01*
X77535960Y-86017100D01*
X77361568Y-86133625D01*
X77154725Y-86340468D01*
X76992210Y-86583689D01*
X76880268Y-86853942D01*
X76823200Y-87140840D01*
X76823200Y-87433360D01*
X76880268Y-87720258D01*
X76992210Y-87990511D01*
X77154725Y-88233732D01*
X77361568Y-88440575D01*
X77535960Y-88557100D01*
X77361568Y-88673625D01*
X77154725Y-88880468D01*
X76992210Y-89123689D01*
X76880268Y-89393942D01*
X76823200Y-89680840D01*
X76823200Y-89973360D01*
X76880268Y-90260258D01*
X76992210Y-90530511D01*
X77154725Y-90773732D01*
X77361568Y-90980575D01*
X77535960Y-91097100D01*
X77361568Y-91213625D01*
X77154725Y-91420468D01*
X76992210Y-91663689D01*
X76880268Y-91933942D01*
X76823200Y-92220840D01*
X76823200Y-92513360D01*
X76880268Y-92800258D01*
X76992210Y-93070511D01*
X77154725Y-93313732D01*
X77286580Y-93445587D01*
X77214020Y-93467598D01*
X77103706Y-93526563D01*
X77007015Y-93605915D01*
X76927663Y-93702606D01*
X76868698Y-93812920D01*
X76832388Y-93932618D01*
X76820128Y-94057100D01*
X75660000Y-94057100D01*
X75660000Y-58464240D01*
X91225000Y-58464240D01*
X91225000Y-58756760D01*
X91282068Y-59043658D01*
X91394010Y-59313911D01*
X91556525Y-59557132D01*
X91763368Y-59763975D01*
X92006589Y-59926490D01*
X92276842Y-60038432D01*
X92563740Y-60095500D01*
X92856260Y-60095500D01*
X93143158Y-60038432D01*
X93413411Y-59926490D01*
X93656632Y-59763975D01*
X93863475Y-59557132D01*
X93980000Y-59382740D01*
X94096525Y-59557132D01*
X94303368Y-59763975D01*
X94546589Y-59926490D01*
X94816842Y-60038432D01*
X95103740Y-60095500D01*
X95396260Y-60095500D01*
X95683158Y-60038432D01*
X95953411Y-59926490D01*
X96196632Y-59763975D01*
X96403475Y-59557132D01*
X96520000Y-59382740D01*
X96636525Y-59557132D01*
X96843368Y-59763975D01*
X97086589Y-59926490D01*
X97356842Y-60038432D01*
X97643740Y-60095500D01*
X97936260Y-60095500D01*
X98223158Y-60038432D01*
X98493411Y-59926490D01*
X98736632Y-59763975D01*
X98943475Y-59557132D01*
X99060000Y-59382740D01*
X99176525Y-59557132D01*
X99383368Y-59763975D01*
X99626589Y-59926490D01*
X99896842Y-60038432D01*
X100183740Y-60095500D01*
X100476260Y-60095500D01*
X100763158Y-60038432D01*
X101033411Y-59926490D01*
X101276632Y-59763975D01*
X101483475Y-59557132D01*
X101600000Y-59382740D01*
X101716525Y-59557132D01*
X101923368Y-59763975D01*
X102166589Y-59926490D01*
X102436842Y-60038432D01*
X102723740Y-60095500D01*
X103016260Y-60095500D01*
X103303158Y-60038432D01*
X103573411Y-59926490D01*
X103816632Y-59763975D01*
X104023475Y-59557132D01*
X104140000Y-59382740D01*
X104256525Y-59557132D01*
X104463368Y-59763975D01*
X104706589Y-59926490D01*
X104976842Y-60038432D01*
X105263740Y-60095500D01*
X105556260Y-60095500D01*
X105843158Y-60038432D01*
X106113411Y-59926490D01*
X106356632Y-59763975D01*
X106563475Y-59557132D01*
X106680000Y-59382740D01*
X106796525Y-59557132D01*
X107003368Y-59763975D01*
X107246589Y-59926490D01*
X107516842Y-60038432D01*
X107803740Y-60095500D01*
X108096260Y-60095500D01*
X108383158Y-60038432D01*
X108653411Y-59926490D01*
X108896632Y-59763975D01*
X109103475Y-59557132D01*
X109220000Y-59382740D01*
X109336525Y-59557132D01*
X109543368Y-59763975D01*
X109786589Y-59926490D01*
X110056842Y-60038432D01*
X110343740Y-60095500D01*
X110636260Y-60095500D01*
X110923158Y-60038432D01*
X111193411Y-59926490D01*
X111436632Y-59763975D01*
X111643475Y-59557132D01*
X111760000Y-59382740D01*
X111876525Y-59557132D01*
X112083368Y-59763975D01*
X112326589Y-59926490D01*
X112596842Y-60038432D01*
X112883740Y-60095500D01*
X113176260Y-60095500D01*
X113463158Y-60038432D01*
X113733411Y-59926490D01*
X113976632Y-59763975D01*
X114183475Y-59557132D01*
X114300000Y-59382740D01*
X114416525Y-59557132D01*
X114623368Y-59763975D01*
X114866589Y-59926490D01*
X115136842Y-60038432D01*
X115423740Y-60095500D01*
X115716260Y-60095500D01*
X116003158Y-60038432D01*
X116273411Y-59926490D01*
X116516632Y-59763975D01*
X116723475Y-59557132D01*
X116840000Y-59382740D01*
X116956525Y-59557132D01*
X117163368Y-59763975D01*
X117406589Y-59926490D01*
X117676842Y-60038432D01*
X117963740Y-60095500D01*
X118256260Y-60095500D01*
X118543158Y-60038432D01*
X118813411Y-59926490D01*
X119056632Y-59763975D01*
X119263475Y-59557132D01*
X119380000Y-59382740D01*
X119496525Y-59557132D01*
X119703368Y-59763975D01*
X119946589Y-59926490D01*
X120216842Y-60038432D01*
X120503740Y-60095500D01*
X120796260Y-60095500D01*
X121083158Y-60038432D01*
X121353411Y-59926490D01*
X121596632Y-59763975D01*
X121803475Y-59557132D01*
X121920000Y-59382740D01*
X122036525Y-59557132D01*
X122243368Y-59763975D01*
X122486589Y-59926490D01*
X122756842Y-60038432D01*
X123043740Y-60095500D01*
X123336260Y-60095500D01*
X123623158Y-60038432D01*
X123893411Y-59926490D01*
X124136632Y-59763975D01*
X124343475Y-59557132D01*
X124460000Y-59382740D01*
X124576525Y-59557132D01*
X124783368Y-59763975D01*
X125026589Y-59926490D01*
X125296842Y-60038432D01*
X125583740Y-60095500D01*
X125876260Y-60095500D01*
X126163158Y-60038432D01*
X126433411Y-59926490D01*
X126676632Y-59763975D01*
X126883475Y-59557132D01*
X127000000Y-59382740D01*
X127116525Y-59557132D01*
X127323368Y-59763975D01*
X127566589Y-59926490D01*
X127836842Y-60038432D01*
X128123740Y-60095500D01*
X128416260Y-60095500D01*
X128703158Y-60038432D01*
X128973411Y-59926490D01*
X129216632Y-59763975D01*
X129348487Y-59632120D01*
X129370498Y-59704680D01*
X129429463Y-59814994D01*
X129508815Y-59911685D01*
X129605506Y-59991037D01*
X129715820Y-60050002D01*
X129835518Y-60086312D01*
X129960000Y-60098572D01*
X131660000Y-60098572D01*
X131784482Y-60086312D01*
X131904180Y-60050002D01*
X132014494Y-59991037D01*
X132111185Y-59911685D01*
X132190537Y-59814994D01*
X132249502Y-59704680D01*
X132285812Y-59584982D01*
X132298072Y-59460500D01*
X132298072Y-57760500D01*
X132285812Y-57636018D01*
X132249502Y-57516320D01*
X132190537Y-57406006D01*
X132111185Y-57309315D01*
X132014494Y-57229963D01*
X131904180Y-57170998D01*
X131784482Y-57134688D01*
X131660000Y-57122428D01*
X129960000Y-57122428D01*
X129835518Y-57134688D01*
X129715820Y-57170998D01*
X129605506Y-57229963D01*
X129508815Y-57309315D01*
X129429463Y-57406006D01*
X129370498Y-57516320D01*
X129348487Y-57588880D01*
X129216632Y-57457025D01*
X128973411Y-57294510D01*
X128703158Y-57182568D01*
X128416260Y-57125500D01*
X128123740Y-57125500D01*
X127836842Y-57182568D01*
X127566589Y-57294510D01*
X127323368Y-57457025D01*
X127116525Y-57663868D01*
X127000000Y-57838260D01*
X126883475Y-57663868D01*
X126676632Y-57457025D01*
X126433411Y-57294510D01*
X126163158Y-57182568D01*
X125876260Y-57125500D01*
X125583740Y-57125500D01*
X125296842Y-57182568D01*
X125026589Y-57294510D01*
X124783368Y-57457025D01*
X124576525Y-57663868D01*
X124460000Y-57838260D01*
X124343475Y-57663868D01*
X124136632Y-57457025D01*
X123893411Y-57294510D01*
X123623158Y-57182568D01*
X123336260Y-57125500D01*
X123043740Y-57125500D01*
X122756842Y-57182568D01*
X122486589Y-57294510D01*
X122243368Y-57457025D01*
X122036525Y-57663868D01*
X121920000Y-57838260D01*
X121803475Y-57663868D01*
X121596632Y-57457025D01*
X121353411Y-57294510D01*
X121083158Y-57182568D01*
X120796260Y-57125500D01*
X120503740Y-57125500D01*
X120216842Y-57182568D01*
X119946589Y-57294510D01*
X119703368Y-57457025D01*
X119496525Y-57663868D01*
X119380000Y-57838260D01*
X119263475Y-57663868D01*
X119056632Y-57457025D01*
X118813411Y-57294510D01*
X118543158Y-57182568D01*
X118256260Y-57125500D01*
X117963740Y-57125500D01*
X117676842Y-57182568D01*
X117406589Y-57294510D01*
X117163368Y-57457025D01*
X116956525Y-57663868D01*
X116840000Y-57838260D01*
X116723475Y-57663868D01*
X116516632Y-57457025D01*
X116273411Y-57294510D01*
X116003158Y-57182568D01*
X115716260Y-57125500D01*
X115423740Y-57125500D01*
X115136842Y-57182568D01*
X114866589Y-57294510D01*
X114623368Y-57457025D01*
X114416525Y-57663868D01*
X114300000Y-57838260D01*
X114183475Y-57663868D01*
X113976632Y-57457025D01*
X113733411Y-57294510D01*
X113463158Y-57182568D01*
X113176260Y-57125500D01*
X112883740Y-57125500D01*
X112596842Y-57182568D01*
X112326589Y-57294510D01*
X112083368Y-57457025D01*
X111876525Y-57663868D01*
X111760000Y-57838260D01*
X111643475Y-57663868D01*
X111436632Y-57457025D01*
X111193411Y-57294510D01*
X110923158Y-57182568D01*
X110636260Y-57125500D01*
X110343740Y-57125500D01*
X110056842Y-57182568D01*
X109786589Y-57294510D01*
X109543368Y-57457025D01*
X109336525Y-57663868D01*
X109220000Y-57838260D01*
X109103475Y-57663868D01*
X108896632Y-57457025D01*
X108653411Y-57294510D01*
X108383158Y-57182568D01*
X108096260Y-57125500D01*
X107803740Y-57125500D01*
X107516842Y-57182568D01*
X107246589Y-57294510D01*
X107003368Y-57457025D01*
X106796525Y-57663868D01*
X106680000Y-57838260D01*
X106563475Y-57663868D01*
X106356632Y-57457025D01*
X106113411Y-57294510D01*
X105843158Y-57182568D01*
X105556260Y-57125500D01*
X105263740Y-57125500D01*
X104976842Y-57182568D01*
X104706589Y-57294510D01*
X104463368Y-57457025D01*
X104256525Y-57663868D01*
X104140000Y-57838260D01*
X104023475Y-57663868D01*
X103816632Y-57457025D01*
X103573411Y-57294510D01*
X103303158Y-57182568D01*
X103016260Y-57125500D01*
X102723740Y-57125500D01*
X102436842Y-57182568D01*
X102166589Y-57294510D01*
X101923368Y-57457025D01*
X101716525Y-57663868D01*
X101600000Y-57838260D01*
X101483475Y-57663868D01*
X101276632Y-57457025D01*
X101033411Y-57294510D01*
X100763158Y-57182568D01*
X100476260Y-57125500D01*
X100183740Y-57125500D01*
X99896842Y-57182568D01*
X99626589Y-57294510D01*
X99383368Y-57457025D01*
X99176525Y-57663868D01*
X99060000Y-57838260D01*
X98943475Y-57663868D01*
X98736632Y-57457025D01*
X98493411Y-57294510D01*
X98223158Y-57182568D01*
X97936260Y-57125500D01*
X97643740Y-57125500D01*
X97356842Y-57182568D01*
X97086589Y-57294510D01*
X96843368Y-57457025D01*
X96636525Y-57663868D01*
X96520000Y-57838260D01*
X96403475Y-57663868D01*
X96196632Y-57457025D01*
X95953411Y-57294510D01*
X95683158Y-57182568D01*
X95396260Y-57125500D01*
X95103740Y-57125500D01*
X94816842Y-57182568D01*
X94546589Y-57294510D01*
X94303368Y-57457025D01*
X94096525Y-57663868D01*
X93980000Y-57838260D01*
X93863475Y-57663868D01*
X93656632Y-57457025D01*
X93413411Y-57294510D01*
X93143158Y-57182568D01*
X92856260Y-57125500D01*
X92563740Y-57125500D01*
X92276842Y-57182568D01*
X92006589Y-57294510D01*
X91763368Y-57457025D01*
X91556525Y-57663868D01*
X91394010Y-57907089D01*
X91282068Y-58177342D01*
X91225000Y-58464240D01*
X75660000Y-58464240D01*
X75660000Y-54039400D01*
X91234628Y-54039400D01*
X91234628Y-55739400D01*
X91246888Y-55863882D01*
X91283198Y-55983580D01*
X91342163Y-56093894D01*
X91421515Y-56190585D01*
X91518206Y-56269937D01*
X91628520Y-56328902D01*
X91748218Y-56365212D01*
X91872700Y-56377472D01*
X93572700Y-56377472D01*
X93697182Y-56365212D01*
X93816880Y-56328902D01*
X93927194Y-56269937D01*
X94023885Y-56190585D01*
X94103237Y-56093894D01*
X94162202Y-55983580D01*
X94184213Y-55911020D01*
X94316068Y-56042875D01*
X94559289Y-56205390D01*
X94829542Y-56317332D01*
X95116440Y-56374400D01*
X95408960Y-56374400D01*
X95695858Y-56317332D01*
X95966111Y-56205390D01*
X96209332Y-56042875D01*
X96416175Y-55836032D01*
X96532700Y-55661640D01*
X96649225Y-55836032D01*
X96856068Y-56042875D01*
X97099289Y-56205390D01*
X97369542Y-56317332D01*
X97656440Y-56374400D01*
X97948960Y-56374400D01*
X98235858Y-56317332D01*
X98506111Y-56205390D01*
X98749332Y-56042875D01*
X98956175Y-55836032D01*
X99072700Y-55661640D01*
X99189225Y-55836032D01*
X99396068Y-56042875D01*
X99639289Y-56205390D01*
X99909542Y-56317332D01*
X100196440Y-56374400D01*
X100488960Y-56374400D01*
X100775858Y-56317332D01*
X101046111Y-56205390D01*
X101289332Y-56042875D01*
X101496175Y-55836032D01*
X101612700Y-55661640D01*
X101729225Y-55836032D01*
X101936068Y-56042875D01*
X102179289Y-56205390D01*
X102449542Y-56317332D01*
X102736440Y-56374400D01*
X103028960Y-56374400D01*
X103315858Y-56317332D01*
X103586111Y-56205390D01*
X103829332Y-56042875D01*
X104036175Y-55836032D01*
X104152700Y-55661640D01*
X104269225Y-55836032D01*
X104476068Y-56042875D01*
X104719289Y-56205390D01*
X104989542Y-56317332D01*
X105276440Y-56374400D01*
X105568960Y-56374400D01*
X105855858Y-56317332D01*
X106126111Y-56205390D01*
X106369332Y-56042875D01*
X106576175Y-55836032D01*
X106692700Y-55661640D01*
X106809225Y-55836032D01*
X107016068Y-56042875D01*
X107259289Y-56205390D01*
X107529542Y-56317332D01*
X107816440Y-56374400D01*
X108108960Y-56374400D01*
X108395858Y-56317332D01*
X108666111Y-56205390D01*
X108909332Y-56042875D01*
X109116175Y-55836032D01*
X109232700Y-55661640D01*
X109349225Y-55836032D01*
X109556068Y-56042875D01*
X109799289Y-56205390D01*
X110069542Y-56317332D01*
X110356440Y-56374400D01*
X110648960Y-56374400D01*
X110935858Y-56317332D01*
X111206111Y-56205390D01*
X111449332Y-56042875D01*
X111656175Y-55836032D01*
X111772700Y-55661640D01*
X111889225Y-55836032D01*
X112096068Y-56042875D01*
X112339289Y-56205390D01*
X112609542Y-56317332D01*
X112896440Y-56374400D01*
X113188960Y-56374400D01*
X113475858Y-56317332D01*
X113746111Y-56205390D01*
X113989332Y-56042875D01*
X114196175Y-55836032D01*
X114312700Y-55661640D01*
X114429225Y-55836032D01*
X114636068Y-56042875D01*
X114879289Y-56205390D01*
X115149542Y-56317332D01*
X115436440Y-56374400D01*
X115728960Y-56374400D01*
X116015858Y-56317332D01*
X116286111Y-56205390D01*
X116529332Y-56042875D01*
X116736175Y-55836032D01*
X116852700Y-55661640D01*
X116969225Y-55836032D01*
X117176068Y-56042875D01*
X117419289Y-56205390D01*
X117689542Y-56317332D01*
X117976440Y-56374400D01*
X118268960Y-56374400D01*
X118555858Y-56317332D01*
X118826111Y-56205390D01*
X119069332Y-56042875D01*
X119276175Y-55836032D01*
X119392700Y-55661640D01*
X119509225Y-55836032D01*
X119716068Y-56042875D01*
X119959289Y-56205390D01*
X120229542Y-56317332D01*
X120516440Y-56374400D01*
X120808960Y-56374400D01*
X121095858Y-56317332D01*
X121366111Y-56205390D01*
X121609332Y-56042875D01*
X121816175Y-55836032D01*
X121932700Y-55661640D01*
X122049225Y-55836032D01*
X122256068Y-56042875D01*
X122499289Y-56205390D01*
X122769542Y-56317332D01*
X123056440Y-56374400D01*
X123348960Y-56374400D01*
X123635858Y-56317332D01*
X123906111Y-56205390D01*
X124149332Y-56042875D01*
X124356175Y-55836032D01*
X124472700Y-55661640D01*
X124589225Y-55836032D01*
X124796068Y-56042875D01*
X125039289Y-56205390D01*
X125309542Y-56317332D01*
X125596440Y-56374400D01*
X125888960Y-56374400D01*
X126175858Y-56317332D01*
X126446111Y-56205390D01*
X126689332Y-56042875D01*
X126896175Y-55836032D01*
X127012700Y-55661640D01*
X127129225Y-55836032D01*
X127336068Y-56042875D01*
X127579289Y-56205390D01*
X127849542Y-56317332D01*
X128136440Y-56374400D01*
X128428960Y-56374400D01*
X128715858Y-56317332D01*
X128986111Y-56205390D01*
X129229332Y-56042875D01*
X129436175Y-55836032D01*
X129552700Y-55661640D01*
X129669225Y-55836032D01*
X129876068Y-56042875D01*
X130119289Y-56205390D01*
X130389542Y-56317332D01*
X130676440Y-56374400D01*
X130968960Y-56374400D01*
X131255858Y-56317332D01*
X131526111Y-56205390D01*
X131769332Y-56042875D01*
X131976175Y-55836032D01*
X132138690Y-55592811D01*
X132250632Y-55322558D01*
X132307700Y-55035660D01*
X132307700Y-54743140D01*
X132250632Y-54456242D01*
X132138690Y-54185989D01*
X131976175Y-53942768D01*
X131769332Y-53735925D01*
X131526111Y-53573410D01*
X131255858Y-53461468D01*
X130968960Y-53404400D01*
X130676440Y-53404400D01*
X130389542Y-53461468D01*
X130119289Y-53573410D01*
X129876068Y-53735925D01*
X129669225Y-53942768D01*
X129552700Y-54117160D01*
X129436175Y-53942768D01*
X129229332Y-53735925D01*
X128986111Y-53573410D01*
X128715858Y-53461468D01*
X128428960Y-53404400D01*
X128136440Y-53404400D01*
X127849542Y-53461468D01*
X127579289Y-53573410D01*
X127336068Y-53735925D01*
X127129225Y-53942768D01*
X127012700Y-54117160D01*
X126896175Y-53942768D01*
X126689332Y-53735925D01*
X126446111Y-53573410D01*
X126175858Y-53461468D01*
X125888960Y-53404400D01*
X125596440Y-53404400D01*
X125309542Y-53461468D01*
X125039289Y-53573410D01*
X124796068Y-53735925D01*
X124589225Y-53942768D01*
X124472700Y-54117160D01*
X124356175Y-53942768D01*
X124149332Y-53735925D01*
X123906111Y-53573410D01*
X123635858Y-53461468D01*
X123348960Y-53404400D01*
X123056440Y-53404400D01*
X122769542Y-53461468D01*
X122499289Y-53573410D01*
X122256068Y-53735925D01*
X122049225Y-53942768D01*
X121932700Y-54117160D01*
X121816175Y-53942768D01*
X121609332Y-53735925D01*
X121366111Y-53573410D01*
X121095858Y-53461468D01*
X120808960Y-53404400D01*
X120516440Y-53404400D01*
X120229542Y-53461468D01*
X119959289Y-53573410D01*
X119716068Y-53735925D01*
X119509225Y-53942768D01*
X119392700Y-54117160D01*
X119276175Y-53942768D01*
X119069332Y-53735925D01*
X118826111Y-53573410D01*
X118555858Y-53461468D01*
X118268960Y-53404400D01*
X117976440Y-53404400D01*
X117689542Y-53461468D01*
X117419289Y-53573410D01*
X117176068Y-53735925D01*
X116969225Y-53942768D01*
X116852700Y-54117160D01*
X116736175Y-53942768D01*
X116529332Y-53735925D01*
X116286111Y-53573410D01*
X116015858Y-53461468D01*
X115728960Y-53404400D01*
X115436440Y-53404400D01*
X115149542Y-53461468D01*
X114879289Y-53573410D01*
X114636068Y-53735925D01*
X114429225Y-53942768D01*
X114312700Y-54117160D01*
X114196175Y-53942768D01*
X113989332Y-53735925D01*
X113746111Y-53573410D01*
X113475858Y-53461468D01*
X113188960Y-53404400D01*
X112896440Y-53404400D01*
X112609542Y-53461468D01*
X112339289Y-53573410D01*
X112096068Y-53735925D01*
X111889225Y-53942768D01*
X111772700Y-54117160D01*
X111656175Y-53942768D01*
X111449332Y-53735925D01*
X111206111Y-53573410D01*
X110935858Y-53461468D01*
X110648960Y-53404400D01*
X110356440Y-53404400D01*
X110069542Y-53461468D01*
X109799289Y-53573410D01*
X109556068Y-53735925D01*
X109349225Y-53942768D01*
X109232700Y-54117160D01*
X109116175Y-53942768D01*
X108909332Y-53735925D01*
X108666111Y-53573410D01*
X108395858Y-53461468D01*
X108108960Y-53404400D01*
X107816440Y-53404400D01*
X107529542Y-53461468D01*
X107259289Y-53573410D01*
X107016068Y-53735925D01*
X106809225Y-53942768D01*
X106692700Y-54117160D01*
X106576175Y-53942768D01*
X106369332Y-53735925D01*
X106126111Y-53573410D01*
X105855858Y-53461468D01*
X105568960Y-53404400D01*
X105276440Y-53404400D01*
X104989542Y-53461468D01*
X104719289Y-53573410D01*
X104476068Y-53735925D01*
X104269225Y-53942768D01*
X104152700Y-54117160D01*
X104036175Y-53942768D01*
X103829332Y-53735925D01*
X103586111Y-53573410D01*
X103315858Y-53461468D01*
X103028960Y-53404400D01*
X102736440Y-53404400D01*
X102449542Y-53461468D01*
X102179289Y-53573410D01*
X101936068Y-53735925D01*
X101729225Y-53942768D01*
X101612700Y-54117160D01*
X101496175Y-53942768D01*
X101289332Y-53735925D01*
X101046111Y-53573410D01*
X100775858Y-53461468D01*
X100488960Y-53404400D01*
X100196440Y-53404400D01*
X99909542Y-53461468D01*
X99639289Y-53573410D01*
X99396068Y-53735925D01*
X99189225Y-53942768D01*
X99072700Y-54117160D01*
X98956175Y-53942768D01*
X98749332Y-53735925D01*
X98506111Y-53573410D01*
X98235858Y-53461468D01*
X97948960Y-53404400D01*
X97656440Y-53404400D01*
X97369542Y-53461468D01*
X97099289Y-53573410D01*
X96856068Y-53735925D01*
X96649225Y-53942768D01*
X96532700Y-54117160D01*
X96416175Y-53942768D01*
X96209332Y-53735925D01*
X95966111Y-53573410D01*
X95695858Y-53461468D01*
X95408960Y-53404400D01*
X95116440Y-53404400D01*
X94829542Y-53461468D01*
X94559289Y-53573410D01*
X94316068Y-53735925D01*
X94184213Y-53867780D01*
X94162202Y-53795220D01*
X94103237Y-53684906D01*
X94023885Y-53588215D01*
X93927194Y-53508863D01*
X93816880Y-53449898D01*
X93697182Y-53413588D01*
X93572700Y-53401328D01*
X91872700Y-53401328D01*
X91748218Y-53413588D01*
X91628520Y-53449898D01*
X91518206Y-53508863D01*
X91421515Y-53588215D01*
X91342163Y-53684906D01*
X91283198Y-53795220D01*
X91246888Y-53914918D01*
X91234628Y-54039400D01*
X75660000Y-54039400D01*
X75660000Y-52660000D01*
X135340000Y-52660000D01*
X135340001Y-122340000D01*
G37*
X135340001Y-122340000D02*
X75660000Y-122340000D01*
X75660000Y-114961300D01*
X101572428Y-114961300D01*
X101572428Y-116661300D01*
X101584688Y-116785782D01*
X101620998Y-116905480D01*
X101679963Y-117015794D01*
X101759315Y-117112485D01*
X101856006Y-117191837D01*
X101966320Y-117250802D01*
X102086018Y-117287112D01*
X102210500Y-117299372D01*
X103910500Y-117299372D01*
X104034982Y-117287112D01*
X104154680Y-117250802D01*
X104264994Y-117191837D01*
X104361685Y-117112485D01*
X104441037Y-117015794D01*
X104500002Y-116905480D01*
X104522013Y-116832920D01*
X104653868Y-116964775D01*
X104897089Y-117127290D01*
X105167342Y-117239232D01*
X105454240Y-117296300D01*
X105746760Y-117296300D01*
X106033658Y-117239232D01*
X106303911Y-117127290D01*
X106547132Y-116964775D01*
X106753975Y-116757932D01*
X106870500Y-116583540D01*
X106987025Y-116757932D01*
X107193868Y-116964775D01*
X107437089Y-117127290D01*
X107707342Y-117239232D01*
X107994240Y-117296300D01*
X108286760Y-117296300D01*
X108573658Y-117239232D01*
X108843911Y-117127290D01*
X109087132Y-116964775D01*
X109293975Y-116757932D01*
X109410500Y-116583540D01*
X109527025Y-116757932D01*
X109733868Y-116964775D01*
X109977089Y-117127290D01*
X110247342Y-117239232D01*
X110534240Y-117296300D01*
X110826760Y-117296300D01*
X111113658Y-117239232D01*
X111383911Y-117127290D01*
X111627132Y-116964775D01*
X111833975Y-116757932D01*
X111950500Y-116583540D01*
X112067025Y-116757932D01*
X112273868Y-116964775D01*
X112517089Y-117127290D01*
X112787342Y-117239232D01*
X113074240Y-117296300D01*
X113366760Y-117296300D01*
X113653658Y-117239232D01*
X113923911Y-117127290D01*
X114167132Y-116964775D01*
X114373975Y-116757932D01*
X114490500Y-116583540D01*
X114607025Y-116757932D01*
X114813868Y-116964775D01*
X115057089Y-117127290D01*
X115327342Y-117239232D01*
X115614240Y-117296300D01*
X115906760Y-117296300D01*
X116193658Y-117239232D01*
X116463911Y-117127290D01*
X116707132Y-116964775D01*
X116913975Y-116757932D01*
X117030500Y-116583540D01*
X117147025Y-116757932D01*
X117353868Y-116964775D01*
X117597089Y-117127290D01*
X117867342Y-117239232D01*
X118154240Y-117296300D01*
X118446760Y-117296300D01*
X118733658Y-117239232D01*
X119003911Y-117127290D01*
X119247132Y-116964775D01*
X119453975Y-116757932D01*
X119570500Y-116583540D01*
X119687025Y-116757932D01*
X119893868Y-116964775D01*
X120137089Y-117127290D01*
X120407342Y-117239232D01*
X120694240Y-117296300D01*
X120986760Y-117296300D01*
X121273658Y-117239232D01*
X121543911Y-117127290D01*
X121787132Y-116964775D01*
X121993975Y-116757932D01*
X122110500Y-116583540D01*
X122227025Y-116757932D01*
X122433868Y-116964775D01*
X122677089Y-117127290D01*
X122947342Y-117239232D01*
X123234240Y-117296300D01*
X123526760Y-117296300D01*
X123813658Y-117239232D01*
X124083911Y-117127290D01*
X124327132Y-116964775D01*
X124533975Y-116757932D01*
X124650500Y-116583540D01*
X124767025Y-116757932D01*
X124973868Y-116964775D01*
X125217089Y-117127290D01*
X125487342Y-117239232D01*
X125774240Y-117296300D01*
X126066760Y-117296300D01*
X126353658Y-117239232D01*
X126623911Y-117127290D01*
X126867132Y-116964775D01*
X127073975Y-116757932D01*
X127190500Y-116583540D01*
X127307025Y-116757932D01*
X127513868Y-116964775D01*
X127757089Y-117127290D01*
X128027342Y-117239232D01*
X128314240Y-117296300D01*
X128606760Y-117296300D01*
X128893658Y-117239232D01*
X129163911Y-117127290D01*
X129407132Y-116964775D01*
X129613975Y-116757932D01*
X129776490Y-116514711D01*
X129888432Y-116244458D01*
X129945500Y-115957560D01*
X129945500Y-115665040D01*
X129888432Y-115378142D01*
X129776490Y-115107889D01*
X129613975Y-114864668D01*
X129407132Y-114657825D01*
X129163911Y-114495310D01*
X128893658Y-114383368D01*
X128606760Y-114326300D01*
X128314240Y-114326300D01*
X128027342Y-114383368D01*
X127757089Y-114495310D01*
X127513868Y-114657825D01*
X127307025Y-114864668D01*
X127190500Y-115039060D01*
X127073975Y-114864668D01*
X126867132Y-114657825D01*
X126623911Y-114495310D01*
X126353658Y-114383368D01*
X126066760Y-114326300D01*
X125774240Y-114326300D01*
X125487342Y-114383368D01*
X125217089Y-114495310D01*
X124973868Y-114657825D01*
X124767025Y-114864668D01*
X124650500Y-115039060D01*
X124533975Y-114864668D01*
X124327132Y-114657825D01*
X124083911Y-114495310D01*
X123813658Y-114383368D01*
X123526760Y-114326300D01*
X123234240Y-114326300D01*
X122947342Y-114383368D01*
X122677089Y-114495310D01*
X122433868Y-114657825D01*
X122227025Y-114864668D01*
X122110500Y-115039060D01*
X121993975Y-114864668D01*
X121787132Y-114657825D01*
X121543911Y-114495310D01*
X121273658Y-114383368D01*
X120986760Y-114326300D01*
X120694240Y-114326300D01*
X120407342Y-114383368D01*
X120137089Y-114495310D01*
X119893868Y-114657825D01*
X119687025Y-114864668D01*
X119570500Y-115039060D01*
X119453975Y-114864668D01*
X119247132Y-114657825D01*
X119003911Y-114495310D01*
X118733658Y-114383368D01*
X118446760Y-114326300D01*
X118154240Y-114326300D01*
X117867342Y-114383368D01*
X117597089Y-114495310D01*
X117353868Y-114657825D01*
X117147025Y-114864668D01*
X117030500Y-115039060D01*
X116913975Y-114864668D01*
X116707132Y-114657825D01*
X116463911Y-114495310D01*
X116193658Y-114383368D01*
X115906760Y-114326300D01*
X115614240Y-114326300D01*
X115327342Y-114383368D01*
X115057089Y-114495310D01*
X114813868Y-114657825D01*
X114607025Y-114864668D01*
X114490500Y-115039060D01*
X114373975Y-114864668D01*
X114167132Y-114657825D01*
X113923911Y-114495310D01*
X113653658Y-114383368D01*
X113366760Y-114326300D01*
X113074240Y-114326300D01*
X112787342Y-114383368D01*
X112517089Y-114495310D01*
X112273868Y-114657825D01*
X112067025Y-114864668D01*
X111950500Y-115039060D01*
X111833975Y-114864668D01*
X111627132Y-114657825D01*
X111383911Y-114495310D01*
X111113658Y-114383368D01*
X110826760Y-114326300D01*
X110534240Y-114326300D01*
X110247342Y-114383368D01*
X109977089Y-114495310D01*
X109733868Y-114657825D01*
X109527025Y-114864668D01*
X109410500Y-115039060D01*
X109293975Y-114864668D01*
X109087132Y-114657825D01*
X108843911Y-114495310D01*
X108573658Y-114383368D01*
X108286760Y-114326300D01*
X107994240Y-114326300D01*
X107707342Y-114383368D01*
X107437089Y-114495310D01*
X107193868Y-114657825D01*
X106987025Y-114864668D01*
X106870500Y-115039060D01*
X106753975Y-114864668D01*
X106547132Y-114657825D01*
X106303911Y-114495310D01*
X106033658Y-114383368D01*
X105746760Y-114326300D01*
X105454240Y-114326300D01*
X105167342Y-114383368D01*
X104897089Y-114495310D01*
X104653868Y-114657825D01*
X104522013Y-114789680D01*
X104500002Y-114717120D01*
X104441037Y-114606806D01*
X104361685Y-114510115D01*
X104264994Y-114430763D01*
X104154680Y-114371798D01*
X104034982Y-114335488D01*
X103910500Y-114323228D01*
X102210500Y-114323228D01*
X102086018Y-114335488D01*
X101966320Y-114371798D01*
X101856006Y-114430763D01*
X101759315Y-114510115D01*
X101679963Y-114606806D01*
X101620998Y-114717120D01*
X101584688Y-114836818D01*
X101572428Y-114961300D01*
X75660000Y-114961300D01*
X75660000Y-111867740D01*
X80874500Y-111867740D01*
X80874500Y-112160260D01*
X80931568Y-112447158D01*
X81043510Y-112717411D01*
X81206025Y-112960632D01*
X81412868Y-113167475D01*
X81656089Y-113329990D01*
X81926342Y-113441932D01*
X82213240Y-113499000D01*
X82505760Y-113499000D01*
X82792658Y-113441932D01*
X83062911Y-113329990D01*
X83306132Y-113167475D01*
X83437987Y-113035620D01*
X83459998Y-113108180D01*
X83518963Y-113218494D01*
X83598315Y-113315185D01*
X83695006Y-113394537D01*
X83805320Y-113453502D01*
X83925018Y-113489812D01*
X84049500Y-113502072D01*
X84613750Y-113499000D01*
X84772500Y-113340250D01*
X84772500Y-112141000D01*
X85026500Y-112141000D01*
X85026500Y-113340250D01*
X85185250Y-113499000D01*
X85749500Y-113502072D01*
X85873982Y-113489812D01*
X85993680Y-113453502D01*
X86103994Y-113394537D01*
X86200685Y-113315185D01*
X86280037Y-113218494D01*
X86339002Y-113108180D01*
X86375312Y-112988482D01*
X86387572Y-112864000D01*
X86384500Y-112299750D01*
X86225750Y-112141000D01*
X85026500Y-112141000D01*
X84772500Y-112141000D01*
X84752500Y-112141000D01*
X84752500Y-111887000D01*
X84772500Y-111887000D01*
X84772500Y-110687750D01*
X85026500Y-110687750D01*
X85026500Y-111887000D01*
X86225750Y-111887000D01*
X86384500Y-111728250D01*
X86387572Y-111164000D01*
X86381319Y-111100500D01*
X91094928Y-111100500D01*
X91094928Y-112800500D01*
X91107188Y-112924982D01*
X91143498Y-113044680D01*
X91202463Y-113154994D01*
X91281815Y-113251685D01*
X91378506Y-113331037D01*
X91488820Y-113390002D01*
X91608518Y-113426312D01*
X91733000Y-113438572D01*
X93433000Y-113438572D01*
X93557482Y-113426312D01*
X93677180Y-113390002D01*
X93787494Y-113331037D01*
X93884185Y-113251685D01*
X93963537Y-113154994D01*
X94022502Y-113044680D01*
X94044513Y-112972120D01*
X94176368Y-113103975D01*
X94419589Y-113266490D01*
X94689842Y-113378432D01*
X94976740Y-113435500D01*
X95269260Y-113435500D01*
X95556158Y-113378432D01*
X95826411Y-113266490D01*
X96069632Y-113103975D01*
X96276475Y-112897132D01*
X96393000Y-112722740D01*
X96509525Y-112897132D01*
X96716368Y-113103975D01*
X96959589Y-113266490D01*
X97229842Y-113378432D01*
X97516740Y-113435500D01*
X97809260Y-113435500D01*
X98096158Y-113378432D01*
X98366411Y-113266490D01*
X98609632Y-113103975D01*
X98816475Y-112897132D01*
X98978990Y-112653911D01*
X99090932Y-112383658D01*
X99148000Y-112096760D01*
X99148000Y-111867740D01*
X101575500Y-111867740D01*
X101575500Y-112160260D01*
X101632568Y-112447158D01*
X101744510Y-112717411D01*
X101907025Y-112960632D01*
X102113868Y-113167475D01*
X102357089Y-113329990D01*
X102627342Y-113441932D01*
X102914240Y-113499000D01*
X103206760Y-113499000D01*
X103493658Y-113441932D01*
X103763911Y-113329990D01*
X104007132Y-113167475D01*
X104213975Y-112960632D01*
X104330500Y-112786240D01*
X104447025Y-112960632D01*
X104653868Y-113167475D01*
X104897089Y-113329990D01*
X105167342Y-113441932D01*
X105454240Y-113499000D01*
X105746760Y-113499000D01*
X106033658Y-113441932D01*
X106303911Y-113329990D01*
X106547132Y-113167475D01*
X106753975Y-112960632D01*
X106870500Y-112786240D01*
X106987025Y-112960632D01*
X107193868Y-113167475D01*
X107437089Y-113329990D01*
X107707342Y-113441932D01*
X107994240Y-113499000D01*
X108286760Y-113499000D01*
X108573658Y-113441932D01*
X108843911Y-113329990D01*
X109087132Y-113167475D01*
X109293975Y-112960632D01*
X109410500Y-112786240D01*
X109527025Y-112960632D01*
X109733868Y-113167475D01*
X109977089Y-113329990D01*
X110247342Y-113441932D01*
X110534240Y-113499000D01*
X110826760Y-113499000D01*
X111113658Y-113441932D01*
X111383911Y-113329990D01*
X111627132Y-113167475D01*
X111833975Y-112960632D01*
X111950500Y-112786240D01*
X112067025Y-112960632D01*
X112273868Y-113167475D01*
X112517089Y-113329990D01*
X112787342Y-113441932D01*
X113074240Y-113499000D01*
X113366760Y-113499000D01*
X113653658Y-113441932D01*
X113923911Y-113329990D01*
X114167132Y-113167475D01*
X114373975Y-112960632D01*
X114490500Y-112786240D01*
X114607025Y-112960632D01*
X114813868Y-113167475D01*
X115057089Y-113329990D01*
X115327342Y-113441932D01*
X115614240Y-113499000D01*
X115906760Y-113499000D01*
X116193658Y-113441932D01*
X116463911Y-113329990D01*
X116707132Y-113167475D01*
X116913975Y-112960632D01*
X117030500Y-112786240D01*
X117147025Y-112960632D01*
X117353868Y-113167475D01*
X117597089Y-113329990D01*
X117867342Y-113441932D01*
X118154240Y-113499000D01*
X118446760Y-113499000D01*
X118733658Y-113441932D01*
X119003911Y-113329990D01*
X119247132Y-113167475D01*
X119453975Y-112960632D01*
X119570500Y-112786240D01*
X119687025Y-112960632D01*
X119893868Y-113167475D01*
X120137089Y-113329990D01*
X120407342Y-113441932D01*
X120694240Y-113499000D01*
X120986760Y-113499000D01*
X121273658Y-113441932D01*
X121543911Y-113329990D01*
X121787132Y-113167475D01*
X121993975Y-112960632D01*
X122110500Y-112786240D01*
X122227025Y-112960632D01*
X122433868Y-113167475D01*
X122677089Y-113329990D01*
X122947342Y-113441932D01*
X123234240Y-113499000D01*
X123526760Y-113499000D01*
X123813658Y-113441932D01*
X124083911Y-113329990D01*
X124327132Y-113167475D01*
X124533975Y-112960632D01*
X124650500Y-112786240D01*
X124767025Y-112960632D01*
X124973868Y-113167475D01*
X125217089Y-113329990D01*
X125487342Y-113441932D01*
X125774240Y-113499000D01*
X126066760Y-113499000D01*
X126353658Y-113441932D01*
X126623911Y-113329990D01*
X126867132Y-113167475D01*
X126998987Y-113035620D01*
X127020998Y-113108180D01*
X127079963Y-113218494D01*
X127159315Y-113315185D01*
X127256006Y-113394537D01*
X127366320Y-113453502D01*
X127486018Y-113489812D01*
X127610500Y-113502072D01*
X129310500Y-113502072D01*
X129434982Y-113489812D01*
X129554680Y-113453502D01*
X129664994Y-113394537D01*
X129761685Y-113315185D01*
X129841037Y-113218494D01*
X129900002Y-113108180D01*
X129936312Y-112988482D01*
X129948572Y-112864000D01*
X129948572Y-111164000D01*
X129936312Y-111039518D01*
X129900002Y-110919820D01*
X129841037Y-110809506D01*
X129761685Y-110712815D01*
X129664994Y-110633463D01*
X129554680Y-110574498D01*
X129434982Y-110538188D01*
X129310500Y-110525928D01*
X127610500Y-110525928D01*
X127486018Y-110538188D01*
X127366320Y-110574498D01*
X127256006Y-110633463D01*
X127159315Y-110712815D01*
X127079963Y-110809506D01*
X127020998Y-110919820D01*
X126998987Y-110992380D01*
X126867132Y-110860525D01*
X126623911Y-110698010D01*
X126353658Y-110586068D01*
X126066760Y-110529000D01*
X125774240Y-110529000D01*
X125487342Y-110586068D01*
X125217089Y-110698010D01*
X124973868Y-110860525D01*
X124767025Y-111067368D01*
X124650500Y-111241760D01*
X124533975Y-111067368D01*
X124327132Y-110860525D01*
X124083911Y-110698010D01*
X123813658Y-110586068D01*
X123526760Y-110529000D01*
X123234240Y-110529000D01*
X122947342Y-110586068D01*
X122677089Y-110698010D01*
X122433868Y-110860525D01*
X122227025Y-111067368D01*
X122110500Y-111241760D01*
X121993975Y-111067368D01*
X121787132Y-110860525D01*
X121543911Y-110698010D01*
X121273658Y-110586068D01*
X120986760Y-110529000D01*
X120694240Y-110529000D01*
X120407342Y-110586068D01*
X120137089Y-110698010D01*
X119893868Y-110860525D01*
X119687025Y-111067368D01*
X119570500Y-111241760D01*
X119453975Y-111067368D01*
X119247132Y-110860525D01*
X119003911Y-110698010D01*
X118733658Y-110586068D01*
X118446760Y-110529000D01*
X118154240Y-110529000D01*
X117867342Y-110586068D01*
X117597089Y-110698010D01*
X117353868Y-110860525D01*
X117147025Y-111067368D01*
X117030500Y-111241760D01*
X116913975Y-111067368D01*
X116707132Y-110860525D01*
X116463911Y-110698010D01*
X116193658Y-110586068D01*
X115906760Y-110529000D01*
X115614240Y-110529000D01*
X115327342Y-110586068D01*
X115057089Y-110698010D01*
X114813868Y-110860525D01*
X114607025Y-111067368D01*
X114490500Y-111241760D01*
X114373975Y-111067368D01*
X114167132Y-110860525D01*
X113923911Y-110698010D01*
X113653658Y-110586068D01*
X113366760Y-110529000D01*
X113074240Y-110529000D01*
X112787342Y-110586068D01*
X112517089Y-110698010D01*
X112273868Y-110860525D01*
X112067025Y-111067368D01*
X111950500Y-111241760D01*
X111833975Y-111067368D01*
X111627132Y-110860525D01*
X111383911Y-110698010D01*
X111113658Y-110586068D01*
X110826760Y-110529000D01*
X110534240Y-110529000D01*
X110247342Y-110586068D01*
X109977089Y-110698010D01*
X109733868Y-110860525D01*
X109527025Y-111067368D01*
X109410500Y-111241760D01*
X109293975Y-111067368D01*
X109087132Y-110860525D01*
X108843911Y-110698010D01*
X108573658Y-110586068D01*
X108286760Y-110529000D01*
X107994240Y-110529000D01*
X107707342Y-110586068D01*
X107437089Y-110698010D01*
X107193868Y-110860525D01*
X106987025Y-111067368D01*
X106870500Y-111241760D01*
X106753975Y-111067368D01*
X106547132Y-110860525D01*
X106303911Y-110698010D01*
X106033658Y-110586068D01*
X105746760Y-110529000D01*
X105454240Y-110529000D01*
X105167342Y-110586068D01*
X104897089Y-110698010D01*
X104653868Y-110860525D01*
X104447025Y-111067368D01*
X104330500Y-111241760D01*
X104213975Y-111067368D01*
X104007132Y-110860525D01*
X103763911Y-110698010D01*
X103493658Y-110586068D01*
X103206760Y-110529000D01*
X102914240Y-110529000D01*
X102627342Y-110586068D01*
X102357089Y-110698010D01*
X102113868Y-110860525D01*
X101907025Y-111067368D01*
X101744510Y-111310589D01*
X101632568Y-111580842D01*
X101575500Y-111867740D01*
X99148000Y-111867740D01*
X99148000Y-111804240D01*
X99090932Y-111517342D01*
X98978990Y-111247089D01*
X98816475Y-111003868D01*
X98609632Y-110797025D01*
X98366411Y-110634510D01*
X98096158Y-110522568D01*
X97809260Y-110465500D01*
X97516740Y-110465500D01*
X97229842Y-110522568D01*
X96959589Y-110634510D01*
X96716368Y-110797025D01*
X96509525Y-111003868D01*
X96393000Y-111178260D01*
X96276475Y-111003868D01*
X96069632Y-110797025D01*
X95826411Y-110634510D01*
X95556158Y-110522568D01*
X95269260Y-110465500D01*
X94976740Y-110465500D01*
X94689842Y-110522568D01*
X94419589Y-110634510D01*
X94176368Y-110797025D01*
X94044513Y-110928880D01*
X94022502Y-110856320D01*
X93963537Y-110746006D01*
X93884185Y-110649315D01*
X93787494Y-110569963D01*
X93677180Y-110510998D01*
X93557482Y-110474688D01*
X93433000Y-110462428D01*
X91733000Y-110462428D01*
X91608518Y-110474688D01*
X91488820Y-110510998D01*
X91378506Y-110569963D01*
X91281815Y-110649315D01*
X91202463Y-110746006D01*
X91143498Y-110856320D01*
X91107188Y-110976018D01*
X91094928Y-111100500D01*
X86381319Y-111100500D01*
X86375312Y-111039518D01*
X86339002Y-110919820D01*
X86280037Y-110809506D01*
X86200685Y-110712815D01*
X86103994Y-110633463D01*
X85993680Y-110574498D01*
X85873982Y-110538188D01*
X85749500Y-110525928D01*
X85185250Y-110529000D01*
X85026500Y-110687750D01*
X84772500Y-110687750D01*
X84613750Y-110529000D01*
X84049500Y-110525928D01*
X83925018Y-110538188D01*
X83805320Y-110574498D01*
X83695006Y-110633463D01*
X83598315Y-110712815D01*
X83518963Y-110809506D01*
X83459998Y-110919820D01*
X83437987Y-110992380D01*
X83306132Y-110860525D01*
X83062911Y-110698010D01*
X82792658Y-110586068D01*
X82505760Y-110529000D01*
X82213240Y-110529000D01*
X81926342Y-110586068D01*
X81656089Y-110698010D01*
X81412868Y-110860525D01*
X81206025Y-111067368D01*
X81043510Y-111310589D01*
X80931568Y-111580842D01*
X80874500Y-111867740D01*
X75660000Y-111867740D01*
X75660000Y-94057100D01*
X76820128Y-94057100D01*
X76820128Y-95757100D01*
X76832388Y-95881582D01*
X76868698Y-96001280D01*
X76927663Y-96111594D01*
X77007015Y-96208285D01*
X77103706Y-96287637D01*
X77214020Y-96346602D01*
X77333718Y-96382912D01*
X77458200Y-96395172D01*
X79158200Y-96395172D01*
X79282682Y-96382912D01*
X79402380Y-96346602D01*
X79512694Y-96287637D01*
X79609385Y-96208285D01*
X79688737Y-96111594D01*
X79747702Y-96001280D01*
X79784012Y-95881582D01*
X79796272Y-95757100D01*
X79796272Y-94057100D01*
X79784012Y-93932618D01*
X79747702Y-93812920D01*
X79688737Y-93702606D01*
X79609385Y-93605915D01*
X79512694Y-93526563D01*
X79402380Y-93467598D01*
X79329820Y-93445587D01*
X79461675Y-93313732D01*
X79624190Y-93070511D01*
X79736132Y-92800258D01*
X79793200Y-92513360D01*
X79793200Y-92220840D01*
X79736132Y-91933942D01*
X79624190Y-91663689D01*
X79461675Y-91420468D01*
X79254832Y-91213625D01*
X79080440Y-91097100D01*
X79254832Y-90980575D01*
X79461675Y-90773732D01*
X79624190Y-90530511D01*
X79736132Y-90260258D01*
X79793200Y-89973360D01*
X79793200Y-89680840D01*
X79736132Y-89393942D01*
X79624190Y-89123689D01*
X79461675Y-88880468D01*
X79254832Y-88673625D01*
X79080440Y-88557100D01*
X79254832Y-88440575D01*
X79461675Y-88233732D01*
X79624190Y-87990511D01*
X79736132Y-87720258D01*
X79793200Y-87433360D01*
X79793200Y-87140840D01*
X79736132Y-86853942D01*
X79624190Y-86583689D01*
X79461675Y-86340468D01*
X79254832Y-86133625D01*
X79080440Y-86017100D01*
X79254832Y-85900575D01*
X79461675Y-85693732D01*
X79624190Y-85450511D01*
X79736132Y-85180258D01*
X79793200Y-84893360D01*
X79793200Y-84600840D01*
X79736132Y-84313942D01*
X79624190Y-84043689D01*
X79461675Y-83800468D01*
X79254832Y-83593625D01*
X79080440Y-83477100D01*
X79254832Y-83360575D01*
X79461675Y-83153732D01*
X79624190Y-82910511D01*
X79736132Y-82640258D01*
X79793200Y-82353360D01*
X79793200Y-82060840D01*
X79736132Y-81773942D01*
X79624190Y-81503689D01*
X79461675Y-81260468D01*
X79254832Y-81053625D01*
X79080440Y-80937100D01*
X79254832Y-80820575D01*
X79461675Y-80613732D01*
X79624190Y-80370511D01*
X79736132Y-80100258D01*
X79793200Y-79813360D01*
X79793200Y-79520840D01*
X79736132Y-79233942D01*
X79624190Y-78963689D01*
X79461675Y-78720468D01*
X79254832Y-78513625D01*
X79080440Y-78397100D01*
X79254832Y-78280575D01*
X79461675Y-78073732D01*
X79624190Y-77830511D01*
X79736132Y-77560258D01*
X79793200Y-77273360D01*
X79793200Y-76980840D01*
X79736132Y-76693942D01*
X79624190Y-76423689D01*
X79543215Y-76302500D01*
X80680928Y-76302500D01*
X80680928Y-78002500D01*
X80693188Y-78126982D01*
X80729498Y-78246680D01*
X80788463Y-78356994D01*
X80867815Y-78453685D01*
X80964506Y-78533037D01*
X81074820Y-78592002D01*
X81147380Y-78614013D01*
X81015525Y-78745868D01*
X80853010Y-78989089D01*
X80741068Y-79259342D01*
X80684000Y-79546240D01*
X80684000Y-79838760D01*
X80741068Y-80125658D01*
X80853010Y-80395911D01*
X81015525Y-80639132D01*
X81222368Y-80845975D01*
X81396760Y-80962500D01*
X81222368Y-81079025D01*
X81015525Y-81285868D01*
X80853010Y-81529089D01*
X80741068Y-81799342D01*
X80684000Y-82086240D01*
X80684000Y-82378760D01*
X80741068Y-82665658D01*
X80853010Y-82935911D01*
X81015525Y-83179132D01*
X81222368Y-83385975D01*
X81396760Y-83502500D01*
X81222368Y-83619025D01*
X81015525Y-83825868D01*
X80853010Y-84069089D01*
X80741068Y-84339342D01*
X80684000Y-84626240D01*
X80684000Y-84918760D01*
X80741068Y-85205658D01*
X80853010Y-85475911D01*
X81015525Y-85719132D01*
X81222368Y-85925975D01*
X81396760Y-86042500D01*
X81222368Y-86159025D01*
X81015525Y-86365868D01*
X80853010Y-86609089D01*
X80741068Y-86879342D01*
X80684000Y-87166240D01*
X80684000Y-87458760D01*
X80741068Y-87745658D01*
X80853010Y-88015911D01*
X81015525Y-88259132D01*
X81222368Y-88465975D01*
X81396760Y-88582500D01*
X81222368Y-88699025D01*
X81015525Y-88905868D01*
X80853010Y-89149089D01*
X80741068Y-89419342D01*
X80684000Y-89706240D01*
X80684000Y-89998760D01*
X80741068Y-90285658D01*
X80853010Y-90555911D01*
X81015525Y-90799132D01*
X81222368Y-91005975D01*
X81396760Y-91122500D01*
X81222368Y-91239025D01*
X81015525Y-91445868D01*
X80853010Y-91689089D01*
X80741068Y-91959342D01*
X80684000Y-92246240D01*
X80684000Y-92538760D01*
X80741068Y-92825658D01*
X80853010Y-93095911D01*
X81015525Y-93339132D01*
X81222368Y-93545975D01*
X81396760Y-93662500D01*
X81222368Y-93779025D01*
X81015525Y-93985868D01*
X80853010Y-94229089D01*
X80741068Y-94499342D01*
X80684000Y-94786240D01*
X80684000Y-95078760D01*
X80741068Y-95365658D01*
X80853010Y-95635911D01*
X81015525Y-95879132D01*
X81222368Y-96085975D01*
X81465589Y-96248490D01*
X81735842Y-96360432D01*
X82022740Y-96417500D01*
X82315260Y-96417500D01*
X82602158Y-96360432D01*
X82872411Y-96248490D01*
X83115632Y-96085975D01*
X83322475Y-95879132D01*
X83484990Y-95635911D01*
X83596932Y-95365658D01*
X83654000Y-95078760D01*
X83654000Y-94786240D01*
X83596932Y-94499342D01*
X83484990Y-94229089D01*
X83322475Y-93985868D01*
X83115632Y-93779025D01*
X82941240Y-93662500D01*
X83072941Y-93574500D01*
X87475428Y-93574500D01*
X87475428Y-95274500D01*
X87487688Y-95398982D01*
X87523998Y-95518680D01*
X87582963Y-95628994D01*
X87662315Y-95725685D01*
X87759006Y-95805037D01*
X87869320Y-95864002D01*
X87989018Y-95900312D01*
X88113500Y-95912572D01*
X89813500Y-95912572D01*
X89937982Y-95900312D01*
X90057680Y-95864002D01*
X90167994Y-95805037D01*
X90264685Y-95725685D01*
X90344037Y-95628994D01*
X90403002Y-95518680D01*
X90425013Y-95446120D01*
X90556868Y-95577975D01*
X90800089Y-95740490D01*
X91070342Y-95852432D01*
X91357240Y-95909500D01*
X91649760Y-95909500D01*
X91936658Y-95852432D01*
X92206911Y-95740490D01*
X92450132Y-95577975D01*
X92656975Y-95371132D01*
X92773500Y-95196740D01*
X92890025Y-95371132D01*
X93096868Y-95577975D01*
X93340089Y-95740490D01*
X93610342Y-95852432D01*
X93897240Y-95909500D01*
X94189760Y-95909500D01*
X94476658Y-95852432D01*
X94746911Y-95740490D01*
X94990132Y-95577975D01*
X95039046Y-95529061D01*
X105645000Y-95529061D01*
X105645000Y-95732939D01*
X105684774Y-95932898D01*
X105695000Y-95957586D01*
X105695001Y-100062012D01*
X105690235Y-100110402D01*
X105709253Y-100303495D01*
X105765576Y-100489168D01*
X105765577Y-100489169D01*
X105857041Y-100660286D01*
X105980131Y-100810272D01*
X106017712Y-100841114D01*
X106458479Y-101281880D01*
X106489329Y-101319471D01*
X106639315Y-101442561D01*
X106810432Y-101534025D01*
X106996105Y-101590348D01*
X107189198Y-101609366D01*
X107237578Y-101604601D01*
X108475619Y-101604601D01*
X108523999Y-101609366D01*
X108572379Y-101604601D01*
X108717093Y-101590348D01*
X108902766Y-101534025D01*
X109073883Y-101442561D01*
X109223869Y-101319471D01*
X109254715Y-101281885D01*
X114555601Y-95981000D01*
X121427120Y-95981000D01*
X121475500Y-95985765D01*
X121523880Y-95981000D01*
X121668594Y-95966747D01*
X121854267Y-95910424D01*
X122025384Y-95818960D01*
X122175370Y-95695870D01*
X122206216Y-95658284D01*
X122576069Y-95288431D01*
X122600756Y-95278205D01*
X122770274Y-95164937D01*
X122914437Y-95020774D01*
X123027705Y-94851256D01*
X123105726Y-94662898D01*
X123145500Y-94462939D01*
X123145500Y-94259061D01*
X123105726Y-94059102D01*
X123095500Y-94034414D01*
X123095500Y-85709880D01*
X123100265Y-85661500D01*
X123087260Y-85529456D01*
X123081247Y-85468406D01*
X123067456Y-85422943D01*
X123042226Y-85296102D01*
X123032000Y-85271414D01*
X123032000Y-82852379D01*
X123036765Y-82803999D01*
X123017747Y-82610905D01*
X122999650Y-82551247D01*
X122961424Y-82425233D01*
X122869960Y-82254116D01*
X122746870Y-82104130D01*
X122709284Y-82073284D01*
X114338431Y-73702431D01*
X114328205Y-73677744D01*
X114214937Y-73508226D01*
X114070774Y-73364063D01*
X113901256Y-73250795D01*
X113712898Y-73172774D01*
X113512939Y-73133000D01*
X113309061Y-73133000D01*
X113109102Y-73172774D01*
X112920744Y-73250795D01*
X112751226Y-73364063D01*
X112607063Y-73508226D01*
X112493795Y-73677744D01*
X112415774Y-73866102D01*
X112376000Y-74066061D01*
X112376000Y-74269939D01*
X112415774Y-74469898D01*
X112493795Y-74658256D01*
X112607063Y-74827774D01*
X112751226Y-74971937D01*
X112920744Y-75085205D01*
X112945431Y-75095431D01*
X121062001Y-83212001D01*
X121062000Y-85271414D01*
X121051774Y-85296102D01*
X121012000Y-85496061D01*
X121012000Y-85699939D01*
X121051774Y-85899898D01*
X121125501Y-86077889D01*
X121125500Y-93953000D01*
X121067500Y-94011000D01*
X114474186Y-94011000D01*
X114449498Y-94000774D01*
X114249539Y-93961000D01*
X114045661Y-93961000D01*
X113845702Y-94000774D01*
X113657344Y-94078795D01*
X113487826Y-94192063D01*
X113343663Y-94336226D01*
X113230395Y-94505744D01*
X113220170Y-94530429D01*
X109181001Y-98569599D01*
X109181001Y-82296326D01*
X109184677Y-82259001D01*
X109181001Y-82221676D01*
X109181001Y-82221668D01*
X109170004Y-82110015D01*
X109126547Y-81966754D01*
X109055975Y-81834725D01*
X108961002Y-81719000D01*
X108932004Y-81695202D01*
X108324600Y-81087799D01*
X108324600Y-81025661D01*
X108284826Y-80825702D01*
X108206805Y-80637344D01*
X108093537Y-80467826D01*
X107949374Y-80323663D01*
X107779856Y-80210395D01*
X107591498Y-80132374D01*
X107391539Y-80092600D01*
X107187661Y-80092600D01*
X106987702Y-80132374D01*
X106799344Y-80210395D01*
X106629826Y-80323663D01*
X106485663Y-80467826D01*
X106372395Y-80637344D01*
X106294374Y-80825702D01*
X106254600Y-81025661D01*
X106254600Y-81229539D01*
X106294374Y-81429498D01*
X106372395Y-81617856D01*
X106485663Y-81787374D01*
X106629826Y-81931537D01*
X106799344Y-82044805D01*
X106987702Y-82122826D01*
X107187661Y-82162600D01*
X107249799Y-82162600D01*
X107661002Y-82573804D01*
X107661001Y-95294761D01*
X107597205Y-95140744D01*
X107483937Y-94971226D01*
X107339774Y-94827063D01*
X107170256Y-94713795D01*
X106981898Y-94635774D01*
X106781939Y-94596000D01*
X106578061Y-94596000D01*
X106378102Y-94635774D01*
X106189744Y-94713795D01*
X106020226Y-94827063D01*
X105876063Y-94971226D01*
X105762795Y-95140744D01*
X105684774Y-95329102D01*
X105645000Y-95529061D01*
X95039046Y-95529061D01*
X95196975Y-95371132D01*
X95359490Y-95127911D01*
X95471432Y-94857658D01*
X95528500Y-94570760D01*
X95528500Y-94278240D01*
X95471432Y-93991342D01*
X95359490Y-93721089D01*
X95196975Y-93477868D01*
X94990132Y-93271025D01*
X94746911Y-93108510D01*
X94476658Y-92996568D01*
X94189760Y-92939500D01*
X93897240Y-92939500D01*
X93610342Y-92996568D01*
X93340089Y-93108510D01*
X93096868Y-93271025D01*
X92890025Y-93477868D01*
X92773500Y-93652260D01*
X92656975Y-93477868D01*
X92450132Y-93271025D01*
X92206911Y-93108510D01*
X91936658Y-92996568D01*
X91649760Y-92939500D01*
X91357240Y-92939500D01*
X91070342Y-92996568D01*
X90800089Y-93108510D01*
X90556868Y-93271025D01*
X90425013Y-93402880D01*
X90403002Y-93330320D01*
X90344037Y-93220006D01*
X90264685Y-93123315D01*
X90167994Y-93043963D01*
X90057680Y-92984998D01*
X89937982Y-92948688D01*
X89813500Y-92936428D01*
X88113500Y-92936428D01*
X87989018Y-92948688D01*
X87869320Y-92984998D01*
X87759006Y-93043963D01*
X87662315Y-93123315D01*
X87582963Y-93220006D01*
X87523998Y-93330320D01*
X87487688Y-93450018D01*
X87475428Y-93574500D01*
X83072941Y-93574500D01*
X83115632Y-93545975D01*
X83322475Y-93339132D01*
X83484990Y-93095911D01*
X83596932Y-92825658D01*
X83654000Y-92538760D01*
X83654000Y-92246240D01*
X83596932Y-91959342D01*
X83484990Y-91689089D01*
X83322475Y-91445868D01*
X83115632Y-91239025D01*
X82941240Y-91122500D01*
X83115632Y-91005975D01*
X83322475Y-90799132D01*
X83484990Y-90555911D01*
X83596932Y-90285658D01*
X83654000Y-89998760D01*
X83654000Y-89706240D01*
X83596932Y-89419342D01*
X83484990Y-89149089D01*
X83322475Y-88905868D01*
X83115632Y-88699025D01*
X82941240Y-88582500D01*
X83115632Y-88465975D01*
X83322475Y-88259132D01*
X83484990Y-88015911D01*
X83596932Y-87745658D01*
X83654000Y-87458760D01*
X83654000Y-87166240D01*
X83596932Y-86879342D01*
X83484990Y-86609089D01*
X83322475Y-86365868D01*
X83115632Y-86159025D01*
X82941240Y-86042500D01*
X83115632Y-85925975D01*
X83322475Y-85719132D01*
X83484990Y-85475911D01*
X83596932Y-85205658D01*
X83654000Y-84918760D01*
X83654000Y-84626240D01*
X83596932Y-84339342D01*
X83484990Y-84069089D01*
X83322475Y-83825868D01*
X83115632Y-83619025D01*
X82941240Y-83502500D01*
X83115632Y-83385975D01*
X83322475Y-83179132D01*
X83484990Y-82935911D01*
X83596932Y-82665658D01*
X83654000Y-82378760D01*
X83654000Y-82086240D01*
X83596932Y-81799342D01*
X83484990Y-81529089D01*
X83322475Y-81285868D01*
X83151168Y-81114561D01*
X88182500Y-81114561D01*
X88182500Y-81318439D01*
X88222274Y-81518398D01*
X88232500Y-81543086D01*
X88232501Y-90388310D01*
X88227735Y-90436700D01*
X88246753Y-90629793D01*
X88303076Y-90815466D01*
X88338693Y-90882100D01*
X88394541Y-90986584D01*
X88517631Y-91136570D01*
X88555211Y-91167411D01*
X88683769Y-91295969D01*
X88693995Y-91320656D01*
X88807263Y-91490174D01*
X88951426Y-91634337D01*
X89120944Y-91747605D01*
X89309302Y-91825626D01*
X89509261Y-91865400D01*
X89713139Y-91865400D01*
X89913098Y-91825626D01*
X90101456Y-91747605D01*
X90270974Y-91634337D01*
X90415137Y-91490174D01*
X90528405Y-91320656D01*
X90606426Y-91132298D01*
X90646200Y-90932339D01*
X90646200Y-90728461D01*
X90606426Y-90528502D01*
X90528405Y-90340144D01*
X90415137Y-90170626D01*
X90270974Y-90026463D01*
X90202500Y-89980710D01*
X90202500Y-82765561D01*
X93199000Y-82765561D01*
X93199000Y-82969439D01*
X93238774Y-83169398D01*
X93316795Y-83357756D01*
X93430063Y-83527274D01*
X93474000Y-83571211D01*
X93474001Y-88386788D01*
X93430063Y-88430726D01*
X93316795Y-88600244D01*
X93238774Y-88788602D01*
X93199000Y-88988561D01*
X93199000Y-89192439D01*
X93238774Y-89392398D01*
X93316795Y-89580756D01*
X93430063Y-89750274D01*
X93574226Y-89894437D01*
X93743744Y-90007705D01*
X93932102Y-90085726D01*
X94132061Y-90125500D01*
X94335939Y-90125500D01*
X94535898Y-90085726D01*
X94724256Y-90007705D01*
X94893774Y-89894437D01*
X95037937Y-89750274D01*
X95151205Y-89580756D01*
X95229226Y-89392398D01*
X95269000Y-89192439D01*
X95269000Y-89154368D01*
X95342561Y-89169000D01*
X95546439Y-89169000D01*
X95746398Y-89129226D01*
X95934756Y-89051205D01*
X96104274Y-88937937D01*
X96248437Y-88793774D01*
X96361705Y-88624256D01*
X96439726Y-88435898D01*
X96479500Y-88235939D01*
X96479500Y-88032061D01*
X96439726Y-87832102D01*
X96361705Y-87643744D01*
X96248437Y-87474226D01*
X96204500Y-87430289D01*
X96204500Y-82233711D01*
X96248437Y-82189774D01*
X96361705Y-82020256D01*
X96439726Y-81831898D01*
X96479500Y-81631939D01*
X96479500Y-81428061D01*
X96439726Y-81228102D01*
X96392696Y-81114561D01*
X98025000Y-81114561D01*
X98025000Y-81318439D01*
X98064774Y-81518398D01*
X98142795Y-81706756D01*
X98256063Y-81876274D01*
X98400226Y-82020437D01*
X98569744Y-82133705D01*
X98758102Y-82211726D01*
X98958061Y-82251500D01*
X99161939Y-82251500D01*
X99361898Y-82211726D01*
X99550256Y-82133705D01*
X99719774Y-82020437D01*
X99790212Y-81949999D01*
X101442699Y-81949999D01*
X100644498Y-82748201D01*
X100615500Y-82771999D01*
X100591702Y-82800997D01*
X100591701Y-82800998D01*
X100520526Y-82887724D01*
X100449954Y-83019754D01*
X100419680Y-83119558D01*
X100406498Y-83163014D01*
X100404553Y-83182766D01*
X100391824Y-83312000D01*
X100395501Y-83349332D01*
X100395500Y-84068789D01*
X100360703Y-84103586D01*
X100128271Y-83871155D01*
X100182226Y-83740898D01*
X100222000Y-83540939D01*
X100222000Y-83337061D01*
X100182226Y-83137102D01*
X100104205Y-82948744D01*
X99990937Y-82779226D01*
X99846774Y-82635063D01*
X99677256Y-82521795D01*
X99488898Y-82443774D01*
X99288939Y-82404000D01*
X99085061Y-82404000D01*
X98885102Y-82443774D01*
X98696744Y-82521795D01*
X98527226Y-82635063D01*
X98383063Y-82779226D01*
X98269795Y-82948744D01*
X98191774Y-83137102D01*
X98152000Y-83337061D01*
X98152000Y-83540939D01*
X98191774Y-83740898D01*
X98269795Y-83929256D01*
X98383063Y-84098774D01*
X98438013Y-84153724D01*
X98481454Y-84296932D01*
X98504123Y-84339342D01*
X98552026Y-84428961D01*
X98623201Y-84515687D01*
X98647000Y-84544686D01*
X98675998Y-84568484D01*
X100661016Y-86553503D01*
X100684814Y-86582501D01*
X100713812Y-86606299D01*
X100800539Y-86677474D01*
X100932568Y-86748046D01*
X101075829Y-86791503D01*
X101224815Y-86806177D01*
X101262148Y-86802500D01*
X102420289Y-86802500D01*
X102464226Y-86846437D01*
X102633744Y-86959705D01*
X102822102Y-87037726D01*
X103022061Y-87077500D01*
X103225939Y-87077500D01*
X103425898Y-87037726D01*
X103614256Y-86959705D01*
X103783774Y-86846437D01*
X103927937Y-86702274D01*
X104041205Y-86532756D01*
X104119226Y-86344398D01*
X104159000Y-86144439D01*
X104159000Y-85940561D01*
X104119226Y-85740602D01*
X104041205Y-85552244D01*
X103927937Y-85382726D01*
X103783774Y-85238563D01*
X103614256Y-85125295D01*
X103425898Y-85047274D01*
X103225939Y-85007500D01*
X103022061Y-85007500D01*
X102822102Y-85047274D01*
X102633744Y-85125295D01*
X102464226Y-85238563D01*
X102420289Y-85282500D01*
X102059513Y-85282500D01*
X102072705Y-85262756D01*
X102150726Y-85074398D01*
X102190500Y-84874439D01*
X102190500Y-84670561D01*
X102150726Y-84470602D01*
X102072705Y-84282244D01*
X101959437Y-84112726D01*
X101915500Y-84068789D01*
X101915500Y-83626801D01*
X102592302Y-82950000D01*
X102654439Y-82950000D01*
X102854398Y-82910226D01*
X103042756Y-82832205D01*
X103212274Y-82718937D01*
X103321548Y-82609663D01*
X105560944Y-84849060D01*
X105543400Y-84937261D01*
X105543400Y-85141139D01*
X105583174Y-85341098D01*
X105661195Y-85529456D01*
X105774463Y-85698974D01*
X105918626Y-85843137D01*
X106088144Y-85956405D01*
X106276502Y-86034426D01*
X106476461Y-86074200D01*
X106680339Y-86074200D01*
X106880298Y-86034426D01*
X107068656Y-85956405D01*
X107238174Y-85843137D01*
X107382337Y-85698974D01*
X107495605Y-85529456D01*
X107573626Y-85341098D01*
X107613400Y-85141139D01*
X107613400Y-84937261D01*
X107573626Y-84737302D01*
X107563400Y-84712614D01*
X107563400Y-84521895D01*
X107568165Y-84473515D01*
X107549147Y-84280421D01*
X107492824Y-84094748D01*
X107474786Y-84061002D01*
X107401360Y-83923631D01*
X107278270Y-83773645D01*
X107240690Y-83742804D01*
X103800600Y-80302715D01*
X103769754Y-80265129D01*
X103619768Y-80142039D01*
X103448651Y-80050575D01*
X103262978Y-79994252D01*
X103118264Y-79979999D01*
X103069884Y-79975234D01*
X103021504Y-79979999D01*
X99359880Y-79979999D01*
X99311500Y-79975234D01*
X99156603Y-79990490D01*
X99118407Y-79994252D01*
X98932734Y-80050575D01*
X98761617Y-80142039D01*
X98611631Y-80265129D01*
X98590723Y-80290605D01*
X98569744Y-80299295D01*
X98400226Y-80412563D01*
X98256063Y-80556726D01*
X98142795Y-80726244D01*
X98064774Y-80914602D01*
X98025000Y-81114561D01*
X96392696Y-81114561D01*
X96361705Y-81039744D01*
X96248437Y-80870226D01*
X96104274Y-80726063D01*
X95934756Y-80612795D01*
X95746398Y-80534774D01*
X95546439Y-80495000D01*
X95342561Y-80495000D01*
X95142602Y-80534774D01*
X94954244Y-80612795D01*
X94784726Y-80726063D01*
X94640563Y-80870226D01*
X94527295Y-81039744D01*
X94449274Y-81228102D01*
X94409500Y-81428061D01*
X94409500Y-81631939D01*
X94449274Y-81831898D01*
X94459722Y-81857122D01*
X94335939Y-81832500D01*
X94132061Y-81832500D01*
X93932102Y-81872274D01*
X93743744Y-81950295D01*
X93574226Y-82063563D01*
X93430063Y-82207726D01*
X93316795Y-82377244D01*
X93238774Y-82565602D01*
X93199000Y-82765561D01*
X90202500Y-82765561D01*
X90202500Y-81624500D01*
X103075084Y-68751916D01*
X103112670Y-68721070D01*
X103235760Y-68571084D01*
X103327224Y-68399967D01*
X103383547Y-68214294D01*
X103397800Y-68069580D01*
X103402565Y-68021201D01*
X103397800Y-67972821D01*
X103397800Y-66549600D01*
X104395601Y-65551800D01*
X113211414Y-65551800D01*
X113236102Y-65562026D01*
X113436061Y-65601800D01*
X113639939Y-65601800D01*
X113839898Y-65562026D01*
X113864586Y-65551800D01*
X116533600Y-65551800D01*
X126421401Y-75439601D01*
X126421400Y-77397414D01*
X126411174Y-77422102D01*
X126371400Y-77622061D01*
X126371400Y-77825939D01*
X126411174Y-78025898D01*
X126421401Y-78050588D01*
X126421400Y-80672820D01*
X126416635Y-80721200D01*
X126428113Y-80837734D01*
X126435653Y-80914293D01*
X126491976Y-81099966D01*
X126583440Y-81271084D01*
X126706530Y-81421070D01*
X126744116Y-81451916D01*
X131457370Y-86165171D01*
X131467595Y-86189856D01*
X131580863Y-86359374D01*
X131653801Y-86432312D01*
X131653800Y-87729999D01*
X131265311Y-88118489D01*
X131227731Y-88149330D01*
X131104641Y-88299316D01*
X131068196Y-88367500D01*
X131013176Y-88470434D01*
X130956853Y-88656107D01*
X130937835Y-88849200D01*
X130942601Y-88897590D01*
X130942600Y-93978400D01*
X120750000Y-104171000D01*
X116760186Y-104171000D01*
X116735498Y-104160774D01*
X116535539Y-104121000D01*
X116331661Y-104121000D01*
X116131702Y-104160774D01*
X115943344Y-104238795D01*
X115773826Y-104352063D01*
X115629663Y-104496226D01*
X115516395Y-104665744D01*
X115506169Y-104690431D01*
X115416000Y-104780600D01*
X106752586Y-104780600D01*
X106727898Y-104770374D01*
X106527939Y-104730600D01*
X106324061Y-104730600D01*
X106124102Y-104770374D01*
X105935744Y-104848395D01*
X105766226Y-104961663D01*
X105622063Y-105105826D01*
X105508795Y-105275344D01*
X105498570Y-105300029D01*
X104885201Y-105913399D01*
X100921980Y-105913399D01*
X100873600Y-105908634D01*
X100680507Y-105927652D01*
X100494834Y-105983975D01*
X100323717Y-106075439D01*
X100173731Y-106198529D01*
X100142885Y-106236115D01*
X99661231Y-106717769D01*
X99636544Y-106727995D01*
X99467026Y-106841263D01*
X99322863Y-106985426D01*
X99209595Y-107154944D01*
X99131574Y-107343302D01*
X99091800Y-107543261D01*
X99091800Y-107747139D01*
X99131574Y-107947098D01*
X99209595Y-108135456D01*
X99322863Y-108304974D01*
X99467026Y-108449137D01*
X99636544Y-108562405D01*
X99824902Y-108640426D01*
X100024861Y-108680200D01*
X100228739Y-108680200D01*
X100428698Y-108640426D01*
X100617056Y-108562405D01*
X100786574Y-108449137D01*
X100930737Y-108304974D01*
X101044005Y-108135456D01*
X101054231Y-108110769D01*
X101281601Y-107883399D01*
X105244821Y-107883399D01*
X105293201Y-107888164D01*
X105341581Y-107883399D01*
X105486295Y-107869146D01*
X105671968Y-107812823D01*
X105843085Y-107721359D01*
X105993071Y-107598269D01*
X106023916Y-107560684D01*
X106834001Y-106750600D01*
X115775620Y-106750600D01*
X115824000Y-106755365D01*
X115872380Y-106750600D01*
X116017094Y-106736347D01*
X116202767Y-106680024D01*
X116373884Y-106588560D01*
X116523870Y-106465470D01*
X116554716Y-106427884D01*
X116841600Y-106141000D01*
X121109620Y-106141000D01*
X121158000Y-106145765D01*
X121206380Y-106141000D01*
X121351094Y-106126747D01*
X121536767Y-106070424D01*
X121707884Y-105978960D01*
X121857870Y-105855870D01*
X121888716Y-105818284D01*
X123591110Y-104115890D01*
X130638524Y-104115890D01*
X130683175Y-104263099D01*
X130808359Y-104525920D01*
X130982412Y-104759269D01*
X131198645Y-104954178D01*
X131448748Y-105103157D01*
X131723109Y-105200481D01*
X131953000Y-105079814D01*
X131953000Y-103886000D01*
X132207000Y-103886000D01*
X132207000Y-105079814D01*
X132436891Y-105200481D01*
X132711252Y-105103157D01*
X132961355Y-104954178D01*
X133177588Y-104759269D01*
X133351641Y-104525920D01*
X133476825Y-104263099D01*
X133521476Y-104115890D01*
X133400155Y-103886000D01*
X132207000Y-103886000D01*
X131953000Y-103886000D01*
X130759845Y-103886000D01*
X130638524Y-104115890D01*
X123591110Y-104115890D01*
X126131110Y-101575890D01*
X130638524Y-101575890D01*
X130683175Y-101723099D01*
X130808359Y-101985920D01*
X130982412Y-102219269D01*
X131198645Y-102414178D01*
X131324255Y-102489000D01*
X131198645Y-102563822D01*
X130982412Y-102758731D01*
X130808359Y-102992080D01*
X130683175Y-103254901D01*
X130638524Y-103402110D01*
X130759845Y-103632000D01*
X131953000Y-103632000D01*
X131953000Y-101346000D01*
X132207000Y-101346000D01*
X132207000Y-103632000D01*
X133400155Y-103632000D01*
X133521476Y-103402110D01*
X133476825Y-103254901D01*
X133351641Y-102992080D01*
X133177588Y-102758731D01*
X132961355Y-102563822D01*
X132835745Y-102489000D01*
X132961355Y-102414178D01*
X133177588Y-102219269D01*
X133351641Y-101985920D01*
X133476825Y-101723099D01*
X133521476Y-101575890D01*
X133400155Y-101346000D01*
X132207000Y-101346000D01*
X131953000Y-101346000D01*
X130759845Y-101346000D01*
X130638524Y-101575890D01*
X126131110Y-101575890D01*
X128178000Y-99529000D01*
X130591928Y-99529000D01*
X130604188Y-99653482D01*
X130640498Y-99773180D01*
X130699463Y-99883494D01*
X130778815Y-99980185D01*
X130875506Y-100059537D01*
X130985820Y-100118502D01*
X131066466Y-100142966D01*
X130982412Y-100218731D01*
X130808359Y-100452080D01*
X130683175Y-100714901D01*
X130638524Y-100862110D01*
X130759845Y-101092000D01*
X131953000Y-101092000D01*
X131953000Y-98806000D01*
X132207000Y-98806000D01*
X132207000Y-101092000D01*
X133400155Y-101092000D01*
X133521476Y-100862110D01*
X133476825Y-100714901D01*
X133351641Y-100452080D01*
X133177588Y-100218731D01*
X133093534Y-100142966D01*
X133174180Y-100118502D01*
X133284494Y-100059537D01*
X133381185Y-99980185D01*
X133460537Y-99883494D01*
X133519502Y-99773180D01*
X133555812Y-99653482D01*
X133568072Y-99529000D01*
X133565000Y-98964750D01*
X133406250Y-98806000D01*
X132207000Y-98806000D01*
X131953000Y-98806000D01*
X130753750Y-98806000D01*
X130595000Y-98964750D01*
X130591928Y-99529000D01*
X128178000Y-99529000D01*
X129878000Y-97829000D01*
X130591928Y-97829000D01*
X130595000Y-98393250D01*
X130753750Y-98552000D01*
X131953000Y-98552000D01*
X131953000Y-97352750D01*
X132207000Y-97352750D01*
X132207000Y-98552000D01*
X133406250Y-98552000D01*
X133565000Y-98393250D01*
X133568072Y-97829000D01*
X133555812Y-97704518D01*
X133519502Y-97584820D01*
X133460537Y-97474506D01*
X133381185Y-97377815D01*
X133284494Y-97298463D01*
X133174180Y-97239498D01*
X133054482Y-97203188D01*
X132930000Y-97190928D01*
X132365750Y-97194000D01*
X132207000Y-97352750D01*
X131953000Y-97352750D01*
X131794250Y-97194000D01*
X131230000Y-97190928D01*
X131105518Y-97203188D01*
X130985820Y-97239498D01*
X130875506Y-97298463D01*
X130778815Y-97377815D01*
X130699463Y-97474506D01*
X130640498Y-97584820D01*
X130604188Y-97704518D01*
X130591928Y-97829000D01*
X129878000Y-97829000D01*
X132393169Y-95313831D01*
X132417856Y-95303605D01*
X132587374Y-95190337D01*
X132731537Y-95046174D01*
X132844805Y-94876656D01*
X132922826Y-94688298D01*
X132962600Y-94488339D01*
X132962600Y-94284461D01*
X132922826Y-94084502D01*
X132912600Y-94059814D01*
X132912600Y-89257200D01*
X133104371Y-89065430D01*
X133129056Y-89055205D01*
X133298574Y-88941937D01*
X133442737Y-88797774D01*
X133556005Y-88628256D01*
X133634026Y-88439898D01*
X133673800Y-88239939D01*
X133673800Y-88036061D01*
X133634026Y-87836102D01*
X133623800Y-87811414D01*
X133623800Y-86001979D01*
X133628565Y-85953599D01*
X133609547Y-85760505D01*
X133591071Y-85699600D01*
X133553224Y-85574833D01*
X133461760Y-85403716D01*
X133338670Y-85253730D01*
X133310976Y-85231002D01*
X133302005Y-85209344D01*
X133188737Y-85039826D01*
X133044574Y-84895663D01*
X132875056Y-84782395D01*
X132850371Y-84772170D01*
X128391400Y-80313200D01*
X128391400Y-78050586D01*
X128401626Y-78025898D01*
X128441400Y-77825939D01*
X128441400Y-77622061D01*
X128401626Y-77422102D01*
X128391400Y-77397414D01*
X128391400Y-75079979D01*
X128396165Y-75031599D01*
X128377147Y-74838506D01*
X128320824Y-74652833D01*
X128229360Y-74481716D01*
X128106270Y-74331730D01*
X128068684Y-74300884D01*
X117672316Y-63904516D01*
X117641470Y-63866930D01*
X117491484Y-63743840D01*
X117320367Y-63652376D01*
X117134694Y-63596053D01*
X116989980Y-63581800D01*
X116941600Y-63577035D01*
X116893220Y-63581800D01*
X113864586Y-63581800D01*
X113839898Y-63571574D01*
X113639939Y-63531800D01*
X113436061Y-63531800D01*
X113236102Y-63571574D01*
X113211414Y-63581800D01*
X104035980Y-63581800D01*
X103987600Y-63577035D01*
X103939220Y-63581800D01*
X103794506Y-63596053D01*
X103608833Y-63652376D01*
X103437716Y-63743840D01*
X103287730Y-63866930D01*
X103256889Y-63904510D01*
X101947230Y-65214170D01*
X101922544Y-65224395D01*
X101753026Y-65337663D01*
X101608863Y-65481826D01*
X101495595Y-65651344D01*
X101417574Y-65839702D01*
X101377800Y-66039661D01*
X101377800Y-66243539D01*
X101417574Y-66443498D01*
X101427800Y-66468186D01*
X101427801Y-67613199D01*
X88751931Y-80289069D01*
X88727244Y-80299295D01*
X88557726Y-80412563D01*
X88413563Y-80556726D01*
X88300295Y-80726244D01*
X88222274Y-80914602D01*
X88182500Y-81114561D01*
X83151168Y-81114561D01*
X83115632Y-81079025D01*
X82941240Y-80962500D01*
X83115632Y-80845975D01*
X83322475Y-80639132D01*
X83484990Y-80395911D01*
X83596932Y-80125658D01*
X83654000Y-79838760D01*
X83654000Y-79546240D01*
X83596932Y-79259342D01*
X83484990Y-78989089D01*
X83322475Y-78745868D01*
X83190620Y-78614013D01*
X83263180Y-78592002D01*
X83373494Y-78533037D01*
X83470185Y-78453685D01*
X83549537Y-78356994D01*
X83608502Y-78246680D01*
X83644812Y-78126982D01*
X83657072Y-78002500D01*
X83657072Y-76302500D01*
X83644812Y-76178018D01*
X83608502Y-76058320D01*
X83549537Y-75948006D01*
X83470185Y-75851315D01*
X83373494Y-75771963D01*
X83263180Y-75712998D01*
X83143482Y-75676688D01*
X83019000Y-75664428D01*
X81319000Y-75664428D01*
X81194518Y-75676688D01*
X81074820Y-75712998D01*
X80964506Y-75771963D01*
X80867815Y-75851315D01*
X80788463Y-75948006D01*
X80729498Y-76058320D01*
X80693188Y-76178018D01*
X80680928Y-76302500D01*
X79543215Y-76302500D01*
X79461675Y-76180468D01*
X79254832Y-75973625D01*
X79011611Y-75811110D01*
X78741358Y-75699168D01*
X78454460Y-75642100D01*
X78161940Y-75642100D01*
X77875042Y-75699168D01*
X77604789Y-75811110D01*
X77361568Y-75973625D01*
X77154725Y-76180468D01*
X76992210Y-76423689D01*
X76880268Y-76693942D01*
X76823200Y-76980840D01*
X76823200Y-77273360D01*
X76880268Y-77560258D01*
X76992210Y-77830511D01*
X77154725Y-78073732D01*
X77361568Y-78280575D01*
X77535960Y-78397100D01*
X77361568Y-78513625D01*
X77154725Y-78720468D01*
X76992210Y-78963689D01*
X76880268Y-79233942D01*
X76823200Y-79520840D01*
X76823200Y-79813360D01*
X76880268Y-80100258D01*
X76992210Y-80370511D01*
X77154725Y-80613732D01*
X77361568Y-80820575D01*
X77535960Y-80937100D01*
X77361568Y-81053625D01*
X77154725Y-81260468D01*
X76992210Y-81503689D01*
X76880268Y-81773942D01*
X76823200Y-82060840D01*
X76823200Y-82353360D01*
X76880268Y-82640258D01*
X76992210Y-82910511D01*
X77154725Y-83153732D01*
X77361568Y-83360575D01*
X77535960Y-83477100D01*
X77361568Y-83593625D01*
X77154725Y-83800468D01*
X76992210Y-84043689D01*
X76880268Y-84313942D01*
X76823200Y-84600840D01*
X76823200Y-84893360D01*
X76880268Y-85180258D01*
X76992210Y-85450511D01*
X77154725Y-85693732D01*
X77361568Y-85900575D01*
X77535960Y-86017100D01*
X77361568Y-86133625D01*
X77154725Y-86340468D01*
X76992210Y-86583689D01*
X76880268Y-86853942D01*
X76823200Y-87140840D01*
X76823200Y-87433360D01*
X76880268Y-87720258D01*
X76992210Y-87990511D01*
X77154725Y-88233732D01*
X77361568Y-88440575D01*
X77535960Y-88557100D01*
X77361568Y-88673625D01*
X77154725Y-88880468D01*
X76992210Y-89123689D01*
X76880268Y-89393942D01*
X76823200Y-89680840D01*
X76823200Y-89973360D01*
X76880268Y-90260258D01*
X76992210Y-90530511D01*
X77154725Y-90773732D01*
X77361568Y-90980575D01*
X77535960Y-91097100D01*
X77361568Y-91213625D01*
X77154725Y-91420468D01*
X76992210Y-91663689D01*
X76880268Y-91933942D01*
X76823200Y-92220840D01*
X76823200Y-92513360D01*
X76880268Y-92800258D01*
X76992210Y-93070511D01*
X77154725Y-93313732D01*
X77286580Y-93445587D01*
X77214020Y-93467598D01*
X77103706Y-93526563D01*
X77007015Y-93605915D01*
X76927663Y-93702606D01*
X76868698Y-93812920D01*
X76832388Y-93932618D01*
X76820128Y-94057100D01*
X75660000Y-94057100D01*
X75660000Y-58464240D01*
X91225000Y-58464240D01*
X91225000Y-58756760D01*
X91282068Y-59043658D01*
X91394010Y-59313911D01*
X91556525Y-59557132D01*
X91763368Y-59763975D01*
X92006589Y-59926490D01*
X92276842Y-60038432D01*
X92563740Y-60095500D01*
X92856260Y-60095500D01*
X93143158Y-60038432D01*
X93413411Y-59926490D01*
X93656632Y-59763975D01*
X93863475Y-59557132D01*
X93980000Y-59382740D01*
X94096525Y-59557132D01*
X94303368Y-59763975D01*
X94546589Y-59926490D01*
X94816842Y-60038432D01*
X95103740Y-60095500D01*
X95396260Y-60095500D01*
X95683158Y-60038432D01*
X95953411Y-59926490D01*
X96196632Y-59763975D01*
X96403475Y-59557132D01*
X96520000Y-59382740D01*
X96636525Y-59557132D01*
X96843368Y-59763975D01*
X97086589Y-59926490D01*
X97356842Y-60038432D01*
X97643740Y-60095500D01*
X97936260Y-60095500D01*
X98223158Y-60038432D01*
X98493411Y-59926490D01*
X98736632Y-59763975D01*
X98943475Y-59557132D01*
X99060000Y-59382740D01*
X99176525Y-59557132D01*
X99383368Y-59763975D01*
X99626589Y-59926490D01*
X99896842Y-60038432D01*
X100183740Y-60095500D01*
X100476260Y-60095500D01*
X100763158Y-60038432D01*
X101033411Y-59926490D01*
X101276632Y-59763975D01*
X101483475Y-59557132D01*
X101600000Y-59382740D01*
X101716525Y-59557132D01*
X101923368Y-59763975D01*
X102166589Y-59926490D01*
X102436842Y-60038432D01*
X102723740Y-60095500D01*
X103016260Y-60095500D01*
X103303158Y-60038432D01*
X103573411Y-59926490D01*
X103816632Y-59763975D01*
X104023475Y-59557132D01*
X104140000Y-59382740D01*
X104256525Y-59557132D01*
X104463368Y-59763975D01*
X104706589Y-59926490D01*
X104976842Y-60038432D01*
X105263740Y-60095500D01*
X105556260Y-60095500D01*
X105843158Y-60038432D01*
X106113411Y-59926490D01*
X106356632Y-59763975D01*
X106563475Y-59557132D01*
X106680000Y-59382740D01*
X106796525Y-59557132D01*
X107003368Y-59763975D01*
X107246589Y-59926490D01*
X107516842Y-60038432D01*
X107803740Y-60095500D01*
X108096260Y-60095500D01*
X108383158Y-60038432D01*
X108653411Y-59926490D01*
X108896632Y-59763975D01*
X109103475Y-59557132D01*
X109220000Y-59382740D01*
X109336525Y-59557132D01*
X109543368Y-59763975D01*
X109786589Y-59926490D01*
X110056842Y-60038432D01*
X110343740Y-60095500D01*
X110636260Y-60095500D01*
X110923158Y-60038432D01*
X111193411Y-59926490D01*
X111436632Y-59763975D01*
X111643475Y-59557132D01*
X111760000Y-59382740D01*
X111876525Y-59557132D01*
X112083368Y-59763975D01*
X112326589Y-59926490D01*
X112596842Y-60038432D01*
X112883740Y-60095500D01*
X113176260Y-60095500D01*
X113463158Y-60038432D01*
X113733411Y-59926490D01*
X113976632Y-59763975D01*
X114183475Y-59557132D01*
X114300000Y-59382740D01*
X114416525Y-59557132D01*
X114623368Y-59763975D01*
X114866589Y-59926490D01*
X115136842Y-60038432D01*
X115423740Y-60095500D01*
X115716260Y-60095500D01*
X116003158Y-60038432D01*
X116273411Y-59926490D01*
X116516632Y-59763975D01*
X116723475Y-59557132D01*
X116840000Y-59382740D01*
X116956525Y-59557132D01*
X117163368Y-59763975D01*
X117406589Y-59926490D01*
X117676842Y-60038432D01*
X117963740Y-60095500D01*
X118256260Y-60095500D01*
X118543158Y-60038432D01*
X118813411Y-59926490D01*
X119056632Y-59763975D01*
X119263475Y-59557132D01*
X119380000Y-59382740D01*
X119496525Y-59557132D01*
X119703368Y-59763975D01*
X119946589Y-59926490D01*
X120216842Y-60038432D01*
X120503740Y-60095500D01*
X120796260Y-60095500D01*
X121083158Y-60038432D01*
X121353411Y-59926490D01*
X121596632Y-59763975D01*
X121803475Y-59557132D01*
X121920000Y-59382740D01*
X122036525Y-59557132D01*
X122243368Y-59763975D01*
X122486589Y-59926490D01*
X122756842Y-60038432D01*
X123043740Y-60095500D01*
X123336260Y-60095500D01*
X123623158Y-60038432D01*
X123893411Y-59926490D01*
X124136632Y-59763975D01*
X124343475Y-59557132D01*
X124460000Y-59382740D01*
X124576525Y-59557132D01*
X124783368Y-59763975D01*
X125026589Y-59926490D01*
X125296842Y-60038432D01*
X125583740Y-60095500D01*
X125876260Y-60095500D01*
X126163158Y-60038432D01*
X126433411Y-59926490D01*
X126676632Y-59763975D01*
X126883475Y-59557132D01*
X127000000Y-59382740D01*
X127116525Y-59557132D01*
X127323368Y-59763975D01*
X127566589Y-59926490D01*
X127836842Y-60038432D01*
X128123740Y-60095500D01*
X128416260Y-60095500D01*
X128703158Y-60038432D01*
X128973411Y-59926490D01*
X129216632Y-59763975D01*
X129348487Y-59632120D01*
X129370498Y-59704680D01*
X129429463Y-59814994D01*
X129508815Y-59911685D01*
X129605506Y-59991037D01*
X129715820Y-60050002D01*
X129835518Y-60086312D01*
X129960000Y-60098572D01*
X131660000Y-60098572D01*
X131784482Y-60086312D01*
X131904180Y-60050002D01*
X132014494Y-59991037D01*
X132111185Y-59911685D01*
X132190537Y-59814994D01*
X132249502Y-59704680D01*
X132285812Y-59584982D01*
X132298072Y-59460500D01*
X132298072Y-57760500D01*
X132285812Y-57636018D01*
X132249502Y-57516320D01*
X132190537Y-57406006D01*
X132111185Y-57309315D01*
X132014494Y-57229963D01*
X131904180Y-57170998D01*
X131784482Y-57134688D01*
X131660000Y-57122428D01*
X129960000Y-57122428D01*
X129835518Y-57134688D01*
X129715820Y-57170998D01*
X129605506Y-57229963D01*
X129508815Y-57309315D01*
X129429463Y-57406006D01*
X129370498Y-57516320D01*
X129348487Y-57588880D01*
X129216632Y-57457025D01*
X128973411Y-57294510D01*
X128703158Y-57182568D01*
X128416260Y-57125500D01*
X128123740Y-57125500D01*
X127836842Y-57182568D01*
X127566589Y-57294510D01*
X127323368Y-57457025D01*
X127116525Y-57663868D01*
X127000000Y-57838260D01*
X126883475Y-57663868D01*
X126676632Y-57457025D01*
X126433411Y-57294510D01*
X126163158Y-57182568D01*
X125876260Y-57125500D01*
X125583740Y-57125500D01*
X125296842Y-57182568D01*
X125026589Y-57294510D01*
X124783368Y-57457025D01*
X124576525Y-57663868D01*
X124460000Y-57838260D01*
X124343475Y-57663868D01*
X124136632Y-57457025D01*
X123893411Y-57294510D01*
X123623158Y-57182568D01*
X123336260Y-57125500D01*
X123043740Y-57125500D01*
X122756842Y-57182568D01*
X122486589Y-57294510D01*
X122243368Y-57457025D01*
X122036525Y-57663868D01*
X121920000Y-57838260D01*
X121803475Y-57663868D01*
X121596632Y-57457025D01*
X121353411Y-57294510D01*
X121083158Y-57182568D01*
X120796260Y-57125500D01*
X120503740Y-57125500D01*
X120216842Y-57182568D01*
X119946589Y-57294510D01*
X119703368Y-57457025D01*
X119496525Y-57663868D01*
X119380000Y-57838260D01*
X119263475Y-57663868D01*
X119056632Y-57457025D01*
X118813411Y-57294510D01*
X118543158Y-57182568D01*
X118256260Y-57125500D01*
X117963740Y-57125500D01*
X117676842Y-57182568D01*
X117406589Y-57294510D01*
X117163368Y-57457025D01*
X116956525Y-57663868D01*
X116840000Y-57838260D01*
X116723475Y-57663868D01*
X116516632Y-57457025D01*
X116273411Y-57294510D01*
X116003158Y-57182568D01*
X115716260Y-57125500D01*
X115423740Y-57125500D01*
X115136842Y-57182568D01*
X114866589Y-57294510D01*
X114623368Y-57457025D01*
X114416525Y-57663868D01*
X114300000Y-57838260D01*
X114183475Y-57663868D01*
X113976632Y-57457025D01*
X113733411Y-57294510D01*
X113463158Y-57182568D01*
X113176260Y-57125500D01*
X112883740Y-57125500D01*
X112596842Y-57182568D01*
X112326589Y-57294510D01*
X112083368Y-57457025D01*
X111876525Y-57663868D01*
X111760000Y-57838260D01*
X111643475Y-57663868D01*
X111436632Y-57457025D01*
X111193411Y-57294510D01*
X110923158Y-57182568D01*
X110636260Y-57125500D01*
X110343740Y-57125500D01*
X110056842Y-57182568D01*
X109786589Y-57294510D01*
X109543368Y-57457025D01*
X109336525Y-57663868D01*
X109220000Y-57838260D01*
X109103475Y-57663868D01*
X108896632Y-57457025D01*
X108653411Y-57294510D01*
X108383158Y-57182568D01*
X108096260Y-57125500D01*
X107803740Y-57125500D01*
X107516842Y-57182568D01*
X107246589Y-57294510D01*
X107003368Y-57457025D01*
X106796525Y-57663868D01*
X106680000Y-57838260D01*
X106563475Y-57663868D01*
X106356632Y-57457025D01*
X106113411Y-57294510D01*
X105843158Y-57182568D01*
X105556260Y-57125500D01*
X105263740Y-57125500D01*
X104976842Y-57182568D01*
X104706589Y-57294510D01*
X104463368Y-57457025D01*
X104256525Y-57663868D01*
X104140000Y-57838260D01*
X104023475Y-57663868D01*
X103816632Y-57457025D01*
X103573411Y-57294510D01*
X103303158Y-57182568D01*
X103016260Y-57125500D01*
X102723740Y-57125500D01*
X102436842Y-57182568D01*
X102166589Y-57294510D01*
X101923368Y-57457025D01*
X101716525Y-57663868D01*
X101600000Y-57838260D01*
X101483475Y-57663868D01*
X101276632Y-57457025D01*
X101033411Y-57294510D01*
X100763158Y-57182568D01*
X100476260Y-57125500D01*
X100183740Y-57125500D01*
X99896842Y-57182568D01*
X99626589Y-57294510D01*
X99383368Y-57457025D01*
X99176525Y-57663868D01*
X99060000Y-57838260D01*
X98943475Y-57663868D01*
X98736632Y-57457025D01*
X98493411Y-57294510D01*
X98223158Y-57182568D01*
X97936260Y-57125500D01*
X97643740Y-57125500D01*
X97356842Y-57182568D01*
X97086589Y-57294510D01*
X96843368Y-57457025D01*
X96636525Y-57663868D01*
X96520000Y-57838260D01*
X96403475Y-57663868D01*
X96196632Y-57457025D01*
X95953411Y-57294510D01*
X95683158Y-57182568D01*
X95396260Y-57125500D01*
X95103740Y-57125500D01*
X94816842Y-57182568D01*
X94546589Y-57294510D01*
X94303368Y-57457025D01*
X94096525Y-57663868D01*
X93980000Y-57838260D01*
X93863475Y-57663868D01*
X93656632Y-57457025D01*
X93413411Y-57294510D01*
X93143158Y-57182568D01*
X92856260Y-57125500D01*
X92563740Y-57125500D01*
X92276842Y-57182568D01*
X92006589Y-57294510D01*
X91763368Y-57457025D01*
X91556525Y-57663868D01*
X91394010Y-57907089D01*
X91282068Y-58177342D01*
X91225000Y-58464240D01*
X75660000Y-58464240D01*
X75660000Y-54039400D01*
X91234628Y-54039400D01*
X91234628Y-55739400D01*
X91246888Y-55863882D01*
X91283198Y-55983580D01*
X91342163Y-56093894D01*
X91421515Y-56190585D01*
X91518206Y-56269937D01*
X91628520Y-56328902D01*
X91748218Y-56365212D01*
X91872700Y-56377472D01*
X93572700Y-56377472D01*
X93697182Y-56365212D01*
X93816880Y-56328902D01*
X93927194Y-56269937D01*
X94023885Y-56190585D01*
X94103237Y-56093894D01*
X94162202Y-55983580D01*
X94184213Y-55911020D01*
X94316068Y-56042875D01*
X94559289Y-56205390D01*
X94829542Y-56317332D01*
X95116440Y-56374400D01*
X95408960Y-56374400D01*
X95695858Y-56317332D01*
X95966111Y-56205390D01*
X96209332Y-56042875D01*
X96416175Y-55836032D01*
X96532700Y-55661640D01*
X96649225Y-55836032D01*
X96856068Y-56042875D01*
X97099289Y-56205390D01*
X97369542Y-56317332D01*
X97656440Y-56374400D01*
X97948960Y-56374400D01*
X98235858Y-56317332D01*
X98506111Y-56205390D01*
X98749332Y-56042875D01*
X98956175Y-55836032D01*
X99072700Y-55661640D01*
X99189225Y-55836032D01*
X99396068Y-56042875D01*
X99639289Y-56205390D01*
X99909542Y-56317332D01*
X100196440Y-56374400D01*
X100488960Y-56374400D01*
X100775858Y-56317332D01*
X101046111Y-56205390D01*
X101289332Y-56042875D01*
X101496175Y-55836032D01*
X101612700Y-55661640D01*
X101729225Y-55836032D01*
X101936068Y-56042875D01*
X102179289Y-56205390D01*
X102449542Y-56317332D01*
X102736440Y-56374400D01*
X103028960Y-56374400D01*
X103315858Y-56317332D01*
X103586111Y-56205390D01*
X103829332Y-56042875D01*
X104036175Y-55836032D01*
X104152700Y-55661640D01*
X104269225Y-55836032D01*
X104476068Y-56042875D01*
X104719289Y-56205390D01*
X104989542Y-56317332D01*
X105276440Y-56374400D01*
X105568960Y-56374400D01*
X105855858Y-56317332D01*
X106126111Y-56205390D01*
X106369332Y-56042875D01*
X106576175Y-55836032D01*
X106692700Y-55661640D01*
X106809225Y-55836032D01*
X107016068Y-56042875D01*
X107259289Y-56205390D01*
X107529542Y-56317332D01*
X107816440Y-56374400D01*
X108108960Y-56374400D01*
X108395858Y-56317332D01*
X108666111Y-56205390D01*
X108909332Y-56042875D01*
X109116175Y-55836032D01*
X109232700Y-55661640D01*
X109349225Y-55836032D01*
X109556068Y-56042875D01*
X109799289Y-56205390D01*
X110069542Y-56317332D01*
X110356440Y-56374400D01*
X110648960Y-56374400D01*
X110935858Y-56317332D01*
X111206111Y-56205390D01*
X111449332Y-56042875D01*
X111656175Y-55836032D01*
X111772700Y-55661640D01*
X111889225Y-55836032D01*
X112096068Y-56042875D01*
X112339289Y-56205390D01*
X112609542Y-56317332D01*
X112896440Y-56374400D01*
X113188960Y-56374400D01*
X113475858Y-56317332D01*
X113746111Y-56205390D01*
X113989332Y-56042875D01*
X114196175Y-55836032D01*
X114312700Y-55661640D01*
X114429225Y-55836032D01*
X114636068Y-56042875D01*
X114879289Y-56205390D01*
X115149542Y-56317332D01*
X115436440Y-56374400D01*
X115728960Y-56374400D01*
X116015858Y-56317332D01*
X116286111Y-56205390D01*
X116529332Y-56042875D01*
X116736175Y-55836032D01*
X116852700Y-55661640D01*
X116969225Y-55836032D01*
X117176068Y-56042875D01*
X117419289Y-56205390D01*
X117689542Y-56317332D01*
X117976440Y-56374400D01*
X118268960Y-56374400D01*
X118555858Y-56317332D01*
X118826111Y-56205390D01*
X119069332Y-56042875D01*
X119276175Y-55836032D01*
X119392700Y-55661640D01*
X119509225Y-55836032D01*
X119716068Y-56042875D01*
X119959289Y-56205390D01*
X120229542Y-56317332D01*
X120516440Y-56374400D01*
X120808960Y-56374400D01*
X121095858Y-56317332D01*
X121366111Y-56205390D01*
X121609332Y-56042875D01*
X121816175Y-55836032D01*
X121932700Y-55661640D01*
X122049225Y-55836032D01*
X122256068Y-56042875D01*
X122499289Y-56205390D01*
X122769542Y-56317332D01*
X123056440Y-56374400D01*
X123348960Y-56374400D01*
X123635858Y-56317332D01*
X123906111Y-56205390D01*
X124149332Y-56042875D01*
X124356175Y-55836032D01*
X124472700Y-55661640D01*
X124589225Y-55836032D01*
X124796068Y-56042875D01*
X125039289Y-56205390D01*
X125309542Y-56317332D01*
X125596440Y-56374400D01*
X125888960Y-56374400D01*
X126175858Y-56317332D01*
X126446111Y-56205390D01*
X126689332Y-56042875D01*
X126896175Y-55836032D01*
X127012700Y-55661640D01*
X127129225Y-55836032D01*
X127336068Y-56042875D01*
X127579289Y-56205390D01*
X127849542Y-56317332D01*
X128136440Y-56374400D01*
X128428960Y-56374400D01*
X128715858Y-56317332D01*
X128986111Y-56205390D01*
X129229332Y-56042875D01*
X129436175Y-55836032D01*
X129552700Y-55661640D01*
X129669225Y-55836032D01*
X129876068Y-56042875D01*
X130119289Y-56205390D01*
X130389542Y-56317332D01*
X130676440Y-56374400D01*
X130968960Y-56374400D01*
X131255858Y-56317332D01*
X131526111Y-56205390D01*
X131769332Y-56042875D01*
X131976175Y-55836032D01*
X132138690Y-55592811D01*
X132250632Y-55322558D01*
X132307700Y-55035660D01*
X132307700Y-54743140D01*
X132250632Y-54456242D01*
X132138690Y-54185989D01*
X131976175Y-53942768D01*
X131769332Y-53735925D01*
X131526111Y-53573410D01*
X131255858Y-53461468D01*
X130968960Y-53404400D01*
X130676440Y-53404400D01*
X130389542Y-53461468D01*
X130119289Y-53573410D01*
X129876068Y-53735925D01*
X129669225Y-53942768D01*
X129552700Y-54117160D01*
X129436175Y-53942768D01*
X129229332Y-53735925D01*
X128986111Y-53573410D01*
X128715858Y-53461468D01*
X128428960Y-53404400D01*
X128136440Y-53404400D01*
X127849542Y-53461468D01*
X127579289Y-53573410D01*
X127336068Y-53735925D01*
X127129225Y-53942768D01*
X127012700Y-54117160D01*
X126896175Y-53942768D01*
X126689332Y-53735925D01*
X126446111Y-53573410D01*
X126175858Y-53461468D01*
X125888960Y-53404400D01*
X125596440Y-53404400D01*
X125309542Y-53461468D01*
X125039289Y-53573410D01*
X124796068Y-53735925D01*
X124589225Y-53942768D01*
X124472700Y-54117160D01*
X124356175Y-53942768D01*
X124149332Y-53735925D01*
X123906111Y-53573410D01*
X123635858Y-53461468D01*
X123348960Y-53404400D01*
X123056440Y-53404400D01*
X122769542Y-53461468D01*
X122499289Y-53573410D01*
X122256068Y-53735925D01*
X122049225Y-53942768D01*
X121932700Y-54117160D01*
X121816175Y-53942768D01*
X121609332Y-53735925D01*
X121366111Y-53573410D01*
X121095858Y-53461468D01*
X120808960Y-53404400D01*
X120516440Y-53404400D01*
X120229542Y-53461468D01*
X119959289Y-53573410D01*
X119716068Y-53735925D01*
X119509225Y-53942768D01*
X119392700Y-54117160D01*
X119276175Y-53942768D01*
X119069332Y-53735925D01*
X118826111Y-53573410D01*
X118555858Y-53461468D01*
X118268960Y-53404400D01*
X117976440Y-53404400D01*
X117689542Y-53461468D01*
X117419289Y-53573410D01*
X117176068Y-53735925D01*
X116969225Y-53942768D01*
X116852700Y-54117160D01*
X116736175Y-53942768D01*
X116529332Y-53735925D01*
X116286111Y-53573410D01*
X116015858Y-53461468D01*
X115728960Y-53404400D01*
X115436440Y-53404400D01*
X115149542Y-53461468D01*
X114879289Y-53573410D01*
X114636068Y-53735925D01*
X114429225Y-53942768D01*
X114312700Y-54117160D01*
X114196175Y-53942768D01*
X113989332Y-53735925D01*
X113746111Y-53573410D01*
X113475858Y-53461468D01*
X113188960Y-53404400D01*
X112896440Y-53404400D01*
X112609542Y-53461468D01*
X112339289Y-53573410D01*
X112096068Y-53735925D01*
X111889225Y-53942768D01*
X111772700Y-54117160D01*
X111656175Y-53942768D01*
X111449332Y-53735925D01*
X111206111Y-53573410D01*
X110935858Y-53461468D01*
X110648960Y-53404400D01*
X110356440Y-53404400D01*
X110069542Y-53461468D01*
X109799289Y-53573410D01*
X109556068Y-53735925D01*
X109349225Y-53942768D01*
X109232700Y-54117160D01*
X109116175Y-53942768D01*
X108909332Y-53735925D01*
X108666111Y-53573410D01*
X108395858Y-53461468D01*
X108108960Y-53404400D01*
X107816440Y-53404400D01*
X107529542Y-53461468D01*
X107259289Y-53573410D01*
X107016068Y-53735925D01*
X106809225Y-53942768D01*
X106692700Y-54117160D01*
X106576175Y-53942768D01*
X106369332Y-53735925D01*
X106126111Y-53573410D01*
X105855858Y-53461468D01*
X105568960Y-53404400D01*
X105276440Y-53404400D01*
X104989542Y-53461468D01*
X104719289Y-53573410D01*
X104476068Y-53735925D01*
X104269225Y-53942768D01*
X104152700Y-54117160D01*
X104036175Y-53942768D01*
X103829332Y-53735925D01*
X103586111Y-53573410D01*
X103315858Y-53461468D01*
X103028960Y-53404400D01*
X102736440Y-53404400D01*
X102449542Y-53461468D01*
X102179289Y-53573410D01*
X101936068Y-53735925D01*
X101729225Y-53942768D01*
X101612700Y-54117160D01*
X101496175Y-53942768D01*
X101289332Y-53735925D01*
X101046111Y-53573410D01*
X100775858Y-53461468D01*
X100488960Y-53404400D01*
X100196440Y-53404400D01*
X99909542Y-53461468D01*
X99639289Y-53573410D01*
X99396068Y-53735925D01*
X99189225Y-53942768D01*
X99072700Y-54117160D01*
X98956175Y-53942768D01*
X98749332Y-53735925D01*
X98506111Y-53573410D01*
X98235858Y-53461468D01*
X97948960Y-53404400D01*
X97656440Y-53404400D01*
X97369542Y-53461468D01*
X97099289Y-53573410D01*
X96856068Y-53735925D01*
X96649225Y-53942768D01*
X96532700Y-54117160D01*
X96416175Y-53942768D01*
X96209332Y-53735925D01*
X95966111Y-53573410D01*
X95695858Y-53461468D01*
X95408960Y-53404400D01*
X95116440Y-53404400D01*
X94829542Y-53461468D01*
X94559289Y-53573410D01*
X94316068Y-53735925D01*
X94184213Y-53867780D01*
X94162202Y-53795220D01*
X94103237Y-53684906D01*
X94023885Y-53588215D01*
X93927194Y-53508863D01*
X93816880Y-53449898D01*
X93697182Y-53413588D01*
X93572700Y-53401328D01*
X91872700Y-53401328D01*
X91748218Y-53413588D01*
X91628520Y-53449898D01*
X91518206Y-53508863D01*
X91421515Y-53588215D01*
X91342163Y-53684906D01*
X91283198Y-53795220D01*
X91246888Y-53914918D01*
X91234628Y-54039400D01*
X75660000Y-54039400D01*
X75660000Y-52660000D01*
X135340000Y-52660000D01*
X135340001Y-122340000D01*
%TD*%
M02*
