%TF.GenerationSoftware,KiCad,Pcbnew,(5.1.6)-1*%
%TF.CreationDate,2020-09-22T22:19:13+03:00*%
%TF.ProjectId,Z80_devboard,5a38305f-6465-4766-926f-6172642e6b69,rev?*%
%TF.SameCoordinates,Original*%
%TF.FileFunction,Legend,Bot*%
%TF.FilePolarity,Positive*%
%FSLAX46Y46*%
G04 Gerber Fmt 4.6, Leading zero omitted, Abs format (unit mm)*
G04 Created by KiCad (PCBNEW (5.1.6)-1) date 2020-09-22 22:19:13*
%MOMM*%
%LPD*%
G01*
G04 APERTURE LIST*
%ADD10C,0.150000*%
G04 APERTURE END LIST*
D10*
X87181747Y-118527580D02*
X87181747Y-119241866D01*
X87229366Y-119384723D01*
X87324604Y-119479961D01*
X87467461Y-119527580D01*
X87562700Y-119527580D01*
X86229366Y-119527580D02*
X86705557Y-119527580D01*
X86705557Y-118527580D01*
X85324604Y-119432342D02*
X85372223Y-119479961D01*
X85515080Y-119527580D01*
X85610319Y-119527580D01*
X85753176Y-119479961D01*
X85848414Y-119384723D01*
X85896033Y-119289485D01*
X85943652Y-119099009D01*
X85943652Y-118956152D01*
X85896033Y-118765676D01*
X85848414Y-118670438D01*
X85753176Y-118575200D01*
X85610319Y-118527580D01*
X85515080Y-118527580D01*
X85372223Y-118575200D01*
X85324604Y-118622819D01*
X84610319Y-118527580D02*
X84610319Y-119241866D01*
X84657938Y-119384723D01*
X84753176Y-119479961D01*
X84896033Y-119527580D01*
X84991271Y-119527580D01*
X83657938Y-119527580D02*
X84134128Y-119527580D01*
X84134128Y-118527580D01*
X82753176Y-119432342D02*
X82800795Y-119479961D01*
X82943652Y-119527580D01*
X83038890Y-119527580D01*
X83181747Y-119479961D01*
X83276985Y-119384723D01*
X83324604Y-119289485D01*
X83372223Y-119099009D01*
X83372223Y-118956152D01*
X83324604Y-118765676D01*
X83276985Y-118670438D01*
X83181747Y-118575200D01*
X83038890Y-118527580D01*
X82943652Y-118527580D01*
X82800795Y-118575200D01*
X82753176Y-118622819D01*
X82038890Y-118527580D02*
X82038890Y-119241866D01*
X82086509Y-119384723D01*
X82181747Y-119479961D01*
X82324604Y-119527580D01*
X82419842Y-119527580D01*
X81086509Y-119527580D02*
X81562700Y-119527580D01*
X81562700Y-118527580D01*
X80181747Y-119432342D02*
X80229366Y-119479961D01*
X80372223Y-119527580D01*
X80467461Y-119527580D01*
X80610319Y-119479961D01*
X80705557Y-119384723D01*
X80753176Y-119289485D01*
X80800795Y-119099009D01*
X80800795Y-118956152D01*
X80753176Y-118765676D01*
X80705557Y-118670438D01*
X80610319Y-118575200D01*
X80467461Y-118527580D01*
X80372223Y-118527580D01*
X80229366Y-118575200D01*
X80181747Y-118622819D01*
X79467461Y-118527580D02*
X79467461Y-119241866D01*
X79515080Y-119384723D01*
X79610319Y-119479961D01*
X79753176Y-119527580D01*
X79848414Y-119527580D01*
X78515080Y-119527580D02*
X78991271Y-119527580D01*
X78991271Y-118527580D01*
X77610319Y-119432342D02*
X77657938Y-119479961D01*
X77800795Y-119527580D01*
X77896033Y-119527580D01*
X78038890Y-119479961D01*
X78134128Y-119384723D01*
X78181747Y-119289485D01*
X78229366Y-119099009D01*
X78229366Y-118956152D01*
X78181747Y-118765676D01*
X78134128Y-118670438D01*
X78038890Y-118575200D01*
X77896033Y-118527580D01*
X77800795Y-118527580D01*
X77657938Y-118575200D01*
X77610319Y-118622819D01*
M02*
