%TF.GenerationSoftware,KiCad,Pcbnew,(5.1.6)-1*%
%TF.CreationDate,2020-09-22T22:19:12+03:00*%
%TF.ProjectId,Z80_devboard,5a38305f-6465-4766-926f-6172642e6b69,rev?*%
%TF.SameCoordinates,Original*%
%TF.FileFunction,Paste,Top*%
%TF.FilePolarity,Positive*%
%FSLAX46Y46*%
G04 Gerber Fmt 4.6, Leading zero omitted, Abs format (unit mm)*
G04 Created by KiCad (PCBNEW (5.1.6)-1) date 2020-09-22 22:19:12*
%MOMM*%
%LPD*%
G01*
G04 APERTURE LIST*
%ADD10R,1.500000X2.000000*%
%ADD11R,3.800000X2.000000*%
%ADD12R,2.000000X1.500000*%
%ADD13R,2.000000X3.800000*%
%ADD14R,1.475000X0.450000*%
%ADD15R,0.450000X1.475000*%
%ADD16R,0.600000X1.500000*%
%ADD17R,1.500000X0.600000*%
G04 APERTURE END LIST*
%TO.C,R7*%
G36*
G01*
X128915800Y-77602300D02*
X128915800Y-77947300D01*
G75*
G02*
X128768300Y-78094800I-147500J0D01*
G01*
X128473300Y-78094800D01*
G75*
G02*
X128325800Y-77947300I0J147500D01*
G01*
X128325800Y-77602300D01*
G75*
G02*
X128473300Y-77454800I147500J0D01*
G01*
X128768300Y-77454800D01*
G75*
G02*
X128915800Y-77602300I0J-147500D01*
G01*
G37*
G36*
G01*
X129885800Y-77602300D02*
X129885800Y-77947300D01*
G75*
G02*
X129738300Y-78094800I-147500J0D01*
G01*
X129443300Y-78094800D01*
G75*
G02*
X129295800Y-77947300I0J147500D01*
G01*
X129295800Y-77602300D01*
G75*
G02*
X129443300Y-77454800I147500J0D01*
G01*
X129738300Y-77454800D01*
G75*
G02*
X129885800Y-77602300I0J-147500D01*
G01*
G37*
%TD*%
%TO.C,R6*%
G36*
G01*
X130746000Y-86989700D02*
X130746000Y-86644700D01*
G75*
G02*
X130893500Y-86497200I147500J0D01*
G01*
X131188500Y-86497200D01*
G75*
G02*
X131336000Y-86644700I0J-147500D01*
G01*
X131336000Y-86989700D01*
G75*
G02*
X131188500Y-87137200I-147500J0D01*
G01*
X130893500Y-87137200D01*
G75*
G02*
X130746000Y-86989700I0J147500D01*
G01*
G37*
G36*
G01*
X129776000Y-86989700D02*
X129776000Y-86644700D01*
G75*
G02*
X129923500Y-86497200I147500J0D01*
G01*
X130218500Y-86497200D01*
G75*
G02*
X130366000Y-86644700I0J-147500D01*
G01*
X130366000Y-86989700D01*
G75*
G02*
X130218500Y-87137200I-147500J0D01*
G01*
X129923500Y-87137200D01*
G75*
G02*
X129776000Y-86989700I0J147500D01*
G01*
G37*
%TD*%
%TO.C,R5*%
G36*
G01*
X105006500Y-66058000D02*
X105006500Y-66403000D01*
G75*
G02*
X104859000Y-66550500I-147500J0D01*
G01*
X104564000Y-66550500D01*
G75*
G02*
X104416500Y-66403000I0J147500D01*
G01*
X104416500Y-66058000D01*
G75*
G02*
X104564000Y-65910500I147500J0D01*
G01*
X104859000Y-65910500D01*
G75*
G02*
X105006500Y-66058000I0J-147500D01*
G01*
G37*
G36*
G01*
X105976500Y-66058000D02*
X105976500Y-66403000D01*
G75*
G02*
X105829000Y-66550500I-147500J0D01*
G01*
X105534000Y-66550500D01*
G75*
G02*
X105386500Y-66403000I0J147500D01*
G01*
X105386500Y-66058000D01*
G75*
G02*
X105534000Y-65910500I147500J0D01*
G01*
X105829000Y-65910500D01*
G75*
G02*
X105976500Y-66058000I0J-147500D01*
G01*
G37*
%TD*%
%TO.C,R4*%
G36*
G01*
X115021000Y-103804500D02*
X115021000Y-103459500D01*
G75*
G02*
X115168500Y-103312000I147500J0D01*
G01*
X115463500Y-103312000D01*
G75*
G02*
X115611000Y-103459500I0J-147500D01*
G01*
X115611000Y-103804500D01*
G75*
G02*
X115463500Y-103952000I-147500J0D01*
G01*
X115168500Y-103952000D01*
G75*
G02*
X115021000Y-103804500I0J147500D01*
G01*
G37*
G36*
G01*
X114051000Y-103804500D02*
X114051000Y-103459500D01*
G75*
G02*
X114198500Y-103312000I147500J0D01*
G01*
X114493500Y-103312000D01*
G75*
G02*
X114641000Y-103459500I0J-147500D01*
G01*
X114641000Y-103804500D01*
G75*
G02*
X114493500Y-103952000I-147500J0D01*
G01*
X114198500Y-103952000D01*
G75*
G02*
X114051000Y-103804500I0J147500D01*
G01*
G37*
%TD*%
D10*
%TO.C,U2*%
X98820000Y-101307500D03*
X94220000Y-101307500D03*
X96520000Y-101307500D03*
D11*
X96520000Y-107607500D03*
%TD*%
D12*
%TO.C,U1*%
X82257500Y-100697000D03*
X82257500Y-105297000D03*
X82257500Y-102997000D03*
D13*
X88557500Y-102997000D03*
%TD*%
%TO.C,C16*%
G36*
G01*
X98147500Y-98407000D02*
X98147500Y-98062000D01*
G75*
G02*
X98295000Y-97914500I147500J0D01*
G01*
X98590000Y-97914500D01*
G75*
G02*
X98737500Y-98062000I0J-147500D01*
G01*
X98737500Y-98407000D01*
G75*
G02*
X98590000Y-98554500I-147500J0D01*
G01*
X98295000Y-98554500D01*
G75*
G02*
X98147500Y-98407000I0J147500D01*
G01*
G37*
G36*
G01*
X97177500Y-98407000D02*
X97177500Y-98062000D01*
G75*
G02*
X97325000Y-97914500I147500J0D01*
G01*
X97620000Y-97914500D01*
G75*
G02*
X97767500Y-98062000I0J-147500D01*
G01*
X97767500Y-98407000D01*
G75*
G02*
X97620000Y-98554500I-147500J0D01*
G01*
X97325000Y-98554500D01*
G75*
G02*
X97177500Y-98407000I0J147500D01*
G01*
G37*
%TD*%
%TO.C,C15*%
G36*
G01*
X98084000Y-99550000D02*
X98084000Y-99205000D01*
G75*
G02*
X98231500Y-99057500I147500J0D01*
G01*
X98526500Y-99057500D01*
G75*
G02*
X98674000Y-99205000I0J-147500D01*
G01*
X98674000Y-99550000D01*
G75*
G02*
X98526500Y-99697500I-147500J0D01*
G01*
X98231500Y-99697500D01*
G75*
G02*
X98084000Y-99550000I0J147500D01*
G01*
G37*
G36*
G01*
X97114000Y-99550000D02*
X97114000Y-99205000D01*
G75*
G02*
X97261500Y-99057500I147500J0D01*
G01*
X97556500Y-99057500D01*
G75*
G02*
X97704000Y-99205000I0J-147500D01*
G01*
X97704000Y-99550000D01*
G75*
G02*
X97556500Y-99697500I-147500J0D01*
G01*
X97261500Y-99697500D01*
G75*
G02*
X97114000Y-99550000I0J147500D01*
G01*
G37*
%TD*%
%TO.C,C14*%
G36*
G01*
X91716500Y-104757000D02*
X91716500Y-104412000D01*
G75*
G02*
X91864000Y-104264500I147500J0D01*
G01*
X92159000Y-104264500D01*
G75*
G02*
X92306500Y-104412000I0J-147500D01*
G01*
X92306500Y-104757000D01*
G75*
G02*
X92159000Y-104904500I-147500J0D01*
G01*
X91864000Y-104904500D01*
G75*
G02*
X91716500Y-104757000I0J147500D01*
G01*
G37*
G36*
G01*
X90746500Y-104757000D02*
X90746500Y-104412000D01*
G75*
G02*
X90894000Y-104264500I147500J0D01*
G01*
X91189000Y-104264500D01*
G75*
G02*
X91336500Y-104412000I0J-147500D01*
G01*
X91336500Y-104757000D01*
G75*
G02*
X91189000Y-104904500I-147500J0D01*
G01*
X90894000Y-104904500D01*
G75*
G02*
X90746500Y-104757000I0J147500D01*
G01*
G37*
%TD*%
%TO.C,C13*%
G36*
G01*
X91734000Y-103169500D02*
X91734000Y-102824500D01*
G75*
G02*
X91881500Y-102677000I147500J0D01*
G01*
X92176500Y-102677000D01*
G75*
G02*
X92324000Y-102824500I0J-147500D01*
G01*
X92324000Y-103169500D01*
G75*
G02*
X92176500Y-103317000I-147500J0D01*
G01*
X91881500Y-103317000D01*
G75*
G02*
X91734000Y-103169500I0J147500D01*
G01*
G37*
G36*
G01*
X90764000Y-103169500D02*
X90764000Y-102824500D01*
G75*
G02*
X90911500Y-102677000I147500J0D01*
G01*
X91206500Y-102677000D01*
G75*
G02*
X91354000Y-102824500I0J-147500D01*
G01*
X91354000Y-103169500D01*
G75*
G02*
X91206500Y-103317000I-147500J0D01*
G01*
X90911500Y-103317000D01*
G75*
G02*
X90764000Y-103169500I0J147500D01*
G01*
G37*
%TD*%
%TO.C,C12*%
G36*
G01*
X91670500Y-101709000D02*
X91670500Y-101364000D01*
G75*
G02*
X91818000Y-101216500I147500J0D01*
G01*
X92113000Y-101216500D01*
G75*
G02*
X92260500Y-101364000I0J-147500D01*
G01*
X92260500Y-101709000D01*
G75*
G02*
X92113000Y-101856500I-147500J0D01*
G01*
X91818000Y-101856500D01*
G75*
G02*
X91670500Y-101709000I0J147500D01*
G01*
G37*
G36*
G01*
X90700500Y-101709000D02*
X90700500Y-101364000D01*
G75*
G02*
X90848000Y-101216500I147500J0D01*
G01*
X91143000Y-101216500D01*
G75*
G02*
X91290500Y-101364000I0J-147500D01*
G01*
X91290500Y-101709000D01*
G75*
G02*
X91143000Y-101856500I-147500J0D01*
G01*
X90848000Y-101856500D01*
G75*
G02*
X90700500Y-101709000I0J147500D01*
G01*
G37*
%TD*%
%TO.C,C11*%
G36*
G01*
X83692500Y-109519500D02*
X83692500Y-109174500D01*
G75*
G02*
X83840000Y-109027000I147500J0D01*
G01*
X84135000Y-109027000D01*
G75*
G02*
X84282500Y-109174500I0J-147500D01*
G01*
X84282500Y-109519500D01*
G75*
G02*
X84135000Y-109667000I-147500J0D01*
G01*
X83840000Y-109667000D01*
G75*
G02*
X83692500Y-109519500I0J147500D01*
G01*
G37*
G36*
G01*
X82722500Y-109519500D02*
X82722500Y-109174500D01*
G75*
G02*
X82870000Y-109027000I147500J0D01*
G01*
X83165000Y-109027000D01*
G75*
G02*
X83312500Y-109174500I0J-147500D01*
G01*
X83312500Y-109519500D01*
G75*
G02*
X83165000Y-109667000I-147500J0D01*
G01*
X82870000Y-109667000D01*
G75*
G02*
X82722500Y-109519500I0J147500D01*
G01*
G37*
%TD*%
%TO.C,R3*%
G36*
G01*
X91140500Y-89384500D02*
X91485500Y-89384500D01*
G75*
G02*
X91633000Y-89532000I0J-147500D01*
G01*
X91633000Y-89827000D01*
G75*
G02*
X91485500Y-89974500I-147500J0D01*
G01*
X91140500Y-89974500D01*
G75*
G02*
X90993000Y-89827000I0J147500D01*
G01*
X90993000Y-89532000D01*
G75*
G02*
X91140500Y-89384500I147500J0D01*
G01*
G37*
G36*
G01*
X91140500Y-88414500D02*
X91485500Y-88414500D01*
G75*
G02*
X91633000Y-88562000I0J-147500D01*
G01*
X91633000Y-88857000D01*
G75*
G02*
X91485500Y-89004500I-147500J0D01*
G01*
X91140500Y-89004500D01*
G75*
G02*
X90993000Y-88857000I0J147500D01*
G01*
X90993000Y-88562000D01*
G75*
G02*
X91140500Y-88414500I147500J0D01*
G01*
G37*
%TD*%
%TO.C,R2*%
G36*
G01*
X113774000Y-93195500D02*
X113429000Y-93195500D01*
G75*
G02*
X113281500Y-93048000I0J147500D01*
G01*
X113281500Y-92753000D01*
G75*
G02*
X113429000Y-92605500I147500J0D01*
G01*
X113774000Y-92605500D01*
G75*
G02*
X113921500Y-92753000I0J-147500D01*
G01*
X113921500Y-93048000D01*
G75*
G02*
X113774000Y-93195500I-147500J0D01*
G01*
G37*
G36*
G01*
X113774000Y-94165500D02*
X113429000Y-94165500D01*
G75*
G02*
X113281500Y-94018000I0J147500D01*
G01*
X113281500Y-93723000D01*
G75*
G02*
X113429000Y-93575500I147500J0D01*
G01*
X113774000Y-93575500D01*
G75*
G02*
X113921500Y-93723000I0J-147500D01*
G01*
X113921500Y-94018000D01*
G75*
G02*
X113774000Y-94165500I-147500J0D01*
G01*
G37*
%TD*%
%TO.C,R1*%
G36*
G01*
X114853500Y-93195500D02*
X114508500Y-93195500D01*
G75*
G02*
X114361000Y-93048000I0J147500D01*
G01*
X114361000Y-92753000D01*
G75*
G02*
X114508500Y-92605500I147500J0D01*
G01*
X114853500Y-92605500D01*
G75*
G02*
X115001000Y-92753000I0J-147500D01*
G01*
X115001000Y-93048000D01*
G75*
G02*
X114853500Y-93195500I-147500J0D01*
G01*
G37*
G36*
G01*
X114853500Y-94165500D02*
X114508500Y-94165500D01*
G75*
G02*
X114361000Y-94018000I0J147500D01*
G01*
X114361000Y-93723000D01*
G75*
G02*
X114508500Y-93575500I147500J0D01*
G01*
X114853500Y-93575500D01*
G75*
G02*
X115001000Y-93723000I0J-147500D01*
G01*
X115001000Y-94018000D01*
G75*
G02*
X114853500Y-94165500I-147500J0D01*
G01*
G37*
%TD*%
D14*
%TO.C,IC6*%
X123935000Y-93984000D03*
X123935000Y-93334000D03*
X123935000Y-92684000D03*
X123935000Y-92034000D03*
X123935000Y-91384000D03*
X123935000Y-90734000D03*
X123935000Y-90084000D03*
X123935000Y-89434000D03*
X123935000Y-88784000D03*
X123935000Y-88134000D03*
X129811000Y-88134000D03*
X129811000Y-88784000D03*
X129811000Y-89434000D03*
X129811000Y-90084000D03*
X129811000Y-90734000D03*
X129811000Y-91384000D03*
X129811000Y-92034000D03*
X129811000Y-92684000D03*
X129811000Y-93334000D03*
X129811000Y-93984000D03*
%TD*%
D15*
%TO.C,IC5*%
X107057000Y-97646000D03*
X107707000Y-97646000D03*
X108357000Y-97646000D03*
X109007000Y-97646000D03*
X109657000Y-97646000D03*
X110307000Y-97646000D03*
X110957000Y-97646000D03*
X111607000Y-97646000D03*
X112257000Y-97646000D03*
X112907000Y-97646000D03*
X112907000Y-103522000D03*
X112257000Y-103522000D03*
X111607000Y-103522000D03*
X110957000Y-103522000D03*
X110307000Y-103522000D03*
X109657000Y-103522000D03*
X109007000Y-103522000D03*
X108357000Y-103522000D03*
X107707000Y-103522000D03*
X107057000Y-103522000D03*
%TD*%
%TO.C,IC4*%
X112907000Y-72407000D03*
X112257000Y-72407000D03*
X111607000Y-72407000D03*
X110957000Y-72407000D03*
X110307000Y-72407000D03*
X109657000Y-72407000D03*
X109007000Y-72407000D03*
X108357000Y-72407000D03*
X107707000Y-72407000D03*
X107057000Y-72407000D03*
X107057000Y-66531000D03*
X107707000Y-66531000D03*
X108357000Y-66531000D03*
X109007000Y-66531000D03*
X109657000Y-66531000D03*
X110307000Y-66531000D03*
X110957000Y-66531000D03*
X111607000Y-66531000D03*
X112257000Y-66531000D03*
X112907000Y-66531000D03*
%TD*%
D14*
%TO.C,IC3*%
X124062000Y-85284500D03*
X124062000Y-84634500D03*
X124062000Y-83984500D03*
X124062000Y-83334500D03*
X124062000Y-82684500D03*
X124062000Y-82034500D03*
X124062000Y-81384500D03*
X124062000Y-80734500D03*
X124062000Y-80084500D03*
X124062000Y-79434500D03*
X129938000Y-79434500D03*
X129938000Y-80084500D03*
X129938000Y-80734500D03*
X129938000Y-81384500D03*
X129938000Y-82034500D03*
X129938000Y-82684500D03*
X129938000Y-83334500D03*
X129938000Y-83984500D03*
X129938000Y-84634500D03*
X129938000Y-85284500D03*
%TD*%
%TO.C,IC2*%
X97108500Y-81530000D03*
X97108500Y-82180000D03*
X97108500Y-82830000D03*
X97108500Y-83480000D03*
X97108500Y-84130000D03*
X97108500Y-84780000D03*
X97108500Y-85430000D03*
X97108500Y-86080000D03*
X97108500Y-86730000D03*
X97108500Y-87380000D03*
X91232500Y-87380000D03*
X91232500Y-86730000D03*
X91232500Y-86080000D03*
X91232500Y-85430000D03*
X91232500Y-84780000D03*
X91232500Y-84130000D03*
X91232500Y-83480000D03*
X91232500Y-82830000D03*
X91232500Y-82180000D03*
X91232500Y-81530000D03*
%TD*%
D16*
%TO.C,IC1*%
X106459000Y-79313000D03*
X107259000Y-79313000D03*
X108059000Y-79313000D03*
X108859000Y-79313000D03*
X109659000Y-79313000D03*
X110459000Y-79313000D03*
X111259000Y-79313000D03*
X112059000Y-79313000D03*
X112859000Y-79313000D03*
X113659000Y-79313000D03*
X114459000Y-79313000D03*
D17*
X116209000Y-81063000D03*
X116209000Y-81863000D03*
X116209000Y-82663000D03*
X116209000Y-83463000D03*
X116209000Y-84263000D03*
X116209000Y-85063000D03*
X116209000Y-85863000D03*
X116209000Y-86663000D03*
X116209000Y-87463000D03*
X116209000Y-88263000D03*
X116209000Y-89063000D03*
D16*
X114459000Y-90813000D03*
X113659000Y-90813000D03*
X112859000Y-90813000D03*
X112059000Y-90813000D03*
X111259000Y-90813000D03*
X110459000Y-90813000D03*
X109659000Y-90813000D03*
X108859000Y-90813000D03*
X108059000Y-90813000D03*
X107259000Y-90813000D03*
X106459000Y-90813000D03*
D17*
X104709000Y-89063000D03*
X104709000Y-88263000D03*
X104709000Y-87463000D03*
X104709000Y-86663000D03*
X104709000Y-85863000D03*
X104709000Y-85063000D03*
X104709000Y-84263000D03*
X104709000Y-83463000D03*
X104709000Y-82663000D03*
X104709000Y-81863000D03*
X104709000Y-81063000D03*
%TD*%
%TO.C,C10*%
G36*
G01*
X132564500Y-84818000D02*
X132564500Y-84473000D01*
G75*
G02*
X132712000Y-84325500I147500J0D01*
G01*
X133007000Y-84325500D01*
G75*
G02*
X133154500Y-84473000I0J-147500D01*
G01*
X133154500Y-84818000D01*
G75*
G02*
X133007000Y-84965500I-147500J0D01*
G01*
X132712000Y-84965500D01*
G75*
G02*
X132564500Y-84818000I0J147500D01*
G01*
G37*
G36*
G01*
X131594500Y-84818000D02*
X131594500Y-84473000D01*
G75*
G02*
X131742000Y-84325500I147500J0D01*
G01*
X132037000Y-84325500D01*
G75*
G02*
X132184500Y-84473000I0J-147500D01*
G01*
X132184500Y-84818000D01*
G75*
G02*
X132037000Y-84965500I-147500J0D01*
G01*
X131742000Y-84965500D01*
G75*
G02*
X131594500Y-84818000I0J147500D01*
G01*
G37*
%TD*%
%TO.C,C9*%
G36*
G01*
X107523500Y-106512000D02*
X107868500Y-106512000D01*
G75*
G02*
X108016000Y-106659500I0J-147500D01*
G01*
X108016000Y-106954500D01*
G75*
G02*
X107868500Y-107102000I-147500J0D01*
G01*
X107523500Y-107102000D01*
G75*
G02*
X107376000Y-106954500I0J147500D01*
G01*
X107376000Y-106659500D01*
G75*
G02*
X107523500Y-106512000I147500J0D01*
G01*
G37*
G36*
G01*
X107523500Y-105542000D02*
X107868500Y-105542000D01*
G75*
G02*
X108016000Y-105689500I0J-147500D01*
G01*
X108016000Y-105984500D01*
G75*
G02*
X107868500Y-106132000I-147500J0D01*
G01*
X107523500Y-106132000D01*
G75*
G02*
X107376000Y-105984500I0J147500D01*
G01*
X107376000Y-105689500D01*
G75*
G02*
X107523500Y-105542000I147500J0D01*
G01*
G37*
%TD*%
%TO.C,C8*%
G36*
G01*
X132356500Y-93454000D02*
X132356500Y-93109000D01*
G75*
G02*
X132504000Y-92961500I147500J0D01*
G01*
X132799000Y-92961500D01*
G75*
G02*
X132946500Y-93109000I0J-147500D01*
G01*
X132946500Y-93454000D01*
G75*
G02*
X132799000Y-93601500I-147500J0D01*
G01*
X132504000Y-93601500D01*
G75*
G02*
X132356500Y-93454000I0J147500D01*
G01*
G37*
G36*
G01*
X131386500Y-93454000D02*
X131386500Y-93109000D01*
G75*
G02*
X131534000Y-92961500I147500J0D01*
G01*
X131829000Y-92961500D01*
G75*
G02*
X131976500Y-93109000I0J-147500D01*
G01*
X131976500Y-93454000D01*
G75*
G02*
X131829000Y-93601500I-147500J0D01*
G01*
X131534000Y-93601500D01*
G75*
G02*
X131386500Y-93454000I0J147500D01*
G01*
G37*
%TD*%
%TO.C,C7*%
G36*
G01*
X112440500Y-63858500D02*
X112095500Y-63858500D01*
G75*
G02*
X111948000Y-63711000I0J147500D01*
G01*
X111948000Y-63416000D01*
G75*
G02*
X112095500Y-63268500I147500J0D01*
G01*
X112440500Y-63268500D01*
G75*
G02*
X112588000Y-63416000I0J-147500D01*
G01*
X112588000Y-63711000D01*
G75*
G02*
X112440500Y-63858500I-147500J0D01*
G01*
G37*
G36*
G01*
X112440500Y-64828500D02*
X112095500Y-64828500D01*
G75*
G02*
X111948000Y-64681000I0J147500D01*
G01*
X111948000Y-64386000D01*
G75*
G02*
X112095500Y-64238500I147500J0D01*
G01*
X112440500Y-64238500D01*
G75*
G02*
X112588000Y-64386000I0J-147500D01*
G01*
X112588000Y-64681000D01*
G75*
G02*
X112440500Y-64828500I-147500J0D01*
G01*
G37*
%TD*%
%TO.C,C6*%
G36*
G01*
X88560000Y-82060000D02*
X88560000Y-82405000D01*
G75*
G02*
X88412500Y-82552500I-147500J0D01*
G01*
X88117500Y-82552500D01*
G75*
G02*
X87970000Y-82405000I0J147500D01*
G01*
X87970000Y-82060000D01*
G75*
G02*
X88117500Y-81912500I147500J0D01*
G01*
X88412500Y-81912500D01*
G75*
G02*
X88560000Y-82060000I0J-147500D01*
G01*
G37*
G36*
G01*
X89530000Y-82060000D02*
X89530000Y-82405000D01*
G75*
G02*
X89382500Y-82552500I-147500J0D01*
G01*
X89087500Y-82552500D01*
G75*
G02*
X88940000Y-82405000I0J147500D01*
G01*
X88940000Y-82060000D01*
G75*
G02*
X89087500Y-81912500I147500J0D01*
G01*
X89382500Y-81912500D01*
G75*
G02*
X89530000Y-82060000I0J-147500D01*
G01*
G37*
%TD*%
%TO.C,C5*%
G36*
G01*
X107868500Y-94973500D02*
X107523500Y-94973500D01*
G75*
G02*
X107376000Y-94826000I0J147500D01*
G01*
X107376000Y-94531000D01*
G75*
G02*
X107523500Y-94383500I147500J0D01*
G01*
X107868500Y-94383500D01*
G75*
G02*
X108016000Y-94531000I0J-147500D01*
G01*
X108016000Y-94826000D01*
G75*
G02*
X107868500Y-94973500I-147500J0D01*
G01*
G37*
G36*
G01*
X107868500Y-95943500D02*
X107523500Y-95943500D01*
G75*
G02*
X107376000Y-95796000I0J147500D01*
G01*
X107376000Y-95501000D01*
G75*
G02*
X107523500Y-95353500I147500J0D01*
G01*
X107868500Y-95353500D01*
G75*
G02*
X108016000Y-95501000I0J-147500D01*
G01*
X108016000Y-95796000D01*
G75*
G02*
X107868500Y-95943500I-147500J0D01*
G01*
G37*
%TD*%
%TO.C,C4*%
G36*
G01*
X112032000Y-74970000D02*
X112377000Y-74970000D01*
G75*
G02*
X112524500Y-75117500I0J-147500D01*
G01*
X112524500Y-75412500D01*
G75*
G02*
X112377000Y-75560000I-147500J0D01*
G01*
X112032000Y-75560000D01*
G75*
G02*
X111884500Y-75412500I0J147500D01*
G01*
X111884500Y-75117500D01*
G75*
G02*
X112032000Y-74970000I147500J0D01*
G01*
G37*
G36*
G01*
X112032000Y-74000000D02*
X112377000Y-74000000D01*
G75*
G02*
X112524500Y-74147500I0J-147500D01*
G01*
X112524500Y-74442500D01*
G75*
G02*
X112377000Y-74590000I-147500J0D01*
G01*
X112032000Y-74590000D01*
G75*
G02*
X111884500Y-74442500I0J147500D01*
G01*
X111884500Y-74147500D01*
G75*
G02*
X112032000Y-74000000I147500J0D01*
G01*
G37*
%TD*%
%TO.C,C3*%
G36*
G01*
X121499000Y-84409500D02*
X121499000Y-84754500D01*
G75*
G02*
X121351500Y-84902000I-147500J0D01*
G01*
X121056500Y-84902000D01*
G75*
G02*
X120909000Y-84754500I0J147500D01*
G01*
X120909000Y-84409500D01*
G75*
G02*
X121056500Y-84262000I147500J0D01*
G01*
X121351500Y-84262000D01*
G75*
G02*
X121499000Y-84409500I0J-147500D01*
G01*
G37*
G36*
G01*
X122469000Y-84409500D02*
X122469000Y-84754500D01*
G75*
G02*
X122321500Y-84902000I-147500J0D01*
G01*
X122026500Y-84902000D01*
G75*
G02*
X121879000Y-84754500I0J147500D01*
G01*
X121879000Y-84409500D01*
G75*
G02*
X122026500Y-84262000I147500J0D01*
G01*
X122321500Y-84262000D01*
G75*
G02*
X122469000Y-84409500I0J-147500D01*
G01*
G37*
%TD*%
%TO.C,C2*%
G36*
G01*
X99544500Y-82405000D02*
X99544500Y-82060000D01*
G75*
G02*
X99692000Y-81912500I147500J0D01*
G01*
X99987000Y-81912500D01*
G75*
G02*
X100134500Y-82060000I0J-147500D01*
G01*
X100134500Y-82405000D01*
G75*
G02*
X99987000Y-82552500I-147500J0D01*
G01*
X99692000Y-82552500D01*
G75*
G02*
X99544500Y-82405000I0J147500D01*
G01*
G37*
G36*
G01*
X98574500Y-82405000D02*
X98574500Y-82060000D01*
G75*
G02*
X98722000Y-81912500I147500J0D01*
G01*
X99017000Y-81912500D01*
G75*
G02*
X99164500Y-82060000I0J-147500D01*
G01*
X99164500Y-82405000D01*
G75*
G02*
X99017000Y-82552500I-147500J0D01*
G01*
X98722000Y-82552500D01*
G75*
G02*
X98574500Y-82405000I0J147500D01*
G01*
G37*
%TD*%
%TO.C,C1*%
G36*
G01*
X121435500Y-93172500D02*
X121435500Y-93517500D01*
G75*
G02*
X121288000Y-93665000I-147500J0D01*
G01*
X120993000Y-93665000D01*
G75*
G02*
X120845500Y-93517500I0J147500D01*
G01*
X120845500Y-93172500D01*
G75*
G02*
X120993000Y-93025000I147500J0D01*
G01*
X121288000Y-93025000D01*
G75*
G02*
X121435500Y-93172500I0J-147500D01*
G01*
G37*
G36*
G01*
X122405500Y-93172500D02*
X122405500Y-93517500D01*
G75*
G02*
X122258000Y-93665000I-147500J0D01*
G01*
X121963000Y-93665000D01*
G75*
G02*
X121815500Y-93517500I0J147500D01*
G01*
X121815500Y-93172500D01*
G75*
G02*
X121963000Y-93025000I147500J0D01*
G01*
X122258000Y-93025000D01*
G75*
G02*
X122405500Y-93172500I0J-147500D01*
G01*
G37*
%TD*%
M02*
