%TF.GenerationSoftware,KiCad,Pcbnew,(5.1.6)-1*%
%TF.CreationDate,2020-09-22T22:19:13+03:00*%
%TF.ProjectId,Z80_devboard,5a38305f-6465-4766-926f-6172642e6b69,rev?*%
%TF.SameCoordinates,Original*%
%TF.FileFunction,Soldermask,Bot*%
%TF.FilePolarity,Negative*%
%FSLAX46Y46*%
G04 Gerber Fmt 4.6, Leading zero omitted, Abs format (unit mm)*
G04 Created by KiCad (PCBNEW (5.1.6)-1) date 2020-09-22 22:19:13*
%MOMM*%
%LPD*%
G01*
G04 APERTURE LIST*
%ADD10O,1.800000X1.800000*%
%ADD11R,1.800000X1.800000*%
G04 APERTURE END LIST*
D10*
%TO.C,J10*%
X128460500Y-115811300D03*
X125920500Y-115811300D03*
X123380500Y-115811300D03*
X120840500Y-115811300D03*
X118300500Y-115811300D03*
X115760500Y-115811300D03*
X113220500Y-115811300D03*
X110680500Y-115811300D03*
X108140500Y-115811300D03*
X105600500Y-115811300D03*
D11*
X103060500Y-115811300D03*
%TD*%
D10*
%TO.C,J9*%
X130822700Y-54889400D03*
X128282700Y-54889400D03*
X125742700Y-54889400D03*
X123202700Y-54889400D03*
X120662700Y-54889400D03*
X118122700Y-54889400D03*
X115582700Y-54889400D03*
X113042700Y-54889400D03*
X110502700Y-54889400D03*
X107962700Y-54889400D03*
X105422700Y-54889400D03*
X102882700Y-54889400D03*
X100342700Y-54889400D03*
X97802700Y-54889400D03*
X95262700Y-54889400D03*
D11*
X92722700Y-54889400D03*
%TD*%
D10*
%TO.C,J8*%
X78308200Y-77127100D03*
X78308200Y-79667100D03*
X78308200Y-82207100D03*
X78308200Y-84747100D03*
X78308200Y-87287100D03*
X78308200Y-89827100D03*
X78308200Y-92367100D03*
D11*
X78308200Y-94907100D03*
%TD*%
D10*
%TO.C,J7*%
X132080000Y-103759000D03*
X132080000Y-101219000D03*
D11*
X132080000Y-98679000D03*
%TD*%
D10*
%TO.C,J6*%
X97663000Y-111950500D03*
X95123000Y-111950500D03*
D11*
X92583000Y-111950500D03*
%TD*%
D10*
%TO.C,J5*%
X94043500Y-94424500D03*
X91503500Y-94424500D03*
D11*
X88963500Y-94424500D03*
%TD*%
D10*
%TO.C,J4*%
X82359500Y-112014000D03*
D11*
X84899500Y-112014000D03*
%TD*%
D10*
%TO.C,J3*%
X103060500Y-112014000D03*
X105600500Y-112014000D03*
X108140500Y-112014000D03*
X110680500Y-112014000D03*
X113220500Y-112014000D03*
X115760500Y-112014000D03*
X118300500Y-112014000D03*
X120840500Y-112014000D03*
X123380500Y-112014000D03*
X125920500Y-112014000D03*
D11*
X128460500Y-112014000D03*
%TD*%
D10*
%TO.C,J2*%
X92710000Y-58610500D03*
X95250000Y-58610500D03*
X97790000Y-58610500D03*
X100330000Y-58610500D03*
X102870000Y-58610500D03*
X105410000Y-58610500D03*
X107950000Y-58610500D03*
X110490000Y-58610500D03*
X113030000Y-58610500D03*
X115570000Y-58610500D03*
X118110000Y-58610500D03*
X120650000Y-58610500D03*
X123190000Y-58610500D03*
X125730000Y-58610500D03*
X128270000Y-58610500D03*
D11*
X130810000Y-58610500D03*
%TD*%
D10*
%TO.C,J1*%
X82169000Y-94932500D03*
X82169000Y-92392500D03*
X82169000Y-89852500D03*
X82169000Y-87312500D03*
X82169000Y-84772500D03*
X82169000Y-82232500D03*
X82169000Y-79692500D03*
D11*
X82169000Y-77152500D03*
%TD*%
M02*
