%TF.GenerationSoftware,KiCad,Pcbnew,(5.1.6)-1*%
%TF.CreationDate,2020-09-22T22:21:25+03:00*%
%TF.ProjectId,ZX Keyboard_buttons,5a58204b-6579-4626-9f61-72645f627574,rev?*%
%TF.SameCoordinates,Original*%
%TF.FileFunction,Legend,Top*%
%TF.FilePolarity,Positive*%
%FSLAX46Y46*%
G04 Gerber Fmt 4.6, Leading zero omitted, Abs format (unit mm)*
G04 Created by KiCad (PCBNEW (5.1.6)-1) date 2020-09-22 22:21:25*
%MOMM*%
%LPD*%
G01*
G04 APERTURE LIST*
%ADD10C,0.150000*%
%ADD11C,0.200000*%
%ADD12C,0.100000*%
%ADD13C,0.120000*%
%ADD14C,0.254000*%
G04 APERTURE END LIST*
D10*
X61158380Y-97305619D02*
X60158380Y-97305619D01*
X61158380Y-96734190D02*
X60586952Y-97162761D01*
X60158380Y-96734190D02*
X60729809Y-97305619D01*
X61253619Y-96543714D02*
X61253619Y-95781809D01*
X60872666Y-95591333D02*
X60872666Y-95115142D01*
X61158380Y-95686571D02*
X60158380Y-95353238D01*
X61158380Y-95019904D01*
X60586952Y-94543714D02*
X60539333Y-94638952D01*
X60491714Y-94686571D01*
X60396476Y-94734190D01*
X60348857Y-94734190D01*
X60253619Y-94686571D01*
X60206000Y-94638952D01*
X60158380Y-94543714D01*
X60158380Y-94353238D01*
X60206000Y-94258000D01*
X60253619Y-94210380D01*
X60348857Y-94162761D01*
X60396476Y-94162761D01*
X60491714Y-94210380D01*
X60539333Y-94258000D01*
X60586952Y-94353238D01*
X60586952Y-94543714D01*
X60634571Y-94638952D01*
X60682190Y-94686571D01*
X60777428Y-94734190D01*
X60967904Y-94734190D01*
X61063142Y-94686571D01*
X61110761Y-94638952D01*
X61158380Y-94543714D01*
X61158380Y-94353238D01*
X61110761Y-94258000D01*
X61063142Y-94210380D01*
X60967904Y-94162761D01*
X60777428Y-94162761D01*
X60682190Y-94210380D01*
X60634571Y-94258000D01*
X60586952Y-94353238D01*
X63952380Y-97305619D02*
X62952380Y-97305619D01*
X63952380Y-96734190D02*
X63380952Y-97162761D01*
X62952380Y-96734190D02*
X63523809Y-97305619D01*
X64047619Y-96543714D02*
X64047619Y-95781809D01*
X63666666Y-95591333D02*
X63666666Y-95115142D01*
X63952380Y-95686571D02*
X62952380Y-95353238D01*
X63952380Y-95019904D01*
X63952380Y-94638952D02*
X63952380Y-94448476D01*
X63904761Y-94353238D01*
X63857142Y-94305619D01*
X63714285Y-94210380D01*
X63523809Y-94162761D01*
X63142857Y-94162761D01*
X63047619Y-94210380D01*
X63000000Y-94258000D01*
X62952380Y-94353238D01*
X62952380Y-94543714D01*
X63000000Y-94638952D01*
X63047619Y-94686571D01*
X63142857Y-94734190D01*
X63380952Y-94734190D01*
X63476190Y-94686571D01*
X63523809Y-94638952D01*
X63571428Y-94543714D01*
X63571428Y-94353238D01*
X63523809Y-94258000D01*
X63476190Y-94210380D01*
X63380952Y-94162761D01*
X66238380Y-97273809D02*
X65238380Y-97273809D01*
X66238380Y-96702380D02*
X65666952Y-97130952D01*
X65238380Y-96702380D02*
X65809809Y-97273809D01*
X66333619Y-96511904D02*
X66333619Y-95750000D01*
X65952666Y-95559523D02*
X65952666Y-95083333D01*
X66238380Y-95654761D02*
X65238380Y-95321428D01*
X66238380Y-94988095D01*
X66238380Y-94130952D02*
X66238380Y-94702380D01*
X66238380Y-94416666D02*
X65238380Y-94416666D01*
X65381238Y-94511904D01*
X65476476Y-94607142D01*
X65524095Y-94702380D01*
X65238380Y-93511904D02*
X65238380Y-93416666D01*
X65286000Y-93321428D01*
X65333619Y-93273809D01*
X65428857Y-93226190D01*
X65619333Y-93178571D01*
X65857428Y-93178571D01*
X66047904Y-93226190D01*
X66143142Y-93273809D01*
X66190761Y-93321428D01*
X66238380Y-93416666D01*
X66238380Y-93511904D01*
X66190761Y-93607142D01*
X66143142Y-93654761D01*
X66047904Y-93702380D01*
X65857428Y-93750000D01*
X65619333Y-93750000D01*
X65428857Y-93702380D01*
X65333619Y-93654761D01*
X65286000Y-93607142D01*
X65238380Y-93511904D01*
X68778380Y-97273809D02*
X67778380Y-97273809D01*
X68778380Y-96702380D02*
X68206952Y-97130952D01*
X67778380Y-96702380D02*
X68349809Y-97273809D01*
X68873619Y-96511904D02*
X68873619Y-95750000D01*
X68492666Y-95559523D02*
X68492666Y-95083333D01*
X68778380Y-95654761D02*
X67778380Y-95321428D01*
X68778380Y-94988095D01*
X68778380Y-94130952D02*
X68778380Y-94702380D01*
X68778380Y-94416666D02*
X67778380Y-94416666D01*
X67921238Y-94511904D01*
X68016476Y-94607142D01*
X68064095Y-94702380D01*
X68778380Y-93178571D02*
X68778380Y-93750000D01*
X68778380Y-93464285D02*
X67778380Y-93464285D01*
X67921238Y-93559523D01*
X68016476Y-93654761D01*
X68064095Y-93750000D01*
X71318380Y-97273809D02*
X70318380Y-97273809D01*
X71318380Y-96702380D02*
X70746952Y-97130952D01*
X70318380Y-96702380D02*
X70889809Y-97273809D01*
X71413619Y-96511904D02*
X71413619Y-95750000D01*
X71032666Y-95559523D02*
X71032666Y-95083333D01*
X71318380Y-95654761D02*
X70318380Y-95321428D01*
X71318380Y-94988095D01*
X71318380Y-94130952D02*
X71318380Y-94702380D01*
X71318380Y-94416666D02*
X70318380Y-94416666D01*
X70461238Y-94511904D01*
X70556476Y-94607142D01*
X70604095Y-94702380D01*
X70413619Y-93750000D02*
X70366000Y-93702380D01*
X70318380Y-93607142D01*
X70318380Y-93369047D01*
X70366000Y-93273809D01*
X70413619Y-93226190D01*
X70508857Y-93178571D01*
X70604095Y-93178571D01*
X70746952Y-93226190D01*
X71318380Y-93797619D01*
X71318380Y-93178571D01*
X74112380Y-97273809D02*
X73112380Y-97273809D01*
X74112380Y-96702380D02*
X73540952Y-97130952D01*
X73112380Y-96702380D02*
X73683809Y-97273809D01*
X74207619Y-96511904D02*
X74207619Y-95750000D01*
X73826666Y-95559523D02*
X73826666Y-95083333D01*
X74112380Y-95654761D02*
X73112380Y-95321428D01*
X74112380Y-94988095D01*
X74112380Y-94130952D02*
X74112380Y-94702380D01*
X74112380Y-94416666D02*
X73112380Y-94416666D01*
X73255238Y-94511904D01*
X73350476Y-94607142D01*
X73398095Y-94702380D01*
X73112380Y-93797619D02*
X73112380Y-93178571D01*
X73493333Y-93511904D01*
X73493333Y-93369047D01*
X73540952Y-93273809D01*
X73588571Y-93226190D01*
X73683809Y-93178571D01*
X73921904Y-93178571D01*
X74017142Y-93226190D01*
X74064761Y-93273809D01*
X74112380Y-93369047D01*
X74112380Y-93654761D01*
X74064761Y-93750000D01*
X74017142Y-93797619D01*
X76398380Y-97273809D02*
X75398380Y-97273809D01*
X76398380Y-96702380D02*
X75826952Y-97130952D01*
X75398380Y-96702380D02*
X75969809Y-97273809D01*
X76493619Y-96511904D02*
X76493619Y-95750000D01*
X76112666Y-95559523D02*
X76112666Y-95083333D01*
X76398380Y-95654761D02*
X75398380Y-95321428D01*
X76398380Y-94988095D01*
X76398380Y-94130952D02*
X76398380Y-94702380D01*
X76398380Y-94416666D02*
X75398380Y-94416666D01*
X75541238Y-94511904D01*
X75636476Y-94607142D01*
X75684095Y-94702380D01*
X75731714Y-93273809D02*
X76398380Y-93273809D01*
X75350761Y-93511904D02*
X76065047Y-93750000D01*
X76065047Y-93130952D01*
X79192380Y-97273809D02*
X78192380Y-97273809D01*
X79192380Y-96702380D02*
X78620952Y-97130952D01*
X78192380Y-96702380D02*
X78763809Y-97273809D01*
X79287619Y-96511904D02*
X79287619Y-95750000D01*
X78906666Y-95559523D02*
X78906666Y-95083333D01*
X79192380Y-95654761D02*
X78192380Y-95321428D01*
X79192380Y-94988095D01*
X79192380Y-94130952D02*
X79192380Y-94702380D01*
X79192380Y-94416666D02*
X78192380Y-94416666D01*
X78335238Y-94511904D01*
X78430476Y-94607142D01*
X78478095Y-94702380D01*
X78192380Y-93226190D02*
X78192380Y-93702380D01*
X78668571Y-93750000D01*
X78620952Y-93702380D01*
X78573333Y-93607142D01*
X78573333Y-93369047D01*
X78620952Y-93273809D01*
X78668571Y-93226190D01*
X78763809Y-93178571D01*
X79001904Y-93178571D01*
X79097142Y-93226190D01*
X79144761Y-93273809D01*
X79192380Y-93369047D01*
X79192380Y-93607142D01*
X79144761Y-93702380D01*
X79097142Y-93750000D01*
X81478380Y-97377047D02*
X80478380Y-97377047D01*
X81478380Y-96805619D02*
X80906952Y-97234190D01*
X80478380Y-96805619D02*
X81049809Y-97377047D01*
X81573619Y-96615142D02*
X81573619Y-95853238D01*
X81478380Y-95615142D02*
X80478380Y-95615142D01*
X80478380Y-95377047D01*
X80526000Y-95234190D01*
X80621238Y-95138952D01*
X80716476Y-95091333D01*
X80906952Y-95043714D01*
X81049809Y-95043714D01*
X81240285Y-95091333D01*
X81335523Y-95138952D01*
X81430761Y-95234190D01*
X81478380Y-95377047D01*
X81478380Y-95615142D01*
X80811714Y-94186571D02*
X81478380Y-94186571D01*
X80430761Y-94424666D02*
X81145047Y-94662761D01*
X81145047Y-94043714D01*
X84018380Y-97377047D02*
X83018380Y-97377047D01*
X84018380Y-96805619D02*
X83446952Y-97234190D01*
X83018380Y-96805619D02*
X83589809Y-97377047D01*
X84113619Y-96615142D02*
X84113619Y-95853238D01*
X84018380Y-95615142D02*
X83018380Y-95615142D01*
X83018380Y-95377047D01*
X83066000Y-95234190D01*
X83161238Y-95138952D01*
X83256476Y-95091333D01*
X83446952Y-95043714D01*
X83589809Y-95043714D01*
X83780285Y-95091333D01*
X83875523Y-95138952D01*
X83970761Y-95234190D01*
X84018380Y-95377047D01*
X84018380Y-95615142D01*
X83018380Y-94710380D02*
X83018380Y-94091333D01*
X83399333Y-94424666D01*
X83399333Y-94281809D01*
X83446952Y-94186571D01*
X83494571Y-94138952D01*
X83589809Y-94091333D01*
X83827904Y-94091333D01*
X83923142Y-94138952D01*
X83970761Y-94186571D01*
X84018380Y-94281809D01*
X84018380Y-94567523D01*
X83970761Y-94662761D01*
X83923142Y-94710380D01*
X86812380Y-97377047D02*
X85812380Y-97377047D01*
X86812380Y-96805619D02*
X86240952Y-97234190D01*
X85812380Y-96805619D02*
X86383809Y-97377047D01*
X86907619Y-96615142D02*
X86907619Y-95853238D01*
X86812380Y-95615142D02*
X85812380Y-95615142D01*
X85812380Y-95377047D01*
X85860000Y-95234190D01*
X85955238Y-95138952D01*
X86050476Y-95091333D01*
X86240952Y-95043714D01*
X86383809Y-95043714D01*
X86574285Y-95091333D01*
X86669523Y-95138952D01*
X86764761Y-95234190D01*
X86812380Y-95377047D01*
X86812380Y-95615142D01*
X85907619Y-94662761D02*
X85860000Y-94615142D01*
X85812380Y-94519904D01*
X85812380Y-94281809D01*
X85860000Y-94186571D01*
X85907619Y-94138952D01*
X86002857Y-94091333D01*
X86098095Y-94091333D01*
X86240952Y-94138952D01*
X86812380Y-94710380D01*
X86812380Y-94091333D01*
X89098380Y-97377047D02*
X88098380Y-97377047D01*
X89098380Y-96805619D02*
X88526952Y-97234190D01*
X88098380Y-96805619D02*
X88669809Y-97377047D01*
X89193619Y-96615142D02*
X89193619Y-95853238D01*
X89098380Y-95615142D02*
X88098380Y-95615142D01*
X88098380Y-95377047D01*
X88146000Y-95234190D01*
X88241238Y-95138952D01*
X88336476Y-95091333D01*
X88526952Y-95043714D01*
X88669809Y-95043714D01*
X88860285Y-95091333D01*
X88955523Y-95138952D01*
X89050761Y-95234190D01*
X89098380Y-95377047D01*
X89098380Y-95615142D01*
X89098380Y-94091333D02*
X89098380Y-94662761D01*
X89098380Y-94377047D02*
X88098380Y-94377047D01*
X88241238Y-94472285D01*
X88336476Y-94567523D01*
X88384095Y-94662761D01*
X91638380Y-97377047D02*
X90638380Y-97377047D01*
X91638380Y-96805619D02*
X91066952Y-97234190D01*
X90638380Y-96805619D02*
X91209809Y-97377047D01*
X91733619Y-96615142D02*
X91733619Y-95853238D01*
X91638380Y-95615142D02*
X90638380Y-95615142D01*
X90638380Y-95377047D01*
X90686000Y-95234190D01*
X90781238Y-95138952D01*
X90876476Y-95091333D01*
X91066952Y-95043714D01*
X91209809Y-95043714D01*
X91400285Y-95091333D01*
X91495523Y-95138952D01*
X91590761Y-95234190D01*
X91638380Y-95377047D01*
X91638380Y-95615142D01*
X90638380Y-94424666D02*
X90638380Y-94329428D01*
X90686000Y-94234190D01*
X90733619Y-94186571D01*
X90828857Y-94138952D01*
X91019333Y-94091333D01*
X91257428Y-94091333D01*
X91447904Y-94138952D01*
X91543142Y-94186571D01*
X91590761Y-94234190D01*
X91638380Y-94329428D01*
X91638380Y-94424666D01*
X91590761Y-94519904D01*
X91543142Y-94567523D01*
X91447904Y-94615142D01*
X91257428Y-94662761D01*
X91019333Y-94662761D01*
X90828857Y-94615142D01*
X90733619Y-94567523D01*
X90686000Y-94519904D01*
X90638380Y-94424666D01*
X72906285Y-137866380D02*
X72572952Y-137390190D01*
X72334857Y-137866380D02*
X72334857Y-136866380D01*
X72715809Y-136866380D01*
X72811047Y-136914000D01*
X72858666Y-136961619D01*
X72906285Y-137056857D01*
X72906285Y-137199714D01*
X72858666Y-137294952D01*
X72811047Y-137342571D01*
X72715809Y-137390190D01*
X72334857Y-137390190D01*
X73715809Y-137818761D02*
X73620571Y-137866380D01*
X73430095Y-137866380D01*
X73334857Y-137818761D01*
X73287238Y-137723523D01*
X73287238Y-137342571D01*
X73334857Y-137247333D01*
X73430095Y-137199714D01*
X73620571Y-137199714D01*
X73715809Y-137247333D01*
X73763428Y-137342571D01*
X73763428Y-137437809D01*
X73287238Y-137533047D01*
X74096761Y-137199714D02*
X74334857Y-137866380D01*
X74572952Y-137199714D01*
X74953904Y-137771142D02*
X75001523Y-137818761D01*
X74953904Y-137866380D01*
X74906285Y-137818761D01*
X74953904Y-137771142D01*
X74953904Y-137866380D01*
X76715809Y-137866380D02*
X76144380Y-137866380D01*
X76430095Y-137866380D02*
X76430095Y-136866380D01*
X76334857Y-137009238D01*
X76239619Y-137104476D01*
X76144380Y-137152095D01*
X77144380Y-137771142D02*
X77192000Y-137818761D01*
X77144380Y-137866380D01*
X77096761Y-137818761D01*
X77144380Y-137771142D01*
X77144380Y-137866380D01*
X77811047Y-136866380D02*
X77906285Y-136866380D01*
X78001523Y-136914000D01*
X78049142Y-136961619D01*
X78096761Y-137056857D01*
X78144380Y-137247333D01*
X78144380Y-137485428D01*
X78096761Y-137675904D01*
X78049142Y-137771142D01*
X78001523Y-137818761D01*
X77906285Y-137866380D01*
X77811047Y-137866380D01*
X77715809Y-137818761D01*
X77668190Y-137771142D01*
X77620571Y-137675904D01*
X77572952Y-137485428D01*
X77572952Y-137247333D01*
X77620571Y-137056857D01*
X77668190Y-136961619D01*
X77715809Y-136914000D01*
X77811047Y-136866380D01*
X78763428Y-136866380D02*
X78858666Y-136866380D01*
X78953904Y-136914000D01*
X79001523Y-136961619D01*
X79049142Y-137056857D01*
X79096761Y-137247333D01*
X79096761Y-137485428D01*
X79049142Y-137675904D01*
X79001523Y-137771142D01*
X78953904Y-137818761D01*
X78858666Y-137866380D01*
X78763428Y-137866380D01*
X78668190Y-137818761D01*
X78620571Y-137771142D01*
X78572952Y-137675904D01*
X78525333Y-137485428D01*
X78525333Y-137247333D01*
X78572952Y-137056857D01*
X78620571Y-136961619D01*
X78668190Y-136914000D01*
X78763428Y-136866380D01*
X72342952Y-134834380D02*
X73009619Y-134834380D01*
X72342952Y-135834380D01*
X73009619Y-135834380D01*
X73295333Y-134834380D02*
X73962000Y-135834380D01*
X73962000Y-134834380D02*
X73295333Y-135834380D01*
X75104857Y-135834380D02*
X75104857Y-134834380D01*
X75676285Y-135834380D02*
X75247714Y-135262952D01*
X75676285Y-134834380D02*
X75104857Y-135405809D01*
X76485809Y-135786761D02*
X76390571Y-135834380D01*
X76200095Y-135834380D01*
X76104857Y-135786761D01*
X76057238Y-135691523D01*
X76057238Y-135310571D01*
X76104857Y-135215333D01*
X76200095Y-135167714D01*
X76390571Y-135167714D01*
X76485809Y-135215333D01*
X76533428Y-135310571D01*
X76533428Y-135405809D01*
X76057238Y-135501047D01*
X76866761Y-135167714D02*
X77104857Y-135834380D01*
X77342952Y-135167714D02*
X77104857Y-135834380D01*
X77009619Y-136072476D01*
X76962000Y-136120095D01*
X76866761Y-136167714D01*
X77723904Y-135834380D02*
X77723904Y-134834380D01*
X77723904Y-135215333D02*
X77819142Y-135167714D01*
X78009619Y-135167714D01*
X78104857Y-135215333D01*
X78152476Y-135262952D01*
X78200095Y-135358190D01*
X78200095Y-135643904D01*
X78152476Y-135739142D01*
X78104857Y-135786761D01*
X78009619Y-135834380D01*
X77819142Y-135834380D01*
X77723904Y-135786761D01*
X78771523Y-135834380D02*
X78676285Y-135786761D01*
X78628666Y-135739142D01*
X78581047Y-135643904D01*
X78581047Y-135358190D01*
X78628666Y-135262952D01*
X78676285Y-135215333D01*
X78771523Y-135167714D01*
X78914380Y-135167714D01*
X79009619Y-135215333D01*
X79057238Y-135262952D01*
X79104857Y-135358190D01*
X79104857Y-135643904D01*
X79057238Y-135739142D01*
X79009619Y-135786761D01*
X78914380Y-135834380D01*
X78771523Y-135834380D01*
X79962000Y-135834380D02*
X79962000Y-135310571D01*
X79914380Y-135215333D01*
X79819142Y-135167714D01*
X79628666Y-135167714D01*
X79533428Y-135215333D01*
X79962000Y-135786761D02*
X79866761Y-135834380D01*
X79628666Y-135834380D01*
X79533428Y-135786761D01*
X79485809Y-135691523D01*
X79485809Y-135596285D01*
X79533428Y-135501047D01*
X79628666Y-135453428D01*
X79866761Y-135453428D01*
X79962000Y-135405809D01*
X80438190Y-135834380D02*
X80438190Y-135167714D01*
X80438190Y-135358190D02*
X80485809Y-135262952D01*
X80533428Y-135215333D01*
X80628666Y-135167714D01*
X80723904Y-135167714D01*
X81485809Y-135834380D02*
X81485809Y-134834380D01*
X81485809Y-135786761D02*
X81390571Y-135834380D01*
X81200095Y-135834380D01*
X81104857Y-135786761D01*
X81057238Y-135739142D01*
X81009619Y-135643904D01*
X81009619Y-135358190D01*
X81057238Y-135262952D01*
X81104857Y-135215333D01*
X81200095Y-135167714D01*
X81390571Y-135167714D01*
X81485809Y-135215333D01*
D11*
%TO.C,S4*%
X61700000Y-105100000D02*
X61700000Y-105100000D01*
X61700000Y-104900000D02*
X61700000Y-104900000D01*
D12*
X69250000Y-106250000D02*
X69250000Y-108250000D01*
X63250000Y-106250000D02*
X63250000Y-108250000D01*
X63750000Y-110250000D02*
X68750000Y-110250000D01*
X63750000Y-104250000D02*
X68750000Y-104250000D01*
D11*
X61700000Y-104900000D02*
G75*
G03*
X61700000Y-105100000I0J-100000D01*
G01*
X61700000Y-105100000D02*
G75*
G03*
X61700000Y-104900000I0J100000D01*
G01*
%TO.C,S5*%
X70700000Y-105100000D02*
X70700000Y-105100000D01*
X70700000Y-104900000D02*
X70700000Y-104900000D01*
D12*
X78250000Y-106250000D02*
X78250000Y-108250000D01*
X72250000Y-106250000D02*
X72250000Y-108250000D01*
X72750000Y-110250000D02*
X77750000Y-110250000D01*
X72750000Y-104250000D02*
X77750000Y-104250000D01*
D11*
X70700000Y-104900000D02*
G75*
G03*
X70700000Y-105100000I0J-100000D01*
G01*
X70700000Y-105100000D02*
G75*
G03*
X70700000Y-104900000I0J100000D01*
G01*
D13*
%TO.C,J1*%
X92516000Y-100390000D02*
X92516000Y-97730000D01*
X61976000Y-100390000D02*
X92516000Y-100390000D01*
X61976000Y-97730000D02*
X92516000Y-97730000D01*
X61976000Y-100390000D02*
X61976000Y-97730000D01*
X60706000Y-100390000D02*
X59376000Y-100390000D01*
X59376000Y-100390000D02*
X59376000Y-99060000D01*
D11*
%TO.C,S40*%
X115700000Y-126100000D02*
X115700000Y-126100000D01*
X115700000Y-125900000D02*
X115700000Y-125900000D01*
D12*
X123250000Y-127250000D02*
X123250000Y-129250000D01*
X117250000Y-127250000D02*
X117250000Y-129250000D01*
X117750000Y-131250000D02*
X122750000Y-131250000D01*
X117750000Y-125250000D02*
X122750000Y-125250000D01*
D11*
X115700000Y-125900000D02*
G75*
G03*
X115700000Y-126100000I0J-100000D01*
G01*
X115700000Y-126100000D02*
G75*
G03*
X115700000Y-125900000I0J100000D01*
G01*
%TO.C,S39*%
X106700000Y-126100000D02*
X106700000Y-126100000D01*
X106700000Y-125900000D02*
X106700000Y-125900000D01*
D12*
X114250000Y-127250000D02*
X114250000Y-129250000D01*
X108250000Y-127250000D02*
X108250000Y-129250000D01*
X108750000Y-131250000D02*
X113750000Y-131250000D01*
X108750000Y-125250000D02*
X113750000Y-125250000D01*
D11*
X106700000Y-125900000D02*
G75*
G03*
X106700000Y-126100000I0J-100000D01*
G01*
X106700000Y-126100000D02*
G75*
G03*
X106700000Y-125900000I0J100000D01*
G01*
%TO.C,S38*%
X97700000Y-126100000D02*
X97700000Y-126100000D01*
X97700000Y-125900000D02*
X97700000Y-125900000D01*
D12*
X105250000Y-127250000D02*
X105250000Y-129250000D01*
X99250000Y-127250000D02*
X99250000Y-129250000D01*
X99750000Y-131250000D02*
X104750000Y-131250000D01*
X99750000Y-125250000D02*
X104750000Y-125250000D01*
D11*
X97700000Y-125900000D02*
G75*
G03*
X97700000Y-126100000I0J-100000D01*
G01*
X97700000Y-126100000D02*
G75*
G03*
X97700000Y-125900000I0J100000D01*
G01*
%TO.C,S37*%
X88700000Y-126100000D02*
X88700000Y-126100000D01*
X88700000Y-125900000D02*
X88700000Y-125900000D01*
D12*
X96250000Y-127250000D02*
X96250000Y-129250000D01*
X90250000Y-127250000D02*
X90250000Y-129250000D01*
X90750000Y-131250000D02*
X95750000Y-131250000D01*
X90750000Y-125250000D02*
X95750000Y-125250000D01*
D11*
X88700000Y-125900000D02*
G75*
G03*
X88700000Y-126100000I0J-100000D01*
G01*
X88700000Y-126100000D02*
G75*
G03*
X88700000Y-125900000I0J100000D01*
G01*
%TO.C,S36*%
X79700000Y-126100000D02*
X79700000Y-126100000D01*
X79700000Y-125900000D02*
X79700000Y-125900000D01*
D12*
X87250000Y-127250000D02*
X87250000Y-129250000D01*
X81250000Y-127250000D02*
X81250000Y-129250000D01*
X81750000Y-131250000D02*
X86750000Y-131250000D01*
X81750000Y-125250000D02*
X86750000Y-125250000D01*
D11*
X79700000Y-125900000D02*
G75*
G03*
X79700000Y-126100000I0J-100000D01*
G01*
X79700000Y-126100000D02*
G75*
G03*
X79700000Y-125900000I0J100000D01*
G01*
%TO.C,S35*%
X70700000Y-126100000D02*
X70700000Y-126100000D01*
X70700000Y-125900000D02*
X70700000Y-125900000D01*
D12*
X78250000Y-127250000D02*
X78250000Y-129250000D01*
X72250000Y-127250000D02*
X72250000Y-129250000D01*
X72750000Y-131250000D02*
X77750000Y-131250000D01*
X72750000Y-125250000D02*
X77750000Y-125250000D01*
D11*
X70700000Y-125900000D02*
G75*
G03*
X70700000Y-126100000I0J-100000D01*
G01*
X70700000Y-126100000D02*
G75*
G03*
X70700000Y-125900000I0J100000D01*
G01*
%TO.C,S34*%
X61700000Y-126100000D02*
X61700000Y-126100000D01*
X61700000Y-125900000D02*
X61700000Y-125900000D01*
D12*
X69250000Y-127250000D02*
X69250000Y-129250000D01*
X63250000Y-127250000D02*
X63250000Y-129250000D01*
X63750000Y-131250000D02*
X68750000Y-131250000D01*
X63750000Y-125250000D02*
X68750000Y-125250000D01*
D11*
X61700000Y-125900000D02*
G75*
G03*
X61700000Y-126100000I0J-100000D01*
G01*
X61700000Y-126100000D02*
G75*
G03*
X61700000Y-125900000I0J100000D01*
G01*
%TO.C,S33*%
X52700000Y-126100000D02*
X52700000Y-126100000D01*
X52700000Y-125900000D02*
X52700000Y-125900000D01*
D12*
X60250000Y-127250000D02*
X60250000Y-129250000D01*
X54250000Y-127250000D02*
X54250000Y-129250000D01*
X54750000Y-131250000D02*
X59750000Y-131250000D01*
X54750000Y-125250000D02*
X59750000Y-125250000D01*
D11*
X52700000Y-125900000D02*
G75*
G03*
X52700000Y-126100000I0J-100000D01*
G01*
X52700000Y-126100000D02*
G75*
G03*
X52700000Y-125900000I0J100000D01*
G01*
%TO.C,S32*%
X43700000Y-126100000D02*
X43700000Y-126100000D01*
X43700000Y-125900000D02*
X43700000Y-125900000D01*
D12*
X51250000Y-127250000D02*
X51250000Y-129250000D01*
X45250000Y-127250000D02*
X45250000Y-129250000D01*
X45750000Y-131250000D02*
X50750000Y-131250000D01*
X45750000Y-125250000D02*
X50750000Y-125250000D01*
D11*
X43700000Y-125900000D02*
G75*
G03*
X43700000Y-126100000I0J-100000D01*
G01*
X43700000Y-126100000D02*
G75*
G03*
X43700000Y-125900000I0J100000D01*
G01*
%TO.C,S31*%
X34700000Y-126100000D02*
X34700000Y-126100000D01*
X34700000Y-125900000D02*
X34700000Y-125900000D01*
D12*
X42250000Y-127250000D02*
X42250000Y-129250000D01*
X36250000Y-127250000D02*
X36250000Y-129250000D01*
X36750000Y-131250000D02*
X41750000Y-131250000D01*
X36750000Y-125250000D02*
X41750000Y-125250000D01*
D11*
X34700000Y-125900000D02*
G75*
G03*
X34700000Y-126100000I0J-100000D01*
G01*
X34700000Y-126100000D02*
G75*
G03*
X34700000Y-125900000I0J100000D01*
G01*
%TO.C,S30*%
X115700000Y-119100000D02*
X115700000Y-119100000D01*
X115700000Y-118900000D02*
X115700000Y-118900000D01*
D12*
X123250000Y-120250000D02*
X123250000Y-122250000D01*
X117250000Y-120250000D02*
X117250000Y-122250000D01*
X117750000Y-124250000D02*
X122750000Y-124250000D01*
X117750000Y-118250000D02*
X122750000Y-118250000D01*
D11*
X115700000Y-118900000D02*
G75*
G03*
X115700000Y-119100000I0J-100000D01*
G01*
X115700000Y-119100000D02*
G75*
G03*
X115700000Y-118900000I0J100000D01*
G01*
%TO.C,S29*%
X106700000Y-119100000D02*
X106700000Y-119100000D01*
X106700000Y-118900000D02*
X106700000Y-118900000D01*
D12*
X114250000Y-120250000D02*
X114250000Y-122250000D01*
X108250000Y-120250000D02*
X108250000Y-122250000D01*
X108750000Y-124250000D02*
X113750000Y-124250000D01*
X108750000Y-118250000D02*
X113750000Y-118250000D01*
D11*
X106700000Y-118900000D02*
G75*
G03*
X106700000Y-119100000I0J-100000D01*
G01*
X106700000Y-119100000D02*
G75*
G03*
X106700000Y-118900000I0J100000D01*
G01*
%TO.C,S28*%
X97700000Y-119100000D02*
X97700000Y-119100000D01*
X97700000Y-118900000D02*
X97700000Y-118900000D01*
D12*
X105250000Y-120250000D02*
X105250000Y-122250000D01*
X99250000Y-120250000D02*
X99250000Y-122250000D01*
X99750000Y-124250000D02*
X104750000Y-124250000D01*
X99750000Y-118250000D02*
X104750000Y-118250000D01*
D11*
X97700000Y-118900000D02*
G75*
G03*
X97700000Y-119100000I0J-100000D01*
G01*
X97700000Y-119100000D02*
G75*
G03*
X97700000Y-118900000I0J100000D01*
G01*
%TO.C,S27*%
X88700000Y-119100000D02*
X88700000Y-119100000D01*
X88700000Y-118900000D02*
X88700000Y-118900000D01*
D12*
X96250000Y-120250000D02*
X96250000Y-122250000D01*
X90250000Y-120250000D02*
X90250000Y-122250000D01*
X90750000Y-124250000D02*
X95750000Y-124250000D01*
X90750000Y-118250000D02*
X95750000Y-118250000D01*
D11*
X88700000Y-118900000D02*
G75*
G03*
X88700000Y-119100000I0J-100000D01*
G01*
X88700000Y-119100000D02*
G75*
G03*
X88700000Y-118900000I0J100000D01*
G01*
%TO.C,S26*%
X79700000Y-119100000D02*
X79700000Y-119100000D01*
X79700000Y-118900000D02*
X79700000Y-118900000D01*
D12*
X87250000Y-120250000D02*
X87250000Y-122250000D01*
X81250000Y-120250000D02*
X81250000Y-122250000D01*
X81750000Y-124250000D02*
X86750000Y-124250000D01*
X81750000Y-118250000D02*
X86750000Y-118250000D01*
D11*
X79700000Y-118900000D02*
G75*
G03*
X79700000Y-119100000I0J-100000D01*
G01*
X79700000Y-119100000D02*
G75*
G03*
X79700000Y-118900000I0J100000D01*
G01*
%TO.C,S25*%
X70700000Y-119100000D02*
X70700000Y-119100000D01*
X70700000Y-118900000D02*
X70700000Y-118900000D01*
D12*
X78250000Y-120250000D02*
X78250000Y-122250000D01*
X72250000Y-120250000D02*
X72250000Y-122250000D01*
X72750000Y-124250000D02*
X77750000Y-124250000D01*
X72750000Y-118250000D02*
X77750000Y-118250000D01*
D11*
X70700000Y-118900000D02*
G75*
G03*
X70700000Y-119100000I0J-100000D01*
G01*
X70700000Y-119100000D02*
G75*
G03*
X70700000Y-118900000I0J100000D01*
G01*
%TO.C,S24*%
X61700000Y-119100000D02*
X61700000Y-119100000D01*
X61700000Y-118900000D02*
X61700000Y-118900000D01*
D12*
X69250000Y-120250000D02*
X69250000Y-122250000D01*
X63250000Y-120250000D02*
X63250000Y-122250000D01*
X63750000Y-124250000D02*
X68750000Y-124250000D01*
X63750000Y-118250000D02*
X68750000Y-118250000D01*
D11*
X61700000Y-118900000D02*
G75*
G03*
X61700000Y-119100000I0J-100000D01*
G01*
X61700000Y-119100000D02*
G75*
G03*
X61700000Y-118900000I0J100000D01*
G01*
%TO.C,S23*%
X52700000Y-119100000D02*
X52700000Y-119100000D01*
X52700000Y-118900000D02*
X52700000Y-118900000D01*
D12*
X60250000Y-120250000D02*
X60250000Y-122250000D01*
X54250000Y-120250000D02*
X54250000Y-122250000D01*
X54750000Y-124250000D02*
X59750000Y-124250000D01*
X54750000Y-118250000D02*
X59750000Y-118250000D01*
D11*
X52700000Y-118900000D02*
G75*
G03*
X52700000Y-119100000I0J-100000D01*
G01*
X52700000Y-119100000D02*
G75*
G03*
X52700000Y-118900000I0J100000D01*
G01*
%TO.C,S22*%
X43700000Y-119100000D02*
X43700000Y-119100000D01*
X43700000Y-118900000D02*
X43700000Y-118900000D01*
D12*
X51250000Y-120250000D02*
X51250000Y-122250000D01*
X45250000Y-120250000D02*
X45250000Y-122250000D01*
X45750000Y-124250000D02*
X50750000Y-124250000D01*
X45750000Y-118250000D02*
X50750000Y-118250000D01*
D11*
X43700000Y-118900000D02*
G75*
G03*
X43700000Y-119100000I0J-100000D01*
G01*
X43700000Y-119100000D02*
G75*
G03*
X43700000Y-118900000I0J100000D01*
G01*
%TO.C,S21*%
X34700000Y-119100000D02*
X34700000Y-119100000D01*
X34700000Y-118900000D02*
X34700000Y-118900000D01*
D12*
X42250000Y-120250000D02*
X42250000Y-122250000D01*
X36250000Y-120250000D02*
X36250000Y-122250000D01*
X36750000Y-124250000D02*
X41750000Y-124250000D01*
X36750000Y-118250000D02*
X41750000Y-118250000D01*
D11*
X34700000Y-118900000D02*
G75*
G03*
X34700000Y-119100000I0J-100000D01*
G01*
X34700000Y-119100000D02*
G75*
G03*
X34700000Y-118900000I0J100000D01*
G01*
%TO.C,S20*%
X115700000Y-112100000D02*
X115700000Y-112100000D01*
X115700000Y-111900000D02*
X115700000Y-111900000D01*
D12*
X123250000Y-113250000D02*
X123250000Y-115250000D01*
X117250000Y-113250000D02*
X117250000Y-115250000D01*
X117750000Y-117250000D02*
X122750000Y-117250000D01*
X117750000Y-111250000D02*
X122750000Y-111250000D01*
D11*
X115700000Y-111900000D02*
G75*
G03*
X115700000Y-112100000I0J-100000D01*
G01*
X115700000Y-112100000D02*
G75*
G03*
X115700000Y-111900000I0J100000D01*
G01*
%TO.C,S19*%
X106700000Y-112100000D02*
X106700000Y-112100000D01*
X106700000Y-111900000D02*
X106700000Y-111900000D01*
D12*
X114250000Y-113250000D02*
X114250000Y-115250000D01*
X108250000Y-113250000D02*
X108250000Y-115250000D01*
X108750000Y-117250000D02*
X113750000Y-117250000D01*
X108750000Y-111250000D02*
X113750000Y-111250000D01*
D11*
X106700000Y-111900000D02*
G75*
G03*
X106700000Y-112100000I0J-100000D01*
G01*
X106700000Y-112100000D02*
G75*
G03*
X106700000Y-111900000I0J100000D01*
G01*
%TO.C,S18*%
X97700000Y-112100000D02*
X97700000Y-112100000D01*
X97700000Y-111900000D02*
X97700000Y-111900000D01*
D12*
X105250000Y-113250000D02*
X105250000Y-115250000D01*
X99250000Y-113250000D02*
X99250000Y-115250000D01*
X99750000Y-117250000D02*
X104750000Y-117250000D01*
X99750000Y-111250000D02*
X104750000Y-111250000D01*
D11*
X97700000Y-111900000D02*
G75*
G03*
X97700000Y-112100000I0J-100000D01*
G01*
X97700000Y-112100000D02*
G75*
G03*
X97700000Y-111900000I0J100000D01*
G01*
%TO.C,S17*%
X88700000Y-112100000D02*
X88700000Y-112100000D01*
X88700000Y-111900000D02*
X88700000Y-111900000D01*
D12*
X96250000Y-113250000D02*
X96250000Y-115250000D01*
X90250000Y-113250000D02*
X90250000Y-115250000D01*
X90750000Y-117250000D02*
X95750000Y-117250000D01*
X90750000Y-111250000D02*
X95750000Y-111250000D01*
D11*
X88700000Y-111900000D02*
G75*
G03*
X88700000Y-112100000I0J-100000D01*
G01*
X88700000Y-112100000D02*
G75*
G03*
X88700000Y-111900000I0J100000D01*
G01*
%TO.C,S16*%
X79700000Y-112100000D02*
X79700000Y-112100000D01*
X79700000Y-111900000D02*
X79700000Y-111900000D01*
D12*
X87250000Y-113250000D02*
X87250000Y-115250000D01*
X81250000Y-113250000D02*
X81250000Y-115250000D01*
X81750000Y-117250000D02*
X86750000Y-117250000D01*
X81750000Y-111250000D02*
X86750000Y-111250000D01*
D11*
X79700000Y-111900000D02*
G75*
G03*
X79700000Y-112100000I0J-100000D01*
G01*
X79700000Y-112100000D02*
G75*
G03*
X79700000Y-111900000I0J100000D01*
G01*
%TO.C,S15*%
X70700000Y-112100000D02*
X70700000Y-112100000D01*
X70700000Y-111900000D02*
X70700000Y-111900000D01*
D12*
X78250000Y-113250000D02*
X78250000Y-115250000D01*
X72250000Y-113250000D02*
X72250000Y-115250000D01*
X72750000Y-117250000D02*
X77750000Y-117250000D01*
X72750000Y-111250000D02*
X77750000Y-111250000D01*
D11*
X70700000Y-111900000D02*
G75*
G03*
X70700000Y-112100000I0J-100000D01*
G01*
X70700000Y-112100000D02*
G75*
G03*
X70700000Y-111900000I0J100000D01*
G01*
%TO.C,S14*%
X61700000Y-112100000D02*
X61700000Y-112100000D01*
X61700000Y-111900000D02*
X61700000Y-111900000D01*
D12*
X69250000Y-113250000D02*
X69250000Y-115250000D01*
X63250000Y-113250000D02*
X63250000Y-115250000D01*
X63750000Y-117250000D02*
X68750000Y-117250000D01*
X63750000Y-111250000D02*
X68750000Y-111250000D01*
D11*
X61700000Y-111900000D02*
G75*
G03*
X61700000Y-112100000I0J-100000D01*
G01*
X61700000Y-112100000D02*
G75*
G03*
X61700000Y-111900000I0J100000D01*
G01*
%TO.C,S13*%
X52700000Y-112100000D02*
X52700000Y-112100000D01*
X52700000Y-111900000D02*
X52700000Y-111900000D01*
D12*
X60250000Y-113250000D02*
X60250000Y-115250000D01*
X54250000Y-113250000D02*
X54250000Y-115250000D01*
X54750000Y-117250000D02*
X59750000Y-117250000D01*
X54750000Y-111250000D02*
X59750000Y-111250000D01*
D11*
X52700000Y-111900000D02*
G75*
G03*
X52700000Y-112100000I0J-100000D01*
G01*
X52700000Y-112100000D02*
G75*
G03*
X52700000Y-111900000I0J100000D01*
G01*
%TO.C,S12*%
X43700000Y-112100000D02*
X43700000Y-112100000D01*
X43700000Y-111900000D02*
X43700000Y-111900000D01*
D12*
X51250000Y-113250000D02*
X51250000Y-115250000D01*
X45250000Y-113250000D02*
X45250000Y-115250000D01*
X45750000Y-117250000D02*
X50750000Y-117250000D01*
X45750000Y-111250000D02*
X50750000Y-111250000D01*
D11*
X43700000Y-111900000D02*
G75*
G03*
X43700000Y-112100000I0J-100000D01*
G01*
X43700000Y-112100000D02*
G75*
G03*
X43700000Y-111900000I0J100000D01*
G01*
%TO.C,S11*%
X34700000Y-112100000D02*
X34700000Y-112100000D01*
X34700000Y-111900000D02*
X34700000Y-111900000D01*
D12*
X42250000Y-113250000D02*
X42250000Y-115250000D01*
X36250000Y-113250000D02*
X36250000Y-115250000D01*
X36750000Y-117250000D02*
X41750000Y-117250000D01*
X36750000Y-111250000D02*
X41750000Y-111250000D01*
D11*
X34700000Y-111900000D02*
G75*
G03*
X34700000Y-112100000I0J-100000D01*
G01*
X34700000Y-112100000D02*
G75*
G03*
X34700000Y-111900000I0J100000D01*
G01*
%TO.C,S10*%
X115700000Y-105100000D02*
X115700000Y-105100000D01*
X115700000Y-104900000D02*
X115700000Y-104900000D01*
D12*
X123250000Y-106250000D02*
X123250000Y-108250000D01*
X117250000Y-106250000D02*
X117250000Y-108250000D01*
X117750000Y-110250000D02*
X122750000Y-110250000D01*
X117750000Y-104250000D02*
X122750000Y-104250000D01*
D11*
X115700000Y-104900000D02*
G75*
G03*
X115700000Y-105100000I0J-100000D01*
G01*
X115700000Y-105100000D02*
G75*
G03*
X115700000Y-104900000I0J100000D01*
G01*
%TO.C,S9*%
X106700000Y-105100000D02*
X106700000Y-105100000D01*
X106700000Y-104900000D02*
X106700000Y-104900000D01*
D12*
X114250000Y-106250000D02*
X114250000Y-108250000D01*
X108250000Y-106250000D02*
X108250000Y-108250000D01*
X108750000Y-110250000D02*
X113750000Y-110250000D01*
X108750000Y-104250000D02*
X113750000Y-104250000D01*
D11*
X106700000Y-104900000D02*
G75*
G03*
X106700000Y-105100000I0J-100000D01*
G01*
X106700000Y-105100000D02*
G75*
G03*
X106700000Y-104900000I0J100000D01*
G01*
%TO.C,S8*%
X97700000Y-105100000D02*
X97700000Y-105100000D01*
X97700000Y-104900000D02*
X97700000Y-104900000D01*
D12*
X105250000Y-106250000D02*
X105250000Y-108250000D01*
X99250000Y-106250000D02*
X99250000Y-108250000D01*
X99750000Y-110250000D02*
X104750000Y-110250000D01*
X99750000Y-104250000D02*
X104750000Y-104250000D01*
D11*
X97700000Y-104900000D02*
G75*
G03*
X97700000Y-105100000I0J-100000D01*
G01*
X97700000Y-105100000D02*
G75*
G03*
X97700000Y-104900000I0J100000D01*
G01*
%TO.C,S7*%
X88700000Y-105100000D02*
X88700000Y-105100000D01*
X88700000Y-104900000D02*
X88700000Y-104900000D01*
D12*
X96250000Y-106250000D02*
X96250000Y-108250000D01*
X90250000Y-106250000D02*
X90250000Y-108250000D01*
X90750000Y-110250000D02*
X95750000Y-110250000D01*
X90750000Y-104250000D02*
X95750000Y-104250000D01*
D11*
X88700000Y-104900000D02*
G75*
G03*
X88700000Y-105100000I0J-100000D01*
G01*
X88700000Y-105100000D02*
G75*
G03*
X88700000Y-104900000I0J100000D01*
G01*
%TO.C,S6*%
X79700000Y-105100000D02*
X79700000Y-105100000D01*
X79700000Y-104900000D02*
X79700000Y-104900000D01*
D12*
X87250000Y-106250000D02*
X87250000Y-108250000D01*
X81250000Y-106250000D02*
X81250000Y-108250000D01*
X81750000Y-110250000D02*
X86750000Y-110250000D01*
X81750000Y-104250000D02*
X86750000Y-104250000D01*
D11*
X79700000Y-104900000D02*
G75*
G03*
X79700000Y-105100000I0J-100000D01*
G01*
X79700000Y-105100000D02*
G75*
G03*
X79700000Y-104900000I0J100000D01*
G01*
%TO.C,S3*%
X52700000Y-105100000D02*
X52700000Y-105100000D01*
X52700000Y-104900000D02*
X52700000Y-104900000D01*
D12*
X60250000Y-106250000D02*
X60250000Y-108250000D01*
X54250000Y-106250000D02*
X54250000Y-108250000D01*
X54750000Y-110250000D02*
X59750000Y-110250000D01*
X54750000Y-104250000D02*
X59750000Y-104250000D01*
D11*
X52700000Y-104900000D02*
G75*
G03*
X52700000Y-105100000I0J-100000D01*
G01*
X52700000Y-105100000D02*
G75*
G03*
X52700000Y-104900000I0J100000D01*
G01*
%TO.C,S2*%
X43700000Y-105100000D02*
X43700000Y-105100000D01*
X43700000Y-104900000D02*
X43700000Y-104900000D01*
D12*
X51250000Y-106250000D02*
X51250000Y-108250000D01*
X45250000Y-106250000D02*
X45250000Y-108250000D01*
X45750000Y-110250000D02*
X50750000Y-110250000D01*
X45750000Y-104250000D02*
X50750000Y-104250000D01*
D11*
X43700000Y-104900000D02*
G75*
G03*
X43700000Y-105100000I0J-100000D01*
G01*
X43700000Y-105100000D02*
G75*
G03*
X43700000Y-104900000I0J100000D01*
G01*
%TO.C,S1*%
X34700000Y-105100000D02*
X34700000Y-105100000D01*
X34700000Y-104900000D02*
X34700000Y-104900000D01*
D12*
X42250000Y-106250000D02*
X42250000Y-108250000D01*
X36250000Y-106250000D02*
X36250000Y-108250000D01*
X36750000Y-110250000D02*
X41750000Y-110250000D01*
X36750000Y-104250000D02*
X41750000Y-104250000D01*
D11*
X34700000Y-104900000D02*
G75*
G03*
X34700000Y-105100000I0J-100000D01*
G01*
X34700000Y-105100000D02*
G75*
G03*
X34700000Y-104900000I0J100000D01*
G01*
%TO.C,S4*%
D14*
X64967380Y-107764047D02*
X65148809Y-107824523D01*
X65451190Y-107824523D01*
X65572142Y-107764047D01*
X65632619Y-107703571D01*
X65693095Y-107582619D01*
X65693095Y-107461666D01*
X65632619Y-107340714D01*
X65572142Y-107280238D01*
X65451190Y-107219761D01*
X65209285Y-107159285D01*
X65088333Y-107098809D01*
X65027857Y-107038333D01*
X64967380Y-106917380D01*
X64967380Y-106796428D01*
X65027857Y-106675476D01*
X65088333Y-106615000D01*
X65209285Y-106554523D01*
X65511666Y-106554523D01*
X65693095Y-106615000D01*
X66781666Y-106977857D02*
X66781666Y-107824523D01*
X66479285Y-106494047D02*
X66176904Y-107401190D01*
X66963095Y-107401190D01*
%TO.C,S5*%
X73967380Y-107764047D02*
X74148809Y-107824523D01*
X74451190Y-107824523D01*
X74572142Y-107764047D01*
X74632619Y-107703571D01*
X74693095Y-107582619D01*
X74693095Y-107461666D01*
X74632619Y-107340714D01*
X74572142Y-107280238D01*
X74451190Y-107219761D01*
X74209285Y-107159285D01*
X74088333Y-107098809D01*
X74027857Y-107038333D01*
X73967380Y-106917380D01*
X73967380Y-106796428D01*
X74027857Y-106675476D01*
X74088333Y-106615000D01*
X74209285Y-106554523D01*
X74511666Y-106554523D01*
X74693095Y-106615000D01*
X75842142Y-106554523D02*
X75237380Y-106554523D01*
X75176904Y-107159285D01*
X75237380Y-107098809D01*
X75358333Y-107038333D01*
X75660714Y-107038333D01*
X75781666Y-107098809D01*
X75842142Y-107159285D01*
X75902619Y-107280238D01*
X75902619Y-107582619D01*
X75842142Y-107703571D01*
X75781666Y-107764047D01*
X75660714Y-107824523D01*
X75358333Y-107824523D01*
X75237380Y-107764047D01*
X75176904Y-107703571D01*
%TO.C,J1*%
D10*
X57828380Y-99393333D02*
X58542666Y-99393333D01*
X58685523Y-99440952D01*
X58780761Y-99536190D01*
X58828380Y-99679047D01*
X58828380Y-99774285D01*
X58828380Y-98393333D02*
X58828380Y-98964761D01*
X58828380Y-98679047D02*
X57828380Y-98679047D01*
X57971238Y-98774285D01*
X58066476Y-98869523D01*
X58114095Y-98964761D01*
%TO.C,S40*%
D14*
X118362619Y-128764047D02*
X118544047Y-128824523D01*
X118846428Y-128824523D01*
X118967380Y-128764047D01*
X119027857Y-128703571D01*
X119088333Y-128582619D01*
X119088333Y-128461666D01*
X119027857Y-128340714D01*
X118967380Y-128280238D01*
X118846428Y-128219761D01*
X118604523Y-128159285D01*
X118483571Y-128098809D01*
X118423095Y-128038333D01*
X118362619Y-127917380D01*
X118362619Y-127796428D01*
X118423095Y-127675476D01*
X118483571Y-127615000D01*
X118604523Y-127554523D01*
X118906904Y-127554523D01*
X119088333Y-127615000D01*
X120176904Y-127977857D02*
X120176904Y-128824523D01*
X119874523Y-127494047D02*
X119572142Y-128401190D01*
X120358333Y-128401190D01*
X121084047Y-127554523D02*
X121205000Y-127554523D01*
X121325952Y-127615000D01*
X121386428Y-127675476D01*
X121446904Y-127796428D01*
X121507380Y-128038333D01*
X121507380Y-128340714D01*
X121446904Y-128582619D01*
X121386428Y-128703571D01*
X121325952Y-128764047D01*
X121205000Y-128824523D01*
X121084047Y-128824523D01*
X120963095Y-128764047D01*
X120902619Y-128703571D01*
X120842142Y-128582619D01*
X120781666Y-128340714D01*
X120781666Y-128038333D01*
X120842142Y-127796428D01*
X120902619Y-127675476D01*
X120963095Y-127615000D01*
X121084047Y-127554523D01*
%TO.C,S39*%
X109362619Y-128764047D02*
X109544047Y-128824523D01*
X109846428Y-128824523D01*
X109967380Y-128764047D01*
X110027857Y-128703571D01*
X110088333Y-128582619D01*
X110088333Y-128461666D01*
X110027857Y-128340714D01*
X109967380Y-128280238D01*
X109846428Y-128219761D01*
X109604523Y-128159285D01*
X109483571Y-128098809D01*
X109423095Y-128038333D01*
X109362619Y-127917380D01*
X109362619Y-127796428D01*
X109423095Y-127675476D01*
X109483571Y-127615000D01*
X109604523Y-127554523D01*
X109906904Y-127554523D01*
X110088333Y-127615000D01*
X110511666Y-127554523D02*
X111297857Y-127554523D01*
X110874523Y-128038333D01*
X111055952Y-128038333D01*
X111176904Y-128098809D01*
X111237380Y-128159285D01*
X111297857Y-128280238D01*
X111297857Y-128582619D01*
X111237380Y-128703571D01*
X111176904Y-128764047D01*
X111055952Y-128824523D01*
X110693095Y-128824523D01*
X110572142Y-128764047D01*
X110511666Y-128703571D01*
X111902619Y-128824523D02*
X112144523Y-128824523D01*
X112265476Y-128764047D01*
X112325952Y-128703571D01*
X112446904Y-128522142D01*
X112507380Y-128280238D01*
X112507380Y-127796428D01*
X112446904Y-127675476D01*
X112386428Y-127615000D01*
X112265476Y-127554523D01*
X112023571Y-127554523D01*
X111902619Y-127615000D01*
X111842142Y-127675476D01*
X111781666Y-127796428D01*
X111781666Y-128098809D01*
X111842142Y-128219761D01*
X111902619Y-128280238D01*
X112023571Y-128340714D01*
X112265476Y-128340714D01*
X112386428Y-128280238D01*
X112446904Y-128219761D01*
X112507380Y-128098809D01*
%TO.C,S38*%
X100362619Y-128764047D02*
X100544047Y-128824523D01*
X100846428Y-128824523D01*
X100967380Y-128764047D01*
X101027857Y-128703571D01*
X101088333Y-128582619D01*
X101088333Y-128461666D01*
X101027857Y-128340714D01*
X100967380Y-128280238D01*
X100846428Y-128219761D01*
X100604523Y-128159285D01*
X100483571Y-128098809D01*
X100423095Y-128038333D01*
X100362619Y-127917380D01*
X100362619Y-127796428D01*
X100423095Y-127675476D01*
X100483571Y-127615000D01*
X100604523Y-127554523D01*
X100906904Y-127554523D01*
X101088333Y-127615000D01*
X101511666Y-127554523D02*
X102297857Y-127554523D01*
X101874523Y-128038333D01*
X102055952Y-128038333D01*
X102176904Y-128098809D01*
X102237380Y-128159285D01*
X102297857Y-128280238D01*
X102297857Y-128582619D01*
X102237380Y-128703571D01*
X102176904Y-128764047D01*
X102055952Y-128824523D01*
X101693095Y-128824523D01*
X101572142Y-128764047D01*
X101511666Y-128703571D01*
X103023571Y-128098809D02*
X102902619Y-128038333D01*
X102842142Y-127977857D01*
X102781666Y-127856904D01*
X102781666Y-127796428D01*
X102842142Y-127675476D01*
X102902619Y-127615000D01*
X103023571Y-127554523D01*
X103265476Y-127554523D01*
X103386428Y-127615000D01*
X103446904Y-127675476D01*
X103507380Y-127796428D01*
X103507380Y-127856904D01*
X103446904Y-127977857D01*
X103386428Y-128038333D01*
X103265476Y-128098809D01*
X103023571Y-128098809D01*
X102902619Y-128159285D01*
X102842142Y-128219761D01*
X102781666Y-128340714D01*
X102781666Y-128582619D01*
X102842142Y-128703571D01*
X102902619Y-128764047D01*
X103023571Y-128824523D01*
X103265476Y-128824523D01*
X103386428Y-128764047D01*
X103446904Y-128703571D01*
X103507380Y-128582619D01*
X103507380Y-128340714D01*
X103446904Y-128219761D01*
X103386428Y-128159285D01*
X103265476Y-128098809D01*
%TO.C,S37*%
X91362619Y-128764047D02*
X91544047Y-128824523D01*
X91846428Y-128824523D01*
X91967380Y-128764047D01*
X92027857Y-128703571D01*
X92088333Y-128582619D01*
X92088333Y-128461666D01*
X92027857Y-128340714D01*
X91967380Y-128280238D01*
X91846428Y-128219761D01*
X91604523Y-128159285D01*
X91483571Y-128098809D01*
X91423095Y-128038333D01*
X91362619Y-127917380D01*
X91362619Y-127796428D01*
X91423095Y-127675476D01*
X91483571Y-127615000D01*
X91604523Y-127554523D01*
X91906904Y-127554523D01*
X92088333Y-127615000D01*
X92511666Y-127554523D02*
X93297857Y-127554523D01*
X92874523Y-128038333D01*
X93055952Y-128038333D01*
X93176904Y-128098809D01*
X93237380Y-128159285D01*
X93297857Y-128280238D01*
X93297857Y-128582619D01*
X93237380Y-128703571D01*
X93176904Y-128764047D01*
X93055952Y-128824523D01*
X92693095Y-128824523D01*
X92572142Y-128764047D01*
X92511666Y-128703571D01*
X93721190Y-127554523D02*
X94567857Y-127554523D01*
X94023571Y-128824523D01*
%TO.C,S36*%
X82362619Y-128764047D02*
X82544047Y-128824523D01*
X82846428Y-128824523D01*
X82967380Y-128764047D01*
X83027857Y-128703571D01*
X83088333Y-128582619D01*
X83088333Y-128461666D01*
X83027857Y-128340714D01*
X82967380Y-128280238D01*
X82846428Y-128219761D01*
X82604523Y-128159285D01*
X82483571Y-128098809D01*
X82423095Y-128038333D01*
X82362619Y-127917380D01*
X82362619Y-127796428D01*
X82423095Y-127675476D01*
X82483571Y-127615000D01*
X82604523Y-127554523D01*
X82906904Y-127554523D01*
X83088333Y-127615000D01*
X83511666Y-127554523D02*
X84297857Y-127554523D01*
X83874523Y-128038333D01*
X84055952Y-128038333D01*
X84176904Y-128098809D01*
X84237380Y-128159285D01*
X84297857Y-128280238D01*
X84297857Y-128582619D01*
X84237380Y-128703571D01*
X84176904Y-128764047D01*
X84055952Y-128824523D01*
X83693095Y-128824523D01*
X83572142Y-128764047D01*
X83511666Y-128703571D01*
X85386428Y-127554523D02*
X85144523Y-127554523D01*
X85023571Y-127615000D01*
X84963095Y-127675476D01*
X84842142Y-127856904D01*
X84781666Y-128098809D01*
X84781666Y-128582619D01*
X84842142Y-128703571D01*
X84902619Y-128764047D01*
X85023571Y-128824523D01*
X85265476Y-128824523D01*
X85386428Y-128764047D01*
X85446904Y-128703571D01*
X85507380Y-128582619D01*
X85507380Y-128280238D01*
X85446904Y-128159285D01*
X85386428Y-128098809D01*
X85265476Y-128038333D01*
X85023571Y-128038333D01*
X84902619Y-128098809D01*
X84842142Y-128159285D01*
X84781666Y-128280238D01*
%TO.C,S35*%
X73362619Y-128764047D02*
X73544047Y-128824523D01*
X73846428Y-128824523D01*
X73967380Y-128764047D01*
X74027857Y-128703571D01*
X74088333Y-128582619D01*
X74088333Y-128461666D01*
X74027857Y-128340714D01*
X73967380Y-128280238D01*
X73846428Y-128219761D01*
X73604523Y-128159285D01*
X73483571Y-128098809D01*
X73423095Y-128038333D01*
X73362619Y-127917380D01*
X73362619Y-127796428D01*
X73423095Y-127675476D01*
X73483571Y-127615000D01*
X73604523Y-127554523D01*
X73906904Y-127554523D01*
X74088333Y-127615000D01*
X74511666Y-127554523D02*
X75297857Y-127554523D01*
X74874523Y-128038333D01*
X75055952Y-128038333D01*
X75176904Y-128098809D01*
X75237380Y-128159285D01*
X75297857Y-128280238D01*
X75297857Y-128582619D01*
X75237380Y-128703571D01*
X75176904Y-128764047D01*
X75055952Y-128824523D01*
X74693095Y-128824523D01*
X74572142Y-128764047D01*
X74511666Y-128703571D01*
X76446904Y-127554523D02*
X75842142Y-127554523D01*
X75781666Y-128159285D01*
X75842142Y-128098809D01*
X75963095Y-128038333D01*
X76265476Y-128038333D01*
X76386428Y-128098809D01*
X76446904Y-128159285D01*
X76507380Y-128280238D01*
X76507380Y-128582619D01*
X76446904Y-128703571D01*
X76386428Y-128764047D01*
X76265476Y-128824523D01*
X75963095Y-128824523D01*
X75842142Y-128764047D01*
X75781666Y-128703571D01*
%TO.C,S34*%
X64362619Y-128764047D02*
X64544047Y-128824523D01*
X64846428Y-128824523D01*
X64967380Y-128764047D01*
X65027857Y-128703571D01*
X65088333Y-128582619D01*
X65088333Y-128461666D01*
X65027857Y-128340714D01*
X64967380Y-128280238D01*
X64846428Y-128219761D01*
X64604523Y-128159285D01*
X64483571Y-128098809D01*
X64423095Y-128038333D01*
X64362619Y-127917380D01*
X64362619Y-127796428D01*
X64423095Y-127675476D01*
X64483571Y-127615000D01*
X64604523Y-127554523D01*
X64906904Y-127554523D01*
X65088333Y-127615000D01*
X65511666Y-127554523D02*
X66297857Y-127554523D01*
X65874523Y-128038333D01*
X66055952Y-128038333D01*
X66176904Y-128098809D01*
X66237380Y-128159285D01*
X66297857Y-128280238D01*
X66297857Y-128582619D01*
X66237380Y-128703571D01*
X66176904Y-128764047D01*
X66055952Y-128824523D01*
X65693095Y-128824523D01*
X65572142Y-128764047D01*
X65511666Y-128703571D01*
X67386428Y-127977857D02*
X67386428Y-128824523D01*
X67084047Y-127494047D02*
X66781666Y-128401190D01*
X67567857Y-128401190D01*
%TO.C,S33*%
X55362619Y-128764047D02*
X55544047Y-128824523D01*
X55846428Y-128824523D01*
X55967380Y-128764047D01*
X56027857Y-128703571D01*
X56088333Y-128582619D01*
X56088333Y-128461666D01*
X56027857Y-128340714D01*
X55967380Y-128280238D01*
X55846428Y-128219761D01*
X55604523Y-128159285D01*
X55483571Y-128098809D01*
X55423095Y-128038333D01*
X55362619Y-127917380D01*
X55362619Y-127796428D01*
X55423095Y-127675476D01*
X55483571Y-127615000D01*
X55604523Y-127554523D01*
X55906904Y-127554523D01*
X56088333Y-127615000D01*
X56511666Y-127554523D02*
X57297857Y-127554523D01*
X56874523Y-128038333D01*
X57055952Y-128038333D01*
X57176904Y-128098809D01*
X57237380Y-128159285D01*
X57297857Y-128280238D01*
X57297857Y-128582619D01*
X57237380Y-128703571D01*
X57176904Y-128764047D01*
X57055952Y-128824523D01*
X56693095Y-128824523D01*
X56572142Y-128764047D01*
X56511666Y-128703571D01*
X57721190Y-127554523D02*
X58507380Y-127554523D01*
X58084047Y-128038333D01*
X58265476Y-128038333D01*
X58386428Y-128098809D01*
X58446904Y-128159285D01*
X58507380Y-128280238D01*
X58507380Y-128582619D01*
X58446904Y-128703571D01*
X58386428Y-128764047D01*
X58265476Y-128824523D01*
X57902619Y-128824523D01*
X57781666Y-128764047D01*
X57721190Y-128703571D01*
%TO.C,S32*%
X46362619Y-128764047D02*
X46544047Y-128824523D01*
X46846428Y-128824523D01*
X46967380Y-128764047D01*
X47027857Y-128703571D01*
X47088333Y-128582619D01*
X47088333Y-128461666D01*
X47027857Y-128340714D01*
X46967380Y-128280238D01*
X46846428Y-128219761D01*
X46604523Y-128159285D01*
X46483571Y-128098809D01*
X46423095Y-128038333D01*
X46362619Y-127917380D01*
X46362619Y-127796428D01*
X46423095Y-127675476D01*
X46483571Y-127615000D01*
X46604523Y-127554523D01*
X46906904Y-127554523D01*
X47088333Y-127615000D01*
X47511666Y-127554523D02*
X48297857Y-127554523D01*
X47874523Y-128038333D01*
X48055952Y-128038333D01*
X48176904Y-128098809D01*
X48237380Y-128159285D01*
X48297857Y-128280238D01*
X48297857Y-128582619D01*
X48237380Y-128703571D01*
X48176904Y-128764047D01*
X48055952Y-128824523D01*
X47693095Y-128824523D01*
X47572142Y-128764047D01*
X47511666Y-128703571D01*
X48781666Y-127675476D02*
X48842142Y-127615000D01*
X48963095Y-127554523D01*
X49265476Y-127554523D01*
X49386428Y-127615000D01*
X49446904Y-127675476D01*
X49507380Y-127796428D01*
X49507380Y-127917380D01*
X49446904Y-128098809D01*
X48721190Y-128824523D01*
X49507380Y-128824523D01*
%TO.C,S31*%
X37362619Y-128764047D02*
X37544047Y-128824523D01*
X37846428Y-128824523D01*
X37967380Y-128764047D01*
X38027857Y-128703571D01*
X38088333Y-128582619D01*
X38088333Y-128461666D01*
X38027857Y-128340714D01*
X37967380Y-128280238D01*
X37846428Y-128219761D01*
X37604523Y-128159285D01*
X37483571Y-128098809D01*
X37423095Y-128038333D01*
X37362619Y-127917380D01*
X37362619Y-127796428D01*
X37423095Y-127675476D01*
X37483571Y-127615000D01*
X37604523Y-127554523D01*
X37906904Y-127554523D01*
X38088333Y-127615000D01*
X38511666Y-127554523D02*
X39297857Y-127554523D01*
X38874523Y-128038333D01*
X39055952Y-128038333D01*
X39176904Y-128098809D01*
X39237380Y-128159285D01*
X39297857Y-128280238D01*
X39297857Y-128582619D01*
X39237380Y-128703571D01*
X39176904Y-128764047D01*
X39055952Y-128824523D01*
X38693095Y-128824523D01*
X38572142Y-128764047D01*
X38511666Y-128703571D01*
X40507380Y-128824523D02*
X39781666Y-128824523D01*
X40144523Y-128824523D02*
X40144523Y-127554523D01*
X40023571Y-127735952D01*
X39902619Y-127856904D01*
X39781666Y-127917380D01*
%TO.C,S30*%
X118362619Y-121764047D02*
X118544047Y-121824523D01*
X118846428Y-121824523D01*
X118967380Y-121764047D01*
X119027857Y-121703571D01*
X119088333Y-121582619D01*
X119088333Y-121461666D01*
X119027857Y-121340714D01*
X118967380Y-121280238D01*
X118846428Y-121219761D01*
X118604523Y-121159285D01*
X118483571Y-121098809D01*
X118423095Y-121038333D01*
X118362619Y-120917380D01*
X118362619Y-120796428D01*
X118423095Y-120675476D01*
X118483571Y-120615000D01*
X118604523Y-120554523D01*
X118906904Y-120554523D01*
X119088333Y-120615000D01*
X119511666Y-120554523D02*
X120297857Y-120554523D01*
X119874523Y-121038333D01*
X120055952Y-121038333D01*
X120176904Y-121098809D01*
X120237380Y-121159285D01*
X120297857Y-121280238D01*
X120297857Y-121582619D01*
X120237380Y-121703571D01*
X120176904Y-121764047D01*
X120055952Y-121824523D01*
X119693095Y-121824523D01*
X119572142Y-121764047D01*
X119511666Y-121703571D01*
X121084047Y-120554523D02*
X121205000Y-120554523D01*
X121325952Y-120615000D01*
X121386428Y-120675476D01*
X121446904Y-120796428D01*
X121507380Y-121038333D01*
X121507380Y-121340714D01*
X121446904Y-121582619D01*
X121386428Y-121703571D01*
X121325952Y-121764047D01*
X121205000Y-121824523D01*
X121084047Y-121824523D01*
X120963095Y-121764047D01*
X120902619Y-121703571D01*
X120842142Y-121582619D01*
X120781666Y-121340714D01*
X120781666Y-121038333D01*
X120842142Y-120796428D01*
X120902619Y-120675476D01*
X120963095Y-120615000D01*
X121084047Y-120554523D01*
%TO.C,S29*%
X109362619Y-121764047D02*
X109544047Y-121824523D01*
X109846428Y-121824523D01*
X109967380Y-121764047D01*
X110027857Y-121703571D01*
X110088333Y-121582619D01*
X110088333Y-121461666D01*
X110027857Y-121340714D01*
X109967380Y-121280238D01*
X109846428Y-121219761D01*
X109604523Y-121159285D01*
X109483571Y-121098809D01*
X109423095Y-121038333D01*
X109362619Y-120917380D01*
X109362619Y-120796428D01*
X109423095Y-120675476D01*
X109483571Y-120615000D01*
X109604523Y-120554523D01*
X109906904Y-120554523D01*
X110088333Y-120615000D01*
X110572142Y-120675476D02*
X110632619Y-120615000D01*
X110753571Y-120554523D01*
X111055952Y-120554523D01*
X111176904Y-120615000D01*
X111237380Y-120675476D01*
X111297857Y-120796428D01*
X111297857Y-120917380D01*
X111237380Y-121098809D01*
X110511666Y-121824523D01*
X111297857Y-121824523D01*
X111902619Y-121824523D02*
X112144523Y-121824523D01*
X112265476Y-121764047D01*
X112325952Y-121703571D01*
X112446904Y-121522142D01*
X112507380Y-121280238D01*
X112507380Y-120796428D01*
X112446904Y-120675476D01*
X112386428Y-120615000D01*
X112265476Y-120554523D01*
X112023571Y-120554523D01*
X111902619Y-120615000D01*
X111842142Y-120675476D01*
X111781666Y-120796428D01*
X111781666Y-121098809D01*
X111842142Y-121219761D01*
X111902619Y-121280238D01*
X112023571Y-121340714D01*
X112265476Y-121340714D01*
X112386428Y-121280238D01*
X112446904Y-121219761D01*
X112507380Y-121098809D01*
%TO.C,S28*%
X100362619Y-121764047D02*
X100544047Y-121824523D01*
X100846428Y-121824523D01*
X100967380Y-121764047D01*
X101027857Y-121703571D01*
X101088333Y-121582619D01*
X101088333Y-121461666D01*
X101027857Y-121340714D01*
X100967380Y-121280238D01*
X100846428Y-121219761D01*
X100604523Y-121159285D01*
X100483571Y-121098809D01*
X100423095Y-121038333D01*
X100362619Y-120917380D01*
X100362619Y-120796428D01*
X100423095Y-120675476D01*
X100483571Y-120615000D01*
X100604523Y-120554523D01*
X100906904Y-120554523D01*
X101088333Y-120615000D01*
X101572142Y-120675476D02*
X101632619Y-120615000D01*
X101753571Y-120554523D01*
X102055952Y-120554523D01*
X102176904Y-120615000D01*
X102237380Y-120675476D01*
X102297857Y-120796428D01*
X102297857Y-120917380D01*
X102237380Y-121098809D01*
X101511666Y-121824523D01*
X102297857Y-121824523D01*
X103023571Y-121098809D02*
X102902619Y-121038333D01*
X102842142Y-120977857D01*
X102781666Y-120856904D01*
X102781666Y-120796428D01*
X102842142Y-120675476D01*
X102902619Y-120615000D01*
X103023571Y-120554523D01*
X103265476Y-120554523D01*
X103386428Y-120615000D01*
X103446904Y-120675476D01*
X103507380Y-120796428D01*
X103507380Y-120856904D01*
X103446904Y-120977857D01*
X103386428Y-121038333D01*
X103265476Y-121098809D01*
X103023571Y-121098809D01*
X102902619Y-121159285D01*
X102842142Y-121219761D01*
X102781666Y-121340714D01*
X102781666Y-121582619D01*
X102842142Y-121703571D01*
X102902619Y-121764047D01*
X103023571Y-121824523D01*
X103265476Y-121824523D01*
X103386428Y-121764047D01*
X103446904Y-121703571D01*
X103507380Y-121582619D01*
X103507380Y-121340714D01*
X103446904Y-121219761D01*
X103386428Y-121159285D01*
X103265476Y-121098809D01*
%TO.C,S27*%
X91362619Y-121764047D02*
X91544047Y-121824523D01*
X91846428Y-121824523D01*
X91967380Y-121764047D01*
X92027857Y-121703571D01*
X92088333Y-121582619D01*
X92088333Y-121461666D01*
X92027857Y-121340714D01*
X91967380Y-121280238D01*
X91846428Y-121219761D01*
X91604523Y-121159285D01*
X91483571Y-121098809D01*
X91423095Y-121038333D01*
X91362619Y-120917380D01*
X91362619Y-120796428D01*
X91423095Y-120675476D01*
X91483571Y-120615000D01*
X91604523Y-120554523D01*
X91906904Y-120554523D01*
X92088333Y-120615000D01*
X92572142Y-120675476D02*
X92632619Y-120615000D01*
X92753571Y-120554523D01*
X93055952Y-120554523D01*
X93176904Y-120615000D01*
X93237380Y-120675476D01*
X93297857Y-120796428D01*
X93297857Y-120917380D01*
X93237380Y-121098809D01*
X92511666Y-121824523D01*
X93297857Y-121824523D01*
X93721190Y-120554523D02*
X94567857Y-120554523D01*
X94023571Y-121824523D01*
%TO.C,S26*%
X82362619Y-121764047D02*
X82544047Y-121824523D01*
X82846428Y-121824523D01*
X82967380Y-121764047D01*
X83027857Y-121703571D01*
X83088333Y-121582619D01*
X83088333Y-121461666D01*
X83027857Y-121340714D01*
X82967380Y-121280238D01*
X82846428Y-121219761D01*
X82604523Y-121159285D01*
X82483571Y-121098809D01*
X82423095Y-121038333D01*
X82362619Y-120917380D01*
X82362619Y-120796428D01*
X82423095Y-120675476D01*
X82483571Y-120615000D01*
X82604523Y-120554523D01*
X82906904Y-120554523D01*
X83088333Y-120615000D01*
X83572142Y-120675476D02*
X83632619Y-120615000D01*
X83753571Y-120554523D01*
X84055952Y-120554523D01*
X84176904Y-120615000D01*
X84237380Y-120675476D01*
X84297857Y-120796428D01*
X84297857Y-120917380D01*
X84237380Y-121098809D01*
X83511666Y-121824523D01*
X84297857Y-121824523D01*
X85386428Y-120554523D02*
X85144523Y-120554523D01*
X85023571Y-120615000D01*
X84963095Y-120675476D01*
X84842142Y-120856904D01*
X84781666Y-121098809D01*
X84781666Y-121582619D01*
X84842142Y-121703571D01*
X84902619Y-121764047D01*
X85023571Y-121824523D01*
X85265476Y-121824523D01*
X85386428Y-121764047D01*
X85446904Y-121703571D01*
X85507380Y-121582619D01*
X85507380Y-121280238D01*
X85446904Y-121159285D01*
X85386428Y-121098809D01*
X85265476Y-121038333D01*
X85023571Y-121038333D01*
X84902619Y-121098809D01*
X84842142Y-121159285D01*
X84781666Y-121280238D01*
%TO.C,S25*%
X73362619Y-121764047D02*
X73544047Y-121824523D01*
X73846428Y-121824523D01*
X73967380Y-121764047D01*
X74027857Y-121703571D01*
X74088333Y-121582619D01*
X74088333Y-121461666D01*
X74027857Y-121340714D01*
X73967380Y-121280238D01*
X73846428Y-121219761D01*
X73604523Y-121159285D01*
X73483571Y-121098809D01*
X73423095Y-121038333D01*
X73362619Y-120917380D01*
X73362619Y-120796428D01*
X73423095Y-120675476D01*
X73483571Y-120615000D01*
X73604523Y-120554523D01*
X73906904Y-120554523D01*
X74088333Y-120615000D01*
X74572142Y-120675476D02*
X74632619Y-120615000D01*
X74753571Y-120554523D01*
X75055952Y-120554523D01*
X75176904Y-120615000D01*
X75237380Y-120675476D01*
X75297857Y-120796428D01*
X75297857Y-120917380D01*
X75237380Y-121098809D01*
X74511666Y-121824523D01*
X75297857Y-121824523D01*
X76446904Y-120554523D02*
X75842142Y-120554523D01*
X75781666Y-121159285D01*
X75842142Y-121098809D01*
X75963095Y-121038333D01*
X76265476Y-121038333D01*
X76386428Y-121098809D01*
X76446904Y-121159285D01*
X76507380Y-121280238D01*
X76507380Y-121582619D01*
X76446904Y-121703571D01*
X76386428Y-121764047D01*
X76265476Y-121824523D01*
X75963095Y-121824523D01*
X75842142Y-121764047D01*
X75781666Y-121703571D01*
%TO.C,S24*%
X64362619Y-121764047D02*
X64544047Y-121824523D01*
X64846428Y-121824523D01*
X64967380Y-121764047D01*
X65027857Y-121703571D01*
X65088333Y-121582619D01*
X65088333Y-121461666D01*
X65027857Y-121340714D01*
X64967380Y-121280238D01*
X64846428Y-121219761D01*
X64604523Y-121159285D01*
X64483571Y-121098809D01*
X64423095Y-121038333D01*
X64362619Y-120917380D01*
X64362619Y-120796428D01*
X64423095Y-120675476D01*
X64483571Y-120615000D01*
X64604523Y-120554523D01*
X64906904Y-120554523D01*
X65088333Y-120615000D01*
X65572142Y-120675476D02*
X65632619Y-120615000D01*
X65753571Y-120554523D01*
X66055952Y-120554523D01*
X66176904Y-120615000D01*
X66237380Y-120675476D01*
X66297857Y-120796428D01*
X66297857Y-120917380D01*
X66237380Y-121098809D01*
X65511666Y-121824523D01*
X66297857Y-121824523D01*
X67386428Y-120977857D02*
X67386428Y-121824523D01*
X67084047Y-120494047D02*
X66781666Y-121401190D01*
X67567857Y-121401190D01*
%TO.C,S23*%
X55362619Y-121764047D02*
X55544047Y-121824523D01*
X55846428Y-121824523D01*
X55967380Y-121764047D01*
X56027857Y-121703571D01*
X56088333Y-121582619D01*
X56088333Y-121461666D01*
X56027857Y-121340714D01*
X55967380Y-121280238D01*
X55846428Y-121219761D01*
X55604523Y-121159285D01*
X55483571Y-121098809D01*
X55423095Y-121038333D01*
X55362619Y-120917380D01*
X55362619Y-120796428D01*
X55423095Y-120675476D01*
X55483571Y-120615000D01*
X55604523Y-120554523D01*
X55906904Y-120554523D01*
X56088333Y-120615000D01*
X56572142Y-120675476D02*
X56632619Y-120615000D01*
X56753571Y-120554523D01*
X57055952Y-120554523D01*
X57176904Y-120615000D01*
X57237380Y-120675476D01*
X57297857Y-120796428D01*
X57297857Y-120917380D01*
X57237380Y-121098809D01*
X56511666Y-121824523D01*
X57297857Y-121824523D01*
X57721190Y-120554523D02*
X58507380Y-120554523D01*
X58084047Y-121038333D01*
X58265476Y-121038333D01*
X58386428Y-121098809D01*
X58446904Y-121159285D01*
X58507380Y-121280238D01*
X58507380Y-121582619D01*
X58446904Y-121703571D01*
X58386428Y-121764047D01*
X58265476Y-121824523D01*
X57902619Y-121824523D01*
X57781666Y-121764047D01*
X57721190Y-121703571D01*
%TO.C,S22*%
X46362619Y-121764047D02*
X46544047Y-121824523D01*
X46846428Y-121824523D01*
X46967380Y-121764047D01*
X47027857Y-121703571D01*
X47088333Y-121582619D01*
X47088333Y-121461666D01*
X47027857Y-121340714D01*
X46967380Y-121280238D01*
X46846428Y-121219761D01*
X46604523Y-121159285D01*
X46483571Y-121098809D01*
X46423095Y-121038333D01*
X46362619Y-120917380D01*
X46362619Y-120796428D01*
X46423095Y-120675476D01*
X46483571Y-120615000D01*
X46604523Y-120554523D01*
X46906904Y-120554523D01*
X47088333Y-120615000D01*
X47572142Y-120675476D02*
X47632619Y-120615000D01*
X47753571Y-120554523D01*
X48055952Y-120554523D01*
X48176904Y-120615000D01*
X48237380Y-120675476D01*
X48297857Y-120796428D01*
X48297857Y-120917380D01*
X48237380Y-121098809D01*
X47511666Y-121824523D01*
X48297857Y-121824523D01*
X48781666Y-120675476D02*
X48842142Y-120615000D01*
X48963095Y-120554523D01*
X49265476Y-120554523D01*
X49386428Y-120615000D01*
X49446904Y-120675476D01*
X49507380Y-120796428D01*
X49507380Y-120917380D01*
X49446904Y-121098809D01*
X48721190Y-121824523D01*
X49507380Y-121824523D01*
%TO.C,S21*%
X37362619Y-121764047D02*
X37544047Y-121824523D01*
X37846428Y-121824523D01*
X37967380Y-121764047D01*
X38027857Y-121703571D01*
X38088333Y-121582619D01*
X38088333Y-121461666D01*
X38027857Y-121340714D01*
X37967380Y-121280238D01*
X37846428Y-121219761D01*
X37604523Y-121159285D01*
X37483571Y-121098809D01*
X37423095Y-121038333D01*
X37362619Y-120917380D01*
X37362619Y-120796428D01*
X37423095Y-120675476D01*
X37483571Y-120615000D01*
X37604523Y-120554523D01*
X37906904Y-120554523D01*
X38088333Y-120615000D01*
X38572142Y-120675476D02*
X38632619Y-120615000D01*
X38753571Y-120554523D01*
X39055952Y-120554523D01*
X39176904Y-120615000D01*
X39237380Y-120675476D01*
X39297857Y-120796428D01*
X39297857Y-120917380D01*
X39237380Y-121098809D01*
X38511666Y-121824523D01*
X39297857Y-121824523D01*
X40507380Y-121824523D02*
X39781666Y-121824523D01*
X40144523Y-121824523D02*
X40144523Y-120554523D01*
X40023571Y-120735952D01*
X39902619Y-120856904D01*
X39781666Y-120917380D01*
%TO.C,S20*%
X118362619Y-114764047D02*
X118544047Y-114824523D01*
X118846428Y-114824523D01*
X118967380Y-114764047D01*
X119027857Y-114703571D01*
X119088333Y-114582619D01*
X119088333Y-114461666D01*
X119027857Y-114340714D01*
X118967380Y-114280238D01*
X118846428Y-114219761D01*
X118604523Y-114159285D01*
X118483571Y-114098809D01*
X118423095Y-114038333D01*
X118362619Y-113917380D01*
X118362619Y-113796428D01*
X118423095Y-113675476D01*
X118483571Y-113615000D01*
X118604523Y-113554523D01*
X118906904Y-113554523D01*
X119088333Y-113615000D01*
X119572142Y-113675476D02*
X119632619Y-113615000D01*
X119753571Y-113554523D01*
X120055952Y-113554523D01*
X120176904Y-113615000D01*
X120237380Y-113675476D01*
X120297857Y-113796428D01*
X120297857Y-113917380D01*
X120237380Y-114098809D01*
X119511666Y-114824523D01*
X120297857Y-114824523D01*
X121084047Y-113554523D02*
X121205000Y-113554523D01*
X121325952Y-113615000D01*
X121386428Y-113675476D01*
X121446904Y-113796428D01*
X121507380Y-114038333D01*
X121507380Y-114340714D01*
X121446904Y-114582619D01*
X121386428Y-114703571D01*
X121325952Y-114764047D01*
X121205000Y-114824523D01*
X121084047Y-114824523D01*
X120963095Y-114764047D01*
X120902619Y-114703571D01*
X120842142Y-114582619D01*
X120781666Y-114340714D01*
X120781666Y-114038333D01*
X120842142Y-113796428D01*
X120902619Y-113675476D01*
X120963095Y-113615000D01*
X121084047Y-113554523D01*
%TO.C,S19*%
X109362619Y-114764047D02*
X109544047Y-114824523D01*
X109846428Y-114824523D01*
X109967380Y-114764047D01*
X110027857Y-114703571D01*
X110088333Y-114582619D01*
X110088333Y-114461666D01*
X110027857Y-114340714D01*
X109967380Y-114280238D01*
X109846428Y-114219761D01*
X109604523Y-114159285D01*
X109483571Y-114098809D01*
X109423095Y-114038333D01*
X109362619Y-113917380D01*
X109362619Y-113796428D01*
X109423095Y-113675476D01*
X109483571Y-113615000D01*
X109604523Y-113554523D01*
X109906904Y-113554523D01*
X110088333Y-113615000D01*
X111297857Y-114824523D02*
X110572142Y-114824523D01*
X110935000Y-114824523D02*
X110935000Y-113554523D01*
X110814047Y-113735952D01*
X110693095Y-113856904D01*
X110572142Y-113917380D01*
X111902619Y-114824523D02*
X112144523Y-114824523D01*
X112265476Y-114764047D01*
X112325952Y-114703571D01*
X112446904Y-114522142D01*
X112507380Y-114280238D01*
X112507380Y-113796428D01*
X112446904Y-113675476D01*
X112386428Y-113615000D01*
X112265476Y-113554523D01*
X112023571Y-113554523D01*
X111902619Y-113615000D01*
X111842142Y-113675476D01*
X111781666Y-113796428D01*
X111781666Y-114098809D01*
X111842142Y-114219761D01*
X111902619Y-114280238D01*
X112023571Y-114340714D01*
X112265476Y-114340714D01*
X112386428Y-114280238D01*
X112446904Y-114219761D01*
X112507380Y-114098809D01*
%TO.C,S18*%
X100362619Y-114764047D02*
X100544047Y-114824523D01*
X100846428Y-114824523D01*
X100967380Y-114764047D01*
X101027857Y-114703571D01*
X101088333Y-114582619D01*
X101088333Y-114461666D01*
X101027857Y-114340714D01*
X100967380Y-114280238D01*
X100846428Y-114219761D01*
X100604523Y-114159285D01*
X100483571Y-114098809D01*
X100423095Y-114038333D01*
X100362619Y-113917380D01*
X100362619Y-113796428D01*
X100423095Y-113675476D01*
X100483571Y-113615000D01*
X100604523Y-113554523D01*
X100906904Y-113554523D01*
X101088333Y-113615000D01*
X102297857Y-114824523D02*
X101572142Y-114824523D01*
X101935000Y-114824523D02*
X101935000Y-113554523D01*
X101814047Y-113735952D01*
X101693095Y-113856904D01*
X101572142Y-113917380D01*
X103023571Y-114098809D02*
X102902619Y-114038333D01*
X102842142Y-113977857D01*
X102781666Y-113856904D01*
X102781666Y-113796428D01*
X102842142Y-113675476D01*
X102902619Y-113615000D01*
X103023571Y-113554523D01*
X103265476Y-113554523D01*
X103386428Y-113615000D01*
X103446904Y-113675476D01*
X103507380Y-113796428D01*
X103507380Y-113856904D01*
X103446904Y-113977857D01*
X103386428Y-114038333D01*
X103265476Y-114098809D01*
X103023571Y-114098809D01*
X102902619Y-114159285D01*
X102842142Y-114219761D01*
X102781666Y-114340714D01*
X102781666Y-114582619D01*
X102842142Y-114703571D01*
X102902619Y-114764047D01*
X103023571Y-114824523D01*
X103265476Y-114824523D01*
X103386428Y-114764047D01*
X103446904Y-114703571D01*
X103507380Y-114582619D01*
X103507380Y-114340714D01*
X103446904Y-114219761D01*
X103386428Y-114159285D01*
X103265476Y-114098809D01*
%TO.C,S17*%
X91362619Y-114764047D02*
X91544047Y-114824523D01*
X91846428Y-114824523D01*
X91967380Y-114764047D01*
X92027857Y-114703571D01*
X92088333Y-114582619D01*
X92088333Y-114461666D01*
X92027857Y-114340714D01*
X91967380Y-114280238D01*
X91846428Y-114219761D01*
X91604523Y-114159285D01*
X91483571Y-114098809D01*
X91423095Y-114038333D01*
X91362619Y-113917380D01*
X91362619Y-113796428D01*
X91423095Y-113675476D01*
X91483571Y-113615000D01*
X91604523Y-113554523D01*
X91906904Y-113554523D01*
X92088333Y-113615000D01*
X93297857Y-114824523D02*
X92572142Y-114824523D01*
X92935000Y-114824523D02*
X92935000Y-113554523D01*
X92814047Y-113735952D01*
X92693095Y-113856904D01*
X92572142Y-113917380D01*
X93721190Y-113554523D02*
X94567857Y-113554523D01*
X94023571Y-114824523D01*
%TO.C,S16*%
X82362619Y-114764047D02*
X82544047Y-114824523D01*
X82846428Y-114824523D01*
X82967380Y-114764047D01*
X83027857Y-114703571D01*
X83088333Y-114582619D01*
X83088333Y-114461666D01*
X83027857Y-114340714D01*
X82967380Y-114280238D01*
X82846428Y-114219761D01*
X82604523Y-114159285D01*
X82483571Y-114098809D01*
X82423095Y-114038333D01*
X82362619Y-113917380D01*
X82362619Y-113796428D01*
X82423095Y-113675476D01*
X82483571Y-113615000D01*
X82604523Y-113554523D01*
X82906904Y-113554523D01*
X83088333Y-113615000D01*
X84297857Y-114824523D02*
X83572142Y-114824523D01*
X83935000Y-114824523D02*
X83935000Y-113554523D01*
X83814047Y-113735952D01*
X83693095Y-113856904D01*
X83572142Y-113917380D01*
X85386428Y-113554523D02*
X85144523Y-113554523D01*
X85023571Y-113615000D01*
X84963095Y-113675476D01*
X84842142Y-113856904D01*
X84781666Y-114098809D01*
X84781666Y-114582619D01*
X84842142Y-114703571D01*
X84902619Y-114764047D01*
X85023571Y-114824523D01*
X85265476Y-114824523D01*
X85386428Y-114764047D01*
X85446904Y-114703571D01*
X85507380Y-114582619D01*
X85507380Y-114280238D01*
X85446904Y-114159285D01*
X85386428Y-114098809D01*
X85265476Y-114038333D01*
X85023571Y-114038333D01*
X84902619Y-114098809D01*
X84842142Y-114159285D01*
X84781666Y-114280238D01*
%TO.C,S15*%
X73362619Y-114764047D02*
X73544047Y-114824523D01*
X73846428Y-114824523D01*
X73967380Y-114764047D01*
X74027857Y-114703571D01*
X74088333Y-114582619D01*
X74088333Y-114461666D01*
X74027857Y-114340714D01*
X73967380Y-114280238D01*
X73846428Y-114219761D01*
X73604523Y-114159285D01*
X73483571Y-114098809D01*
X73423095Y-114038333D01*
X73362619Y-113917380D01*
X73362619Y-113796428D01*
X73423095Y-113675476D01*
X73483571Y-113615000D01*
X73604523Y-113554523D01*
X73906904Y-113554523D01*
X74088333Y-113615000D01*
X75297857Y-114824523D02*
X74572142Y-114824523D01*
X74935000Y-114824523D02*
X74935000Y-113554523D01*
X74814047Y-113735952D01*
X74693095Y-113856904D01*
X74572142Y-113917380D01*
X76446904Y-113554523D02*
X75842142Y-113554523D01*
X75781666Y-114159285D01*
X75842142Y-114098809D01*
X75963095Y-114038333D01*
X76265476Y-114038333D01*
X76386428Y-114098809D01*
X76446904Y-114159285D01*
X76507380Y-114280238D01*
X76507380Y-114582619D01*
X76446904Y-114703571D01*
X76386428Y-114764047D01*
X76265476Y-114824523D01*
X75963095Y-114824523D01*
X75842142Y-114764047D01*
X75781666Y-114703571D01*
%TO.C,S14*%
X64362619Y-114764047D02*
X64544047Y-114824523D01*
X64846428Y-114824523D01*
X64967380Y-114764047D01*
X65027857Y-114703571D01*
X65088333Y-114582619D01*
X65088333Y-114461666D01*
X65027857Y-114340714D01*
X64967380Y-114280238D01*
X64846428Y-114219761D01*
X64604523Y-114159285D01*
X64483571Y-114098809D01*
X64423095Y-114038333D01*
X64362619Y-113917380D01*
X64362619Y-113796428D01*
X64423095Y-113675476D01*
X64483571Y-113615000D01*
X64604523Y-113554523D01*
X64906904Y-113554523D01*
X65088333Y-113615000D01*
X66297857Y-114824523D02*
X65572142Y-114824523D01*
X65935000Y-114824523D02*
X65935000Y-113554523D01*
X65814047Y-113735952D01*
X65693095Y-113856904D01*
X65572142Y-113917380D01*
X67386428Y-113977857D02*
X67386428Y-114824523D01*
X67084047Y-113494047D02*
X66781666Y-114401190D01*
X67567857Y-114401190D01*
%TO.C,S13*%
X55362619Y-114764047D02*
X55544047Y-114824523D01*
X55846428Y-114824523D01*
X55967380Y-114764047D01*
X56027857Y-114703571D01*
X56088333Y-114582619D01*
X56088333Y-114461666D01*
X56027857Y-114340714D01*
X55967380Y-114280238D01*
X55846428Y-114219761D01*
X55604523Y-114159285D01*
X55483571Y-114098809D01*
X55423095Y-114038333D01*
X55362619Y-113917380D01*
X55362619Y-113796428D01*
X55423095Y-113675476D01*
X55483571Y-113615000D01*
X55604523Y-113554523D01*
X55906904Y-113554523D01*
X56088333Y-113615000D01*
X57297857Y-114824523D02*
X56572142Y-114824523D01*
X56935000Y-114824523D02*
X56935000Y-113554523D01*
X56814047Y-113735952D01*
X56693095Y-113856904D01*
X56572142Y-113917380D01*
X57721190Y-113554523D02*
X58507380Y-113554523D01*
X58084047Y-114038333D01*
X58265476Y-114038333D01*
X58386428Y-114098809D01*
X58446904Y-114159285D01*
X58507380Y-114280238D01*
X58507380Y-114582619D01*
X58446904Y-114703571D01*
X58386428Y-114764047D01*
X58265476Y-114824523D01*
X57902619Y-114824523D01*
X57781666Y-114764047D01*
X57721190Y-114703571D01*
%TO.C,S12*%
X46362619Y-114764047D02*
X46544047Y-114824523D01*
X46846428Y-114824523D01*
X46967380Y-114764047D01*
X47027857Y-114703571D01*
X47088333Y-114582619D01*
X47088333Y-114461666D01*
X47027857Y-114340714D01*
X46967380Y-114280238D01*
X46846428Y-114219761D01*
X46604523Y-114159285D01*
X46483571Y-114098809D01*
X46423095Y-114038333D01*
X46362619Y-113917380D01*
X46362619Y-113796428D01*
X46423095Y-113675476D01*
X46483571Y-113615000D01*
X46604523Y-113554523D01*
X46906904Y-113554523D01*
X47088333Y-113615000D01*
X48297857Y-114824523D02*
X47572142Y-114824523D01*
X47935000Y-114824523D02*
X47935000Y-113554523D01*
X47814047Y-113735952D01*
X47693095Y-113856904D01*
X47572142Y-113917380D01*
X48781666Y-113675476D02*
X48842142Y-113615000D01*
X48963095Y-113554523D01*
X49265476Y-113554523D01*
X49386428Y-113615000D01*
X49446904Y-113675476D01*
X49507380Y-113796428D01*
X49507380Y-113917380D01*
X49446904Y-114098809D01*
X48721190Y-114824523D01*
X49507380Y-114824523D01*
%TO.C,S11*%
X37362619Y-114764047D02*
X37544047Y-114824523D01*
X37846428Y-114824523D01*
X37967380Y-114764047D01*
X38027857Y-114703571D01*
X38088333Y-114582619D01*
X38088333Y-114461666D01*
X38027857Y-114340714D01*
X37967380Y-114280238D01*
X37846428Y-114219761D01*
X37604523Y-114159285D01*
X37483571Y-114098809D01*
X37423095Y-114038333D01*
X37362619Y-113917380D01*
X37362619Y-113796428D01*
X37423095Y-113675476D01*
X37483571Y-113615000D01*
X37604523Y-113554523D01*
X37906904Y-113554523D01*
X38088333Y-113615000D01*
X39297857Y-114824523D02*
X38572142Y-114824523D01*
X38935000Y-114824523D02*
X38935000Y-113554523D01*
X38814047Y-113735952D01*
X38693095Y-113856904D01*
X38572142Y-113917380D01*
X40507380Y-114824523D02*
X39781666Y-114824523D01*
X40144523Y-114824523D02*
X40144523Y-113554523D01*
X40023571Y-113735952D01*
X39902619Y-113856904D01*
X39781666Y-113917380D01*
%TO.C,S10*%
X118362619Y-107764047D02*
X118544047Y-107824523D01*
X118846428Y-107824523D01*
X118967380Y-107764047D01*
X119027857Y-107703571D01*
X119088333Y-107582619D01*
X119088333Y-107461666D01*
X119027857Y-107340714D01*
X118967380Y-107280238D01*
X118846428Y-107219761D01*
X118604523Y-107159285D01*
X118483571Y-107098809D01*
X118423095Y-107038333D01*
X118362619Y-106917380D01*
X118362619Y-106796428D01*
X118423095Y-106675476D01*
X118483571Y-106615000D01*
X118604523Y-106554523D01*
X118906904Y-106554523D01*
X119088333Y-106615000D01*
X120297857Y-107824523D02*
X119572142Y-107824523D01*
X119935000Y-107824523D02*
X119935000Y-106554523D01*
X119814047Y-106735952D01*
X119693095Y-106856904D01*
X119572142Y-106917380D01*
X121084047Y-106554523D02*
X121205000Y-106554523D01*
X121325952Y-106615000D01*
X121386428Y-106675476D01*
X121446904Y-106796428D01*
X121507380Y-107038333D01*
X121507380Y-107340714D01*
X121446904Y-107582619D01*
X121386428Y-107703571D01*
X121325952Y-107764047D01*
X121205000Y-107824523D01*
X121084047Y-107824523D01*
X120963095Y-107764047D01*
X120902619Y-107703571D01*
X120842142Y-107582619D01*
X120781666Y-107340714D01*
X120781666Y-107038333D01*
X120842142Y-106796428D01*
X120902619Y-106675476D01*
X120963095Y-106615000D01*
X121084047Y-106554523D01*
%TO.C,S9*%
X109967380Y-107764047D02*
X110148809Y-107824523D01*
X110451190Y-107824523D01*
X110572142Y-107764047D01*
X110632619Y-107703571D01*
X110693095Y-107582619D01*
X110693095Y-107461666D01*
X110632619Y-107340714D01*
X110572142Y-107280238D01*
X110451190Y-107219761D01*
X110209285Y-107159285D01*
X110088333Y-107098809D01*
X110027857Y-107038333D01*
X109967380Y-106917380D01*
X109967380Y-106796428D01*
X110027857Y-106675476D01*
X110088333Y-106615000D01*
X110209285Y-106554523D01*
X110511666Y-106554523D01*
X110693095Y-106615000D01*
X111297857Y-107824523D02*
X111539761Y-107824523D01*
X111660714Y-107764047D01*
X111721190Y-107703571D01*
X111842142Y-107522142D01*
X111902619Y-107280238D01*
X111902619Y-106796428D01*
X111842142Y-106675476D01*
X111781666Y-106615000D01*
X111660714Y-106554523D01*
X111418809Y-106554523D01*
X111297857Y-106615000D01*
X111237380Y-106675476D01*
X111176904Y-106796428D01*
X111176904Y-107098809D01*
X111237380Y-107219761D01*
X111297857Y-107280238D01*
X111418809Y-107340714D01*
X111660714Y-107340714D01*
X111781666Y-107280238D01*
X111842142Y-107219761D01*
X111902619Y-107098809D01*
%TO.C,S8*%
X100967380Y-107764047D02*
X101148809Y-107824523D01*
X101451190Y-107824523D01*
X101572142Y-107764047D01*
X101632619Y-107703571D01*
X101693095Y-107582619D01*
X101693095Y-107461666D01*
X101632619Y-107340714D01*
X101572142Y-107280238D01*
X101451190Y-107219761D01*
X101209285Y-107159285D01*
X101088333Y-107098809D01*
X101027857Y-107038333D01*
X100967380Y-106917380D01*
X100967380Y-106796428D01*
X101027857Y-106675476D01*
X101088333Y-106615000D01*
X101209285Y-106554523D01*
X101511666Y-106554523D01*
X101693095Y-106615000D01*
X102418809Y-107098809D02*
X102297857Y-107038333D01*
X102237380Y-106977857D01*
X102176904Y-106856904D01*
X102176904Y-106796428D01*
X102237380Y-106675476D01*
X102297857Y-106615000D01*
X102418809Y-106554523D01*
X102660714Y-106554523D01*
X102781666Y-106615000D01*
X102842142Y-106675476D01*
X102902619Y-106796428D01*
X102902619Y-106856904D01*
X102842142Y-106977857D01*
X102781666Y-107038333D01*
X102660714Y-107098809D01*
X102418809Y-107098809D01*
X102297857Y-107159285D01*
X102237380Y-107219761D01*
X102176904Y-107340714D01*
X102176904Y-107582619D01*
X102237380Y-107703571D01*
X102297857Y-107764047D01*
X102418809Y-107824523D01*
X102660714Y-107824523D01*
X102781666Y-107764047D01*
X102842142Y-107703571D01*
X102902619Y-107582619D01*
X102902619Y-107340714D01*
X102842142Y-107219761D01*
X102781666Y-107159285D01*
X102660714Y-107098809D01*
%TO.C,S7*%
X91967380Y-107764047D02*
X92148809Y-107824523D01*
X92451190Y-107824523D01*
X92572142Y-107764047D01*
X92632619Y-107703571D01*
X92693095Y-107582619D01*
X92693095Y-107461666D01*
X92632619Y-107340714D01*
X92572142Y-107280238D01*
X92451190Y-107219761D01*
X92209285Y-107159285D01*
X92088333Y-107098809D01*
X92027857Y-107038333D01*
X91967380Y-106917380D01*
X91967380Y-106796428D01*
X92027857Y-106675476D01*
X92088333Y-106615000D01*
X92209285Y-106554523D01*
X92511666Y-106554523D01*
X92693095Y-106615000D01*
X93116428Y-106554523D02*
X93963095Y-106554523D01*
X93418809Y-107824523D01*
%TO.C,S6*%
X82967380Y-107764047D02*
X83148809Y-107824523D01*
X83451190Y-107824523D01*
X83572142Y-107764047D01*
X83632619Y-107703571D01*
X83693095Y-107582619D01*
X83693095Y-107461666D01*
X83632619Y-107340714D01*
X83572142Y-107280238D01*
X83451190Y-107219761D01*
X83209285Y-107159285D01*
X83088333Y-107098809D01*
X83027857Y-107038333D01*
X82967380Y-106917380D01*
X82967380Y-106796428D01*
X83027857Y-106675476D01*
X83088333Y-106615000D01*
X83209285Y-106554523D01*
X83511666Y-106554523D01*
X83693095Y-106615000D01*
X84781666Y-106554523D02*
X84539761Y-106554523D01*
X84418809Y-106615000D01*
X84358333Y-106675476D01*
X84237380Y-106856904D01*
X84176904Y-107098809D01*
X84176904Y-107582619D01*
X84237380Y-107703571D01*
X84297857Y-107764047D01*
X84418809Y-107824523D01*
X84660714Y-107824523D01*
X84781666Y-107764047D01*
X84842142Y-107703571D01*
X84902619Y-107582619D01*
X84902619Y-107280238D01*
X84842142Y-107159285D01*
X84781666Y-107098809D01*
X84660714Y-107038333D01*
X84418809Y-107038333D01*
X84297857Y-107098809D01*
X84237380Y-107159285D01*
X84176904Y-107280238D01*
%TO.C,S3*%
X55967380Y-107764047D02*
X56148809Y-107824523D01*
X56451190Y-107824523D01*
X56572142Y-107764047D01*
X56632619Y-107703571D01*
X56693095Y-107582619D01*
X56693095Y-107461666D01*
X56632619Y-107340714D01*
X56572142Y-107280238D01*
X56451190Y-107219761D01*
X56209285Y-107159285D01*
X56088333Y-107098809D01*
X56027857Y-107038333D01*
X55967380Y-106917380D01*
X55967380Y-106796428D01*
X56027857Y-106675476D01*
X56088333Y-106615000D01*
X56209285Y-106554523D01*
X56511666Y-106554523D01*
X56693095Y-106615000D01*
X57116428Y-106554523D02*
X57902619Y-106554523D01*
X57479285Y-107038333D01*
X57660714Y-107038333D01*
X57781666Y-107098809D01*
X57842142Y-107159285D01*
X57902619Y-107280238D01*
X57902619Y-107582619D01*
X57842142Y-107703571D01*
X57781666Y-107764047D01*
X57660714Y-107824523D01*
X57297857Y-107824523D01*
X57176904Y-107764047D01*
X57116428Y-107703571D01*
%TO.C,S2*%
X46967380Y-107764047D02*
X47148809Y-107824523D01*
X47451190Y-107824523D01*
X47572142Y-107764047D01*
X47632619Y-107703571D01*
X47693095Y-107582619D01*
X47693095Y-107461666D01*
X47632619Y-107340714D01*
X47572142Y-107280238D01*
X47451190Y-107219761D01*
X47209285Y-107159285D01*
X47088333Y-107098809D01*
X47027857Y-107038333D01*
X46967380Y-106917380D01*
X46967380Y-106796428D01*
X47027857Y-106675476D01*
X47088333Y-106615000D01*
X47209285Y-106554523D01*
X47511666Y-106554523D01*
X47693095Y-106615000D01*
X48176904Y-106675476D02*
X48237380Y-106615000D01*
X48358333Y-106554523D01*
X48660714Y-106554523D01*
X48781666Y-106615000D01*
X48842142Y-106675476D01*
X48902619Y-106796428D01*
X48902619Y-106917380D01*
X48842142Y-107098809D01*
X48116428Y-107824523D01*
X48902619Y-107824523D01*
%TO.C,S1*%
X37967380Y-107764047D02*
X38148809Y-107824523D01*
X38451190Y-107824523D01*
X38572142Y-107764047D01*
X38632619Y-107703571D01*
X38693095Y-107582619D01*
X38693095Y-107461666D01*
X38632619Y-107340714D01*
X38572142Y-107280238D01*
X38451190Y-107219761D01*
X38209285Y-107159285D01*
X38088333Y-107098809D01*
X38027857Y-107038333D01*
X37967380Y-106917380D01*
X37967380Y-106796428D01*
X38027857Y-106675476D01*
X38088333Y-106615000D01*
X38209285Y-106554523D01*
X38511666Y-106554523D01*
X38693095Y-106615000D01*
X39902619Y-107824523D02*
X39176904Y-107824523D01*
X39539761Y-107824523D02*
X39539761Y-106554523D01*
X39418809Y-106735952D01*
X39297857Y-106856904D01*
X39176904Y-106917380D01*
%TD*%
M02*
