%TF.GenerationSoftware,KiCad,Pcbnew,(5.1.6)-1*%
%TF.CreationDate,2020-09-22T22:21:25+03:00*%
%TF.ProjectId,ZX Keyboard_buttons,5a58204b-6579-4626-9f61-72645f627574,rev?*%
%TF.SameCoordinates,Original*%
%TF.FileFunction,Copper,L2,Bot*%
%TF.FilePolarity,Positive*%
%FSLAX46Y46*%
G04 Gerber Fmt 4.6, Leading zero omitted, Abs format (unit mm)*
G04 Created by KiCad (PCBNEW (5.1.6)-1) date 2020-09-22 22:21:25*
%MOMM*%
%LPD*%
G01*
G04 APERTURE LIST*
%TA.AperFunction,ComponentPad*%
%ADD10C,1.540000*%
%TD*%
%TA.AperFunction,ComponentPad*%
%ADD11O,1.700000X1.700000*%
%TD*%
%TA.AperFunction,ComponentPad*%
%ADD12R,1.700000X1.700000*%
%TD*%
%TA.AperFunction,ViaPad*%
%ADD13C,5.000000*%
%TD*%
%TA.AperFunction,Conductor*%
%ADD14C,0.250000*%
%TD*%
G04 APERTURE END LIST*
D10*
%TO.P,S4,4*%
%TO.N,/K_D3*%
X69500000Y-109500000D03*
%TO.P,S4,3*%
X63000000Y-109500000D03*
%TO.P,S4,2*%
%TO.N,/K_A11*%
X69500000Y-105000000D03*
%TO.P,S4,1*%
X63000000Y-105000000D03*
%TD*%
%TO.P,S5,4*%
%TO.N,/K_D4*%
X78500000Y-109500000D03*
%TO.P,S5,3*%
X72000000Y-109500000D03*
%TO.P,S5,2*%
%TO.N,/K_A11*%
X78500000Y-105000000D03*
%TO.P,S5,1*%
X72000000Y-105000000D03*
%TD*%
D11*
%TO.P,J1,13*%
%TO.N,/K_D0*%
X91186000Y-99060000D03*
%TO.P,J1,12*%
%TO.N,/K_D1*%
X88646000Y-99060000D03*
%TO.P,J1,11*%
%TO.N,/K_D2*%
X86106000Y-99060000D03*
%TO.P,J1,10*%
%TO.N,/K_D3*%
X83566000Y-99060000D03*
%TO.P,J1,9*%
%TO.N,/K_D4*%
X81026000Y-99060000D03*
%TO.P,J1,8*%
%TO.N,/K_A15*%
X78486000Y-99060000D03*
%TO.P,J1,7*%
%TO.N,/K_A14*%
X75946000Y-99060000D03*
%TO.P,J1,6*%
%TO.N,/K_A13*%
X73406000Y-99060000D03*
%TO.P,J1,5*%
%TO.N,/K_A12*%
X70866000Y-99060000D03*
%TO.P,J1,4*%
%TO.N,/K_A11*%
X68326000Y-99060000D03*
%TO.P,J1,3*%
%TO.N,/K_A10*%
X65786000Y-99060000D03*
%TO.P,J1,2*%
%TO.N,/K_A9*%
X63246000Y-99060000D03*
D12*
%TO.P,J1,1*%
%TO.N,/K_A8*%
X60706000Y-99060000D03*
%TD*%
D10*
%TO.P,S40,4*%
%TO.N,/K_D0*%
X123500000Y-130500000D03*
%TO.P,S40,3*%
X117000000Y-130500000D03*
%TO.P,S40,2*%
%TO.N,/K_A15*%
X123500000Y-126000000D03*
%TO.P,S40,1*%
X117000000Y-126000000D03*
%TD*%
%TO.P,S39,4*%
%TO.N,/K_D1*%
X114500000Y-130500000D03*
%TO.P,S39,3*%
X108000000Y-130500000D03*
%TO.P,S39,2*%
%TO.N,/K_A15*%
X114500000Y-126000000D03*
%TO.P,S39,1*%
X108000000Y-126000000D03*
%TD*%
%TO.P,S38,4*%
%TO.N,/K_D2*%
X105500000Y-130500000D03*
%TO.P,S38,3*%
X99000000Y-130500000D03*
%TO.P,S38,2*%
%TO.N,/K_A15*%
X105500000Y-126000000D03*
%TO.P,S38,1*%
X99000000Y-126000000D03*
%TD*%
%TO.P,S37,4*%
%TO.N,/K_D3*%
X96500000Y-130500000D03*
%TO.P,S37,3*%
X90000000Y-130500000D03*
%TO.P,S37,2*%
%TO.N,/K_A15*%
X96500000Y-126000000D03*
%TO.P,S37,1*%
X90000000Y-126000000D03*
%TD*%
%TO.P,S36,4*%
%TO.N,/K_D4*%
X87500000Y-130500000D03*
%TO.P,S36,3*%
X81000000Y-130500000D03*
%TO.P,S36,2*%
%TO.N,/K_A15*%
X87500000Y-126000000D03*
%TO.P,S36,1*%
X81000000Y-126000000D03*
%TD*%
%TO.P,S35,4*%
%TO.N,/K_D4*%
X78500000Y-130500000D03*
%TO.P,S35,3*%
X72000000Y-130500000D03*
%TO.P,S35,2*%
%TO.N,/K_A8*%
X78500000Y-126000000D03*
%TO.P,S35,1*%
X72000000Y-126000000D03*
%TD*%
%TO.P,S34,4*%
%TO.N,/K_D3*%
X69500000Y-130500000D03*
%TO.P,S34,3*%
X63000000Y-130500000D03*
%TO.P,S34,2*%
%TO.N,/K_A8*%
X69500000Y-126000000D03*
%TO.P,S34,1*%
X63000000Y-126000000D03*
%TD*%
%TO.P,S33,4*%
%TO.N,/K_D2*%
X60500000Y-130500000D03*
%TO.P,S33,3*%
X54000000Y-130500000D03*
%TO.P,S33,2*%
%TO.N,/K_A8*%
X60500000Y-126000000D03*
%TO.P,S33,1*%
X54000000Y-126000000D03*
%TD*%
%TO.P,S32,4*%
%TO.N,/K_D1*%
X51500000Y-130500000D03*
%TO.P,S32,3*%
X45000000Y-130500000D03*
%TO.P,S32,2*%
%TO.N,/K_A8*%
X51500000Y-126000000D03*
%TO.P,S32,1*%
X45000000Y-126000000D03*
%TD*%
%TO.P,S31,4*%
%TO.N,/K_D0*%
X42500000Y-130500000D03*
%TO.P,S31,3*%
X36000000Y-130500000D03*
%TO.P,S31,2*%
%TO.N,/K_A8*%
X42500000Y-126000000D03*
%TO.P,S31,1*%
X36000000Y-126000000D03*
%TD*%
%TO.P,S30,4*%
%TO.N,/K_D0*%
X123500000Y-123500000D03*
%TO.P,S30,3*%
X117000000Y-123500000D03*
%TO.P,S30,2*%
%TO.N,/K_A14*%
X123500000Y-119000000D03*
%TO.P,S30,1*%
X117000000Y-119000000D03*
%TD*%
%TO.P,S29,4*%
%TO.N,/K_D1*%
X114500000Y-123500000D03*
%TO.P,S29,3*%
X108000000Y-123500000D03*
%TO.P,S29,2*%
%TO.N,/K_A14*%
X114500000Y-119000000D03*
%TO.P,S29,1*%
X108000000Y-119000000D03*
%TD*%
%TO.P,S28,4*%
%TO.N,/K_D2*%
X105500000Y-123500000D03*
%TO.P,S28,3*%
X99000000Y-123500000D03*
%TO.P,S28,2*%
%TO.N,/K_A14*%
X105500000Y-119000000D03*
%TO.P,S28,1*%
X99000000Y-119000000D03*
%TD*%
%TO.P,S27,4*%
%TO.N,/K_D3*%
X96500000Y-123500000D03*
%TO.P,S27,3*%
X90000000Y-123500000D03*
%TO.P,S27,2*%
%TO.N,/K_A14*%
X96500000Y-119000000D03*
%TO.P,S27,1*%
X90000000Y-119000000D03*
%TD*%
%TO.P,S26,4*%
%TO.N,/K_D4*%
X87500000Y-123500000D03*
%TO.P,S26,3*%
X81000000Y-123500000D03*
%TO.P,S26,2*%
%TO.N,/K_A14*%
X87500000Y-119000000D03*
%TO.P,S26,1*%
X81000000Y-119000000D03*
%TD*%
%TO.P,S25,4*%
%TO.N,/K_D4*%
X78500000Y-123500000D03*
%TO.P,S25,3*%
X72000000Y-123500000D03*
%TO.P,S25,2*%
%TO.N,/K_A9*%
X78500000Y-119000000D03*
%TO.P,S25,1*%
X72000000Y-119000000D03*
%TD*%
%TO.P,S24,4*%
%TO.N,/K_D3*%
X69500000Y-123500000D03*
%TO.P,S24,3*%
X63000000Y-123500000D03*
%TO.P,S24,2*%
%TO.N,/K_A9*%
X69500000Y-119000000D03*
%TO.P,S24,1*%
X63000000Y-119000000D03*
%TD*%
%TO.P,S23,4*%
%TO.N,/K_D2*%
X60500000Y-123500000D03*
%TO.P,S23,3*%
X54000000Y-123500000D03*
%TO.P,S23,2*%
%TO.N,/K_A9*%
X60500000Y-119000000D03*
%TO.P,S23,1*%
X54000000Y-119000000D03*
%TD*%
%TO.P,S22,4*%
%TO.N,/K_D1*%
X51500000Y-123500000D03*
%TO.P,S22,3*%
X45000000Y-123500000D03*
%TO.P,S22,2*%
%TO.N,/K_A9*%
X51500000Y-119000000D03*
%TO.P,S22,1*%
X45000000Y-119000000D03*
%TD*%
%TO.P,S21,4*%
%TO.N,/K_D0*%
X42500000Y-123500000D03*
%TO.P,S21,3*%
X36000000Y-123500000D03*
%TO.P,S21,2*%
%TO.N,/K_A9*%
X42500000Y-119000000D03*
%TO.P,S21,1*%
X36000000Y-119000000D03*
%TD*%
%TO.P,S20,4*%
%TO.N,/K_D0*%
X123500000Y-116500000D03*
%TO.P,S20,3*%
X117000000Y-116500000D03*
%TO.P,S20,2*%
%TO.N,/K_A13*%
X123500000Y-112000000D03*
%TO.P,S20,1*%
X117000000Y-112000000D03*
%TD*%
%TO.P,S19,4*%
%TO.N,/K_D1*%
X114500000Y-116500000D03*
%TO.P,S19,3*%
X108000000Y-116500000D03*
%TO.P,S19,2*%
%TO.N,/K_A13*%
X114500000Y-112000000D03*
%TO.P,S19,1*%
X108000000Y-112000000D03*
%TD*%
%TO.P,S18,4*%
%TO.N,/K_D2*%
X105500000Y-116500000D03*
%TO.P,S18,3*%
X99000000Y-116500000D03*
%TO.P,S18,2*%
%TO.N,/K_A13*%
X105500000Y-112000000D03*
%TO.P,S18,1*%
X99000000Y-112000000D03*
%TD*%
%TO.P,S17,4*%
%TO.N,/K_D3*%
X96500000Y-116500000D03*
%TO.P,S17,3*%
X90000000Y-116500000D03*
%TO.P,S17,2*%
%TO.N,/K_A13*%
X96500000Y-112000000D03*
%TO.P,S17,1*%
X90000000Y-112000000D03*
%TD*%
%TO.P,S16,4*%
%TO.N,/K_D4*%
X87500000Y-116500000D03*
%TO.P,S16,3*%
X81000000Y-116500000D03*
%TO.P,S16,2*%
%TO.N,/K_A13*%
X87500000Y-112000000D03*
%TO.P,S16,1*%
X81000000Y-112000000D03*
%TD*%
%TO.P,S15,4*%
%TO.N,/K_D4*%
X78500000Y-116500000D03*
%TO.P,S15,3*%
X72000000Y-116500000D03*
%TO.P,S15,2*%
%TO.N,/K_A10*%
X78500000Y-112000000D03*
%TO.P,S15,1*%
X72000000Y-112000000D03*
%TD*%
%TO.P,S14,4*%
%TO.N,/K_D3*%
X69500000Y-116500000D03*
%TO.P,S14,3*%
X63000000Y-116500000D03*
%TO.P,S14,2*%
%TO.N,/K_A10*%
X69500000Y-112000000D03*
%TO.P,S14,1*%
X63000000Y-112000000D03*
%TD*%
%TO.P,S13,4*%
%TO.N,/K_D2*%
X60500000Y-116500000D03*
%TO.P,S13,3*%
X54000000Y-116500000D03*
%TO.P,S13,2*%
%TO.N,/K_A10*%
X60500000Y-112000000D03*
%TO.P,S13,1*%
X54000000Y-112000000D03*
%TD*%
%TO.P,S12,4*%
%TO.N,/K_D1*%
X51500000Y-116500000D03*
%TO.P,S12,3*%
X45000000Y-116500000D03*
%TO.P,S12,2*%
%TO.N,/K_A10*%
X51500000Y-112000000D03*
%TO.P,S12,1*%
X45000000Y-112000000D03*
%TD*%
%TO.P,S11,4*%
%TO.N,/K_D0*%
X42500000Y-116500000D03*
%TO.P,S11,3*%
X36000000Y-116500000D03*
%TO.P,S11,2*%
%TO.N,/K_A10*%
X42500000Y-112000000D03*
%TO.P,S11,1*%
X36000000Y-112000000D03*
%TD*%
%TO.P,S10,4*%
%TO.N,/K_D0*%
X123500000Y-109500000D03*
%TO.P,S10,3*%
X117000000Y-109500000D03*
%TO.P,S10,2*%
%TO.N,/K_A12*%
X123500000Y-105000000D03*
%TO.P,S10,1*%
X117000000Y-105000000D03*
%TD*%
%TO.P,S9,4*%
%TO.N,/K_D1*%
X114500000Y-109500000D03*
%TO.P,S9,3*%
X108000000Y-109500000D03*
%TO.P,S9,2*%
%TO.N,/K_A12*%
X114500000Y-105000000D03*
%TO.P,S9,1*%
X108000000Y-105000000D03*
%TD*%
%TO.P,S8,4*%
%TO.N,/K_D2*%
X105500000Y-109500000D03*
%TO.P,S8,3*%
X99000000Y-109500000D03*
%TO.P,S8,2*%
%TO.N,/K_A12*%
X105500000Y-105000000D03*
%TO.P,S8,1*%
X99000000Y-105000000D03*
%TD*%
%TO.P,S7,4*%
%TO.N,/K_D3*%
X96500000Y-109500000D03*
%TO.P,S7,3*%
X90000000Y-109500000D03*
%TO.P,S7,2*%
%TO.N,/K_A12*%
X96500000Y-105000000D03*
%TO.P,S7,1*%
X90000000Y-105000000D03*
%TD*%
%TO.P,S6,4*%
%TO.N,/K_D4*%
X87500000Y-109500000D03*
%TO.P,S6,3*%
X81000000Y-109500000D03*
%TO.P,S6,2*%
%TO.N,/K_A12*%
X87500000Y-105000000D03*
%TO.P,S6,1*%
X81000000Y-105000000D03*
%TD*%
%TO.P,S3,4*%
%TO.N,/K_D2*%
X60500000Y-109500000D03*
%TO.P,S3,3*%
X54000000Y-109500000D03*
%TO.P,S3,2*%
%TO.N,/K_A11*%
X60500000Y-105000000D03*
%TO.P,S3,1*%
X54000000Y-105000000D03*
%TD*%
%TO.P,S2,4*%
%TO.N,/K_D1*%
X51500000Y-109500000D03*
%TO.P,S2,3*%
X45000000Y-109500000D03*
%TO.P,S2,2*%
%TO.N,/K_A11*%
X51500000Y-105000000D03*
%TO.P,S2,1*%
X45000000Y-105000000D03*
%TD*%
%TO.P,S1,4*%
%TO.N,/K_D0*%
X42500000Y-109500000D03*
%TO.P,S1,3*%
X36000000Y-109500000D03*
%TO.P,S1,2*%
%TO.N,/K_A11*%
X42500000Y-105000000D03*
%TO.P,S1,1*%
X36000000Y-105000000D03*
%TD*%
D13*
%TO.N,*%
X32000000Y-97000000D03*
X32000000Y-135000000D03*
X123000000Y-135000000D03*
X123000000Y-97000000D03*
%TD*%
D14*
%TO.N,/K_D0*%
X36000000Y-123500000D02*
X42500000Y-123500000D01*
X36000000Y-130500000D02*
X42500000Y-130500000D01*
X36000000Y-116500000D02*
X42500000Y-116500000D01*
X36000000Y-109500000D02*
X42500000Y-109500000D01*
X42500000Y-116500000D02*
X42500000Y-114890000D01*
X41404999Y-110595001D02*
X42500000Y-109500000D01*
X42500000Y-114890000D02*
X41404999Y-113794999D01*
X42500000Y-123500000D02*
X41404999Y-122404999D01*
X41404999Y-113794999D02*
X41404999Y-113281001D01*
X41404999Y-113281001D02*
X41404999Y-110595001D01*
X42500000Y-130500000D02*
X41404999Y-129404999D01*
X41404999Y-122404999D02*
X41404999Y-122176999D01*
X41404999Y-129404999D02*
X41404999Y-122176999D01*
X41404999Y-122176999D02*
X41404999Y-113281001D01*
X117000000Y-109500000D02*
X123500000Y-109500000D01*
X118095001Y-115404999D02*
X117000000Y-116500000D01*
X118095001Y-110595001D02*
X118095001Y-115404999D01*
X117000000Y-109500000D02*
X118095001Y-110595001D01*
X117000000Y-116500000D02*
X123500000Y-116500000D01*
X118095001Y-117595001D02*
X118095001Y-122404999D01*
X118095001Y-122404999D02*
X117000000Y-123500000D01*
X117000000Y-116500000D02*
X118095001Y-117595001D01*
X117000000Y-123500000D02*
X123500000Y-123500000D01*
X118095001Y-129404999D02*
X117000000Y-130500000D01*
X118095001Y-124595001D02*
X118095001Y-129404999D01*
X117000000Y-123500000D02*
X118095001Y-124595001D01*
X117000000Y-130500000D02*
X123500000Y-130500000D01*
X44945030Y-132945030D02*
X42500000Y-130500000D01*
X114554970Y-132945030D02*
X44945030Y-132945030D01*
X117000000Y-130500000D02*
X114554970Y-132945030D01*
X106560000Y-99060000D02*
X91186000Y-99060000D01*
X117000000Y-109500000D02*
X106560000Y-99060000D01*
%TO.N,/K_D1*%
X45000000Y-130500000D02*
X51500000Y-130500000D01*
X50404999Y-129404999D02*
X50404999Y-124595001D01*
X50404999Y-124595001D02*
X51500000Y-123500000D01*
X51500000Y-130500000D02*
X50404999Y-129404999D01*
X51500000Y-123500000D02*
X45000000Y-123500000D01*
X50404999Y-117595001D02*
X51500000Y-116500000D01*
X50404999Y-122404999D02*
X50404999Y-117595001D01*
X51500000Y-123500000D02*
X50404999Y-122404999D01*
X51500000Y-116500000D02*
X45000000Y-116500000D01*
X50404999Y-110595001D02*
X51500000Y-109500000D01*
X50404999Y-115404999D02*
X50404999Y-110595001D01*
X51500000Y-116500000D02*
X50404999Y-115404999D01*
X51500000Y-109500000D02*
X45000000Y-109500000D01*
X108000000Y-109500000D02*
X114500000Y-109500000D01*
X109095001Y-115404999D02*
X108000000Y-116500000D01*
X109095001Y-110595001D02*
X109095001Y-115404999D01*
X108000000Y-109500000D02*
X109095001Y-110595001D01*
X108000000Y-116500000D02*
X114500000Y-116500000D01*
X109095001Y-122404999D02*
X108000000Y-123500000D01*
X109095001Y-117595001D02*
X109095001Y-122404999D01*
X108000000Y-116500000D02*
X109095001Y-117595001D01*
X108000000Y-123500000D02*
X114500000Y-123500000D01*
X109095001Y-129404999D02*
X108000000Y-130500000D01*
X109095001Y-124595001D02*
X109095001Y-129404999D01*
X108000000Y-123500000D02*
X109095001Y-124595001D01*
X108000000Y-130500000D02*
X114500000Y-130500000D01*
X53495020Y-132495020D02*
X51500000Y-130500000D01*
X106004980Y-132495020D02*
X53495020Y-132495020D01*
X108000000Y-130500000D02*
X106004980Y-132495020D01*
X108000000Y-109500000D02*
X100608000Y-102108000D01*
X90893002Y-102108000D02*
X88646000Y-99860998D01*
X88646000Y-99860998D02*
X88646000Y-99060000D01*
X100608000Y-102108000D02*
X90893002Y-102108000D01*
%TO.N,/K_D2*%
X54000000Y-130500000D02*
X60500000Y-130500000D01*
X59404999Y-129404999D02*
X59404999Y-124595001D01*
X59404999Y-124595001D02*
X60500000Y-123500000D01*
X60500000Y-130500000D02*
X59404999Y-129404999D01*
X60500000Y-123500000D02*
X54000000Y-123500000D01*
X59404999Y-117595001D02*
X60500000Y-116500000D01*
X59404999Y-122404999D02*
X59404999Y-117595001D01*
X60500000Y-123500000D02*
X59404999Y-122404999D01*
X60500000Y-116500000D02*
X54000000Y-116500000D01*
X59404999Y-110595001D02*
X60500000Y-109500000D01*
X59404999Y-115404999D02*
X59404999Y-110595001D01*
X60500000Y-116500000D02*
X59404999Y-115404999D01*
X60500000Y-109500000D02*
X54000000Y-109500000D01*
X100095001Y-115404999D02*
X99000000Y-116500000D01*
X100095001Y-110595001D02*
X100095001Y-115404999D01*
X99000000Y-109500000D02*
X100095001Y-110595001D01*
X99000000Y-109500000D02*
X105500000Y-109500000D01*
X100095001Y-122404999D02*
X99000000Y-123500000D01*
X100095001Y-117595001D02*
X100095001Y-122404999D01*
X99000000Y-116500000D02*
X100095001Y-117595001D01*
X99000000Y-116500000D02*
X105500000Y-116500000D01*
X100095001Y-129404999D02*
X99000000Y-130500000D01*
X100095001Y-124595001D02*
X100095001Y-129404999D01*
X99000000Y-123500000D02*
X100095001Y-124595001D01*
X99000000Y-123500000D02*
X105500000Y-123500000D01*
X99000000Y-130500000D02*
X105500000Y-130500000D01*
X62045010Y-132045010D02*
X60500000Y-130500000D01*
X97454990Y-132045010D02*
X62045010Y-132045010D01*
X99000000Y-130500000D02*
X97454990Y-132045010D01*
X90950999Y-103904999D02*
X86106000Y-99060000D01*
X93404999Y-103904999D02*
X90950999Y-103904999D01*
X99000000Y-109500000D02*
X93404999Y-103904999D01*
%TO.N,/K_D3*%
X69500000Y-130500000D02*
X63000000Y-130500000D01*
X64095001Y-129404999D02*
X64095001Y-124595001D01*
X64095001Y-124595001D02*
X63000000Y-123500000D01*
X63000000Y-130500000D02*
X64095001Y-129404999D01*
X63000000Y-123500000D02*
X69500000Y-123500000D01*
X64095001Y-117595001D02*
X63000000Y-116500000D01*
X64095001Y-122404999D02*
X64095001Y-117595001D01*
X63000000Y-123500000D02*
X64095001Y-122404999D01*
X63000000Y-116500000D02*
X69500000Y-116500000D01*
X64095001Y-110595001D02*
X63000000Y-109500000D01*
X64095001Y-115404999D02*
X64095001Y-110595001D01*
X63000000Y-116500000D02*
X64095001Y-115404999D01*
X63000000Y-109500000D02*
X69500000Y-109500000D01*
X96500000Y-109500000D02*
X90000000Y-109500000D01*
X91095001Y-115404999D02*
X90000000Y-116500000D01*
X91095001Y-110595001D02*
X91095001Y-115404999D01*
X90000000Y-109500000D02*
X91095001Y-110595001D01*
X90000000Y-116500000D02*
X96500000Y-116500000D01*
X91095001Y-122404999D02*
X90000000Y-123500000D01*
X91095001Y-117595001D02*
X91095001Y-122404999D01*
X90000000Y-116500000D02*
X91095001Y-117595001D01*
X90000000Y-123500000D02*
X96500000Y-123500000D01*
X91095001Y-129404999D02*
X90000000Y-130500000D01*
X91095001Y-124595001D02*
X91095001Y-129404999D01*
X90000000Y-123500000D02*
X91095001Y-124595001D01*
X90000000Y-130500000D02*
X96500000Y-130500000D01*
X70595001Y-131595001D02*
X69500000Y-130500000D01*
X88904999Y-131595001D02*
X70595001Y-131595001D01*
X90000000Y-130500000D02*
X88904999Y-131595001D01*
X83566000Y-103066000D02*
X83566000Y-99060000D01*
X90000000Y-109500000D02*
X83566000Y-103066000D01*
%TO.N,/K_D4*%
X78500000Y-130500000D02*
X72000000Y-130500000D01*
X73095001Y-124595001D02*
X72000000Y-123500000D01*
X73095001Y-129404999D02*
X73095001Y-124595001D01*
X72000000Y-130500000D02*
X73095001Y-129404999D01*
X72000000Y-123500000D02*
X78500000Y-123500000D01*
X73095001Y-117595001D02*
X72000000Y-116500000D01*
X73095001Y-122404999D02*
X73095001Y-117595001D01*
X72000000Y-123500000D02*
X73095001Y-122404999D01*
X72000000Y-116500000D02*
X78500000Y-116500000D01*
X73095001Y-110595001D02*
X72000000Y-109500000D01*
X73095001Y-115404999D02*
X73095001Y-110595001D01*
X72000000Y-116500000D02*
X73095001Y-115404999D01*
X72000000Y-109500000D02*
X78500000Y-109500000D01*
X78500000Y-109500000D02*
X81000000Y-109500000D01*
X81000000Y-109500000D02*
X87500000Y-109500000D01*
X78500000Y-116500000D02*
X81000000Y-116500000D01*
X81000000Y-116500000D02*
X87500000Y-116500000D01*
X78500000Y-123500000D02*
X81000000Y-123500000D01*
X81000000Y-123500000D02*
X87500000Y-123500000D01*
X78500000Y-130500000D02*
X81000000Y-130500000D01*
X81000000Y-130500000D02*
X87500000Y-130500000D01*
X82095001Y-100129001D02*
X81026000Y-99060000D01*
X82095001Y-108404999D02*
X82095001Y-100129001D01*
X81000000Y-109500000D02*
X82095001Y-108404999D01*
%TD*%
M02*
