%TF.GenerationSoftware,KiCad,Pcbnew,(5.1.6)-1*%
%TF.CreationDate,2020-09-22T21:50:49+03:00*%
%TF.ProjectId,AY devboard,41592064-6576-4626-9f61-72642e6b6963,rev?*%
%TF.SameCoordinates,Original*%
%TF.FileFunction,Soldermask,Top*%
%TF.FilePolarity,Negative*%
%FSLAX46Y46*%
G04 Gerber Fmt 4.6, Leading zero omitted, Abs format (unit mm)*
G04 Created by KiCad (PCBNEW (5.1.6)-1) date 2020-09-22 21:50:49*
%MOMM*%
%LPD*%
G01*
G04 APERTURE LIST*
%ADD10O,1.700000X1.700000*%
%ADD11R,1.700000X1.700000*%
%ADD12O,1.800000X1.800000*%
%ADD13R,1.800000X1.800000*%
%ADD14C,2.900000*%
G04 APERTURE END LIST*
D10*
%TO.C,U2*%
X126104000Y-65520000D03*
X110864000Y-113780000D03*
X126104000Y-68060000D03*
X110864000Y-111240000D03*
X126104000Y-70600000D03*
X110864000Y-108700000D03*
X126104000Y-73140000D03*
X110864000Y-106160000D03*
X126104000Y-75680000D03*
X110864000Y-103620000D03*
X126104000Y-78220000D03*
X110864000Y-101080000D03*
X126104000Y-80760000D03*
X110864000Y-98540000D03*
X126104000Y-83300000D03*
X110864000Y-96000000D03*
X126104000Y-85840000D03*
X110864000Y-93460000D03*
X126104000Y-88380000D03*
X110864000Y-90920000D03*
X126104000Y-90920000D03*
X110864000Y-88380000D03*
X126104000Y-93460000D03*
X110864000Y-85840000D03*
X126104000Y-96000000D03*
X110864000Y-83300000D03*
X126104000Y-98540000D03*
X110864000Y-80760000D03*
X126104000Y-101080000D03*
X110864000Y-78220000D03*
X126104000Y-103620000D03*
X110864000Y-75680000D03*
X126104000Y-106160000D03*
X110864000Y-73140000D03*
X126104000Y-108700000D03*
X110864000Y-70600000D03*
X126104000Y-111240000D03*
X110864000Y-68060000D03*
X126104000Y-113780000D03*
D11*
X110864000Y-65520000D03*
%TD*%
%TO.C,R23*%
G36*
G01*
X103099500Y-72400000D02*
X102704500Y-72400000D01*
G75*
G02*
X102532000Y-72227500I0J172500D01*
G01*
X102532000Y-71882500D01*
G75*
G02*
X102704500Y-71710000I172500J0D01*
G01*
X103099500Y-71710000D01*
G75*
G02*
X103272000Y-71882500I0J-172500D01*
G01*
X103272000Y-72227500D01*
G75*
G02*
X103099500Y-72400000I-172500J0D01*
G01*
G37*
G36*
G01*
X103099500Y-73370000D02*
X102704500Y-73370000D01*
G75*
G02*
X102532000Y-73197500I0J172500D01*
G01*
X102532000Y-72852500D01*
G75*
G02*
X102704500Y-72680000I172500J0D01*
G01*
X103099500Y-72680000D01*
G75*
G02*
X103272000Y-72852500I0J-172500D01*
G01*
X103272000Y-73197500D01*
G75*
G02*
X103099500Y-73370000I-172500J0D01*
G01*
G37*
%TD*%
%TO.C,R22*%
G36*
G01*
X105573000Y-75127500D02*
X105573000Y-74732500D01*
G75*
G02*
X105745500Y-74560000I172500J0D01*
G01*
X106090500Y-74560000D01*
G75*
G02*
X106263000Y-74732500I0J-172500D01*
G01*
X106263000Y-75127500D01*
G75*
G02*
X106090500Y-75300000I-172500J0D01*
G01*
X105745500Y-75300000D01*
G75*
G02*
X105573000Y-75127500I0J172500D01*
G01*
G37*
G36*
G01*
X104603000Y-75127500D02*
X104603000Y-74732500D01*
G75*
G02*
X104775500Y-74560000I172500J0D01*
G01*
X105120500Y-74560000D01*
G75*
G02*
X105293000Y-74732500I0J-172500D01*
G01*
X105293000Y-75127500D01*
G75*
G02*
X105120500Y-75300000I-172500J0D01*
G01*
X104775500Y-75300000D01*
G75*
G02*
X104603000Y-75127500I0J172500D01*
G01*
G37*
%TD*%
%TO.C,R21*%
G36*
G01*
X105573000Y-73730500D02*
X105573000Y-73335500D01*
G75*
G02*
X105745500Y-73163000I172500J0D01*
G01*
X106090500Y-73163000D01*
G75*
G02*
X106263000Y-73335500I0J-172500D01*
G01*
X106263000Y-73730500D01*
G75*
G02*
X106090500Y-73903000I-172500J0D01*
G01*
X105745500Y-73903000D01*
G75*
G02*
X105573000Y-73730500I0J172500D01*
G01*
G37*
G36*
G01*
X104603000Y-73730500D02*
X104603000Y-73335500D01*
G75*
G02*
X104775500Y-73163000I172500J0D01*
G01*
X105120500Y-73163000D01*
G75*
G02*
X105293000Y-73335500I0J-172500D01*
G01*
X105293000Y-73730500D01*
G75*
G02*
X105120500Y-73903000I-172500J0D01*
G01*
X104775500Y-73903000D01*
G75*
G02*
X104603000Y-73730500I0J172500D01*
G01*
G37*
%TD*%
%TO.C,R20*%
G36*
G01*
X105573000Y-72206500D02*
X105573000Y-71811500D01*
G75*
G02*
X105745500Y-71639000I172500J0D01*
G01*
X106090500Y-71639000D01*
G75*
G02*
X106263000Y-71811500I0J-172500D01*
G01*
X106263000Y-72206500D01*
G75*
G02*
X106090500Y-72379000I-172500J0D01*
G01*
X105745500Y-72379000D01*
G75*
G02*
X105573000Y-72206500I0J172500D01*
G01*
G37*
G36*
G01*
X104603000Y-72206500D02*
X104603000Y-71811500D01*
G75*
G02*
X104775500Y-71639000I172500J0D01*
G01*
X105120500Y-71639000D01*
G75*
G02*
X105293000Y-71811500I0J-172500D01*
G01*
X105293000Y-72206500D01*
G75*
G02*
X105120500Y-72379000I-172500J0D01*
G01*
X104775500Y-72379000D01*
G75*
G02*
X104603000Y-72206500I0J172500D01*
G01*
G37*
%TD*%
%TO.C,R19*%
G36*
G01*
X105573000Y-70682500D02*
X105573000Y-70287500D01*
G75*
G02*
X105745500Y-70115000I172500J0D01*
G01*
X106090500Y-70115000D01*
G75*
G02*
X106263000Y-70287500I0J-172500D01*
G01*
X106263000Y-70682500D01*
G75*
G02*
X106090500Y-70855000I-172500J0D01*
G01*
X105745500Y-70855000D01*
G75*
G02*
X105573000Y-70682500I0J172500D01*
G01*
G37*
G36*
G01*
X104603000Y-70682500D02*
X104603000Y-70287500D01*
G75*
G02*
X104775500Y-70115000I172500J0D01*
G01*
X105120500Y-70115000D01*
G75*
G02*
X105293000Y-70287500I0J-172500D01*
G01*
X105293000Y-70682500D01*
G75*
G02*
X105120500Y-70855000I-172500J0D01*
G01*
X104775500Y-70855000D01*
G75*
G02*
X104603000Y-70682500I0J172500D01*
G01*
G37*
%TD*%
%TO.C,R18*%
G36*
G01*
X103099500Y-69606000D02*
X102704500Y-69606000D01*
G75*
G02*
X102532000Y-69433500I0J172500D01*
G01*
X102532000Y-69088500D01*
G75*
G02*
X102704500Y-68916000I172500J0D01*
G01*
X103099500Y-68916000D01*
G75*
G02*
X103272000Y-69088500I0J-172500D01*
G01*
X103272000Y-69433500D01*
G75*
G02*
X103099500Y-69606000I-172500J0D01*
G01*
G37*
G36*
G01*
X103099500Y-70576000D02*
X102704500Y-70576000D01*
G75*
G02*
X102532000Y-70403500I0J172500D01*
G01*
X102532000Y-70058500D01*
G75*
G02*
X102704500Y-69886000I172500J0D01*
G01*
X103099500Y-69886000D01*
G75*
G02*
X103272000Y-70058500I0J-172500D01*
G01*
X103272000Y-70403500D01*
G75*
G02*
X103099500Y-70576000I-172500J0D01*
G01*
G37*
%TD*%
%TO.C,R17*%
G36*
G01*
X102582000Y-68269500D02*
X102582000Y-67874500D01*
G75*
G02*
X102754500Y-67702000I172500J0D01*
G01*
X103099500Y-67702000D01*
G75*
G02*
X103272000Y-67874500I0J-172500D01*
G01*
X103272000Y-68269500D01*
G75*
G02*
X103099500Y-68442000I-172500J0D01*
G01*
X102754500Y-68442000D01*
G75*
G02*
X102582000Y-68269500I0J172500D01*
G01*
G37*
G36*
G01*
X101612000Y-68269500D02*
X101612000Y-67874500D01*
G75*
G02*
X101784500Y-67702000I172500J0D01*
G01*
X102129500Y-67702000D01*
G75*
G02*
X102302000Y-67874500I0J-172500D01*
G01*
X102302000Y-68269500D01*
G75*
G02*
X102129500Y-68442000I-172500J0D01*
G01*
X101784500Y-68442000D01*
G75*
G02*
X101612000Y-68269500I0J172500D01*
G01*
G37*
%TD*%
%TO.C,R16*%
G36*
G01*
X102582000Y-74365500D02*
X102582000Y-73970500D01*
G75*
G02*
X102754500Y-73798000I172500J0D01*
G01*
X103099500Y-73798000D01*
G75*
G02*
X103272000Y-73970500I0J-172500D01*
G01*
X103272000Y-74365500D01*
G75*
G02*
X103099500Y-74538000I-172500J0D01*
G01*
X102754500Y-74538000D01*
G75*
G02*
X102582000Y-74365500I0J172500D01*
G01*
G37*
G36*
G01*
X101612000Y-74365500D02*
X101612000Y-73970500D01*
G75*
G02*
X101784500Y-73798000I172500J0D01*
G01*
X102129500Y-73798000D01*
G75*
G02*
X102302000Y-73970500I0J-172500D01*
G01*
X102302000Y-74365500D01*
G75*
G02*
X102129500Y-74538000I-172500J0D01*
G01*
X101784500Y-74538000D01*
G75*
G02*
X101612000Y-74365500I0J172500D01*
G01*
G37*
%TD*%
D12*
%TO.C,J4*%
X141732000Y-72136000D03*
X141732000Y-74676000D03*
X141732000Y-77216000D03*
X141732000Y-79756000D03*
X141732000Y-82296000D03*
X141732000Y-84836000D03*
X141732000Y-87376000D03*
X141732000Y-89916000D03*
X141732000Y-92456000D03*
X141732000Y-94996000D03*
X141732000Y-97536000D03*
D13*
X141732000Y-100076000D03*
%TD*%
D14*
%TO.C,J3*%
X94869000Y-79414000D03*
X94869000Y-73914000D03*
X92869000Y-71514000D03*
%TD*%
D12*
%TO.C,J2*%
X101854000Y-63754000D03*
D13*
X104394000Y-63754000D03*
%TD*%
D12*
%TO.C,J1*%
X119507000Y-58293000D03*
X116967000Y-58293000D03*
X119507000Y-55753000D03*
X116967000Y-55753000D03*
X119507000Y-53213000D03*
D13*
X116967000Y-53213000D03*
%TD*%
%TO.C,C58*%
G36*
G01*
X102582000Y-75889500D02*
X102582000Y-75494500D01*
G75*
G02*
X102754500Y-75322000I172500J0D01*
G01*
X103099500Y-75322000D01*
G75*
G02*
X103272000Y-75494500I0J-172500D01*
G01*
X103272000Y-75889500D01*
G75*
G02*
X103099500Y-76062000I-172500J0D01*
G01*
X102754500Y-76062000D01*
G75*
G02*
X102582000Y-75889500I0J172500D01*
G01*
G37*
G36*
G01*
X101612000Y-75889500D02*
X101612000Y-75494500D01*
G75*
G02*
X101784500Y-75322000I172500J0D01*
G01*
X102129500Y-75322000D01*
G75*
G02*
X102302000Y-75494500I0J-172500D01*
G01*
X102302000Y-75889500D01*
G75*
G02*
X102129500Y-76062000I-172500J0D01*
G01*
X101784500Y-76062000D01*
G75*
G02*
X101612000Y-75889500I0J172500D01*
G01*
G37*
%TD*%
%TO.C,C57*%
G36*
G01*
X102629000Y-78429500D02*
X102629000Y-78034500D01*
G75*
G02*
X102801500Y-77862000I172500J0D01*
G01*
X103146500Y-77862000D01*
G75*
G02*
X103319000Y-78034500I0J-172500D01*
G01*
X103319000Y-78429500D01*
G75*
G02*
X103146500Y-78602000I-172500J0D01*
G01*
X102801500Y-78602000D01*
G75*
G02*
X102629000Y-78429500I0J172500D01*
G01*
G37*
G36*
G01*
X101659000Y-78429500D02*
X101659000Y-78034500D01*
G75*
G02*
X101831500Y-77862000I172500J0D01*
G01*
X102176500Y-77862000D01*
G75*
G02*
X102349000Y-78034500I0J-172500D01*
G01*
X102349000Y-78429500D01*
G75*
G02*
X102176500Y-78602000I-172500J0D01*
G01*
X101831500Y-78602000D01*
G75*
G02*
X101659000Y-78429500I0J172500D01*
G01*
G37*
%TD*%
M02*
