%TF.GenerationSoftware,KiCad,Pcbnew,(5.1.6)-1*%
%TF.CreationDate,2020-09-22T21:50:49+03:00*%
%TF.ProjectId,AY devboard,41592064-6576-4626-9f61-72642e6b6963,rev?*%
%TF.SameCoordinates,Original*%
%TF.FileFunction,Soldermask,Bot*%
%TF.FilePolarity,Negative*%
%FSLAX46Y46*%
G04 Gerber Fmt 4.6, Leading zero omitted, Abs format (unit mm)*
G04 Created by KiCad (PCBNEW (5.1.6)-1) date 2020-09-22 21:50:49*
%MOMM*%
%LPD*%
G01*
G04 APERTURE LIST*
%ADD10O,1.700000X1.700000*%
%ADD11R,1.700000X1.700000*%
%ADD12O,1.800000X1.800000*%
%ADD13R,1.800000X1.800000*%
%ADD14C,2.900000*%
G04 APERTURE END LIST*
D10*
%TO.C,U2*%
X126104000Y-65520000D03*
X110864000Y-113780000D03*
X126104000Y-68060000D03*
X110864000Y-111240000D03*
X126104000Y-70600000D03*
X110864000Y-108700000D03*
X126104000Y-73140000D03*
X110864000Y-106160000D03*
X126104000Y-75680000D03*
X110864000Y-103620000D03*
X126104000Y-78220000D03*
X110864000Y-101080000D03*
X126104000Y-80760000D03*
X110864000Y-98540000D03*
X126104000Y-83300000D03*
X110864000Y-96000000D03*
X126104000Y-85840000D03*
X110864000Y-93460000D03*
X126104000Y-88380000D03*
X110864000Y-90920000D03*
X126104000Y-90920000D03*
X110864000Y-88380000D03*
X126104000Y-93460000D03*
X110864000Y-85840000D03*
X126104000Y-96000000D03*
X110864000Y-83300000D03*
X126104000Y-98540000D03*
X110864000Y-80760000D03*
X126104000Y-101080000D03*
X110864000Y-78220000D03*
X126104000Y-103620000D03*
X110864000Y-75680000D03*
X126104000Y-106160000D03*
X110864000Y-73140000D03*
X126104000Y-108700000D03*
X110864000Y-70600000D03*
X126104000Y-111240000D03*
X110864000Y-68060000D03*
X126104000Y-113780000D03*
D11*
X110864000Y-65520000D03*
%TD*%
D12*
%TO.C,J4*%
X141732000Y-72136000D03*
X141732000Y-74676000D03*
X141732000Y-77216000D03*
X141732000Y-79756000D03*
X141732000Y-82296000D03*
X141732000Y-84836000D03*
X141732000Y-87376000D03*
X141732000Y-89916000D03*
X141732000Y-92456000D03*
X141732000Y-94996000D03*
X141732000Y-97536000D03*
D13*
X141732000Y-100076000D03*
%TD*%
D14*
%TO.C,J3*%
X94869000Y-79414000D03*
X94869000Y-73914000D03*
X92869000Y-71514000D03*
%TD*%
D12*
%TO.C,J2*%
X101854000Y-63754000D03*
D13*
X104394000Y-63754000D03*
%TD*%
D12*
%TO.C,J1*%
X119507000Y-58293000D03*
X116967000Y-58293000D03*
X119507000Y-55753000D03*
X116967000Y-55753000D03*
X119507000Y-53213000D03*
D13*
X116967000Y-53213000D03*
%TD*%
M02*
