%TF.GenerationSoftware,KiCad,Pcbnew,(5.1.6)-1*%
%TF.CreationDate,2020-09-22T21:50:49+03:00*%
%TF.ProjectId,AY devboard,41592064-6576-4626-9f61-72642e6b6963,rev?*%
%TF.SameCoordinates,Original*%
%TF.FileFunction,Copper,L1,Top*%
%TF.FilePolarity,Positive*%
%FSLAX46Y46*%
G04 Gerber Fmt 4.6, Leading zero omitted, Abs format (unit mm)*
G04 Created by KiCad (PCBNEW (5.1.6)-1) date 2020-09-22 21:50:49*
%MOMM*%
%LPD*%
G01*
G04 APERTURE LIST*
%TA.AperFunction,ComponentPad*%
%ADD10O,1.600000X1.600000*%
%TD*%
%TA.AperFunction,ComponentPad*%
%ADD11R,1.600000X1.600000*%
%TD*%
%TA.AperFunction,ComponentPad*%
%ADD12O,1.700000X1.700000*%
%TD*%
%TA.AperFunction,ComponentPad*%
%ADD13R,1.700000X1.700000*%
%TD*%
%TA.AperFunction,ComponentPad*%
%ADD14C,2.800000*%
%TD*%
%TA.AperFunction,ViaPad*%
%ADD15C,0.800000*%
%TD*%
%TA.AperFunction,Conductor*%
%ADD16C,0.250000*%
%TD*%
G04 APERTURE END LIST*
D10*
%TO.P,U2,40*%
%TO.N,+5V*%
X126104000Y-65520000D03*
%TO.P,U2,20*%
%TO.N,N/C*%
X110864000Y-113780000D03*
%TO.P,U2,39*%
X126104000Y-68060000D03*
%TO.P,U2,19*%
X110864000Y-111240000D03*
%TO.P,U2,38*%
%TO.N,Net-(R20-Pad2)*%
X126104000Y-70600000D03*
%TO.P,U2,18*%
%TO.N,N/C*%
X110864000Y-108700000D03*
%TO.P,U2,37*%
%TO.N,/D0*%
X126104000Y-73140000D03*
%TO.P,U2,17*%
%TO.N,N/C*%
X110864000Y-106160000D03*
%TO.P,U2,36*%
%TO.N,/D1*%
X126104000Y-75680000D03*
%TO.P,U2,16*%
%TO.N,N/C*%
X110864000Y-103620000D03*
%TO.P,U2,35*%
%TO.N,/D2*%
X126104000Y-78220000D03*
%TO.P,U2,15*%
%TO.N,N/C*%
X110864000Y-101080000D03*
%TO.P,U2,34*%
%TO.N,/D3*%
X126104000Y-80760000D03*
%TO.P,U2,14*%
%TO.N,N/C*%
X110864000Y-98540000D03*
%TO.P,U2,33*%
%TO.N,/D4*%
X126104000Y-83300000D03*
%TO.P,U2,13*%
%TO.N,N/C*%
X110864000Y-96000000D03*
%TO.P,U2,32*%
%TO.N,/D5*%
X126104000Y-85840000D03*
%TO.P,U2,12*%
%TO.N,N/C*%
X110864000Y-93460000D03*
%TO.P,U2,31*%
%TO.N,/D6*%
X126104000Y-88380000D03*
%TO.P,U2,11*%
%TO.N,N/C*%
X110864000Y-90920000D03*
%TO.P,U2,30*%
%TO.N,/D7*%
X126104000Y-90920000D03*
%TO.P,U2,10*%
%TO.N,N/C*%
X110864000Y-88380000D03*
%TO.P,U2,29*%
%TO.N,/BC1*%
X126104000Y-93460000D03*
%TO.P,U2,9*%
%TO.N,N/C*%
X110864000Y-85840000D03*
%TO.P,U2,28*%
%TO.N,+5V*%
X126104000Y-96000000D03*
%TO.P,U2,8*%
%TO.N,N/C*%
X110864000Y-83300000D03*
%TO.P,U2,27*%
%TO.N,/BDIR*%
X126104000Y-98540000D03*
%TO.P,U2,7*%
%TO.N,N/C*%
X110864000Y-80760000D03*
%TO.P,U2,26*%
X126104000Y-101080000D03*
%TO.P,U2,6*%
X110864000Y-78220000D03*
%TO.P,U2,25*%
%TO.N,+5V*%
X126104000Y-103620000D03*
%TO.P,U2,5*%
%TO.N,N/C*%
X110864000Y-75680000D03*
%TO.P,U2,24*%
%TO.N,GND*%
X126104000Y-106160000D03*
%TO.P,U2,4*%
%TO.N,Net-(R21-Pad2)*%
X110864000Y-73140000D03*
%TO.P,U2,23*%
%TO.N,/~RESET*%
X126104000Y-108700000D03*
%TO.P,U2,3*%
%TO.N,Net-(R19-Pad2)*%
X110864000Y-70600000D03*
%TO.P,U2,22*%
%TO.N,/CLOCK*%
X126104000Y-111240000D03*
%TO.P,U2,2*%
%TO.N,N/C*%
X110864000Y-68060000D03*
%TO.P,U2,21*%
X126104000Y-113780000D03*
D11*
%TO.P,U2,1*%
%TO.N,GND*%
X110864000Y-65520000D03*
%TD*%
%TO.P,R23,2*%
%TO.N,GND*%
%TA.AperFunction,SMDPad,CuDef*%
G36*
G01*
X103074500Y-72350000D02*
X102729500Y-72350000D01*
G75*
G02*
X102582000Y-72202500I0J147500D01*
G01*
X102582000Y-71907500D01*
G75*
G02*
X102729500Y-71760000I147500J0D01*
G01*
X103074500Y-71760000D01*
G75*
G02*
X103222000Y-71907500I0J-147500D01*
G01*
X103222000Y-72202500D01*
G75*
G02*
X103074500Y-72350000I-147500J0D01*
G01*
G37*
%TD.AperFunction*%
%TO.P,R23,1*%
%TO.N,Net-(C58-Pad2)*%
%TA.AperFunction,SMDPad,CuDef*%
G36*
G01*
X103074500Y-73320000D02*
X102729500Y-73320000D01*
G75*
G02*
X102582000Y-73172500I0J147500D01*
G01*
X102582000Y-72877500D01*
G75*
G02*
X102729500Y-72730000I147500J0D01*
G01*
X103074500Y-72730000D01*
G75*
G02*
X103222000Y-72877500I0J-147500D01*
G01*
X103222000Y-73172500D01*
G75*
G02*
X103074500Y-73320000I-147500J0D01*
G01*
G37*
%TD.AperFunction*%
%TD*%
%TO.P,R22,2*%
%TO.N,Net-(R21-Pad2)*%
%TA.AperFunction,SMDPad,CuDef*%
G36*
G01*
X105623000Y-75102500D02*
X105623000Y-74757500D01*
G75*
G02*
X105770500Y-74610000I147500J0D01*
G01*
X106065500Y-74610000D01*
G75*
G02*
X106213000Y-74757500I0J-147500D01*
G01*
X106213000Y-75102500D01*
G75*
G02*
X106065500Y-75250000I-147500J0D01*
G01*
X105770500Y-75250000D01*
G75*
G02*
X105623000Y-75102500I0J147500D01*
G01*
G37*
%TD.AperFunction*%
%TO.P,R22,1*%
%TO.N,Net-(C57-Pad2)*%
%TA.AperFunction,SMDPad,CuDef*%
G36*
G01*
X104653000Y-75102500D02*
X104653000Y-74757500D01*
G75*
G02*
X104800500Y-74610000I147500J0D01*
G01*
X105095500Y-74610000D01*
G75*
G02*
X105243000Y-74757500I0J-147500D01*
G01*
X105243000Y-75102500D01*
G75*
G02*
X105095500Y-75250000I-147500J0D01*
G01*
X104800500Y-75250000D01*
G75*
G02*
X104653000Y-75102500I0J147500D01*
G01*
G37*
%TD.AperFunction*%
%TD*%
%TO.P,R21,2*%
%TO.N,Net-(R21-Pad2)*%
%TA.AperFunction,SMDPad,CuDef*%
G36*
G01*
X105623000Y-73705500D02*
X105623000Y-73360500D01*
G75*
G02*
X105770500Y-73213000I147500J0D01*
G01*
X106065500Y-73213000D01*
G75*
G02*
X106213000Y-73360500I0J-147500D01*
G01*
X106213000Y-73705500D01*
G75*
G02*
X106065500Y-73853000I-147500J0D01*
G01*
X105770500Y-73853000D01*
G75*
G02*
X105623000Y-73705500I0J147500D01*
G01*
G37*
%TD.AperFunction*%
%TO.P,R21,1*%
%TO.N,Net-(C58-Pad2)*%
%TA.AperFunction,SMDPad,CuDef*%
G36*
G01*
X104653000Y-73705500D02*
X104653000Y-73360500D01*
G75*
G02*
X104800500Y-73213000I147500J0D01*
G01*
X105095500Y-73213000D01*
G75*
G02*
X105243000Y-73360500I0J-147500D01*
G01*
X105243000Y-73705500D01*
G75*
G02*
X105095500Y-73853000I-147500J0D01*
G01*
X104800500Y-73853000D01*
G75*
G02*
X104653000Y-73705500I0J147500D01*
G01*
G37*
%TD.AperFunction*%
%TD*%
%TO.P,R20,2*%
%TO.N,Net-(R20-Pad2)*%
%TA.AperFunction,SMDPad,CuDef*%
G36*
G01*
X105623000Y-72181500D02*
X105623000Y-71836500D01*
G75*
G02*
X105770500Y-71689000I147500J0D01*
G01*
X106065500Y-71689000D01*
G75*
G02*
X106213000Y-71836500I0J-147500D01*
G01*
X106213000Y-72181500D01*
G75*
G02*
X106065500Y-72329000I-147500J0D01*
G01*
X105770500Y-72329000D01*
G75*
G02*
X105623000Y-72181500I0J147500D01*
G01*
G37*
%TD.AperFunction*%
%TO.P,R20,1*%
%TO.N,Net-(C58-Pad2)*%
%TA.AperFunction,SMDPad,CuDef*%
G36*
G01*
X104653000Y-72181500D02*
X104653000Y-71836500D01*
G75*
G02*
X104800500Y-71689000I147500J0D01*
G01*
X105095500Y-71689000D01*
G75*
G02*
X105243000Y-71836500I0J-147500D01*
G01*
X105243000Y-72181500D01*
G75*
G02*
X105095500Y-72329000I-147500J0D01*
G01*
X104800500Y-72329000D01*
G75*
G02*
X104653000Y-72181500I0J147500D01*
G01*
G37*
%TD.AperFunction*%
%TD*%
%TO.P,R19,2*%
%TO.N,Net-(R19-Pad2)*%
%TA.AperFunction,SMDPad,CuDef*%
G36*
G01*
X105623000Y-70657500D02*
X105623000Y-70312500D01*
G75*
G02*
X105770500Y-70165000I147500J0D01*
G01*
X106065500Y-70165000D01*
G75*
G02*
X106213000Y-70312500I0J-147500D01*
G01*
X106213000Y-70657500D01*
G75*
G02*
X106065500Y-70805000I-147500J0D01*
G01*
X105770500Y-70805000D01*
G75*
G02*
X105623000Y-70657500I0J147500D01*
G01*
G37*
%TD.AperFunction*%
%TO.P,R19,1*%
%TO.N,Net-(C57-Pad2)*%
%TA.AperFunction,SMDPad,CuDef*%
G36*
G01*
X104653000Y-70657500D02*
X104653000Y-70312500D01*
G75*
G02*
X104800500Y-70165000I147500J0D01*
G01*
X105095500Y-70165000D01*
G75*
G02*
X105243000Y-70312500I0J-147500D01*
G01*
X105243000Y-70657500D01*
G75*
G02*
X105095500Y-70805000I-147500J0D01*
G01*
X104800500Y-70805000D01*
G75*
G02*
X104653000Y-70657500I0J147500D01*
G01*
G37*
%TD.AperFunction*%
%TD*%
%TO.P,R18,2*%
%TO.N,Net-(C57-Pad2)*%
%TA.AperFunction,SMDPad,CuDef*%
G36*
G01*
X103074500Y-69556000D02*
X102729500Y-69556000D01*
G75*
G02*
X102582000Y-69408500I0J147500D01*
G01*
X102582000Y-69113500D01*
G75*
G02*
X102729500Y-68966000I147500J0D01*
G01*
X103074500Y-68966000D01*
G75*
G02*
X103222000Y-69113500I0J-147500D01*
G01*
X103222000Y-69408500D01*
G75*
G02*
X103074500Y-69556000I-147500J0D01*
G01*
G37*
%TD.AperFunction*%
%TO.P,R18,1*%
%TO.N,GND*%
%TA.AperFunction,SMDPad,CuDef*%
G36*
G01*
X103074500Y-70526000D02*
X102729500Y-70526000D01*
G75*
G02*
X102582000Y-70378500I0J147500D01*
G01*
X102582000Y-70083500D01*
G75*
G02*
X102729500Y-69936000I147500J0D01*
G01*
X103074500Y-69936000D01*
G75*
G02*
X103222000Y-70083500I0J-147500D01*
G01*
X103222000Y-70378500D01*
G75*
G02*
X103074500Y-70526000I-147500J0D01*
G01*
G37*
%TD.AperFunction*%
%TD*%
%TO.P,R17,2*%
%TO.N,Net-(C57-Pad2)*%
%TA.AperFunction,SMDPad,CuDef*%
G36*
G01*
X102632000Y-68244500D02*
X102632000Y-67899500D01*
G75*
G02*
X102779500Y-67752000I147500J0D01*
G01*
X103074500Y-67752000D01*
G75*
G02*
X103222000Y-67899500I0J-147500D01*
G01*
X103222000Y-68244500D01*
G75*
G02*
X103074500Y-68392000I-147500J0D01*
G01*
X102779500Y-68392000D01*
G75*
G02*
X102632000Y-68244500I0J147500D01*
G01*
G37*
%TD.AperFunction*%
%TO.P,R17,1*%
%TO.N,Net-(J2-Pad2)*%
%TA.AperFunction,SMDPad,CuDef*%
G36*
G01*
X101662000Y-68244500D02*
X101662000Y-67899500D01*
G75*
G02*
X101809500Y-67752000I147500J0D01*
G01*
X102104500Y-67752000D01*
G75*
G02*
X102252000Y-67899500I0J-147500D01*
G01*
X102252000Y-68244500D01*
G75*
G02*
X102104500Y-68392000I-147500J0D01*
G01*
X101809500Y-68392000D01*
G75*
G02*
X101662000Y-68244500I0J147500D01*
G01*
G37*
%TD.AperFunction*%
%TD*%
%TO.P,R16,2*%
%TO.N,Net-(C58-Pad2)*%
%TA.AperFunction,SMDPad,CuDef*%
G36*
G01*
X102632000Y-74340500D02*
X102632000Y-73995500D01*
G75*
G02*
X102779500Y-73848000I147500J0D01*
G01*
X103074500Y-73848000D01*
G75*
G02*
X103222000Y-73995500I0J-147500D01*
G01*
X103222000Y-74340500D01*
G75*
G02*
X103074500Y-74488000I-147500J0D01*
G01*
X102779500Y-74488000D01*
G75*
G02*
X102632000Y-74340500I0J147500D01*
G01*
G37*
%TD.AperFunction*%
%TO.P,R16,1*%
%TO.N,Net-(J2-Pad2)*%
%TA.AperFunction,SMDPad,CuDef*%
G36*
G01*
X101662000Y-74340500D02*
X101662000Y-73995500D01*
G75*
G02*
X101809500Y-73848000I147500J0D01*
G01*
X102104500Y-73848000D01*
G75*
G02*
X102252000Y-73995500I0J-147500D01*
G01*
X102252000Y-74340500D01*
G75*
G02*
X102104500Y-74488000I-147500J0D01*
G01*
X101809500Y-74488000D01*
G75*
G02*
X101662000Y-74340500I0J147500D01*
G01*
G37*
%TD.AperFunction*%
%TD*%
D12*
%TO.P,J4,12*%
%TO.N,/D0*%
X141732000Y-72136000D03*
%TO.P,J4,11*%
%TO.N,/D1*%
X141732000Y-74676000D03*
%TO.P,J4,10*%
%TO.N,/D2*%
X141732000Y-77216000D03*
%TO.P,J4,9*%
%TO.N,/D3*%
X141732000Y-79756000D03*
%TO.P,J4,8*%
%TO.N,/D4*%
X141732000Y-82296000D03*
%TO.P,J4,7*%
%TO.N,/D5*%
X141732000Y-84836000D03*
%TO.P,J4,6*%
%TO.N,/D6*%
X141732000Y-87376000D03*
%TO.P,J4,5*%
%TO.N,/D7*%
X141732000Y-89916000D03*
%TO.P,J4,4*%
%TO.N,/BDIR*%
X141732000Y-92456000D03*
%TO.P,J4,3*%
%TO.N,/BC1*%
X141732000Y-94996000D03*
%TO.P,J4,2*%
%TO.N,/CLOCK*%
X141732000Y-97536000D03*
D13*
%TO.P,J4,1*%
%TO.N,/~RESET*%
X141732000Y-100076000D03*
%TD*%
D14*
%TO.P,J3,R*%
%TO.N,Net-(C57-Pad1)*%
X94869000Y-79414000D03*
%TO.P,J3,T*%
%TO.N,Net-(C58-Pad1)*%
X94869000Y-73914000D03*
%TO.P,J3,S*%
%TO.N,GND*%
X92869000Y-71514000D03*
%TD*%
D12*
%TO.P,J2,2*%
%TO.N,Net-(J2-Pad2)*%
X101854000Y-63754000D03*
D13*
%TO.P,J2,1*%
%TO.N,GND*%
X104394000Y-63754000D03*
%TD*%
D12*
%TO.P,J1,6*%
%TO.N,+5V*%
X119507000Y-58293000D03*
%TO.P,J1,5*%
%TO.N,GND*%
X116967000Y-58293000D03*
%TO.P,J1,4*%
%TO.N,+5V*%
X119507000Y-55753000D03*
%TO.P,J1,3*%
%TO.N,GND*%
X116967000Y-55753000D03*
%TO.P,J1,2*%
%TO.N,+5V*%
X119507000Y-53213000D03*
D13*
%TO.P,J1,1*%
%TO.N,GND*%
X116967000Y-53213000D03*
%TD*%
%TO.P,C58,2*%
%TO.N,Net-(C58-Pad2)*%
%TA.AperFunction,SMDPad,CuDef*%
G36*
G01*
X102632000Y-75864500D02*
X102632000Y-75519500D01*
G75*
G02*
X102779500Y-75372000I147500J0D01*
G01*
X103074500Y-75372000D01*
G75*
G02*
X103222000Y-75519500I0J-147500D01*
G01*
X103222000Y-75864500D01*
G75*
G02*
X103074500Y-76012000I-147500J0D01*
G01*
X102779500Y-76012000D01*
G75*
G02*
X102632000Y-75864500I0J147500D01*
G01*
G37*
%TD.AperFunction*%
%TO.P,C58,1*%
%TO.N,Net-(C58-Pad1)*%
%TA.AperFunction,SMDPad,CuDef*%
G36*
G01*
X101662000Y-75864500D02*
X101662000Y-75519500D01*
G75*
G02*
X101809500Y-75372000I147500J0D01*
G01*
X102104500Y-75372000D01*
G75*
G02*
X102252000Y-75519500I0J-147500D01*
G01*
X102252000Y-75864500D01*
G75*
G02*
X102104500Y-76012000I-147500J0D01*
G01*
X101809500Y-76012000D01*
G75*
G02*
X101662000Y-75864500I0J147500D01*
G01*
G37*
%TD.AperFunction*%
%TD*%
%TO.P,C57,2*%
%TO.N,Net-(C57-Pad2)*%
%TA.AperFunction,SMDPad,CuDef*%
G36*
G01*
X102679000Y-78404500D02*
X102679000Y-78059500D01*
G75*
G02*
X102826500Y-77912000I147500J0D01*
G01*
X103121500Y-77912000D01*
G75*
G02*
X103269000Y-78059500I0J-147500D01*
G01*
X103269000Y-78404500D01*
G75*
G02*
X103121500Y-78552000I-147500J0D01*
G01*
X102826500Y-78552000D01*
G75*
G02*
X102679000Y-78404500I0J147500D01*
G01*
G37*
%TD.AperFunction*%
%TO.P,C57,1*%
%TO.N,Net-(C57-Pad1)*%
%TA.AperFunction,SMDPad,CuDef*%
G36*
G01*
X101709000Y-78404500D02*
X101709000Y-78059500D01*
G75*
G02*
X101856500Y-77912000I147500J0D01*
G01*
X102151500Y-77912000D01*
G75*
G02*
X102299000Y-78059500I0J-147500D01*
G01*
X102299000Y-78404500D01*
G75*
G02*
X102151500Y-78552000I-147500J0D01*
G01*
X101856500Y-78552000D01*
G75*
G02*
X101709000Y-78404500I0J147500D01*
G01*
G37*
%TD.AperFunction*%
%TD*%
D15*
%TO.N,Net-(C57-Pad2)*%
X105156000Y-68961000D03*
X104827000Y-76379000D03*
%TO.N,Net-(J2-Pad2)*%
X100965000Y-72898000D03*
%TD*%
D16*
%TO.N,Net-(C57-Pad2)*%
X103724000Y-69261000D02*
X102902000Y-69261000D01*
X104948000Y-70485000D02*
X103724000Y-69261000D01*
X102902000Y-68097000D02*
X102927000Y-68072000D01*
X102902000Y-69261000D02*
X102902000Y-68097000D01*
X104948000Y-76258000D02*
X104827000Y-76379000D01*
X104948000Y-74930000D02*
X104948000Y-76258000D01*
X104948000Y-70165000D02*
X105156000Y-69957000D01*
X104948000Y-70485000D02*
X104948000Y-70165000D01*
X105156000Y-69957000D02*
X105156000Y-68961000D01*
X105156000Y-68961000D02*
X105156000Y-68961000D01*
X104827000Y-76379000D02*
X102974000Y-78232000D01*
%TO.N,Net-(C57-Pad1)*%
X96051000Y-78232000D02*
X94869000Y-79414000D01*
X102004000Y-78232000D02*
X96051000Y-78232000D01*
%TO.N,Net-(C58-Pad2)*%
X104948000Y-72009000D02*
X104948000Y-73533000D01*
X103410000Y-73533000D02*
X102902000Y-73025000D01*
X104948000Y-73533000D02*
X103410000Y-73533000D01*
X102902000Y-74143000D02*
X102927000Y-74168000D01*
X102902000Y-73025000D02*
X102902000Y-74143000D01*
X102927000Y-74168000D02*
X102927000Y-75692000D01*
%TO.N,Net-(C58-Pad1)*%
X96647000Y-75692000D02*
X94869000Y-73914000D01*
X101957000Y-75692000D02*
X96647000Y-75692000D01*
%TO.N,+5V*%
X119507000Y-58923000D02*
X119507000Y-58293000D01*
X126104000Y-65520000D02*
X119507000Y-58923000D01*
X119507000Y-58293000D02*
X119507000Y-55753000D01*
X119507000Y-55753000D02*
X119507000Y-53213000D01*
%TO.N,GND*%
X110864000Y-64396000D02*
X110864000Y-65520000D01*
X116967000Y-58293000D02*
X110864000Y-64396000D01*
X106160000Y-65520000D02*
X104394000Y-63754000D01*
X110864000Y-65520000D02*
X106160000Y-65520000D01*
X102902000Y-72055000D02*
X102902000Y-70231000D01*
X102361000Y-71514000D02*
X102902000Y-72055000D01*
X92869000Y-71514000D02*
X102361000Y-71514000D01*
X116967000Y-53213000D02*
X116967000Y-55753000D01*
X116967000Y-55753000D02*
X116967000Y-58293000D01*
%TO.N,Net-(J2-Pad2)*%
X100965000Y-73176000D02*
X101957000Y-74168000D01*
X100965000Y-72898000D02*
X100965000Y-73176000D01*
X101957000Y-63857000D02*
X101854000Y-63754000D01*
X101957000Y-68072000D02*
X101957000Y-63857000D01*
%TO.N,/D0*%
X140728000Y-73140000D02*
X141732000Y-72136000D01*
X126104000Y-73140000D02*
X140728000Y-73140000D01*
%TO.N,/D1*%
X140728000Y-75680000D02*
X141732000Y-74676000D01*
X126104000Y-75680000D02*
X140728000Y-75680000D01*
%TO.N,/D2*%
X140728000Y-78220000D02*
X141732000Y-77216000D01*
X126104000Y-78220000D02*
X140728000Y-78220000D01*
%TO.N,/D3*%
X140728000Y-80760000D02*
X141732000Y-79756000D01*
X126104000Y-80760000D02*
X140728000Y-80760000D01*
%TO.N,/D4*%
X140728000Y-83300000D02*
X141732000Y-82296000D01*
X126104000Y-83300000D02*
X140728000Y-83300000D01*
%TO.N,/D5*%
X140728000Y-85840000D02*
X141732000Y-84836000D01*
X126104000Y-85840000D02*
X140728000Y-85840000D01*
%TO.N,/D6*%
X140728000Y-88380000D02*
X141732000Y-87376000D01*
X126104000Y-88380000D02*
X140728000Y-88380000D01*
%TO.N,/D7*%
X140728000Y-90920000D02*
X141732000Y-89916000D01*
X126104000Y-90920000D02*
X140728000Y-90920000D01*
%TO.N,/BC1*%
X140196000Y-93460000D02*
X141732000Y-94996000D01*
X126104000Y-93460000D02*
X140196000Y-93460000D01*
%TO.N,/CLOCK*%
X128028000Y-111240000D02*
X141732000Y-97536000D01*
X126104000Y-111240000D02*
X128028000Y-111240000D01*
%TO.N,Net-(R19-Pad2)*%
X106033000Y-70600000D02*
X105918000Y-70485000D01*
X110864000Y-70600000D02*
X106033000Y-70600000D01*
%TO.N,Net-(R20-Pad2)*%
X124695000Y-72009000D02*
X105918000Y-72009000D01*
X126104000Y-70600000D02*
X124695000Y-72009000D01*
%TO.N,Net-(R21-Pad2)*%
X106311000Y-73140000D02*
X105918000Y-73533000D01*
X110864000Y-73140000D02*
X106311000Y-73140000D01*
X105918000Y-73533000D02*
X105918000Y-74930000D01*
%TD*%
M02*
