%TF.GenerationSoftware,KiCad,Pcbnew,(5.1.6)-1*%
%TF.CreationDate,2020-09-22T21:50:49+03:00*%
%TF.ProjectId,AY devboard,41592064-6576-4626-9f61-72642e6b6963,rev?*%
%TF.SameCoordinates,Original*%
%TF.FileFunction,Legend,Top*%
%TF.FilePolarity,Positive*%
%FSLAX46Y46*%
G04 Gerber Fmt 4.6, Leading zero omitted, Abs format (unit mm)*
G04 Created by KiCad (PCBNEW (5.1.6)-1) date 2020-09-22 21:50:49*
%MOMM*%
%LPD*%
G01*
G04 APERTURE LIST*
%ADD10C,0.150000*%
%ADD11C,0.300000*%
%ADD12C,0.120000*%
G04 APERTURE END LIST*
D10*
X117397280Y-87397647D02*
X118111566Y-87397647D01*
X118254423Y-87445266D01*
X118349661Y-87540504D01*
X118397280Y-87683361D01*
X118397280Y-87778600D01*
X118397280Y-86445266D02*
X118397280Y-86921457D01*
X117397280Y-86921457D01*
X118302042Y-85540504D02*
X118349661Y-85588123D01*
X118397280Y-85730980D01*
X118397280Y-85826219D01*
X118349661Y-85969076D01*
X118254423Y-86064314D01*
X118159185Y-86111933D01*
X117968709Y-86159552D01*
X117825852Y-86159552D01*
X117635376Y-86111933D01*
X117540138Y-86064314D01*
X117444900Y-85969076D01*
X117397280Y-85826219D01*
X117397280Y-85730980D01*
X117444900Y-85588123D01*
X117492519Y-85540504D01*
X117397280Y-84826219D02*
X118111566Y-84826219D01*
X118254423Y-84873838D01*
X118349661Y-84969076D01*
X118397280Y-85111933D01*
X118397280Y-85207171D01*
X118397280Y-83873838D02*
X118397280Y-84350028D01*
X117397280Y-84350028D01*
X118302042Y-82969076D02*
X118349661Y-83016695D01*
X118397280Y-83159552D01*
X118397280Y-83254790D01*
X118349661Y-83397647D01*
X118254423Y-83492885D01*
X118159185Y-83540504D01*
X117968709Y-83588123D01*
X117825852Y-83588123D01*
X117635376Y-83540504D01*
X117540138Y-83492885D01*
X117444900Y-83397647D01*
X117397280Y-83254790D01*
X117397280Y-83159552D01*
X117444900Y-83016695D01*
X117492519Y-82969076D01*
X117397280Y-82254790D02*
X118111566Y-82254790D01*
X118254423Y-82302409D01*
X118349661Y-82397647D01*
X118397280Y-82540504D01*
X118397280Y-82635742D01*
X118397280Y-81302409D02*
X118397280Y-81778600D01*
X117397280Y-81778600D01*
X118302042Y-80397647D02*
X118349661Y-80445266D01*
X118397280Y-80588123D01*
X118397280Y-80683361D01*
X118349661Y-80826219D01*
X118254423Y-80921457D01*
X118159185Y-80969076D01*
X117968709Y-81016695D01*
X117825852Y-81016695D01*
X117635376Y-80969076D01*
X117540138Y-80921457D01*
X117444900Y-80826219D01*
X117397280Y-80683361D01*
X117397280Y-80588123D01*
X117444900Y-80445266D01*
X117492519Y-80397647D01*
X117397280Y-79683361D02*
X118111566Y-79683361D01*
X118254423Y-79730980D01*
X118349661Y-79826219D01*
X118397280Y-79969076D01*
X118397280Y-80064314D01*
X118397280Y-78730980D02*
X118397280Y-79207171D01*
X117397280Y-79207171D01*
X118302042Y-77826219D02*
X118349661Y-77873838D01*
X118397280Y-78016695D01*
X118397280Y-78111933D01*
X118349661Y-78254790D01*
X118254423Y-78350028D01*
X118159185Y-78397647D01*
X117968709Y-78445266D01*
X117825852Y-78445266D01*
X117635376Y-78397647D01*
X117540138Y-78350028D01*
X117444900Y-78254790D01*
X117397280Y-78111933D01*
X117397280Y-78016695D01*
X117444900Y-77873838D01*
X117492519Y-77826219D01*
X110350347Y-62733228D02*
X111112252Y-62733228D01*
X110731300Y-63114180D02*
X110731300Y-62352276D01*
X88654285Y-55824380D02*
X88320952Y-55348190D01*
X88082857Y-55824380D02*
X88082857Y-54824380D01*
X88463809Y-54824380D01*
X88559047Y-54872000D01*
X88606666Y-54919619D01*
X88654285Y-55014857D01*
X88654285Y-55157714D01*
X88606666Y-55252952D01*
X88559047Y-55300571D01*
X88463809Y-55348190D01*
X88082857Y-55348190D01*
X89463809Y-55776761D02*
X89368571Y-55824380D01*
X89178095Y-55824380D01*
X89082857Y-55776761D01*
X89035238Y-55681523D01*
X89035238Y-55300571D01*
X89082857Y-55205333D01*
X89178095Y-55157714D01*
X89368571Y-55157714D01*
X89463809Y-55205333D01*
X89511428Y-55300571D01*
X89511428Y-55395809D01*
X89035238Y-55491047D01*
X89844761Y-55157714D02*
X90082857Y-55824380D01*
X90320952Y-55157714D01*
X90701904Y-55729142D02*
X90749523Y-55776761D01*
X90701904Y-55824380D01*
X90654285Y-55776761D01*
X90701904Y-55729142D01*
X90701904Y-55824380D01*
X92463809Y-55824380D02*
X91892380Y-55824380D01*
X92178095Y-55824380D02*
X92178095Y-54824380D01*
X92082857Y-54967238D01*
X91987619Y-55062476D01*
X91892380Y-55110095D01*
X92892380Y-55729142D02*
X92940000Y-55776761D01*
X92892380Y-55824380D01*
X92844761Y-55776761D01*
X92892380Y-55729142D01*
X92892380Y-55824380D01*
X93559047Y-54824380D02*
X93654285Y-54824380D01*
X93749523Y-54872000D01*
X93797142Y-54919619D01*
X93844761Y-55014857D01*
X93892380Y-55205333D01*
X93892380Y-55443428D01*
X93844761Y-55633904D01*
X93797142Y-55729142D01*
X93749523Y-55776761D01*
X93654285Y-55824380D01*
X93559047Y-55824380D01*
X93463809Y-55776761D01*
X93416190Y-55729142D01*
X93368571Y-55633904D01*
X93320952Y-55443428D01*
X93320952Y-55205333D01*
X93368571Y-55014857D01*
X93416190Y-54919619D01*
X93463809Y-54872000D01*
X93559047Y-54824380D01*
X94511428Y-54824380D02*
X94606666Y-54824380D01*
X94701904Y-54872000D01*
X94749523Y-54919619D01*
X94797142Y-55014857D01*
X94844761Y-55205333D01*
X94844761Y-55443428D01*
X94797142Y-55633904D01*
X94749523Y-55729142D01*
X94701904Y-55776761D01*
X94606666Y-55824380D01*
X94511428Y-55824380D01*
X94416190Y-55776761D01*
X94368571Y-55729142D01*
X94320952Y-55633904D01*
X94273333Y-55443428D01*
X94273333Y-55205333D01*
X94320952Y-55014857D01*
X94368571Y-54919619D01*
X94416190Y-54872000D01*
X94511428Y-54824380D01*
D11*
X88281714Y-52447000D02*
X88996000Y-52447000D01*
X88138857Y-52875571D02*
X88638857Y-51375571D01*
X89138857Y-52875571D01*
X89924571Y-52161285D02*
X89924571Y-52875571D01*
X89424571Y-51375571D02*
X89924571Y-52161285D01*
X90424571Y-51375571D01*
X92067428Y-52875571D02*
X92067428Y-51375571D01*
X92424571Y-51375571D01*
X92638857Y-51447000D01*
X92781714Y-51589857D01*
X92853142Y-51732714D01*
X92924571Y-52018428D01*
X92924571Y-52232714D01*
X92853142Y-52518428D01*
X92781714Y-52661285D01*
X92638857Y-52804142D01*
X92424571Y-52875571D01*
X92067428Y-52875571D01*
X94138857Y-52804142D02*
X93996000Y-52875571D01*
X93710285Y-52875571D01*
X93567428Y-52804142D01*
X93496000Y-52661285D01*
X93496000Y-52089857D01*
X93567428Y-51947000D01*
X93710285Y-51875571D01*
X93996000Y-51875571D01*
X94138857Y-51947000D01*
X94210285Y-52089857D01*
X94210285Y-52232714D01*
X93496000Y-52375571D01*
X94710285Y-51875571D02*
X95067428Y-52875571D01*
X95424571Y-51875571D01*
X95996000Y-52875571D02*
X95996000Y-51375571D01*
X95996000Y-51947000D02*
X96138857Y-51875571D01*
X96424571Y-51875571D01*
X96567428Y-51947000D01*
X96638857Y-52018428D01*
X96710285Y-52161285D01*
X96710285Y-52589857D01*
X96638857Y-52732714D01*
X96567428Y-52804142D01*
X96424571Y-52875571D01*
X96138857Y-52875571D01*
X95996000Y-52804142D01*
X97567428Y-52875571D02*
X97424571Y-52804142D01*
X97353142Y-52732714D01*
X97281714Y-52589857D01*
X97281714Y-52161285D01*
X97353142Y-52018428D01*
X97424571Y-51947000D01*
X97567428Y-51875571D01*
X97781714Y-51875571D01*
X97924571Y-51947000D01*
X97996000Y-52018428D01*
X98067428Y-52161285D01*
X98067428Y-52589857D01*
X97996000Y-52732714D01*
X97924571Y-52804142D01*
X97781714Y-52875571D01*
X97567428Y-52875571D01*
X99353142Y-52875571D02*
X99353142Y-52089857D01*
X99281714Y-51947000D01*
X99138857Y-51875571D01*
X98853142Y-51875571D01*
X98710285Y-51947000D01*
X99353142Y-52804142D02*
X99210285Y-52875571D01*
X98853142Y-52875571D01*
X98710285Y-52804142D01*
X98638857Y-52661285D01*
X98638857Y-52518428D01*
X98710285Y-52375571D01*
X98853142Y-52304142D01*
X99210285Y-52304142D01*
X99353142Y-52232714D01*
X100067428Y-52875571D02*
X100067428Y-51875571D01*
X100067428Y-52161285D02*
X100138857Y-52018428D01*
X100210285Y-51947000D01*
X100353142Y-51875571D01*
X100496000Y-51875571D01*
X101638857Y-52875571D02*
X101638857Y-51375571D01*
X101638857Y-52804142D02*
X101496000Y-52875571D01*
X101210285Y-52875571D01*
X101067428Y-52804142D01*
X100996000Y-52732714D01*
X100924571Y-52589857D01*
X100924571Y-52161285D01*
X100996000Y-52018428D01*
X101067428Y-51947000D01*
X101210285Y-51875571D01*
X101496000Y-51875571D01*
X101638857Y-51947000D01*
D10*
X104521095Y-60714000D02*
X104425857Y-60666380D01*
X104283000Y-60666380D01*
X104140142Y-60714000D01*
X104044904Y-60809238D01*
X103997285Y-60904476D01*
X103949666Y-61094952D01*
X103949666Y-61237809D01*
X103997285Y-61428285D01*
X104044904Y-61523523D01*
X104140142Y-61618761D01*
X104283000Y-61666380D01*
X104378238Y-61666380D01*
X104521095Y-61618761D01*
X104568714Y-61571142D01*
X104568714Y-61237809D01*
X104378238Y-61237809D01*
X104997285Y-61666380D02*
X104997285Y-60666380D01*
X105568714Y-61666380D01*
X105568714Y-60666380D01*
X106044904Y-61666380D02*
X106044904Y-60666380D01*
X106283000Y-60666380D01*
X106425857Y-60714000D01*
X106521095Y-60809238D01*
X106568714Y-60904476D01*
X106616333Y-61094952D01*
X106616333Y-61237809D01*
X106568714Y-61428285D01*
X106521095Y-61523523D01*
X106425857Y-61618761D01*
X106283000Y-61666380D01*
X106044904Y-61666380D01*
X94869285Y-63301571D02*
X95012142Y-63349190D01*
X95059761Y-63396809D01*
X95107380Y-63492047D01*
X95107380Y-63634904D01*
X95059761Y-63730142D01*
X95012142Y-63777761D01*
X94916904Y-63825380D01*
X94535952Y-63825380D01*
X94535952Y-62825380D01*
X94869285Y-62825380D01*
X94964523Y-62873000D01*
X95012142Y-62920619D01*
X95059761Y-63015857D01*
X95059761Y-63111095D01*
X95012142Y-63206333D01*
X94964523Y-63253952D01*
X94869285Y-63301571D01*
X94535952Y-63301571D01*
X95535952Y-63301571D02*
X95869285Y-63301571D01*
X96012142Y-63825380D02*
X95535952Y-63825380D01*
X95535952Y-62825380D01*
X96012142Y-62825380D01*
X96440714Y-63301571D02*
X96774047Y-63301571D01*
X96916904Y-63825380D02*
X96440714Y-63825380D01*
X96440714Y-62825380D01*
X96916904Y-62825380D01*
X97345476Y-63825380D02*
X97345476Y-62825380D01*
X97726428Y-62825380D01*
X97821666Y-62873000D01*
X97869285Y-62920619D01*
X97916904Y-63015857D01*
X97916904Y-63158714D01*
X97869285Y-63253952D01*
X97821666Y-63301571D01*
X97726428Y-63349190D01*
X97345476Y-63349190D01*
X98345476Y-63301571D02*
X98678809Y-63301571D01*
X98821666Y-63825380D02*
X98345476Y-63825380D01*
X98345476Y-62825380D01*
X98821666Y-62825380D01*
X99821666Y-63825380D02*
X99488333Y-63349190D01*
X99250238Y-63825380D02*
X99250238Y-62825380D01*
X99631190Y-62825380D01*
X99726428Y-62873000D01*
X99774047Y-62920619D01*
X99821666Y-63015857D01*
X99821666Y-63158714D01*
X99774047Y-63253952D01*
X99726428Y-63301571D01*
X99631190Y-63349190D01*
X99250238Y-63349190D01*
X112649095Y-53094000D02*
X112553857Y-53046380D01*
X112411000Y-53046380D01*
X112268142Y-53094000D01*
X112172904Y-53189238D01*
X112125285Y-53284476D01*
X112077666Y-53474952D01*
X112077666Y-53617809D01*
X112125285Y-53808285D01*
X112172904Y-53903523D01*
X112268142Y-53998761D01*
X112411000Y-54046380D01*
X112506238Y-54046380D01*
X112649095Y-53998761D01*
X112696714Y-53951142D01*
X112696714Y-53617809D01*
X112506238Y-53617809D01*
X113125285Y-54046380D02*
X113125285Y-53046380D01*
X113696714Y-54046380D01*
X113696714Y-53046380D01*
X114172904Y-54046380D02*
X114172904Y-53046380D01*
X114411000Y-53046380D01*
X114553857Y-53094000D01*
X114649095Y-53189238D01*
X114696714Y-53284476D01*
X114744333Y-53474952D01*
X114744333Y-53617809D01*
X114696714Y-53808285D01*
X114649095Y-53903523D01*
X114553857Y-53998761D01*
X114411000Y-54046380D01*
X114172904Y-54046380D01*
X121650285Y-53665428D02*
X122412190Y-53665428D01*
X122031238Y-54046380D02*
X122031238Y-53284476D01*
X123364571Y-53046380D02*
X122888380Y-53046380D01*
X122840761Y-53522571D01*
X122888380Y-53474952D01*
X122983619Y-53427333D01*
X123221714Y-53427333D01*
X123316952Y-53474952D01*
X123364571Y-53522571D01*
X123412190Y-53617809D01*
X123412190Y-53855904D01*
X123364571Y-53951142D01*
X123316952Y-53998761D01*
X123221714Y-54046380D01*
X122983619Y-54046380D01*
X122888380Y-53998761D01*
X122840761Y-53951142D01*
X123697904Y-53046380D02*
X124031238Y-54046380D01*
X124364571Y-53046380D01*
X134771095Y-99288000D02*
X135771095Y-99288000D01*
X135580619Y-100655380D02*
X135247285Y-100179190D01*
X135009190Y-100655380D02*
X135009190Y-99655380D01*
X135390142Y-99655380D01*
X135485380Y-99703000D01*
X135533000Y-99750619D01*
X135580619Y-99845857D01*
X135580619Y-99988714D01*
X135533000Y-100083952D01*
X135485380Y-100131571D01*
X135390142Y-100179190D01*
X135009190Y-100179190D01*
X135771095Y-99288000D02*
X136675857Y-99288000D01*
X136009190Y-100131571D02*
X136342523Y-100131571D01*
X136485380Y-100655380D02*
X136009190Y-100655380D01*
X136009190Y-99655380D01*
X136485380Y-99655380D01*
X136675857Y-99288000D02*
X137628238Y-99288000D01*
X136866333Y-100607761D02*
X137009190Y-100655380D01*
X137247285Y-100655380D01*
X137342523Y-100607761D01*
X137390142Y-100560142D01*
X137437761Y-100464904D01*
X137437761Y-100369666D01*
X137390142Y-100274428D01*
X137342523Y-100226809D01*
X137247285Y-100179190D01*
X137056809Y-100131571D01*
X136961571Y-100083952D01*
X136913952Y-100036333D01*
X136866333Y-99941095D01*
X136866333Y-99845857D01*
X136913952Y-99750619D01*
X136961571Y-99703000D01*
X137056809Y-99655380D01*
X137294904Y-99655380D01*
X137437761Y-99703000D01*
X137628238Y-99288000D02*
X138533000Y-99288000D01*
X137866333Y-100131571D02*
X138199666Y-100131571D01*
X138342523Y-100655380D02*
X137866333Y-100655380D01*
X137866333Y-99655380D01*
X138342523Y-99655380D01*
X138533000Y-99288000D02*
X139294904Y-99288000D01*
X138628238Y-99655380D02*
X139199666Y-99655380D01*
X138913952Y-100655380D02*
X138913952Y-99655380D01*
X135247285Y-98020142D02*
X135199666Y-98067761D01*
X135056809Y-98115380D01*
X134961571Y-98115380D01*
X134818713Y-98067761D01*
X134723475Y-97972523D01*
X134675856Y-97877285D01*
X134628237Y-97686809D01*
X134628237Y-97543952D01*
X134675856Y-97353476D01*
X134723475Y-97258238D01*
X134818713Y-97163000D01*
X134961571Y-97115380D01*
X135056809Y-97115380D01*
X135199666Y-97163000D01*
X135247285Y-97210619D01*
X136152047Y-98115380D02*
X135675856Y-98115380D01*
X135675856Y-97115380D01*
X136675856Y-97115380D02*
X136866333Y-97115380D01*
X136961571Y-97163000D01*
X137056809Y-97258238D01*
X137104428Y-97448714D01*
X137104428Y-97782047D01*
X137056809Y-97972523D01*
X136961571Y-98067761D01*
X136866333Y-98115380D01*
X136675856Y-98115380D01*
X136580618Y-98067761D01*
X136485380Y-97972523D01*
X136437761Y-97782047D01*
X136437761Y-97448714D01*
X136485380Y-97258238D01*
X136580618Y-97163000D01*
X136675856Y-97115380D01*
X138104428Y-98020142D02*
X138056809Y-98067761D01*
X137913952Y-98115380D01*
X137818713Y-98115380D01*
X137675856Y-98067761D01*
X137580618Y-97972523D01*
X137532999Y-97877285D01*
X137485380Y-97686809D01*
X137485380Y-97543952D01*
X137532999Y-97353476D01*
X137580618Y-97258238D01*
X137675856Y-97163000D01*
X137818713Y-97115380D01*
X137913952Y-97115380D01*
X138056809Y-97163000D01*
X138104428Y-97210619D01*
X138532999Y-98115380D02*
X138532999Y-97115380D01*
X139104428Y-98115380D02*
X138675856Y-97543952D01*
X139104428Y-97115380D02*
X138532999Y-97686809D01*
X136913952Y-95178571D02*
X137056809Y-95226190D01*
X137104428Y-95273809D01*
X137152047Y-95369047D01*
X137152047Y-95511904D01*
X137104428Y-95607142D01*
X137056809Y-95654761D01*
X136961571Y-95702380D01*
X136580618Y-95702380D01*
X136580618Y-94702380D01*
X136913952Y-94702380D01*
X137009190Y-94750000D01*
X137056809Y-94797619D01*
X137104428Y-94892857D01*
X137104428Y-94988095D01*
X137056809Y-95083333D01*
X137009190Y-95130952D01*
X136913952Y-95178571D01*
X136580618Y-95178571D01*
X138152047Y-95607142D02*
X138104428Y-95654761D01*
X137961571Y-95702380D01*
X137866333Y-95702380D01*
X137723475Y-95654761D01*
X137628237Y-95559523D01*
X137580618Y-95464285D01*
X137532999Y-95273809D01*
X137532999Y-95130952D01*
X137580618Y-94940476D01*
X137628237Y-94845238D01*
X137723475Y-94750000D01*
X137866333Y-94702380D01*
X137961571Y-94702380D01*
X138104428Y-94750000D01*
X138152047Y-94797619D01*
X139104428Y-95702380D02*
X138532999Y-95702380D01*
X138818714Y-95702380D02*
X138818714Y-94702380D01*
X138723475Y-94845238D01*
X138628237Y-94940476D01*
X138532999Y-94988095D01*
X136390143Y-92638571D02*
X136533000Y-92686190D01*
X136580619Y-92733809D01*
X136628238Y-92829047D01*
X136628238Y-92971904D01*
X136580619Y-93067142D01*
X136533000Y-93114761D01*
X136437762Y-93162380D01*
X136056810Y-93162380D01*
X136056810Y-92162380D01*
X136390143Y-92162380D01*
X136485381Y-92210000D01*
X136533000Y-92257619D01*
X136580619Y-92352857D01*
X136580619Y-92448095D01*
X136533000Y-92543333D01*
X136485381Y-92590952D01*
X136390143Y-92638571D01*
X136056810Y-92638571D01*
X137056810Y-93162380D02*
X137056810Y-92162380D01*
X137294905Y-92162380D01*
X137437762Y-92210000D01*
X137533000Y-92305238D01*
X137580619Y-92400476D01*
X137628238Y-92590952D01*
X137628238Y-92733809D01*
X137580619Y-92924285D01*
X137533000Y-93019523D01*
X137437762Y-93114761D01*
X137294905Y-93162380D01*
X137056810Y-93162380D01*
X138056810Y-93162380D02*
X138056810Y-92162380D01*
X139104429Y-93162380D02*
X138771095Y-92686190D01*
X138533000Y-93162380D02*
X138533000Y-92162380D01*
X138913952Y-92162380D01*
X139009190Y-92210000D01*
X139056810Y-92257619D01*
X139104429Y-92352857D01*
X139104429Y-92495714D01*
X139056810Y-92590952D01*
X139009190Y-92638571D01*
X138913952Y-92686190D01*
X138533000Y-92686190D01*
X137580618Y-90495380D02*
X137580618Y-89495380D01*
X137818714Y-89495380D01*
X137961571Y-89543000D01*
X138056809Y-89638238D01*
X138104428Y-89733476D01*
X138152047Y-89923952D01*
X138152047Y-90066809D01*
X138104428Y-90257285D01*
X138056809Y-90352523D01*
X137961571Y-90447761D01*
X137818714Y-90495380D01*
X137580618Y-90495380D01*
X138485380Y-89495380D02*
X139152047Y-89495380D01*
X138723475Y-90495380D01*
X137580618Y-87955380D02*
X137580618Y-86955380D01*
X137818714Y-86955380D01*
X137961571Y-87003000D01*
X138056809Y-87098238D01*
X138104428Y-87193476D01*
X138152047Y-87383952D01*
X138152047Y-87526809D01*
X138104428Y-87717285D01*
X138056809Y-87812523D01*
X137961571Y-87907761D01*
X137818714Y-87955380D01*
X137580618Y-87955380D01*
X139009190Y-86955380D02*
X138818714Y-86955380D01*
X138723475Y-87003000D01*
X138675856Y-87050619D01*
X138580618Y-87193476D01*
X138532999Y-87383952D01*
X138532999Y-87764904D01*
X138580618Y-87860142D01*
X138628237Y-87907761D01*
X138723475Y-87955380D01*
X138913952Y-87955380D01*
X139009190Y-87907761D01*
X139056809Y-87860142D01*
X139104428Y-87764904D01*
X139104428Y-87526809D01*
X139056809Y-87431571D01*
X139009190Y-87383952D01*
X138913952Y-87336333D01*
X138723475Y-87336333D01*
X138628237Y-87383952D01*
X138580618Y-87431571D01*
X138532999Y-87526809D01*
X137580618Y-85415380D02*
X137580618Y-84415380D01*
X137818714Y-84415380D01*
X137961571Y-84463000D01*
X138056809Y-84558238D01*
X138104428Y-84653476D01*
X138152047Y-84843952D01*
X138152047Y-84986809D01*
X138104428Y-85177285D01*
X138056809Y-85272523D01*
X137961571Y-85367761D01*
X137818714Y-85415380D01*
X137580618Y-85415380D01*
X139056809Y-84415380D02*
X138580618Y-84415380D01*
X138532999Y-84891571D01*
X138580618Y-84843952D01*
X138675856Y-84796333D01*
X138913952Y-84796333D01*
X139009190Y-84843952D01*
X139056809Y-84891571D01*
X139104428Y-84986809D01*
X139104428Y-85224904D01*
X139056809Y-85320142D01*
X139009190Y-85367761D01*
X138913952Y-85415380D01*
X138675856Y-85415380D01*
X138580618Y-85367761D01*
X138532999Y-85320142D01*
X137580618Y-83002380D02*
X137580618Y-82002380D01*
X137818714Y-82002380D01*
X137961571Y-82050000D01*
X138056809Y-82145238D01*
X138104428Y-82240476D01*
X138152047Y-82430952D01*
X138152047Y-82573809D01*
X138104428Y-82764285D01*
X138056809Y-82859523D01*
X137961571Y-82954761D01*
X137818714Y-83002380D01*
X137580618Y-83002380D01*
X139009190Y-82335714D02*
X139009190Y-83002380D01*
X138771094Y-81954761D02*
X138532999Y-82669047D01*
X139152047Y-82669047D01*
X137580618Y-80335380D02*
X137580618Y-79335380D01*
X137818714Y-79335380D01*
X137961571Y-79383000D01*
X138056809Y-79478238D01*
X138104428Y-79573476D01*
X138152047Y-79763952D01*
X138152047Y-79906809D01*
X138104428Y-80097285D01*
X138056809Y-80192523D01*
X137961571Y-80287761D01*
X137818714Y-80335380D01*
X137580618Y-80335380D01*
X138485380Y-79335380D02*
X139104428Y-79335380D01*
X138771094Y-79716333D01*
X138913952Y-79716333D01*
X139009190Y-79763952D01*
X139056809Y-79811571D01*
X139104428Y-79906809D01*
X139104428Y-80144904D01*
X139056809Y-80240142D01*
X139009190Y-80287761D01*
X138913952Y-80335380D01*
X138628237Y-80335380D01*
X138532999Y-80287761D01*
X138485380Y-80240142D01*
X137580618Y-77795380D02*
X137580618Y-76795380D01*
X137818714Y-76795380D01*
X137961571Y-76843000D01*
X138056809Y-76938238D01*
X138104428Y-77033476D01*
X138152047Y-77223952D01*
X138152047Y-77366809D01*
X138104428Y-77557285D01*
X138056809Y-77652523D01*
X137961571Y-77747761D01*
X137818714Y-77795380D01*
X137580618Y-77795380D01*
X138532999Y-76890619D02*
X138580618Y-76843000D01*
X138675856Y-76795380D01*
X138913952Y-76795380D01*
X139009190Y-76843000D01*
X139056809Y-76890619D01*
X139104428Y-76985857D01*
X139104428Y-77081095D01*
X139056809Y-77223952D01*
X138485380Y-77795380D01*
X139104428Y-77795380D01*
X137580618Y-75255380D02*
X137580618Y-74255380D01*
X137818714Y-74255380D01*
X137961571Y-74303000D01*
X138056809Y-74398238D01*
X138104428Y-74493476D01*
X138152047Y-74683952D01*
X138152047Y-74826809D01*
X138104428Y-75017285D01*
X138056809Y-75112523D01*
X137961571Y-75207761D01*
X137818714Y-75255380D01*
X137580618Y-75255380D01*
X139104428Y-75255380D02*
X138532999Y-75255380D01*
X138818714Y-75255380D02*
X138818714Y-74255380D01*
X138723475Y-74398238D01*
X138628237Y-74493476D01*
X138532999Y-74541095D01*
X137580618Y-72588380D02*
X137580618Y-71588380D01*
X137818714Y-71588380D01*
X137961571Y-71636000D01*
X138056809Y-71731238D01*
X138104428Y-71826476D01*
X138152047Y-72016952D01*
X138152047Y-72159809D01*
X138104428Y-72350285D01*
X138056809Y-72445523D01*
X137961571Y-72540761D01*
X137818714Y-72588380D01*
X137580618Y-72588380D01*
X138771094Y-71588380D02*
X138866333Y-71588380D01*
X138961571Y-71636000D01*
X139009190Y-71683619D01*
X139056809Y-71778857D01*
X139104428Y-71969333D01*
X139104428Y-72207428D01*
X139056809Y-72397904D01*
X139009190Y-72493142D01*
X138961571Y-72540761D01*
X138866333Y-72588380D01*
X138771094Y-72588380D01*
X138675856Y-72540761D01*
X138628237Y-72493142D01*
X138580618Y-72397904D01*
X138532999Y-72207428D01*
X138532999Y-71969333D01*
X138580618Y-71778857D01*
X138628237Y-71683619D01*
X138675856Y-71636000D01*
X138771094Y-71588380D01*
D12*
%TO.C,U2*%
X117484000Y-64190000D02*
X112024000Y-64190000D01*
X112024000Y-64190000D02*
X112024000Y-115110000D01*
X112024000Y-115110000D02*
X124944000Y-115110000D01*
X124944000Y-115110000D02*
X124944000Y-64190000D01*
X124944000Y-64190000D02*
X119484000Y-64190000D01*
X119484000Y-64190000D02*
G75*
G02*
X117484000Y-64190000I-1000000J0D01*
G01*
%TO.C,J4*%
X143062000Y-70806000D02*
X140402000Y-70806000D01*
X143062000Y-98806000D02*
X143062000Y-70806000D01*
X140402000Y-98806000D02*
X140402000Y-70806000D01*
X143062000Y-98806000D02*
X140402000Y-98806000D01*
X143062000Y-100076000D02*
X143062000Y-101406000D01*
X143062000Y-101406000D02*
X141732000Y-101406000D01*
%TO.C,J3*%
X90649000Y-66194000D02*
X96889000Y-66194000D01*
X96889000Y-66194000D02*
X96889000Y-70194000D01*
X96889000Y-70194000D02*
X97189000Y-70194000D01*
X97189000Y-70194000D02*
X97189000Y-84434000D01*
X97189000Y-84434000D02*
X88749000Y-84434000D01*
X88749000Y-84434000D02*
X88749000Y-70194000D01*
X88749000Y-70194000D02*
X90649000Y-70194000D01*
X90649000Y-70194000D02*
X90649000Y-66194000D01*
%TO.C,J2*%
X100524000Y-62424000D02*
X100524000Y-65084000D01*
X103124000Y-62424000D02*
X100524000Y-62424000D01*
X103124000Y-65084000D02*
X100524000Y-65084000D01*
X103124000Y-62424000D02*
X103124000Y-65084000D01*
X104394000Y-62424000D02*
X105724000Y-62424000D01*
X105724000Y-62424000D02*
X105724000Y-63754000D01*
%TO.C,J1*%
X115637000Y-59623000D02*
X120837000Y-59623000D01*
X115637000Y-54483000D02*
X115637000Y-59623000D01*
X120837000Y-51883000D02*
X120837000Y-59623000D01*
X115637000Y-54483000D02*
X118237000Y-54483000D01*
X118237000Y-54483000D02*
X118237000Y-51883000D01*
X118237000Y-51883000D02*
X120837000Y-51883000D01*
X115637000Y-53213000D02*
X115637000Y-51883000D01*
X115637000Y-51883000D02*
X116967000Y-51883000D01*
%TO.C,U2*%
D10*
X117722095Y-62642380D02*
X117722095Y-63451904D01*
X117769714Y-63547142D01*
X117817333Y-63594761D01*
X117912571Y-63642380D01*
X118103047Y-63642380D01*
X118198285Y-63594761D01*
X118245904Y-63547142D01*
X118293523Y-63451904D01*
X118293523Y-62642380D01*
X118722095Y-62737619D02*
X118769714Y-62690000D01*
X118864952Y-62642380D01*
X119103047Y-62642380D01*
X119198285Y-62690000D01*
X119245904Y-62737619D01*
X119293523Y-62832857D01*
X119293523Y-62928095D01*
X119245904Y-63070952D01*
X118674476Y-63642380D01*
X119293523Y-63642380D01*
%TO.C,R23*%
X103703380Y-87383857D02*
X103227190Y-87717190D01*
X103703380Y-87955285D02*
X102703380Y-87955285D01*
X102703380Y-87574333D01*
X102751000Y-87479095D01*
X102798619Y-87431476D01*
X102893857Y-87383857D01*
X103036714Y-87383857D01*
X103131952Y-87431476D01*
X103179571Y-87479095D01*
X103227190Y-87574333D01*
X103227190Y-87955285D01*
X102798619Y-87002904D02*
X102751000Y-86955285D01*
X102703380Y-86860047D01*
X102703380Y-86621952D01*
X102751000Y-86526714D01*
X102798619Y-86479095D01*
X102893857Y-86431476D01*
X102989095Y-86431476D01*
X103131952Y-86479095D01*
X103703380Y-87050523D01*
X103703380Y-86431476D01*
X102703380Y-86098142D02*
X102703380Y-85479095D01*
X103084333Y-85812428D01*
X103084333Y-85669571D01*
X103131952Y-85574333D01*
X103179571Y-85526714D01*
X103274809Y-85479095D01*
X103512904Y-85479095D01*
X103608142Y-85526714D01*
X103655761Y-85574333D01*
X103703380Y-85669571D01*
X103703380Y-85955285D01*
X103655761Y-86050523D01*
X103608142Y-86098142D01*
%TO.C,R22*%
X105171142Y-82594380D02*
X104837809Y-82118190D01*
X104599714Y-82594380D02*
X104599714Y-81594380D01*
X104980666Y-81594380D01*
X105075904Y-81642000D01*
X105123523Y-81689619D01*
X105171142Y-81784857D01*
X105171142Y-81927714D01*
X105123523Y-82022952D01*
X105075904Y-82070571D01*
X104980666Y-82118190D01*
X104599714Y-82118190D01*
X105552095Y-81689619D02*
X105599714Y-81642000D01*
X105694952Y-81594380D01*
X105933047Y-81594380D01*
X106028285Y-81642000D01*
X106075904Y-81689619D01*
X106123523Y-81784857D01*
X106123523Y-81880095D01*
X106075904Y-82022952D01*
X105504476Y-82594380D01*
X106123523Y-82594380D01*
X106504476Y-81689619D02*
X106552095Y-81642000D01*
X106647333Y-81594380D01*
X106885428Y-81594380D01*
X106980666Y-81642000D01*
X107028285Y-81689619D01*
X107075904Y-81784857D01*
X107075904Y-81880095D01*
X107028285Y-82022952D01*
X106456857Y-82594380D01*
X107075904Y-82594380D01*
%TO.C,R21*%
X105171142Y-81197380D02*
X104837809Y-80721190D01*
X104599714Y-81197380D02*
X104599714Y-80197380D01*
X104980666Y-80197380D01*
X105075904Y-80245000D01*
X105123523Y-80292619D01*
X105171142Y-80387857D01*
X105171142Y-80530714D01*
X105123523Y-80625952D01*
X105075904Y-80673571D01*
X104980666Y-80721190D01*
X104599714Y-80721190D01*
X105552095Y-80292619D02*
X105599714Y-80245000D01*
X105694952Y-80197380D01*
X105933047Y-80197380D01*
X106028285Y-80245000D01*
X106075904Y-80292619D01*
X106123523Y-80387857D01*
X106123523Y-80483095D01*
X106075904Y-80625952D01*
X105504476Y-81197380D01*
X106123523Y-81197380D01*
X107075904Y-81197380D02*
X106504476Y-81197380D01*
X106790190Y-81197380D02*
X106790190Y-80197380D01*
X106694952Y-80340238D01*
X106599714Y-80435476D01*
X106504476Y-80483095D01*
%TO.C,R20*%
X105171142Y-79673380D02*
X104837809Y-79197190D01*
X104599714Y-79673380D02*
X104599714Y-78673380D01*
X104980666Y-78673380D01*
X105075904Y-78721000D01*
X105123523Y-78768619D01*
X105171142Y-78863857D01*
X105171142Y-79006714D01*
X105123523Y-79101952D01*
X105075904Y-79149571D01*
X104980666Y-79197190D01*
X104599714Y-79197190D01*
X105552095Y-78768619D02*
X105599714Y-78721000D01*
X105694952Y-78673380D01*
X105933047Y-78673380D01*
X106028285Y-78721000D01*
X106075904Y-78768619D01*
X106123523Y-78863857D01*
X106123523Y-78959095D01*
X106075904Y-79101952D01*
X105504476Y-79673380D01*
X106123523Y-79673380D01*
X106742571Y-78673380D02*
X106837809Y-78673380D01*
X106933047Y-78721000D01*
X106980666Y-78768619D01*
X107028285Y-78863857D01*
X107075904Y-79054333D01*
X107075904Y-79292428D01*
X107028285Y-79482904D01*
X106980666Y-79578142D01*
X106933047Y-79625761D01*
X106837809Y-79673380D01*
X106742571Y-79673380D01*
X106647333Y-79625761D01*
X106599714Y-79578142D01*
X106552095Y-79482904D01*
X106504476Y-79292428D01*
X106504476Y-79054333D01*
X106552095Y-78863857D01*
X106599714Y-78768619D01*
X106647333Y-78721000D01*
X106742571Y-78673380D01*
%TO.C,R19*%
X105171142Y-78149380D02*
X104837809Y-77673190D01*
X104599714Y-78149380D02*
X104599714Y-77149380D01*
X104980666Y-77149380D01*
X105075904Y-77197000D01*
X105123523Y-77244619D01*
X105171142Y-77339857D01*
X105171142Y-77482714D01*
X105123523Y-77577952D01*
X105075904Y-77625571D01*
X104980666Y-77673190D01*
X104599714Y-77673190D01*
X106123523Y-78149380D02*
X105552095Y-78149380D01*
X105837809Y-78149380D02*
X105837809Y-77149380D01*
X105742571Y-77292238D01*
X105647333Y-77387476D01*
X105552095Y-77435095D01*
X106599714Y-78149380D02*
X106790190Y-78149380D01*
X106885428Y-78101761D01*
X106933047Y-78054142D01*
X107028285Y-77911285D01*
X107075904Y-77720809D01*
X107075904Y-77339857D01*
X107028285Y-77244619D01*
X106980666Y-77197000D01*
X106885428Y-77149380D01*
X106694952Y-77149380D01*
X106599714Y-77197000D01*
X106552095Y-77244619D01*
X106504476Y-77339857D01*
X106504476Y-77577952D01*
X106552095Y-77673190D01*
X106599714Y-77720809D01*
X106694952Y-77768428D01*
X106885428Y-77768428D01*
X106980666Y-77720809D01*
X107028285Y-77673190D01*
X107075904Y-77577952D01*
%TO.C,R18*%
X103703380Y-83065857D02*
X103227190Y-83399190D01*
X103703380Y-83637285D02*
X102703380Y-83637285D01*
X102703380Y-83256333D01*
X102751000Y-83161095D01*
X102798619Y-83113476D01*
X102893857Y-83065857D01*
X103036714Y-83065857D01*
X103131952Y-83113476D01*
X103179571Y-83161095D01*
X103227190Y-83256333D01*
X103227190Y-83637285D01*
X103703380Y-82113476D02*
X103703380Y-82684904D01*
X103703380Y-82399190D02*
X102703380Y-82399190D01*
X102846238Y-82494428D01*
X102941476Y-82589666D01*
X102989095Y-82684904D01*
X103131952Y-81542047D02*
X103084333Y-81637285D01*
X103036714Y-81684904D01*
X102941476Y-81732523D01*
X102893857Y-81732523D01*
X102798619Y-81684904D01*
X102751000Y-81637285D01*
X102703380Y-81542047D01*
X102703380Y-81351571D01*
X102751000Y-81256333D01*
X102798619Y-81208714D01*
X102893857Y-81161095D01*
X102941476Y-81161095D01*
X103036714Y-81208714D01*
X103084333Y-81256333D01*
X103131952Y-81351571D01*
X103131952Y-81542047D01*
X103179571Y-81637285D01*
X103227190Y-81684904D01*
X103322428Y-81732523D01*
X103512904Y-81732523D01*
X103608142Y-81684904D01*
X103655761Y-81637285D01*
X103703380Y-81542047D01*
X103703380Y-81351571D01*
X103655761Y-81256333D01*
X103608142Y-81208714D01*
X103512904Y-81161095D01*
X103322428Y-81161095D01*
X103227190Y-81208714D01*
X103179571Y-81256333D01*
X103131952Y-81351571D01*
%TO.C,R17*%
X101799142Y-80689380D02*
X101465809Y-80213190D01*
X101227714Y-80689380D02*
X101227714Y-79689380D01*
X101608666Y-79689380D01*
X101703904Y-79737000D01*
X101751523Y-79784619D01*
X101799142Y-79879857D01*
X101799142Y-80022714D01*
X101751523Y-80117952D01*
X101703904Y-80165571D01*
X101608666Y-80213190D01*
X101227714Y-80213190D01*
X102751523Y-80689380D02*
X102180095Y-80689380D01*
X102465809Y-80689380D02*
X102465809Y-79689380D01*
X102370571Y-79832238D01*
X102275333Y-79927476D01*
X102180095Y-79975095D01*
X103084857Y-79689380D02*
X103751523Y-79689380D01*
X103322952Y-80689380D01*
%TO.C,R16*%
X101846142Y-89352380D02*
X101512809Y-88876190D01*
X101274714Y-89352380D02*
X101274714Y-88352380D01*
X101655666Y-88352380D01*
X101750904Y-88400000D01*
X101798523Y-88447619D01*
X101846142Y-88542857D01*
X101846142Y-88685714D01*
X101798523Y-88780952D01*
X101750904Y-88828571D01*
X101655666Y-88876190D01*
X101274714Y-88876190D01*
X102798523Y-89352380D02*
X102227095Y-89352380D01*
X102512809Y-89352380D02*
X102512809Y-88352380D01*
X102417571Y-88495238D01*
X102322333Y-88590476D01*
X102227095Y-88638095D01*
X103655666Y-88352380D02*
X103465190Y-88352380D01*
X103369952Y-88400000D01*
X103322333Y-88447619D01*
X103227095Y-88590476D01*
X103179476Y-88780952D01*
X103179476Y-89161904D01*
X103227095Y-89257142D01*
X103274714Y-89304761D01*
X103369952Y-89352380D01*
X103560428Y-89352380D01*
X103655666Y-89304761D01*
X103703285Y-89257142D01*
X103750904Y-89161904D01*
X103750904Y-88923809D01*
X103703285Y-88828571D01*
X103655666Y-88780952D01*
X103560428Y-88733333D01*
X103369952Y-88733333D01*
X103274714Y-88780952D01*
X103227095Y-88828571D01*
X103179476Y-88923809D01*
%TO.C,J4*%
X141398666Y-101858380D02*
X141398666Y-102572666D01*
X141351047Y-102715523D01*
X141255809Y-102810761D01*
X141112952Y-102858380D01*
X141017714Y-102858380D01*
X142303428Y-102191714D02*
X142303428Y-102858380D01*
X142065333Y-101810761D02*
X141827238Y-102525047D01*
X142446285Y-102525047D01*
%TO.C,J3*%
X92635666Y-64516380D02*
X92635666Y-65230666D01*
X92588047Y-65373523D01*
X92492809Y-65468761D01*
X92349952Y-65516380D01*
X92254714Y-65516380D01*
X93016619Y-64516380D02*
X93635666Y-64516380D01*
X93302333Y-64897333D01*
X93445190Y-64897333D01*
X93540428Y-64944952D01*
X93588047Y-64992571D01*
X93635666Y-65087809D01*
X93635666Y-65325904D01*
X93588047Y-65421142D01*
X93540428Y-65468761D01*
X93445190Y-65516380D01*
X93159476Y-65516380D01*
X93064238Y-65468761D01*
X93016619Y-65421142D01*
%TO.C,J2*%
X106176380Y-64087333D02*
X106890666Y-64087333D01*
X107033523Y-64134952D01*
X107128761Y-64230190D01*
X107176380Y-64373047D01*
X107176380Y-64468285D01*
X106271619Y-63658761D02*
X106224000Y-63611142D01*
X106176380Y-63515904D01*
X106176380Y-63277809D01*
X106224000Y-63182571D01*
X106271619Y-63134952D01*
X106366857Y-63087333D01*
X106462095Y-63087333D01*
X106604952Y-63134952D01*
X107176380Y-63706380D01*
X107176380Y-63087333D01*
%TO.C,J1*%
X117903666Y-50335380D02*
X117903666Y-51049666D01*
X117856047Y-51192523D01*
X117760809Y-51287761D01*
X117617952Y-51335380D01*
X117522714Y-51335380D01*
X118903666Y-51335380D02*
X118332238Y-51335380D01*
X118617952Y-51335380D02*
X118617952Y-50335380D01*
X118522714Y-50478238D01*
X118427476Y-50573476D01*
X118332238Y-50621095D01*
%TO.C,C58*%
X101799142Y-91797142D02*
X101751523Y-91844761D01*
X101608666Y-91892380D01*
X101513428Y-91892380D01*
X101370571Y-91844761D01*
X101275333Y-91749523D01*
X101227714Y-91654285D01*
X101180095Y-91463809D01*
X101180095Y-91320952D01*
X101227714Y-91130476D01*
X101275333Y-91035238D01*
X101370571Y-90940000D01*
X101513428Y-90892380D01*
X101608666Y-90892380D01*
X101751523Y-90940000D01*
X101799142Y-90987619D01*
X102703904Y-90892380D02*
X102227714Y-90892380D01*
X102180095Y-91368571D01*
X102227714Y-91320952D01*
X102322952Y-91273333D01*
X102561047Y-91273333D01*
X102656285Y-91320952D01*
X102703904Y-91368571D01*
X102751523Y-91463809D01*
X102751523Y-91701904D01*
X102703904Y-91797142D01*
X102656285Y-91844761D01*
X102561047Y-91892380D01*
X102322952Y-91892380D01*
X102227714Y-91844761D01*
X102180095Y-91797142D01*
X103322952Y-91320952D02*
X103227714Y-91273333D01*
X103180095Y-91225714D01*
X103132476Y-91130476D01*
X103132476Y-91082857D01*
X103180095Y-90987619D01*
X103227714Y-90940000D01*
X103322952Y-90892380D01*
X103513428Y-90892380D01*
X103608666Y-90940000D01*
X103656285Y-90987619D01*
X103703904Y-91082857D01*
X103703904Y-91130476D01*
X103656285Y-91225714D01*
X103608666Y-91273333D01*
X103513428Y-91320952D01*
X103322952Y-91320952D01*
X103227714Y-91368571D01*
X103180095Y-91416190D01*
X103132476Y-91511428D01*
X103132476Y-91701904D01*
X103180095Y-91797142D01*
X103227714Y-91844761D01*
X103322952Y-91892380D01*
X103513428Y-91892380D01*
X103608666Y-91844761D01*
X103656285Y-91797142D01*
X103703904Y-91701904D01*
X103703904Y-91511428D01*
X103656285Y-91416190D01*
X103608666Y-91368571D01*
X103513428Y-91320952D01*
%TO.C,C57*%
X101846142Y-94210142D02*
X101798523Y-94257761D01*
X101655666Y-94305380D01*
X101560428Y-94305380D01*
X101417571Y-94257761D01*
X101322333Y-94162523D01*
X101274714Y-94067285D01*
X101227095Y-93876809D01*
X101227095Y-93733952D01*
X101274714Y-93543476D01*
X101322333Y-93448238D01*
X101417571Y-93353000D01*
X101560428Y-93305380D01*
X101655666Y-93305380D01*
X101798523Y-93353000D01*
X101846142Y-93400619D01*
X102750904Y-93305380D02*
X102274714Y-93305380D01*
X102227095Y-93781571D01*
X102274714Y-93733952D01*
X102369952Y-93686333D01*
X102608047Y-93686333D01*
X102703285Y-93733952D01*
X102750904Y-93781571D01*
X102798523Y-93876809D01*
X102798523Y-94114904D01*
X102750904Y-94210142D01*
X102703285Y-94257761D01*
X102608047Y-94305380D01*
X102369952Y-94305380D01*
X102274714Y-94257761D01*
X102227095Y-94210142D01*
X103131857Y-93305380D02*
X103798523Y-93305380D01*
X103369952Y-94305380D01*
%TD*%
M02*
