%TF.GenerationSoftware,KiCad,Pcbnew,(5.1.6)-1*%
%TF.CreationDate,2020-09-22T22:17:54+03:00*%
%TF.ProjectId,Tape devboard,54617065-2064-4657-9662-6f6172642e6b,rev?*%
%TF.SameCoordinates,Original*%
%TF.FileFunction,Copper,L2,Bot*%
%TF.FilePolarity,Positive*%
%FSLAX46Y46*%
G04 Gerber Fmt 4.6, Leading zero omitted, Abs format (unit mm)*
G04 Created by KiCad (PCBNEW (5.1.6)-1) date 2020-09-22 22:17:54*
%MOMM*%
%LPD*%
G01*
G04 APERTURE LIST*
%TA.AperFunction,ComponentPad*%
%ADD10O,1.700000X1.700000*%
%TD*%
%TA.AperFunction,ComponentPad*%
%ADD11R,1.700000X1.700000*%
%TD*%
%TA.AperFunction,ViaPad*%
%ADD12C,0.800000*%
%TD*%
%TA.AperFunction,Conductor*%
%ADD13C,0.250000*%
%TD*%
%TA.AperFunction,Conductor*%
%ADD14C,0.254000*%
%TD*%
G04 APERTURE END LIST*
D10*
%TO.P,J3,4*%
%TO.N,+5V*%
X140843000Y-73152000D03*
%TO.P,J3,3*%
%TO.N,GND*%
X140843000Y-75692000D03*
%TO.P,J3,2*%
%TO.N,+5V*%
X138303000Y-73152000D03*
D11*
%TO.P,J3,1*%
%TO.N,GND*%
X138303000Y-75692000D03*
%TD*%
D10*
%TO.P,J2,9*%
%TO.N,/FE_RD_ENABLED*%
X120904000Y-72771000D03*
%TO.P,J2,8*%
%TO.N,/D0*%
X120904000Y-75311000D03*
%TO.P,J2,7*%
%TO.N,/D1*%
X120904000Y-77851000D03*
%TO.P,J2,6*%
%TO.N,/D2*%
X120904000Y-80391000D03*
%TO.P,J2,5*%
%TO.N,/D3*%
X120904000Y-82931000D03*
%TO.P,J2,4*%
%TO.N,/D4*%
X120904000Y-85471000D03*
%TO.P,J2,3*%
%TO.N,/D5*%
X120904000Y-88011000D03*
%TO.P,J2,2*%
%TO.N,/D6*%
X120904000Y-90551000D03*
D11*
%TO.P,J2,1*%
%TO.N,/D7*%
X120904000Y-93091000D03*
%TD*%
D10*
%TO.P,J1,2*%
%TO.N,/TAPE_IN*%
X141097000Y-97790000D03*
D11*
%TO.P,J1,1*%
%TO.N,GND*%
X138557000Y-97790000D03*
%TD*%
D12*
%TO.N,GND*%
X139687300Y-85458300D03*
X125006100Y-79095600D03*
%TO.N,+5V*%
X137127999Y-82848199D03*
X137127999Y-88359999D03*
%TO.N,/TAPE_IN_DIGIT*%
X133604000Y-82931000D03*
X127889000Y-74295000D03*
%TD*%
D13*
%TO.N,+5V*%
X137127999Y-82848199D02*
X137127999Y-88359999D01*
X137127999Y-88359999D02*
X137127999Y-88359999D01*
%TO.N,/TAPE_IN_DIGIT*%
X133604000Y-82931000D02*
X133604000Y-80010000D01*
X133604000Y-80010000D02*
X127889000Y-74295000D01*
X127889000Y-74295000D02*
X127889000Y-74295000D01*
%TD*%
D14*
%TO.N,GND*%
G36*
X143340001Y-99340000D02*
G01*
X118660000Y-99340000D01*
X118660000Y-98640000D01*
X137068928Y-98640000D01*
X137081188Y-98764482D01*
X137117498Y-98884180D01*
X137176463Y-98994494D01*
X137255815Y-99091185D01*
X137352506Y-99170537D01*
X137462820Y-99229502D01*
X137582518Y-99265812D01*
X137707000Y-99278072D01*
X138271250Y-99275000D01*
X138430000Y-99116250D01*
X138430000Y-97917000D01*
X137230750Y-97917000D01*
X137072000Y-98075750D01*
X137068928Y-98640000D01*
X118660000Y-98640000D01*
X118660000Y-96940000D01*
X137068928Y-96940000D01*
X137072000Y-97504250D01*
X137230750Y-97663000D01*
X138430000Y-97663000D01*
X138430000Y-96463750D01*
X138684000Y-96463750D01*
X138684000Y-97663000D01*
X138704000Y-97663000D01*
X138704000Y-97917000D01*
X138684000Y-97917000D01*
X138684000Y-99116250D01*
X138842750Y-99275000D01*
X139407000Y-99278072D01*
X139531482Y-99265812D01*
X139651180Y-99229502D01*
X139761494Y-99170537D01*
X139858185Y-99091185D01*
X139937537Y-98994494D01*
X139996502Y-98884180D01*
X140018513Y-98811620D01*
X140150368Y-98943475D01*
X140393589Y-99105990D01*
X140663842Y-99217932D01*
X140950740Y-99275000D01*
X141243260Y-99275000D01*
X141530158Y-99217932D01*
X141800411Y-99105990D01*
X142043632Y-98943475D01*
X142250475Y-98736632D01*
X142412990Y-98493411D01*
X142524932Y-98223158D01*
X142582000Y-97936260D01*
X142582000Y-97643740D01*
X142524932Y-97356842D01*
X142412990Y-97086589D01*
X142250475Y-96843368D01*
X142043632Y-96636525D01*
X141800411Y-96474010D01*
X141530158Y-96362068D01*
X141243260Y-96305000D01*
X140950740Y-96305000D01*
X140663842Y-96362068D01*
X140393589Y-96474010D01*
X140150368Y-96636525D01*
X140018513Y-96768380D01*
X139996502Y-96695820D01*
X139937537Y-96585506D01*
X139858185Y-96488815D01*
X139761494Y-96409463D01*
X139651180Y-96350498D01*
X139531482Y-96314188D01*
X139407000Y-96301928D01*
X138842750Y-96305000D01*
X138684000Y-96463750D01*
X138430000Y-96463750D01*
X138271250Y-96305000D01*
X137707000Y-96301928D01*
X137582518Y-96314188D01*
X137462820Y-96350498D01*
X137352506Y-96409463D01*
X137255815Y-96488815D01*
X137176463Y-96585506D01*
X137117498Y-96695820D01*
X137081188Y-96815518D01*
X137068928Y-96940000D01*
X118660000Y-96940000D01*
X118660000Y-92241000D01*
X119415928Y-92241000D01*
X119415928Y-93941000D01*
X119428188Y-94065482D01*
X119464498Y-94185180D01*
X119523463Y-94295494D01*
X119602815Y-94392185D01*
X119699506Y-94471537D01*
X119809820Y-94530502D01*
X119929518Y-94566812D01*
X120054000Y-94579072D01*
X121754000Y-94579072D01*
X121878482Y-94566812D01*
X121998180Y-94530502D01*
X122108494Y-94471537D01*
X122205185Y-94392185D01*
X122284537Y-94295494D01*
X122343502Y-94185180D01*
X122379812Y-94065482D01*
X122392072Y-93941000D01*
X122392072Y-92241000D01*
X122379812Y-92116518D01*
X122343502Y-91996820D01*
X122284537Y-91886506D01*
X122205185Y-91789815D01*
X122108494Y-91710463D01*
X121998180Y-91651498D01*
X121925620Y-91629487D01*
X122057475Y-91497632D01*
X122219990Y-91254411D01*
X122331932Y-90984158D01*
X122389000Y-90697260D01*
X122389000Y-90404740D01*
X122331932Y-90117842D01*
X122219990Y-89847589D01*
X122057475Y-89604368D01*
X121850632Y-89397525D01*
X121676240Y-89281000D01*
X121850632Y-89164475D01*
X122057475Y-88957632D01*
X122219990Y-88714411D01*
X122331932Y-88444158D01*
X122389000Y-88157260D01*
X122389000Y-87864740D01*
X122331932Y-87577842D01*
X122219990Y-87307589D01*
X122057475Y-87064368D01*
X121850632Y-86857525D01*
X121676240Y-86741000D01*
X121850632Y-86624475D01*
X122057475Y-86417632D01*
X122219990Y-86174411D01*
X122331932Y-85904158D01*
X122389000Y-85617260D01*
X122389000Y-85324740D01*
X122331932Y-85037842D01*
X122219990Y-84767589D01*
X122057475Y-84524368D01*
X121850632Y-84317525D01*
X121676240Y-84201000D01*
X121850632Y-84084475D01*
X122057475Y-83877632D01*
X122219990Y-83634411D01*
X122331932Y-83364158D01*
X122389000Y-83077260D01*
X122389000Y-82784740D01*
X122331932Y-82497842D01*
X122219990Y-82227589D01*
X122057475Y-81984368D01*
X121850632Y-81777525D01*
X121676240Y-81661000D01*
X121850632Y-81544475D01*
X122057475Y-81337632D01*
X122219990Y-81094411D01*
X122331932Y-80824158D01*
X122389000Y-80537260D01*
X122389000Y-80244740D01*
X122331932Y-79957842D01*
X122219990Y-79687589D01*
X122057475Y-79444368D01*
X121850632Y-79237525D01*
X121676240Y-79121000D01*
X121850632Y-79004475D01*
X122057475Y-78797632D01*
X122219990Y-78554411D01*
X122331932Y-78284158D01*
X122389000Y-77997260D01*
X122389000Y-77704740D01*
X122331932Y-77417842D01*
X122219990Y-77147589D01*
X122057475Y-76904368D01*
X121850632Y-76697525D01*
X121676240Y-76581000D01*
X121850632Y-76464475D01*
X122057475Y-76257632D01*
X122219990Y-76014411D01*
X122331932Y-75744158D01*
X122389000Y-75457260D01*
X122389000Y-75164740D01*
X122331932Y-74877842D01*
X122219990Y-74607589D01*
X122057475Y-74364368D01*
X121886168Y-74193061D01*
X126854000Y-74193061D01*
X126854000Y-74396939D01*
X126893774Y-74596898D01*
X126971795Y-74785256D01*
X127085063Y-74954774D01*
X127229226Y-75098937D01*
X127398744Y-75212205D01*
X127587102Y-75290226D01*
X127787061Y-75330000D01*
X127849199Y-75330000D01*
X132844001Y-80324803D01*
X132844000Y-82227289D01*
X132800063Y-82271226D01*
X132686795Y-82440744D01*
X132608774Y-82629102D01*
X132569000Y-82829061D01*
X132569000Y-83032939D01*
X132608774Y-83232898D01*
X132686795Y-83421256D01*
X132800063Y-83590774D01*
X132944226Y-83734937D01*
X133113744Y-83848205D01*
X133302102Y-83926226D01*
X133502061Y-83966000D01*
X133705939Y-83966000D01*
X133905898Y-83926226D01*
X134094256Y-83848205D01*
X134263774Y-83734937D01*
X134407937Y-83590774D01*
X134521205Y-83421256D01*
X134599226Y-83232898D01*
X134639000Y-83032939D01*
X134639000Y-82829061D01*
X134622530Y-82746260D01*
X136092999Y-82746260D01*
X136092999Y-82950138D01*
X136132773Y-83150097D01*
X136210794Y-83338455D01*
X136324062Y-83507973D01*
X136367999Y-83551910D01*
X136368000Y-87656287D01*
X136324062Y-87700225D01*
X136210794Y-87869743D01*
X136132773Y-88058101D01*
X136092999Y-88258060D01*
X136092999Y-88461938D01*
X136132773Y-88661897D01*
X136210794Y-88850255D01*
X136324062Y-89019773D01*
X136468225Y-89163936D01*
X136637743Y-89277204D01*
X136826101Y-89355225D01*
X137026060Y-89394999D01*
X137229938Y-89394999D01*
X137429897Y-89355225D01*
X137618255Y-89277204D01*
X137787773Y-89163936D01*
X137931936Y-89019773D01*
X138045204Y-88850255D01*
X138123225Y-88661897D01*
X138162999Y-88461938D01*
X138162999Y-88258060D01*
X138123225Y-88058101D01*
X138045204Y-87869743D01*
X137931936Y-87700225D01*
X137887999Y-87656288D01*
X137887999Y-83551910D01*
X137931936Y-83507973D01*
X138045204Y-83338455D01*
X138123225Y-83150097D01*
X138162999Y-82950138D01*
X138162999Y-82746260D01*
X138123225Y-82546301D01*
X138045204Y-82357943D01*
X137931936Y-82188425D01*
X137787773Y-82044262D01*
X137618255Y-81930994D01*
X137429897Y-81852973D01*
X137229938Y-81813199D01*
X137026060Y-81813199D01*
X136826101Y-81852973D01*
X136637743Y-81930994D01*
X136468225Y-82044262D01*
X136324062Y-82188425D01*
X136210794Y-82357943D01*
X136132773Y-82546301D01*
X136092999Y-82746260D01*
X134622530Y-82746260D01*
X134599226Y-82629102D01*
X134521205Y-82440744D01*
X134407937Y-82271226D01*
X134364000Y-82227289D01*
X134364000Y-80047333D01*
X134367677Y-80010000D01*
X134353003Y-79861014D01*
X134309546Y-79717753D01*
X134238974Y-79585724D01*
X134167799Y-79498997D01*
X134144001Y-79469999D01*
X134115003Y-79446201D01*
X131210802Y-76542000D01*
X136814928Y-76542000D01*
X136827188Y-76666482D01*
X136863498Y-76786180D01*
X136922463Y-76896494D01*
X137001815Y-76993185D01*
X137098506Y-77072537D01*
X137208820Y-77131502D01*
X137328518Y-77167812D01*
X137453000Y-77180072D01*
X138017250Y-77177000D01*
X138176000Y-77018250D01*
X138176000Y-75819000D01*
X138430000Y-75819000D01*
X138430000Y-77018250D01*
X138588750Y-77177000D01*
X139153000Y-77180072D01*
X139277482Y-77167812D01*
X139397180Y-77131502D01*
X139507494Y-77072537D01*
X139604185Y-76993185D01*
X139683537Y-76896494D01*
X139742502Y-76786180D01*
X139766966Y-76705534D01*
X139842731Y-76789588D01*
X140076080Y-76963641D01*
X140338901Y-77088825D01*
X140486110Y-77133476D01*
X140716000Y-77012155D01*
X140716000Y-75819000D01*
X140970000Y-75819000D01*
X140970000Y-77012155D01*
X141199890Y-77133476D01*
X141347099Y-77088825D01*
X141609920Y-76963641D01*
X141843269Y-76789588D01*
X142038178Y-76573355D01*
X142187157Y-76323252D01*
X142284481Y-76048891D01*
X142163814Y-75819000D01*
X140970000Y-75819000D01*
X140716000Y-75819000D01*
X138430000Y-75819000D01*
X138176000Y-75819000D01*
X136976750Y-75819000D01*
X136818000Y-75977750D01*
X136814928Y-76542000D01*
X131210802Y-76542000D01*
X129510802Y-74842000D01*
X136814928Y-74842000D01*
X136818000Y-75406250D01*
X136976750Y-75565000D01*
X138176000Y-75565000D01*
X138176000Y-75545000D01*
X138430000Y-75545000D01*
X138430000Y-75565000D01*
X140716000Y-75565000D01*
X140716000Y-75545000D01*
X140970000Y-75545000D01*
X140970000Y-75565000D01*
X142163814Y-75565000D01*
X142284481Y-75335109D01*
X142187157Y-75060748D01*
X142038178Y-74810645D01*
X141843269Y-74594412D01*
X141613594Y-74423100D01*
X141789632Y-74305475D01*
X141996475Y-74098632D01*
X142158990Y-73855411D01*
X142270932Y-73585158D01*
X142328000Y-73298260D01*
X142328000Y-73005740D01*
X142270932Y-72718842D01*
X142158990Y-72448589D01*
X141996475Y-72205368D01*
X141789632Y-71998525D01*
X141546411Y-71836010D01*
X141276158Y-71724068D01*
X140989260Y-71667000D01*
X140696740Y-71667000D01*
X140409842Y-71724068D01*
X140139589Y-71836010D01*
X139896368Y-71998525D01*
X139689525Y-72205368D01*
X139573000Y-72379760D01*
X139456475Y-72205368D01*
X139249632Y-71998525D01*
X139006411Y-71836010D01*
X138736158Y-71724068D01*
X138449260Y-71667000D01*
X138156740Y-71667000D01*
X137869842Y-71724068D01*
X137599589Y-71836010D01*
X137356368Y-71998525D01*
X137149525Y-72205368D01*
X136987010Y-72448589D01*
X136875068Y-72718842D01*
X136818000Y-73005740D01*
X136818000Y-73298260D01*
X136875068Y-73585158D01*
X136987010Y-73855411D01*
X137149525Y-74098632D01*
X137281380Y-74230487D01*
X137208820Y-74252498D01*
X137098506Y-74311463D01*
X137001815Y-74390815D01*
X136922463Y-74487506D01*
X136863498Y-74597820D01*
X136827188Y-74717518D01*
X136814928Y-74842000D01*
X129510802Y-74842000D01*
X128924000Y-74255199D01*
X128924000Y-74193061D01*
X128884226Y-73993102D01*
X128806205Y-73804744D01*
X128692937Y-73635226D01*
X128548774Y-73491063D01*
X128379256Y-73377795D01*
X128190898Y-73299774D01*
X127990939Y-73260000D01*
X127787061Y-73260000D01*
X127587102Y-73299774D01*
X127398744Y-73377795D01*
X127229226Y-73491063D01*
X127085063Y-73635226D01*
X126971795Y-73804744D01*
X126893774Y-73993102D01*
X126854000Y-74193061D01*
X121886168Y-74193061D01*
X121850632Y-74157525D01*
X121676240Y-74041000D01*
X121850632Y-73924475D01*
X122057475Y-73717632D01*
X122219990Y-73474411D01*
X122331932Y-73204158D01*
X122389000Y-72917260D01*
X122389000Y-72624740D01*
X122331932Y-72337842D01*
X122219990Y-72067589D01*
X122057475Y-71824368D01*
X121850632Y-71617525D01*
X121607411Y-71455010D01*
X121337158Y-71343068D01*
X121050260Y-71286000D01*
X120757740Y-71286000D01*
X120470842Y-71343068D01*
X120200589Y-71455010D01*
X119957368Y-71617525D01*
X119750525Y-71824368D01*
X119588010Y-72067589D01*
X119476068Y-72337842D01*
X119419000Y-72624740D01*
X119419000Y-72917260D01*
X119476068Y-73204158D01*
X119588010Y-73474411D01*
X119750525Y-73717632D01*
X119957368Y-73924475D01*
X120131760Y-74041000D01*
X119957368Y-74157525D01*
X119750525Y-74364368D01*
X119588010Y-74607589D01*
X119476068Y-74877842D01*
X119419000Y-75164740D01*
X119419000Y-75457260D01*
X119476068Y-75744158D01*
X119588010Y-76014411D01*
X119750525Y-76257632D01*
X119957368Y-76464475D01*
X120131760Y-76581000D01*
X119957368Y-76697525D01*
X119750525Y-76904368D01*
X119588010Y-77147589D01*
X119476068Y-77417842D01*
X119419000Y-77704740D01*
X119419000Y-77997260D01*
X119476068Y-78284158D01*
X119588010Y-78554411D01*
X119750525Y-78797632D01*
X119957368Y-79004475D01*
X120131760Y-79121000D01*
X119957368Y-79237525D01*
X119750525Y-79444368D01*
X119588010Y-79687589D01*
X119476068Y-79957842D01*
X119419000Y-80244740D01*
X119419000Y-80537260D01*
X119476068Y-80824158D01*
X119588010Y-81094411D01*
X119750525Y-81337632D01*
X119957368Y-81544475D01*
X120131760Y-81661000D01*
X119957368Y-81777525D01*
X119750525Y-81984368D01*
X119588010Y-82227589D01*
X119476068Y-82497842D01*
X119419000Y-82784740D01*
X119419000Y-83077260D01*
X119476068Y-83364158D01*
X119588010Y-83634411D01*
X119750525Y-83877632D01*
X119957368Y-84084475D01*
X120131760Y-84201000D01*
X119957368Y-84317525D01*
X119750525Y-84524368D01*
X119588010Y-84767589D01*
X119476068Y-85037842D01*
X119419000Y-85324740D01*
X119419000Y-85617260D01*
X119476068Y-85904158D01*
X119588010Y-86174411D01*
X119750525Y-86417632D01*
X119957368Y-86624475D01*
X120131760Y-86741000D01*
X119957368Y-86857525D01*
X119750525Y-87064368D01*
X119588010Y-87307589D01*
X119476068Y-87577842D01*
X119419000Y-87864740D01*
X119419000Y-88157260D01*
X119476068Y-88444158D01*
X119588010Y-88714411D01*
X119750525Y-88957632D01*
X119957368Y-89164475D01*
X120131760Y-89281000D01*
X119957368Y-89397525D01*
X119750525Y-89604368D01*
X119588010Y-89847589D01*
X119476068Y-90117842D01*
X119419000Y-90404740D01*
X119419000Y-90697260D01*
X119476068Y-90984158D01*
X119588010Y-91254411D01*
X119750525Y-91497632D01*
X119882380Y-91629487D01*
X119809820Y-91651498D01*
X119699506Y-91710463D01*
X119602815Y-91789815D01*
X119523463Y-91886506D01*
X119464498Y-91996820D01*
X119428188Y-92116518D01*
X119415928Y-92241000D01*
X118660000Y-92241000D01*
X118660000Y-69660000D01*
X143340000Y-69660000D01*
X143340001Y-99340000D01*
G37*
X143340001Y-99340000D02*
X118660000Y-99340000D01*
X118660000Y-98640000D01*
X137068928Y-98640000D01*
X137081188Y-98764482D01*
X137117498Y-98884180D01*
X137176463Y-98994494D01*
X137255815Y-99091185D01*
X137352506Y-99170537D01*
X137462820Y-99229502D01*
X137582518Y-99265812D01*
X137707000Y-99278072D01*
X138271250Y-99275000D01*
X138430000Y-99116250D01*
X138430000Y-97917000D01*
X137230750Y-97917000D01*
X137072000Y-98075750D01*
X137068928Y-98640000D01*
X118660000Y-98640000D01*
X118660000Y-96940000D01*
X137068928Y-96940000D01*
X137072000Y-97504250D01*
X137230750Y-97663000D01*
X138430000Y-97663000D01*
X138430000Y-96463750D01*
X138684000Y-96463750D01*
X138684000Y-97663000D01*
X138704000Y-97663000D01*
X138704000Y-97917000D01*
X138684000Y-97917000D01*
X138684000Y-99116250D01*
X138842750Y-99275000D01*
X139407000Y-99278072D01*
X139531482Y-99265812D01*
X139651180Y-99229502D01*
X139761494Y-99170537D01*
X139858185Y-99091185D01*
X139937537Y-98994494D01*
X139996502Y-98884180D01*
X140018513Y-98811620D01*
X140150368Y-98943475D01*
X140393589Y-99105990D01*
X140663842Y-99217932D01*
X140950740Y-99275000D01*
X141243260Y-99275000D01*
X141530158Y-99217932D01*
X141800411Y-99105990D01*
X142043632Y-98943475D01*
X142250475Y-98736632D01*
X142412990Y-98493411D01*
X142524932Y-98223158D01*
X142582000Y-97936260D01*
X142582000Y-97643740D01*
X142524932Y-97356842D01*
X142412990Y-97086589D01*
X142250475Y-96843368D01*
X142043632Y-96636525D01*
X141800411Y-96474010D01*
X141530158Y-96362068D01*
X141243260Y-96305000D01*
X140950740Y-96305000D01*
X140663842Y-96362068D01*
X140393589Y-96474010D01*
X140150368Y-96636525D01*
X140018513Y-96768380D01*
X139996502Y-96695820D01*
X139937537Y-96585506D01*
X139858185Y-96488815D01*
X139761494Y-96409463D01*
X139651180Y-96350498D01*
X139531482Y-96314188D01*
X139407000Y-96301928D01*
X138842750Y-96305000D01*
X138684000Y-96463750D01*
X138430000Y-96463750D01*
X138271250Y-96305000D01*
X137707000Y-96301928D01*
X137582518Y-96314188D01*
X137462820Y-96350498D01*
X137352506Y-96409463D01*
X137255815Y-96488815D01*
X137176463Y-96585506D01*
X137117498Y-96695820D01*
X137081188Y-96815518D01*
X137068928Y-96940000D01*
X118660000Y-96940000D01*
X118660000Y-92241000D01*
X119415928Y-92241000D01*
X119415928Y-93941000D01*
X119428188Y-94065482D01*
X119464498Y-94185180D01*
X119523463Y-94295494D01*
X119602815Y-94392185D01*
X119699506Y-94471537D01*
X119809820Y-94530502D01*
X119929518Y-94566812D01*
X120054000Y-94579072D01*
X121754000Y-94579072D01*
X121878482Y-94566812D01*
X121998180Y-94530502D01*
X122108494Y-94471537D01*
X122205185Y-94392185D01*
X122284537Y-94295494D01*
X122343502Y-94185180D01*
X122379812Y-94065482D01*
X122392072Y-93941000D01*
X122392072Y-92241000D01*
X122379812Y-92116518D01*
X122343502Y-91996820D01*
X122284537Y-91886506D01*
X122205185Y-91789815D01*
X122108494Y-91710463D01*
X121998180Y-91651498D01*
X121925620Y-91629487D01*
X122057475Y-91497632D01*
X122219990Y-91254411D01*
X122331932Y-90984158D01*
X122389000Y-90697260D01*
X122389000Y-90404740D01*
X122331932Y-90117842D01*
X122219990Y-89847589D01*
X122057475Y-89604368D01*
X121850632Y-89397525D01*
X121676240Y-89281000D01*
X121850632Y-89164475D01*
X122057475Y-88957632D01*
X122219990Y-88714411D01*
X122331932Y-88444158D01*
X122389000Y-88157260D01*
X122389000Y-87864740D01*
X122331932Y-87577842D01*
X122219990Y-87307589D01*
X122057475Y-87064368D01*
X121850632Y-86857525D01*
X121676240Y-86741000D01*
X121850632Y-86624475D01*
X122057475Y-86417632D01*
X122219990Y-86174411D01*
X122331932Y-85904158D01*
X122389000Y-85617260D01*
X122389000Y-85324740D01*
X122331932Y-85037842D01*
X122219990Y-84767589D01*
X122057475Y-84524368D01*
X121850632Y-84317525D01*
X121676240Y-84201000D01*
X121850632Y-84084475D01*
X122057475Y-83877632D01*
X122219990Y-83634411D01*
X122331932Y-83364158D01*
X122389000Y-83077260D01*
X122389000Y-82784740D01*
X122331932Y-82497842D01*
X122219990Y-82227589D01*
X122057475Y-81984368D01*
X121850632Y-81777525D01*
X121676240Y-81661000D01*
X121850632Y-81544475D01*
X122057475Y-81337632D01*
X122219990Y-81094411D01*
X122331932Y-80824158D01*
X122389000Y-80537260D01*
X122389000Y-80244740D01*
X122331932Y-79957842D01*
X122219990Y-79687589D01*
X122057475Y-79444368D01*
X121850632Y-79237525D01*
X121676240Y-79121000D01*
X121850632Y-79004475D01*
X122057475Y-78797632D01*
X122219990Y-78554411D01*
X122331932Y-78284158D01*
X122389000Y-77997260D01*
X122389000Y-77704740D01*
X122331932Y-77417842D01*
X122219990Y-77147589D01*
X122057475Y-76904368D01*
X121850632Y-76697525D01*
X121676240Y-76581000D01*
X121850632Y-76464475D01*
X122057475Y-76257632D01*
X122219990Y-76014411D01*
X122331932Y-75744158D01*
X122389000Y-75457260D01*
X122389000Y-75164740D01*
X122331932Y-74877842D01*
X122219990Y-74607589D01*
X122057475Y-74364368D01*
X121886168Y-74193061D01*
X126854000Y-74193061D01*
X126854000Y-74396939D01*
X126893774Y-74596898D01*
X126971795Y-74785256D01*
X127085063Y-74954774D01*
X127229226Y-75098937D01*
X127398744Y-75212205D01*
X127587102Y-75290226D01*
X127787061Y-75330000D01*
X127849199Y-75330000D01*
X132844001Y-80324803D01*
X132844000Y-82227289D01*
X132800063Y-82271226D01*
X132686795Y-82440744D01*
X132608774Y-82629102D01*
X132569000Y-82829061D01*
X132569000Y-83032939D01*
X132608774Y-83232898D01*
X132686795Y-83421256D01*
X132800063Y-83590774D01*
X132944226Y-83734937D01*
X133113744Y-83848205D01*
X133302102Y-83926226D01*
X133502061Y-83966000D01*
X133705939Y-83966000D01*
X133905898Y-83926226D01*
X134094256Y-83848205D01*
X134263774Y-83734937D01*
X134407937Y-83590774D01*
X134521205Y-83421256D01*
X134599226Y-83232898D01*
X134639000Y-83032939D01*
X134639000Y-82829061D01*
X134622530Y-82746260D01*
X136092999Y-82746260D01*
X136092999Y-82950138D01*
X136132773Y-83150097D01*
X136210794Y-83338455D01*
X136324062Y-83507973D01*
X136367999Y-83551910D01*
X136368000Y-87656287D01*
X136324062Y-87700225D01*
X136210794Y-87869743D01*
X136132773Y-88058101D01*
X136092999Y-88258060D01*
X136092999Y-88461938D01*
X136132773Y-88661897D01*
X136210794Y-88850255D01*
X136324062Y-89019773D01*
X136468225Y-89163936D01*
X136637743Y-89277204D01*
X136826101Y-89355225D01*
X137026060Y-89394999D01*
X137229938Y-89394999D01*
X137429897Y-89355225D01*
X137618255Y-89277204D01*
X137787773Y-89163936D01*
X137931936Y-89019773D01*
X138045204Y-88850255D01*
X138123225Y-88661897D01*
X138162999Y-88461938D01*
X138162999Y-88258060D01*
X138123225Y-88058101D01*
X138045204Y-87869743D01*
X137931936Y-87700225D01*
X137887999Y-87656288D01*
X137887999Y-83551910D01*
X137931936Y-83507973D01*
X138045204Y-83338455D01*
X138123225Y-83150097D01*
X138162999Y-82950138D01*
X138162999Y-82746260D01*
X138123225Y-82546301D01*
X138045204Y-82357943D01*
X137931936Y-82188425D01*
X137787773Y-82044262D01*
X137618255Y-81930994D01*
X137429897Y-81852973D01*
X137229938Y-81813199D01*
X137026060Y-81813199D01*
X136826101Y-81852973D01*
X136637743Y-81930994D01*
X136468225Y-82044262D01*
X136324062Y-82188425D01*
X136210794Y-82357943D01*
X136132773Y-82546301D01*
X136092999Y-82746260D01*
X134622530Y-82746260D01*
X134599226Y-82629102D01*
X134521205Y-82440744D01*
X134407937Y-82271226D01*
X134364000Y-82227289D01*
X134364000Y-80047333D01*
X134367677Y-80010000D01*
X134353003Y-79861014D01*
X134309546Y-79717753D01*
X134238974Y-79585724D01*
X134167799Y-79498997D01*
X134144001Y-79469999D01*
X134115003Y-79446201D01*
X131210802Y-76542000D01*
X136814928Y-76542000D01*
X136827188Y-76666482D01*
X136863498Y-76786180D01*
X136922463Y-76896494D01*
X137001815Y-76993185D01*
X137098506Y-77072537D01*
X137208820Y-77131502D01*
X137328518Y-77167812D01*
X137453000Y-77180072D01*
X138017250Y-77177000D01*
X138176000Y-77018250D01*
X138176000Y-75819000D01*
X138430000Y-75819000D01*
X138430000Y-77018250D01*
X138588750Y-77177000D01*
X139153000Y-77180072D01*
X139277482Y-77167812D01*
X139397180Y-77131502D01*
X139507494Y-77072537D01*
X139604185Y-76993185D01*
X139683537Y-76896494D01*
X139742502Y-76786180D01*
X139766966Y-76705534D01*
X139842731Y-76789588D01*
X140076080Y-76963641D01*
X140338901Y-77088825D01*
X140486110Y-77133476D01*
X140716000Y-77012155D01*
X140716000Y-75819000D01*
X140970000Y-75819000D01*
X140970000Y-77012155D01*
X141199890Y-77133476D01*
X141347099Y-77088825D01*
X141609920Y-76963641D01*
X141843269Y-76789588D01*
X142038178Y-76573355D01*
X142187157Y-76323252D01*
X142284481Y-76048891D01*
X142163814Y-75819000D01*
X140970000Y-75819000D01*
X140716000Y-75819000D01*
X138430000Y-75819000D01*
X138176000Y-75819000D01*
X136976750Y-75819000D01*
X136818000Y-75977750D01*
X136814928Y-76542000D01*
X131210802Y-76542000D01*
X129510802Y-74842000D01*
X136814928Y-74842000D01*
X136818000Y-75406250D01*
X136976750Y-75565000D01*
X138176000Y-75565000D01*
X138176000Y-75545000D01*
X138430000Y-75545000D01*
X138430000Y-75565000D01*
X140716000Y-75565000D01*
X140716000Y-75545000D01*
X140970000Y-75545000D01*
X140970000Y-75565000D01*
X142163814Y-75565000D01*
X142284481Y-75335109D01*
X142187157Y-75060748D01*
X142038178Y-74810645D01*
X141843269Y-74594412D01*
X141613594Y-74423100D01*
X141789632Y-74305475D01*
X141996475Y-74098632D01*
X142158990Y-73855411D01*
X142270932Y-73585158D01*
X142328000Y-73298260D01*
X142328000Y-73005740D01*
X142270932Y-72718842D01*
X142158990Y-72448589D01*
X141996475Y-72205368D01*
X141789632Y-71998525D01*
X141546411Y-71836010D01*
X141276158Y-71724068D01*
X140989260Y-71667000D01*
X140696740Y-71667000D01*
X140409842Y-71724068D01*
X140139589Y-71836010D01*
X139896368Y-71998525D01*
X139689525Y-72205368D01*
X139573000Y-72379760D01*
X139456475Y-72205368D01*
X139249632Y-71998525D01*
X139006411Y-71836010D01*
X138736158Y-71724068D01*
X138449260Y-71667000D01*
X138156740Y-71667000D01*
X137869842Y-71724068D01*
X137599589Y-71836010D01*
X137356368Y-71998525D01*
X137149525Y-72205368D01*
X136987010Y-72448589D01*
X136875068Y-72718842D01*
X136818000Y-73005740D01*
X136818000Y-73298260D01*
X136875068Y-73585158D01*
X136987010Y-73855411D01*
X137149525Y-74098632D01*
X137281380Y-74230487D01*
X137208820Y-74252498D01*
X137098506Y-74311463D01*
X137001815Y-74390815D01*
X136922463Y-74487506D01*
X136863498Y-74597820D01*
X136827188Y-74717518D01*
X136814928Y-74842000D01*
X129510802Y-74842000D01*
X128924000Y-74255199D01*
X128924000Y-74193061D01*
X128884226Y-73993102D01*
X128806205Y-73804744D01*
X128692937Y-73635226D01*
X128548774Y-73491063D01*
X128379256Y-73377795D01*
X128190898Y-73299774D01*
X127990939Y-73260000D01*
X127787061Y-73260000D01*
X127587102Y-73299774D01*
X127398744Y-73377795D01*
X127229226Y-73491063D01*
X127085063Y-73635226D01*
X126971795Y-73804744D01*
X126893774Y-73993102D01*
X126854000Y-74193061D01*
X121886168Y-74193061D01*
X121850632Y-74157525D01*
X121676240Y-74041000D01*
X121850632Y-73924475D01*
X122057475Y-73717632D01*
X122219990Y-73474411D01*
X122331932Y-73204158D01*
X122389000Y-72917260D01*
X122389000Y-72624740D01*
X122331932Y-72337842D01*
X122219990Y-72067589D01*
X122057475Y-71824368D01*
X121850632Y-71617525D01*
X121607411Y-71455010D01*
X121337158Y-71343068D01*
X121050260Y-71286000D01*
X120757740Y-71286000D01*
X120470842Y-71343068D01*
X120200589Y-71455010D01*
X119957368Y-71617525D01*
X119750525Y-71824368D01*
X119588010Y-72067589D01*
X119476068Y-72337842D01*
X119419000Y-72624740D01*
X119419000Y-72917260D01*
X119476068Y-73204158D01*
X119588010Y-73474411D01*
X119750525Y-73717632D01*
X119957368Y-73924475D01*
X120131760Y-74041000D01*
X119957368Y-74157525D01*
X119750525Y-74364368D01*
X119588010Y-74607589D01*
X119476068Y-74877842D01*
X119419000Y-75164740D01*
X119419000Y-75457260D01*
X119476068Y-75744158D01*
X119588010Y-76014411D01*
X119750525Y-76257632D01*
X119957368Y-76464475D01*
X120131760Y-76581000D01*
X119957368Y-76697525D01*
X119750525Y-76904368D01*
X119588010Y-77147589D01*
X119476068Y-77417842D01*
X119419000Y-77704740D01*
X119419000Y-77997260D01*
X119476068Y-78284158D01*
X119588010Y-78554411D01*
X119750525Y-78797632D01*
X119957368Y-79004475D01*
X120131760Y-79121000D01*
X119957368Y-79237525D01*
X119750525Y-79444368D01*
X119588010Y-79687589D01*
X119476068Y-79957842D01*
X119419000Y-80244740D01*
X119419000Y-80537260D01*
X119476068Y-80824158D01*
X119588010Y-81094411D01*
X119750525Y-81337632D01*
X119957368Y-81544475D01*
X120131760Y-81661000D01*
X119957368Y-81777525D01*
X119750525Y-81984368D01*
X119588010Y-82227589D01*
X119476068Y-82497842D01*
X119419000Y-82784740D01*
X119419000Y-83077260D01*
X119476068Y-83364158D01*
X119588010Y-83634411D01*
X119750525Y-83877632D01*
X119957368Y-84084475D01*
X120131760Y-84201000D01*
X119957368Y-84317525D01*
X119750525Y-84524368D01*
X119588010Y-84767589D01*
X119476068Y-85037842D01*
X119419000Y-85324740D01*
X119419000Y-85617260D01*
X119476068Y-85904158D01*
X119588010Y-86174411D01*
X119750525Y-86417632D01*
X119957368Y-86624475D01*
X120131760Y-86741000D01*
X119957368Y-86857525D01*
X119750525Y-87064368D01*
X119588010Y-87307589D01*
X119476068Y-87577842D01*
X119419000Y-87864740D01*
X119419000Y-88157260D01*
X119476068Y-88444158D01*
X119588010Y-88714411D01*
X119750525Y-88957632D01*
X119957368Y-89164475D01*
X120131760Y-89281000D01*
X119957368Y-89397525D01*
X119750525Y-89604368D01*
X119588010Y-89847589D01*
X119476068Y-90117842D01*
X119419000Y-90404740D01*
X119419000Y-90697260D01*
X119476068Y-90984158D01*
X119588010Y-91254411D01*
X119750525Y-91497632D01*
X119882380Y-91629487D01*
X119809820Y-91651498D01*
X119699506Y-91710463D01*
X119602815Y-91789815D01*
X119523463Y-91886506D01*
X119464498Y-91996820D01*
X119428188Y-92116518D01*
X119415928Y-92241000D01*
X118660000Y-92241000D01*
X118660000Y-69660000D01*
X143340000Y-69660000D01*
X143340001Y-99340000D01*
%TD*%
M02*
