%TF.GenerationSoftware,KiCad,Pcbnew,(5.1.6)-1*%
%TF.CreationDate,2020-09-22T22:17:54+03:00*%
%TF.ProjectId,Tape devboard,54617065-2064-4657-9662-6f6172642e6b,rev?*%
%TF.SameCoordinates,Original*%
%TF.FileFunction,Copper,L1,Top*%
%TF.FilePolarity,Positive*%
%FSLAX46Y46*%
G04 Gerber Fmt 4.6, Leading zero omitted, Abs format (unit mm)*
G04 Created by KiCad (PCBNEW (5.1.6)-1) date 2020-09-22 22:17:54*
%MOMM*%
%LPD*%
G01*
G04 APERTURE LIST*
%TA.AperFunction,ComponentPad*%
%ADD10O,1.700000X1.700000*%
%TD*%
%TA.AperFunction,ComponentPad*%
%ADD11R,1.700000X1.700000*%
%TD*%
%TA.AperFunction,SMDPad,CuDef*%
%ADD12R,0.950000X0.450000*%
%TD*%
%TA.AperFunction,SMDPad,CuDef*%
%ADD13R,0.750000X1.200000*%
%TD*%
%TA.AperFunction,ViaPad*%
%ADD14C,0.800000*%
%TD*%
%TA.AperFunction,Conductor*%
%ADD15C,0.250000*%
%TD*%
G04 APERTURE END LIST*
%TO.P,U10,20*%
%TO.N,+5V*%
%TA.AperFunction,SMDPad,CuDef*%
G36*
G01*
X131201000Y-72384000D02*
X131201000Y-72134000D01*
G75*
G02*
X131326000Y-72009000I125000J0D01*
G01*
X132976000Y-72009000D01*
G75*
G02*
X133101000Y-72134000I0J-125000D01*
G01*
X133101000Y-72384000D01*
G75*
G02*
X132976000Y-72509000I-125000J0D01*
G01*
X131326000Y-72509000D01*
G75*
G02*
X131201000Y-72384000I0J125000D01*
G01*
G37*
%TD.AperFunction*%
%TO.P,U10,19*%
%TO.N,/FE_RD_ENABLED*%
%TA.AperFunction,SMDPad,CuDef*%
G36*
G01*
X131201000Y-73034000D02*
X131201000Y-72784000D01*
G75*
G02*
X131326000Y-72659000I125000J0D01*
G01*
X132976000Y-72659000D01*
G75*
G02*
X133101000Y-72784000I0J-125000D01*
G01*
X133101000Y-73034000D01*
G75*
G02*
X132976000Y-73159000I-125000J0D01*
G01*
X131326000Y-73159000D01*
G75*
G02*
X131201000Y-73034000I0J125000D01*
G01*
G37*
%TD.AperFunction*%
%TO.P,U10,18*%
%TO.N,/D7*%
%TA.AperFunction,SMDPad,CuDef*%
G36*
G01*
X131201000Y-73684000D02*
X131201000Y-73434000D01*
G75*
G02*
X131326000Y-73309000I125000J0D01*
G01*
X132976000Y-73309000D01*
G75*
G02*
X133101000Y-73434000I0J-125000D01*
G01*
X133101000Y-73684000D01*
G75*
G02*
X132976000Y-73809000I-125000J0D01*
G01*
X131326000Y-73809000D01*
G75*
G02*
X131201000Y-73684000I0J125000D01*
G01*
G37*
%TD.AperFunction*%
%TO.P,U10,17*%
%TO.N,N/C*%
%TA.AperFunction,SMDPad,CuDef*%
G36*
G01*
X131201000Y-74334000D02*
X131201000Y-74084000D01*
G75*
G02*
X131326000Y-73959000I125000J0D01*
G01*
X132976000Y-73959000D01*
G75*
G02*
X133101000Y-74084000I0J-125000D01*
G01*
X133101000Y-74334000D01*
G75*
G02*
X132976000Y-74459000I-125000J0D01*
G01*
X131326000Y-74459000D01*
G75*
G02*
X131201000Y-74334000I0J125000D01*
G01*
G37*
%TD.AperFunction*%
%TO.P,U10,16*%
%TO.N,/D6*%
%TA.AperFunction,SMDPad,CuDef*%
G36*
G01*
X131201000Y-74984000D02*
X131201000Y-74734000D01*
G75*
G02*
X131326000Y-74609000I125000J0D01*
G01*
X132976000Y-74609000D01*
G75*
G02*
X133101000Y-74734000I0J-125000D01*
G01*
X133101000Y-74984000D01*
G75*
G02*
X132976000Y-75109000I-125000J0D01*
G01*
X131326000Y-75109000D01*
G75*
G02*
X131201000Y-74984000I0J125000D01*
G01*
G37*
%TD.AperFunction*%
%TO.P,U10,15*%
%TO.N,N/C*%
%TA.AperFunction,SMDPad,CuDef*%
G36*
G01*
X131201000Y-75634000D02*
X131201000Y-75384000D01*
G75*
G02*
X131326000Y-75259000I125000J0D01*
G01*
X132976000Y-75259000D01*
G75*
G02*
X133101000Y-75384000I0J-125000D01*
G01*
X133101000Y-75634000D01*
G75*
G02*
X132976000Y-75759000I-125000J0D01*
G01*
X131326000Y-75759000D01*
G75*
G02*
X131201000Y-75634000I0J125000D01*
G01*
G37*
%TD.AperFunction*%
%TO.P,U10,14*%
%TO.N,/D5*%
%TA.AperFunction,SMDPad,CuDef*%
G36*
G01*
X131201000Y-76284000D02*
X131201000Y-76034000D01*
G75*
G02*
X131326000Y-75909000I125000J0D01*
G01*
X132976000Y-75909000D01*
G75*
G02*
X133101000Y-76034000I0J-125000D01*
G01*
X133101000Y-76284000D01*
G75*
G02*
X132976000Y-76409000I-125000J0D01*
G01*
X131326000Y-76409000D01*
G75*
G02*
X131201000Y-76284000I0J125000D01*
G01*
G37*
%TD.AperFunction*%
%TO.P,U10,13*%
%TO.N,N/C*%
%TA.AperFunction,SMDPad,CuDef*%
G36*
G01*
X131201000Y-76934000D02*
X131201000Y-76684000D01*
G75*
G02*
X131326000Y-76559000I125000J0D01*
G01*
X132976000Y-76559000D01*
G75*
G02*
X133101000Y-76684000I0J-125000D01*
G01*
X133101000Y-76934000D01*
G75*
G02*
X132976000Y-77059000I-125000J0D01*
G01*
X131326000Y-77059000D01*
G75*
G02*
X131201000Y-76934000I0J125000D01*
G01*
G37*
%TD.AperFunction*%
%TO.P,U10,12*%
%TO.N,/D4*%
%TA.AperFunction,SMDPad,CuDef*%
G36*
G01*
X131201000Y-77584000D02*
X131201000Y-77334000D01*
G75*
G02*
X131326000Y-77209000I125000J0D01*
G01*
X132976000Y-77209000D01*
G75*
G02*
X133101000Y-77334000I0J-125000D01*
G01*
X133101000Y-77584000D01*
G75*
G02*
X132976000Y-77709000I-125000J0D01*
G01*
X131326000Y-77709000D01*
G75*
G02*
X131201000Y-77584000I0J125000D01*
G01*
G37*
%TD.AperFunction*%
%TO.P,U10,11*%
%TO.N,N/C*%
%TA.AperFunction,SMDPad,CuDef*%
G36*
G01*
X131201000Y-78234000D02*
X131201000Y-77984000D01*
G75*
G02*
X131326000Y-77859000I125000J0D01*
G01*
X132976000Y-77859000D01*
G75*
G02*
X133101000Y-77984000I0J-125000D01*
G01*
X133101000Y-78234000D01*
G75*
G02*
X132976000Y-78359000I-125000J0D01*
G01*
X131326000Y-78359000D01*
G75*
G02*
X131201000Y-78234000I0J125000D01*
G01*
G37*
%TD.AperFunction*%
%TO.P,U10,10*%
%TO.N,GND*%
%TA.AperFunction,SMDPad,CuDef*%
G36*
G01*
X124201000Y-78234000D02*
X124201000Y-77984000D01*
G75*
G02*
X124326000Y-77859000I125000J0D01*
G01*
X125976000Y-77859000D01*
G75*
G02*
X126101000Y-77984000I0J-125000D01*
G01*
X126101000Y-78234000D01*
G75*
G02*
X125976000Y-78359000I-125000J0D01*
G01*
X124326000Y-78359000D01*
G75*
G02*
X124201000Y-78234000I0J125000D01*
G01*
G37*
%TD.AperFunction*%
%TO.P,U10,9*%
%TO.N,/D3*%
%TA.AperFunction,SMDPad,CuDef*%
G36*
G01*
X124201000Y-77584000D02*
X124201000Y-77334000D01*
G75*
G02*
X124326000Y-77209000I125000J0D01*
G01*
X125976000Y-77209000D01*
G75*
G02*
X126101000Y-77334000I0J-125000D01*
G01*
X126101000Y-77584000D01*
G75*
G02*
X125976000Y-77709000I-125000J0D01*
G01*
X124326000Y-77709000D01*
G75*
G02*
X124201000Y-77584000I0J125000D01*
G01*
G37*
%TD.AperFunction*%
%TO.P,U10,8*%
%TO.N,N/C*%
%TA.AperFunction,SMDPad,CuDef*%
G36*
G01*
X124201000Y-76934000D02*
X124201000Y-76684000D01*
G75*
G02*
X124326000Y-76559000I125000J0D01*
G01*
X125976000Y-76559000D01*
G75*
G02*
X126101000Y-76684000I0J-125000D01*
G01*
X126101000Y-76934000D01*
G75*
G02*
X125976000Y-77059000I-125000J0D01*
G01*
X124326000Y-77059000D01*
G75*
G02*
X124201000Y-76934000I0J125000D01*
G01*
G37*
%TD.AperFunction*%
%TO.P,U10,7*%
%TO.N,/D2*%
%TA.AperFunction,SMDPad,CuDef*%
G36*
G01*
X124201000Y-76284000D02*
X124201000Y-76034000D01*
G75*
G02*
X124326000Y-75909000I125000J0D01*
G01*
X125976000Y-75909000D01*
G75*
G02*
X126101000Y-76034000I0J-125000D01*
G01*
X126101000Y-76284000D01*
G75*
G02*
X125976000Y-76409000I-125000J0D01*
G01*
X124326000Y-76409000D01*
G75*
G02*
X124201000Y-76284000I0J125000D01*
G01*
G37*
%TD.AperFunction*%
%TO.P,U10,6*%
%TO.N,N/C*%
%TA.AperFunction,SMDPad,CuDef*%
G36*
G01*
X124201000Y-75634000D02*
X124201000Y-75384000D01*
G75*
G02*
X124326000Y-75259000I125000J0D01*
G01*
X125976000Y-75259000D01*
G75*
G02*
X126101000Y-75384000I0J-125000D01*
G01*
X126101000Y-75634000D01*
G75*
G02*
X125976000Y-75759000I-125000J0D01*
G01*
X124326000Y-75759000D01*
G75*
G02*
X124201000Y-75634000I0J125000D01*
G01*
G37*
%TD.AperFunction*%
%TO.P,U10,5*%
%TO.N,/D1*%
%TA.AperFunction,SMDPad,CuDef*%
G36*
G01*
X124201000Y-74984000D02*
X124201000Y-74734000D01*
G75*
G02*
X124326000Y-74609000I125000J0D01*
G01*
X125976000Y-74609000D01*
G75*
G02*
X126101000Y-74734000I0J-125000D01*
G01*
X126101000Y-74984000D01*
G75*
G02*
X125976000Y-75109000I-125000J0D01*
G01*
X124326000Y-75109000D01*
G75*
G02*
X124201000Y-74984000I0J125000D01*
G01*
G37*
%TD.AperFunction*%
%TO.P,U10,4*%
%TO.N,/TAPE_IN_DIGIT*%
%TA.AperFunction,SMDPad,CuDef*%
G36*
G01*
X124201000Y-74334000D02*
X124201000Y-74084000D01*
G75*
G02*
X124326000Y-73959000I125000J0D01*
G01*
X125976000Y-73959000D01*
G75*
G02*
X126101000Y-74084000I0J-125000D01*
G01*
X126101000Y-74334000D01*
G75*
G02*
X125976000Y-74459000I-125000J0D01*
G01*
X124326000Y-74459000D01*
G75*
G02*
X124201000Y-74334000I0J125000D01*
G01*
G37*
%TD.AperFunction*%
%TO.P,U10,3*%
%TO.N,/D0*%
%TA.AperFunction,SMDPad,CuDef*%
G36*
G01*
X124201000Y-73684000D02*
X124201000Y-73434000D01*
G75*
G02*
X124326000Y-73309000I125000J0D01*
G01*
X125976000Y-73309000D01*
G75*
G02*
X126101000Y-73434000I0J-125000D01*
G01*
X126101000Y-73684000D01*
G75*
G02*
X125976000Y-73809000I-125000J0D01*
G01*
X124326000Y-73809000D01*
G75*
G02*
X124201000Y-73684000I0J125000D01*
G01*
G37*
%TD.AperFunction*%
%TO.P,U10,2*%
%TO.N,N/C*%
%TA.AperFunction,SMDPad,CuDef*%
G36*
G01*
X124201000Y-73034000D02*
X124201000Y-72784000D01*
G75*
G02*
X124326000Y-72659000I125000J0D01*
G01*
X125976000Y-72659000D01*
G75*
G02*
X126101000Y-72784000I0J-125000D01*
G01*
X126101000Y-73034000D01*
G75*
G02*
X125976000Y-73159000I-125000J0D01*
G01*
X124326000Y-73159000D01*
G75*
G02*
X124201000Y-73034000I0J125000D01*
G01*
G37*
%TD.AperFunction*%
%TO.P,U10,1*%
%TO.N,/FE_RD_ENABLED*%
%TA.AperFunction,SMDPad,CuDef*%
G36*
G01*
X124201000Y-72384000D02*
X124201000Y-72134000D01*
G75*
G02*
X124326000Y-72009000I125000J0D01*
G01*
X125976000Y-72009000D01*
G75*
G02*
X126101000Y-72134000I0J-125000D01*
G01*
X126101000Y-72384000D01*
G75*
G02*
X125976000Y-72509000I-125000J0D01*
G01*
X124326000Y-72509000D01*
G75*
G02*
X124201000Y-72384000I0J125000D01*
G01*
G37*
%TD.AperFunction*%
%TD*%
%TO.P,R35,2*%
%TO.N,Net-(C68-Pad2)*%
%TA.AperFunction,SMDPad,CuDef*%
G36*
G01*
X140924500Y-90129000D02*
X141269500Y-90129000D01*
G75*
G02*
X141417000Y-90276500I0J-147500D01*
G01*
X141417000Y-90571500D01*
G75*
G02*
X141269500Y-90719000I-147500J0D01*
G01*
X140924500Y-90719000D01*
G75*
G02*
X140777000Y-90571500I0J147500D01*
G01*
X140777000Y-90276500D01*
G75*
G02*
X140924500Y-90129000I147500J0D01*
G01*
G37*
%TD.AperFunction*%
%TO.P,R35,1*%
%TO.N,Net-(D2-Pad1)*%
%TA.AperFunction,SMDPad,CuDef*%
G36*
G01*
X140924500Y-89159000D02*
X141269500Y-89159000D01*
G75*
G02*
X141417000Y-89306500I0J-147500D01*
G01*
X141417000Y-89601500D01*
G75*
G02*
X141269500Y-89749000I-147500J0D01*
G01*
X140924500Y-89749000D01*
G75*
G02*
X140777000Y-89601500I0J147500D01*
G01*
X140777000Y-89306500D01*
G75*
G02*
X140924500Y-89159000I147500J0D01*
G01*
G37*
%TD.AperFunction*%
%TD*%
%TO.P,R34,2*%
%TO.N,Net-(C70-Pad1)*%
%TA.AperFunction,SMDPad,CuDef*%
G36*
G01*
X137708000Y-85135500D02*
X137708000Y-84790500D01*
G75*
G02*
X137855500Y-84643000I147500J0D01*
G01*
X138150500Y-84643000D01*
G75*
G02*
X138298000Y-84790500I0J-147500D01*
G01*
X138298000Y-85135500D01*
G75*
G02*
X138150500Y-85283000I-147500J0D01*
G01*
X137855500Y-85283000D01*
G75*
G02*
X137708000Y-85135500I0J147500D01*
G01*
G37*
%TD.AperFunction*%
%TO.P,R34,1*%
%TO.N,Net-(C71-Pad1)*%
%TA.AperFunction,SMDPad,CuDef*%
G36*
G01*
X136738000Y-85135500D02*
X136738000Y-84790500D01*
G75*
G02*
X136885500Y-84643000I147500J0D01*
G01*
X137180500Y-84643000D01*
G75*
G02*
X137328000Y-84790500I0J-147500D01*
G01*
X137328000Y-85135500D01*
G75*
G02*
X137180500Y-85283000I-147500J0D01*
G01*
X136885500Y-85283000D01*
G75*
G02*
X136738000Y-85135500I0J147500D01*
G01*
G37*
%TD.AperFunction*%
%TD*%
D10*
%TO.P,J3,4*%
%TO.N,+5V*%
X140843000Y-73152000D03*
%TO.P,J3,3*%
%TO.N,GND*%
X140843000Y-75692000D03*
%TO.P,J3,2*%
%TO.N,+5V*%
X138303000Y-73152000D03*
D11*
%TO.P,J3,1*%
%TO.N,GND*%
X138303000Y-75692000D03*
%TD*%
D10*
%TO.P,J2,9*%
%TO.N,/FE_RD_ENABLED*%
X120904000Y-72771000D03*
%TO.P,J2,8*%
%TO.N,/D0*%
X120904000Y-75311000D03*
%TO.P,J2,7*%
%TO.N,/D1*%
X120904000Y-77851000D03*
%TO.P,J2,6*%
%TO.N,/D2*%
X120904000Y-80391000D03*
%TO.P,J2,5*%
%TO.N,/D3*%
X120904000Y-82931000D03*
%TO.P,J2,4*%
%TO.N,/D4*%
X120904000Y-85471000D03*
%TO.P,J2,3*%
%TO.N,/D5*%
X120904000Y-88011000D03*
%TO.P,J2,2*%
%TO.N,/D6*%
X120904000Y-90551000D03*
D11*
%TO.P,J2,1*%
%TO.N,/D7*%
X120904000Y-93091000D03*
%TD*%
D10*
%TO.P,J1,2*%
%TO.N,/TAPE_IN*%
X141097000Y-97790000D03*
D11*
%TO.P,J1,1*%
%TO.N,GND*%
X138557000Y-97790000D03*
%TD*%
D12*
%TO.P,IC13,8*%
%TO.N,+5V*%
X135566000Y-88478000D03*
%TO.P,IC13,7*%
%TO.N,Net-(C71-Pad2)*%
X135566000Y-87828000D03*
%TO.P,IC13,6*%
%TO.N,Net-(C71-Pad1)*%
X135566000Y-87178000D03*
%TO.P,IC13,5*%
%TO.N,/TAPE_IN_DIGIT*%
X135566000Y-86528000D03*
%TO.P,IC13,4*%
%TO.N,GND*%
X139516000Y-86528000D03*
%TO.P,IC13,3*%
%TO.N,Net-(C70-Pad2)*%
X139516000Y-87178000D03*
%TO.P,IC13,2*%
%TO.N,Net-(C70-Pad1)*%
X139516000Y-87828000D03*
%TO.P,IC13,1*%
%TO.N,Net-(D2-Pad1)*%
X139516000Y-88478000D03*
%TD*%
D13*
%TO.P,D4,2*%
%TO.N,Net-(D2-Pad1)*%
X128016000Y-89916000D03*
%TO.P,D4,1*%
%TO.N,Net-(C71-Pad2)*%
X128016000Y-86516000D03*
%TD*%
%TO.P,D3,2*%
%TO.N,GND*%
X137541000Y-95045000D03*
%TO.P,D3,1*%
%TO.N,Net-(C68-Pad1)*%
X137541000Y-91645000D03*
%TD*%
%TO.P,D2,2*%
%TO.N,Net-(C71-Pad2)*%
X131572000Y-86487000D03*
%TO.P,D2,1*%
%TO.N,Net-(D2-Pad1)*%
X131572000Y-89887000D03*
%TD*%
%TO.P,D1,2*%
%TO.N,Net-(C68-Pad1)*%
X133858000Y-91723000D03*
%TO.P,D1,1*%
%TO.N,GND*%
X133858000Y-95123000D03*
%TD*%
%TO.P,C71,2*%
%TO.N,Net-(C71-Pad2)*%
%TA.AperFunction,SMDPad,CuDef*%
G36*
G01*
X133812500Y-87716000D02*
X134157500Y-87716000D01*
G75*
G02*
X134305000Y-87863500I0J-147500D01*
G01*
X134305000Y-88158500D01*
G75*
G02*
X134157500Y-88306000I-147500J0D01*
G01*
X133812500Y-88306000D01*
G75*
G02*
X133665000Y-88158500I0J147500D01*
G01*
X133665000Y-87863500D01*
G75*
G02*
X133812500Y-87716000I147500J0D01*
G01*
G37*
%TD.AperFunction*%
%TO.P,C71,1*%
%TO.N,Net-(C71-Pad1)*%
%TA.AperFunction,SMDPad,CuDef*%
G36*
G01*
X133812500Y-86746000D02*
X134157500Y-86746000D01*
G75*
G02*
X134305000Y-86893500I0J-147500D01*
G01*
X134305000Y-87188500D01*
G75*
G02*
X134157500Y-87336000I-147500J0D01*
G01*
X133812500Y-87336000D01*
G75*
G02*
X133665000Y-87188500I0J147500D01*
G01*
X133665000Y-86893500D01*
G75*
G02*
X133812500Y-86746000I147500J0D01*
G01*
G37*
%TD.AperFunction*%
%TD*%
%TO.P,C70,2*%
%TO.N,Net-(C70-Pad2)*%
%TA.AperFunction,SMDPad,CuDef*%
G36*
G01*
X141269500Y-87417000D02*
X140924500Y-87417000D01*
G75*
G02*
X140777000Y-87269500I0J147500D01*
G01*
X140777000Y-86974500D01*
G75*
G02*
X140924500Y-86827000I147500J0D01*
G01*
X141269500Y-86827000D01*
G75*
G02*
X141417000Y-86974500I0J-147500D01*
G01*
X141417000Y-87269500D01*
G75*
G02*
X141269500Y-87417000I-147500J0D01*
G01*
G37*
%TD.AperFunction*%
%TO.P,C70,1*%
%TO.N,Net-(C70-Pad1)*%
%TA.AperFunction,SMDPad,CuDef*%
G36*
G01*
X141269500Y-88387000D02*
X140924500Y-88387000D01*
G75*
G02*
X140777000Y-88239500I0J147500D01*
G01*
X140777000Y-87944500D01*
G75*
G02*
X140924500Y-87797000I147500J0D01*
G01*
X141269500Y-87797000D01*
G75*
G02*
X141417000Y-87944500I0J-147500D01*
G01*
X141417000Y-88239500D01*
G75*
G02*
X141269500Y-88387000I-147500J0D01*
G01*
G37*
%TD.AperFunction*%
%TD*%
%TO.P,C69,2*%
%TO.N,/TAPE_IN*%
%TA.AperFunction,SMDPad,CuDef*%
G36*
G01*
X140924500Y-93893000D02*
X141269500Y-93893000D01*
G75*
G02*
X141417000Y-94040500I0J-147500D01*
G01*
X141417000Y-94335500D01*
G75*
G02*
X141269500Y-94483000I-147500J0D01*
G01*
X140924500Y-94483000D01*
G75*
G02*
X140777000Y-94335500I0J147500D01*
G01*
X140777000Y-94040500D01*
G75*
G02*
X140924500Y-93893000I147500J0D01*
G01*
G37*
%TD.AperFunction*%
%TO.P,C69,1*%
%TO.N,Net-(C68-Pad2)*%
%TA.AperFunction,SMDPad,CuDef*%
G36*
G01*
X140924500Y-92923000D02*
X141269500Y-92923000D01*
G75*
G02*
X141417000Y-93070500I0J-147500D01*
G01*
X141417000Y-93365500D01*
G75*
G02*
X141269500Y-93513000I-147500J0D01*
G01*
X140924500Y-93513000D01*
G75*
G02*
X140777000Y-93365500I0J147500D01*
G01*
X140777000Y-93070500D01*
G75*
G02*
X140924500Y-92923000I147500J0D01*
G01*
G37*
%TD.AperFunction*%
%TD*%
%TO.P,C68,2*%
%TO.N,Net-(C68-Pad2)*%
%TA.AperFunction,SMDPad,CuDef*%
G36*
G01*
X140779000Y-91866500D02*
X140779000Y-91521500D01*
G75*
G02*
X140926500Y-91374000I147500J0D01*
G01*
X141221500Y-91374000D01*
G75*
G02*
X141369000Y-91521500I0J-147500D01*
G01*
X141369000Y-91866500D01*
G75*
G02*
X141221500Y-92014000I-147500J0D01*
G01*
X140926500Y-92014000D01*
G75*
G02*
X140779000Y-91866500I0J147500D01*
G01*
G37*
%TD.AperFunction*%
%TO.P,C68,1*%
%TO.N,Net-(C68-Pad1)*%
%TA.AperFunction,SMDPad,CuDef*%
G36*
G01*
X139809000Y-91866500D02*
X139809000Y-91521500D01*
G75*
G02*
X139956500Y-91374000I147500J0D01*
G01*
X140251500Y-91374000D01*
G75*
G02*
X140399000Y-91521500I0J-147500D01*
G01*
X140399000Y-91866500D01*
G75*
G02*
X140251500Y-92014000I-147500J0D01*
G01*
X139956500Y-92014000D01*
G75*
G02*
X139809000Y-91866500I0J147500D01*
G01*
G37*
%TD.AperFunction*%
%TD*%
D14*
%TO.N,GND*%
X139687300Y-85458300D03*
X125006100Y-79095600D03*
%TO.N,+5V*%
X137127999Y-82848199D03*
X137127999Y-88359999D03*
%TO.N,/TAPE_IN_DIGIT*%
X133604000Y-82931000D03*
X127889000Y-74295000D03*
%TD*%
D15*
%TO.N,Net-(C68-Pad2)*%
X141097000Y-91717000D02*
X141074000Y-91694000D01*
X141097000Y-93218000D02*
X141097000Y-91717000D01*
X141074000Y-90447000D02*
X141097000Y-90424000D01*
X141074000Y-91694000D02*
X141074000Y-90447000D01*
%TO.N,Net-(C68-Pad1)*%
X137463000Y-91723000D02*
X137541000Y-91645000D01*
X133858000Y-91723000D02*
X137463000Y-91723000D01*
X140055000Y-91645000D02*
X140104000Y-91694000D01*
X137541000Y-91645000D02*
X140055000Y-91645000D01*
%TO.N,/TAPE_IN*%
X141097000Y-94188000D02*
X141097000Y-97790000D01*
%TO.N,Net-(C70-Pad2)*%
X141041000Y-87178000D02*
X141097000Y-87122000D01*
X139516000Y-87178000D02*
X141041000Y-87178000D01*
%TO.N,Net-(C70-Pad1)*%
X138880998Y-87828000D02*
X139516000Y-87828000D01*
X138003000Y-86950002D02*
X138880998Y-87828000D01*
X138003000Y-84963000D02*
X138003000Y-86950002D01*
X140833000Y-87828000D02*
X141097000Y-88092000D01*
X139516000Y-87828000D02*
X140833000Y-87828000D01*
%TO.N,Net-(C71-Pad2)*%
X131543000Y-86516000D02*
X131572000Y-86487000D01*
X128016000Y-86516000D02*
X131543000Y-86516000D01*
X135566000Y-87828000D02*
X134168000Y-87828000D01*
X133096000Y-88011000D02*
X131572000Y-86487000D01*
X133985000Y-88011000D02*
X133096000Y-88011000D01*
%TO.N,Net-(C71-Pad1)*%
X136201002Y-87178000D02*
X135566000Y-87178000D01*
X137033000Y-86346002D02*
X136201002Y-87178000D01*
X137033000Y-84963000D02*
X137033000Y-86346002D01*
X135566000Y-87178000D02*
X134122000Y-87178000D01*
%TO.N,GND*%
X137541000Y-95045000D02*
X133936000Y-95045000D01*
X137541000Y-96774000D02*
X138557000Y-97790000D01*
X137541000Y-95045000D02*
X137541000Y-96774000D01*
X139516000Y-85629600D02*
X139687300Y-85458300D01*
X139516000Y-86528000D02*
X139516000Y-85629600D01*
X125151000Y-78950700D02*
X125006100Y-79095600D01*
X125151000Y-78109000D02*
X125151000Y-78950700D01*
X140843000Y-75692000D02*
X138303000Y-75692000D01*
%TO.N,Net-(D2-Pad1)*%
X131543000Y-89916000D02*
X131572000Y-89887000D01*
X128016000Y-89916000D02*
X131543000Y-89916000D01*
X140492000Y-89454000D02*
X139516000Y-88478000D01*
X141097000Y-89454000D02*
X140492000Y-89454000D01*
X138107000Y-89887000D02*
X139516000Y-88478000D01*
X131572000Y-89887000D02*
X138107000Y-89887000D01*
%TO.N,+5V*%
X137410000Y-72259000D02*
X138303000Y-73152000D01*
X132151000Y-72259000D02*
X137410000Y-72259000D01*
X138303000Y-73152000D02*
X140843000Y-73152000D01*
X137127999Y-74327001D02*
X137127999Y-82848199D01*
X138303000Y-73152000D02*
X137127999Y-74327001D01*
X137127999Y-82848199D02*
X137127999Y-82848199D01*
X137009998Y-88478000D02*
X135566000Y-88478000D01*
X137127999Y-88359999D02*
X137009998Y-88478000D01*
%TO.N,/TAPE_IN_DIGIT*%
X135566000Y-86528000D02*
X135566000Y-84893000D01*
X135566000Y-84893000D02*
X133604000Y-82931000D01*
X133604000Y-82931000D02*
X133604000Y-82931000D01*
X127803000Y-74209000D02*
X125151000Y-74209000D01*
X127889000Y-74295000D02*
X127803000Y-74209000D01*
%TO.N,/FE_RD_ENABLED*%
X131064608Y-72909000D02*
X132151000Y-72909000D01*
X130414608Y-72259000D02*
X131064608Y-72909000D01*
X121416000Y-72259000D02*
X125151000Y-72259000D01*
X120904000Y-72771000D02*
X121416000Y-72259000D01*
X125151000Y-72259000D02*
X130414608Y-72259000D01*
%TO.N,/D0*%
X120904000Y-75311000D02*
X122656000Y-73559000D01*
X122656000Y-73559000D02*
X125151000Y-73559000D01*
%TO.N,/D1*%
X123896000Y-74859000D02*
X125151000Y-74859000D01*
X120904000Y-77851000D02*
X123896000Y-74859000D01*
%TO.N,/D2*%
X120904000Y-80391000D02*
X122301705Y-78993295D01*
X122301705Y-78071883D02*
X124214588Y-76159000D01*
X124214588Y-76159000D02*
X125151000Y-76159000D01*
X122301705Y-78993295D02*
X122301705Y-78071883D01*
%TO.N,/D3*%
X124090000Y-77459000D02*
X125151000Y-77459000D01*
X122751715Y-78797285D02*
X124090000Y-77459000D01*
X122751715Y-81083285D02*
X122751715Y-78797285D01*
X120904000Y-82931000D02*
X122751715Y-81083285D01*
%TO.N,/D4*%
X128916000Y-77459000D02*
X132151000Y-77459000D01*
X120904000Y-85471000D02*
X128916000Y-77459000D01*
%TO.N,/D5*%
X133087412Y-76159000D02*
X132151000Y-76159000D01*
X133426010Y-76497598D02*
X133087412Y-76159000D01*
X133426010Y-78420402D02*
X133426010Y-76497598D01*
X133162402Y-78684010D02*
X133151990Y-78684010D01*
X133426010Y-78420402D02*
X133162402Y-78684010D01*
X133151990Y-78684010D02*
X129667000Y-82169000D01*
X126746000Y-82169000D02*
X120904000Y-88011000D01*
X129667000Y-82169000D02*
X126746000Y-82169000D01*
%TO.N,/D6*%
X129736010Y-83242990D02*
X128845599Y-83242991D01*
X132151000Y-74859000D02*
X132151000Y-74874000D01*
X132151000Y-74874000D02*
X132210990Y-74933990D01*
X133876020Y-75647608D02*
X133876020Y-79102980D01*
X133876020Y-79102980D02*
X129736010Y-83242990D01*
X132210990Y-74933990D02*
X133162402Y-74933990D01*
X133162402Y-74933990D02*
X133876020Y-75647608D01*
X121537590Y-90551000D02*
X120904000Y-90551000D01*
X128845599Y-83242991D02*
X121537590Y-90551000D01*
%TO.N,/D7*%
X124206000Y-89789000D02*
X120904000Y-93091000D01*
X129032000Y-83693000D02*
X124206000Y-88519000D01*
X133237392Y-73559000D02*
X134326029Y-74647637D01*
X132151000Y-73559000D02*
X133237392Y-73559000D01*
X134326029Y-80176971D02*
X130810000Y-83693000D01*
X124206000Y-88519000D02*
X124206000Y-89789000D01*
X134326029Y-74647637D02*
X134326029Y-80176971D01*
X130810000Y-83693000D02*
X129032000Y-83693000D01*
%TD*%
M02*
