%TF.GenerationSoftware,KiCad,Pcbnew,(5.1.6)-1*%
%TF.CreationDate,2020-09-22T22:17:54+03:00*%
%TF.ProjectId,Tape devboard,54617065-2064-4657-9662-6f6172642e6b,rev?*%
%TF.SameCoordinates,Original*%
%TF.FileFunction,Legend,Bot*%
%TF.FilePolarity,Positive*%
%FSLAX46Y46*%
G04 Gerber Fmt 4.6, Leading zero omitted, Abs format (unit mm)*
G04 Created by KiCad (PCBNEW (5.1.6)-1) date 2020-09-22 22:17:54*
%MOMM*%
%LPD*%
G01*
G04 APERTURE LIST*
%ADD10C,0.150000*%
G04 APERTURE END LIST*
D10*
X129828347Y-96658180D02*
X129828347Y-97372466D01*
X129875966Y-97515323D01*
X129971204Y-97610561D01*
X130114061Y-97658180D01*
X130209300Y-97658180D01*
X128875966Y-97658180D02*
X129352157Y-97658180D01*
X129352157Y-96658180D01*
X127971204Y-97562942D02*
X128018823Y-97610561D01*
X128161680Y-97658180D01*
X128256919Y-97658180D01*
X128399776Y-97610561D01*
X128495014Y-97515323D01*
X128542633Y-97420085D01*
X128590252Y-97229609D01*
X128590252Y-97086752D01*
X128542633Y-96896276D01*
X128495014Y-96801038D01*
X128399776Y-96705800D01*
X128256919Y-96658180D01*
X128161680Y-96658180D01*
X128018823Y-96705800D01*
X127971204Y-96753419D01*
X127256919Y-96658180D02*
X127256919Y-97372466D01*
X127304538Y-97515323D01*
X127399776Y-97610561D01*
X127542633Y-97658180D01*
X127637871Y-97658180D01*
X126304538Y-97658180D02*
X126780728Y-97658180D01*
X126780728Y-96658180D01*
X125399776Y-97562942D02*
X125447395Y-97610561D01*
X125590252Y-97658180D01*
X125685490Y-97658180D01*
X125828347Y-97610561D01*
X125923585Y-97515323D01*
X125971204Y-97420085D01*
X126018823Y-97229609D01*
X126018823Y-97086752D01*
X125971204Y-96896276D01*
X125923585Y-96801038D01*
X125828347Y-96705800D01*
X125685490Y-96658180D01*
X125590252Y-96658180D01*
X125447395Y-96705800D01*
X125399776Y-96753419D01*
X124685490Y-96658180D02*
X124685490Y-97372466D01*
X124733109Y-97515323D01*
X124828347Y-97610561D01*
X124971204Y-97658180D01*
X125066442Y-97658180D01*
X123733109Y-97658180D02*
X124209300Y-97658180D01*
X124209300Y-96658180D01*
X122828347Y-97562942D02*
X122875966Y-97610561D01*
X123018823Y-97658180D01*
X123114061Y-97658180D01*
X123256919Y-97610561D01*
X123352157Y-97515323D01*
X123399776Y-97420085D01*
X123447395Y-97229609D01*
X123447395Y-97086752D01*
X123399776Y-96896276D01*
X123352157Y-96801038D01*
X123256919Y-96705800D01*
X123114061Y-96658180D01*
X123018823Y-96658180D01*
X122875966Y-96705800D01*
X122828347Y-96753419D01*
X122114061Y-96658180D02*
X122114061Y-97372466D01*
X122161680Y-97515323D01*
X122256919Y-97610561D01*
X122399776Y-97658180D01*
X122495014Y-97658180D01*
X121161680Y-97658180D02*
X121637871Y-97658180D01*
X121637871Y-96658180D01*
X120256919Y-97562942D02*
X120304538Y-97610561D01*
X120447395Y-97658180D01*
X120542633Y-97658180D01*
X120685490Y-97610561D01*
X120780728Y-97515323D01*
X120828347Y-97420085D01*
X120875966Y-97229609D01*
X120875966Y-97086752D01*
X120828347Y-96896276D01*
X120780728Y-96801038D01*
X120685490Y-96705800D01*
X120542633Y-96658180D01*
X120447395Y-96658180D01*
X120304538Y-96705800D01*
X120256919Y-96753419D01*
M02*
