%TF.GenerationSoftware,KiCad,Pcbnew,(5.1.6)-1*%
%TF.CreationDate,2020-09-22T22:17:54+03:00*%
%TF.ProjectId,Tape devboard,54617065-2064-4657-9662-6f6172642e6b,rev?*%
%TF.SameCoordinates,Original*%
%TF.FileFunction,Legend,Top*%
%TF.FilePolarity,Positive*%
%FSLAX46Y46*%
G04 Gerber Fmt 4.6, Leading zero omitted, Abs format (unit mm)*
G04 Created by KiCad (PCBNEW (5.1.6)-1) date 2020-09-22 22:17:54*
%MOMM*%
%LPD*%
G01*
G04 APERTURE LIST*
%ADD10C,0.150000*%
%ADD11C,0.300000*%
%ADD12C,0.120000*%
%ADD13C,0.200000*%
G04 APERTURE END LIST*
D10*
X123240847Y-71547028D02*
X124002752Y-71547028D01*
X123621800Y-71927980D02*
X123621800Y-71166076D01*
X123353604Y-93784680D02*
X123353604Y-92784680D01*
X123591700Y-92784680D01*
X123734557Y-92832300D01*
X123829795Y-92927538D01*
X123877414Y-93022776D01*
X123925033Y-93213252D01*
X123925033Y-93356109D01*
X123877414Y-93546585D01*
X123829795Y-93641823D01*
X123734557Y-93737061D01*
X123591700Y-93784680D01*
X123353604Y-93784680D01*
X124258366Y-92784680D02*
X124925033Y-92784680D01*
X124496461Y-93784680D01*
X123372619Y-81410466D02*
X124372619Y-81410466D01*
X124372619Y-81648561D01*
X124325000Y-81791419D01*
X124229761Y-81886657D01*
X124134523Y-81934276D01*
X123944047Y-81981895D01*
X123801190Y-81981895D01*
X123610714Y-81934276D01*
X123515476Y-81886657D01*
X123420238Y-81791419D01*
X123372619Y-81648561D01*
X123372619Y-81410466D01*
X124372619Y-82600942D02*
X124372619Y-82696180D01*
X124325000Y-82791419D01*
X124277380Y-82839038D01*
X124182142Y-82886657D01*
X123991666Y-82934276D01*
X123753571Y-82934276D01*
X123563095Y-82886657D01*
X123467857Y-82839038D01*
X123420238Y-82791419D01*
X123372619Y-82696180D01*
X123372619Y-82600942D01*
X123420238Y-82505704D01*
X123467857Y-82458085D01*
X123563095Y-82410466D01*
X123753571Y-82362847D01*
X123991666Y-82362847D01*
X124182142Y-82410466D01*
X124277380Y-82458085D01*
X124325000Y-82505704D01*
X124372619Y-82600942D01*
X123753571Y-83362847D02*
X123753571Y-84124752D01*
X123372619Y-84600942D02*
X124372619Y-84600942D01*
X124372619Y-84839038D01*
X124325000Y-84981895D01*
X124229761Y-85077133D01*
X124134523Y-85124752D01*
X123944047Y-85172371D01*
X123801190Y-85172371D01*
X123610714Y-85124752D01*
X123515476Y-85077133D01*
X123420238Y-84981895D01*
X123372619Y-84839038D01*
X123372619Y-84600942D01*
X124372619Y-85505704D02*
X124372619Y-86172371D01*
X123372619Y-85743800D01*
X119520366Y-70210371D02*
X119187033Y-70210371D01*
X119187033Y-70734180D02*
X119187033Y-69734180D01*
X119663223Y-69734180D01*
X120044176Y-70210371D02*
X120377509Y-70210371D01*
X120520366Y-70734180D02*
X120044176Y-70734180D01*
X120044176Y-69734180D01*
X120520366Y-69734180D01*
X120710842Y-70829419D02*
X121472747Y-70829419D01*
X122282271Y-70734180D02*
X121948938Y-70257990D01*
X121710842Y-70734180D02*
X121710842Y-69734180D01*
X122091795Y-69734180D01*
X122187033Y-69781800D01*
X122234652Y-69829419D01*
X122282271Y-69924657D01*
X122282271Y-70067514D01*
X122234652Y-70162752D01*
X122187033Y-70210371D01*
X122091795Y-70257990D01*
X121710842Y-70257990D01*
X122710842Y-70734180D02*
X122710842Y-69734180D01*
X122948938Y-69734180D01*
X123091795Y-69781800D01*
X123187033Y-69877038D01*
X123234652Y-69972276D01*
X123282271Y-70162752D01*
X123282271Y-70305609D01*
X123234652Y-70496085D01*
X123187033Y-70591323D01*
X123091795Y-70686561D01*
X122948938Y-70734180D01*
X122710842Y-70734180D01*
X123472747Y-70829419D02*
X124234652Y-70829419D01*
X124472747Y-70210371D02*
X124806080Y-70210371D01*
X124948938Y-70734180D02*
X124472747Y-70734180D01*
X124472747Y-69734180D01*
X124948938Y-69734180D01*
X125377509Y-70734180D02*
X125377509Y-69734180D01*
X125948938Y-70734180D01*
X125948938Y-69734180D01*
X126377509Y-70448466D02*
X126853700Y-70448466D01*
X126282271Y-70734180D02*
X126615604Y-69734180D01*
X126948938Y-70734180D01*
X127615604Y-70210371D02*
X127758461Y-70257990D01*
X127806080Y-70305609D01*
X127853700Y-70400847D01*
X127853700Y-70543704D01*
X127806080Y-70638942D01*
X127758461Y-70686561D01*
X127663223Y-70734180D01*
X127282271Y-70734180D01*
X127282271Y-69734180D01*
X127615604Y-69734180D01*
X127710842Y-69781800D01*
X127758461Y-69829419D01*
X127806080Y-69924657D01*
X127806080Y-70019895D01*
X127758461Y-70115133D01*
X127710842Y-70162752D01*
X127615604Y-70210371D01*
X127282271Y-70210371D01*
X128758461Y-70734180D02*
X128282271Y-70734180D01*
X128282271Y-69734180D01*
X129091795Y-70210371D02*
X129425128Y-70210371D01*
X129567985Y-70734180D02*
X129091795Y-70734180D01*
X129091795Y-69734180D01*
X129567985Y-69734180D01*
X129996557Y-70734180D02*
X129996557Y-69734180D01*
X130234652Y-69734180D01*
X130377509Y-69781800D01*
X130472747Y-69877038D01*
X130520366Y-69972276D01*
X130567985Y-70162752D01*
X130567985Y-70305609D01*
X130520366Y-70496085D01*
X130472747Y-70591323D01*
X130377509Y-70686561D01*
X130234652Y-70734180D01*
X129996557Y-70734180D01*
X126830485Y-83002380D02*
X126497152Y-82526190D01*
X126259057Y-83002380D02*
X126259057Y-82002380D01*
X126640009Y-82002380D01*
X126735247Y-82050000D01*
X126782866Y-82097619D01*
X126830485Y-82192857D01*
X126830485Y-82335714D01*
X126782866Y-82430952D01*
X126735247Y-82478571D01*
X126640009Y-82526190D01*
X126259057Y-82526190D01*
X127640009Y-82954761D02*
X127544771Y-83002380D01*
X127354295Y-83002380D01*
X127259057Y-82954761D01*
X127211438Y-82859523D01*
X127211438Y-82478571D01*
X127259057Y-82383333D01*
X127354295Y-82335714D01*
X127544771Y-82335714D01*
X127640009Y-82383333D01*
X127687628Y-82478571D01*
X127687628Y-82573809D01*
X127211438Y-82669047D01*
X128020961Y-82335714D02*
X128259057Y-83002380D01*
X128497152Y-82335714D01*
X128878104Y-82907142D02*
X128925723Y-82954761D01*
X128878104Y-83002380D01*
X128830485Y-82954761D01*
X128878104Y-82907142D01*
X128878104Y-83002380D01*
X130640009Y-83002380D02*
X130068580Y-83002380D01*
X130354295Y-83002380D02*
X130354295Y-82002380D01*
X130259057Y-82145238D01*
X130163819Y-82240476D01*
X130068580Y-82288095D01*
X131068580Y-82907142D02*
X131116200Y-82954761D01*
X131068580Y-83002380D01*
X131020961Y-82954761D01*
X131068580Y-82907142D01*
X131068580Y-83002380D01*
X131735247Y-82002380D02*
X131830485Y-82002380D01*
X131925723Y-82050000D01*
X131973342Y-82097619D01*
X132020961Y-82192857D01*
X132068580Y-82383333D01*
X132068580Y-82621428D01*
X132020961Y-82811904D01*
X131973342Y-82907142D01*
X131925723Y-82954761D01*
X131830485Y-83002380D01*
X131735247Y-83002380D01*
X131640009Y-82954761D01*
X131592390Y-82907142D01*
X131544771Y-82811904D01*
X131497152Y-82621428D01*
X131497152Y-82383333D01*
X131544771Y-82192857D01*
X131592390Y-82097619D01*
X131640009Y-82050000D01*
X131735247Y-82002380D01*
X132687628Y-82002380D02*
X132782866Y-82002380D01*
X132878104Y-82050000D01*
X132925723Y-82097619D01*
X132973342Y-82192857D01*
X133020961Y-82383333D01*
X133020961Y-82621428D01*
X132973342Y-82811904D01*
X132925723Y-82907142D01*
X132878104Y-82954761D01*
X132782866Y-83002380D01*
X132687628Y-83002380D01*
X132592390Y-82954761D01*
X132544771Y-82907142D01*
X132497152Y-82811904D01*
X132449533Y-82621428D01*
X132449533Y-82383333D01*
X132497152Y-82192857D01*
X132544771Y-82097619D01*
X132592390Y-82050000D01*
X132687628Y-82002380D01*
D11*
X126223142Y-79709271D02*
X127080285Y-79709271D01*
X126651714Y-81209271D02*
X126651714Y-79709271D01*
X128223142Y-81209271D02*
X128223142Y-80423557D01*
X128151714Y-80280700D01*
X128008857Y-80209271D01*
X127723142Y-80209271D01*
X127580285Y-80280700D01*
X128223142Y-81137842D02*
X128080285Y-81209271D01*
X127723142Y-81209271D01*
X127580285Y-81137842D01*
X127508857Y-80994985D01*
X127508857Y-80852128D01*
X127580285Y-80709271D01*
X127723142Y-80637842D01*
X128080285Y-80637842D01*
X128223142Y-80566414D01*
X128937428Y-80209271D02*
X128937428Y-81709271D01*
X128937428Y-80280700D02*
X129080285Y-80209271D01*
X129366000Y-80209271D01*
X129508857Y-80280700D01*
X129580285Y-80352128D01*
X129651714Y-80494985D01*
X129651714Y-80923557D01*
X129580285Y-81066414D01*
X129508857Y-81137842D01*
X129366000Y-81209271D01*
X129080285Y-81209271D01*
X128937428Y-81137842D01*
X130866000Y-81137842D02*
X130723142Y-81209271D01*
X130437428Y-81209271D01*
X130294571Y-81137842D01*
X130223142Y-80994985D01*
X130223142Y-80423557D01*
X130294571Y-80280700D01*
X130437428Y-80209271D01*
X130723142Y-80209271D01*
X130866000Y-80280700D01*
X130937428Y-80423557D01*
X130937428Y-80566414D01*
X130223142Y-80709271D01*
X132723142Y-81209271D02*
X132723142Y-79709271D01*
X133080285Y-79709271D01*
X133294571Y-79780700D01*
X133437428Y-79923557D01*
X133508857Y-80066414D01*
X133580285Y-80352128D01*
X133580285Y-80566414D01*
X133508857Y-80852128D01*
X133437428Y-80994985D01*
X133294571Y-81137842D01*
X133080285Y-81209271D01*
X132723142Y-81209271D01*
X134794571Y-81137842D02*
X134651714Y-81209271D01*
X134366000Y-81209271D01*
X134223142Y-81137842D01*
X134151714Y-80994985D01*
X134151714Y-80423557D01*
X134223142Y-80280700D01*
X134366000Y-80209271D01*
X134651714Y-80209271D01*
X134794571Y-80280700D01*
X134866000Y-80423557D01*
X134866000Y-80566414D01*
X134151714Y-80709271D01*
X135366000Y-80209271D02*
X135723142Y-81209271D01*
X136080285Y-80209271D01*
X136651714Y-81209271D02*
X136651714Y-79709271D01*
X136651714Y-80280700D02*
X136794571Y-80209271D01*
X137080285Y-80209271D01*
X137223142Y-80280700D01*
X137294571Y-80352128D01*
X137366000Y-80494985D01*
X137366000Y-80923557D01*
X137294571Y-81066414D01*
X137223142Y-81137842D01*
X137080285Y-81209271D01*
X136794571Y-81209271D01*
X136651714Y-81137842D01*
X138223142Y-81209271D02*
X138080285Y-81137842D01*
X138008857Y-81066414D01*
X137937428Y-80923557D01*
X137937428Y-80494985D01*
X138008857Y-80352128D01*
X138080285Y-80280700D01*
X138223142Y-80209271D01*
X138437428Y-80209271D01*
X138580285Y-80280700D01*
X138651714Y-80352128D01*
X138723142Y-80494985D01*
X138723142Y-80923557D01*
X138651714Y-81066414D01*
X138580285Y-81137842D01*
X138437428Y-81209271D01*
X138223142Y-81209271D01*
X140008857Y-81209271D02*
X140008857Y-80423557D01*
X139937428Y-80280700D01*
X139794571Y-80209271D01*
X139508857Y-80209271D01*
X139366000Y-80280700D01*
X140008857Y-81137842D02*
X139866000Y-81209271D01*
X139508857Y-81209271D01*
X139366000Y-81137842D01*
X139294571Y-80994985D01*
X139294571Y-80852128D01*
X139366000Y-80709271D01*
X139508857Y-80637842D01*
X139866000Y-80637842D01*
X140008857Y-80566414D01*
X140723142Y-81209271D02*
X140723142Y-80209271D01*
X140723142Y-80494985D02*
X140794571Y-80352128D01*
X140866000Y-80280700D01*
X141008857Y-80209271D01*
X141151714Y-80209271D01*
X142294571Y-81209271D02*
X142294571Y-79709271D01*
X142294571Y-81137842D02*
X142151714Y-81209271D01*
X141866000Y-81209271D01*
X141723142Y-81137842D01*
X141651714Y-81066414D01*
X141580285Y-80923557D01*
X141580285Y-80494985D01*
X141651714Y-80352128D01*
X141723142Y-80280700D01*
X141866000Y-80209271D01*
X142151714Y-80209271D01*
X142294571Y-80280700D01*
D10*
X126079666Y-92146380D02*
X126079666Y-91146380D01*
X126317761Y-91146380D01*
X126460619Y-91194000D01*
X126555857Y-91289238D01*
X126603476Y-91384476D01*
X126651095Y-91574952D01*
X126651095Y-91717809D01*
X126603476Y-91908285D01*
X126555857Y-92003523D01*
X126460619Y-92098761D01*
X126317761Y-92146380D01*
X126079666Y-92146380D01*
X127079666Y-92146380D02*
X127079666Y-91146380D01*
X127317761Y-91146380D01*
X127460619Y-91194000D01*
X127555857Y-91289238D01*
X127603476Y-91384476D01*
X127651095Y-91574952D01*
X127651095Y-91717809D01*
X127603476Y-91908285D01*
X127555857Y-92003523D01*
X127460619Y-92098761D01*
X127317761Y-92146380D01*
X127079666Y-92146380D01*
X128603476Y-92146380D02*
X128032047Y-92146380D01*
X128317761Y-92146380D02*
X128317761Y-91146380D01*
X128222523Y-91289238D01*
X128127285Y-91384476D01*
X128032047Y-91432095D01*
X129032047Y-91765428D02*
X129793952Y-91765428D01*
X130270142Y-92146380D02*
X130270142Y-91146380D01*
X130508238Y-91146380D01*
X130651095Y-91194000D01*
X130746333Y-91289238D01*
X130793952Y-91384476D01*
X130841571Y-91574952D01*
X130841571Y-91717809D01*
X130793952Y-91908285D01*
X130746333Y-92003523D01*
X130651095Y-92098761D01*
X130508238Y-92146380D01*
X130270142Y-92146380D01*
X131270142Y-92146380D02*
X131270142Y-91146380D01*
X131508238Y-91146380D01*
X131651095Y-91194000D01*
X131746333Y-91289238D01*
X131793952Y-91384476D01*
X131841571Y-91574952D01*
X131841571Y-91717809D01*
X131793952Y-91908285D01*
X131746333Y-92003523D01*
X131651095Y-92098761D01*
X131508238Y-92146380D01*
X131270142Y-92146380D01*
X132698714Y-91479714D02*
X132698714Y-92146380D01*
X132460619Y-91098761D02*
X132222523Y-91813047D01*
X132841571Y-91813047D01*
X134239095Y-97290000D02*
X134143857Y-97242380D01*
X134001000Y-97242380D01*
X133858142Y-97290000D01*
X133762904Y-97385238D01*
X133715285Y-97480476D01*
X133667666Y-97670952D01*
X133667666Y-97813809D01*
X133715285Y-98004285D01*
X133762904Y-98099523D01*
X133858142Y-98194761D01*
X134001000Y-98242380D01*
X134096238Y-98242380D01*
X134239095Y-98194761D01*
X134286714Y-98147142D01*
X134286714Y-97813809D01*
X134096238Y-97813809D01*
X134715285Y-98242380D02*
X134715285Y-97242380D01*
X135286714Y-98242380D01*
X135286714Y-97242380D01*
X135762904Y-98242380D02*
X135762904Y-97242380D01*
X136001000Y-97242380D01*
X136143857Y-97290000D01*
X136239095Y-97385238D01*
X136286714Y-97480476D01*
X136334333Y-97670952D01*
X136334333Y-97813809D01*
X136286714Y-98004285D01*
X136239095Y-98099523D01*
X136143857Y-98194761D01*
X136001000Y-98242380D01*
X135762904Y-98242380D01*
X142708380Y-95773523D02*
X142708380Y-95202095D01*
X143708380Y-95487809D02*
X142708380Y-95487809D01*
X143422666Y-94916380D02*
X143422666Y-94440190D01*
X143708380Y-95011619D02*
X142708380Y-94678285D01*
X143708380Y-94344952D01*
X143708380Y-94011619D02*
X142708380Y-94011619D01*
X142708380Y-93630666D01*
X142756000Y-93535428D01*
X142803619Y-93487809D01*
X142898857Y-93440190D01*
X143041714Y-93440190D01*
X143136952Y-93487809D01*
X143184571Y-93535428D01*
X143232190Y-93630666D01*
X143232190Y-94011619D01*
X143184571Y-93011619D02*
X143184571Y-92678285D01*
X143708380Y-92535428D02*
X143708380Y-93011619D01*
X142708380Y-93011619D01*
X142708380Y-92535428D01*
X143803619Y-92344952D02*
X143803619Y-91583047D01*
X143708380Y-91344952D02*
X142708380Y-91344952D01*
X143708380Y-90868761D02*
X142708380Y-90868761D01*
X143708380Y-90297333D01*
X142708380Y-90297333D01*
X137668095Y-77986000D02*
X137572857Y-77938380D01*
X137430000Y-77938380D01*
X137287142Y-77986000D01*
X137191904Y-78081238D01*
X137144285Y-78176476D01*
X137096666Y-78366952D01*
X137096666Y-78509809D01*
X137144285Y-78700285D01*
X137191904Y-78795523D01*
X137287142Y-78890761D01*
X137430000Y-78938380D01*
X137525238Y-78938380D01*
X137668095Y-78890761D01*
X137715714Y-78843142D01*
X137715714Y-78509809D01*
X137525238Y-78509809D01*
X138144285Y-78938380D02*
X138144285Y-77938380D01*
X138715714Y-78938380D01*
X138715714Y-77938380D01*
X139191904Y-78938380D02*
X139191904Y-77938380D01*
X139430000Y-77938380D01*
X139572857Y-77986000D01*
X139668095Y-78081238D01*
X139715714Y-78176476D01*
X139763333Y-78366952D01*
X139763333Y-78509809D01*
X139715714Y-78700285D01*
X139668095Y-78795523D01*
X139572857Y-78890761D01*
X139430000Y-78938380D01*
X139191904Y-78938380D01*
X137017285Y-70683428D02*
X137779190Y-70683428D01*
X137398238Y-71064380D02*
X137398238Y-70302476D01*
X138731571Y-70064380D02*
X138255380Y-70064380D01*
X138207761Y-70540571D01*
X138255380Y-70492952D01*
X138350619Y-70445333D01*
X138588714Y-70445333D01*
X138683952Y-70492952D01*
X138731571Y-70540571D01*
X138779190Y-70635809D01*
X138779190Y-70873904D01*
X138731571Y-70969142D01*
X138683952Y-71016761D01*
X138588714Y-71064380D01*
X138350619Y-71064380D01*
X138255380Y-71016761D01*
X138207761Y-70969142D01*
X139064904Y-70064380D02*
X139398238Y-71064380D01*
X139731571Y-70064380D01*
D12*
%TO.C,U10*%
X125891000Y-71749000D02*
X124201000Y-71749000D01*
X125891000Y-71474000D02*
X125891000Y-71749000D01*
X128651000Y-71474000D02*
X125891000Y-71474000D01*
X131411000Y-71474000D02*
X131411000Y-71749000D01*
X128651000Y-71474000D02*
X131411000Y-71474000D01*
X125891000Y-78894000D02*
X125891000Y-78619000D01*
X128651000Y-78894000D02*
X125891000Y-78894000D01*
X131411000Y-78894000D02*
X131411000Y-78619000D01*
X128651000Y-78894000D02*
X131411000Y-78894000D01*
%TO.C,J3*%
X136973000Y-77022000D02*
X136973000Y-75692000D01*
X138303000Y-77022000D02*
X136973000Y-77022000D01*
X136973000Y-74422000D02*
X136973000Y-71822000D01*
X139573000Y-74422000D02*
X136973000Y-74422000D01*
X139573000Y-77022000D02*
X139573000Y-74422000D01*
X136973000Y-71822000D02*
X142173000Y-71822000D01*
X139573000Y-77022000D02*
X142173000Y-77022000D01*
X142173000Y-77022000D02*
X142173000Y-71822000D01*
%TO.C,J2*%
X122234000Y-94421000D02*
X120904000Y-94421000D01*
X122234000Y-93091000D02*
X122234000Y-94421000D01*
X122234000Y-91821000D02*
X119574000Y-91821000D01*
X119574000Y-91821000D02*
X119574000Y-71441000D01*
X122234000Y-91821000D02*
X122234000Y-71441000D01*
X122234000Y-71441000D02*
X119574000Y-71441000D01*
%TO.C,J1*%
X137227000Y-99120000D02*
X137227000Y-97790000D01*
X138557000Y-99120000D02*
X137227000Y-99120000D01*
X139827000Y-99120000D02*
X139827000Y-96460000D01*
X139827000Y-96460000D02*
X142427000Y-96460000D01*
X139827000Y-99120000D02*
X142427000Y-99120000D01*
X142427000Y-99120000D02*
X142427000Y-96460000D01*
D13*
%TO.C,IC13*%
X139991000Y-89053000D02*
X139041000Y-89053000D01*
X138691000Y-86003000D02*
X138691000Y-89003000D01*
X136391000Y-86003000D02*
X138691000Y-86003000D01*
X136391000Y-89003000D02*
X136391000Y-86003000D01*
X138691000Y-89003000D02*
X136391000Y-89003000D01*
%TO.C,D4*%
X127241000Y-86866000D02*
X127241000Y-89566000D01*
X128791000Y-85916000D02*
X128791000Y-89566000D01*
%TO.C,D3*%
X136766000Y-91995000D02*
X136766000Y-94695000D01*
X138316000Y-91045000D02*
X138316000Y-94695000D01*
%TO.C,D2*%
X132347000Y-89537000D02*
X132347000Y-86837000D01*
X130797000Y-90487000D02*
X130797000Y-86837000D01*
%TO.C,D1*%
X134633000Y-94773000D02*
X134633000Y-92073000D01*
X133083000Y-95723000D02*
X133083000Y-92073000D01*
%TO.C,U10*%
D10*
X127412904Y-75779380D02*
X127412904Y-76588904D01*
X127460523Y-76684142D01*
X127508142Y-76731761D01*
X127603380Y-76779380D01*
X127793857Y-76779380D01*
X127889095Y-76731761D01*
X127936714Y-76684142D01*
X127984333Y-76588904D01*
X127984333Y-75779380D01*
X128984333Y-76779380D02*
X128412904Y-76779380D01*
X128698619Y-76779380D02*
X128698619Y-75779380D01*
X128603380Y-75922238D01*
X128508142Y-76017476D01*
X128412904Y-76065095D01*
X129603380Y-75779380D02*
X129698619Y-75779380D01*
X129793857Y-75827000D01*
X129841476Y-75874619D01*
X129889095Y-75969857D01*
X129936714Y-76160333D01*
X129936714Y-76398428D01*
X129889095Y-76588904D01*
X129841476Y-76684142D01*
X129793857Y-76731761D01*
X129698619Y-76779380D01*
X129603380Y-76779380D01*
X129508142Y-76731761D01*
X129460523Y-76684142D01*
X129412904Y-76588904D01*
X129365285Y-76398428D01*
X129365285Y-76160333D01*
X129412904Y-75969857D01*
X129460523Y-75874619D01*
X129508142Y-75827000D01*
X129603380Y-75779380D01*
%TO.C,R35*%
X142819380Y-89288857D02*
X142343190Y-89622190D01*
X142819380Y-89860285D02*
X141819380Y-89860285D01*
X141819380Y-89479333D01*
X141867000Y-89384095D01*
X141914619Y-89336476D01*
X142009857Y-89288857D01*
X142152714Y-89288857D01*
X142247952Y-89336476D01*
X142295571Y-89384095D01*
X142343190Y-89479333D01*
X142343190Y-89860285D01*
X141819380Y-88955523D02*
X141819380Y-88336476D01*
X142200333Y-88669809D01*
X142200333Y-88526952D01*
X142247952Y-88431714D01*
X142295571Y-88384095D01*
X142390809Y-88336476D01*
X142628904Y-88336476D01*
X142724142Y-88384095D01*
X142771761Y-88431714D01*
X142819380Y-88526952D01*
X142819380Y-88812666D01*
X142771761Y-88907904D01*
X142724142Y-88955523D01*
X141819380Y-87431714D02*
X141819380Y-87907904D01*
X142295571Y-87955523D01*
X142247952Y-87907904D01*
X142200333Y-87812666D01*
X142200333Y-87574571D01*
X142247952Y-87479333D01*
X142295571Y-87431714D01*
X142390809Y-87384095D01*
X142628904Y-87384095D01*
X142724142Y-87431714D01*
X142771761Y-87479333D01*
X142819380Y-87574571D01*
X142819380Y-87812666D01*
X142771761Y-87907904D01*
X142724142Y-87955523D01*
%TO.C,R34*%
X136875142Y-84245380D02*
X136541809Y-83769190D01*
X136303714Y-84245380D02*
X136303714Y-83245380D01*
X136684666Y-83245380D01*
X136779904Y-83293000D01*
X136827523Y-83340619D01*
X136875142Y-83435857D01*
X136875142Y-83578714D01*
X136827523Y-83673952D01*
X136779904Y-83721571D01*
X136684666Y-83769190D01*
X136303714Y-83769190D01*
X137208476Y-83245380D02*
X137827523Y-83245380D01*
X137494190Y-83626333D01*
X137637047Y-83626333D01*
X137732285Y-83673952D01*
X137779904Y-83721571D01*
X137827523Y-83816809D01*
X137827523Y-84054904D01*
X137779904Y-84150142D01*
X137732285Y-84197761D01*
X137637047Y-84245380D01*
X137351333Y-84245380D01*
X137256095Y-84197761D01*
X137208476Y-84150142D01*
X138684666Y-83578714D02*
X138684666Y-84245380D01*
X138446571Y-83197761D02*
X138208476Y-83912047D01*
X138827523Y-83912047D01*
%TO.C,J3*%
X135425380Y-74755333D02*
X136139666Y-74755333D01*
X136282523Y-74802952D01*
X136377761Y-74898190D01*
X136425380Y-75041047D01*
X136425380Y-75136285D01*
X135425380Y-74374380D02*
X135425380Y-73755333D01*
X135806333Y-74088666D01*
X135806333Y-73945809D01*
X135853952Y-73850571D01*
X135901571Y-73802952D01*
X135996809Y-73755333D01*
X136234904Y-73755333D01*
X136330142Y-73802952D01*
X136377761Y-73850571D01*
X136425380Y-73945809D01*
X136425380Y-74231523D01*
X136377761Y-74326761D01*
X136330142Y-74374380D01*
%TO.C,J2*%
X120570666Y-94873380D02*
X120570666Y-95587666D01*
X120523047Y-95730523D01*
X120427809Y-95825761D01*
X120284952Y-95873380D01*
X120189714Y-95873380D01*
X120999238Y-94968619D02*
X121046857Y-94921000D01*
X121142095Y-94873380D01*
X121380190Y-94873380D01*
X121475428Y-94921000D01*
X121523047Y-94968619D01*
X121570666Y-95063857D01*
X121570666Y-95159095D01*
X121523047Y-95301952D01*
X120951619Y-95873380D01*
X121570666Y-95873380D01*
%TO.C,C71*%
X134469142Y-85732857D02*
X134516761Y-85780476D01*
X134564380Y-85923333D01*
X134564380Y-86018571D01*
X134516761Y-86161428D01*
X134421523Y-86256666D01*
X134326285Y-86304285D01*
X134135809Y-86351904D01*
X133992952Y-86351904D01*
X133802476Y-86304285D01*
X133707238Y-86256666D01*
X133612000Y-86161428D01*
X133564380Y-86018571D01*
X133564380Y-85923333D01*
X133612000Y-85780476D01*
X133659619Y-85732857D01*
X133564380Y-85399523D02*
X133564380Y-84732857D01*
X134564380Y-85161428D01*
X134564380Y-83828095D02*
X134564380Y-84399523D01*
X134564380Y-84113809D02*
X133564380Y-84113809D01*
X133707238Y-84209047D01*
X133802476Y-84304285D01*
X133850095Y-84399523D01*
%TO.C,C70*%
X142724142Y-85732857D02*
X142771761Y-85780476D01*
X142819380Y-85923333D01*
X142819380Y-86018571D01*
X142771761Y-86161428D01*
X142676523Y-86256666D01*
X142581285Y-86304285D01*
X142390809Y-86351904D01*
X142247952Y-86351904D01*
X142057476Y-86304285D01*
X141962238Y-86256666D01*
X141867000Y-86161428D01*
X141819380Y-86018571D01*
X141819380Y-85923333D01*
X141867000Y-85780476D01*
X141914619Y-85732857D01*
X141819380Y-85399523D02*
X141819380Y-84732857D01*
X142819380Y-85161428D01*
X141819380Y-84161428D02*
X141819380Y-84066190D01*
X141867000Y-83970952D01*
X141914619Y-83923333D01*
X142009857Y-83875714D01*
X142200333Y-83828095D01*
X142438428Y-83828095D01*
X142628904Y-83875714D01*
X142724142Y-83923333D01*
X142771761Y-83970952D01*
X142819380Y-84066190D01*
X142819380Y-84161428D01*
X142771761Y-84256666D01*
X142724142Y-84304285D01*
X142628904Y-84351904D01*
X142438428Y-84399523D01*
X142200333Y-84399523D01*
X142009857Y-84351904D01*
X141914619Y-84304285D01*
X141867000Y-84256666D01*
X141819380Y-84161428D01*
%TO.C,C69*%
X140057142Y-94368857D02*
X140104761Y-94416476D01*
X140152380Y-94559333D01*
X140152380Y-94654571D01*
X140104761Y-94797428D01*
X140009523Y-94892666D01*
X139914285Y-94940285D01*
X139723809Y-94987904D01*
X139580952Y-94987904D01*
X139390476Y-94940285D01*
X139295238Y-94892666D01*
X139200000Y-94797428D01*
X139152380Y-94654571D01*
X139152380Y-94559333D01*
X139200000Y-94416476D01*
X139247619Y-94368857D01*
X139152380Y-93511714D02*
X139152380Y-93702190D01*
X139200000Y-93797428D01*
X139247619Y-93845047D01*
X139390476Y-93940285D01*
X139580952Y-93987904D01*
X139961904Y-93987904D01*
X140057142Y-93940285D01*
X140104761Y-93892666D01*
X140152380Y-93797428D01*
X140152380Y-93606952D01*
X140104761Y-93511714D01*
X140057142Y-93464095D01*
X139961904Y-93416476D01*
X139723809Y-93416476D01*
X139628571Y-93464095D01*
X139580952Y-93511714D01*
X139533333Y-93606952D01*
X139533333Y-93797428D01*
X139580952Y-93892666D01*
X139628571Y-93940285D01*
X139723809Y-93987904D01*
X140152380Y-92940285D02*
X140152380Y-92749809D01*
X140104761Y-92654571D01*
X140057142Y-92606952D01*
X139914285Y-92511714D01*
X139723809Y-92464095D01*
X139342857Y-92464095D01*
X139247619Y-92511714D01*
X139200000Y-92559333D01*
X139152380Y-92654571D01*
X139152380Y-92845047D01*
X139200000Y-92940285D01*
X139247619Y-92987904D01*
X139342857Y-93035523D01*
X139580952Y-93035523D01*
X139676190Y-92987904D01*
X139723809Y-92940285D01*
X139771428Y-92845047D01*
X139771428Y-92654571D01*
X139723809Y-92559333D01*
X139676190Y-92511714D01*
X139580952Y-92464095D01*
%TO.C,C68*%
X138041142Y-90527142D02*
X137993523Y-90574761D01*
X137850666Y-90622380D01*
X137755428Y-90622380D01*
X137612571Y-90574761D01*
X137517333Y-90479523D01*
X137469714Y-90384285D01*
X137422095Y-90193809D01*
X137422095Y-90050952D01*
X137469714Y-89860476D01*
X137517333Y-89765238D01*
X137612571Y-89670000D01*
X137755428Y-89622380D01*
X137850666Y-89622380D01*
X137993523Y-89670000D01*
X138041142Y-89717619D01*
X138898285Y-89622380D02*
X138707809Y-89622380D01*
X138612571Y-89670000D01*
X138564952Y-89717619D01*
X138469714Y-89860476D01*
X138422095Y-90050952D01*
X138422095Y-90431904D01*
X138469714Y-90527142D01*
X138517333Y-90574761D01*
X138612571Y-90622380D01*
X138803047Y-90622380D01*
X138898285Y-90574761D01*
X138945904Y-90527142D01*
X138993523Y-90431904D01*
X138993523Y-90193809D01*
X138945904Y-90098571D01*
X138898285Y-90050952D01*
X138803047Y-90003333D01*
X138612571Y-90003333D01*
X138517333Y-90050952D01*
X138469714Y-90098571D01*
X138422095Y-90193809D01*
X139564952Y-90050952D02*
X139469714Y-90003333D01*
X139422095Y-89955714D01*
X139374476Y-89860476D01*
X139374476Y-89812857D01*
X139422095Y-89717619D01*
X139469714Y-89670000D01*
X139564952Y-89622380D01*
X139755428Y-89622380D01*
X139850666Y-89670000D01*
X139898285Y-89717619D01*
X139945904Y-89812857D01*
X139945904Y-89860476D01*
X139898285Y-89955714D01*
X139850666Y-90003333D01*
X139755428Y-90050952D01*
X139564952Y-90050952D01*
X139469714Y-90098571D01*
X139422095Y-90146190D01*
X139374476Y-90241428D01*
X139374476Y-90431904D01*
X139422095Y-90527142D01*
X139469714Y-90574761D01*
X139564952Y-90622380D01*
X139755428Y-90622380D01*
X139850666Y-90574761D01*
X139898285Y-90527142D01*
X139945904Y-90431904D01*
X139945904Y-90241428D01*
X139898285Y-90146190D01*
X139850666Y-90098571D01*
X139755428Y-90050952D01*
%TD*%
M02*
