%TF.GenerationSoftware,KiCad,Pcbnew,(5.1.6)-1*%
%TF.CreationDate,2020-09-22T21:52:57+03:00*%
%TF.ProjectId,RAM_ROM_devboard,52414d5f-524f-44d5-9f64-6576626f6172,rev?*%
%TF.SameCoordinates,Original*%
%TF.FileFunction,Copper,L1,Top*%
%TF.FilePolarity,Positive*%
%FSLAX46Y46*%
G04 Gerber Fmt 4.6, Leading zero omitted, Abs format (unit mm)*
G04 Created by KiCad (PCBNEW (5.1.6)-1) date 2020-09-22 21:52:57*
%MOMM*%
%LPD*%
G01*
G04 APERTURE LIST*
%TA.AperFunction,ComponentPad*%
%ADD10O,1.700000X1.700000*%
%TD*%
%TA.AperFunction,ComponentPad*%
%ADD11R,1.700000X1.700000*%
%TD*%
%TA.AperFunction,SMDPad,CuDef*%
%ADD12R,1.295000X0.650000*%
%TD*%
%TA.AperFunction,ComponentPad*%
%ADD13C,1.430000*%
%TD*%
%TA.AperFunction,ComponentPad*%
%ADD14R,1.430000X1.430000*%
%TD*%
%TA.AperFunction,ViaPad*%
%ADD15C,0.800000*%
%TD*%
%TA.AperFunction,Conductor*%
%ADD16C,0.700000*%
%TD*%
%TA.AperFunction,Conductor*%
%ADD17C,0.250000*%
%TD*%
G04 APERTURE END LIST*
D10*
%TO.P,J7,16*%
%TO.N,/~RAM_WE*%
X140716000Y-98806000D03*
%TO.P,J7,15*%
X143256000Y-98806000D03*
%TO.P,J7,14*%
%TO.N,/~RAM_OE*%
X140716000Y-101346000D03*
%TO.P,J7,13*%
X143256000Y-101346000D03*
%TO.P,J7,12*%
%TO.N,/~RAM_CE*%
X140716000Y-103886000D03*
%TO.P,J7,11*%
X143256000Y-103886000D03*
%TO.P,J7,10*%
%TO.N,/RAM_A18*%
X140716000Y-106426000D03*
%TO.P,J7,9*%
X143256000Y-106426000D03*
%TO.P,J7,8*%
%TO.N,/RAM_A17*%
X140716000Y-108966000D03*
%TO.P,J7,7*%
X143256000Y-108966000D03*
%TO.P,J7,6*%
%TO.N,/RAM_A16*%
X140716000Y-111506000D03*
%TO.P,J7,5*%
X143256000Y-111506000D03*
%TO.P,J7,4*%
%TO.N,/RAM_A15*%
X140716000Y-114046000D03*
%TO.P,J7,3*%
X143256000Y-114046000D03*
%TO.P,J7,2*%
%TO.N,/RAM_A14*%
X140716000Y-116586000D03*
D11*
%TO.P,J7,1*%
X143256000Y-116586000D03*
%TD*%
D12*
%TO.P,IC1,32*%
%TO.N,+5V*%
X124600000Y-91059000D03*
%TO.P,IC1,31*%
%TO.N,/RAM_A15*%
X124600000Y-92329000D03*
%TO.P,IC1,30*%
%TO.N,/RAM_A18*%
X124600000Y-93599000D03*
%TO.P,IC1,29*%
%TO.N,/~RAM_WE*%
X124600000Y-94869000D03*
%TO.P,IC1,28*%
%TO.N,/A13*%
X124600000Y-96139000D03*
%TO.P,IC1,27*%
%TO.N,/A8*%
X124600000Y-97409000D03*
%TO.P,IC1,26*%
%TO.N,/A9*%
X124600000Y-98679000D03*
%TO.P,IC1,25*%
%TO.N,/A11*%
X124600000Y-99949000D03*
%TO.P,IC1,24*%
%TO.N,/~RAM_OE*%
X124600000Y-101219000D03*
%TO.P,IC1,23*%
%TO.N,/A10*%
X124600000Y-102489000D03*
%TO.P,IC1,22*%
%TO.N,/~RAM_CE*%
X124600000Y-103759000D03*
%TO.P,IC1,21*%
%TO.N,/D7*%
X124600000Y-105029000D03*
%TO.P,IC1,20*%
%TO.N,/D6*%
X124600000Y-106299000D03*
%TO.P,IC1,19*%
%TO.N,/D5*%
X124600000Y-107569000D03*
%TO.P,IC1,18*%
%TO.N,/D4*%
X124600000Y-108839000D03*
%TO.P,IC1,17*%
%TO.N,/D3*%
X124600000Y-110109000D03*
%TO.P,IC1,16*%
%TO.N,GND*%
X113144000Y-110109000D03*
%TO.P,IC1,15*%
%TO.N,/D2*%
X113144000Y-108839000D03*
%TO.P,IC1,14*%
%TO.N,/D1*%
X113144000Y-107569000D03*
%TO.P,IC1,13*%
%TO.N,/D0*%
X113144000Y-106299000D03*
%TO.P,IC1,12*%
%TO.N,/A0*%
X113144000Y-105029000D03*
%TO.P,IC1,11*%
%TO.N,/A1*%
X113144000Y-103759000D03*
%TO.P,IC1,10*%
%TO.N,/A2*%
X113144000Y-102489000D03*
%TO.P,IC1,9*%
%TO.N,/A3*%
X113144000Y-101219000D03*
%TO.P,IC1,8*%
%TO.N,/A4*%
X113144000Y-99949000D03*
%TO.P,IC1,7*%
%TO.N,/A5*%
X113144000Y-98679000D03*
%TO.P,IC1,6*%
%TO.N,/A6*%
X113144000Y-97409000D03*
%TO.P,IC1,5*%
%TO.N,/A7*%
X113144000Y-96139000D03*
%TO.P,IC1,4*%
%TO.N,/A12*%
X113144000Y-94869000D03*
%TO.P,IC1,3*%
%TO.N,/RAM_A14*%
X113144000Y-93599000D03*
%TO.P,IC1,2*%
%TO.N,/RAM_A16*%
X113144000Y-92329000D03*
%TO.P,IC1,1*%
%TO.N,/RAM_A17*%
X113144000Y-91059000D03*
%TD*%
D13*
%TO.P,J2,32*%
%TO.N,+5V*%
X119988500Y-69280000D03*
%TO.P,J2,31*%
%TO.N,/~ROM_WE*%
X122528500Y-71820000D03*
%TO.P,J2,30*%
%TO.N,N/C*%
X122528500Y-69280000D03*
%TO.P,J2,29*%
%TO.N,/ROM_A14*%
X125068500Y-71820000D03*
%TO.P,J2,28*%
%TO.N,/A13*%
X122528500Y-74360000D03*
%TO.P,J2,27*%
%TO.N,/A8*%
X125068500Y-74360000D03*
%TO.P,J2,26*%
%TO.N,/A9*%
X122528500Y-76900000D03*
%TO.P,J2,25*%
%TO.N,/A11*%
X125068500Y-76900000D03*
%TO.P,J2,24*%
%TO.N,/~ROM_OE*%
X122528500Y-79440000D03*
%TO.P,J2,23*%
%TO.N,/A10*%
X125068500Y-79440000D03*
%TO.P,J2,22*%
%TO.N,/~ROM_CE*%
X122528500Y-81980000D03*
%TO.P,J2,21*%
%TO.N,/D7*%
X125068500Y-81980000D03*
%TO.P,J2,20*%
%TO.N,/D6*%
X122528500Y-84520000D03*
%TO.P,J2,19*%
%TO.N,/D5*%
X119988500Y-81980000D03*
%TO.P,J2,18*%
%TO.N,/D4*%
X119988500Y-84520000D03*
%TO.P,J2,17*%
%TO.N,/D3*%
X117448500Y-81980000D03*
%TO.P,J2,16*%
%TO.N,GND*%
X117448500Y-84520000D03*
%TO.P,J2,15*%
%TO.N,/D2*%
X114908500Y-81980000D03*
%TO.P,J2,14*%
%TO.N,/D1*%
X114908500Y-84520000D03*
%TO.P,J2,13*%
%TO.N,/D0*%
X112368500Y-81980000D03*
%TO.P,J2,12*%
%TO.N,/A0*%
X114908500Y-79440000D03*
%TO.P,J2,11*%
%TO.N,/A1*%
X112368500Y-79440000D03*
%TO.P,J2,10*%
%TO.N,/A2*%
X114908500Y-76900000D03*
%TO.P,J2,9*%
%TO.N,/A3*%
X112368500Y-76900000D03*
%TO.P,J2,8*%
%TO.N,/A4*%
X114908500Y-74360000D03*
%TO.P,J2,7*%
%TO.N,/A5*%
X112368500Y-74360000D03*
%TO.P,J2,6*%
%TO.N,/A6*%
X114908500Y-71820000D03*
%TO.P,J2,5*%
%TO.N,/A7*%
X112368500Y-71820000D03*
%TO.P,J2,4*%
%TO.N,/A12*%
X114908500Y-69280000D03*
%TO.P,J2,3*%
%TO.N,/ROM_A15*%
X117448500Y-71820000D03*
%TO.P,J2,2*%
%TO.N,/ROM_A16*%
X117448500Y-69280000D03*
D14*
%TO.P,J2,1*%
%TO.N,N/C*%
X119988500Y-71820000D03*
%TD*%
D10*
%TO.P,J6,12*%
%TO.N,/~ROM_WE*%
X143192500Y-79883000D03*
%TO.P,J6,11*%
X140652500Y-79883000D03*
%TO.P,J6,10*%
%TO.N,/~ROM_CE*%
X143192500Y-77343000D03*
%TO.P,J6,9*%
X140652500Y-77343000D03*
%TO.P,J6,8*%
%TO.N,/~ROM_OE*%
X143192500Y-74803000D03*
%TO.P,J6,7*%
X140652500Y-74803000D03*
%TO.P,J6,6*%
%TO.N,/ROM_A16*%
X143192500Y-72263000D03*
%TO.P,J6,5*%
X140652500Y-72263000D03*
%TO.P,J6,4*%
%TO.N,/ROM_A15*%
X143192500Y-69723000D03*
%TO.P,J6,3*%
X140652500Y-69723000D03*
%TO.P,J6,2*%
%TO.N,/ROM_A14*%
X143192500Y-67183000D03*
D11*
%TO.P,J6,1*%
X140652500Y-67183000D03*
%TD*%
D10*
%TO.P,J4,8*%
%TO.N,+5V*%
X143383000Y-94234000D03*
%TO.P,J4,7*%
%TO.N,GND*%
X140843000Y-94234000D03*
%TO.P,J4,6*%
%TO.N,+5V*%
X143383000Y-91694000D03*
%TO.P,J4,5*%
%TO.N,GND*%
X140843000Y-91694000D03*
%TO.P,J4,4*%
%TO.N,+5V*%
X143383000Y-89154000D03*
%TO.P,J4,3*%
%TO.N,GND*%
X140843000Y-89154000D03*
%TO.P,J4,2*%
%TO.N,+5V*%
X143383000Y-86614000D03*
D11*
%TO.P,J4,1*%
%TO.N,GND*%
X140843000Y-86614000D03*
%TD*%
D10*
%TO.P,J3,16*%
%TO.N,/D7*%
X128079500Y-116078000D03*
%TO.P,J3,15*%
X128079500Y-118618000D03*
%TO.P,J3,14*%
%TO.N,/D6*%
X125539500Y-116078000D03*
%TO.P,J3,13*%
X125539500Y-118618000D03*
%TO.P,J3,12*%
%TO.N,/D5*%
X122999500Y-116078000D03*
%TO.P,J3,11*%
X122999500Y-118618000D03*
%TO.P,J3,10*%
%TO.N,/D4*%
X120459500Y-116078000D03*
%TO.P,J3,9*%
X120459500Y-118618000D03*
%TO.P,J3,8*%
%TO.N,/D3*%
X117919500Y-116078000D03*
%TO.P,J3,7*%
X117919500Y-118618000D03*
%TO.P,J3,6*%
%TO.N,/D2*%
X115379500Y-116078000D03*
%TO.P,J3,5*%
X115379500Y-118618000D03*
%TO.P,J3,4*%
%TO.N,/D1*%
X112839500Y-116078000D03*
%TO.P,J3,3*%
X112839500Y-118618000D03*
%TO.P,J3,2*%
%TO.N,/D0*%
X110299500Y-116078000D03*
D11*
%TO.P,J3,1*%
X110299500Y-118618000D03*
%TD*%
D10*
%TO.P,J1,28*%
%TO.N,/A13*%
X99758500Y-66865500D03*
%TO.P,J1,27*%
X102298500Y-66865500D03*
%TO.P,J1,26*%
%TO.N,/A12*%
X99758500Y-69405500D03*
%TO.P,J1,25*%
X102298500Y-69405500D03*
%TO.P,J1,24*%
%TO.N,/A11*%
X99758500Y-71945500D03*
%TO.P,J1,23*%
X102298500Y-71945500D03*
%TO.P,J1,22*%
%TO.N,/A10*%
X99758500Y-74485500D03*
%TO.P,J1,21*%
X102298500Y-74485500D03*
%TO.P,J1,20*%
%TO.N,/A9*%
X99758500Y-77025500D03*
%TO.P,J1,19*%
X102298500Y-77025500D03*
%TO.P,J1,18*%
%TO.N,/A8*%
X99758500Y-79565500D03*
%TO.P,J1,17*%
X102298500Y-79565500D03*
%TO.P,J1,16*%
%TO.N,/A7*%
X99758500Y-82105500D03*
%TO.P,J1,15*%
X102298500Y-82105500D03*
%TO.P,J1,14*%
%TO.N,/A6*%
X99758500Y-84645500D03*
%TO.P,J1,13*%
X102298500Y-84645500D03*
%TO.P,J1,12*%
%TO.N,/A5*%
X99758500Y-87185500D03*
%TO.P,J1,11*%
X102298500Y-87185500D03*
%TO.P,J1,10*%
%TO.N,/A4*%
X99758500Y-89725500D03*
%TO.P,J1,9*%
X102298500Y-89725500D03*
%TO.P,J1,8*%
%TO.N,/A3*%
X99758500Y-92265500D03*
%TO.P,J1,7*%
X102298500Y-92265500D03*
%TO.P,J1,6*%
%TO.N,/A2*%
X99758500Y-94805500D03*
%TO.P,J1,5*%
X102298500Y-94805500D03*
%TO.P,J1,4*%
%TO.N,/A1*%
X99758500Y-97345500D03*
%TO.P,J1,3*%
X102298500Y-97345500D03*
%TO.P,J1,2*%
%TO.N,/A0*%
X99758500Y-99885500D03*
D11*
%TO.P,J1,1*%
X102298500Y-99885500D03*
%TD*%
D15*
%TO.N,/RAM_A15*%
X133731000Y-92329000D03*
%TO.N,/A13*%
X129921000Y-84645500D03*
%TO.N,/A8*%
X105600500Y-75755500D03*
X128651000Y-84582000D03*
%TO.N,/A9*%
X127317500Y-84518500D03*
X127317500Y-77089000D03*
%TO.N,/A11*%
X125920500Y-84391500D03*
%TO.N,/A10*%
X106997500Y-80327500D03*
%TO.N,GND*%
X119824500Y-91440000D03*
X111569500Y-111506000D03*
%TO.N,/RAM_A14*%
X117157500Y-108585000D03*
%TO.N,/RAM_A16*%
X118427500Y-108394500D03*
X132080000Y-111506000D03*
%TO.N,/RAM_A18*%
X135255000Y-93599000D03*
%TO.N,/RAM_A17*%
X121158000Y-107696000D03*
X132080000Y-108966000D03*
%TD*%
D16*
%TO.N,+5V*%
X143383000Y-86614000D02*
X143383000Y-89154000D01*
X143383000Y-89154000D02*
X143383000Y-91694000D01*
X143383000Y-91694000D02*
X143383000Y-94234000D01*
X123935511Y-65332989D02*
X119988500Y-69280000D01*
X144036099Y-65332989D02*
X123935511Y-65332989D01*
X145042510Y-66339400D02*
X144036099Y-65332989D01*
X145042510Y-84954490D02*
X145042510Y-66339400D01*
X143383000Y-86614000D02*
X145042510Y-84954490D01*
X143383000Y-94234000D02*
X141982999Y-95634001D01*
X141982999Y-95634001D02*
X140170999Y-95634001D01*
X125603000Y-91059000D02*
X124600000Y-91059000D01*
X135595998Y-91059000D02*
X125603000Y-91059000D01*
X140170999Y-95634001D02*
X135595998Y-91059000D01*
D17*
%TO.N,/RAM_A15*%
X124600000Y-92329000D02*
X133731000Y-92329000D01*
X133731000Y-92329000D02*
X133731000Y-92329000D01*
D16*
X140716000Y-114046000D02*
X143256000Y-114046000D01*
D17*
%TO.N,/~RAM_WE*%
X136779000Y-94869000D02*
X140716000Y-98806000D01*
X124600000Y-94869000D02*
X136779000Y-94869000D01*
D16*
X140716000Y-98806000D02*
X143256000Y-98806000D01*
D17*
%TO.N,/A13*%
X115948501Y-68780799D02*
X114033202Y-66865500D01*
X114033202Y-66865500D02*
X102298500Y-66865500D01*
X115948501Y-71859203D02*
X115948501Y-68780799D01*
X118449298Y-74360000D02*
X115948501Y-71859203D01*
X122528500Y-74360000D02*
X118449298Y-74360000D01*
X129921000Y-84645500D02*
X129921000Y-84645500D01*
D16*
X99758500Y-66865500D02*
X102298500Y-66865500D01*
D17*
X129921000Y-84645500D02*
X129660502Y-84645500D01*
X129259499Y-85307001D02*
X129921000Y-84645500D01*
X124600000Y-96139000D02*
X124277500Y-96139000D01*
X124277500Y-96139000D02*
X122237500Y-94099000D01*
X128794497Y-85307001D02*
X129259499Y-85307001D01*
X122237500Y-94099000D02*
X122237500Y-91863998D01*
X122237500Y-91863998D02*
X128794497Y-85307001D01*
%TO.N,/A8*%
X124028499Y-75400001D02*
X105955999Y-75400001D01*
X125068500Y-74360000D02*
X124028499Y-75400001D01*
X105955999Y-75400001D02*
X105600500Y-75755500D01*
X105600500Y-75755500D02*
X105600500Y-75755500D01*
X128651000Y-84582000D02*
X128651000Y-84582000D01*
D16*
X99758500Y-79565500D02*
X102298500Y-79565500D01*
D17*
X124312498Y-97409000D02*
X124600000Y-97409000D01*
X128651000Y-84582000D02*
X127254000Y-85979000D01*
X126930002Y-85979000D02*
X121677020Y-91231982D01*
X127254000Y-85979000D02*
X126930002Y-85979000D01*
X121677020Y-91231982D02*
X121677020Y-94773522D01*
X121677020Y-94773522D02*
X124312498Y-97409000D01*
%TO.N,/A9*%
X105403502Y-77025500D02*
X102298500Y-77025500D01*
X121488499Y-75859999D02*
X106569003Y-75859999D01*
X106569003Y-75859999D02*
X105403502Y-77025500D01*
X122528500Y-76900000D02*
X121488499Y-75859999D01*
X127317500Y-84518500D02*
X127317500Y-84518500D01*
X123568501Y-77940001D02*
X122528500Y-76900000D01*
X126466499Y-77940001D02*
X123568501Y-77940001D01*
X127317500Y-77089000D02*
X126466499Y-77940001D01*
D16*
X99758500Y-77025500D02*
X102298500Y-77025500D01*
D17*
X124312498Y-98679000D02*
X124600000Y-98679000D01*
X121227010Y-95593512D02*
X124312498Y-98679000D01*
X121227010Y-90157992D02*
X121227010Y-95593512D01*
X126866502Y-84518500D02*
X121227010Y-90157992D01*
X127317500Y-84518500D02*
X126866502Y-84518500D01*
%TO.N,/A11*%
X125920500Y-84391500D02*
X125920500Y-84391500D01*
D16*
X99758500Y-71945500D02*
X102298500Y-71945500D01*
D17*
X124312498Y-99949000D02*
X124600000Y-99949000D01*
X120777000Y-96413502D02*
X124312498Y-99949000D01*
X120777000Y-89535000D02*
X120777000Y-96413502D01*
X125920500Y-84391500D02*
X120777000Y-89535000D01*
%TO.N,/~RAM_OE*%
X140589000Y-101219000D02*
X140716000Y-101346000D01*
X124600000Y-101219000D02*
X140589000Y-101219000D01*
D16*
X140716000Y-101346000D02*
X143256000Y-101346000D01*
D17*
%TO.N,/A10*%
X123568501Y-80939999D02*
X107609999Y-80939999D01*
X125068500Y-79440000D02*
X123568501Y-80939999D01*
X107609999Y-80939999D02*
X107315000Y-80645000D01*
X107315000Y-80645000D02*
X106997500Y-80327500D01*
X106997500Y-80327500D02*
X106997500Y-80327500D01*
D16*
X99758500Y-74485500D02*
X102298500Y-74485500D01*
D17*
X106997500Y-80327500D02*
X115443000Y-88773000D01*
X115443000Y-88773000D02*
X117983000Y-88773000D01*
X123702500Y-102489000D02*
X124600000Y-102489000D01*
X117983000Y-88773000D02*
X118808500Y-89598500D01*
X118808500Y-89598500D02*
X118808500Y-97595000D01*
X118808500Y-97595000D02*
X123702500Y-102489000D01*
%TO.N,/~RAM_CE*%
X140589000Y-103759000D02*
X140716000Y-103886000D01*
X124600000Y-103759000D02*
X140589000Y-103759000D01*
D16*
X140716000Y-103886000D02*
X143256000Y-103886000D01*
D17*
%TO.N,/D7*%
X128794527Y-115362973D02*
X128079500Y-116078000D01*
X125740000Y-105029000D02*
X126951000Y-105029000D01*
X128794527Y-106872527D02*
X128794527Y-115362973D01*
X126951000Y-105029000D02*
X128794527Y-106872527D01*
D16*
X128079500Y-116078000D02*
X128079500Y-118618000D01*
D17*
X125740000Y-105029000D02*
X124600000Y-105029000D01*
%TO.N,/D6*%
X128344518Y-113272982D02*
X125539500Y-116078000D01*
X128344518Y-107692518D02*
X128344518Y-113272982D01*
X125740000Y-106299000D02*
X126951000Y-106299000D01*
X126951000Y-106299000D02*
X128344518Y-107692518D01*
D16*
X125539500Y-116078000D02*
X125539500Y-118618000D01*
D17*
X125740000Y-106299000D02*
X124600000Y-106299000D01*
%TO.N,/D5*%
X127894510Y-108512510D02*
X127894509Y-111182991D01*
X125740000Y-107569000D02*
X126951000Y-107569000D01*
X127894509Y-111182991D02*
X122999500Y-116078000D01*
X126951000Y-107569000D02*
X127894510Y-108512510D01*
D16*
X122999500Y-116078000D02*
X122999500Y-118618000D01*
D17*
X125740000Y-107569000D02*
X124600000Y-107569000D01*
%TO.N,/D4*%
X126951000Y-108839000D02*
X127444500Y-109332500D01*
X125740000Y-108839000D02*
X126951000Y-108839000D01*
X127444500Y-109332500D02*
X127444500Y-110300502D01*
X125753499Y-110784001D02*
X120459500Y-116078000D01*
X126961001Y-110784001D02*
X125753499Y-110784001D01*
X127444500Y-110300502D02*
X126961001Y-110784001D01*
D16*
X120459500Y-116078000D02*
X120459500Y-118618000D01*
D17*
X125740000Y-108839000D02*
X124600000Y-108839000D01*
%TO.N,/D3*%
X123888500Y-110109000D02*
X117919500Y-116078000D01*
D16*
X117919500Y-116078000D02*
X117919500Y-118618000D01*
D17*
X123888500Y-110109000D02*
X124600000Y-110109000D01*
D16*
%TO.N,GND*%
X140843000Y-86614000D02*
X140843000Y-89154000D01*
X140843000Y-89154000D02*
X140843000Y-91694000D01*
X140843000Y-91694000D02*
X140843000Y-94234000D01*
X119824500Y-86896000D02*
X119824500Y-91440000D01*
X117448500Y-84520000D02*
X119824500Y-86896000D01*
X112512000Y-110563500D02*
X111569500Y-111506000D01*
X112512000Y-110109000D02*
X112512000Y-110563500D01*
X140739000Y-89050000D02*
X140843000Y-89154000D01*
D17*
%TO.N,/D2*%
X115379500Y-110495500D02*
X115379500Y-116078000D01*
X113723000Y-108839000D02*
X115379500Y-110495500D01*
X112512000Y-108839000D02*
X113723000Y-108839000D01*
D16*
X115379500Y-116078000D02*
X115379500Y-118618000D01*
D17*
%TO.N,/D1*%
X111301000Y-107569000D02*
X110680500Y-108189500D01*
X112512000Y-107569000D02*
X111301000Y-107569000D01*
X110680500Y-108189500D02*
X110680500Y-111823500D01*
X112839500Y-113982500D02*
X112839500Y-116078000D01*
X110680500Y-111823500D02*
X112839500Y-113982500D01*
D16*
X112839500Y-116078000D02*
X112839500Y-118618000D01*
D17*
%TO.N,/D0*%
X110230490Y-116008990D02*
X110299500Y-116078000D01*
X110230490Y-108003100D02*
X110230490Y-116008990D01*
X111934590Y-106299000D02*
X110230490Y-108003100D01*
X112512000Y-106299000D02*
X111934590Y-106299000D01*
D16*
X110299500Y-116078000D02*
X110299500Y-118618000D01*
D17*
%TO.N,/A0*%
X111301000Y-105029000D02*
X106157500Y-99885500D01*
X106157500Y-99885500D02*
X102298500Y-99885500D01*
X112512000Y-105029000D02*
X111301000Y-105029000D01*
D16*
X102298500Y-99885500D02*
X99758500Y-99885500D01*
D17*
%TO.N,/A1*%
X105472498Y-97345500D02*
X102298500Y-97345500D01*
X111885998Y-103759000D02*
X105472498Y-97345500D01*
X112512000Y-103759000D02*
X111885998Y-103759000D01*
D16*
X99758500Y-97345500D02*
X102298500Y-97345500D01*
D17*
%TO.N,/A2*%
X103617500Y-94805500D02*
X102298500Y-94805500D01*
X111301000Y-102489000D02*
X103617500Y-94805500D01*
X112512000Y-102489000D02*
X111301000Y-102489000D01*
D16*
X99758500Y-94805500D02*
X102298500Y-94805500D01*
D17*
%TO.N,/A3*%
X111301000Y-101219000D02*
X102347500Y-92265500D01*
X102347500Y-92265500D02*
X102298500Y-92265500D01*
X112512000Y-101219000D02*
X111301000Y-101219000D01*
D16*
X99758500Y-92265500D02*
X102298500Y-92265500D01*
D17*
%TO.N,/A4*%
X111901000Y-99949000D02*
X104838500Y-92886500D01*
X112512000Y-99949000D02*
X111901000Y-99949000D01*
X104838500Y-92265500D02*
X102298500Y-89725500D01*
X104838500Y-92886500D02*
X104838500Y-92265500D01*
D16*
X99758500Y-89725500D02*
X102298500Y-89725500D01*
D17*
%TO.N,/A5*%
X111901000Y-98679000D02*
X105410000Y-92188000D01*
X112512000Y-98679000D02*
X111901000Y-98679000D01*
X105410000Y-90297000D02*
X102298500Y-87185500D01*
X105410000Y-92188000D02*
X105410000Y-90297000D01*
D16*
X99758500Y-87185500D02*
X102298500Y-87185500D01*
D17*
%TO.N,/A6*%
X111885998Y-97409000D02*
X106172000Y-91695002D01*
X112512000Y-97409000D02*
X111885998Y-97409000D01*
X106172000Y-88519000D02*
X102298500Y-84645500D01*
X106172000Y-91695002D02*
X106172000Y-88519000D01*
D16*
X99758500Y-84645500D02*
X102298500Y-84645500D01*
D17*
%TO.N,/A7*%
X111301000Y-96139000D02*
X106870500Y-91708500D01*
X112512000Y-96139000D02*
X111301000Y-96139000D01*
X106870500Y-86677500D02*
X102298500Y-82105500D01*
X106870500Y-91708500D02*
X106870500Y-86677500D01*
D16*
X99758500Y-82105500D02*
X102298500Y-82105500D01*
D17*
%TO.N,/A12*%
X102424000Y-69280000D02*
X102298500Y-69405500D01*
X114908500Y-69280000D02*
X102424000Y-69280000D01*
X98583499Y-70580501D02*
X99758500Y-69405500D01*
X98583499Y-80129501D02*
X98583499Y-70580501D01*
X99194499Y-80740501D02*
X98583499Y-80129501D01*
X102672503Y-80740501D02*
X99194499Y-80740501D01*
X107320510Y-85388508D02*
X102672503Y-80740501D01*
X111301000Y-94869000D02*
X107320510Y-90888510D01*
X107320510Y-90888510D02*
X107320510Y-85388508D01*
X112512000Y-94869000D02*
X111301000Y-94869000D01*
D16*
X99758500Y-69405500D02*
X102298500Y-69405500D01*
D17*
%TO.N,/RAM_A14*%
X113723000Y-93599000D02*
X114554000Y-94430000D01*
X112512000Y-93599000D02*
X113723000Y-93599000D01*
X114554000Y-94430000D02*
X114554000Y-105981500D01*
X114554000Y-105981500D02*
X117157500Y-108585000D01*
X117157500Y-108585000D02*
X117157500Y-108585000D01*
D16*
X140716000Y-116586000D02*
X143256000Y-116586000D01*
D17*
%TO.N,/RAM_A16*%
X113723000Y-92329000D02*
X115125500Y-93731500D01*
X112512000Y-92329000D02*
X113723000Y-92329000D01*
X115125500Y-93731500D02*
X115125500Y-105092500D01*
X115125500Y-105092500D02*
X118427500Y-108394500D01*
X118427500Y-108394500D02*
X118491000Y-108458000D01*
X132080000Y-111506000D02*
X140716000Y-111506000D01*
D16*
X140716000Y-111506000D02*
X143256000Y-111506000D01*
%TO.N,/~ROM_WE*%
X140652500Y-79883000D02*
X143192500Y-79883000D01*
D17*
%TO.N,/ROM_A14*%
X125068500Y-71820000D02*
X125068500Y-68225500D01*
X126111000Y-67183000D02*
X140652500Y-67183000D01*
X125068500Y-68225500D02*
X126111000Y-67183000D01*
D16*
X140652500Y-67183000D02*
X143192500Y-67183000D01*
D17*
%TO.N,/~ROM_OE*%
X137515499Y-77940001D02*
X140652500Y-74803000D01*
X137055501Y-78399999D02*
X137515499Y-77940001D01*
X123568501Y-78399999D02*
X137055501Y-78399999D01*
X122528500Y-79440000D02*
X123568501Y-78399999D01*
D16*
X140652500Y-74803000D02*
X143192500Y-74803000D01*
D17*
%TO.N,/~ROM_CE*%
X144367501Y-80447001D02*
X144367501Y-78518001D01*
X144367501Y-78518001D02*
X143192500Y-77343000D01*
X141794501Y-83020001D02*
X144367501Y-80447001D01*
X123568501Y-83020001D02*
X141794501Y-83020001D01*
X122528500Y-81980000D02*
X123568501Y-83020001D01*
D16*
X140652500Y-77343000D02*
X143192500Y-77343000D01*
D17*
%TO.N,/ROM_A15*%
X124569299Y-72860001D02*
X137515499Y-72860001D01*
X124028499Y-72319201D02*
X124569299Y-72860001D01*
X124028499Y-71320799D02*
X124028499Y-72319201D01*
X137515499Y-72860001D02*
X140652500Y-69723000D01*
X123477710Y-70770010D02*
X124028499Y-71320799D01*
X118498490Y-70770010D02*
X123477710Y-70770010D01*
X117448500Y-71820000D02*
X118498490Y-70770010D01*
D16*
X140652500Y-69723000D02*
X143192500Y-69723000D01*
D17*
%TO.N,/ROM_A16*%
X144367501Y-66618999D02*
X144367501Y-71087999D01*
X124261299Y-66007999D02*
X143756501Y-66007999D01*
X121029500Y-69239798D02*
X124261299Y-66007999D01*
X143756501Y-66007999D02*
X144367501Y-66618999D01*
X121029500Y-69778202D02*
X121029500Y-69239798D01*
X120487701Y-70320001D02*
X121029500Y-69778202D01*
X118488501Y-70320001D02*
X120487701Y-70320001D01*
X144367501Y-71087999D02*
X143192500Y-72263000D01*
X117448500Y-69280000D02*
X118488501Y-70320001D01*
D16*
X140652500Y-72263000D02*
X143192500Y-72263000D01*
D17*
%TO.N,/RAM_A18*%
X124600000Y-93599000D02*
X135255000Y-93599000D01*
X135255000Y-93599000D02*
X135255000Y-93599000D01*
D16*
X140716000Y-106426000D02*
X143256000Y-106426000D01*
D17*
%TO.N,/RAM_A17*%
X118358490Y-95375990D02*
X118358490Y-104896490D01*
X113144000Y-91059000D02*
X114041500Y-91059000D01*
X114041500Y-91059000D02*
X118358490Y-95375990D01*
X118358490Y-104896490D02*
X121158000Y-107696000D01*
X121158000Y-107696000D02*
X121158000Y-107696000D01*
X132080000Y-108966000D02*
X140716000Y-108966000D01*
D16*
X140716000Y-108966000D02*
X143256000Y-108966000D01*
%TD*%
M02*
