%TF.GenerationSoftware,KiCad,Pcbnew,(5.1.6)-1*%
%TF.CreationDate,2020-09-22T22:20:25+03:00*%
%TF.ProjectId,Z80_devboard,5a38305f-6465-4766-926f-6172642e6b69,rev?*%
%TF.SameCoordinates,Original*%
%TF.FileFunction,Copper,L2,Bot*%
%TF.FilePolarity,Positive*%
%FSLAX46Y46*%
G04 Gerber Fmt 4.6, Leading zero omitted, Abs format (unit mm)*
G04 Created by KiCad (PCBNEW (5.1.6)-1) date 2020-09-22 22:20:25*
%MOMM*%
%LPD*%
G01*
G04 APERTURE LIST*
%TA.AperFunction,ComponentPad*%
%ADD10O,1.600000X1.600000*%
%TD*%
%TA.AperFunction,ComponentPad*%
%ADD11R,1.600000X1.600000*%
%TD*%
%TA.AperFunction,ComponentPad*%
%ADD12O,1.700000X1.700000*%
%TD*%
%TA.AperFunction,ComponentPad*%
%ADD13R,1.700000X1.700000*%
%TD*%
%TA.AperFunction,ViaPad*%
%ADD14C,0.800000*%
%TD*%
%TA.AperFunction,Conductor*%
%ADD15C,0.700000*%
%TD*%
%TA.AperFunction,Conductor*%
%ADD16C,0.250000*%
%TD*%
%TA.AperFunction,Conductor*%
%ADD17C,0.254000*%
%TD*%
G04 APERTURE END LIST*
D10*
%TO.P,U3,40*%
%TO.N,/+5V_A10*%
X116840000Y-69088000D03*
%TO.P,U3,20*%
%TO.N,/~+5V_IORQ*%
X101600000Y-117348000D03*
%TO.P,U3,39*%
%TO.N,/+5V_A9*%
X116840000Y-71628000D03*
%TO.P,U3,19*%
%TO.N,/~+5V_MREQ*%
X101600000Y-114808000D03*
%TO.P,U3,38*%
%TO.N,/+5V_A8*%
X116840000Y-74168000D03*
%TO.P,U3,18*%
%TO.N,/~+5V_HALT*%
X101600000Y-112268000D03*
%TO.P,U3,37*%
%TO.N,/+5V_A7*%
X116840000Y-76708000D03*
%TO.P,U3,17*%
%TO.N,/~+5V_NMI*%
X101600000Y-109728000D03*
%TO.P,U3,36*%
%TO.N,/+5V_A6*%
X116840000Y-79248000D03*
%TO.P,U3,16*%
%TO.N,/~+5V_INT*%
X101600000Y-107188000D03*
%TO.P,U3,35*%
%TO.N,/+5V_A5*%
X116840000Y-81788000D03*
%TO.P,U3,15*%
%TO.N,/+5V_D1*%
X101600000Y-104648000D03*
%TO.P,U3,34*%
%TO.N,/+5V_A4*%
X116840000Y-84328000D03*
%TO.P,U3,14*%
%TO.N,/+5V_D0*%
X101600000Y-102108000D03*
%TO.P,U3,33*%
%TO.N,/+5V_A3*%
X116840000Y-86868000D03*
%TO.P,U3,13*%
%TO.N,/+5V_D7*%
X101600000Y-99568000D03*
%TO.P,U3,32*%
%TO.N,/+5V_A2*%
X116840000Y-89408000D03*
%TO.P,U3,12*%
%TO.N,/+5V_D2*%
X101600000Y-97028000D03*
%TO.P,U3,31*%
%TO.N,/+5V_A1*%
X116840000Y-91948000D03*
%TO.P,U3,11*%
%TO.N,+5V*%
X101600000Y-94488000D03*
%TO.P,U3,30*%
%TO.N,/+5V_A0*%
X116840000Y-94488000D03*
%TO.P,U3,10*%
%TO.N,/+5V_D6*%
X101600000Y-91948000D03*
%TO.P,U3,29*%
%TO.N,GND*%
X116840000Y-97028000D03*
%TO.P,U3,9*%
%TO.N,/+5V_D5*%
X101600000Y-89408000D03*
%TO.P,U3,28*%
%TO.N,/~+5V_RFSH*%
X116840000Y-99568000D03*
%TO.P,U3,8*%
%TO.N,/+5V_D3*%
X101600000Y-86868000D03*
%TO.P,U3,27*%
%TO.N,/~+5V_M1*%
X116840000Y-102108000D03*
%TO.P,U3,7*%
%TO.N,/+5V_D4*%
X101600000Y-84328000D03*
%TO.P,U3,26*%
%TO.N,/~+5V_RESET*%
X116840000Y-104648000D03*
%TO.P,U3,6*%
%TO.N,/+5V_CLK*%
X101600000Y-81788000D03*
%TO.P,U3,25*%
%TO.N,Net-(R1-Pad1)*%
X116840000Y-107188000D03*
%TO.P,U3,5*%
%TO.N,/+5V_A15*%
X101600000Y-79248000D03*
%TO.P,U3,24*%
%TO.N,Net-(R2-Pad1)*%
X116840000Y-109728000D03*
%TO.P,U3,4*%
%TO.N,/+5V_A14*%
X101600000Y-76708000D03*
%TO.P,U3,23*%
%TO.N,N/C*%
X116840000Y-112268000D03*
%TO.P,U3,3*%
%TO.N,/+5V_A13*%
X101600000Y-74168000D03*
%TO.P,U3,22*%
%TO.N,/~+5V_WR*%
X116840000Y-114808000D03*
%TO.P,U3,2*%
%TO.N,/+5V_A12*%
X101600000Y-71628000D03*
%TO.P,U3,21*%
%TO.N,/~+5V_RD*%
X116840000Y-117348000D03*
D11*
%TO.P,U3,1*%
%TO.N,/+5V_A11*%
X101600000Y-69088000D03*
%TD*%
D12*
%TO.P,J10,11*%
%TO.N,/~RFSH*%
X104584500Y-138163300D03*
%TO.P,J10,10*%
%TO.N,/~M1*%
X102044500Y-138163300D03*
%TO.P,J10,9*%
%TO.N,/~RESET*%
X99504500Y-138163300D03*
%TO.P,J10,8*%
%TO.N,/~WR*%
X96964500Y-138163300D03*
%TO.P,J10,7*%
%TO.N,/~RD*%
X94424500Y-138163300D03*
%TO.P,J10,6*%
%TO.N,/~IORQ*%
X91884500Y-138163300D03*
%TO.P,J10,5*%
%TO.N,/~MREQ*%
X89344500Y-138163300D03*
%TO.P,J10,4*%
%TO.N,/~HALT*%
X86804500Y-138163300D03*
%TO.P,J10,3*%
%TO.N,/~NMI*%
X84264500Y-138163300D03*
%TO.P,J10,2*%
%TO.N,/~INT*%
X81724500Y-138163300D03*
D13*
%TO.P,J10,1*%
%TO.N,/CLK*%
X79184500Y-138163300D03*
%TD*%
D12*
%TO.P,J9,16*%
%TO.N,/A0*%
X117360700Y-55143400D03*
%TO.P,J9,15*%
%TO.N,/A1*%
X114820700Y-55143400D03*
%TO.P,J9,14*%
%TO.N,/A2*%
X112280700Y-55143400D03*
%TO.P,J9,13*%
%TO.N,/A3*%
X109740700Y-55143400D03*
%TO.P,J9,12*%
%TO.N,/A4*%
X107200700Y-55143400D03*
%TO.P,J9,11*%
%TO.N,/A5*%
X104660700Y-55143400D03*
%TO.P,J9,10*%
%TO.N,/A6*%
X102120700Y-55143400D03*
%TO.P,J9,9*%
%TO.N,/A7*%
X99580700Y-55143400D03*
%TO.P,J9,8*%
%TO.N,/A8*%
X97040700Y-55143400D03*
%TO.P,J9,7*%
%TO.N,/A9*%
X94500700Y-55143400D03*
%TO.P,J9,6*%
%TO.N,/A10*%
X91960700Y-55143400D03*
%TO.P,J9,5*%
%TO.N,/A11*%
X89420700Y-55143400D03*
%TO.P,J9,4*%
%TO.N,/A12*%
X86880700Y-55143400D03*
%TO.P,J9,3*%
%TO.N,/A13*%
X84340700Y-55143400D03*
%TO.P,J9,2*%
%TO.N,/A14*%
X81800700Y-55143400D03*
D13*
%TO.P,J9,1*%
%TO.N,/A15*%
X79260700Y-55143400D03*
%TD*%
D12*
%TO.P,J8,8*%
%TO.N,/D0*%
X79070200Y-68237100D03*
%TO.P,J8,7*%
%TO.N,/D1*%
X79070200Y-70777100D03*
%TO.P,J8,6*%
%TO.N,/D2*%
X79070200Y-73317100D03*
%TO.P,J8,5*%
%TO.N,/D3*%
X79070200Y-75857100D03*
%TO.P,J8,4*%
%TO.N,/D4*%
X79070200Y-78397100D03*
%TO.P,J8,3*%
%TO.N,/D5*%
X79070200Y-80937100D03*
%TO.P,J8,2*%
%TO.N,/D6*%
X79070200Y-83477100D03*
D13*
%TO.P,J8,1*%
%TO.N,/D7*%
X79070200Y-86017100D03*
%TD*%
D12*
%TO.P,J7,3*%
%TO.N,GND*%
X95846900Y-121742200D03*
%TO.P,J7,2*%
X93306900Y-121742200D03*
D13*
%TO.P,J7,1*%
X90766900Y-121742200D03*
%TD*%
D12*
%TO.P,J6,3*%
%TO.N,+3V3*%
X95885000Y-116776500D03*
%TO.P,J6,2*%
X93345000Y-116776500D03*
D13*
%TO.P,J6,1*%
X90805000Y-116776500D03*
%TD*%
D12*
%TO.P,J5,3*%
%TO.N,+5V*%
X92265500Y-99250500D03*
%TO.P,J5,2*%
X89725500Y-99250500D03*
D13*
%TO.P,J5,1*%
X87185500Y-99250500D03*
%TD*%
D12*
%TO.P,J4,2*%
%TO.N,/+VIN*%
X80581500Y-116840000D03*
D13*
%TO.P,J4,1*%
%TO.N,GND*%
X83121500Y-116840000D03*
%TD*%
D12*
%TO.P,J3,11*%
%TO.N,/CLK*%
X79184500Y-134366000D03*
%TO.P,J3,10*%
%TO.N,/~INT*%
X81724500Y-134366000D03*
%TO.P,J3,9*%
%TO.N,/~NMI*%
X84264500Y-134366000D03*
%TO.P,J3,8*%
%TO.N,/~HALT*%
X86804500Y-134366000D03*
%TO.P,J3,7*%
%TO.N,/~MREQ*%
X89344500Y-134366000D03*
%TO.P,J3,6*%
%TO.N,/~IORQ*%
X91884500Y-134366000D03*
%TO.P,J3,5*%
%TO.N,/~RD*%
X94424500Y-134366000D03*
%TO.P,J3,4*%
%TO.N,/~WR*%
X96964500Y-134366000D03*
%TO.P,J3,3*%
%TO.N,/~RESET*%
X99504500Y-134366000D03*
%TO.P,J3,2*%
%TO.N,/~M1*%
X102044500Y-134366000D03*
D13*
%TO.P,J3,1*%
%TO.N,/~RFSH*%
X104584500Y-134366000D03*
%TD*%
D12*
%TO.P,J2,16*%
%TO.N,/A15*%
X79248000Y-58864500D03*
%TO.P,J2,15*%
%TO.N,/A14*%
X81788000Y-58864500D03*
%TO.P,J2,14*%
%TO.N,/A13*%
X84328000Y-58864500D03*
%TO.P,J2,13*%
%TO.N,/A12*%
X86868000Y-58864500D03*
%TO.P,J2,12*%
%TO.N,/A11*%
X89408000Y-58864500D03*
%TO.P,J2,11*%
%TO.N,/A10*%
X91948000Y-58864500D03*
%TO.P,J2,10*%
%TO.N,/A9*%
X94488000Y-58864500D03*
%TO.P,J2,9*%
%TO.N,/A8*%
X97028000Y-58864500D03*
%TO.P,J2,8*%
%TO.N,/A7*%
X99568000Y-58864500D03*
%TO.P,J2,7*%
%TO.N,/A6*%
X102108000Y-58864500D03*
%TO.P,J2,6*%
%TO.N,/A5*%
X104648000Y-58864500D03*
%TO.P,J2,5*%
%TO.N,/A4*%
X107188000Y-58864500D03*
%TO.P,J2,4*%
%TO.N,/A3*%
X109728000Y-58864500D03*
%TO.P,J2,3*%
%TO.N,/A2*%
X112268000Y-58864500D03*
%TO.P,J2,2*%
%TO.N,/A1*%
X114808000Y-58864500D03*
D13*
%TO.P,J2,1*%
%TO.N,/A0*%
X117348000Y-58864500D03*
%TD*%
D12*
%TO.P,J1,8*%
%TO.N,/D7*%
X82931000Y-86042500D03*
%TO.P,J1,7*%
%TO.N,/D6*%
X82931000Y-83502500D03*
%TO.P,J1,6*%
%TO.N,/D5*%
X82931000Y-80962500D03*
%TO.P,J1,5*%
%TO.N,/D4*%
X82931000Y-78422500D03*
%TO.P,J1,4*%
%TO.N,/D3*%
X82931000Y-75882500D03*
%TO.P,J1,3*%
%TO.N,/D2*%
X82931000Y-73342500D03*
%TO.P,J1,2*%
%TO.N,/D1*%
X82931000Y-70802500D03*
D13*
%TO.P,J1,1*%
%TO.N,/D0*%
X82931000Y-68262500D03*
%TD*%
D14*
%TO.N,GND*%
X120446800Y-75628500D03*
X127876300Y-122656600D03*
X110363000Y-129565400D03*
X90322400Y-105257600D03*
X90322400Y-110642400D03*
X91643200Y-108102400D03*
X97790000Y-108102400D03*
X96621600Y-108204000D03*
X126949200Y-65316100D03*
X121577100Y-132410200D03*
X121500900Y-118821200D03*
X126847600Y-79082900D03*
X114236500Y-122961400D03*
X95580200Y-78460600D03*
X81381600Y-103581200D03*
X80213200Y-103530400D03*
X78638400Y-103530400D03*
X78486000Y-104749600D03*
X78486000Y-105765600D03*
X91008200Y-93078300D03*
X100952300Y-121767600D03*
X97116900Y-95364300D03*
X90474800Y-72580500D03*
X96100900Y-64401700D03*
X95034100Y-81508600D03*
%TO.N,+5V*%
X123190000Y-108585000D03*
X120484900Y-120916700D03*
X112268000Y-121945400D03*
X96786700Y-76238100D03*
X97967800Y-94411800D03*
X126822200Y-71107300D03*
%TO.N,+3V3*%
X128028700Y-131140200D03*
X98348800Y-112471200D03*
X119989600Y-71818500D03*
X127965200Y-66840100D03*
X96913700Y-66636900D03*
X120459500Y-130733800D03*
X102133400Y-121691400D03*
X97167700Y-83591400D03*
X105439501Y-129728899D03*
X88704700Y-87698300D03*
X87591900Y-74650600D03*
X87896700Y-70408800D03*
%TO.N,/+5V_A13*%
X93218000Y-76454000D03*
%TO.N,/+5V_A12*%
X93218000Y-72644000D03*
%TO.N,/+5V_D6*%
X92964000Y-93472000D03*
%TO.N,/+5V_D5*%
X92954200Y-88655800D03*
%TD*%
D15*
%TO.N,+5V*%
X98066901Y-94510901D02*
X97967800Y-94411800D01*
X98066901Y-95820301D02*
X98066901Y-94510901D01*
X94636702Y-99250500D02*
X98066901Y-95820301D01*
X92265500Y-99250500D02*
X94636702Y-99250500D01*
X101523800Y-94411800D02*
X101600000Y-94488000D01*
X97967800Y-94411800D02*
X101523800Y-94411800D01*
X119456200Y-121945400D02*
X120484900Y-120916700D01*
X112268000Y-121945400D02*
X119456200Y-121945400D01*
X120484900Y-111290100D02*
X123190000Y-108585000D01*
X120484900Y-120916700D02*
X120484900Y-111290100D01*
X112268000Y-105156000D02*
X101600000Y-94488000D01*
X112268000Y-121945400D02*
X112268000Y-105156000D01*
X96396698Y-76238100D02*
X96786700Y-76238100D01*
X87185500Y-85449298D02*
X96396698Y-76238100D01*
X87185500Y-99250500D02*
X87185500Y-85449298D01*
X102950001Y-93137999D02*
X101600000Y-94488000D01*
X116191999Y-67737999D02*
X102950001Y-80979997D01*
X121716399Y-67737999D02*
X116191999Y-67737999D01*
X102950001Y-80979997D02*
X102950001Y-93137999D01*
X125085700Y-71107300D02*
X121716399Y-67737999D01*
X126822200Y-71107300D02*
X125085700Y-71107300D01*
%TO.N,+3V3*%
X102133400Y-121691400D02*
X102133400Y-120421400D01*
X98488500Y-116776500D02*
X95885000Y-116776500D01*
X102133400Y-120421400D02*
X98488500Y-116776500D01*
X106444402Y-130733800D02*
X120459500Y-130733800D01*
X105439501Y-129728899D02*
X106444402Y-130733800D01*
X127622300Y-130733800D02*
X128028700Y-131140200D01*
X120459500Y-130733800D02*
X127622300Y-130733800D01*
X93060800Y-87698300D02*
X97167700Y-83591400D01*
X88704700Y-87698300D02*
X93060800Y-87698300D01*
X87591900Y-74650600D02*
X87591900Y-70713600D01*
X87591900Y-70713600D02*
X87896700Y-70408800D01*
X87896700Y-70408800D02*
X87896700Y-70408800D01*
X93141800Y-70408800D02*
X96913700Y-66636900D01*
X87896700Y-70408800D02*
X93141800Y-70408800D01*
X127762000Y-66636900D02*
X127965200Y-66840100D01*
X96913700Y-66636900D02*
X127762000Y-66636900D01*
X127965200Y-66840100D02*
X127965200Y-71983600D01*
X127730301Y-72218499D02*
X120389599Y-72218499D01*
X120389599Y-72218499D02*
X119989600Y-71818500D01*
X127965200Y-71983600D02*
X127730301Y-72218499D01*
D16*
%TO.N,/+5V_A13*%
X95504000Y-74168000D02*
X101600000Y-74168000D01*
X93218000Y-76454000D02*
X95504000Y-74168000D01*
%TO.N,/+5V_A12*%
X100584000Y-72644000D02*
X101600000Y-71628000D01*
X93218000Y-72644000D02*
X100584000Y-72644000D01*
%TO.N,/+5V_D6*%
X100076000Y-93472000D02*
X101600000Y-91948000D01*
X92964000Y-93472000D02*
X100076000Y-93472000D01*
%TO.N,/+5V_D5*%
X100847800Y-88655800D02*
X101600000Y-89408000D01*
X92954200Y-88655800D02*
X100847800Y-88655800D01*
%TO.N,/~RFSH*%
X104584500Y-134366000D02*
X104584500Y-138163300D01*
%TD*%
D17*
%TO.N,GND*%
G36*
X129340001Y-144340000D02*
G01*
X75660000Y-144340000D01*
X75660000Y-137313300D01*
X77696428Y-137313300D01*
X77696428Y-139013300D01*
X77708688Y-139137782D01*
X77744998Y-139257480D01*
X77803963Y-139367794D01*
X77883315Y-139464485D01*
X77980006Y-139543837D01*
X78090320Y-139602802D01*
X78210018Y-139639112D01*
X78334500Y-139651372D01*
X80034500Y-139651372D01*
X80158982Y-139639112D01*
X80278680Y-139602802D01*
X80388994Y-139543837D01*
X80485685Y-139464485D01*
X80565037Y-139367794D01*
X80624002Y-139257480D01*
X80646013Y-139184920D01*
X80777868Y-139316775D01*
X81021089Y-139479290D01*
X81291342Y-139591232D01*
X81578240Y-139648300D01*
X81870760Y-139648300D01*
X82157658Y-139591232D01*
X82427911Y-139479290D01*
X82671132Y-139316775D01*
X82877975Y-139109932D01*
X82994500Y-138935540D01*
X83111025Y-139109932D01*
X83317868Y-139316775D01*
X83561089Y-139479290D01*
X83831342Y-139591232D01*
X84118240Y-139648300D01*
X84410760Y-139648300D01*
X84697658Y-139591232D01*
X84967911Y-139479290D01*
X85211132Y-139316775D01*
X85417975Y-139109932D01*
X85534500Y-138935540D01*
X85651025Y-139109932D01*
X85857868Y-139316775D01*
X86101089Y-139479290D01*
X86371342Y-139591232D01*
X86658240Y-139648300D01*
X86950760Y-139648300D01*
X87237658Y-139591232D01*
X87507911Y-139479290D01*
X87751132Y-139316775D01*
X87957975Y-139109932D01*
X88074500Y-138935540D01*
X88191025Y-139109932D01*
X88397868Y-139316775D01*
X88641089Y-139479290D01*
X88911342Y-139591232D01*
X89198240Y-139648300D01*
X89490760Y-139648300D01*
X89777658Y-139591232D01*
X90047911Y-139479290D01*
X90291132Y-139316775D01*
X90497975Y-139109932D01*
X90614500Y-138935540D01*
X90731025Y-139109932D01*
X90937868Y-139316775D01*
X91181089Y-139479290D01*
X91451342Y-139591232D01*
X91738240Y-139648300D01*
X92030760Y-139648300D01*
X92317658Y-139591232D01*
X92587911Y-139479290D01*
X92831132Y-139316775D01*
X93037975Y-139109932D01*
X93154500Y-138935540D01*
X93271025Y-139109932D01*
X93477868Y-139316775D01*
X93721089Y-139479290D01*
X93991342Y-139591232D01*
X94278240Y-139648300D01*
X94570760Y-139648300D01*
X94857658Y-139591232D01*
X95127911Y-139479290D01*
X95371132Y-139316775D01*
X95577975Y-139109932D01*
X95694500Y-138935540D01*
X95811025Y-139109932D01*
X96017868Y-139316775D01*
X96261089Y-139479290D01*
X96531342Y-139591232D01*
X96818240Y-139648300D01*
X97110760Y-139648300D01*
X97397658Y-139591232D01*
X97667911Y-139479290D01*
X97911132Y-139316775D01*
X98117975Y-139109932D01*
X98234500Y-138935540D01*
X98351025Y-139109932D01*
X98557868Y-139316775D01*
X98801089Y-139479290D01*
X99071342Y-139591232D01*
X99358240Y-139648300D01*
X99650760Y-139648300D01*
X99937658Y-139591232D01*
X100207911Y-139479290D01*
X100451132Y-139316775D01*
X100657975Y-139109932D01*
X100774500Y-138935540D01*
X100891025Y-139109932D01*
X101097868Y-139316775D01*
X101341089Y-139479290D01*
X101611342Y-139591232D01*
X101898240Y-139648300D01*
X102190760Y-139648300D01*
X102477658Y-139591232D01*
X102747911Y-139479290D01*
X102991132Y-139316775D01*
X103197975Y-139109932D01*
X103314500Y-138935540D01*
X103431025Y-139109932D01*
X103637868Y-139316775D01*
X103881089Y-139479290D01*
X104151342Y-139591232D01*
X104438240Y-139648300D01*
X104730760Y-139648300D01*
X105017658Y-139591232D01*
X105287911Y-139479290D01*
X105531132Y-139316775D01*
X105737975Y-139109932D01*
X105900490Y-138866711D01*
X106012432Y-138596458D01*
X106069500Y-138309560D01*
X106069500Y-138017040D01*
X106012432Y-137730142D01*
X105900490Y-137459889D01*
X105737975Y-137216668D01*
X105531132Y-137009825D01*
X105344500Y-136885122D01*
X105344500Y-135854072D01*
X105434500Y-135854072D01*
X105558982Y-135841812D01*
X105678680Y-135805502D01*
X105788994Y-135746537D01*
X105885685Y-135667185D01*
X105965037Y-135570494D01*
X106024002Y-135460180D01*
X106060312Y-135340482D01*
X106072572Y-135216000D01*
X106072572Y-133516000D01*
X106060312Y-133391518D01*
X106024002Y-133271820D01*
X105965037Y-133161506D01*
X105885685Y-133064815D01*
X105788994Y-132985463D01*
X105678680Y-132926498D01*
X105558982Y-132890188D01*
X105434500Y-132877928D01*
X103734500Y-132877928D01*
X103610018Y-132890188D01*
X103490320Y-132926498D01*
X103380006Y-132985463D01*
X103283315Y-133064815D01*
X103203963Y-133161506D01*
X103144998Y-133271820D01*
X103122987Y-133344380D01*
X102991132Y-133212525D01*
X102747911Y-133050010D01*
X102477658Y-132938068D01*
X102190760Y-132881000D01*
X101898240Y-132881000D01*
X101611342Y-132938068D01*
X101341089Y-133050010D01*
X101097868Y-133212525D01*
X100891025Y-133419368D01*
X100774500Y-133593760D01*
X100657975Y-133419368D01*
X100451132Y-133212525D01*
X100207911Y-133050010D01*
X99937658Y-132938068D01*
X99650760Y-132881000D01*
X99358240Y-132881000D01*
X99071342Y-132938068D01*
X98801089Y-133050010D01*
X98557868Y-133212525D01*
X98351025Y-133419368D01*
X98234500Y-133593760D01*
X98117975Y-133419368D01*
X97911132Y-133212525D01*
X97667911Y-133050010D01*
X97397658Y-132938068D01*
X97110760Y-132881000D01*
X96818240Y-132881000D01*
X96531342Y-132938068D01*
X96261089Y-133050010D01*
X96017868Y-133212525D01*
X95811025Y-133419368D01*
X95694500Y-133593760D01*
X95577975Y-133419368D01*
X95371132Y-133212525D01*
X95127911Y-133050010D01*
X94857658Y-132938068D01*
X94570760Y-132881000D01*
X94278240Y-132881000D01*
X93991342Y-132938068D01*
X93721089Y-133050010D01*
X93477868Y-133212525D01*
X93271025Y-133419368D01*
X93154500Y-133593760D01*
X93037975Y-133419368D01*
X92831132Y-133212525D01*
X92587911Y-133050010D01*
X92317658Y-132938068D01*
X92030760Y-132881000D01*
X91738240Y-132881000D01*
X91451342Y-132938068D01*
X91181089Y-133050010D01*
X90937868Y-133212525D01*
X90731025Y-133419368D01*
X90614500Y-133593760D01*
X90497975Y-133419368D01*
X90291132Y-133212525D01*
X90047911Y-133050010D01*
X89777658Y-132938068D01*
X89490760Y-132881000D01*
X89198240Y-132881000D01*
X88911342Y-132938068D01*
X88641089Y-133050010D01*
X88397868Y-133212525D01*
X88191025Y-133419368D01*
X88074500Y-133593760D01*
X87957975Y-133419368D01*
X87751132Y-133212525D01*
X87507911Y-133050010D01*
X87237658Y-132938068D01*
X86950760Y-132881000D01*
X86658240Y-132881000D01*
X86371342Y-132938068D01*
X86101089Y-133050010D01*
X85857868Y-133212525D01*
X85651025Y-133419368D01*
X85534500Y-133593760D01*
X85417975Y-133419368D01*
X85211132Y-133212525D01*
X84967911Y-133050010D01*
X84697658Y-132938068D01*
X84410760Y-132881000D01*
X84118240Y-132881000D01*
X83831342Y-132938068D01*
X83561089Y-133050010D01*
X83317868Y-133212525D01*
X83111025Y-133419368D01*
X82994500Y-133593760D01*
X82877975Y-133419368D01*
X82671132Y-133212525D01*
X82427911Y-133050010D01*
X82157658Y-132938068D01*
X81870760Y-132881000D01*
X81578240Y-132881000D01*
X81291342Y-132938068D01*
X81021089Y-133050010D01*
X80777868Y-133212525D01*
X80571025Y-133419368D01*
X80454500Y-133593760D01*
X80337975Y-133419368D01*
X80131132Y-133212525D01*
X79887911Y-133050010D01*
X79617658Y-132938068D01*
X79330760Y-132881000D01*
X79038240Y-132881000D01*
X78751342Y-132938068D01*
X78481089Y-133050010D01*
X78237868Y-133212525D01*
X78031025Y-133419368D01*
X77868510Y-133662589D01*
X77756568Y-133932842D01*
X77699500Y-134219740D01*
X77699500Y-134512260D01*
X77756568Y-134799158D01*
X77868510Y-135069411D01*
X78031025Y-135312632D01*
X78237868Y-135519475D01*
X78481089Y-135681990D01*
X78751342Y-135793932D01*
X79038240Y-135851000D01*
X79330760Y-135851000D01*
X79617658Y-135793932D01*
X79887911Y-135681990D01*
X80131132Y-135519475D01*
X80337975Y-135312632D01*
X80454500Y-135138240D01*
X80571025Y-135312632D01*
X80777868Y-135519475D01*
X81021089Y-135681990D01*
X81291342Y-135793932D01*
X81578240Y-135851000D01*
X81870760Y-135851000D01*
X82157658Y-135793932D01*
X82427911Y-135681990D01*
X82671132Y-135519475D01*
X82877975Y-135312632D01*
X82994500Y-135138240D01*
X83111025Y-135312632D01*
X83317868Y-135519475D01*
X83561089Y-135681990D01*
X83831342Y-135793932D01*
X84118240Y-135851000D01*
X84410760Y-135851000D01*
X84697658Y-135793932D01*
X84967911Y-135681990D01*
X85211132Y-135519475D01*
X85417975Y-135312632D01*
X85534500Y-135138240D01*
X85651025Y-135312632D01*
X85857868Y-135519475D01*
X86101089Y-135681990D01*
X86371342Y-135793932D01*
X86658240Y-135851000D01*
X86950760Y-135851000D01*
X87237658Y-135793932D01*
X87507911Y-135681990D01*
X87751132Y-135519475D01*
X87957975Y-135312632D01*
X88074500Y-135138240D01*
X88191025Y-135312632D01*
X88397868Y-135519475D01*
X88641089Y-135681990D01*
X88911342Y-135793932D01*
X89198240Y-135851000D01*
X89490760Y-135851000D01*
X89777658Y-135793932D01*
X90047911Y-135681990D01*
X90291132Y-135519475D01*
X90497975Y-135312632D01*
X90614500Y-135138240D01*
X90731025Y-135312632D01*
X90937868Y-135519475D01*
X91181089Y-135681990D01*
X91451342Y-135793932D01*
X91738240Y-135851000D01*
X92030760Y-135851000D01*
X92317658Y-135793932D01*
X92587911Y-135681990D01*
X92831132Y-135519475D01*
X93037975Y-135312632D01*
X93154500Y-135138240D01*
X93271025Y-135312632D01*
X93477868Y-135519475D01*
X93721089Y-135681990D01*
X93991342Y-135793932D01*
X94278240Y-135851000D01*
X94570760Y-135851000D01*
X94857658Y-135793932D01*
X95127911Y-135681990D01*
X95371132Y-135519475D01*
X95577975Y-135312632D01*
X95694500Y-135138240D01*
X95811025Y-135312632D01*
X96017868Y-135519475D01*
X96261089Y-135681990D01*
X96531342Y-135793932D01*
X96818240Y-135851000D01*
X97110760Y-135851000D01*
X97397658Y-135793932D01*
X97667911Y-135681990D01*
X97911132Y-135519475D01*
X98117975Y-135312632D01*
X98234500Y-135138240D01*
X98351025Y-135312632D01*
X98557868Y-135519475D01*
X98801089Y-135681990D01*
X99071342Y-135793932D01*
X99358240Y-135851000D01*
X99650760Y-135851000D01*
X99937658Y-135793932D01*
X100207911Y-135681990D01*
X100451132Y-135519475D01*
X100657975Y-135312632D01*
X100774500Y-135138240D01*
X100891025Y-135312632D01*
X101097868Y-135519475D01*
X101341089Y-135681990D01*
X101611342Y-135793932D01*
X101898240Y-135851000D01*
X102190760Y-135851000D01*
X102477658Y-135793932D01*
X102747911Y-135681990D01*
X102991132Y-135519475D01*
X103122987Y-135387620D01*
X103144998Y-135460180D01*
X103203963Y-135570494D01*
X103283315Y-135667185D01*
X103380006Y-135746537D01*
X103490320Y-135805502D01*
X103610018Y-135841812D01*
X103734500Y-135854072D01*
X103824500Y-135854072D01*
X103824501Y-136885121D01*
X103637868Y-137009825D01*
X103431025Y-137216668D01*
X103314500Y-137391060D01*
X103197975Y-137216668D01*
X102991132Y-137009825D01*
X102747911Y-136847310D01*
X102477658Y-136735368D01*
X102190760Y-136678300D01*
X101898240Y-136678300D01*
X101611342Y-136735368D01*
X101341089Y-136847310D01*
X101097868Y-137009825D01*
X100891025Y-137216668D01*
X100774500Y-137391060D01*
X100657975Y-137216668D01*
X100451132Y-137009825D01*
X100207911Y-136847310D01*
X99937658Y-136735368D01*
X99650760Y-136678300D01*
X99358240Y-136678300D01*
X99071342Y-136735368D01*
X98801089Y-136847310D01*
X98557868Y-137009825D01*
X98351025Y-137216668D01*
X98234500Y-137391060D01*
X98117975Y-137216668D01*
X97911132Y-137009825D01*
X97667911Y-136847310D01*
X97397658Y-136735368D01*
X97110760Y-136678300D01*
X96818240Y-136678300D01*
X96531342Y-136735368D01*
X96261089Y-136847310D01*
X96017868Y-137009825D01*
X95811025Y-137216668D01*
X95694500Y-137391060D01*
X95577975Y-137216668D01*
X95371132Y-137009825D01*
X95127911Y-136847310D01*
X94857658Y-136735368D01*
X94570760Y-136678300D01*
X94278240Y-136678300D01*
X93991342Y-136735368D01*
X93721089Y-136847310D01*
X93477868Y-137009825D01*
X93271025Y-137216668D01*
X93154500Y-137391060D01*
X93037975Y-137216668D01*
X92831132Y-137009825D01*
X92587911Y-136847310D01*
X92317658Y-136735368D01*
X92030760Y-136678300D01*
X91738240Y-136678300D01*
X91451342Y-136735368D01*
X91181089Y-136847310D01*
X90937868Y-137009825D01*
X90731025Y-137216668D01*
X90614500Y-137391060D01*
X90497975Y-137216668D01*
X90291132Y-137009825D01*
X90047911Y-136847310D01*
X89777658Y-136735368D01*
X89490760Y-136678300D01*
X89198240Y-136678300D01*
X88911342Y-136735368D01*
X88641089Y-136847310D01*
X88397868Y-137009825D01*
X88191025Y-137216668D01*
X88074500Y-137391060D01*
X87957975Y-137216668D01*
X87751132Y-137009825D01*
X87507911Y-136847310D01*
X87237658Y-136735368D01*
X86950760Y-136678300D01*
X86658240Y-136678300D01*
X86371342Y-136735368D01*
X86101089Y-136847310D01*
X85857868Y-137009825D01*
X85651025Y-137216668D01*
X85534500Y-137391060D01*
X85417975Y-137216668D01*
X85211132Y-137009825D01*
X84967911Y-136847310D01*
X84697658Y-136735368D01*
X84410760Y-136678300D01*
X84118240Y-136678300D01*
X83831342Y-136735368D01*
X83561089Y-136847310D01*
X83317868Y-137009825D01*
X83111025Y-137216668D01*
X82994500Y-137391060D01*
X82877975Y-137216668D01*
X82671132Y-137009825D01*
X82427911Y-136847310D01*
X82157658Y-136735368D01*
X81870760Y-136678300D01*
X81578240Y-136678300D01*
X81291342Y-136735368D01*
X81021089Y-136847310D01*
X80777868Y-137009825D01*
X80646013Y-137141680D01*
X80624002Y-137069120D01*
X80565037Y-136958806D01*
X80485685Y-136862115D01*
X80388994Y-136782763D01*
X80278680Y-136723798D01*
X80158982Y-136687488D01*
X80034500Y-136675228D01*
X78334500Y-136675228D01*
X78210018Y-136687488D01*
X78090320Y-136723798D01*
X77980006Y-136782763D01*
X77883315Y-136862115D01*
X77803963Y-136958806D01*
X77744998Y-137069120D01*
X77708688Y-137188818D01*
X77696428Y-137313300D01*
X75660000Y-137313300D01*
X75660000Y-129626960D01*
X104404501Y-129626960D01*
X104404501Y-129830838D01*
X104444275Y-130030797D01*
X104522296Y-130219155D01*
X104635564Y-130388673D01*
X104779727Y-130532836D01*
X104949245Y-130646104D01*
X104973931Y-130656329D01*
X105713691Y-131396089D01*
X105744532Y-131433670D01*
X105782111Y-131464510D01*
X105894518Y-131556760D01*
X106065635Y-131648224D01*
X106251308Y-131704547D01*
X106444402Y-131723565D01*
X106492782Y-131718800D01*
X120132914Y-131718800D01*
X120157602Y-131729026D01*
X120357561Y-131768800D01*
X120561439Y-131768800D01*
X120761398Y-131729026D01*
X120786086Y-131718800D01*
X127170524Y-131718800D01*
X127224763Y-131799974D01*
X127368926Y-131944137D01*
X127538444Y-132057405D01*
X127726802Y-132135426D01*
X127926761Y-132175200D01*
X128130639Y-132175200D01*
X128330598Y-132135426D01*
X128518956Y-132057405D01*
X128688474Y-131944137D01*
X128832637Y-131799974D01*
X128945905Y-131630456D01*
X129023926Y-131442098D01*
X129063700Y-131242139D01*
X129063700Y-131038261D01*
X129023926Y-130838302D01*
X128945905Y-130649944D01*
X128832637Y-130480426D01*
X128688474Y-130336263D01*
X128518956Y-130222995D01*
X128494269Y-130212769D01*
X128353016Y-130071517D01*
X128322170Y-130033930D01*
X128172184Y-129910840D01*
X128001067Y-129819376D01*
X127815394Y-129763053D01*
X127670680Y-129748800D01*
X127622300Y-129744035D01*
X127573920Y-129748800D01*
X120786086Y-129748800D01*
X120761398Y-129738574D01*
X120561439Y-129698800D01*
X120357561Y-129698800D01*
X120157602Y-129738574D01*
X120132914Y-129748800D01*
X106852403Y-129748800D01*
X106366931Y-129263329D01*
X106356706Y-129238643D01*
X106243438Y-129069125D01*
X106099275Y-128924962D01*
X105929757Y-128811694D01*
X105741399Y-128733673D01*
X105541440Y-128693899D01*
X105337562Y-128693899D01*
X105137603Y-128733673D01*
X104949245Y-128811694D01*
X104779727Y-128924962D01*
X104635564Y-129069125D01*
X104522296Y-129238643D01*
X104444275Y-129427001D01*
X104404501Y-129626960D01*
X75660000Y-129626960D01*
X75660000Y-122592200D01*
X89278828Y-122592200D01*
X89291088Y-122716682D01*
X89327398Y-122836380D01*
X89386363Y-122946694D01*
X89465715Y-123043385D01*
X89562406Y-123122737D01*
X89672720Y-123181702D01*
X89792418Y-123218012D01*
X89916900Y-123230272D01*
X90481150Y-123227200D01*
X90639900Y-123068450D01*
X90639900Y-121869200D01*
X90893900Y-121869200D01*
X90893900Y-123068450D01*
X91052650Y-123227200D01*
X91616900Y-123230272D01*
X91741382Y-123218012D01*
X91861080Y-123181702D01*
X91971394Y-123122737D01*
X92068085Y-123043385D01*
X92147437Y-122946694D01*
X92206402Y-122836380D01*
X92230866Y-122755734D01*
X92306631Y-122839788D01*
X92539980Y-123013841D01*
X92802801Y-123139025D01*
X92950010Y-123183676D01*
X93179900Y-123062355D01*
X93179900Y-121869200D01*
X93433900Y-121869200D01*
X93433900Y-123062355D01*
X93663790Y-123183676D01*
X93810999Y-123139025D01*
X94073820Y-123013841D01*
X94307169Y-122839788D01*
X94502078Y-122623555D01*
X94576900Y-122497945D01*
X94651722Y-122623555D01*
X94846631Y-122839788D01*
X95079980Y-123013841D01*
X95342801Y-123139025D01*
X95490010Y-123183676D01*
X95719900Y-123062355D01*
X95719900Y-121869200D01*
X95973900Y-121869200D01*
X95973900Y-123062355D01*
X96203790Y-123183676D01*
X96350999Y-123139025D01*
X96613820Y-123013841D01*
X96847169Y-122839788D01*
X97042078Y-122623555D01*
X97191057Y-122373452D01*
X97288381Y-122099091D01*
X97167714Y-121869200D01*
X95973900Y-121869200D01*
X95719900Y-121869200D01*
X93433900Y-121869200D01*
X93179900Y-121869200D01*
X90893900Y-121869200D01*
X90639900Y-121869200D01*
X89440650Y-121869200D01*
X89281900Y-122027950D01*
X89278828Y-122592200D01*
X75660000Y-122592200D01*
X75660000Y-120892200D01*
X89278828Y-120892200D01*
X89281900Y-121456450D01*
X89440650Y-121615200D01*
X90639900Y-121615200D01*
X90639900Y-120415950D01*
X90893900Y-120415950D01*
X90893900Y-121615200D01*
X93179900Y-121615200D01*
X93179900Y-120422045D01*
X93433900Y-120422045D01*
X93433900Y-121615200D01*
X95719900Y-121615200D01*
X95719900Y-120422045D01*
X95973900Y-120422045D01*
X95973900Y-121615200D01*
X97167714Y-121615200D01*
X97288381Y-121385309D01*
X97191057Y-121110948D01*
X97042078Y-120860845D01*
X96847169Y-120644612D01*
X96613820Y-120470559D01*
X96350999Y-120345375D01*
X96203790Y-120300724D01*
X95973900Y-120422045D01*
X95719900Y-120422045D01*
X95490010Y-120300724D01*
X95342801Y-120345375D01*
X95079980Y-120470559D01*
X94846631Y-120644612D01*
X94651722Y-120860845D01*
X94576900Y-120986455D01*
X94502078Y-120860845D01*
X94307169Y-120644612D01*
X94073820Y-120470559D01*
X93810999Y-120345375D01*
X93663790Y-120300724D01*
X93433900Y-120422045D01*
X93179900Y-120422045D01*
X92950010Y-120300724D01*
X92802801Y-120345375D01*
X92539980Y-120470559D01*
X92306631Y-120644612D01*
X92230866Y-120728666D01*
X92206402Y-120648020D01*
X92147437Y-120537706D01*
X92068085Y-120441015D01*
X91971394Y-120361663D01*
X91861080Y-120302698D01*
X91741382Y-120266388D01*
X91616900Y-120254128D01*
X91052650Y-120257200D01*
X90893900Y-120415950D01*
X90639900Y-120415950D01*
X90481150Y-120257200D01*
X89916900Y-120254128D01*
X89792418Y-120266388D01*
X89672720Y-120302698D01*
X89562406Y-120361663D01*
X89465715Y-120441015D01*
X89386363Y-120537706D01*
X89327398Y-120648020D01*
X89291088Y-120767718D01*
X89278828Y-120892200D01*
X75660000Y-120892200D01*
X75660000Y-116693740D01*
X79096500Y-116693740D01*
X79096500Y-116986260D01*
X79153568Y-117273158D01*
X79265510Y-117543411D01*
X79428025Y-117786632D01*
X79634868Y-117993475D01*
X79878089Y-118155990D01*
X80148342Y-118267932D01*
X80435240Y-118325000D01*
X80727760Y-118325000D01*
X81014658Y-118267932D01*
X81284911Y-118155990D01*
X81528132Y-117993475D01*
X81659987Y-117861620D01*
X81681998Y-117934180D01*
X81740963Y-118044494D01*
X81820315Y-118141185D01*
X81917006Y-118220537D01*
X82027320Y-118279502D01*
X82147018Y-118315812D01*
X82271500Y-118328072D01*
X82835750Y-118325000D01*
X82994500Y-118166250D01*
X82994500Y-116967000D01*
X83248500Y-116967000D01*
X83248500Y-118166250D01*
X83407250Y-118325000D01*
X83971500Y-118328072D01*
X84095982Y-118315812D01*
X84215680Y-118279502D01*
X84325994Y-118220537D01*
X84422685Y-118141185D01*
X84502037Y-118044494D01*
X84561002Y-117934180D01*
X84597312Y-117814482D01*
X84609572Y-117690000D01*
X84606500Y-117125750D01*
X84447750Y-116967000D01*
X83248500Y-116967000D01*
X82994500Y-116967000D01*
X82974500Y-116967000D01*
X82974500Y-116713000D01*
X82994500Y-116713000D01*
X82994500Y-115513750D01*
X83248500Y-115513750D01*
X83248500Y-116713000D01*
X84447750Y-116713000D01*
X84606500Y-116554250D01*
X84609572Y-115990000D01*
X84597312Y-115865518D01*
X84561002Y-115745820D01*
X84502037Y-115635506D01*
X84422685Y-115538815D01*
X84325994Y-115459463D01*
X84215680Y-115400498D01*
X84095982Y-115364188D01*
X83971500Y-115351928D01*
X83407250Y-115355000D01*
X83248500Y-115513750D01*
X82994500Y-115513750D01*
X82835750Y-115355000D01*
X82271500Y-115351928D01*
X82147018Y-115364188D01*
X82027320Y-115400498D01*
X81917006Y-115459463D01*
X81820315Y-115538815D01*
X81740963Y-115635506D01*
X81681998Y-115745820D01*
X81659987Y-115818380D01*
X81528132Y-115686525D01*
X81284911Y-115524010D01*
X81014658Y-115412068D01*
X80727760Y-115355000D01*
X80435240Y-115355000D01*
X80148342Y-115412068D01*
X79878089Y-115524010D01*
X79634868Y-115686525D01*
X79428025Y-115893368D01*
X79265510Y-116136589D01*
X79153568Y-116406842D01*
X79096500Y-116693740D01*
X75660000Y-116693740D01*
X75660000Y-112369261D01*
X97313800Y-112369261D01*
X97313800Y-112573139D01*
X97353574Y-112773098D01*
X97431595Y-112961456D01*
X97544863Y-113130974D01*
X97689026Y-113275137D01*
X97858544Y-113388405D01*
X98046902Y-113466426D01*
X98246861Y-113506200D01*
X98450739Y-113506200D01*
X98650698Y-113466426D01*
X98839056Y-113388405D01*
X99008574Y-113275137D01*
X99152737Y-113130974D01*
X99266005Y-112961456D01*
X99344026Y-112773098D01*
X99383800Y-112573139D01*
X99383800Y-112369261D01*
X99344026Y-112169302D01*
X99266005Y-111980944D01*
X99152737Y-111811426D01*
X99008574Y-111667263D01*
X98839056Y-111553995D01*
X98650698Y-111475974D01*
X98450739Y-111436200D01*
X98246861Y-111436200D01*
X98046902Y-111475974D01*
X97858544Y-111553995D01*
X97689026Y-111667263D01*
X97544863Y-111811426D01*
X97431595Y-111980944D01*
X97353574Y-112169302D01*
X97313800Y-112369261D01*
X75660000Y-112369261D01*
X75660000Y-98400500D01*
X85697428Y-98400500D01*
X85697428Y-100100500D01*
X85709688Y-100224982D01*
X85745998Y-100344680D01*
X85804963Y-100454994D01*
X85884315Y-100551685D01*
X85981006Y-100631037D01*
X86091320Y-100690002D01*
X86211018Y-100726312D01*
X86335500Y-100738572D01*
X88035500Y-100738572D01*
X88159982Y-100726312D01*
X88279680Y-100690002D01*
X88389994Y-100631037D01*
X88486685Y-100551685D01*
X88566037Y-100454994D01*
X88625002Y-100344680D01*
X88647013Y-100272120D01*
X88778868Y-100403975D01*
X89022089Y-100566490D01*
X89292342Y-100678432D01*
X89579240Y-100735500D01*
X89871760Y-100735500D01*
X90158658Y-100678432D01*
X90428911Y-100566490D01*
X90672132Y-100403975D01*
X90878975Y-100197132D01*
X90995500Y-100022740D01*
X91112025Y-100197132D01*
X91318868Y-100403975D01*
X91562089Y-100566490D01*
X91832342Y-100678432D01*
X92119240Y-100735500D01*
X92411760Y-100735500D01*
X92698658Y-100678432D01*
X92968911Y-100566490D01*
X93212132Y-100403975D01*
X93380607Y-100235500D01*
X94588322Y-100235500D01*
X94636702Y-100240265D01*
X94685082Y-100235500D01*
X94829796Y-100221247D01*
X95015469Y-100164924D01*
X95186586Y-100073460D01*
X95336572Y-99950370D01*
X95367418Y-99912784D01*
X98729191Y-96551012D01*
X98766771Y-96520171D01*
X98889861Y-96370185D01*
X98981325Y-96199068D01*
X99037648Y-96013395D01*
X99051901Y-95868681D01*
X99051901Y-95868680D01*
X99056666Y-95820301D01*
X99051901Y-95771921D01*
X99051901Y-95396800D01*
X100481381Y-95396800D01*
X100485363Y-95402759D01*
X100685241Y-95602637D01*
X100917759Y-95758000D01*
X100685241Y-95913363D01*
X100485363Y-96113241D01*
X100328320Y-96348273D01*
X100220147Y-96609426D01*
X100165000Y-96886665D01*
X100165000Y-97169335D01*
X100220147Y-97446574D01*
X100328320Y-97707727D01*
X100485363Y-97942759D01*
X100685241Y-98142637D01*
X100917759Y-98298000D01*
X100685241Y-98453363D01*
X100485363Y-98653241D01*
X100328320Y-98888273D01*
X100220147Y-99149426D01*
X100165000Y-99426665D01*
X100165000Y-99709335D01*
X100220147Y-99986574D01*
X100328320Y-100247727D01*
X100485363Y-100482759D01*
X100685241Y-100682637D01*
X100917759Y-100838000D01*
X100685241Y-100993363D01*
X100485363Y-101193241D01*
X100328320Y-101428273D01*
X100220147Y-101689426D01*
X100165000Y-101966665D01*
X100165000Y-102249335D01*
X100220147Y-102526574D01*
X100328320Y-102787727D01*
X100485363Y-103022759D01*
X100685241Y-103222637D01*
X100917759Y-103378000D01*
X100685241Y-103533363D01*
X100485363Y-103733241D01*
X100328320Y-103968273D01*
X100220147Y-104229426D01*
X100165000Y-104506665D01*
X100165000Y-104789335D01*
X100220147Y-105066574D01*
X100328320Y-105327727D01*
X100485363Y-105562759D01*
X100685241Y-105762637D01*
X100917759Y-105918000D01*
X100685241Y-106073363D01*
X100485363Y-106273241D01*
X100328320Y-106508273D01*
X100220147Y-106769426D01*
X100165000Y-107046665D01*
X100165000Y-107329335D01*
X100220147Y-107606574D01*
X100328320Y-107867727D01*
X100485363Y-108102759D01*
X100685241Y-108302637D01*
X100917759Y-108458000D01*
X100685241Y-108613363D01*
X100485363Y-108813241D01*
X100328320Y-109048273D01*
X100220147Y-109309426D01*
X100165000Y-109586665D01*
X100165000Y-109869335D01*
X100220147Y-110146574D01*
X100328320Y-110407727D01*
X100485363Y-110642759D01*
X100685241Y-110842637D01*
X100917759Y-110998000D01*
X100685241Y-111153363D01*
X100485363Y-111353241D01*
X100328320Y-111588273D01*
X100220147Y-111849426D01*
X100165000Y-112126665D01*
X100165000Y-112409335D01*
X100220147Y-112686574D01*
X100328320Y-112947727D01*
X100485363Y-113182759D01*
X100685241Y-113382637D01*
X100917759Y-113538000D01*
X100685241Y-113693363D01*
X100485363Y-113893241D01*
X100328320Y-114128273D01*
X100220147Y-114389426D01*
X100165000Y-114666665D01*
X100165000Y-114949335D01*
X100220147Y-115226574D01*
X100328320Y-115487727D01*
X100485363Y-115722759D01*
X100685241Y-115922637D01*
X100917759Y-116078000D01*
X100685241Y-116233363D01*
X100485363Y-116433241D01*
X100328320Y-116668273D01*
X100220147Y-116929426D01*
X100189334Y-117084334D01*
X99219216Y-116114216D01*
X99188370Y-116076630D01*
X99038384Y-115953540D01*
X98867267Y-115862076D01*
X98681594Y-115805753D01*
X98536880Y-115791500D01*
X98488500Y-115786735D01*
X98440120Y-115791500D01*
X97000107Y-115791500D01*
X96831632Y-115623025D01*
X96588411Y-115460510D01*
X96318158Y-115348568D01*
X96031260Y-115291500D01*
X95738740Y-115291500D01*
X95451842Y-115348568D01*
X95181589Y-115460510D01*
X94938368Y-115623025D01*
X94731525Y-115829868D01*
X94615000Y-116004260D01*
X94498475Y-115829868D01*
X94291632Y-115623025D01*
X94048411Y-115460510D01*
X93778158Y-115348568D01*
X93491260Y-115291500D01*
X93198740Y-115291500D01*
X92911842Y-115348568D01*
X92641589Y-115460510D01*
X92398368Y-115623025D01*
X92266513Y-115754880D01*
X92244502Y-115682320D01*
X92185537Y-115572006D01*
X92106185Y-115475315D01*
X92009494Y-115395963D01*
X91899180Y-115336998D01*
X91779482Y-115300688D01*
X91655000Y-115288428D01*
X89955000Y-115288428D01*
X89830518Y-115300688D01*
X89710820Y-115336998D01*
X89600506Y-115395963D01*
X89503815Y-115475315D01*
X89424463Y-115572006D01*
X89365498Y-115682320D01*
X89329188Y-115802018D01*
X89316928Y-115926500D01*
X89316928Y-117626500D01*
X89329188Y-117750982D01*
X89365498Y-117870680D01*
X89424463Y-117980994D01*
X89503815Y-118077685D01*
X89600506Y-118157037D01*
X89710820Y-118216002D01*
X89830518Y-118252312D01*
X89955000Y-118264572D01*
X91655000Y-118264572D01*
X91779482Y-118252312D01*
X91899180Y-118216002D01*
X92009494Y-118157037D01*
X92106185Y-118077685D01*
X92185537Y-117980994D01*
X92244502Y-117870680D01*
X92266513Y-117798120D01*
X92398368Y-117929975D01*
X92641589Y-118092490D01*
X92911842Y-118204432D01*
X93198740Y-118261500D01*
X93491260Y-118261500D01*
X93778158Y-118204432D01*
X94048411Y-118092490D01*
X94291632Y-117929975D01*
X94498475Y-117723132D01*
X94615000Y-117548740D01*
X94731525Y-117723132D01*
X94938368Y-117929975D01*
X95181589Y-118092490D01*
X95451842Y-118204432D01*
X95738740Y-118261500D01*
X96031260Y-118261500D01*
X96318158Y-118204432D01*
X96588411Y-118092490D01*
X96831632Y-117929975D01*
X97000107Y-117761500D01*
X98080500Y-117761500D01*
X101148401Y-120829401D01*
X101148400Y-121364814D01*
X101138174Y-121389502D01*
X101098400Y-121589461D01*
X101098400Y-121793339D01*
X101138174Y-121993298D01*
X101216195Y-122181656D01*
X101329463Y-122351174D01*
X101473626Y-122495337D01*
X101643144Y-122608605D01*
X101831502Y-122686626D01*
X102031461Y-122726400D01*
X102235339Y-122726400D01*
X102435298Y-122686626D01*
X102623656Y-122608605D01*
X102793174Y-122495337D01*
X102937337Y-122351174D01*
X103050605Y-122181656D01*
X103128626Y-121993298D01*
X103168400Y-121793339D01*
X103168400Y-121589461D01*
X103128626Y-121389502D01*
X103118400Y-121364814D01*
X103118400Y-120469779D01*
X103123165Y-120421399D01*
X103104147Y-120228306D01*
X103047824Y-120042633D01*
X103024766Y-119999495D01*
X102956360Y-119871516D01*
X102833270Y-119721530D01*
X102795684Y-119690684D01*
X101863666Y-118758666D01*
X102018574Y-118727853D01*
X102279727Y-118619680D01*
X102514759Y-118462637D01*
X102714637Y-118262759D01*
X102871680Y-118027727D01*
X102979853Y-117766574D01*
X103035000Y-117489335D01*
X103035000Y-117206665D01*
X102979853Y-116929426D01*
X102871680Y-116668273D01*
X102714637Y-116433241D01*
X102514759Y-116233363D01*
X102282241Y-116078000D01*
X102514759Y-115922637D01*
X102714637Y-115722759D01*
X102871680Y-115487727D01*
X102979853Y-115226574D01*
X103035000Y-114949335D01*
X103035000Y-114666665D01*
X102979853Y-114389426D01*
X102871680Y-114128273D01*
X102714637Y-113893241D01*
X102514759Y-113693363D01*
X102282241Y-113538000D01*
X102514759Y-113382637D01*
X102714637Y-113182759D01*
X102871680Y-112947727D01*
X102979853Y-112686574D01*
X103035000Y-112409335D01*
X103035000Y-112126665D01*
X102979853Y-111849426D01*
X102871680Y-111588273D01*
X102714637Y-111353241D01*
X102514759Y-111153363D01*
X102282241Y-110998000D01*
X102514759Y-110842637D01*
X102714637Y-110642759D01*
X102871680Y-110407727D01*
X102979853Y-110146574D01*
X103035000Y-109869335D01*
X103035000Y-109586665D01*
X102979853Y-109309426D01*
X102871680Y-109048273D01*
X102714637Y-108813241D01*
X102514759Y-108613363D01*
X102282241Y-108458000D01*
X102514759Y-108302637D01*
X102714637Y-108102759D01*
X102871680Y-107867727D01*
X102979853Y-107606574D01*
X103035000Y-107329335D01*
X103035000Y-107046665D01*
X102979853Y-106769426D01*
X102871680Y-106508273D01*
X102714637Y-106273241D01*
X102514759Y-106073363D01*
X102282241Y-105918000D01*
X102514759Y-105762637D01*
X102714637Y-105562759D01*
X102871680Y-105327727D01*
X102979853Y-105066574D01*
X103035000Y-104789335D01*
X103035000Y-104506665D01*
X102979853Y-104229426D01*
X102871680Y-103968273D01*
X102714637Y-103733241D01*
X102514759Y-103533363D01*
X102282241Y-103378000D01*
X102514759Y-103222637D01*
X102714637Y-103022759D01*
X102871680Y-102787727D01*
X102979853Y-102526574D01*
X103035000Y-102249335D01*
X103035000Y-101966665D01*
X102979853Y-101689426D01*
X102871680Y-101428273D01*
X102714637Y-101193241D01*
X102514759Y-100993363D01*
X102282241Y-100838000D01*
X102514759Y-100682637D01*
X102714637Y-100482759D01*
X102871680Y-100247727D01*
X102979853Y-99986574D01*
X103035000Y-99709335D01*
X103035000Y-99426665D01*
X102979853Y-99149426D01*
X102871680Y-98888273D01*
X102714637Y-98653241D01*
X102514759Y-98453363D01*
X102282241Y-98298000D01*
X102514759Y-98142637D01*
X102714637Y-97942759D01*
X102871680Y-97707727D01*
X102979853Y-97446574D01*
X103010666Y-97291666D01*
X111283001Y-105564001D01*
X111283000Y-121618814D01*
X111272774Y-121643502D01*
X111233000Y-121843461D01*
X111233000Y-122047339D01*
X111272774Y-122247298D01*
X111350795Y-122435656D01*
X111464063Y-122605174D01*
X111608226Y-122749337D01*
X111777744Y-122862605D01*
X111966102Y-122940626D01*
X112166061Y-122980400D01*
X112369939Y-122980400D01*
X112569898Y-122940626D01*
X112594586Y-122930400D01*
X119407820Y-122930400D01*
X119456200Y-122935165D01*
X119504580Y-122930400D01*
X119649294Y-122916147D01*
X119834967Y-122859824D01*
X120006084Y-122768360D01*
X120156070Y-122645270D01*
X120186916Y-122607684D01*
X120950469Y-121844131D01*
X120975156Y-121833905D01*
X121144674Y-121720637D01*
X121288837Y-121576474D01*
X121402105Y-121406956D01*
X121480126Y-121218598D01*
X121519900Y-121018639D01*
X121519900Y-120814761D01*
X121480126Y-120614802D01*
X121469900Y-120590114D01*
X121469900Y-111698100D01*
X123655569Y-109512431D01*
X123680256Y-109502205D01*
X123849774Y-109388937D01*
X123993937Y-109244774D01*
X124107205Y-109075256D01*
X124185226Y-108886898D01*
X124225000Y-108686939D01*
X124225000Y-108483061D01*
X124185226Y-108283102D01*
X124107205Y-108094744D01*
X123993937Y-107925226D01*
X123849774Y-107781063D01*
X123680256Y-107667795D01*
X123491898Y-107589774D01*
X123291939Y-107550000D01*
X123088061Y-107550000D01*
X122888102Y-107589774D01*
X122699744Y-107667795D01*
X122530226Y-107781063D01*
X122386063Y-107925226D01*
X122272795Y-108094744D01*
X122262569Y-108119431D01*
X119822611Y-110559389D01*
X119785031Y-110590230D01*
X119661941Y-110740216D01*
X119613052Y-110831681D01*
X119570476Y-110911334D01*
X119514153Y-111097007D01*
X119495135Y-111290100D01*
X119499901Y-111338490D01*
X119499900Y-120508700D01*
X119048200Y-120960400D01*
X113253000Y-120960400D01*
X113253000Y-105204379D01*
X113257765Y-105155999D01*
X113238747Y-104962905D01*
X113225638Y-104919691D01*
X113182424Y-104777233D01*
X113090960Y-104606116D01*
X112967870Y-104456130D01*
X112930284Y-104425284D01*
X107931665Y-99426665D01*
X115405000Y-99426665D01*
X115405000Y-99709335D01*
X115460147Y-99986574D01*
X115568320Y-100247727D01*
X115725363Y-100482759D01*
X115925241Y-100682637D01*
X116157759Y-100838000D01*
X115925241Y-100993363D01*
X115725363Y-101193241D01*
X115568320Y-101428273D01*
X115460147Y-101689426D01*
X115405000Y-101966665D01*
X115405000Y-102249335D01*
X115460147Y-102526574D01*
X115568320Y-102787727D01*
X115725363Y-103022759D01*
X115925241Y-103222637D01*
X116157759Y-103378000D01*
X115925241Y-103533363D01*
X115725363Y-103733241D01*
X115568320Y-103968273D01*
X115460147Y-104229426D01*
X115405000Y-104506665D01*
X115405000Y-104789335D01*
X115460147Y-105066574D01*
X115568320Y-105327727D01*
X115725363Y-105562759D01*
X115925241Y-105762637D01*
X116157759Y-105918000D01*
X115925241Y-106073363D01*
X115725363Y-106273241D01*
X115568320Y-106508273D01*
X115460147Y-106769426D01*
X115405000Y-107046665D01*
X115405000Y-107329335D01*
X115460147Y-107606574D01*
X115568320Y-107867727D01*
X115725363Y-108102759D01*
X115925241Y-108302637D01*
X116157759Y-108458000D01*
X115925241Y-108613363D01*
X115725363Y-108813241D01*
X115568320Y-109048273D01*
X115460147Y-109309426D01*
X115405000Y-109586665D01*
X115405000Y-109869335D01*
X115460147Y-110146574D01*
X115568320Y-110407727D01*
X115725363Y-110642759D01*
X115925241Y-110842637D01*
X116157759Y-110998000D01*
X115925241Y-111153363D01*
X115725363Y-111353241D01*
X115568320Y-111588273D01*
X115460147Y-111849426D01*
X115405000Y-112126665D01*
X115405000Y-112409335D01*
X115460147Y-112686574D01*
X115568320Y-112947727D01*
X115725363Y-113182759D01*
X115925241Y-113382637D01*
X116157759Y-113538000D01*
X115925241Y-113693363D01*
X115725363Y-113893241D01*
X115568320Y-114128273D01*
X115460147Y-114389426D01*
X115405000Y-114666665D01*
X115405000Y-114949335D01*
X115460147Y-115226574D01*
X115568320Y-115487727D01*
X115725363Y-115722759D01*
X115925241Y-115922637D01*
X116157759Y-116078000D01*
X115925241Y-116233363D01*
X115725363Y-116433241D01*
X115568320Y-116668273D01*
X115460147Y-116929426D01*
X115405000Y-117206665D01*
X115405000Y-117489335D01*
X115460147Y-117766574D01*
X115568320Y-118027727D01*
X115725363Y-118262759D01*
X115925241Y-118462637D01*
X116160273Y-118619680D01*
X116421426Y-118727853D01*
X116698665Y-118783000D01*
X116981335Y-118783000D01*
X117258574Y-118727853D01*
X117519727Y-118619680D01*
X117754759Y-118462637D01*
X117954637Y-118262759D01*
X118111680Y-118027727D01*
X118219853Y-117766574D01*
X118275000Y-117489335D01*
X118275000Y-117206665D01*
X118219853Y-116929426D01*
X118111680Y-116668273D01*
X117954637Y-116433241D01*
X117754759Y-116233363D01*
X117522241Y-116078000D01*
X117754759Y-115922637D01*
X117954637Y-115722759D01*
X118111680Y-115487727D01*
X118219853Y-115226574D01*
X118275000Y-114949335D01*
X118275000Y-114666665D01*
X118219853Y-114389426D01*
X118111680Y-114128273D01*
X117954637Y-113893241D01*
X117754759Y-113693363D01*
X117522241Y-113538000D01*
X117754759Y-113382637D01*
X117954637Y-113182759D01*
X118111680Y-112947727D01*
X118219853Y-112686574D01*
X118275000Y-112409335D01*
X118275000Y-112126665D01*
X118219853Y-111849426D01*
X118111680Y-111588273D01*
X117954637Y-111353241D01*
X117754759Y-111153363D01*
X117522241Y-110998000D01*
X117754759Y-110842637D01*
X117954637Y-110642759D01*
X118111680Y-110407727D01*
X118219853Y-110146574D01*
X118275000Y-109869335D01*
X118275000Y-109586665D01*
X118219853Y-109309426D01*
X118111680Y-109048273D01*
X117954637Y-108813241D01*
X117754759Y-108613363D01*
X117522241Y-108458000D01*
X117754759Y-108302637D01*
X117954637Y-108102759D01*
X118111680Y-107867727D01*
X118219853Y-107606574D01*
X118275000Y-107329335D01*
X118275000Y-107046665D01*
X118219853Y-106769426D01*
X118111680Y-106508273D01*
X117954637Y-106273241D01*
X117754759Y-106073363D01*
X117522241Y-105918000D01*
X117754759Y-105762637D01*
X117954637Y-105562759D01*
X118111680Y-105327727D01*
X118219853Y-105066574D01*
X118275000Y-104789335D01*
X118275000Y-104506665D01*
X118219853Y-104229426D01*
X118111680Y-103968273D01*
X117954637Y-103733241D01*
X117754759Y-103533363D01*
X117522241Y-103378000D01*
X117754759Y-103222637D01*
X117954637Y-103022759D01*
X118111680Y-102787727D01*
X118219853Y-102526574D01*
X118275000Y-102249335D01*
X118275000Y-101966665D01*
X118219853Y-101689426D01*
X118111680Y-101428273D01*
X117954637Y-101193241D01*
X117754759Y-100993363D01*
X117522241Y-100838000D01*
X117754759Y-100682637D01*
X117954637Y-100482759D01*
X118111680Y-100247727D01*
X118219853Y-99986574D01*
X118275000Y-99709335D01*
X118275000Y-99426665D01*
X118219853Y-99149426D01*
X118111680Y-98888273D01*
X117954637Y-98653241D01*
X117754759Y-98453363D01*
X117519727Y-98296320D01*
X117509135Y-98291933D01*
X117695131Y-98180385D01*
X117903519Y-97991414D01*
X118071037Y-97765420D01*
X118191246Y-97511087D01*
X118231904Y-97377039D01*
X118109915Y-97155000D01*
X116967000Y-97155000D01*
X116967000Y-97175000D01*
X116713000Y-97175000D01*
X116713000Y-97155000D01*
X115570085Y-97155000D01*
X115448096Y-97377039D01*
X115488754Y-97511087D01*
X115608963Y-97765420D01*
X115776481Y-97991414D01*
X115984869Y-98180385D01*
X116170865Y-98291933D01*
X116160273Y-98296320D01*
X115925241Y-98453363D01*
X115725363Y-98653241D01*
X115568320Y-98888273D01*
X115460147Y-99149426D01*
X115405000Y-99426665D01*
X107931665Y-99426665D01*
X103035000Y-94530000D01*
X103035000Y-94446001D01*
X103612291Y-93868710D01*
X103649871Y-93837869D01*
X103772961Y-93687883D01*
X103864425Y-93516766D01*
X103920748Y-93331093D01*
X103935001Y-93186379D01*
X103939766Y-93137999D01*
X103935001Y-93089619D01*
X103935001Y-81387997D01*
X115564498Y-69758500D01*
X115568320Y-69767727D01*
X115725363Y-70002759D01*
X115925241Y-70202637D01*
X116157759Y-70358000D01*
X115925241Y-70513363D01*
X115725363Y-70713241D01*
X115568320Y-70948273D01*
X115460147Y-71209426D01*
X115405000Y-71486665D01*
X115405000Y-71769335D01*
X115460147Y-72046574D01*
X115568320Y-72307727D01*
X115725363Y-72542759D01*
X115925241Y-72742637D01*
X116157759Y-72898000D01*
X115925241Y-73053363D01*
X115725363Y-73253241D01*
X115568320Y-73488273D01*
X115460147Y-73749426D01*
X115405000Y-74026665D01*
X115405000Y-74309335D01*
X115460147Y-74586574D01*
X115568320Y-74847727D01*
X115725363Y-75082759D01*
X115925241Y-75282637D01*
X116157759Y-75438000D01*
X115925241Y-75593363D01*
X115725363Y-75793241D01*
X115568320Y-76028273D01*
X115460147Y-76289426D01*
X115405000Y-76566665D01*
X115405000Y-76849335D01*
X115460147Y-77126574D01*
X115568320Y-77387727D01*
X115725363Y-77622759D01*
X115925241Y-77822637D01*
X116157759Y-77978000D01*
X115925241Y-78133363D01*
X115725363Y-78333241D01*
X115568320Y-78568273D01*
X115460147Y-78829426D01*
X115405000Y-79106665D01*
X115405000Y-79389335D01*
X115460147Y-79666574D01*
X115568320Y-79927727D01*
X115725363Y-80162759D01*
X115925241Y-80362637D01*
X116157759Y-80518000D01*
X115925241Y-80673363D01*
X115725363Y-80873241D01*
X115568320Y-81108273D01*
X115460147Y-81369426D01*
X115405000Y-81646665D01*
X115405000Y-81929335D01*
X115460147Y-82206574D01*
X115568320Y-82467727D01*
X115725363Y-82702759D01*
X115925241Y-82902637D01*
X116157759Y-83058000D01*
X115925241Y-83213363D01*
X115725363Y-83413241D01*
X115568320Y-83648273D01*
X115460147Y-83909426D01*
X115405000Y-84186665D01*
X115405000Y-84469335D01*
X115460147Y-84746574D01*
X115568320Y-85007727D01*
X115725363Y-85242759D01*
X115925241Y-85442637D01*
X116157759Y-85598000D01*
X115925241Y-85753363D01*
X115725363Y-85953241D01*
X115568320Y-86188273D01*
X115460147Y-86449426D01*
X115405000Y-86726665D01*
X115405000Y-87009335D01*
X115460147Y-87286574D01*
X115568320Y-87547727D01*
X115725363Y-87782759D01*
X115925241Y-87982637D01*
X116157759Y-88138000D01*
X115925241Y-88293363D01*
X115725363Y-88493241D01*
X115568320Y-88728273D01*
X115460147Y-88989426D01*
X115405000Y-89266665D01*
X115405000Y-89549335D01*
X115460147Y-89826574D01*
X115568320Y-90087727D01*
X115725363Y-90322759D01*
X115925241Y-90522637D01*
X116157759Y-90678000D01*
X115925241Y-90833363D01*
X115725363Y-91033241D01*
X115568320Y-91268273D01*
X115460147Y-91529426D01*
X115405000Y-91806665D01*
X115405000Y-92089335D01*
X115460147Y-92366574D01*
X115568320Y-92627727D01*
X115725363Y-92862759D01*
X115925241Y-93062637D01*
X116157759Y-93218000D01*
X115925241Y-93373363D01*
X115725363Y-93573241D01*
X115568320Y-93808273D01*
X115460147Y-94069426D01*
X115405000Y-94346665D01*
X115405000Y-94629335D01*
X115460147Y-94906574D01*
X115568320Y-95167727D01*
X115725363Y-95402759D01*
X115925241Y-95602637D01*
X116160273Y-95759680D01*
X116170865Y-95764067D01*
X115984869Y-95875615D01*
X115776481Y-96064586D01*
X115608963Y-96290580D01*
X115488754Y-96544913D01*
X115448096Y-96678961D01*
X115570085Y-96901000D01*
X116713000Y-96901000D01*
X116713000Y-96881000D01*
X116967000Y-96881000D01*
X116967000Y-96901000D01*
X118109915Y-96901000D01*
X118231904Y-96678961D01*
X118191246Y-96544913D01*
X118071037Y-96290580D01*
X117903519Y-96064586D01*
X117695131Y-95875615D01*
X117509135Y-95764067D01*
X117519727Y-95759680D01*
X117754759Y-95602637D01*
X117954637Y-95402759D01*
X118111680Y-95167727D01*
X118219853Y-94906574D01*
X118275000Y-94629335D01*
X118275000Y-94346665D01*
X118219853Y-94069426D01*
X118111680Y-93808273D01*
X117954637Y-93573241D01*
X117754759Y-93373363D01*
X117522241Y-93218000D01*
X117754759Y-93062637D01*
X117954637Y-92862759D01*
X118111680Y-92627727D01*
X118219853Y-92366574D01*
X118275000Y-92089335D01*
X118275000Y-91806665D01*
X118219853Y-91529426D01*
X118111680Y-91268273D01*
X117954637Y-91033241D01*
X117754759Y-90833363D01*
X117522241Y-90678000D01*
X117754759Y-90522637D01*
X117954637Y-90322759D01*
X118111680Y-90087727D01*
X118219853Y-89826574D01*
X118275000Y-89549335D01*
X118275000Y-89266665D01*
X118219853Y-88989426D01*
X118111680Y-88728273D01*
X117954637Y-88493241D01*
X117754759Y-88293363D01*
X117522241Y-88138000D01*
X117754759Y-87982637D01*
X117954637Y-87782759D01*
X118111680Y-87547727D01*
X118219853Y-87286574D01*
X118275000Y-87009335D01*
X118275000Y-86726665D01*
X118219853Y-86449426D01*
X118111680Y-86188273D01*
X117954637Y-85953241D01*
X117754759Y-85753363D01*
X117522241Y-85598000D01*
X117754759Y-85442637D01*
X117954637Y-85242759D01*
X118111680Y-85007727D01*
X118219853Y-84746574D01*
X118275000Y-84469335D01*
X118275000Y-84186665D01*
X118219853Y-83909426D01*
X118111680Y-83648273D01*
X117954637Y-83413241D01*
X117754759Y-83213363D01*
X117522241Y-83058000D01*
X117754759Y-82902637D01*
X117954637Y-82702759D01*
X118111680Y-82467727D01*
X118219853Y-82206574D01*
X118275000Y-81929335D01*
X118275000Y-81646665D01*
X118219853Y-81369426D01*
X118111680Y-81108273D01*
X117954637Y-80873241D01*
X117754759Y-80673363D01*
X117522241Y-80518000D01*
X117754759Y-80362637D01*
X117954637Y-80162759D01*
X118111680Y-79927727D01*
X118219853Y-79666574D01*
X118275000Y-79389335D01*
X118275000Y-79106665D01*
X118219853Y-78829426D01*
X118111680Y-78568273D01*
X117954637Y-78333241D01*
X117754759Y-78133363D01*
X117522241Y-77978000D01*
X117754759Y-77822637D01*
X117954637Y-77622759D01*
X118111680Y-77387727D01*
X118219853Y-77126574D01*
X118275000Y-76849335D01*
X118275000Y-76566665D01*
X118219853Y-76289426D01*
X118111680Y-76028273D01*
X117954637Y-75793241D01*
X117754759Y-75593363D01*
X117522241Y-75438000D01*
X117754759Y-75282637D01*
X117954637Y-75082759D01*
X118111680Y-74847727D01*
X118219853Y-74586574D01*
X118275000Y-74309335D01*
X118275000Y-74026665D01*
X118219853Y-73749426D01*
X118111680Y-73488273D01*
X117954637Y-73253241D01*
X117754759Y-73053363D01*
X117522241Y-72898000D01*
X117754759Y-72742637D01*
X117954637Y-72542759D01*
X118111680Y-72307727D01*
X118219853Y-72046574D01*
X118275000Y-71769335D01*
X118275000Y-71486665D01*
X118219853Y-71209426D01*
X118111680Y-70948273D01*
X117954637Y-70713241D01*
X117754759Y-70513363D01*
X117522241Y-70358000D01*
X117754759Y-70202637D01*
X117954637Y-70002759D01*
X118111680Y-69767727D01*
X118219853Y-69506574D01*
X118275000Y-69229335D01*
X118275000Y-68946665D01*
X118230509Y-68722999D01*
X121308399Y-68722999D01*
X123818899Y-71233499D01*
X120843499Y-71233499D01*
X120793537Y-71158726D01*
X120649374Y-71014563D01*
X120479856Y-70901295D01*
X120291498Y-70823274D01*
X120091539Y-70783500D01*
X119887661Y-70783500D01*
X119687702Y-70823274D01*
X119499344Y-70901295D01*
X119329826Y-71014563D01*
X119185663Y-71158726D01*
X119072395Y-71328244D01*
X118994374Y-71516602D01*
X118954600Y-71716561D01*
X118954600Y-71920439D01*
X118994374Y-72120398D01*
X119072395Y-72308756D01*
X119185663Y-72478274D01*
X119329826Y-72622437D01*
X119499344Y-72735705D01*
X119524032Y-72745931D01*
X119658879Y-72880779D01*
X119689729Y-72918369D01*
X119839715Y-73041459D01*
X120010832Y-73132923D01*
X120196505Y-73189246D01*
X120389598Y-73208264D01*
X120437978Y-73203499D01*
X127681921Y-73203499D01*
X127730301Y-73208264D01*
X127778681Y-73203499D01*
X127923395Y-73189246D01*
X128109068Y-73132923D01*
X128280185Y-73041459D01*
X128430171Y-72918369D01*
X128461018Y-72880782D01*
X128627480Y-72714319D01*
X128665070Y-72683470D01*
X128788160Y-72533484D01*
X128879624Y-72362367D01*
X128929707Y-72197266D01*
X128935947Y-72176695D01*
X128954965Y-71983601D01*
X128950200Y-71935221D01*
X128950200Y-67166686D01*
X128960426Y-67141998D01*
X129000200Y-66942039D01*
X129000200Y-66738161D01*
X128960426Y-66538202D01*
X128882405Y-66349844D01*
X128769137Y-66180326D01*
X128624974Y-66036163D01*
X128455456Y-65922895D01*
X128433631Y-65913855D01*
X128311884Y-65813940D01*
X128140767Y-65722476D01*
X127955094Y-65666153D01*
X127810380Y-65651900D01*
X127762000Y-65647135D01*
X127713620Y-65651900D01*
X97240286Y-65651900D01*
X97215598Y-65641674D01*
X97015639Y-65601900D01*
X96811761Y-65601900D01*
X96611802Y-65641674D01*
X96423444Y-65719695D01*
X96253926Y-65832963D01*
X96109763Y-65977126D01*
X95996495Y-66146644D01*
X95986269Y-66171331D01*
X92733800Y-69423800D01*
X88223286Y-69423800D01*
X88198598Y-69413574D01*
X87998639Y-69373800D01*
X87794761Y-69373800D01*
X87594802Y-69413574D01*
X87406444Y-69491595D01*
X87236926Y-69604863D01*
X87092763Y-69749026D01*
X86979495Y-69918544D01*
X86969269Y-69943231D01*
X86929612Y-69982888D01*
X86892031Y-70013730D01*
X86768941Y-70163716D01*
X86741152Y-70215706D01*
X86677476Y-70334834D01*
X86621153Y-70520507D01*
X86602135Y-70713600D01*
X86606901Y-70761990D01*
X86606900Y-74324014D01*
X86596674Y-74348702D01*
X86556900Y-74548661D01*
X86556900Y-74752539D01*
X86596674Y-74952498D01*
X86674695Y-75140856D01*
X86787963Y-75310374D01*
X86932126Y-75454537D01*
X87101644Y-75567805D01*
X87290002Y-75645826D01*
X87489961Y-75685600D01*
X87693839Y-75685600D01*
X87893798Y-75645826D01*
X88082156Y-75567805D01*
X88251674Y-75454537D01*
X88395837Y-75310374D01*
X88509105Y-75140856D01*
X88587126Y-74952498D01*
X88626900Y-74752539D01*
X88626900Y-74548661D01*
X88587126Y-74348702D01*
X88576900Y-74324014D01*
X88576900Y-71393800D01*
X93093420Y-71393800D01*
X93141800Y-71398565D01*
X93190180Y-71393800D01*
X93334894Y-71379547D01*
X93520567Y-71323224D01*
X93691684Y-71231760D01*
X93841670Y-71108670D01*
X93872516Y-71071084D01*
X97321700Y-67621900D01*
X114915098Y-67621900D01*
X103007025Y-79529973D01*
X103035000Y-79389335D01*
X103035000Y-79106665D01*
X102979853Y-78829426D01*
X102871680Y-78568273D01*
X102714637Y-78333241D01*
X102514759Y-78133363D01*
X102282241Y-77978000D01*
X102514759Y-77822637D01*
X102714637Y-77622759D01*
X102871680Y-77387727D01*
X102979853Y-77126574D01*
X103035000Y-76849335D01*
X103035000Y-76566665D01*
X102979853Y-76289426D01*
X102871680Y-76028273D01*
X102714637Y-75793241D01*
X102514759Y-75593363D01*
X102282241Y-75438000D01*
X102514759Y-75282637D01*
X102714637Y-75082759D01*
X102871680Y-74847727D01*
X102979853Y-74586574D01*
X103035000Y-74309335D01*
X103035000Y-74026665D01*
X102979853Y-73749426D01*
X102871680Y-73488273D01*
X102714637Y-73253241D01*
X102514759Y-73053363D01*
X102282241Y-72898000D01*
X102514759Y-72742637D01*
X102714637Y-72542759D01*
X102871680Y-72307727D01*
X102979853Y-72046574D01*
X103035000Y-71769335D01*
X103035000Y-71486665D01*
X102979853Y-71209426D01*
X102871680Y-70948273D01*
X102714637Y-70713241D01*
X102516039Y-70514643D01*
X102524482Y-70513812D01*
X102644180Y-70477502D01*
X102754494Y-70418537D01*
X102851185Y-70339185D01*
X102930537Y-70242494D01*
X102989502Y-70132180D01*
X103025812Y-70012482D01*
X103038072Y-69888000D01*
X103038072Y-68288000D01*
X103025812Y-68163518D01*
X102989502Y-68043820D01*
X102930537Y-67933506D01*
X102851185Y-67836815D01*
X102754494Y-67757463D01*
X102644180Y-67698498D01*
X102524482Y-67662188D01*
X102400000Y-67649928D01*
X100800000Y-67649928D01*
X100675518Y-67662188D01*
X100555820Y-67698498D01*
X100445506Y-67757463D01*
X100348815Y-67836815D01*
X100269463Y-67933506D01*
X100210498Y-68043820D01*
X100174188Y-68163518D01*
X100161928Y-68288000D01*
X100161928Y-69888000D01*
X100174188Y-70012482D01*
X100210498Y-70132180D01*
X100269463Y-70242494D01*
X100348815Y-70339185D01*
X100445506Y-70418537D01*
X100555820Y-70477502D01*
X100675518Y-70513812D01*
X100683961Y-70514643D01*
X100485363Y-70713241D01*
X100328320Y-70948273D01*
X100220147Y-71209426D01*
X100165000Y-71486665D01*
X100165000Y-71769335D01*
X100187809Y-71884000D01*
X93921711Y-71884000D01*
X93877774Y-71840063D01*
X93708256Y-71726795D01*
X93519898Y-71648774D01*
X93319939Y-71609000D01*
X93116061Y-71609000D01*
X92916102Y-71648774D01*
X92727744Y-71726795D01*
X92558226Y-71840063D01*
X92414063Y-71984226D01*
X92300795Y-72153744D01*
X92222774Y-72342102D01*
X92183000Y-72542061D01*
X92183000Y-72745939D01*
X92222774Y-72945898D01*
X92300795Y-73134256D01*
X92414063Y-73303774D01*
X92558226Y-73447937D01*
X92727744Y-73561205D01*
X92916102Y-73639226D01*
X93116061Y-73679000D01*
X93319939Y-73679000D01*
X93519898Y-73639226D01*
X93708256Y-73561205D01*
X93877774Y-73447937D01*
X93921711Y-73404000D01*
X100384629Y-73404000D01*
X100381957Y-73408000D01*
X95541322Y-73408000D01*
X95503999Y-73404324D01*
X95466676Y-73408000D01*
X95466667Y-73408000D01*
X95355014Y-73418997D01*
X95211753Y-73462454D01*
X95079724Y-73533026D01*
X94963999Y-73627999D01*
X94940201Y-73656997D01*
X93178199Y-75419000D01*
X93116061Y-75419000D01*
X92916102Y-75458774D01*
X92727744Y-75536795D01*
X92558226Y-75650063D01*
X92414063Y-75794226D01*
X92300795Y-75963744D01*
X92222774Y-76152102D01*
X92183000Y-76352061D01*
X92183000Y-76555939D01*
X92222774Y-76755898D01*
X92300795Y-76944256D01*
X92414063Y-77113774D01*
X92558226Y-77257937D01*
X92727744Y-77371205D01*
X92916102Y-77449226D01*
X93116061Y-77489000D01*
X93319939Y-77489000D01*
X93519898Y-77449226D01*
X93708256Y-77371205D01*
X93877774Y-77257937D01*
X94021937Y-77113774D01*
X94135205Y-76944256D01*
X94213226Y-76755898D01*
X94253000Y-76555939D01*
X94253000Y-76493801D01*
X95818802Y-74928000D01*
X100381957Y-74928000D01*
X100485363Y-75082759D01*
X100685241Y-75282637D01*
X100917759Y-75438000D01*
X100685241Y-75593363D01*
X100485363Y-75793241D01*
X100328320Y-76028273D01*
X100220147Y-76289426D01*
X100165000Y-76566665D01*
X100165000Y-76849335D01*
X100220147Y-77126574D01*
X100328320Y-77387727D01*
X100485363Y-77622759D01*
X100685241Y-77822637D01*
X100917759Y-77978000D01*
X100685241Y-78133363D01*
X100485363Y-78333241D01*
X100328320Y-78568273D01*
X100220147Y-78829426D01*
X100165000Y-79106665D01*
X100165000Y-79389335D01*
X100220147Y-79666574D01*
X100328320Y-79927727D01*
X100485363Y-80162759D01*
X100685241Y-80362637D01*
X100917759Y-80518000D01*
X100685241Y-80673363D01*
X100485363Y-80873241D01*
X100328320Y-81108273D01*
X100220147Y-81369426D01*
X100165000Y-81646665D01*
X100165000Y-81929335D01*
X100220147Y-82206574D01*
X100328320Y-82467727D01*
X100485363Y-82702759D01*
X100685241Y-82902637D01*
X100917759Y-83058000D01*
X100685241Y-83213363D01*
X100485363Y-83413241D01*
X100328320Y-83648273D01*
X100220147Y-83909426D01*
X100165000Y-84186665D01*
X100165000Y-84469335D01*
X100220147Y-84746574D01*
X100328320Y-85007727D01*
X100485363Y-85242759D01*
X100685241Y-85442637D01*
X100917759Y-85598000D01*
X100685241Y-85753363D01*
X100485363Y-85953241D01*
X100328320Y-86188273D01*
X100220147Y-86449426D01*
X100165000Y-86726665D01*
X100165000Y-87009335D01*
X100220147Y-87286574D01*
X100328320Y-87547727D01*
X100485363Y-87782759D01*
X100598404Y-87895800D01*
X94256300Y-87895800D01*
X97633271Y-84518830D01*
X97657956Y-84508605D01*
X97827474Y-84395337D01*
X97971637Y-84251174D01*
X98084905Y-84081656D01*
X98162926Y-83893298D01*
X98202700Y-83693339D01*
X98202700Y-83489461D01*
X98162926Y-83289502D01*
X98084905Y-83101144D01*
X97971637Y-82931626D01*
X97827474Y-82787463D01*
X97657956Y-82674195D01*
X97469598Y-82596174D01*
X97269639Y-82556400D01*
X97065761Y-82556400D01*
X96865802Y-82596174D01*
X96677444Y-82674195D01*
X96507926Y-82787463D01*
X96363763Y-82931626D01*
X96250495Y-83101144D01*
X96240270Y-83125829D01*
X92652800Y-86713300D01*
X89031286Y-86713300D01*
X89006598Y-86703074D01*
X88806639Y-86663300D01*
X88602761Y-86663300D01*
X88402802Y-86703074D01*
X88214444Y-86781095D01*
X88170500Y-86810457D01*
X88170500Y-85857298D01*
X96754698Y-77273100D01*
X96888639Y-77273100D01*
X97088598Y-77233326D01*
X97276956Y-77155305D01*
X97446474Y-77042037D01*
X97590637Y-76897874D01*
X97703905Y-76728356D01*
X97781926Y-76539998D01*
X97821700Y-76340039D01*
X97821700Y-76136161D01*
X97781926Y-75936202D01*
X97703905Y-75747844D01*
X97590637Y-75578326D01*
X97446474Y-75434163D01*
X97276956Y-75320895D01*
X97088598Y-75242874D01*
X96888639Y-75203100D01*
X96684761Y-75203100D01*
X96484802Y-75242874D01*
X96460114Y-75253100D01*
X96445077Y-75253100D01*
X96396697Y-75248335D01*
X96203604Y-75267353D01*
X96017931Y-75323676D01*
X95846814Y-75415140D01*
X95696828Y-75538230D01*
X95665982Y-75575816D01*
X86523211Y-84718587D01*
X86485631Y-84749428D01*
X86362541Y-84899414D01*
X86349977Y-84922920D01*
X86271076Y-85070532D01*
X86214753Y-85256205D01*
X86195735Y-85449298D01*
X86200501Y-85497688D01*
X86200500Y-97777879D01*
X86091320Y-97810998D01*
X85981006Y-97869963D01*
X85884315Y-97949315D01*
X85804963Y-98046006D01*
X85745998Y-98156320D01*
X85709688Y-98276018D01*
X85697428Y-98400500D01*
X75660000Y-98400500D01*
X75660000Y-85167100D01*
X77582128Y-85167100D01*
X77582128Y-86867100D01*
X77594388Y-86991582D01*
X77630698Y-87111280D01*
X77689663Y-87221594D01*
X77769015Y-87318285D01*
X77865706Y-87397637D01*
X77976020Y-87456602D01*
X78095718Y-87492912D01*
X78220200Y-87505172D01*
X79920200Y-87505172D01*
X80044682Y-87492912D01*
X80164380Y-87456602D01*
X80274694Y-87397637D01*
X80371385Y-87318285D01*
X80450737Y-87221594D01*
X80509702Y-87111280D01*
X80546012Y-86991582D01*
X80558272Y-86867100D01*
X80558272Y-85167100D01*
X80546012Y-85042618D01*
X80509702Y-84922920D01*
X80450737Y-84812606D01*
X80371385Y-84715915D01*
X80274694Y-84636563D01*
X80164380Y-84577598D01*
X80091820Y-84555587D01*
X80223675Y-84423732D01*
X80386190Y-84180511D01*
X80498132Y-83910258D01*
X80555200Y-83623360D01*
X80555200Y-83330840D01*
X80498132Y-83043942D01*
X80386190Y-82773689D01*
X80223675Y-82530468D01*
X80016832Y-82323625D01*
X79842440Y-82207100D01*
X80016832Y-82090575D01*
X80223675Y-81883732D01*
X80386190Y-81640511D01*
X80498132Y-81370258D01*
X80555200Y-81083360D01*
X80555200Y-80790840D01*
X80498132Y-80503942D01*
X80386190Y-80233689D01*
X80223675Y-79990468D01*
X80016832Y-79783625D01*
X79842440Y-79667100D01*
X80016832Y-79550575D01*
X80223675Y-79343732D01*
X80386190Y-79100511D01*
X80498132Y-78830258D01*
X80555200Y-78543360D01*
X80555200Y-78250840D01*
X80498132Y-77963942D01*
X80386190Y-77693689D01*
X80223675Y-77450468D01*
X80016832Y-77243625D01*
X79842440Y-77127100D01*
X80016832Y-77010575D01*
X80223675Y-76803732D01*
X80386190Y-76560511D01*
X80498132Y-76290258D01*
X80555200Y-76003360D01*
X80555200Y-75710840D01*
X80498132Y-75423942D01*
X80386190Y-75153689D01*
X80223675Y-74910468D01*
X80016832Y-74703625D01*
X79842440Y-74587100D01*
X80016832Y-74470575D01*
X80223675Y-74263732D01*
X80386190Y-74020511D01*
X80498132Y-73750258D01*
X80555200Y-73463360D01*
X80555200Y-73170840D01*
X80498132Y-72883942D01*
X80386190Y-72613689D01*
X80223675Y-72370468D01*
X80016832Y-72163625D01*
X79842440Y-72047100D01*
X80016832Y-71930575D01*
X80223675Y-71723732D01*
X80386190Y-71480511D01*
X80498132Y-71210258D01*
X80555200Y-70923360D01*
X80555200Y-70630840D01*
X80498132Y-70343942D01*
X80386190Y-70073689D01*
X80223675Y-69830468D01*
X80016832Y-69623625D01*
X79842440Y-69507100D01*
X80016832Y-69390575D01*
X80223675Y-69183732D01*
X80386190Y-68940511D01*
X80498132Y-68670258D01*
X80555200Y-68383360D01*
X80555200Y-68090840D01*
X80498132Y-67803942D01*
X80386190Y-67533689D01*
X80305215Y-67412500D01*
X81442928Y-67412500D01*
X81442928Y-69112500D01*
X81455188Y-69236982D01*
X81491498Y-69356680D01*
X81550463Y-69466994D01*
X81629815Y-69563685D01*
X81726506Y-69643037D01*
X81836820Y-69702002D01*
X81909380Y-69724013D01*
X81777525Y-69855868D01*
X81615010Y-70099089D01*
X81503068Y-70369342D01*
X81446000Y-70656240D01*
X81446000Y-70948760D01*
X81503068Y-71235658D01*
X81615010Y-71505911D01*
X81777525Y-71749132D01*
X81984368Y-71955975D01*
X82158760Y-72072500D01*
X81984368Y-72189025D01*
X81777525Y-72395868D01*
X81615010Y-72639089D01*
X81503068Y-72909342D01*
X81446000Y-73196240D01*
X81446000Y-73488760D01*
X81503068Y-73775658D01*
X81615010Y-74045911D01*
X81777525Y-74289132D01*
X81984368Y-74495975D01*
X82158760Y-74612500D01*
X81984368Y-74729025D01*
X81777525Y-74935868D01*
X81615010Y-75179089D01*
X81503068Y-75449342D01*
X81446000Y-75736240D01*
X81446000Y-76028760D01*
X81503068Y-76315658D01*
X81615010Y-76585911D01*
X81777525Y-76829132D01*
X81984368Y-77035975D01*
X82158760Y-77152500D01*
X81984368Y-77269025D01*
X81777525Y-77475868D01*
X81615010Y-77719089D01*
X81503068Y-77989342D01*
X81446000Y-78276240D01*
X81446000Y-78568760D01*
X81503068Y-78855658D01*
X81615010Y-79125911D01*
X81777525Y-79369132D01*
X81984368Y-79575975D01*
X82158760Y-79692500D01*
X81984368Y-79809025D01*
X81777525Y-80015868D01*
X81615010Y-80259089D01*
X81503068Y-80529342D01*
X81446000Y-80816240D01*
X81446000Y-81108760D01*
X81503068Y-81395658D01*
X81615010Y-81665911D01*
X81777525Y-81909132D01*
X81984368Y-82115975D01*
X82158760Y-82232500D01*
X81984368Y-82349025D01*
X81777525Y-82555868D01*
X81615010Y-82799089D01*
X81503068Y-83069342D01*
X81446000Y-83356240D01*
X81446000Y-83648760D01*
X81503068Y-83935658D01*
X81615010Y-84205911D01*
X81777525Y-84449132D01*
X81984368Y-84655975D01*
X82158760Y-84772500D01*
X81984368Y-84889025D01*
X81777525Y-85095868D01*
X81615010Y-85339089D01*
X81503068Y-85609342D01*
X81446000Y-85896240D01*
X81446000Y-86188760D01*
X81503068Y-86475658D01*
X81615010Y-86745911D01*
X81777525Y-86989132D01*
X81984368Y-87195975D01*
X82227589Y-87358490D01*
X82497842Y-87470432D01*
X82784740Y-87527500D01*
X83077260Y-87527500D01*
X83364158Y-87470432D01*
X83634411Y-87358490D01*
X83877632Y-87195975D01*
X84084475Y-86989132D01*
X84246990Y-86745911D01*
X84358932Y-86475658D01*
X84416000Y-86188760D01*
X84416000Y-85896240D01*
X84358932Y-85609342D01*
X84246990Y-85339089D01*
X84084475Y-85095868D01*
X83877632Y-84889025D01*
X83703240Y-84772500D01*
X83877632Y-84655975D01*
X84084475Y-84449132D01*
X84246990Y-84205911D01*
X84358932Y-83935658D01*
X84416000Y-83648760D01*
X84416000Y-83356240D01*
X84358932Y-83069342D01*
X84246990Y-82799089D01*
X84084475Y-82555868D01*
X83877632Y-82349025D01*
X83703240Y-82232500D01*
X83877632Y-82115975D01*
X84084475Y-81909132D01*
X84246990Y-81665911D01*
X84358932Y-81395658D01*
X84416000Y-81108760D01*
X84416000Y-80816240D01*
X84358932Y-80529342D01*
X84246990Y-80259089D01*
X84084475Y-80015868D01*
X83877632Y-79809025D01*
X83703240Y-79692500D01*
X83877632Y-79575975D01*
X84084475Y-79369132D01*
X84246990Y-79125911D01*
X84358932Y-78855658D01*
X84416000Y-78568760D01*
X84416000Y-78276240D01*
X84358932Y-77989342D01*
X84246990Y-77719089D01*
X84084475Y-77475868D01*
X83877632Y-77269025D01*
X83703240Y-77152500D01*
X83877632Y-77035975D01*
X84084475Y-76829132D01*
X84246990Y-76585911D01*
X84358932Y-76315658D01*
X84416000Y-76028760D01*
X84416000Y-75736240D01*
X84358932Y-75449342D01*
X84246990Y-75179089D01*
X84084475Y-74935868D01*
X83877632Y-74729025D01*
X83703240Y-74612500D01*
X83877632Y-74495975D01*
X84084475Y-74289132D01*
X84246990Y-74045911D01*
X84358932Y-73775658D01*
X84416000Y-73488760D01*
X84416000Y-73196240D01*
X84358932Y-72909342D01*
X84246990Y-72639089D01*
X84084475Y-72395868D01*
X83877632Y-72189025D01*
X83703240Y-72072500D01*
X83877632Y-71955975D01*
X84084475Y-71749132D01*
X84246990Y-71505911D01*
X84358932Y-71235658D01*
X84416000Y-70948760D01*
X84416000Y-70656240D01*
X84358932Y-70369342D01*
X84246990Y-70099089D01*
X84084475Y-69855868D01*
X83952620Y-69724013D01*
X84025180Y-69702002D01*
X84135494Y-69643037D01*
X84232185Y-69563685D01*
X84311537Y-69466994D01*
X84370502Y-69356680D01*
X84406812Y-69236982D01*
X84419072Y-69112500D01*
X84419072Y-67412500D01*
X84406812Y-67288018D01*
X84370502Y-67168320D01*
X84311537Y-67058006D01*
X84232185Y-66961315D01*
X84135494Y-66881963D01*
X84025180Y-66822998D01*
X83905482Y-66786688D01*
X83781000Y-66774428D01*
X82081000Y-66774428D01*
X81956518Y-66786688D01*
X81836820Y-66822998D01*
X81726506Y-66881963D01*
X81629815Y-66961315D01*
X81550463Y-67058006D01*
X81491498Y-67168320D01*
X81455188Y-67288018D01*
X81442928Y-67412500D01*
X80305215Y-67412500D01*
X80223675Y-67290468D01*
X80016832Y-67083625D01*
X79773611Y-66921110D01*
X79503358Y-66809168D01*
X79216460Y-66752100D01*
X78923940Y-66752100D01*
X78637042Y-66809168D01*
X78366789Y-66921110D01*
X78123568Y-67083625D01*
X77916725Y-67290468D01*
X77754210Y-67533689D01*
X77642268Y-67803942D01*
X77585200Y-68090840D01*
X77585200Y-68383360D01*
X77642268Y-68670258D01*
X77754210Y-68940511D01*
X77916725Y-69183732D01*
X78123568Y-69390575D01*
X78297960Y-69507100D01*
X78123568Y-69623625D01*
X77916725Y-69830468D01*
X77754210Y-70073689D01*
X77642268Y-70343942D01*
X77585200Y-70630840D01*
X77585200Y-70923360D01*
X77642268Y-71210258D01*
X77754210Y-71480511D01*
X77916725Y-71723732D01*
X78123568Y-71930575D01*
X78297960Y-72047100D01*
X78123568Y-72163625D01*
X77916725Y-72370468D01*
X77754210Y-72613689D01*
X77642268Y-72883942D01*
X77585200Y-73170840D01*
X77585200Y-73463360D01*
X77642268Y-73750258D01*
X77754210Y-74020511D01*
X77916725Y-74263732D01*
X78123568Y-74470575D01*
X78297960Y-74587100D01*
X78123568Y-74703625D01*
X77916725Y-74910468D01*
X77754210Y-75153689D01*
X77642268Y-75423942D01*
X77585200Y-75710840D01*
X77585200Y-76003360D01*
X77642268Y-76290258D01*
X77754210Y-76560511D01*
X77916725Y-76803732D01*
X78123568Y-77010575D01*
X78297960Y-77127100D01*
X78123568Y-77243625D01*
X77916725Y-77450468D01*
X77754210Y-77693689D01*
X77642268Y-77963942D01*
X77585200Y-78250840D01*
X77585200Y-78543360D01*
X77642268Y-78830258D01*
X77754210Y-79100511D01*
X77916725Y-79343732D01*
X78123568Y-79550575D01*
X78297960Y-79667100D01*
X78123568Y-79783625D01*
X77916725Y-79990468D01*
X77754210Y-80233689D01*
X77642268Y-80503942D01*
X77585200Y-80790840D01*
X77585200Y-81083360D01*
X77642268Y-81370258D01*
X77754210Y-81640511D01*
X77916725Y-81883732D01*
X78123568Y-82090575D01*
X78297960Y-82207100D01*
X78123568Y-82323625D01*
X77916725Y-82530468D01*
X77754210Y-82773689D01*
X77642268Y-83043942D01*
X77585200Y-83330840D01*
X77585200Y-83623360D01*
X77642268Y-83910258D01*
X77754210Y-84180511D01*
X77916725Y-84423732D01*
X78048580Y-84555587D01*
X77976020Y-84577598D01*
X77865706Y-84636563D01*
X77769015Y-84715915D01*
X77689663Y-84812606D01*
X77630698Y-84922920D01*
X77594388Y-85042618D01*
X77582128Y-85167100D01*
X75660000Y-85167100D01*
X75660000Y-58718240D01*
X77763000Y-58718240D01*
X77763000Y-59010760D01*
X77820068Y-59297658D01*
X77932010Y-59567911D01*
X78094525Y-59811132D01*
X78301368Y-60017975D01*
X78544589Y-60180490D01*
X78814842Y-60292432D01*
X79101740Y-60349500D01*
X79394260Y-60349500D01*
X79681158Y-60292432D01*
X79951411Y-60180490D01*
X80194632Y-60017975D01*
X80401475Y-59811132D01*
X80518000Y-59636740D01*
X80634525Y-59811132D01*
X80841368Y-60017975D01*
X81084589Y-60180490D01*
X81354842Y-60292432D01*
X81641740Y-60349500D01*
X81934260Y-60349500D01*
X82221158Y-60292432D01*
X82491411Y-60180490D01*
X82734632Y-60017975D01*
X82941475Y-59811132D01*
X83058000Y-59636740D01*
X83174525Y-59811132D01*
X83381368Y-60017975D01*
X83624589Y-60180490D01*
X83894842Y-60292432D01*
X84181740Y-60349500D01*
X84474260Y-60349500D01*
X84761158Y-60292432D01*
X85031411Y-60180490D01*
X85274632Y-60017975D01*
X85481475Y-59811132D01*
X85598000Y-59636740D01*
X85714525Y-59811132D01*
X85921368Y-60017975D01*
X86164589Y-60180490D01*
X86434842Y-60292432D01*
X86721740Y-60349500D01*
X87014260Y-60349500D01*
X87301158Y-60292432D01*
X87571411Y-60180490D01*
X87814632Y-60017975D01*
X88021475Y-59811132D01*
X88138000Y-59636740D01*
X88254525Y-59811132D01*
X88461368Y-60017975D01*
X88704589Y-60180490D01*
X88974842Y-60292432D01*
X89261740Y-60349500D01*
X89554260Y-60349500D01*
X89841158Y-60292432D01*
X90111411Y-60180490D01*
X90354632Y-60017975D01*
X90561475Y-59811132D01*
X90678000Y-59636740D01*
X90794525Y-59811132D01*
X91001368Y-60017975D01*
X91244589Y-60180490D01*
X91514842Y-60292432D01*
X91801740Y-60349500D01*
X92094260Y-60349500D01*
X92381158Y-60292432D01*
X92651411Y-60180490D01*
X92894632Y-60017975D01*
X93101475Y-59811132D01*
X93218000Y-59636740D01*
X93334525Y-59811132D01*
X93541368Y-60017975D01*
X93784589Y-60180490D01*
X94054842Y-60292432D01*
X94341740Y-60349500D01*
X94634260Y-60349500D01*
X94921158Y-60292432D01*
X95191411Y-60180490D01*
X95434632Y-60017975D01*
X95641475Y-59811132D01*
X95758000Y-59636740D01*
X95874525Y-59811132D01*
X96081368Y-60017975D01*
X96324589Y-60180490D01*
X96594842Y-60292432D01*
X96881740Y-60349500D01*
X97174260Y-60349500D01*
X97461158Y-60292432D01*
X97731411Y-60180490D01*
X97974632Y-60017975D01*
X98181475Y-59811132D01*
X98298000Y-59636740D01*
X98414525Y-59811132D01*
X98621368Y-60017975D01*
X98864589Y-60180490D01*
X99134842Y-60292432D01*
X99421740Y-60349500D01*
X99714260Y-60349500D01*
X100001158Y-60292432D01*
X100271411Y-60180490D01*
X100514632Y-60017975D01*
X100721475Y-59811132D01*
X100838000Y-59636740D01*
X100954525Y-59811132D01*
X101161368Y-60017975D01*
X101404589Y-60180490D01*
X101674842Y-60292432D01*
X101961740Y-60349500D01*
X102254260Y-60349500D01*
X102541158Y-60292432D01*
X102811411Y-60180490D01*
X103054632Y-60017975D01*
X103261475Y-59811132D01*
X103378000Y-59636740D01*
X103494525Y-59811132D01*
X103701368Y-60017975D01*
X103944589Y-60180490D01*
X104214842Y-60292432D01*
X104501740Y-60349500D01*
X104794260Y-60349500D01*
X105081158Y-60292432D01*
X105351411Y-60180490D01*
X105594632Y-60017975D01*
X105801475Y-59811132D01*
X105918000Y-59636740D01*
X106034525Y-59811132D01*
X106241368Y-60017975D01*
X106484589Y-60180490D01*
X106754842Y-60292432D01*
X107041740Y-60349500D01*
X107334260Y-60349500D01*
X107621158Y-60292432D01*
X107891411Y-60180490D01*
X108134632Y-60017975D01*
X108341475Y-59811132D01*
X108458000Y-59636740D01*
X108574525Y-59811132D01*
X108781368Y-60017975D01*
X109024589Y-60180490D01*
X109294842Y-60292432D01*
X109581740Y-60349500D01*
X109874260Y-60349500D01*
X110161158Y-60292432D01*
X110431411Y-60180490D01*
X110674632Y-60017975D01*
X110881475Y-59811132D01*
X110998000Y-59636740D01*
X111114525Y-59811132D01*
X111321368Y-60017975D01*
X111564589Y-60180490D01*
X111834842Y-60292432D01*
X112121740Y-60349500D01*
X112414260Y-60349500D01*
X112701158Y-60292432D01*
X112971411Y-60180490D01*
X113214632Y-60017975D01*
X113421475Y-59811132D01*
X113538000Y-59636740D01*
X113654525Y-59811132D01*
X113861368Y-60017975D01*
X114104589Y-60180490D01*
X114374842Y-60292432D01*
X114661740Y-60349500D01*
X114954260Y-60349500D01*
X115241158Y-60292432D01*
X115511411Y-60180490D01*
X115754632Y-60017975D01*
X115886487Y-59886120D01*
X115908498Y-59958680D01*
X115967463Y-60068994D01*
X116046815Y-60165685D01*
X116143506Y-60245037D01*
X116253820Y-60304002D01*
X116373518Y-60340312D01*
X116498000Y-60352572D01*
X118198000Y-60352572D01*
X118322482Y-60340312D01*
X118442180Y-60304002D01*
X118552494Y-60245037D01*
X118649185Y-60165685D01*
X118728537Y-60068994D01*
X118787502Y-59958680D01*
X118823812Y-59838982D01*
X118836072Y-59714500D01*
X118836072Y-58014500D01*
X118823812Y-57890018D01*
X118787502Y-57770320D01*
X118728537Y-57660006D01*
X118649185Y-57563315D01*
X118552494Y-57483963D01*
X118442180Y-57424998D01*
X118322482Y-57388688D01*
X118198000Y-57376428D01*
X116498000Y-57376428D01*
X116373518Y-57388688D01*
X116253820Y-57424998D01*
X116143506Y-57483963D01*
X116046815Y-57563315D01*
X115967463Y-57660006D01*
X115908498Y-57770320D01*
X115886487Y-57842880D01*
X115754632Y-57711025D01*
X115511411Y-57548510D01*
X115241158Y-57436568D01*
X114954260Y-57379500D01*
X114661740Y-57379500D01*
X114374842Y-57436568D01*
X114104589Y-57548510D01*
X113861368Y-57711025D01*
X113654525Y-57917868D01*
X113538000Y-58092260D01*
X113421475Y-57917868D01*
X113214632Y-57711025D01*
X112971411Y-57548510D01*
X112701158Y-57436568D01*
X112414260Y-57379500D01*
X112121740Y-57379500D01*
X111834842Y-57436568D01*
X111564589Y-57548510D01*
X111321368Y-57711025D01*
X111114525Y-57917868D01*
X110998000Y-58092260D01*
X110881475Y-57917868D01*
X110674632Y-57711025D01*
X110431411Y-57548510D01*
X110161158Y-57436568D01*
X109874260Y-57379500D01*
X109581740Y-57379500D01*
X109294842Y-57436568D01*
X109024589Y-57548510D01*
X108781368Y-57711025D01*
X108574525Y-57917868D01*
X108458000Y-58092260D01*
X108341475Y-57917868D01*
X108134632Y-57711025D01*
X107891411Y-57548510D01*
X107621158Y-57436568D01*
X107334260Y-57379500D01*
X107041740Y-57379500D01*
X106754842Y-57436568D01*
X106484589Y-57548510D01*
X106241368Y-57711025D01*
X106034525Y-57917868D01*
X105918000Y-58092260D01*
X105801475Y-57917868D01*
X105594632Y-57711025D01*
X105351411Y-57548510D01*
X105081158Y-57436568D01*
X104794260Y-57379500D01*
X104501740Y-57379500D01*
X104214842Y-57436568D01*
X103944589Y-57548510D01*
X103701368Y-57711025D01*
X103494525Y-57917868D01*
X103378000Y-58092260D01*
X103261475Y-57917868D01*
X103054632Y-57711025D01*
X102811411Y-57548510D01*
X102541158Y-57436568D01*
X102254260Y-57379500D01*
X101961740Y-57379500D01*
X101674842Y-57436568D01*
X101404589Y-57548510D01*
X101161368Y-57711025D01*
X100954525Y-57917868D01*
X100838000Y-58092260D01*
X100721475Y-57917868D01*
X100514632Y-57711025D01*
X100271411Y-57548510D01*
X100001158Y-57436568D01*
X99714260Y-57379500D01*
X99421740Y-57379500D01*
X99134842Y-57436568D01*
X98864589Y-57548510D01*
X98621368Y-57711025D01*
X98414525Y-57917868D01*
X98298000Y-58092260D01*
X98181475Y-57917868D01*
X97974632Y-57711025D01*
X97731411Y-57548510D01*
X97461158Y-57436568D01*
X97174260Y-57379500D01*
X96881740Y-57379500D01*
X96594842Y-57436568D01*
X96324589Y-57548510D01*
X96081368Y-57711025D01*
X95874525Y-57917868D01*
X95758000Y-58092260D01*
X95641475Y-57917868D01*
X95434632Y-57711025D01*
X95191411Y-57548510D01*
X94921158Y-57436568D01*
X94634260Y-57379500D01*
X94341740Y-57379500D01*
X94054842Y-57436568D01*
X93784589Y-57548510D01*
X93541368Y-57711025D01*
X93334525Y-57917868D01*
X93218000Y-58092260D01*
X93101475Y-57917868D01*
X92894632Y-57711025D01*
X92651411Y-57548510D01*
X92381158Y-57436568D01*
X92094260Y-57379500D01*
X91801740Y-57379500D01*
X91514842Y-57436568D01*
X91244589Y-57548510D01*
X91001368Y-57711025D01*
X90794525Y-57917868D01*
X90678000Y-58092260D01*
X90561475Y-57917868D01*
X90354632Y-57711025D01*
X90111411Y-57548510D01*
X89841158Y-57436568D01*
X89554260Y-57379500D01*
X89261740Y-57379500D01*
X88974842Y-57436568D01*
X88704589Y-57548510D01*
X88461368Y-57711025D01*
X88254525Y-57917868D01*
X88138000Y-58092260D01*
X88021475Y-57917868D01*
X87814632Y-57711025D01*
X87571411Y-57548510D01*
X87301158Y-57436568D01*
X87014260Y-57379500D01*
X86721740Y-57379500D01*
X86434842Y-57436568D01*
X86164589Y-57548510D01*
X85921368Y-57711025D01*
X85714525Y-57917868D01*
X85598000Y-58092260D01*
X85481475Y-57917868D01*
X85274632Y-57711025D01*
X85031411Y-57548510D01*
X84761158Y-57436568D01*
X84474260Y-57379500D01*
X84181740Y-57379500D01*
X83894842Y-57436568D01*
X83624589Y-57548510D01*
X83381368Y-57711025D01*
X83174525Y-57917868D01*
X83058000Y-58092260D01*
X82941475Y-57917868D01*
X82734632Y-57711025D01*
X82491411Y-57548510D01*
X82221158Y-57436568D01*
X81934260Y-57379500D01*
X81641740Y-57379500D01*
X81354842Y-57436568D01*
X81084589Y-57548510D01*
X80841368Y-57711025D01*
X80634525Y-57917868D01*
X80518000Y-58092260D01*
X80401475Y-57917868D01*
X80194632Y-57711025D01*
X79951411Y-57548510D01*
X79681158Y-57436568D01*
X79394260Y-57379500D01*
X79101740Y-57379500D01*
X78814842Y-57436568D01*
X78544589Y-57548510D01*
X78301368Y-57711025D01*
X78094525Y-57917868D01*
X77932010Y-58161089D01*
X77820068Y-58431342D01*
X77763000Y-58718240D01*
X75660000Y-58718240D01*
X75660000Y-54293400D01*
X77772628Y-54293400D01*
X77772628Y-55993400D01*
X77784888Y-56117882D01*
X77821198Y-56237580D01*
X77880163Y-56347894D01*
X77959515Y-56444585D01*
X78056206Y-56523937D01*
X78166520Y-56582902D01*
X78286218Y-56619212D01*
X78410700Y-56631472D01*
X80110700Y-56631472D01*
X80235182Y-56619212D01*
X80354880Y-56582902D01*
X80465194Y-56523937D01*
X80561885Y-56444585D01*
X80641237Y-56347894D01*
X80700202Y-56237580D01*
X80722213Y-56165020D01*
X80854068Y-56296875D01*
X81097289Y-56459390D01*
X81367542Y-56571332D01*
X81654440Y-56628400D01*
X81946960Y-56628400D01*
X82233858Y-56571332D01*
X82504111Y-56459390D01*
X82747332Y-56296875D01*
X82954175Y-56090032D01*
X83070700Y-55915640D01*
X83187225Y-56090032D01*
X83394068Y-56296875D01*
X83637289Y-56459390D01*
X83907542Y-56571332D01*
X84194440Y-56628400D01*
X84486960Y-56628400D01*
X84773858Y-56571332D01*
X85044111Y-56459390D01*
X85287332Y-56296875D01*
X85494175Y-56090032D01*
X85610700Y-55915640D01*
X85727225Y-56090032D01*
X85934068Y-56296875D01*
X86177289Y-56459390D01*
X86447542Y-56571332D01*
X86734440Y-56628400D01*
X87026960Y-56628400D01*
X87313858Y-56571332D01*
X87584111Y-56459390D01*
X87827332Y-56296875D01*
X88034175Y-56090032D01*
X88150700Y-55915640D01*
X88267225Y-56090032D01*
X88474068Y-56296875D01*
X88717289Y-56459390D01*
X88987542Y-56571332D01*
X89274440Y-56628400D01*
X89566960Y-56628400D01*
X89853858Y-56571332D01*
X90124111Y-56459390D01*
X90367332Y-56296875D01*
X90574175Y-56090032D01*
X90690700Y-55915640D01*
X90807225Y-56090032D01*
X91014068Y-56296875D01*
X91257289Y-56459390D01*
X91527542Y-56571332D01*
X91814440Y-56628400D01*
X92106960Y-56628400D01*
X92393858Y-56571332D01*
X92664111Y-56459390D01*
X92907332Y-56296875D01*
X93114175Y-56090032D01*
X93230700Y-55915640D01*
X93347225Y-56090032D01*
X93554068Y-56296875D01*
X93797289Y-56459390D01*
X94067542Y-56571332D01*
X94354440Y-56628400D01*
X94646960Y-56628400D01*
X94933858Y-56571332D01*
X95204111Y-56459390D01*
X95447332Y-56296875D01*
X95654175Y-56090032D01*
X95770700Y-55915640D01*
X95887225Y-56090032D01*
X96094068Y-56296875D01*
X96337289Y-56459390D01*
X96607542Y-56571332D01*
X96894440Y-56628400D01*
X97186960Y-56628400D01*
X97473858Y-56571332D01*
X97744111Y-56459390D01*
X97987332Y-56296875D01*
X98194175Y-56090032D01*
X98310700Y-55915640D01*
X98427225Y-56090032D01*
X98634068Y-56296875D01*
X98877289Y-56459390D01*
X99147542Y-56571332D01*
X99434440Y-56628400D01*
X99726960Y-56628400D01*
X100013858Y-56571332D01*
X100284111Y-56459390D01*
X100527332Y-56296875D01*
X100734175Y-56090032D01*
X100850700Y-55915640D01*
X100967225Y-56090032D01*
X101174068Y-56296875D01*
X101417289Y-56459390D01*
X101687542Y-56571332D01*
X101974440Y-56628400D01*
X102266960Y-56628400D01*
X102553858Y-56571332D01*
X102824111Y-56459390D01*
X103067332Y-56296875D01*
X103274175Y-56090032D01*
X103390700Y-55915640D01*
X103507225Y-56090032D01*
X103714068Y-56296875D01*
X103957289Y-56459390D01*
X104227542Y-56571332D01*
X104514440Y-56628400D01*
X104806960Y-56628400D01*
X105093858Y-56571332D01*
X105364111Y-56459390D01*
X105607332Y-56296875D01*
X105814175Y-56090032D01*
X105930700Y-55915640D01*
X106047225Y-56090032D01*
X106254068Y-56296875D01*
X106497289Y-56459390D01*
X106767542Y-56571332D01*
X107054440Y-56628400D01*
X107346960Y-56628400D01*
X107633858Y-56571332D01*
X107904111Y-56459390D01*
X108147332Y-56296875D01*
X108354175Y-56090032D01*
X108470700Y-55915640D01*
X108587225Y-56090032D01*
X108794068Y-56296875D01*
X109037289Y-56459390D01*
X109307542Y-56571332D01*
X109594440Y-56628400D01*
X109886960Y-56628400D01*
X110173858Y-56571332D01*
X110444111Y-56459390D01*
X110687332Y-56296875D01*
X110894175Y-56090032D01*
X111010700Y-55915640D01*
X111127225Y-56090032D01*
X111334068Y-56296875D01*
X111577289Y-56459390D01*
X111847542Y-56571332D01*
X112134440Y-56628400D01*
X112426960Y-56628400D01*
X112713858Y-56571332D01*
X112984111Y-56459390D01*
X113227332Y-56296875D01*
X113434175Y-56090032D01*
X113550700Y-55915640D01*
X113667225Y-56090032D01*
X113874068Y-56296875D01*
X114117289Y-56459390D01*
X114387542Y-56571332D01*
X114674440Y-56628400D01*
X114966960Y-56628400D01*
X115253858Y-56571332D01*
X115524111Y-56459390D01*
X115767332Y-56296875D01*
X115974175Y-56090032D01*
X116090700Y-55915640D01*
X116207225Y-56090032D01*
X116414068Y-56296875D01*
X116657289Y-56459390D01*
X116927542Y-56571332D01*
X117214440Y-56628400D01*
X117506960Y-56628400D01*
X117793858Y-56571332D01*
X118064111Y-56459390D01*
X118307332Y-56296875D01*
X118514175Y-56090032D01*
X118676690Y-55846811D01*
X118788632Y-55576558D01*
X118845700Y-55289660D01*
X118845700Y-54997140D01*
X118788632Y-54710242D01*
X118676690Y-54439989D01*
X118514175Y-54196768D01*
X118307332Y-53989925D01*
X118064111Y-53827410D01*
X117793858Y-53715468D01*
X117506960Y-53658400D01*
X117214440Y-53658400D01*
X116927542Y-53715468D01*
X116657289Y-53827410D01*
X116414068Y-53989925D01*
X116207225Y-54196768D01*
X116090700Y-54371160D01*
X115974175Y-54196768D01*
X115767332Y-53989925D01*
X115524111Y-53827410D01*
X115253858Y-53715468D01*
X114966960Y-53658400D01*
X114674440Y-53658400D01*
X114387542Y-53715468D01*
X114117289Y-53827410D01*
X113874068Y-53989925D01*
X113667225Y-54196768D01*
X113550700Y-54371160D01*
X113434175Y-54196768D01*
X113227332Y-53989925D01*
X112984111Y-53827410D01*
X112713858Y-53715468D01*
X112426960Y-53658400D01*
X112134440Y-53658400D01*
X111847542Y-53715468D01*
X111577289Y-53827410D01*
X111334068Y-53989925D01*
X111127225Y-54196768D01*
X111010700Y-54371160D01*
X110894175Y-54196768D01*
X110687332Y-53989925D01*
X110444111Y-53827410D01*
X110173858Y-53715468D01*
X109886960Y-53658400D01*
X109594440Y-53658400D01*
X109307542Y-53715468D01*
X109037289Y-53827410D01*
X108794068Y-53989925D01*
X108587225Y-54196768D01*
X108470700Y-54371160D01*
X108354175Y-54196768D01*
X108147332Y-53989925D01*
X107904111Y-53827410D01*
X107633858Y-53715468D01*
X107346960Y-53658400D01*
X107054440Y-53658400D01*
X106767542Y-53715468D01*
X106497289Y-53827410D01*
X106254068Y-53989925D01*
X106047225Y-54196768D01*
X105930700Y-54371160D01*
X105814175Y-54196768D01*
X105607332Y-53989925D01*
X105364111Y-53827410D01*
X105093858Y-53715468D01*
X104806960Y-53658400D01*
X104514440Y-53658400D01*
X104227542Y-53715468D01*
X103957289Y-53827410D01*
X103714068Y-53989925D01*
X103507225Y-54196768D01*
X103390700Y-54371160D01*
X103274175Y-54196768D01*
X103067332Y-53989925D01*
X102824111Y-53827410D01*
X102553858Y-53715468D01*
X102266960Y-53658400D01*
X101974440Y-53658400D01*
X101687542Y-53715468D01*
X101417289Y-53827410D01*
X101174068Y-53989925D01*
X100967225Y-54196768D01*
X100850700Y-54371160D01*
X100734175Y-54196768D01*
X100527332Y-53989925D01*
X100284111Y-53827410D01*
X100013858Y-53715468D01*
X99726960Y-53658400D01*
X99434440Y-53658400D01*
X99147542Y-53715468D01*
X98877289Y-53827410D01*
X98634068Y-53989925D01*
X98427225Y-54196768D01*
X98310700Y-54371160D01*
X98194175Y-54196768D01*
X97987332Y-53989925D01*
X97744111Y-53827410D01*
X97473858Y-53715468D01*
X97186960Y-53658400D01*
X96894440Y-53658400D01*
X96607542Y-53715468D01*
X96337289Y-53827410D01*
X96094068Y-53989925D01*
X95887225Y-54196768D01*
X95770700Y-54371160D01*
X95654175Y-54196768D01*
X95447332Y-53989925D01*
X95204111Y-53827410D01*
X94933858Y-53715468D01*
X94646960Y-53658400D01*
X94354440Y-53658400D01*
X94067542Y-53715468D01*
X93797289Y-53827410D01*
X93554068Y-53989925D01*
X93347225Y-54196768D01*
X93230700Y-54371160D01*
X93114175Y-54196768D01*
X92907332Y-53989925D01*
X92664111Y-53827410D01*
X92393858Y-53715468D01*
X92106960Y-53658400D01*
X91814440Y-53658400D01*
X91527542Y-53715468D01*
X91257289Y-53827410D01*
X91014068Y-53989925D01*
X90807225Y-54196768D01*
X90690700Y-54371160D01*
X90574175Y-54196768D01*
X90367332Y-53989925D01*
X90124111Y-53827410D01*
X89853858Y-53715468D01*
X89566960Y-53658400D01*
X89274440Y-53658400D01*
X88987542Y-53715468D01*
X88717289Y-53827410D01*
X88474068Y-53989925D01*
X88267225Y-54196768D01*
X88150700Y-54371160D01*
X88034175Y-54196768D01*
X87827332Y-53989925D01*
X87584111Y-53827410D01*
X87313858Y-53715468D01*
X87026960Y-53658400D01*
X86734440Y-53658400D01*
X86447542Y-53715468D01*
X86177289Y-53827410D01*
X85934068Y-53989925D01*
X85727225Y-54196768D01*
X85610700Y-54371160D01*
X85494175Y-54196768D01*
X85287332Y-53989925D01*
X85044111Y-53827410D01*
X84773858Y-53715468D01*
X84486960Y-53658400D01*
X84194440Y-53658400D01*
X83907542Y-53715468D01*
X83637289Y-53827410D01*
X83394068Y-53989925D01*
X83187225Y-54196768D01*
X83070700Y-54371160D01*
X82954175Y-54196768D01*
X82747332Y-53989925D01*
X82504111Y-53827410D01*
X82233858Y-53715468D01*
X81946960Y-53658400D01*
X81654440Y-53658400D01*
X81367542Y-53715468D01*
X81097289Y-53827410D01*
X80854068Y-53989925D01*
X80722213Y-54121780D01*
X80700202Y-54049220D01*
X80641237Y-53938906D01*
X80561885Y-53842215D01*
X80465194Y-53762863D01*
X80354880Y-53703898D01*
X80235182Y-53667588D01*
X80110700Y-53655328D01*
X78410700Y-53655328D01*
X78286218Y-53667588D01*
X78166520Y-53703898D01*
X78056206Y-53762863D01*
X77959515Y-53842215D01*
X77880163Y-53938906D01*
X77821198Y-54049220D01*
X77784888Y-54168918D01*
X77772628Y-54293400D01*
X75660000Y-54293400D01*
X75660000Y-52660000D01*
X129340000Y-52660000D01*
X129340001Y-144340000D01*
G37*
X129340001Y-144340000D02*
X75660000Y-144340000D01*
X75660000Y-137313300D01*
X77696428Y-137313300D01*
X77696428Y-139013300D01*
X77708688Y-139137782D01*
X77744998Y-139257480D01*
X77803963Y-139367794D01*
X77883315Y-139464485D01*
X77980006Y-139543837D01*
X78090320Y-139602802D01*
X78210018Y-139639112D01*
X78334500Y-139651372D01*
X80034500Y-139651372D01*
X80158982Y-139639112D01*
X80278680Y-139602802D01*
X80388994Y-139543837D01*
X80485685Y-139464485D01*
X80565037Y-139367794D01*
X80624002Y-139257480D01*
X80646013Y-139184920D01*
X80777868Y-139316775D01*
X81021089Y-139479290D01*
X81291342Y-139591232D01*
X81578240Y-139648300D01*
X81870760Y-139648300D01*
X82157658Y-139591232D01*
X82427911Y-139479290D01*
X82671132Y-139316775D01*
X82877975Y-139109932D01*
X82994500Y-138935540D01*
X83111025Y-139109932D01*
X83317868Y-139316775D01*
X83561089Y-139479290D01*
X83831342Y-139591232D01*
X84118240Y-139648300D01*
X84410760Y-139648300D01*
X84697658Y-139591232D01*
X84967911Y-139479290D01*
X85211132Y-139316775D01*
X85417975Y-139109932D01*
X85534500Y-138935540D01*
X85651025Y-139109932D01*
X85857868Y-139316775D01*
X86101089Y-139479290D01*
X86371342Y-139591232D01*
X86658240Y-139648300D01*
X86950760Y-139648300D01*
X87237658Y-139591232D01*
X87507911Y-139479290D01*
X87751132Y-139316775D01*
X87957975Y-139109932D01*
X88074500Y-138935540D01*
X88191025Y-139109932D01*
X88397868Y-139316775D01*
X88641089Y-139479290D01*
X88911342Y-139591232D01*
X89198240Y-139648300D01*
X89490760Y-139648300D01*
X89777658Y-139591232D01*
X90047911Y-139479290D01*
X90291132Y-139316775D01*
X90497975Y-139109932D01*
X90614500Y-138935540D01*
X90731025Y-139109932D01*
X90937868Y-139316775D01*
X91181089Y-139479290D01*
X91451342Y-139591232D01*
X91738240Y-139648300D01*
X92030760Y-139648300D01*
X92317658Y-139591232D01*
X92587911Y-139479290D01*
X92831132Y-139316775D01*
X93037975Y-139109932D01*
X93154500Y-138935540D01*
X93271025Y-139109932D01*
X93477868Y-139316775D01*
X93721089Y-139479290D01*
X93991342Y-139591232D01*
X94278240Y-139648300D01*
X94570760Y-139648300D01*
X94857658Y-139591232D01*
X95127911Y-139479290D01*
X95371132Y-139316775D01*
X95577975Y-139109932D01*
X95694500Y-138935540D01*
X95811025Y-139109932D01*
X96017868Y-139316775D01*
X96261089Y-139479290D01*
X96531342Y-139591232D01*
X96818240Y-139648300D01*
X97110760Y-139648300D01*
X97397658Y-139591232D01*
X97667911Y-139479290D01*
X97911132Y-139316775D01*
X98117975Y-139109932D01*
X98234500Y-138935540D01*
X98351025Y-139109932D01*
X98557868Y-139316775D01*
X98801089Y-139479290D01*
X99071342Y-139591232D01*
X99358240Y-139648300D01*
X99650760Y-139648300D01*
X99937658Y-139591232D01*
X100207911Y-139479290D01*
X100451132Y-139316775D01*
X100657975Y-139109932D01*
X100774500Y-138935540D01*
X100891025Y-139109932D01*
X101097868Y-139316775D01*
X101341089Y-139479290D01*
X101611342Y-139591232D01*
X101898240Y-139648300D01*
X102190760Y-139648300D01*
X102477658Y-139591232D01*
X102747911Y-139479290D01*
X102991132Y-139316775D01*
X103197975Y-139109932D01*
X103314500Y-138935540D01*
X103431025Y-139109932D01*
X103637868Y-139316775D01*
X103881089Y-139479290D01*
X104151342Y-139591232D01*
X104438240Y-139648300D01*
X104730760Y-139648300D01*
X105017658Y-139591232D01*
X105287911Y-139479290D01*
X105531132Y-139316775D01*
X105737975Y-139109932D01*
X105900490Y-138866711D01*
X106012432Y-138596458D01*
X106069500Y-138309560D01*
X106069500Y-138017040D01*
X106012432Y-137730142D01*
X105900490Y-137459889D01*
X105737975Y-137216668D01*
X105531132Y-137009825D01*
X105344500Y-136885122D01*
X105344500Y-135854072D01*
X105434500Y-135854072D01*
X105558982Y-135841812D01*
X105678680Y-135805502D01*
X105788994Y-135746537D01*
X105885685Y-135667185D01*
X105965037Y-135570494D01*
X106024002Y-135460180D01*
X106060312Y-135340482D01*
X106072572Y-135216000D01*
X106072572Y-133516000D01*
X106060312Y-133391518D01*
X106024002Y-133271820D01*
X105965037Y-133161506D01*
X105885685Y-133064815D01*
X105788994Y-132985463D01*
X105678680Y-132926498D01*
X105558982Y-132890188D01*
X105434500Y-132877928D01*
X103734500Y-132877928D01*
X103610018Y-132890188D01*
X103490320Y-132926498D01*
X103380006Y-132985463D01*
X103283315Y-133064815D01*
X103203963Y-133161506D01*
X103144998Y-133271820D01*
X103122987Y-133344380D01*
X102991132Y-133212525D01*
X102747911Y-133050010D01*
X102477658Y-132938068D01*
X102190760Y-132881000D01*
X101898240Y-132881000D01*
X101611342Y-132938068D01*
X101341089Y-133050010D01*
X101097868Y-133212525D01*
X100891025Y-133419368D01*
X100774500Y-133593760D01*
X100657975Y-133419368D01*
X100451132Y-133212525D01*
X100207911Y-133050010D01*
X99937658Y-132938068D01*
X99650760Y-132881000D01*
X99358240Y-132881000D01*
X99071342Y-132938068D01*
X98801089Y-133050010D01*
X98557868Y-133212525D01*
X98351025Y-133419368D01*
X98234500Y-133593760D01*
X98117975Y-133419368D01*
X97911132Y-133212525D01*
X97667911Y-133050010D01*
X97397658Y-132938068D01*
X97110760Y-132881000D01*
X96818240Y-132881000D01*
X96531342Y-132938068D01*
X96261089Y-133050010D01*
X96017868Y-133212525D01*
X95811025Y-133419368D01*
X95694500Y-133593760D01*
X95577975Y-133419368D01*
X95371132Y-133212525D01*
X95127911Y-133050010D01*
X94857658Y-132938068D01*
X94570760Y-132881000D01*
X94278240Y-132881000D01*
X93991342Y-132938068D01*
X93721089Y-133050010D01*
X93477868Y-133212525D01*
X93271025Y-133419368D01*
X93154500Y-133593760D01*
X93037975Y-133419368D01*
X92831132Y-133212525D01*
X92587911Y-133050010D01*
X92317658Y-132938068D01*
X92030760Y-132881000D01*
X91738240Y-132881000D01*
X91451342Y-132938068D01*
X91181089Y-133050010D01*
X90937868Y-133212525D01*
X90731025Y-133419368D01*
X90614500Y-133593760D01*
X90497975Y-133419368D01*
X90291132Y-133212525D01*
X90047911Y-133050010D01*
X89777658Y-132938068D01*
X89490760Y-132881000D01*
X89198240Y-132881000D01*
X88911342Y-132938068D01*
X88641089Y-133050010D01*
X88397868Y-133212525D01*
X88191025Y-133419368D01*
X88074500Y-133593760D01*
X87957975Y-133419368D01*
X87751132Y-133212525D01*
X87507911Y-133050010D01*
X87237658Y-132938068D01*
X86950760Y-132881000D01*
X86658240Y-132881000D01*
X86371342Y-132938068D01*
X86101089Y-133050010D01*
X85857868Y-133212525D01*
X85651025Y-133419368D01*
X85534500Y-133593760D01*
X85417975Y-133419368D01*
X85211132Y-133212525D01*
X84967911Y-133050010D01*
X84697658Y-132938068D01*
X84410760Y-132881000D01*
X84118240Y-132881000D01*
X83831342Y-132938068D01*
X83561089Y-133050010D01*
X83317868Y-133212525D01*
X83111025Y-133419368D01*
X82994500Y-133593760D01*
X82877975Y-133419368D01*
X82671132Y-133212525D01*
X82427911Y-133050010D01*
X82157658Y-132938068D01*
X81870760Y-132881000D01*
X81578240Y-132881000D01*
X81291342Y-132938068D01*
X81021089Y-133050010D01*
X80777868Y-133212525D01*
X80571025Y-133419368D01*
X80454500Y-133593760D01*
X80337975Y-133419368D01*
X80131132Y-133212525D01*
X79887911Y-133050010D01*
X79617658Y-132938068D01*
X79330760Y-132881000D01*
X79038240Y-132881000D01*
X78751342Y-132938068D01*
X78481089Y-133050010D01*
X78237868Y-133212525D01*
X78031025Y-133419368D01*
X77868510Y-133662589D01*
X77756568Y-133932842D01*
X77699500Y-134219740D01*
X77699500Y-134512260D01*
X77756568Y-134799158D01*
X77868510Y-135069411D01*
X78031025Y-135312632D01*
X78237868Y-135519475D01*
X78481089Y-135681990D01*
X78751342Y-135793932D01*
X79038240Y-135851000D01*
X79330760Y-135851000D01*
X79617658Y-135793932D01*
X79887911Y-135681990D01*
X80131132Y-135519475D01*
X80337975Y-135312632D01*
X80454500Y-135138240D01*
X80571025Y-135312632D01*
X80777868Y-135519475D01*
X81021089Y-135681990D01*
X81291342Y-135793932D01*
X81578240Y-135851000D01*
X81870760Y-135851000D01*
X82157658Y-135793932D01*
X82427911Y-135681990D01*
X82671132Y-135519475D01*
X82877975Y-135312632D01*
X82994500Y-135138240D01*
X83111025Y-135312632D01*
X83317868Y-135519475D01*
X83561089Y-135681990D01*
X83831342Y-135793932D01*
X84118240Y-135851000D01*
X84410760Y-135851000D01*
X84697658Y-135793932D01*
X84967911Y-135681990D01*
X85211132Y-135519475D01*
X85417975Y-135312632D01*
X85534500Y-135138240D01*
X85651025Y-135312632D01*
X85857868Y-135519475D01*
X86101089Y-135681990D01*
X86371342Y-135793932D01*
X86658240Y-135851000D01*
X86950760Y-135851000D01*
X87237658Y-135793932D01*
X87507911Y-135681990D01*
X87751132Y-135519475D01*
X87957975Y-135312632D01*
X88074500Y-135138240D01*
X88191025Y-135312632D01*
X88397868Y-135519475D01*
X88641089Y-135681990D01*
X88911342Y-135793932D01*
X89198240Y-135851000D01*
X89490760Y-135851000D01*
X89777658Y-135793932D01*
X90047911Y-135681990D01*
X90291132Y-135519475D01*
X90497975Y-135312632D01*
X90614500Y-135138240D01*
X90731025Y-135312632D01*
X90937868Y-135519475D01*
X91181089Y-135681990D01*
X91451342Y-135793932D01*
X91738240Y-135851000D01*
X92030760Y-135851000D01*
X92317658Y-135793932D01*
X92587911Y-135681990D01*
X92831132Y-135519475D01*
X93037975Y-135312632D01*
X93154500Y-135138240D01*
X93271025Y-135312632D01*
X93477868Y-135519475D01*
X93721089Y-135681990D01*
X93991342Y-135793932D01*
X94278240Y-135851000D01*
X94570760Y-135851000D01*
X94857658Y-135793932D01*
X95127911Y-135681990D01*
X95371132Y-135519475D01*
X95577975Y-135312632D01*
X95694500Y-135138240D01*
X95811025Y-135312632D01*
X96017868Y-135519475D01*
X96261089Y-135681990D01*
X96531342Y-135793932D01*
X96818240Y-135851000D01*
X97110760Y-135851000D01*
X97397658Y-135793932D01*
X97667911Y-135681990D01*
X97911132Y-135519475D01*
X98117975Y-135312632D01*
X98234500Y-135138240D01*
X98351025Y-135312632D01*
X98557868Y-135519475D01*
X98801089Y-135681990D01*
X99071342Y-135793932D01*
X99358240Y-135851000D01*
X99650760Y-135851000D01*
X99937658Y-135793932D01*
X100207911Y-135681990D01*
X100451132Y-135519475D01*
X100657975Y-135312632D01*
X100774500Y-135138240D01*
X100891025Y-135312632D01*
X101097868Y-135519475D01*
X101341089Y-135681990D01*
X101611342Y-135793932D01*
X101898240Y-135851000D01*
X102190760Y-135851000D01*
X102477658Y-135793932D01*
X102747911Y-135681990D01*
X102991132Y-135519475D01*
X103122987Y-135387620D01*
X103144998Y-135460180D01*
X103203963Y-135570494D01*
X103283315Y-135667185D01*
X103380006Y-135746537D01*
X103490320Y-135805502D01*
X103610018Y-135841812D01*
X103734500Y-135854072D01*
X103824500Y-135854072D01*
X103824501Y-136885121D01*
X103637868Y-137009825D01*
X103431025Y-137216668D01*
X103314500Y-137391060D01*
X103197975Y-137216668D01*
X102991132Y-137009825D01*
X102747911Y-136847310D01*
X102477658Y-136735368D01*
X102190760Y-136678300D01*
X101898240Y-136678300D01*
X101611342Y-136735368D01*
X101341089Y-136847310D01*
X101097868Y-137009825D01*
X100891025Y-137216668D01*
X100774500Y-137391060D01*
X100657975Y-137216668D01*
X100451132Y-137009825D01*
X100207911Y-136847310D01*
X99937658Y-136735368D01*
X99650760Y-136678300D01*
X99358240Y-136678300D01*
X99071342Y-136735368D01*
X98801089Y-136847310D01*
X98557868Y-137009825D01*
X98351025Y-137216668D01*
X98234500Y-137391060D01*
X98117975Y-137216668D01*
X97911132Y-137009825D01*
X97667911Y-136847310D01*
X97397658Y-136735368D01*
X97110760Y-136678300D01*
X96818240Y-136678300D01*
X96531342Y-136735368D01*
X96261089Y-136847310D01*
X96017868Y-137009825D01*
X95811025Y-137216668D01*
X95694500Y-137391060D01*
X95577975Y-137216668D01*
X95371132Y-137009825D01*
X95127911Y-136847310D01*
X94857658Y-136735368D01*
X94570760Y-136678300D01*
X94278240Y-136678300D01*
X93991342Y-136735368D01*
X93721089Y-136847310D01*
X93477868Y-137009825D01*
X93271025Y-137216668D01*
X93154500Y-137391060D01*
X93037975Y-137216668D01*
X92831132Y-137009825D01*
X92587911Y-136847310D01*
X92317658Y-136735368D01*
X92030760Y-136678300D01*
X91738240Y-136678300D01*
X91451342Y-136735368D01*
X91181089Y-136847310D01*
X90937868Y-137009825D01*
X90731025Y-137216668D01*
X90614500Y-137391060D01*
X90497975Y-137216668D01*
X90291132Y-137009825D01*
X90047911Y-136847310D01*
X89777658Y-136735368D01*
X89490760Y-136678300D01*
X89198240Y-136678300D01*
X88911342Y-136735368D01*
X88641089Y-136847310D01*
X88397868Y-137009825D01*
X88191025Y-137216668D01*
X88074500Y-137391060D01*
X87957975Y-137216668D01*
X87751132Y-137009825D01*
X87507911Y-136847310D01*
X87237658Y-136735368D01*
X86950760Y-136678300D01*
X86658240Y-136678300D01*
X86371342Y-136735368D01*
X86101089Y-136847310D01*
X85857868Y-137009825D01*
X85651025Y-137216668D01*
X85534500Y-137391060D01*
X85417975Y-137216668D01*
X85211132Y-137009825D01*
X84967911Y-136847310D01*
X84697658Y-136735368D01*
X84410760Y-136678300D01*
X84118240Y-136678300D01*
X83831342Y-136735368D01*
X83561089Y-136847310D01*
X83317868Y-137009825D01*
X83111025Y-137216668D01*
X82994500Y-137391060D01*
X82877975Y-137216668D01*
X82671132Y-137009825D01*
X82427911Y-136847310D01*
X82157658Y-136735368D01*
X81870760Y-136678300D01*
X81578240Y-136678300D01*
X81291342Y-136735368D01*
X81021089Y-136847310D01*
X80777868Y-137009825D01*
X80646013Y-137141680D01*
X80624002Y-137069120D01*
X80565037Y-136958806D01*
X80485685Y-136862115D01*
X80388994Y-136782763D01*
X80278680Y-136723798D01*
X80158982Y-136687488D01*
X80034500Y-136675228D01*
X78334500Y-136675228D01*
X78210018Y-136687488D01*
X78090320Y-136723798D01*
X77980006Y-136782763D01*
X77883315Y-136862115D01*
X77803963Y-136958806D01*
X77744998Y-137069120D01*
X77708688Y-137188818D01*
X77696428Y-137313300D01*
X75660000Y-137313300D01*
X75660000Y-129626960D01*
X104404501Y-129626960D01*
X104404501Y-129830838D01*
X104444275Y-130030797D01*
X104522296Y-130219155D01*
X104635564Y-130388673D01*
X104779727Y-130532836D01*
X104949245Y-130646104D01*
X104973931Y-130656329D01*
X105713691Y-131396089D01*
X105744532Y-131433670D01*
X105782111Y-131464510D01*
X105894518Y-131556760D01*
X106065635Y-131648224D01*
X106251308Y-131704547D01*
X106444402Y-131723565D01*
X106492782Y-131718800D01*
X120132914Y-131718800D01*
X120157602Y-131729026D01*
X120357561Y-131768800D01*
X120561439Y-131768800D01*
X120761398Y-131729026D01*
X120786086Y-131718800D01*
X127170524Y-131718800D01*
X127224763Y-131799974D01*
X127368926Y-131944137D01*
X127538444Y-132057405D01*
X127726802Y-132135426D01*
X127926761Y-132175200D01*
X128130639Y-132175200D01*
X128330598Y-132135426D01*
X128518956Y-132057405D01*
X128688474Y-131944137D01*
X128832637Y-131799974D01*
X128945905Y-131630456D01*
X129023926Y-131442098D01*
X129063700Y-131242139D01*
X129063700Y-131038261D01*
X129023926Y-130838302D01*
X128945905Y-130649944D01*
X128832637Y-130480426D01*
X128688474Y-130336263D01*
X128518956Y-130222995D01*
X128494269Y-130212769D01*
X128353016Y-130071517D01*
X128322170Y-130033930D01*
X128172184Y-129910840D01*
X128001067Y-129819376D01*
X127815394Y-129763053D01*
X127670680Y-129748800D01*
X127622300Y-129744035D01*
X127573920Y-129748800D01*
X120786086Y-129748800D01*
X120761398Y-129738574D01*
X120561439Y-129698800D01*
X120357561Y-129698800D01*
X120157602Y-129738574D01*
X120132914Y-129748800D01*
X106852403Y-129748800D01*
X106366931Y-129263329D01*
X106356706Y-129238643D01*
X106243438Y-129069125D01*
X106099275Y-128924962D01*
X105929757Y-128811694D01*
X105741399Y-128733673D01*
X105541440Y-128693899D01*
X105337562Y-128693899D01*
X105137603Y-128733673D01*
X104949245Y-128811694D01*
X104779727Y-128924962D01*
X104635564Y-129069125D01*
X104522296Y-129238643D01*
X104444275Y-129427001D01*
X104404501Y-129626960D01*
X75660000Y-129626960D01*
X75660000Y-122592200D01*
X89278828Y-122592200D01*
X89291088Y-122716682D01*
X89327398Y-122836380D01*
X89386363Y-122946694D01*
X89465715Y-123043385D01*
X89562406Y-123122737D01*
X89672720Y-123181702D01*
X89792418Y-123218012D01*
X89916900Y-123230272D01*
X90481150Y-123227200D01*
X90639900Y-123068450D01*
X90639900Y-121869200D01*
X90893900Y-121869200D01*
X90893900Y-123068450D01*
X91052650Y-123227200D01*
X91616900Y-123230272D01*
X91741382Y-123218012D01*
X91861080Y-123181702D01*
X91971394Y-123122737D01*
X92068085Y-123043385D01*
X92147437Y-122946694D01*
X92206402Y-122836380D01*
X92230866Y-122755734D01*
X92306631Y-122839788D01*
X92539980Y-123013841D01*
X92802801Y-123139025D01*
X92950010Y-123183676D01*
X93179900Y-123062355D01*
X93179900Y-121869200D01*
X93433900Y-121869200D01*
X93433900Y-123062355D01*
X93663790Y-123183676D01*
X93810999Y-123139025D01*
X94073820Y-123013841D01*
X94307169Y-122839788D01*
X94502078Y-122623555D01*
X94576900Y-122497945D01*
X94651722Y-122623555D01*
X94846631Y-122839788D01*
X95079980Y-123013841D01*
X95342801Y-123139025D01*
X95490010Y-123183676D01*
X95719900Y-123062355D01*
X95719900Y-121869200D01*
X95973900Y-121869200D01*
X95973900Y-123062355D01*
X96203790Y-123183676D01*
X96350999Y-123139025D01*
X96613820Y-123013841D01*
X96847169Y-122839788D01*
X97042078Y-122623555D01*
X97191057Y-122373452D01*
X97288381Y-122099091D01*
X97167714Y-121869200D01*
X95973900Y-121869200D01*
X95719900Y-121869200D01*
X93433900Y-121869200D01*
X93179900Y-121869200D01*
X90893900Y-121869200D01*
X90639900Y-121869200D01*
X89440650Y-121869200D01*
X89281900Y-122027950D01*
X89278828Y-122592200D01*
X75660000Y-122592200D01*
X75660000Y-120892200D01*
X89278828Y-120892200D01*
X89281900Y-121456450D01*
X89440650Y-121615200D01*
X90639900Y-121615200D01*
X90639900Y-120415950D01*
X90893900Y-120415950D01*
X90893900Y-121615200D01*
X93179900Y-121615200D01*
X93179900Y-120422045D01*
X93433900Y-120422045D01*
X93433900Y-121615200D01*
X95719900Y-121615200D01*
X95719900Y-120422045D01*
X95973900Y-120422045D01*
X95973900Y-121615200D01*
X97167714Y-121615200D01*
X97288381Y-121385309D01*
X97191057Y-121110948D01*
X97042078Y-120860845D01*
X96847169Y-120644612D01*
X96613820Y-120470559D01*
X96350999Y-120345375D01*
X96203790Y-120300724D01*
X95973900Y-120422045D01*
X95719900Y-120422045D01*
X95490010Y-120300724D01*
X95342801Y-120345375D01*
X95079980Y-120470559D01*
X94846631Y-120644612D01*
X94651722Y-120860845D01*
X94576900Y-120986455D01*
X94502078Y-120860845D01*
X94307169Y-120644612D01*
X94073820Y-120470559D01*
X93810999Y-120345375D01*
X93663790Y-120300724D01*
X93433900Y-120422045D01*
X93179900Y-120422045D01*
X92950010Y-120300724D01*
X92802801Y-120345375D01*
X92539980Y-120470559D01*
X92306631Y-120644612D01*
X92230866Y-120728666D01*
X92206402Y-120648020D01*
X92147437Y-120537706D01*
X92068085Y-120441015D01*
X91971394Y-120361663D01*
X91861080Y-120302698D01*
X91741382Y-120266388D01*
X91616900Y-120254128D01*
X91052650Y-120257200D01*
X90893900Y-120415950D01*
X90639900Y-120415950D01*
X90481150Y-120257200D01*
X89916900Y-120254128D01*
X89792418Y-120266388D01*
X89672720Y-120302698D01*
X89562406Y-120361663D01*
X89465715Y-120441015D01*
X89386363Y-120537706D01*
X89327398Y-120648020D01*
X89291088Y-120767718D01*
X89278828Y-120892200D01*
X75660000Y-120892200D01*
X75660000Y-116693740D01*
X79096500Y-116693740D01*
X79096500Y-116986260D01*
X79153568Y-117273158D01*
X79265510Y-117543411D01*
X79428025Y-117786632D01*
X79634868Y-117993475D01*
X79878089Y-118155990D01*
X80148342Y-118267932D01*
X80435240Y-118325000D01*
X80727760Y-118325000D01*
X81014658Y-118267932D01*
X81284911Y-118155990D01*
X81528132Y-117993475D01*
X81659987Y-117861620D01*
X81681998Y-117934180D01*
X81740963Y-118044494D01*
X81820315Y-118141185D01*
X81917006Y-118220537D01*
X82027320Y-118279502D01*
X82147018Y-118315812D01*
X82271500Y-118328072D01*
X82835750Y-118325000D01*
X82994500Y-118166250D01*
X82994500Y-116967000D01*
X83248500Y-116967000D01*
X83248500Y-118166250D01*
X83407250Y-118325000D01*
X83971500Y-118328072D01*
X84095982Y-118315812D01*
X84215680Y-118279502D01*
X84325994Y-118220537D01*
X84422685Y-118141185D01*
X84502037Y-118044494D01*
X84561002Y-117934180D01*
X84597312Y-117814482D01*
X84609572Y-117690000D01*
X84606500Y-117125750D01*
X84447750Y-116967000D01*
X83248500Y-116967000D01*
X82994500Y-116967000D01*
X82974500Y-116967000D01*
X82974500Y-116713000D01*
X82994500Y-116713000D01*
X82994500Y-115513750D01*
X83248500Y-115513750D01*
X83248500Y-116713000D01*
X84447750Y-116713000D01*
X84606500Y-116554250D01*
X84609572Y-115990000D01*
X84597312Y-115865518D01*
X84561002Y-115745820D01*
X84502037Y-115635506D01*
X84422685Y-115538815D01*
X84325994Y-115459463D01*
X84215680Y-115400498D01*
X84095982Y-115364188D01*
X83971500Y-115351928D01*
X83407250Y-115355000D01*
X83248500Y-115513750D01*
X82994500Y-115513750D01*
X82835750Y-115355000D01*
X82271500Y-115351928D01*
X82147018Y-115364188D01*
X82027320Y-115400498D01*
X81917006Y-115459463D01*
X81820315Y-115538815D01*
X81740963Y-115635506D01*
X81681998Y-115745820D01*
X81659987Y-115818380D01*
X81528132Y-115686525D01*
X81284911Y-115524010D01*
X81014658Y-115412068D01*
X80727760Y-115355000D01*
X80435240Y-115355000D01*
X80148342Y-115412068D01*
X79878089Y-115524010D01*
X79634868Y-115686525D01*
X79428025Y-115893368D01*
X79265510Y-116136589D01*
X79153568Y-116406842D01*
X79096500Y-116693740D01*
X75660000Y-116693740D01*
X75660000Y-112369261D01*
X97313800Y-112369261D01*
X97313800Y-112573139D01*
X97353574Y-112773098D01*
X97431595Y-112961456D01*
X97544863Y-113130974D01*
X97689026Y-113275137D01*
X97858544Y-113388405D01*
X98046902Y-113466426D01*
X98246861Y-113506200D01*
X98450739Y-113506200D01*
X98650698Y-113466426D01*
X98839056Y-113388405D01*
X99008574Y-113275137D01*
X99152737Y-113130974D01*
X99266005Y-112961456D01*
X99344026Y-112773098D01*
X99383800Y-112573139D01*
X99383800Y-112369261D01*
X99344026Y-112169302D01*
X99266005Y-111980944D01*
X99152737Y-111811426D01*
X99008574Y-111667263D01*
X98839056Y-111553995D01*
X98650698Y-111475974D01*
X98450739Y-111436200D01*
X98246861Y-111436200D01*
X98046902Y-111475974D01*
X97858544Y-111553995D01*
X97689026Y-111667263D01*
X97544863Y-111811426D01*
X97431595Y-111980944D01*
X97353574Y-112169302D01*
X97313800Y-112369261D01*
X75660000Y-112369261D01*
X75660000Y-98400500D01*
X85697428Y-98400500D01*
X85697428Y-100100500D01*
X85709688Y-100224982D01*
X85745998Y-100344680D01*
X85804963Y-100454994D01*
X85884315Y-100551685D01*
X85981006Y-100631037D01*
X86091320Y-100690002D01*
X86211018Y-100726312D01*
X86335500Y-100738572D01*
X88035500Y-100738572D01*
X88159982Y-100726312D01*
X88279680Y-100690002D01*
X88389994Y-100631037D01*
X88486685Y-100551685D01*
X88566037Y-100454994D01*
X88625002Y-100344680D01*
X88647013Y-100272120D01*
X88778868Y-100403975D01*
X89022089Y-100566490D01*
X89292342Y-100678432D01*
X89579240Y-100735500D01*
X89871760Y-100735500D01*
X90158658Y-100678432D01*
X90428911Y-100566490D01*
X90672132Y-100403975D01*
X90878975Y-100197132D01*
X90995500Y-100022740D01*
X91112025Y-100197132D01*
X91318868Y-100403975D01*
X91562089Y-100566490D01*
X91832342Y-100678432D01*
X92119240Y-100735500D01*
X92411760Y-100735500D01*
X92698658Y-100678432D01*
X92968911Y-100566490D01*
X93212132Y-100403975D01*
X93380607Y-100235500D01*
X94588322Y-100235500D01*
X94636702Y-100240265D01*
X94685082Y-100235500D01*
X94829796Y-100221247D01*
X95015469Y-100164924D01*
X95186586Y-100073460D01*
X95336572Y-99950370D01*
X95367418Y-99912784D01*
X98729191Y-96551012D01*
X98766771Y-96520171D01*
X98889861Y-96370185D01*
X98981325Y-96199068D01*
X99037648Y-96013395D01*
X99051901Y-95868681D01*
X99051901Y-95868680D01*
X99056666Y-95820301D01*
X99051901Y-95771921D01*
X99051901Y-95396800D01*
X100481381Y-95396800D01*
X100485363Y-95402759D01*
X100685241Y-95602637D01*
X100917759Y-95758000D01*
X100685241Y-95913363D01*
X100485363Y-96113241D01*
X100328320Y-96348273D01*
X100220147Y-96609426D01*
X100165000Y-96886665D01*
X100165000Y-97169335D01*
X100220147Y-97446574D01*
X100328320Y-97707727D01*
X100485363Y-97942759D01*
X100685241Y-98142637D01*
X100917759Y-98298000D01*
X100685241Y-98453363D01*
X100485363Y-98653241D01*
X100328320Y-98888273D01*
X100220147Y-99149426D01*
X100165000Y-99426665D01*
X100165000Y-99709335D01*
X100220147Y-99986574D01*
X100328320Y-100247727D01*
X100485363Y-100482759D01*
X100685241Y-100682637D01*
X100917759Y-100838000D01*
X100685241Y-100993363D01*
X100485363Y-101193241D01*
X100328320Y-101428273D01*
X100220147Y-101689426D01*
X100165000Y-101966665D01*
X100165000Y-102249335D01*
X100220147Y-102526574D01*
X100328320Y-102787727D01*
X100485363Y-103022759D01*
X100685241Y-103222637D01*
X100917759Y-103378000D01*
X100685241Y-103533363D01*
X100485363Y-103733241D01*
X100328320Y-103968273D01*
X100220147Y-104229426D01*
X100165000Y-104506665D01*
X100165000Y-104789335D01*
X100220147Y-105066574D01*
X100328320Y-105327727D01*
X100485363Y-105562759D01*
X100685241Y-105762637D01*
X100917759Y-105918000D01*
X100685241Y-106073363D01*
X100485363Y-106273241D01*
X100328320Y-106508273D01*
X100220147Y-106769426D01*
X100165000Y-107046665D01*
X100165000Y-107329335D01*
X100220147Y-107606574D01*
X100328320Y-107867727D01*
X100485363Y-108102759D01*
X100685241Y-108302637D01*
X100917759Y-108458000D01*
X100685241Y-108613363D01*
X100485363Y-108813241D01*
X100328320Y-109048273D01*
X100220147Y-109309426D01*
X100165000Y-109586665D01*
X100165000Y-109869335D01*
X100220147Y-110146574D01*
X100328320Y-110407727D01*
X100485363Y-110642759D01*
X100685241Y-110842637D01*
X100917759Y-110998000D01*
X100685241Y-111153363D01*
X100485363Y-111353241D01*
X100328320Y-111588273D01*
X100220147Y-111849426D01*
X100165000Y-112126665D01*
X100165000Y-112409335D01*
X100220147Y-112686574D01*
X100328320Y-112947727D01*
X100485363Y-113182759D01*
X100685241Y-113382637D01*
X100917759Y-113538000D01*
X100685241Y-113693363D01*
X100485363Y-113893241D01*
X100328320Y-114128273D01*
X100220147Y-114389426D01*
X100165000Y-114666665D01*
X100165000Y-114949335D01*
X100220147Y-115226574D01*
X100328320Y-115487727D01*
X100485363Y-115722759D01*
X100685241Y-115922637D01*
X100917759Y-116078000D01*
X100685241Y-116233363D01*
X100485363Y-116433241D01*
X100328320Y-116668273D01*
X100220147Y-116929426D01*
X100189334Y-117084334D01*
X99219216Y-116114216D01*
X99188370Y-116076630D01*
X99038384Y-115953540D01*
X98867267Y-115862076D01*
X98681594Y-115805753D01*
X98536880Y-115791500D01*
X98488500Y-115786735D01*
X98440120Y-115791500D01*
X97000107Y-115791500D01*
X96831632Y-115623025D01*
X96588411Y-115460510D01*
X96318158Y-115348568D01*
X96031260Y-115291500D01*
X95738740Y-115291500D01*
X95451842Y-115348568D01*
X95181589Y-115460510D01*
X94938368Y-115623025D01*
X94731525Y-115829868D01*
X94615000Y-116004260D01*
X94498475Y-115829868D01*
X94291632Y-115623025D01*
X94048411Y-115460510D01*
X93778158Y-115348568D01*
X93491260Y-115291500D01*
X93198740Y-115291500D01*
X92911842Y-115348568D01*
X92641589Y-115460510D01*
X92398368Y-115623025D01*
X92266513Y-115754880D01*
X92244502Y-115682320D01*
X92185537Y-115572006D01*
X92106185Y-115475315D01*
X92009494Y-115395963D01*
X91899180Y-115336998D01*
X91779482Y-115300688D01*
X91655000Y-115288428D01*
X89955000Y-115288428D01*
X89830518Y-115300688D01*
X89710820Y-115336998D01*
X89600506Y-115395963D01*
X89503815Y-115475315D01*
X89424463Y-115572006D01*
X89365498Y-115682320D01*
X89329188Y-115802018D01*
X89316928Y-115926500D01*
X89316928Y-117626500D01*
X89329188Y-117750982D01*
X89365498Y-117870680D01*
X89424463Y-117980994D01*
X89503815Y-118077685D01*
X89600506Y-118157037D01*
X89710820Y-118216002D01*
X89830518Y-118252312D01*
X89955000Y-118264572D01*
X91655000Y-118264572D01*
X91779482Y-118252312D01*
X91899180Y-118216002D01*
X92009494Y-118157037D01*
X92106185Y-118077685D01*
X92185537Y-117980994D01*
X92244502Y-117870680D01*
X92266513Y-117798120D01*
X92398368Y-117929975D01*
X92641589Y-118092490D01*
X92911842Y-118204432D01*
X93198740Y-118261500D01*
X93491260Y-118261500D01*
X93778158Y-118204432D01*
X94048411Y-118092490D01*
X94291632Y-117929975D01*
X94498475Y-117723132D01*
X94615000Y-117548740D01*
X94731525Y-117723132D01*
X94938368Y-117929975D01*
X95181589Y-118092490D01*
X95451842Y-118204432D01*
X95738740Y-118261500D01*
X96031260Y-118261500D01*
X96318158Y-118204432D01*
X96588411Y-118092490D01*
X96831632Y-117929975D01*
X97000107Y-117761500D01*
X98080500Y-117761500D01*
X101148401Y-120829401D01*
X101148400Y-121364814D01*
X101138174Y-121389502D01*
X101098400Y-121589461D01*
X101098400Y-121793339D01*
X101138174Y-121993298D01*
X101216195Y-122181656D01*
X101329463Y-122351174D01*
X101473626Y-122495337D01*
X101643144Y-122608605D01*
X101831502Y-122686626D01*
X102031461Y-122726400D01*
X102235339Y-122726400D01*
X102435298Y-122686626D01*
X102623656Y-122608605D01*
X102793174Y-122495337D01*
X102937337Y-122351174D01*
X103050605Y-122181656D01*
X103128626Y-121993298D01*
X103168400Y-121793339D01*
X103168400Y-121589461D01*
X103128626Y-121389502D01*
X103118400Y-121364814D01*
X103118400Y-120469779D01*
X103123165Y-120421399D01*
X103104147Y-120228306D01*
X103047824Y-120042633D01*
X103024766Y-119999495D01*
X102956360Y-119871516D01*
X102833270Y-119721530D01*
X102795684Y-119690684D01*
X101863666Y-118758666D01*
X102018574Y-118727853D01*
X102279727Y-118619680D01*
X102514759Y-118462637D01*
X102714637Y-118262759D01*
X102871680Y-118027727D01*
X102979853Y-117766574D01*
X103035000Y-117489335D01*
X103035000Y-117206665D01*
X102979853Y-116929426D01*
X102871680Y-116668273D01*
X102714637Y-116433241D01*
X102514759Y-116233363D01*
X102282241Y-116078000D01*
X102514759Y-115922637D01*
X102714637Y-115722759D01*
X102871680Y-115487727D01*
X102979853Y-115226574D01*
X103035000Y-114949335D01*
X103035000Y-114666665D01*
X102979853Y-114389426D01*
X102871680Y-114128273D01*
X102714637Y-113893241D01*
X102514759Y-113693363D01*
X102282241Y-113538000D01*
X102514759Y-113382637D01*
X102714637Y-113182759D01*
X102871680Y-112947727D01*
X102979853Y-112686574D01*
X103035000Y-112409335D01*
X103035000Y-112126665D01*
X102979853Y-111849426D01*
X102871680Y-111588273D01*
X102714637Y-111353241D01*
X102514759Y-111153363D01*
X102282241Y-110998000D01*
X102514759Y-110842637D01*
X102714637Y-110642759D01*
X102871680Y-110407727D01*
X102979853Y-110146574D01*
X103035000Y-109869335D01*
X103035000Y-109586665D01*
X102979853Y-109309426D01*
X102871680Y-109048273D01*
X102714637Y-108813241D01*
X102514759Y-108613363D01*
X102282241Y-108458000D01*
X102514759Y-108302637D01*
X102714637Y-108102759D01*
X102871680Y-107867727D01*
X102979853Y-107606574D01*
X103035000Y-107329335D01*
X103035000Y-107046665D01*
X102979853Y-106769426D01*
X102871680Y-106508273D01*
X102714637Y-106273241D01*
X102514759Y-106073363D01*
X102282241Y-105918000D01*
X102514759Y-105762637D01*
X102714637Y-105562759D01*
X102871680Y-105327727D01*
X102979853Y-105066574D01*
X103035000Y-104789335D01*
X103035000Y-104506665D01*
X102979853Y-104229426D01*
X102871680Y-103968273D01*
X102714637Y-103733241D01*
X102514759Y-103533363D01*
X102282241Y-103378000D01*
X102514759Y-103222637D01*
X102714637Y-103022759D01*
X102871680Y-102787727D01*
X102979853Y-102526574D01*
X103035000Y-102249335D01*
X103035000Y-101966665D01*
X102979853Y-101689426D01*
X102871680Y-101428273D01*
X102714637Y-101193241D01*
X102514759Y-100993363D01*
X102282241Y-100838000D01*
X102514759Y-100682637D01*
X102714637Y-100482759D01*
X102871680Y-100247727D01*
X102979853Y-99986574D01*
X103035000Y-99709335D01*
X103035000Y-99426665D01*
X102979853Y-99149426D01*
X102871680Y-98888273D01*
X102714637Y-98653241D01*
X102514759Y-98453363D01*
X102282241Y-98298000D01*
X102514759Y-98142637D01*
X102714637Y-97942759D01*
X102871680Y-97707727D01*
X102979853Y-97446574D01*
X103010666Y-97291666D01*
X111283001Y-105564001D01*
X111283000Y-121618814D01*
X111272774Y-121643502D01*
X111233000Y-121843461D01*
X111233000Y-122047339D01*
X111272774Y-122247298D01*
X111350795Y-122435656D01*
X111464063Y-122605174D01*
X111608226Y-122749337D01*
X111777744Y-122862605D01*
X111966102Y-122940626D01*
X112166061Y-122980400D01*
X112369939Y-122980400D01*
X112569898Y-122940626D01*
X112594586Y-122930400D01*
X119407820Y-122930400D01*
X119456200Y-122935165D01*
X119504580Y-122930400D01*
X119649294Y-122916147D01*
X119834967Y-122859824D01*
X120006084Y-122768360D01*
X120156070Y-122645270D01*
X120186916Y-122607684D01*
X120950469Y-121844131D01*
X120975156Y-121833905D01*
X121144674Y-121720637D01*
X121288837Y-121576474D01*
X121402105Y-121406956D01*
X121480126Y-121218598D01*
X121519900Y-121018639D01*
X121519900Y-120814761D01*
X121480126Y-120614802D01*
X121469900Y-120590114D01*
X121469900Y-111698100D01*
X123655569Y-109512431D01*
X123680256Y-109502205D01*
X123849774Y-109388937D01*
X123993937Y-109244774D01*
X124107205Y-109075256D01*
X124185226Y-108886898D01*
X124225000Y-108686939D01*
X124225000Y-108483061D01*
X124185226Y-108283102D01*
X124107205Y-108094744D01*
X123993937Y-107925226D01*
X123849774Y-107781063D01*
X123680256Y-107667795D01*
X123491898Y-107589774D01*
X123291939Y-107550000D01*
X123088061Y-107550000D01*
X122888102Y-107589774D01*
X122699744Y-107667795D01*
X122530226Y-107781063D01*
X122386063Y-107925226D01*
X122272795Y-108094744D01*
X122262569Y-108119431D01*
X119822611Y-110559389D01*
X119785031Y-110590230D01*
X119661941Y-110740216D01*
X119613052Y-110831681D01*
X119570476Y-110911334D01*
X119514153Y-111097007D01*
X119495135Y-111290100D01*
X119499901Y-111338490D01*
X119499900Y-120508700D01*
X119048200Y-120960400D01*
X113253000Y-120960400D01*
X113253000Y-105204379D01*
X113257765Y-105155999D01*
X113238747Y-104962905D01*
X113225638Y-104919691D01*
X113182424Y-104777233D01*
X113090960Y-104606116D01*
X112967870Y-104456130D01*
X112930284Y-104425284D01*
X107931665Y-99426665D01*
X115405000Y-99426665D01*
X115405000Y-99709335D01*
X115460147Y-99986574D01*
X115568320Y-100247727D01*
X115725363Y-100482759D01*
X115925241Y-100682637D01*
X116157759Y-100838000D01*
X115925241Y-100993363D01*
X115725363Y-101193241D01*
X115568320Y-101428273D01*
X115460147Y-101689426D01*
X115405000Y-101966665D01*
X115405000Y-102249335D01*
X115460147Y-102526574D01*
X115568320Y-102787727D01*
X115725363Y-103022759D01*
X115925241Y-103222637D01*
X116157759Y-103378000D01*
X115925241Y-103533363D01*
X115725363Y-103733241D01*
X115568320Y-103968273D01*
X115460147Y-104229426D01*
X115405000Y-104506665D01*
X115405000Y-104789335D01*
X115460147Y-105066574D01*
X115568320Y-105327727D01*
X115725363Y-105562759D01*
X115925241Y-105762637D01*
X116157759Y-105918000D01*
X115925241Y-106073363D01*
X115725363Y-106273241D01*
X115568320Y-106508273D01*
X115460147Y-106769426D01*
X115405000Y-107046665D01*
X115405000Y-107329335D01*
X115460147Y-107606574D01*
X115568320Y-107867727D01*
X115725363Y-108102759D01*
X115925241Y-108302637D01*
X116157759Y-108458000D01*
X115925241Y-108613363D01*
X115725363Y-108813241D01*
X115568320Y-109048273D01*
X115460147Y-109309426D01*
X115405000Y-109586665D01*
X115405000Y-109869335D01*
X115460147Y-110146574D01*
X115568320Y-110407727D01*
X115725363Y-110642759D01*
X115925241Y-110842637D01*
X116157759Y-110998000D01*
X115925241Y-111153363D01*
X115725363Y-111353241D01*
X115568320Y-111588273D01*
X115460147Y-111849426D01*
X115405000Y-112126665D01*
X115405000Y-112409335D01*
X115460147Y-112686574D01*
X115568320Y-112947727D01*
X115725363Y-113182759D01*
X115925241Y-113382637D01*
X116157759Y-113538000D01*
X115925241Y-113693363D01*
X115725363Y-113893241D01*
X115568320Y-114128273D01*
X115460147Y-114389426D01*
X115405000Y-114666665D01*
X115405000Y-114949335D01*
X115460147Y-115226574D01*
X115568320Y-115487727D01*
X115725363Y-115722759D01*
X115925241Y-115922637D01*
X116157759Y-116078000D01*
X115925241Y-116233363D01*
X115725363Y-116433241D01*
X115568320Y-116668273D01*
X115460147Y-116929426D01*
X115405000Y-117206665D01*
X115405000Y-117489335D01*
X115460147Y-117766574D01*
X115568320Y-118027727D01*
X115725363Y-118262759D01*
X115925241Y-118462637D01*
X116160273Y-118619680D01*
X116421426Y-118727853D01*
X116698665Y-118783000D01*
X116981335Y-118783000D01*
X117258574Y-118727853D01*
X117519727Y-118619680D01*
X117754759Y-118462637D01*
X117954637Y-118262759D01*
X118111680Y-118027727D01*
X118219853Y-117766574D01*
X118275000Y-117489335D01*
X118275000Y-117206665D01*
X118219853Y-116929426D01*
X118111680Y-116668273D01*
X117954637Y-116433241D01*
X117754759Y-116233363D01*
X117522241Y-116078000D01*
X117754759Y-115922637D01*
X117954637Y-115722759D01*
X118111680Y-115487727D01*
X118219853Y-115226574D01*
X118275000Y-114949335D01*
X118275000Y-114666665D01*
X118219853Y-114389426D01*
X118111680Y-114128273D01*
X117954637Y-113893241D01*
X117754759Y-113693363D01*
X117522241Y-113538000D01*
X117754759Y-113382637D01*
X117954637Y-113182759D01*
X118111680Y-112947727D01*
X118219853Y-112686574D01*
X118275000Y-112409335D01*
X118275000Y-112126665D01*
X118219853Y-111849426D01*
X118111680Y-111588273D01*
X117954637Y-111353241D01*
X117754759Y-111153363D01*
X117522241Y-110998000D01*
X117754759Y-110842637D01*
X117954637Y-110642759D01*
X118111680Y-110407727D01*
X118219853Y-110146574D01*
X118275000Y-109869335D01*
X118275000Y-109586665D01*
X118219853Y-109309426D01*
X118111680Y-109048273D01*
X117954637Y-108813241D01*
X117754759Y-108613363D01*
X117522241Y-108458000D01*
X117754759Y-108302637D01*
X117954637Y-108102759D01*
X118111680Y-107867727D01*
X118219853Y-107606574D01*
X118275000Y-107329335D01*
X118275000Y-107046665D01*
X118219853Y-106769426D01*
X118111680Y-106508273D01*
X117954637Y-106273241D01*
X117754759Y-106073363D01*
X117522241Y-105918000D01*
X117754759Y-105762637D01*
X117954637Y-105562759D01*
X118111680Y-105327727D01*
X118219853Y-105066574D01*
X118275000Y-104789335D01*
X118275000Y-104506665D01*
X118219853Y-104229426D01*
X118111680Y-103968273D01*
X117954637Y-103733241D01*
X117754759Y-103533363D01*
X117522241Y-103378000D01*
X117754759Y-103222637D01*
X117954637Y-103022759D01*
X118111680Y-102787727D01*
X118219853Y-102526574D01*
X118275000Y-102249335D01*
X118275000Y-101966665D01*
X118219853Y-101689426D01*
X118111680Y-101428273D01*
X117954637Y-101193241D01*
X117754759Y-100993363D01*
X117522241Y-100838000D01*
X117754759Y-100682637D01*
X117954637Y-100482759D01*
X118111680Y-100247727D01*
X118219853Y-99986574D01*
X118275000Y-99709335D01*
X118275000Y-99426665D01*
X118219853Y-99149426D01*
X118111680Y-98888273D01*
X117954637Y-98653241D01*
X117754759Y-98453363D01*
X117519727Y-98296320D01*
X117509135Y-98291933D01*
X117695131Y-98180385D01*
X117903519Y-97991414D01*
X118071037Y-97765420D01*
X118191246Y-97511087D01*
X118231904Y-97377039D01*
X118109915Y-97155000D01*
X116967000Y-97155000D01*
X116967000Y-97175000D01*
X116713000Y-97175000D01*
X116713000Y-97155000D01*
X115570085Y-97155000D01*
X115448096Y-97377039D01*
X115488754Y-97511087D01*
X115608963Y-97765420D01*
X115776481Y-97991414D01*
X115984869Y-98180385D01*
X116170865Y-98291933D01*
X116160273Y-98296320D01*
X115925241Y-98453363D01*
X115725363Y-98653241D01*
X115568320Y-98888273D01*
X115460147Y-99149426D01*
X115405000Y-99426665D01*
X107931665Y-99426665D01*
X103035000Y-94530000D01*
X103035000Y-94446001D01*
X103612291Y-93868710D01*
X103649871Y-93837869D01*
X103772961Y-93687883D01*
X103864425Y-93516766D01*
X103920748Y-93331093D01*
X103935001Y-93186379D01*
X103939766Y-93137999D01*
X103935001Y-93089619D01*
X103935001Y-81387997D01*
X115564498Y-69758500D01*
X115568320Y-69767727D01*
X115725363Y-70002759D01*
X115925241Y-70202637D01*
X116157759Y-70358000D01*
X115925241Y-70513363D01*
X115725363Y-70713241D01*
X115568320Y-70948273D01*
X115460147Y-71209426D01*
X115405000Y-71486665D01*
X115405000Y-71769335D01*
X115460147Y-72046574D01*
X115568320Y-72307727D01*
X115725363Y-72542759D01*
X115925241Y-72742637D01*
X116157759Y-72898000D01*
X115925241Y-73053363D01*
X115725363Y-73253241D01*
X115568320Y-73488273D01*
X115460147Y-73749426D01*
X115405000Y-74026665D01*
X115405000Y-74309335D01*
X115460147Y-74586574D01*
X115568320Y-74847727D01*
X115725363Y-75082759D01*
X115925241Y-75282637D01*
X116157759Y-75438000D01*
X115925241Y-75593363D01*
X115725363Y-75793241D01*
X115568320Y-76028273D01*
X115460147Y-76289426D01*
X115405000Y-76566665D01*
X115405000Y-76849335D01*
X115460147Y-77126574D01*
X115568320Y-77387727D01*
X115725363Y-77622759D01*
X115925241Y-77822637D01*
X116157759Y-77978000D01*
X115925241Y-78133363D01*
X115725363Y-78333241D01*
X115568320Y-78568273D01*
X115460147Y-78829426D01*
X115405000Y-79106665D01*
X115405000Y-79389335D01*
X115460147Y-79666574D01*
X115568320Y-79927727D01*
X115725363Y-80162759D01*
X115925241Y-80362637D01*
X116157759Y-80518000D01*
X115925241Y-80673363D01*
X115725363Y-80873241D01*
X115568320Y-81108273D01*
X115460147Y-81369426D01*
X115405000Y-81646665D01*
X115405000Y-81929335D01*
X115460147Y-82206574D01*
X115568320Y-82467727D01*
X115725363Y-82702759D01*
X115925241Y-82902637D01*
X116157759Y-83058000D01*
X115925241Y-83213363D01*
X115725363Y-83413241D01*
X115568320Y-83648273D01*
X115460147Y-83909426D01*
X115405000Y-84186665D01*
X115405000Y-84469335D01*
X115460147Y-84746574D01*
X115568320Y-85007727D01*
X115725363Y-85242759D01*
X115925241Y-85442637D01*
X116157759Y-85598000D01*
X115925241Y-85753363D01*
X115725363Y-85953241D01*
X115568320Y-86188273D01*
X115460147Y-86449426D01*
X115405000Y-86726665D01*
X115405000Y-87009335D01*
X115460147Y-87286574D01*
X115568320Y-87547727D01*
X115725363Y-87782759D01*
X115925241Y-87982637D01*
X116157759Y-88138000D01*
X115925241Y-88293363D01*
X115725363Y-88493241D01*
X115568320Y-88728273D01*
X115460147Y-88989426D01*
X115405000Y-89266665D01*
X115405000Y-89549335D01*
X115460147Y-89826574D01*
X115568320Y-90087727D01*
X115725363Y-90322759D01*
X115925241Y-90522637D01*
X116157759Y-90678000D01*
X115925241Y-90833363D01*
X115725363Y-91033241D01*
X115568320Y-91268273D01*
X115460147Y-91529426D01*
X115405000Y-91806665D01*
X115405000Y-92089335D01*
X115460147Y-92366574D01*
X115568320Y-92627727D01*
X115725363Y-92862759D01*
X115925241Y-93062637D01*
X116157759Y-93218000D01*
X115925241Y-93373363D01*
X115725363Y-93573241D01*
X115568320Y-93808273D01*
X115460147Y-94069426D01*
X115405000Y-94346665D01*
X115405000Y-94629335D01*
X115460147Y-94906574D01*
X115568320Y-95167727D01*
X115725363Y-95402759D01*
X115925241Y-95602637D01*
X116160273Y-95759680D01*
X116170865Y-95764067D01*
X115984869Y-95875615D01*
X115776481Y-96064586D01*
X115608963Y-96290580D01*
X115488754Y-96544913D01*
X115448096Y-96678961D01*
X115570085Y-96901000D01*
X116713000Y-96901000D01*
X116713000Y-96881000D01*
X116967000Y-96881000D01*
X116967000Y-96901000D01*
X118109915Y-96901000D01*
X118231904Y-96678961D01*
X118191246Y-96544913D01*
X118071037Y-96290580D01*
X117903519Y-96064586D01*
X117695131Y-95875615D01*
X117509135Y-95764067D01*
X117519727Y-95759680D01*
X117754759Y-95602637D01*
X117954637Y-95402759D01*
X118111680Y-95167727D01*
X118219853Y-94906574D01*
X118275000Y-94629335D01*
X118275000Y-94346665D01*
X118219853Y-94069426D01*
X118111680Y-93808273D01*
X117954637Y-93573241D01*
X117754759Y-93373363D01*
X117522241Y-93218000D01*
X117754759Y-93062637D01*
X117954637Y-92862759D01*
X118111680Y-92627727D01*
X118219853Y-92366574D01*
X118275000Y-92089335D01*
X118275000Y-91806665D01*
X118219853Y-91529426D01*
X118111680Y-91268273D01*
X117954637Y-91033241D01*
X117754759Y-90833363D01*
X117522241Y-90678000D01*
X117754759Y-90522637D01*
X117954637Y-90322759D01*
X118111680Y-90087727D01*
X118219853Y-89826574D01*
X118275000Y-89549335D01*
X118275000Y-89266665D01*
X118219853Y-88989426D01*
X118111680Y-88728273D01*
X117954637Y-88493241D01*
X117754759Y-88293363D01*
X117522241Y-88138000D01*
X117754759Y-87982637D01*
X117954637Y-87782759D01*
X118111680Y-87547727D01*
X118219853Y-87286574D01*
X118275000Y-87009335D01*
X118275000Y-86726665D01*
X118219853Y-86449426D01*
X118111680Y-86188273D01*
X117954637Y-85953241D01*
X117754759Y-85753363D01*
X117522241Y-85598000D01*
X117754759Y-85442637D01*
X117954637Y-85242759D01*
X118111680Y-85007727D01*
X118219853Y-84746574D01*
X118275000Y-84469335D01*
X118275000Y-84186665D01*
X118219853Y-83909426D01*
X118111680Y-83648273D01*
X117954637Y-83413241D01*
X117754759Y-83213363D01*
X117522241Y-83058000D01*
X117754759Y-82902637D01*
X117954637Y-82702759D01*
X118111680Y-82467727D01*
X118219853Y-82206574D01*
X118275000Y-81929335D01*
X118275000Y-81646665D01*
X118219853Y-81369426D01*
X118111680Y-81108273D01*
X117954637Y-80873241D01*
X117754759Y-80673363D01*
X117522241Y-80518000D01*
X117754759Y-80362637D01*
X117954637Y-80162759D01*
X118111680Y-79927727D01*
X118219853Y-79666574D01*
X118275000Y-79389335D01*
X118275000Y-79106665D01*
X118219853Y-78829426D01*
X118111680Y-78568273D01*
X117954637Y-78333241D01*
X117754759Y-78133363D01*
X117522241Y-77978000D01*
X117754759Y-77822637D01*
X117954637Y-77622759D01*
X118111680Y-77387727D01*
X118219853Y-77126574D01*
X118275000Y-76849335D01*
X118275000Y-76566665D01*
X118219853Y-76289426D01*
X118111680Y-76028273D01*
X117954637Y-75793241D01*
X117754759Y-75593363D01*
X117522241Y-75438000D01*
X117754759Y-75282637D01*
X117954637Y-75082759D01*
X118111680Y-74847727D01*
X118219853Y-74586574D01*
X118275000Y-74309335D01*
X118275000Y-74026665D01*
X118219853Y-73749426D01*
X118111680Y-73488273D01*
X117954637Y-73253241D01*
X117754759Y-73053363D01*
X117522241Y-72898000D01*
X117754759Y-72742637D01*
X117954637Y-72542759D01*
X118111680Y-72307727D01*
X118219853Y-72046574D01*
X118275000Y-71769335D01*
X118275000Y-71486665D01*
X118219853Y-71209426D01*
X118111680Y-70948273D01*
X117954637Y-70713241D01*
X117754759Y-70513363D01*
X117522241Y-70358000D01*
X117754759Y-70202637D01*
X117954637Y-70002759D01*
X118111680Y-69767727D01*
X118219853Y-69506574D01*
X118275000Y-69229335D01*
X118275000Y-68946665D01*
X118230509Y-68722999D01*
X121308399Y-68722999D01*
X123818899Y-71233499D01*
X120843499Y-71233499D01*
X120793537Y-71158726D01*
X120649374Y-71014563D01*
X120479856Y-70901295D01*
X120291498Y-70823274D01*
X120091539Y-70783500D01*
X119887661Y-70783500D01*
X119687702Y-70823274D01*
X119499344Y-70901295D01*
X119329826Y-71014563D01*
X119185663Y-71158726D01*
X119072395Y-71328244D01*
X118994374Y-71516602D01*
X118954600Y-71716561D01*
X118954600Y-71920439D01*
X118994374Y-72120398D01*
X119072395Y-72308756D01*
X119185663Y-72478274D01*
X119329826Y-72622437D01*
X119499344Y-72735705D01*
X119524032Y-72745931D01*
X119658879Y-72880779D01*
X119689729Y-72918369D01*
X119839715Y-73041459D01*
X120010832Y-73132923D01*
X120196505Y-73189246D01*
X120389598Y-73208264D01*
X120437978Y-73203499D01*
X127681921Y-73203499D01*
X127730301Y-73208264D01*
X127778681Y-73203499D01*
X127923395Y-73189246D01*
X128109068Y-73132923D01*
X128280185Y-73041459D01*
X128430171Y-72918369D01*
X128461018Y-72880782D01*
X128627480Y-72714319D01*
X128665070Y-72683470D01*
X128788160Y-72533484D01*
X128879624Y-72362367D01*
X128929707Y-72197266D01*
X128935947Y-72176695D01*
X128954965Y-71983601D01*
X128950200Y-71935221D01*
X128950200Y-67166686D01*
X128960426Y-67141998D01*
X129000200Y-66942039D01*
X129000200Y-66738161D01*
X128960426Y-66538202D01*
X128882405Y-66349844D01*
X128769137Y-66180326D01*
X128624974Y-66036163D01*
X128455456Y-65922895D01*
X128433631Y-65913855D01*
X128311884Y-65813940D01*
X128140767Y-65722476D01*
X127955094Y-65666153D01*
X127810380Y-65651900D01*
X127762000Y-65647135D01*
X127713620Y-65651900D01*
X97240286Y-65651900D01*
X97215598Y-65641674D01*
X97015639Y-65601900D01*
X96811761Y-65601900D01*
X96611802Y-65641674D01*
X96423444Y-65719695D01*
X96253926Y-65832963D01*
X96109763Y-65977126D01*
X95996495Y-66146644D01*
X95986269Y-66171331D01*
X92733800Y-69423800D01*
X88223286Y-69423800D01*
X88198598Y-69413574D01*
X87998639Y-69373800D01*
X87794761Y-69373800D01*
X87594802Y-69413574D01*
X87406444Y-69491595D01*
X87236926Y-69604863D01*
X87092763Y-69749026D01*
X86979495Y-69918544D01*
X86969269Y-69943231D01*
X86929612Y-69982888D01*
X86892031Y-70013730D01*
X86768941Y-70163716D01*
X86741152Y-70215706D01*
X86677476Y-70334834D01*
X86621153Y-70520507D01*
X86602135Y-70713600D01*
X86606901Y-70761990D01*
X86606900Y-74324014D01*
X86596674Y-74348702D01*
X86556900Y-74548661D01*
X86556900Y-74752539D01*
X86596674Y-74952498D01*
X86674695Y-75140856D01*
X86787963Y-75310374D01*
X86932126Y-75454537D01*
X87101644Y-75567805D01*
X87290002Y-75645826D01*
X87489961Y-75685600D01*
X87693839Y-75685600D01*
X87893798Y-75645826D01*
X88082156Y-75567805D01*
X88251674Y-75454537D01*
X88395837Y-75310374D01*
X88509105Y-75140856D01*
X88587126Y-74952498D01*
X88626900Y-74752539D01*
X88626900Y-74548661D01*
X88587126Y-74348702D01*
X88576900Y-74324014D01*
X88576900Y-71393800D01*
X93093420Y-71393800D01*
X93141800Y-71398565D01*
X93190180Y-71393800D01*
X93334894Y-71379547D01*
X93520567Y-71323224D01*
X93691684Y-71231760D01*
X93841670Y-71108670D01*
X93872516Y-71071084D01*
X97321700Y-67621900D01*
X114915098Y-67621900D01*
X103007025Y-79529973D01*
X103035000Y-79389335D01*
X103035000Y-79106665D01*
X102979853Y-78829426D01*
X102871680Y-78568273D01*
X102714637Y-78333241D01*
X102514759Y-78133363D01*
X102282241Y-77978000D01*
X102514759Y-77822637D01*
X102714637Y-77622759D01*
X102871680Y-77387727D01*
X102979853Y-77126574D01*
X103035000Y-76849335D01*
X103035000Y-76566665D01*
X102979853Y-76289426D01*
X102871680Y-76028273D01*
X102714637Y-75793241D01*
X102514759Y-75593363D01*
X102282241Y-75438000D01*
X102514759Y-75282637D01*
X102714637Y-75082759D01*
X102871680Y-74847727D01*
X102979853Y-74586574D01*
X103035000Y-74309335D01*
X103035000Y-74026665D01*
X102979853Y-73749426D01*
X102871680Y-73488273D01*
X102714637Y-73253241D01*
X102514759Y-73053363D01*
X102282241Y-72898000D01*
X102514759Y-72742637D01*
X102714637Y-72542759D01*
X102871680Y-72307727D01*
X102979853Y-72046574D01*
X103035000Y-71769335D01*
X103035000Y-71486665D01*
X102979853Y-71209426D01*
X102871680Y-70948273D01*
X102714637Y-70713241D01*
X102516039Y-70514643D01*
X102524482Y-70513812D01*
X102644180Y-70477502D01*
X102754494Y-70418537D01*
X102851185Y-70339185D01*
X102930537Y-70242494D01*
X102989502Y-70132180D01*
X103025812Y-70012482D01*
X103038072Y-69888000D01*
X103038072Y-68288000D01*
X103025812Y-68163518D01*
X102989502Y-68043820D01*
X102930537Y-67933506D01*
X102851185Y-67836815D01*
X102754494Y-67757463D01*
X102644180Y-67698498D01*
X102524482Y-67662188D01*
X102400000Y-67649928D01*
X100800000Y-67649928D01*
X100675518Y-67662188D01*
X100555820Y-67698498D01*
X100445506Y-67757463D01*
X100348815Y-67836815D01*
X100269463Y-67933506D01*
X100210498Y-68043820D01*
X100174188Y-68163518D01*
X100161928Y-68288000D01*
X100161928Y-69888000D01*
X100174188Y-70012482D01*
X100210498Y-70132180D01*
X100269463Y-70242494D01*
X100348815Y-70339185D01*
X100445506Y-70418537D01*
X100555820Y-70477502D01*
X100675518Y-70513812D01*
X100683961Y-70514643D01*
X100485363Y-70713241D01*
X100328320Y-70948273D01*
X100220147Y-71209426D01*
X100165000Y-71486665D01*
X100165000Y-71769335D01*
X100187809Y-71884000D01*
X93921711Y-71884000D01*
X93877774Y-71840063D01*
X93708256Y-71726795D01*
X93519898Y-71648774D01*
X93319939Y-71609000D01*
X93116061Y-71609000D01*
X92916102Y-71648774D01*
X92727744Y-71726795D01*
X92558226Y-71840063D01*
X92414063Y-71984226D01*
X92300795Y-72153744D01*
X92222774Y-72342102D01*
X92183000Y-72542061D01*
X92183000Y-72745939D01*
X92222774Y-72945898D01*
X92300795Y-73134256D01*
X92414063Y-73303774D01*
X92558226Y-73447937D01*
X92727744Y-73561205D01*
X92916102Y-73639226D01*
X93116061Y-73679000D01*
X93319939Y-73679000D01*
X93519898Y-73639226D01*
X93708256Y-73561205D01*
X93877774Y-73447937D01*
X93921711Y-73404000D01*
X100384629Y-73404000D01*
X100381957Y-73408000D01*
X95541322Y-73408000D01*
X95503999Y-73404324D01*
X95466676Y-73408000D01*
X95466667Y-73408000D01*
X95355014Y-73418997D01*
X95211753Y-73462454D01*
X95079724Y-73533026D01*
X94963999Y-73627999D01*
X94940201Y-73656997D01*
X93178199Y-75419000D01*
X93116061Y-75419000D01*
X92916102Y-75458774D01*
X92727744Y-75536795D01*
X92558226Y-75650063D01*
X92414063Y-75794226D01*
X92300795Y-75963744D01*
X92222774Y-76152102D01*
X92183000Y-76352061D01*
X92183000Y-76555939D01*
X92222774Y-76755898D01*
X92300795Y-76944256D01*
X92414063Y-77113774D01*
X92558226Y-77257937D01*
X92727744Y-77371205D01*
X92916102Y-77449226D01*
X93116061Y-77489000D01*
X93319939Y-77489000D01*
X93519898Y-77449226D01*
X93708256Y-77371205D01*
X93877774Y-77257937D01*
X94021937Y-77113774D01*
X94135205Y-76944256D01*
X94213226Y-76755898D01*
X94253000Y-76555939D01*
X94253000Y-76493801D01*
X95818802Y-74928000D01*
X100381957Y-74928000D01*
X100485363Y-75082759D01*
X100685241Y-75282637D01*
X100917759Y-75438000D01*
X100685241Y-75593363D01*
X100485363Y-75793241D01*
X100328320Y-76028273D01*
X100220147Y-76289426D01*
X100165000Y-76566665D01*
X100165000Y-76849335D01*
X100220147Y-77126574D01*
X100328320Y-77387727D01*
X100485363Y-77622759D01*
X100685241Y-77822637D01*
X100917759Y-77978000D01*
X100685241Y-78133363D01*
X100485363Y-78333241D01*
X100328320Y-78568273D01*
X100220147Y-78829426D01*
X100165000Y-79106665D01*
X100165000Y-79389335D01*
X100220147Y-79666574D01*
X100328320Y-79927727D01*
X100485363Y-80162759D01*
X100685241Y-80362637D01*
X100917759Y-80518000D01*
X100685241Y-80673363D01*
X100485363Y-80873241D01*
X100328320Y-81108273D01*
X100220147Y-81369426D01*
X100165000Y-81646665D01*
X100165000Y-81929335D01*
X100220147Y-82206574D01*
X100328320Y-82467727D01*
X100485363Y-82702759D01*
X100685241Y-82902637D01*
X100917759Y-83058000D01*
X100685241Y-83213363D01*
X100485363Y-83413241D01*
X100328320Y-83648273D01*
X100220147Y-83909426D01*
X100165000Y-84186665D01*
X100165000Y-84469335D01*
X100220147Y-84746574D01*
X100328320Y-85007727D01*
X100485363Y-85242759D01*
X100685241Y-85442637D01*
X100917759Y-85598000D01*
X100685241Y-85753363D01*
X100485363Y-85953241D01*
X100328320Y-86188273D01*
X100220147Y-86449426D01*
X100165000Y-86726665D01*
X100165000Y-87009335D01*
X100220147Y-87286574D01*
X100328320Y-87547727D01*
X100485363Y-87782759D01*
X100598404Y-87895800D01*
X94256300Y-87895800D01*
X97633271Y-84518830D01*
X97657956Y-84508605D01*
X97827474Y-84395337D01*
X97971637Y-84251174D01*
X98084905Y-84081656D01*
X98162926Y-83893298D01*
X98202700Y-83693339D01*
X98202700Y-83489461D01*
X98162926Y-83289502D01*
X98084905Y-83101144D01*
X97971637Y-82931626D01*
X97827474Y-82787463D01*
X97657956Y-82674195D01*
X97469598Y-82596174D01*
X97269639Y-82556400D01*
X97065761Y-82556400D01*
X96865802Y-82596174D01*
X96677444Y-82674195D01*
X96507926Y-82787463D01*
X96363763Y-82931626D01*
X96250495Y-83101144D01*
X96240270Y-83125829D01*
X92652800Y-86713300D01*
X89031286Y-86713300D01*
X89006598Y-86703074D01*
X88806639Y-86663300D01*
X88602761Y-86663300D01*
X88402802Y-86703074D01*
X88214444Y-86781095D01*
X88170500Y-86810457D01*
X88170500Y-85857298D01*
X96754698Y-77273100D01*
X96888639Y-77273100D01*
X97088598Y-77233326D01*
X97276956Y-77155305D01*
X97446474Y-77042037D01*
X97590637Y-76897874D01*
X97703905Y-76728356D01*
X97781926Y-76539998D01*
X97821700Y-76340039D01*
X97821700Y-76136161D01*
X97781926Y-75936202D01*
X97703905Y-75747844D01*
X97590637Y-75578326D01*
X97446474Y-75434163D01*
X97276956Y-75320895D01*
X97088598Y-75242874D01*
X96888639Y-75203100D01*
X96684761Y-75203100D01*
X96484802Y-75242874D01*
X96460114Y-75253100D01*
X96445077Y-75253100D01*
X96396697Y-75248335D01*
X96203604Y-75267353D01*
X96017931Y-75323676D01*
X95846814Y-75415140D01*
X95696828Y-75538230D01*
X95665982Y-75575816D01*
X86523211Y-84718587D01*
X86485631Y-84749428D01*
X86362541Y-84899414D01*
X86349977Y-84922920D01*
X86271076Y-85070532D01*
X86214753Y-85256205D01*
X86195735Y-85449298D01*
X86200501Y-85497688D01*
X86200500Y-97777879D01*
X86091320Y-97810998D01*
X85981006Y-97869963D01*
X85884315Y-97949315D01*
X85804963Y-98046006D01*
X85745998Y-98156320D01*
X85709688Y-98276018D01*
X85697428Y-98400500D01*
X75660000Y-98400500D01*
X75660000Y-85167100D01*
X77582128Y-85167100D01*
X77582128Y-86867100D01*
X77594388Y-86991582D01*
X77630698Y-87111280D01*
X77689663Y-87221594D01*
X77769015Y-87318285D01*
X77865706Y-87397637D01*
X77976020Y-87456602D01*
X78095718Y-87492912D01*
X78220200Y-87505172D01*
X79920200Y-87505172D01*
X80044682Y-87492912D01*
X80164380Y-87456602D01*
X80274694Y-87397637D01*
X80371385Y-87318285D01*
X80450737Y-87221594D01*
X80509702Y-87111280D01*
X80546012Y-86991582D01*
X80558272Y-86867100D01*
X80558272Y-85167100D01*
X80546012Y-85042618D01*
X80509702Y-84922920D01*
X80450737Y-84812606D01*
X80371385Y-84715915D01*
X80274694Y-84636563D01*
X80164380Y-84577598D01*
X80091820Y-84555587D01*
X80223675Y-84423732D01*
X80386190Y-84180511D01*
X80498132Y-83910258D01*
X80555200Y-83623360D01*
X80555200Y-83330840D01*
X80498132Y-83043942D01*
X80386190Y-82773689D01*
X80223675Y-82530468D01*
X80016832Y-82323625D01*
X79842440Y-82207100D01*
X80016832Y-82090575D01*
X80223675Y-81883732D01*
X80386190Y-81640511D01*
X80498132Y-81370258D01*
X80555200Y-81083360D01*
X80555200Y-80790840D01*
X80498132Y-80503942D01*
X80386190Y-80233689D01*
X80223675Y-79990468D01*
X80016832Y-79783625D01*
X79842440Y-79667100D01*
X80016832Y-79550575D01*
X80223675Y-79343732D01*
X80386190Y-79100511D01*
X80498132Y-78830258D01*
X80555200Y-78543360D01*
X80555200Y-78250840D01*
X80498132Y-77963942D01*
X80386190Y-77693689D01*
X80223675Y-77450468D01*
X80016832Y-77243625D01*
X79842440Y-77127100D01*
X80016832Y-77010575D01*
X80223675Y-76803732D01*
X80386190Y-76560511D01*
X80498132Y-76290258D01*
X80555200Y-76003360D01*
X80555200Y-75710840D01*
X80498132Y-75423942D01*
X80386190Y-75153689D01*
X80223675Y-74910468D01*
X80016832Y-74703625D01*
X79842440Y-74587100D01*
X80016832Y-74470575D01*
X80223675Y-74263732D01*
X80386190Y-74020511D01*
X80498132Y-73750258D01*
X80555200Y-73463360D01*
X80555200Y-73170840D01*
X80498132Y-72883942D01*
X80386190Y-72613689D01*
X80223675Y-72370468D01*
X80016832Y-72163625D01*
X79842440Y-72047100D01*
X80016832Y-71930575D01*
X80223675Y-71723732D01*
X80386190Y-71480511D01*
X80498132Y-71210258D01*
X80555200Y-70923360D01*
X80555200Y-70630840D01*
X80498132Y-70343942D01*
X80386190Y-70073689D01*
X80223675Y-69830468D01*
X80016832Y-69623625D01*
X79842440Y-69507100D01*
X80016832Y-69390575D01*
X80223675Y-69183732D01*
X80386190Y-68940511D01*
X80498132Y-68670258D01*
X80555200Y-68383360D01*
X80555200Y-68090840D01*
X80498132Y-67803942D01*
X80386190Y-67533689D01*
X80305215Y-67412500D01*
X81442928Y-67412500D01*
X81442928Y-69112500D01*
X81455188Y-69236982D01*
X81491498Y-69356680D01*
X81550463Y-69466994D01*
X81629815Y-69563685D01*
X81726506Y-69643037D01*
X81836820Y-69702002D01*
X81909380Y-69724013D01*
X81777525Y-69855868D01*
X81615010Y-70099089D01*
X81503068Y-70369342D01*
X81446000Y-70656240D01*
X81446000Y-70948760D01*
X81503068Y-71235658D01*
X81615010Y-71505911D01*
X81777525Y-71749132D01*
X81984368Y-71955975D01*
X82158760Y-72072500D01*
X81984368Y-72189025D01*
X81777525Y-72395868D01*
X81615010Y-72639089D01*
X81503068Y-72909342D01*
X81446000Y-73196240D01*
X81446000Y-73488760D01*
X81503068Y-73775658D01*
X81615010Y-74045911D01*
X81777525Y-74289132D01*
X81984368Y-74495975D01*
X82158760Y-74612500D01*
X81984368Y-74729025D01*
X81777525Y-74935868D01*
X81615010Y-75179089D01*
X81503068Y-75449342D01*
X81446000Y-75736240D01*
X81446000Y-76028760D01*
X81503068Y-76315658D01*
X81615010Y-76585911D01*
X81777525Y-76829132D01*
X81984368Y-77035975D01*
X82158760Y-77152500D01*
X81984368Y-77269025D01*
X81777525Y-77475868D01*
X81615010Y-77719089D01*
X81503068Y-77989342D01*
X81446000Y-78276240D01*
X81446000Y-78568760D01*
X81503068Y-78855658D01*
X81615010Y-79125911D01*
X81777525Y-79369132D01*
X81984368Y-79575975D01*
X82158760Y-79692500D01*
X81984368Y-79809025D01*
X81777525Y-80015868D01*
X81615010Y-80259089D01*
X81503068Y-80529342D01*
X81446000Y-80816240D01*
X81446000Y-81108760D01*
X81503068Y-81395658D01*
X81615010Y-81665911D01*
X81777525Y-81909132D01*
X81984368Y-82115975D01*
X82158760Y-82232500D01*
X81984368Y-82349025D01*
X81777525Y-82555868D01*
X81615010Y-82799089D01*
X81503068Y-83069342D01*
X81446000Y-83356240D01*
X81446000Y-83648760D01*
X81503068Y-83935658D01*
X81615010Y-84205911D01*
X81777525Y-84449132D01*
X81984368Y-84655975D01*
X82158760Y-84772500D01*
X81984368Y-84889025D01*
X81777525Y-85095868D01*
X81615010Y-85339089D01*
X81503068Y-85609342D01*
X81446000Y-85896240D01*
X81446000Y-86188760D01*
X81503068Y-86475658D01*
X81615010Y-86745911D01*
X81777525Y-86989132D01*
X81984368Y-87195975D01*
X82227589Y-87358490D01*
X82497842Y-87470432D01*
X82784740Y-87527500D01*
X83077260Y-87527500D01*
X83364158Y-87470432D01*
X83634411Y-87358490D01*
X83877632Y-87195975D01*
X84084475Y-86989132D01*
X84246990Y-86745911D01*
X84358932Y-86475658D01*
X84416000Y-86188760D01*
X84416000Y-85896240D01*
X84358932Y-85609342D01*
X84246990Y-85339089D01*
X84084475Y-85095868D01*
X83877632Y-84889025D01*
X83703240Y-84772500D01*
X83877632Y-84655975D01*
X84084475Y-84449132D01*
X84246990Y-84205911D01*
X84358932Y-83935658D01*
X84416000Y-83648760D01*
X84416000Y-83356240D01*
X84358932Y-83069342D01*
X84246990Y-82799089D01*
X84084475Y-82555868D01*
X83877632Y-82349025D01*
X83703240Y-82232500D01*
X83877632Y-82115975D01*
X84084475Y-81909132D01*
X84246990Y-81665911D01*
X84358932Y-81395658D01*
X84416000Y-81108760D01*
X84416000Y-80816240D01*
X84358932Y-80529342D01*
X84246990Y-80259089D01*
X84084475Y-80015868D01*
X83877632Y-79809025D01*
X83703240Y-79692500D01*
X83877632Y-79575975D01*
X84084475Y-79369132D01*
X84246990Y-79125911D01*
X84358932Y-78855658D01*
X84416000Y-78568760D01*
X84416000Y-78276240D01*
X84358932Y-77989342D01*
X84246990Y-77719089D01*
X84084475Y-77475868D01*
X83877632Y-77269025D01*
X83703240Y-77152500D01*
X83877632Y-77035975D01*
X84084475Y-76829132D01*
X84246990Y-76585911D01*
X84358932Y-76315658D01*
X84416000Y-76028760D01*
X84416000Y-75736240D01*
X84358932Y-75449342D01*
X84246990Y-75179089D01*
X84084475Y-74935868D01*
X83877632Y-74729025D01*
X83703240Y-74612500D01*
X83877632Y-74495975D01*
X84084475Y-74289132D01*
X84246990Y-74045911D01*
X84358932Y-73775658D01*
X84416000Y-73488760D01*
X84416000Y-73196240D01*
X84358932Y-72909342D01*
X84246990Y-72639089D01*
X84084475Y-72395868D01*
X83877632Y-72189025D01*
X83703240Y-72072500D01*
X83877632Y-71955975D01*
X84084475Y-71749132D01*
X84246990Y-71505911D01*
X84358932Y-71235658D01*
X84416000Y-70948760D01*
X84416000Y-70656240D01*
X84358932Y-70369342D01*
X84246990Y-70099089D01*
X84084475Y-69855868D01*
X83952620Y-69724013D01*
X84025180Y-69702002D01*
X84135494Y-69643037D01*
X84232185Y-69563685D01*
X84311537Y-69466994D01*
X84370502Y-69356680D01*
X84406812Y-69236982D01*
X84419072Y-69112500D01*
X84419072Y-67412500D01*
X84406812Y-67288018D01*
X84370502Y-67168320D01*
X84311537Y-67058006D01*
X84232185Y-66961315D01*
X84135494Y-66881963D01*
X84025180Y-66822998D01*
X83905482Y-66786688D01*
X83781000Y-66774428D01*
X82081000Y-66774428D01*
X81956518Y-66786688D01*
X81836820Y-66822998D01*
X81726506Y-66881963D01*
X81629815Y-66961315D01*
X81550463Y-67058006D01*
X81491498Y-67168320D01*
X81455188Y-67288018D01*
X81442928Y-67412500D01*
X80305215Y-67412500D01*
X80223675Y-67290468D01*
X80016832Y-67083625D01*
X79773611Y-66921110D01*
X79503358Y-66809168D01*
X79216460Y-66752100D01*
X78923940Y-66752100D01*
X78637042Y-66809168D01*
X78366789Y-66921110D01*
X78123568Y-67083625D01*
X77916725Y-67290468D01*
X77754210Y-67533689D01*
X77642268Y-67803942D01*
X77585200Y-68090840D01*
X77585200Y-68383360D01*
X77642268Y-68670258D01*
X77754210Y-68940511D01*
X77916725Y-69183732D01*
X78123568Y-69390575D01*
X78297960Y-69507100D01*
X78123568Y-69623625D01*
X77916725Y-69830468D01*
X77754210Y-70073689D01*
X77642268Y-70343942D01*
X77585200Y-70630840D01*
X77585200Y-70923360D01*
X77642268Y-71210258D01*
X77754210Y-71480511D01*
X77916725Y-71723732D01*
X78123568Y-71930575D01*
X78297960Y-72047100D01*
X78123568Y-72163625D01*
X77916725Y-72370468D01*
X77754210Y-72613689D01*
X77642268Y-72883942D01*
X77585200Y-73170840D01*
X77585200Y-73463360D01*
X77642268Y-73750258D01*
X77754210Y-74020511D01*
X77916725Y-74263732D01*
X78123568Y-74470575D01*
X78297960Y-74587100D01*
X78123568Y-74703625D01*
X77916725Y-74910468D01*
X77754210Y-75153689D01*
X77642268Y-75423942D01*
X77585200Y-75710840D01*
X77585200Y-76003360D01*
X77642268Y-76290258D01*
X77754210Y-76560511D01*
X77916725Y-76803732D01*
X78123568Y-77010575D01*
X78297960Y-77127100D01*
X78123568Y-77243625D01*
X77916725Y-77450468D01*
X77754210Y-77693689D01*
X77642268Y-77963942D01*
X77585200Y-78250840D01*
X77585200Y-78543360D01*
X77642268Y-78830258D01*
X77754210Y-79100511D01*
X77916725Y-79343732D01*
X78123568Y-79550575D01*
X78297960Y-79667100D01*
X78123568Y-79783625D01*
X77916725Y-79990468D01*
X77754210Y-80233689D01*
X77642268Y-80503942D01*
X77585200Y-80790840D01*
X77585200Y-81083360D01*
X77642268Y-81370258D01*
X77754210Y-81640511D01*
X77916725Y-81883732D01*
X78123568Y-82090575D01*
X78297960Y-82207100D01*
X78123568Y-82323625D01*
X77916725Y-82530468D01*
X77754210Y-82773689D01*
X77642268Y-83043942D01*
X77585200Y-83330840D01*
X77585200Y-83623360D01*
X77642268Y-83910258D01*
X77754210Y-84180511D01*
X77916725Y-84423732D01*
X78048580Y-84555587D01*
X77976020Y-84577598D01*
X77865706Y-84636563D01*
X77769015Y-84715915D01*
X77689663Y-84812606D01*
X77630698Y-84922920D01*
X77594388Y-85042618D01*
X77582128Y-85167100D01*
X75660000Y-85167100D01*
X75660000Y-58718240D01*
X77763000Y-58718240D01*
X77763000Y-59010760D01*
X77820068Y-59297658D01*
X77932010Y-59567911D01*
X78094525Y-59811132D01*
X78301368Y-60017975D01*
X78544589Y-60180490D01*
X78814842Y-60292432D01*
X79101740Y-60349500D01*
X79394260Y-60349500D01*
X79681158Y-60292432D01*
X79951411Y-60180490D01*
X80194632Y-60017975D01*
X80401475Y-59811132D01*
X80518000Y-59636740D01*
X80634525Y-59811132D01*
X80841368Y-60017975D01*
X81084589Y-60180490D01*
X81354842Y-60292432D01*
X81641740Y-60349500D01*
X81934260Y-60349500D01*
X82221158Y-60292432D01*
X82491411Y-60180490D01*
X82734632Y-60017975D01*
X82941475Y-59811132D01*
X83058000Y-59636740D01*
X83174525Y-59811132D01*
X83381368Y-60017975D01*
X83624589Y-60180490D01*
X83894842Y-60292432D01*
X84181740Y-60349500D01*
X84474260Y-60349500D01*
X84761158Y-60292432D01*
X85031411Y-60180490D01*
X85274632Y-60017975D01*
X85481475Y-59811132D01*
X85598000Y-59636740D01*
X85714525Y-59811132D01*
X85921368Y-60017975D01*
X86164589Y-60180490D01*
X86434842Y-60292432D01*
X86721740Y-60349500D01*
X87014260Y-60349500D01*
X87301158Y-60292432D01*
X87571411Y-60180490D01*
X87814632Y-60017975D01*
X88021475Y-59811132D01*
X88138000Y-59636740D01*
X88254525Y-59811132D01*
X88461368Y-60017975D01*
X88704589Y-60180490D01*
X88974842Y-60292432D01*
X89261740Y-60349500D01*
X89554260Y-60349500D01*
X89841158Y-60292432D01*
X90111411Y-60180490D01*
X90354632Y-60017975D01*
X90561475Y-59811132D01*
X90678000Y-59636740D01*
X90794525Y-59811132D01*
X91001368Y-60017975D01*
X91244589Y-60180490D01*
X91514842Y-60292432D01*
X91801740Y-60349500D01*
X92094260Y-60349500D01*
X92381158Y-60292432D01*
X92651411Y-60180490D01*
X92894632Y-60017975D01*
X93101475Y-59811132D01*
X93218000Y-59636740D01*
X93334525Y-59811132D01*
X93541368Y-60017975D01*
X93784589Y-60180490D01*
X94054842Y-60292432D01*
X94341740Y-60349500D01*
X94634260Y-60349500D01*
X94921158Y-60292432D01*
X95191411Y-60180490D01*
X95434632Y-60017975D01*
X95641475Y-59811132D01*
X95758000Y-59636740D01*
X95874525Y-59811132D01*
X96081368Y-60017975D01*
X96324589Y-60180490D01*
X96594842Y-60292432D01*
X96881740Y-60349500D01*
X97174260Y-60349500D01*
X97461158Y-60292432D01*
X97731411Y-60180490D01*
X97974632Y-60017975D01*
X98181475Y-59811132D01*
X98298000Y-59636740D01*
X98414525Y-59811132D01*
X98621368Y-60017975D01*
X98864589Y-60180490D01*
X99134842Y-60292432D01*
X99421740Y-60349500D01*
X99714260Y-60349500D01*
X100001158Y-60292432D01*
X100271411Y-60180490D01*
X100514632Y-60017975D01*
X100721475Y-59811132D01*
X100838000Y-59636740D01*
X100954525Y-59811132D01*
X101161368Y-60017975D01*
X101404589Y-60180490D01*
X101674842Y-60292432D01*
X101961740Y-60349500D01*
X102254260Y-60349500D01*
X102541158Y-60292432D01*
X102811411Y-60180490D01*
X103054632Y-60017975D01*
X103261475Y-59811132D01*
X103378000Y-59636740D01*
X103494525Y-59811132D01*
X103701368Y-60017975D01*
X103944589Y-60180490D01*
X104214842Y-60292432D01*
X104501740Y-60349500D01*
X104794260Y-60349500D01*
X105081158Y-60292432D01*
X105351411Y-60180490D01*
X105594632Y-60017975D01*
X105801475Y-59811132D01*
X105918000Y-59636740D01*
X106034525Y-59811132D01*
X106241368Y-60017975D01*
X106484589Y-60180490D01*
X106754842Y-60292432D01*
X107041740Y-60349500D01*
X107334260Y-60349500D01*
X107621158Y-60292432D01*
X107891411Y-60180490D01*
X108134632Y-60017975D01*
X108341475Y-59811132D01*
X108458000Y-59636740D01*
X108574525Y-59811132D01*
X108781368Y-60017975D01*
X109024589Y-60180490D01*
X109294842Y-60292432D01*
X109581740Y-60349500D01*
X109874260Y-60349500D01*
X110161158Y-60292432D01*
X110431411Y-60180490D01*
X110674632Y-60017975D01*
X110881475Y-59811132D01*
X110998000Y-59636740D01*
X111114525Y-59811132D01*
X111321368Y-60017975D01*
X111564589Y-60180490D01*
X111834842Y-60292432D01*
X112121740Y-60349500D01*
X112414260Y-60349500D01*
X112701158Y-60292432D01*
X112971411Y-60180490D01*
X113214632Y-60017975D01*
X113421475Y-59811132D01*
X113538000Y-59636740D01*
X113654525Y-59811132D01*
X113861368Y-60017975D01*
X114104589Y-60180490D01*
X114374842Y-60292432D01*
X114661740Y-60349500D01*
X114954260Y-60349500D01*
X115241158Y-60292432D01*
X115511411Y-60180490D01*
X115754632Y-60017975D01*
X115886487Y-59886120D01*
X115908498Y-59958680D01*
X115967463Y-60068994D01*
X116046815Y-60165685D01*
X116143506Y-60245037D01*
X116253820Y-60304002D01*
X116373518Y-60340312D01*
X116498000Y-60352572D01*
X118198000Y-60352572D01*
X118322482Y-60340312D01*
X118442180Y-60304002D01*
X118552494Y-60245037D01*
X118649185Y-60165685D01*
X118728537Y-60068994D01*
X118787502Y-59958680D01*
X118823812Y-59838982D01*
X118836072Y-59714500D01*
X118836072Y-58014500D01*
X118823812Y-57890018D01*
X118787502Y-57770320D01*
X118728537Y-57660006D01*
X118649185Y-57563315D01*
X118552494Y-57483963D01*
X118442180Y-57424998D01*
X118322482Y-57388688D01*
X118198000Y-57376428D01*
X116498000Y-57376428D01*
X116373518Y-57388688D01*
X116253820Y-57424998D01*
X116143506Y-57483963D01*
X116046815Y-57563315D01*
X115967463Y-57660006D01*
X115908498Y-57770320D01*
X115886487Y-57842880D01*
X115754632Y-57711025D01*
X115511411Y-57548510D01*
X115241158Y-57436568D01*
X114954260Y-57379500D01*
X114661740Y-57379500D01*
X114374842Y-57436568D01*
X114104589Y-57548510D01*
X113861368Y-57711025D01*
X113654525Y-57917868D01*
X113538000Y-58092260D01*
X113421475Y-57917868D01*
X113214632Y-57711025D01*
X112971411Y-57548510D01*
X112701158Y-57436568D01*
X112414260Y-57379500D01*
X112121740Y-57379500D01*
X111834842Y-57436568D01*
X111564589Y-57548510D01*
X111321368Y-57711025D01*
X111114525Y-57917868D01*
X110998000Y-58092260D01*
X110881475Y-57917868D01*
X110674632Y-57711025D01*
X110431411Y-57548510D01*
X110161158Y-57436568D01*
X109874260Y-57379500D01*
X109581740Y-57379500D01*
X109294842Y-57436568D01*
X109024589Y-57548510D01*
X108781368Y-57711025D01*
X108574525Y-57917868D01*
X108458000Y-58092260D01*
X108341475Y-57917868D01*
X108134632Y-57711025D01*
X107891411Y-57548510D01*
X107621158Y-57436568D01*
X107334260Y-57379500D01*
X107041740Y-57379500D01*
X106754842Y-57436568D01*
X106484589Y-57548510D01*
X106241368Y-57711025D01*
X106034525Y-57917868D01*
X105918000Y-58092260D01*
X105801475Y-57917868D01*
X105594632Y-57711025D01*
X105351411Y-57548510D01*
X105081158Y-57436568D01*
X104794260Y-57379500D01*
X104501740Y-57379500D01*
X104214842Y-57436568D01*
X103944589Y-57548510D01*
X103701368Y-57711025D01*
X103494525Y-57917868D01*
X103378000Y-58092260D01*
X103261475Y-57917868D01*
X103054632Y-57711025D01*
X102811411Y-57548510D01*
X102541158Y-57436568D01*
X102254260Y-57379500D01*
X101961740Y-57379500D01*
X101674842Y-57436568D01*
X101404589Y-57548510D01*
X101161368Y-57711025D01*
X100954525Y-57917868D01*
X100838000Y-58092260D01*
X100721475Y-57917868D01*
X100514632Y-57711025D01*
X100271411Y-57548510D01*
X100001158Y-57436568D01*
X99714260Y-57379500D01*
X99421740Y-57379500D01*
X99134842Y-57436568D01*
X98864589Y-57548510D01*
X98621368Y-57711025D01*
X98414525Y-57917868D01*
X98298000Y-58092260D01*
X98181475Y-57917868D01*
X97974632Y-57711025D01*
X97731411Y-57548510D01*
X97461158Y-57436568D01*
X97174260Y-57379500D01*
X96881740Y-57379500D01*
X96594842Y-57436568D01*
X96324589Y-57548510D01*
X96081368Y-57711025D01*
X95874525Y-57917868D01*
X95758000Y-58092260D01*
X95641475Y-57917868D01*
X95434632Y-57711025D01*
X95191411Y-57548510D01*
X94921158Y-57436568D01*
X94634260Y-57379500D01*
X94341740Y-57379500D01*
X94054842Y-57436568D01*
X93784589Y-57548510D01*
X93541368Y-57711025D01*
X93334525Y-57917868D01*
X93218000Y-58092260D01*
X93101475Y-57917868D01*
X92894632Y-57711025D01*
X92651411Y-57548510D01*
X92381158Y-57436568D01*
X92094260Y-57379500D01*
X91801740Y-57379500D01*
X91514842Y-57436568D01*
X91244589Y-57548510D01*
X91001368Y-57711025D01*
X90794525Y-57917868D01*
X90678000Y-58092260D01*
X90561475Y-57917868D01*
X90354632Y-57711025D01*
X90111411Y-57548510D01*
X89841158Y-57436568D01*
X89554260Y-57379500D01*
X89261740Y-57379500D01*
X88974842Y-57436568D01*
X88704589Y-57548510D01*
X88461368Y-57711025D01*
X88254525Y-57917868D01*
X88138000Y-58092260D01*
X88021475Y-57917868D01*
X87814632Y-57711025D01*
X87571411Y-57548510D01*
X87301158Y-57436568D01*
X87014260Y-57379500D01*
X86721740Y-57379500D01*
X86434842Y-57436568D01*
X86164589Y-57548510D01*
X85921368Y-57711025D01*
X85714525Y-57917868D01*
X85598000Y-58092260D01*
X85481475Y-57917868D01*
X85274632Y-57711025D01*
X85031411Y-57548510D01*
X84761158Y-57436568D01*
X84474260Y-57379500D01*
X84181740Y-57379500D01*
X83894842Y-57436568D01*
X83624589Y-57548510D01*
X83381368Y-57711025D01*
X83174525Y-57917868D01*
X83058000Y-58092260D01*
X82941475Y-57917868D01*
X82734632Y-57711025D01*
X82491411Y-57548510D01*
X82221158Y-57436568D01*
X81934260Y-57379500D01*
X81641740Y-57379500D01*
X81354842Y-57436568D01*
X81084589Y-57548510D01*
X80841368Y-57711025D01*
X80634525Y-57917868D01*
X80518000Y-58092260D01*
X80401475Y-57917868D01*
X80194632Y-57711025D01*
X79951411Y-57548510D01*
X79681158Y-57436568D01*
X79394260Y-57379500D01*
X79101740Y-57379500D01*
X78814842Y-57436568D01*
X78544589Y-57548510D01*
X78301368Y-57711025D01*
X78094525Y-57917868D01*
X77932010Y-58161089D01*
X77820068Y-58431342D01*
X77763000Y-58718240D01*
X75660000Y-58718240D01*
X75660000Y-54293400D01*
X77772628Y-54293400D01*
X77772628Y-55993400D01*
X77784888Y-56117882D01*
X77821198Y-56237580D01*
X77880163Y-56347894D01*
X77959515Y-56444585D01*
X78056206Y-56523937D01*
X78166520Y-56582902D01*
X78286218Y-56619212D01*
X78410700Y-56631472D01*
X80110700Y-56631472D01*
X80235182Y-56619212D01*
X80354880Y-56582902D01*
X80465194Y-56523937D01*
X80561885Y-56444585D01*
X80641237Y-56347894D01*
X80700202Y-56237580D01*
X80722213Y-56165020D01*
X80854068Y-56296875D01*
X81097289Y-56459390D01*
X81367542Y-56571332D01*
X81654440Y-56628400D01*
X81946960Y-56628400D01*
X82233858Y-56571332D01*
X82504111Y-56459390D01*
X82747332Y-56296875D01*
X82954175Y-56090032D01*
X83070700Y-55915640D01*
X83187225Y-56090032D01*
X83394068Y-56296875D01*
X83637289Y-56459390D01*
X83907542Y-56571332D01*
X84194440Y-56628400D01*
X84486960Y-56628400D01*
X84773858Y-56571332D01*
X85044111Y-56459390D01*
X85287332Y-56296875D01*
X85494175Y-56090032D01*
X85610700Y-55915640D01*
X85727225Y-56090032D01*
X85934068Y-56296875D01*
X86177289Y-56459390D01*
X86447542Y-56571332D01*
X86734440Y-56628400D01*
X87026960Y-56628400D01*
X87313858Y-56571332D01*
X87584111Y-56459390D01*
X87827332Y-56296875D01*
X88034175Y-56090032D01*
X88150700Y-55915640D01*
X88267225Y-56090032D01*
X88474068Y-56296875D01*
X88717289Y-56459390D01*
X88987542Y-56571332D01*
X89274440Y-56628400D01*
X89566960Y-56628400D01*
X89853858Y-56571332D01*
X90124111Y-56459390D01*
X90367332Y-56296875D01*
X90574175Y-56090032D01*
X90690700Y-55915640D01*
X90807225Y-56090032D01*
X91014068Y-56296875D01*
X91257289Y-56459390D01*
X91527542Y-56571332D01*
X91814440Y-56628400D01*
X92106960Y-56628400D01*
X92393858Y-56571332D01*
X92664111Y-56459390D01*
X92907332Y-56296875D01*
X93114175Y-56090032D01*
X93230700Y-55915640D01*
X93347225Y-56090032D01*
X93554068Y-56296875D01*
X93797289Y-56459390D01*
X94067542Y-56571332D01*
X94354440Y-56628400D01*
X94646960Y-56628400D01*
X94933858Y-56571332D01*
X95204111Y-56459390D01*
X95447332Y-56296875D01*
X95654175Y-56090032D01*
X95770700Y-55915640D01*
X95887225Y-56090032D01*
X96094068Y-56296875D01*
X96337289Y-56459390D01*
X96607542Y-56571332D01*
X96894440Y-56628400D01*
X97186960Y-56628400D01*
X97473858Y-56571332D01*
X97744111Y-56459390D01*
X97987332Y-56296875D01*
X98194175Y-56090032D01*
X98310700Y-55915640D01*
X98427225Y-56090032D01*
X98634068Y-56296875D01*
X98877289Y-56459390D01*
X99147542Y-56571332D01*
X99434440Y-56628400D01*
X99726960Y-56628400D01*
X100013858Y-56571332D01*
X100284111Y-56459390D01*
X100527332Y-56296875D01*
X100734175Y-56090032D01*
X100850700Y-55915640D01*
X100967225Y-56090032D01*
X101174068Y-56296875D01*
X101417289Y-56459390D01*
X101687542Y-56571332D01*
X101974440Y-56628400D01*
X102266960Y-56628400D01*
X102553858Y-56571332D01*
X102824111Y-56459390D01*
X103067332Y-56296875D01*
X103274175Y-56090032D01*
X103390700Y-55915640D01*
X103507225Y-56090032D01*
X103714068Y-56296875D01*
X103957289Y-56459390D01*
X104227542Y-56571332D01*
X104514440Y-56628400D01*
X104806960Y-56628400D01*
X105093858Y-56571332D01*
X105364111Y-56459390D01*
X105607332Y-56296875D01*
X105814175Y-56090032D01*
X105930700Y-55915640D01*
X106047225Y-56090032D01*
X106254068Y-56296875D01*
X106497289Y-56459390D01*
X106767542Y-56571332D01*
X107054440Y-56628400D01*
X107346960Y-56628400D01*
X107633858Y-56571332D01*
X107904111Y-56459390D01*
X108147332Y-56296875D01*
X108354175Y-56090032D01*
X108470700Y-55915640D01*
X108587225Y-56090032D01*
X108794068Y-56296875D01*
X109037289Y-56459390D01*
X109307542Y-56571332D01*
X109594440Y-56628400D01*
X109886960Y-56628400D01*
X110173858Y-56571332D01*
X110444111Y-56459390D01*
X110687332Y-56296875D01*
X110894175Y-56090032D01*
X111010700Y-55915640D01*
X111127225Y-56090032D01*
X111334068Y-56296875D01*
X111577289Y-56459390D01*
X111847542Y-56571332D01*
X112134440Y-56628400D01*
X112426960Y-56628400D01*
X112713858Y-56571332D01*
X112984111Y-56459390D01*
X113227332Y-56296875D01*
X113434175Y-56090032D01*
X113550700Y-55915640D01*
X113667225Y-56090032D01*
X113874068Y-56296875D01*
X114117289Y-56459390D01*
X114387542Y-56571332D01*
X114674440Y-56628400D01*
X114966960Y-56628400D01*
X115253858Y-56571332D01*
X115524111Y-56459390D01*
X115767332Y-56296875D01*
X115974175Y-56090032D01*
X116090700Y-55915640D01*
X116207225Y-56090032D01*
X116414068Y-56296875D01*
X116657289Y-56459390D01*
X116927542Y-56571332D01*
X117214440Y-56628400D01*
X117506960Y-56628400D01*
X117793858Y-56571332D01*
X118064111Y-56459390D01*
X118307332Y-56296875D01*
X118514175Y-56090032D01*
X118676690Y-55846811D01*
X118788632Y-55576558D01*
X118845700Y-55289660D01*
X118845700Y-54997140D01*
X118788632Y-54710242D01*
X118676690Y-54439989D01*
X118514175Y-54196768D01*
X118307332Y-53989925D01*
X118064111Y-53827410D01*
X117793858Y-53715468D01*
X117506960Y-53658400D01*
X117214440Y-53658400D01*
X116927542Y-53715468D01*
X116657289Y-53827410D01*
X116414068Y-53989925D01*
X116207225Y-54196768D01*
X116090700Y-54371160D01*
X115974175Y-54196768D01*
X115767332Y-53989925D01*
X115524111Y-53827410D01*
X115253858Y-53715468D01*
X114966960Y-53658400D01*
X114674440Y-53658400D01*
X114387542Y-53715468D01*
X114117289Y-53827410D01*
X113874068Y-53989925D01*
X113667225Y-54196768D01*
X113550700Y-54371160D01*
X113434175Y-54196768D01*
X113227332Y-53989925D01*
X112984111Y-53827410D01*
X112713858Y-53715468D01*
X112426960Y-53658400D01*
X112134440Y-53658400D01*
X111847542Y-53715468D01*
X111577289Y-53827410D01*
X111334068Y-53989925D01*
X111127225Y-54196768D01*
X111010700Y-54371160D01*
X110894175Y-54196768D01*
X110687332Y-53989925D01*
X110444111Y-53827410D01*
X110173858Y-53715468D01*
X109886960Y-53658400D01*
X109594440Y-53658400D01*
X109307542Y-53715468D01*
X109037289Y-53827410D01*
X108794068Y-53989925D01*
X108587225Y-54196768D01*
X108470700Y-54371160D01*
X108354175Y-54196768D01*
X108147332Y-53989925D01*
X107904111Y-53827410D01*
X107633858Y-53715468D01*
X107346960Y-53658400D01*
X107054440Y-53658400D01*
X106767542Y-53715468D01*
X106497289Y-53827410D01*
X106254068Y-53989925D01*
X106047225Y-54196768D01*
X105930700Y-54371160D01*
X105814175Y-54196768D01*
X105607332Y-53989925D01*
X105364111Y-53827410D01*
X105093858Y-53715468D01*
X104806960Y-53658400D01*
X104514440Y-53658400D01*
X104227542Y-53715468D01*
X103957289Y-53827410D01*
X103714068Y-53989925D01*
X103507225Y-54196768D01*
X103390700Y-54371160D01*
X103274175Y-54196768D01*
X103067332Y-53989925D01*
X102824111Y-53827410D01*
X102553858Y-53715468D01*
X102266960Y-53658400D01*
X101974440Y-53658400D01*
X101687542Y-53715468D01*
X101417289Y-53827410D01*
X101174068Y-53989925D01*
X100967225Y-54196768D01*
X100850700Y-54371160D01*
X100734175Y-54196768D01*
X100527332Y-53989925D01*
X100284111Y-53827410D01*
X100013858Y-53715468D01*
X99726960Y-53658400D01*
X99434440Y-53658400D01*
X99147542Y-53715468D01*
X98877289Y-53827410D01*
X98634068Y-53989925D01*
X98427225Y-54196768D01*
X98310700Y-54371160D01*
X98194175Y-54196768D01*
X97987332Y-53989925D01*
X97744111Y-53827410D01*
X97473858Y-53715468D01*
X97186960Y-53658400D01*
X96894440Y-53658400D01*
X96607542Y-53715468D01*
X96337289Y-53827410D01*
X96094068Y-53989925D01*
X95887225Y-54196768D01*
X95770700Y-54371160D01*
X95654175Y-54196768D01*
X95447332Y-53989925D01*
X95204111Y-53827410D01*
X94933858Y-53715468D01*
X94646960Y-53658400D01*
X94354440Y-53658400D01*
X94067542Y-53715468D01*
X93797289Y-53827410D01*
X93554068Y-53989925D01*
X93347225Y-54196768D01*
X93230700Y-54371160D01*
X93114175Y-54196768D01*
X92907332Y-53989925D01*
X92664111Y-53827410D01*
X92393858Y-53715468D01*
X92106960Y-53658400D01*
X91814440Y-53658400D01*
X91527542Y-53715468D01*
X91257289Y-53827410D01*
X91014068Y-53989925D01*
X90807225Y-54196768D01*
X90690700Y-54371160D01*
X90574175Y-54196768D01*
X90367332Y-53989925D01*
X90124111Y-53827410D01*
X89853858Y-53715468D01*
X89566960Y-53658400D01*
X89274440Y-53658400D01*
X88987542Y-53715468D01*
X88717289Y-53827410D01*
X88474068Y-53989925D01*
X88267225Y-54196768D01*
X88150700Y-54371160D01*
X88034175Y-54196768D01*
X87827332Y-53989925D01*
X87584111Y-53827410D01*
X87313858Y-53715468D01*
X87026960Y-53658400D01*
X86734440Y-53658400D01*
X86447542Y-53715468D01*
X86177289Y-53827410D01*
X85934068Y-53989925D01*
X85727225Y-54196768D01*
X85610700Y-54371160D01*
X85494175Y-54196768D01*
X85287332Y-53989925D01*
X85044111Y-53827410D01*
X84773858Y-53715468D01*
X84486960Y-53658400D01*
X84194440Y-53658400D01*
X83907542Y-53715468D01*
X83637289Y-53827410D01*
X83394068Y-53989925D01*
X83187225Y-54196768D01*
X83070700Y-54371160D01*
X82954175Y-54196768D01*
X82747332Y-53989925D01*
X82504111Y-53827410D01*
X82233858Y-53715468D01*
X81946960Y-53658400D01*
X81654440Y-53658400D01*
X81367542Y-53715468D01*
X81097289Y-53827410D01*
X80854068Y-53989925D01*
X80722213Y-54121780D01*
X80700202Y-54049220D01*
X80641237Y-53938906D01*
X80561885Y-53842215D01*
X80465194Y-53762863D01*
X80354880Y-53703898D01*
X80235182Y-53667588D01*
X80110700Y-53655328D01*
X78410700Y-53655328D01*
X78286218Y-53667588D01*
X78166520Y-53703898D01*
X78056206Y-53762863D01*
X77959515Y-53842215D01*
X77880163Y-53938906D01*
X77821198Y-54049220D01*
X77784888Y-54168918D01*
X77772628Y-54293400D01*
X75660000Y-54293400D01*
X75660000Y-52660000D01*
X129340000Y-52660000D01*
X129340001Y-144340000D01*
G36*
X88214444Y-88615505D02*
G01*
X88402802Y-88693526D01*
X88602761Y-88733300D01*
X88806639Y-88733300D01*
X89006598Y-88693526D01*
X89031286Y-88683300D01*
X91919200Y-88683300D01*
X91919200Y-88757739D01*
X91958974Y-88957698D01*
X92036995Y-89146056D01*
X92150263Y-89315574D01*
X92294426Y-89459737D01*
X92463944Y-89573005D01*
X92652302Y-89651026D01*
X92852261Y-89690800D01*
X93056139Y-89690800D01*
X93256098Y-89651026D01*
X93444456Y-89573005D01*
X93613974Y-89459737D01*
X93657911Y-89415800D01*
X100165000Y-89415800D01*
X100165000Y-89549335D01*
X100220147Y-89826574D01*
X100328320Y-90087727D01*
X100485363Y-90322759D01*
X100685241Y-90522637D01*
X100917759Y-90678000D01*
X100685241Y-90833363D01*
X100485363Y-91033241D01*
X100328320Y-91268273D01*
X100220147Y-91529426D01*
X100165000Y-91806665D01*
X100165000Y-92089335D01*
X100201312Y-92271886D01*
X99761199Y-92712000D01*
X93667711Y-92712000D01*
X93623774Y-92668063D01*
X93454256Y-92554795D01*
X93265898Y-92476774D01*
X93065939Y-92437000D01*
X92862061Y-92437000D01*
X92662102Y-92476774D01*
X92473744Y-92554795D01*
X92304226Y-92668063D01*
X92160063Y-92812226D01*
X92046795Y-92981744D01*
X91968774Y-93170102D01*
X91929000Y-93370061D01*
X91929000Y-93573939D01*
X91968774Y-93773898D01*
X92046795Y-93962256D01*
X92160063Y-94131774D01*
X92304226Y-94275937D01*
X92473744Y-94389205D01*
X92662102Y-94467226D01*
X92862061Y-94507000D01*
X93065939Y-94507000D01*
X93265898Y-94467226D01*
X93454256Y-94389205D01*
X93623774Y-94275937D01*
X93667711Y-94232000D01*
X96948287Y-94232000D01*
X96932800Y-94309861D01*
X96932800Y-94513739D01*
X96972574Y-94713698D01*
X97050595Y-94902056D01*
X97081902Y-94948910D01*
X97081901Y-95412300D01*
X94228702Y-98265500D01*
X93380607Y-98265500D01*
X93212132Y-98097025D01*
X92968911Y-97934510D01*
X92698658Y-97822568D01*
X92411760Y-97765500D01*
X92119240Y-97765500D01*
X91832342Y-97822568D01*
X91562089Y-97934510D01*
X91318868Y-98097025D01*
X91112025Y-98303868D01*
X90995500Y-98478260D01*
X90878975Y-98303868D01*
X90672132Y-98097025D01*
X90428911Y-97934510D01*
X90158658Y-97822568D01*
X89871760Y-97765500D01*
X89579240Y-97765500D01*
X89292342Y-97822568D01*
X89022089Y-97934510D01*
X88778868Y-98097025D01*
X88647013Y-98228880D01*
X88625002Y-98156320D01*
X88566037Y-98046006D01*
X88486685Y-97949315D01*
X88389994Y-97869963D01*
X88279680Y-97810998D01*
X88170500Y-97777879D01*
X88170500Y-88586143D01*
X88214444Y-88615505D01*
G37*
X88214444Y-88615505D02*
X88402802Y-88693526D01*
X88602761Y-88733300D01*
X88806639Y-88733300D01*
X89006598Y-88693526D01*
X89031286Y-88683300D01*
X91919200Y-88683300D01*
X91919200Y-88757739D01*
X91958974Y-88957698D01*
X92036995Y-89146056D01*
X92150263Y-89315574D01*
X92294426Y-89459737D01*
X92463944Y-89573005D01*
X92652302Y-89651026D01*
X92852261Y-89690800D01*
X93056139Y-89690800D01*
X93256098Y-89651026D01*
X93444456Y-89573005D01*
X93613974Y-89459737D01*
X93657911Y-89415800D01*
X100165000Y-89415800D01*
X100165000Y-89549335D01*
X100220147Y-89826574D01*
X100328320Y-90087727D01*
X100485363Y-90322759D01*
X100685241Y-90522637D01*
X100917759Y-90678000D01*
X100685241Y-90833363D01*
X100485363Y-91033241D01*
X100328320Y-91268273D01*
X100220147Y-91529426D01*
X100165000Y-91806665D01*
X100165000Y-92089335D01*
X100201312Y-92271886D01*
X99761199Y-92712000D01*
X93667711Y-92712000D01*
X93623774Y-92668063D01*
X93454256Y-92554795D01*
X93265898Y-92476774D01*
X93065939Y-92437000D01*
X92862061Y-92437000D01*
X92662102Y-92476774D01*
X92473744Y-92554795D01*
X92304226Y-92668063D01*
X92160063Y-92812226D01*
X92046795Y-92981744D01*
X91968774Y-93170102D01*
X91929000Y-93370061D01*
X91929000Y-93573939D01*
X91968774Y-93773898D01*
X92046795Y-93962256D01*
X92160063Y-94131774D01*
X92304226Y-94275937D01*
X92473744Y-94389205D01*
X92662102Y-94467226D01*
X92862061Y-94507000D01*
X93065939Y-94507000D01*
X93265898Y-94467226D01*
X93454256Y-94389205D01*
X93623774Y-94275937D01*
X93667711Y-94232000D01*
X96948287Y-94232000D01*
X96932800Y-94309861D01*
X96932800Y-94513739D01*
X96972574Y-94713698D01*
X97050595Y-94902056D01*
X97081902Y-94948910D01*
X97081901Y-95412300D01*
X94228702Y-98265500D01*
X93380607Y-98265500D01*
X93212132Y-98097025D01*
X92968911Y-97934510D01*
X92698658Y-97822568D01*
X92411760Y-97765500D01*
X92119240Y-97765500D01*
X91832342Y-97822568D01*
X91562089Y-97934510D01*
X91318868Y-98097025D01*
X91112025Y-98303868D01*
X90995500Y-98478260D01*
X90878975Y-98303868D01*
X90672132Y-98097025D01*
X90428911Y-97934510D01*
X90158658Y-97822568D01*
X89871760Y-97765500D01*
X89579240Y-97765500D01*
X89292342Y-97822568D01*
X89022089Y-97934510D01*
X88778868Y-98097025D01*
X88647013Y-98228880D01*
X88625002Y-98156320D01*
X88566037Y-98046006D01*
X88486685Y-97949315D01*
X88389994Y-97869963D01*
X88279680Y-97810998D01*
X88170500Y-97777879D01*
X88170500Y-88586143D01*
X88214444Y-88615505D01*
%TD*%
M02*
