%TF.GenerationSoftware,KiCad,Pcbnew,(5.1.6)-1*%
%TF.CreationDate,2020-09-22T22:20:25+03:00*%
%TF.ProjectId,Z80_devboard,5a38305f-6465-4766-926f-6172642e6b69,rev?*%
%TF.SameCoordinates,Original*%
%TF.FileFunction,Paste,Top*%
%TF.FilePolarity,Positive*%
%FSLAX46Y46*%
G04 Gerber Fmt 4.6, Leading zero omitted, Abs format (unit mm)*
G04 Created by KiCad (PCBNEW (5.1.6)-1) date 2020-09-22 22:20:25*
%MOMM*%
%LPD*%
G01*
G04 APERTURE LIST*
%ADD10R,1.500000X2.000000*%
%ADD11R,3.800000X2.000000*%
%ADD12R,2.000000X1.500000*%
%ADD13R,2.000000X3.800000*%
%ADD14R,0.450000X1.475000*%
%ADD15R,1.475000X0.450000*%
G04 APERTURE END LIST*
%TO.C,R7*%
G36*
G01*
X119867900Y-70309100D02*
X120212900Y-70309100D01*
G75*
G02*
X120360400Y-70456600I0J-147500D01*
G01*
X120360400Y-70751600D01*
G75*
G02*
X120212900Y-70899100I-147500J0D01*
G01*
X119867900Y-70899100D01*
G75*
G02*
X119720400Y-70751600I0J147500D01*
G01*
X119720400Y-70456600D01*
G75*
G02*
X119867900Y-70309100I147500J0D01*
G01*
G37*
G36*
G01*
X119867900Y-69339100D02*
X120212900Y-69339100D01*
G75*
G02*
X120360400Y-69486600I0J-147500D01*
G01*
X120360400Y-69781600D01*
G75*
G02*
X120212900Y-69929100I-147500J0D01*
G01*
X119867900Y-69929100D01*
G75*
G02*
X119720400Y-69781600I0J147500D01*
G01*
X119720400Y-69486600D01*
G75*
G02*
X119867900Y-69339100I147500J0D01*
G01*
G37*
%TD*%
%TO.C,R6*%
G36*
G01*
X127856200Y-129552200D02*
X128201200Y-129552200D01*
G75*
G02*
X128348700Y-129699700I0J-147500D01*
G01*
X128348700Y-129994700D01*
G75*
G02*
X128201200Y-130142200I-147500J0D01*
G01*
X127856200Y-130142200D01*
G75*
G02*
X127708700Y-129994700I0J147500D01*
G01*
X127708700Y-129699700D01*
G75*
G02*
X127856200Y-129552200I147500J0D01*
G01*
G37*
G36*
G01*
X127856200Y-128582200D02*
X128201200Y-128582200D01*
G75*
G02*
X128348700Y-128729700I0J-147500D01*
G01*
X128348700Y-129024700D01*
G75*
G02*
X128201200Y-129172200I-147500J0D01*
G01*
X127856200Y-129172200D01*
G75*
G02*
X127708700Y-129024700I0J147500D01*
G01*
X127708700Y-128729700D01*
G75*
G02*
X127856200Y-128582200I147500J0D01*
G01*
G37*
%TD*%
%TO.C,R5*%
G36*
G01*
X88382200Y-68128100D02*
X88382200Y-68473100D01*
G75*
G02*
X88234700Y-68620600I-147500J0D01*
G01*
X87939700Y-68620600D01*
G75*
G02*
X87792200Y-68473100I0J147500D01*
G01*
X87792200Y-68128100D01*
G75*
G02*
X87939700Y-67980600I147500J0D01*
G01*
X88234700Y-67980600D01*
G75*
G02*
X88382200Y-68128100I0J-147500D01*
G01*
G37*
G36*
G01*
X89352200Y-68128100D02*
X89352200Y-68473100D01*
G75*
G02*
X89204700Y-68620600I-147500J0D01*
G01*
X88909700Y-68620600D01*
G75*
G02*
X88762200Y-68473100I0J147500D01*
G01*
X88762200Y-68128100D01*
G75*
G02*
X88909700Y-67980600I147500J0D01*
G01*
X89204700Y-67980600D01*
G75*
G02*
X89352200Y-68128100I0J-147500D01*
G01*
G37*
%TD*%
%TO.C,R4*%
G36*
G01*
X104094500Y-130286400D02*
X104439500Y-130286400D01*
G75*
G02*
X104587000Y-130433900I0J-147500D01*
G01*
X104587000Y-130728900D01*
G75*
G02*
X104439500Y-130876400I-147500J0D01*
G01*
X104094500Y-130876400D01*
G75*
G02*
X103947000Y-130728900I0J147500D01*
G01*
X103947000Y-130433900D01*
G75*
G02*
X104094500Y-130286400I147500J0D01*
G01*
G37*
G36*
G01*
X104094500Y-129316400D02*
X104439500Y-129316400D01*
G75*
G02*
X104587000Y-129463900I0J-147500D01*
G01*
X104587000Y-129758900D01*
G75*
G02*
X104439500Y-129906400I-147500J0D01*
G01*
X104094500Y-129906400D01*
G75*
G02*
X103947000Y-129758900I0J147500D01*
G01*
X103947000Y-129463900D01*
G75*
G02*
X104094500Y-129316400I147500J0D01*
G01*
G37*
%TD*%
D10*
%TO.C,U2*%
X97042000Y-106133500D03*
X92442000Y-106133500D03*
X94742000Y-106133500D03*
D11*
X94742000Y-112433500D03*
%TD*%
D12*
%TO.C,U1*%
X80479500Y-105523000D03*
X80479500Y-110123000D03*
X80479500Y-107823000D03*
D13*
X86779500Y-107823000D03*
%TD*%
%TO.C,C16*%
G36*
G01*
X96369500Y-103233000D02*
X96369500Y-102888000D01*
G75*
G02*
X96517000Y-102740500I147500J0D01*
G01*
X96812000Y-102740500D01*
G75*
G02*
X96959500Y-102888000I0J-147500D01*
G01*
X96959500Y-103233000D01*
G75*
G02*
X96812000Y-103380500I-147500J0D01*
G01*
X96517000Y-103380500D01*
G75*
G02*
X96369500Y-103233000I0J147500D01*
G01*
G37*
G36*
G01*
X95399500Y-103233000D02*
X95399500Y-102888000D01*
G75*
G02*
X95547000Y-102740500I147500J0D01*
G01*
X95842000Y-102740500D01*
G75*
G02*
X95989500Y-102888000I0J-147500D01*
G01*
X95989500Y-103233000D01*
G75*
G02*
X95842000Y-103380500I-147500J0D01*
G01*
X95547000Y-103380500D01*
G75*
G02*
X95399500Y-103233000I0J147500D01*
G01*
G37*
%TD*%
%TO.C,C15*%
G36*
G01*
X96306000Y-104376000D02*
X96306000Y-104031000D01*
G75*
G02*
X96453500Y-103883500I147500J0D01*
G01*
X96748500Y-103883500D01*
G75*
G02*
X96896000Y-104031000I0J-147500D01*
G01*
X96896000Y-104376000D01*
G75*
G02*
X96748500Y-104523500I-147500J0D01*
G01*
X96453500Y-104523500D01*
G75*
G02*
X96306000Y-104376000I0J147500D01*
G01*
G37*
G36*
G01*
X95336000Y-104376000D02*
X95336000Y-104031000D01*
G75*
G02*
X95483500Y-103883500I147500J0D01*
G01*
X95778500Y-103883500D01*
G75*
G02*
X95926000Y-104031000I0J-147500D01*
G01*
X95926000Y-104376000D01*
G75*
G02*
X95778500Y-104523500I-147500J0D01*
G01*
X95483500Y-104523500D01*
G75*
G02*
X95336000Y-104376000I0J147500D01*
G01*
G37*
%TD*%
%TO.C,C14*%
G36*
G01*
X89938500Y-109583000D02*
X89938500Y-109238000D01*
G75*
G02*
X90086000Y-109090500I147500J0D01*
G01*
X90381000Y-109090500D01*
G75*
G02*
X90528500Y-109238000I0J-147500D01*
G01*
X90528500Y-109583000D01*
G75*
G02*
X90381000Y-109730500I-147500J0D01*
G01*
X90086000Y-109730500D01*
G75*
G02*
X89938500Y-109583000I0J147500D01*
G01*
G37*
G36*
G01*
X88968500Y-109583000D02*
X88968500Y-109238000D01*
G75*
G02*
X89116000Y-109090500I147500J0D01*
G01*
X89411000Y-109090500D01*
G75*
G02*
X89558500Y-109238000I0J-147500D01*
G01*
X89558500Y-109583000D01*
G75*
G02*
X89411000Y-109730500I-147500J0D01*
G01*
X89116000Y-109730500D01*
G75*
G02*
X88968500Y-109583000I0J147500D01*
G01*
G37*
%TD*%
%TO.C,C13*%
G36*
G01*
X89956000Y-107995500D02*
X89956000Y-107650500D01*
G75*
G02*
X90103500Y-107503000I147500J0D01*
G01*
X90398500Y-107503000D01*
G75*
G02*
X90546000Y-107650500I0J-147500D01*
G01*
X90546000Y-107995500D01*
G75*
G02*
X90398500Y-108143000I-147500J0D01*
G01*
X90103500Y-108143000D01*
G75*
G02*
X89956000Y-107995500I0J147500D01*
G01*
G37*
G36*
G01*
X88986000Y-107995500D02*
X88986000Y-107650500D01*
G75*
G02*
X89133500Y-107503000I147500J0D01*
G01*
X89428500Y-107503000D01*
G75*
G02*
X89576000Y-107650500I0J-147500D01*
G01*
X89576000Y-107995500D01*
G75*
G02*
X89428500Y-108143000I-147500J0D01*
G01*
X89133500Y-108143000D01*
G75*
G02*
X88986000Y-107995500I0J147500D01*
G01*
G37*
%TD*%
%TO.C,C12*%
G36*
G01*
X89892500Y-106535000D02*
X89892500Y-106190000D01*
G75*
G02*
X90040000Y-106042500I147500J0D01*
G01*
X90335000Y-106042500D01*
G75*
G02*
X90482500Y-106190000I0J-147500D01*
G01*
X90482500Y-106535000D01*
G75*
G02*
X90335000Y-106682500I-147500J0D01*
G01*
X90040000Y-106682500D01*
G75*
G02*
X89892500Y-106535000I0J147500D01*
G01*
G37*
G36*
G01*
X88922500Y-106535000D02*
X88922500Y-106190000D01*
G75*
G02*
X89070000Y-106042500I147500J0D01*
G01*
X89365000Y-106042500D01*
G75*
G02*
X89512500Y-106190000I0J-147500D01*
G01*
X89512500Y-106535000D01*
G75*
G02*
X89365000Y-106682500I-147500J0D01*
G01*
X89070000Y-106682500D01*
G75*
G02*
X88922500Y-106535000I0J147500D01*
G01*
G37*
%TD*%
%TO.C,C11*%
G36*
G01*
X81914500Y-114345500D02*
X81914500Y-114000500D01*
G75*
G02*
X82062000Y-113853000I147500J0D01*
G01*
X82357000Y-113853000D01*
G75*
G02*
X82504500Y-114000500I0J-147500D01*
G01*
X82504500Y-114345500D01*
G75*
G02*
X82357000Y-114493000I-147500J0D01*
G01*
X82062000Y-114493000D01*
G75*
G02*
X81914500Y-114345500I0J147500D01*
G01*
G37*
G36*
G01*
X80944500Y-114345500D02*
X80944500Y-114000500D01*
G75*
G02*
X81092000Y-113853000I147500J0D01*
G01*
X81387000Y-113853000D01*
G75*
G02*
X81534500Y-114000500I0J-147500D01*
G01*
X81534500Y-114345500D01*
G75*
G02*
X81387000Y-114493000I-147500J0D01*
G01*
X81092000Y-114493000D01*
G75*
G02*
X80944500Y-114345500I0J147500D01*
G01*
G37*
%TD*%
%TO.C,R3*%
G36*
G01*
X88999700Y-85514400D02*
X88999700Y-85859400D01*
G75*
G02*
X88852200Y-86006900I-147500J0D01*
G01*
X88557200Y-86006900D01*
G75*
G02*
X88409700Y-85859400I0J147500D01*
G01*
X88409700Y-85514400D01*
G75*
G02*
X88557200Y-85366900I147500J0D01*
G01*
X88852200Y-85366900D01*
G75*
G02*
X88999700Y-85514400I0J-147500D01*
G01*
G37*
G36*
G01*
X89969700Y-85514400D02*
X89969700Y-85859400D01*
G75*
G02*
X89822200Y-86006900I-147500J0D01*
G01*
X89527200Y-86006900D01*
G75*
G02*
X89379700Y-85859400I0J147500D01*
G01*
X89379700Y-85514400D01*
G75*
G02*
X89527200Y-85366900I147500J0D01*
G01*
X89822200Y-85366900D01*
G75*
G02*
X89969700Y-85514400I0J-147500D01*
G01*
G37*
%TD*%
%TO.C,R2*%
G36*
G01*
X120817000Y-109900500D02*
X120817000Y-109555500D01*
G75*
G02*
X120964500Y-109408000I147500J0D01*
G01*
X121259500Y-109408000D01*
G75*
G02*
X121407000Y-109555500I0J-147500D01*
G01*
X121407000Y-109900500D01*
G75*
G02*
X121259500Y-110048000I-147500J0D01*
G01*
X120964500Y-110048000D01*
G75*
G02*
X120817000Y-109900500I0J147500D01*
G01*
G37*
G36*
G01*
X119847000Y-109900500D02*
X119847000Y-109555500D01*
G75*
G02*
X119994500Y-109408000I147500J0D01*
G01*
X120289500Y-109408000D01*
G75*
G02*
X120437000Y-109555500I0J-147500D01*
G01*
X120437000Y-109900500D01*
G75*
G02*
X120289500Y-110048000I-147500J0D01*
G01*
X119994500Y-110048000D01*
G75*
G02*
X119847000Y-109900500I0J147500D01*
G01*
G37*
%TD*%
%TO.C,R1*%
G36*
G01*
X120863000Y-107360500D02*
X120863000Y-107015500D01*
G75*
G02*
X121010500Y-106868000I147500J0D01*
G01*
X121305500Y-106868000D01*
G75*
G02*
X121453000Y-107015500I0J-147500D01*
G01*
X121453000Y-107360500D01*
G75*
G02*
X121305500Y-107508000I-147500J0D01*
G01*
X121010500Y-107508000D01*
G75*
G02*
X120863000Y-107360500I0J147500D01*
G01*
G37*
G36*
G01*
X119893000Y-107360500D02*
X119893000Y-107015500D01*
G75*
G02*
X120040500Y-106868000I147500J0D01*
G01*
X120335500Y-106868000D01*
G75*
G02*
X120483000Y-107015500I0J-147500D01*
G01*
X120483000Y-107360500D01*
G75*
G02*
X120335500Y-107508000I-147500J0D01*
G01*
X120040500Y-107508000D01*
G75*
G02*
X119893000Y-107360500I0J147500D01*
G01*
G37*
%TD*%
D14*
%TO.C,IC6*%
X120861900Y-122741200D03*
X121511900Y-122741200D03*
X122161900Y-122741200D03*
X122811900Y-122741200D03*
X123461900Y-122741200D03*
X124111900Y-122741200D03*
X124761900Y-122741200D03*
X125411900Y-122741200D03*
X126061900Y-122741200D03*
X126711900Y-122741200D03*
X126711900Y-128617200D03*
X126061900Y-128617200D03*
X125411900Y-128617200D03*
X124761900Y-128617200D03*
X124111900Y-128617200D03*
X123461900Y-128617200D03*
X122811900Y-128617200D03*
X122161900Y-128617200D03*
X121511900Y-128617200D03*
X120861900Y-128617200D03*
%TD*%
D15*
%TO.C,IC5*%
X110253000Y-122322400D03*
X110253000Y-122972400D03*
X110253000Y-123622400D03*
X110253000Y-124272400D03*
X110253000Y-124922400D03*
X110253000Y-125572400D03*
X110253000Y-126222400D03*
X110253000Y-126872400D03*
X110253000Y-127522400D03*
X110253000Y-128172400D03*
X104377000Y-128172400D03*
X104377000Y-127522400D03*
X104377000Y-126872400D03*
X104377000Y-126222400D03*
X104377000Y-125572400D03*
X104377000Y-124922400D03*
X104377000Y-124272400D03*
X104377000Y-123622400D03*
X104377000Y-122972400D03*
X104377000Y-122322400D03*
%TD*%
D14*
%TO.C,IC4*%
X96282700Y-74477100D03*
X95632700Y-74477100D03*
X94982700Y-74477100D03*
X94332700Y-74477100D03*
X93682700Y-74477100D03*
X93032700Y-74477100D03*
X92382700Y-74477100D03*
X91732700Y-74477100D03*
X91082700Y-74477100D03*
X90432700Y-74477100D03*
X90432700Y-68601100D03*
X91082700Y-68601100D03*
X91732700Y-68601100D03*
X92382700Y-68601100D03*
X93032700Y-68601100D03*
X93682700Y-68601100D03*
X94332700Y-68601100D03*
X94982700Y-68601100D03*
X95632700Y-68601100D03*
X96282700Y-68601100D03*
%TD*%
%TO.C,IC3*%
X127550100Y-75162900D03*
X126900100Y-75162900D03*
X126250100Y-75162900D03*
X125600100Y-75162900D03*
X124950100Y-75162900D03*
X124300100Y-75162900D03*
X123650100Y-75162900D03*
X123000100Y-75162900D03*
X122350100Y-75162900D03*
X121700100Y-75162900D03*
X121700100Y-69286900D03*
X122350100Y-69286900D03*
X123000100Y-69286900D03*
X123650100Y-69286900D03*
X124300100Y-69286900D03*
X124950100Y-69286900D03*
X125600100Y-69286900D03*
X126250100Y-69286900D03*
X126900100Y-69286900D03*
X127550100Y-69286900D03*
%TD*%
%TO.C,IC2*%
X96854200Y-91482400D03*
X96204200Y-91482400D03*
X95554200Y-91482400D03*
X94904200Y-91482400D03*
X94254200Y-91482400D03*
X93604200Y-91482400D03*
X92954200Y-91482400D03*
X92304200Y-91482400D03*
X91654200Y-91482400D03*
X91004200Y-91482400D03*
X91004200Y-85606400D03*
X91654200Y-85606400D03*
X92304200Y-85606400D03*
X92954200Y-85606400D03*
X93604200Y-85606400D03*
X94254200Y-85606400D03*
X94904200Y-85606400D03*
X95554200Y-85606400D03*
X96204200Y-85606400D03*
X96854200Y-85606400D03*
%TD*%
%TO.C,C10*%
G36*
G01*
X127083600Y-66660400D02*
X126738600Y-66660400D01*
G75*
G02*
X126591100Y-66512900I0J147500D01*
G01*
X126591100Y-66217900D01*
G75*
G02*
X126738600Y-66070400I147500J0D01*
G01*
X127083600Y-66070400D01*
G75*
G02*
X127231100Y-66217900I0J-147500D01*
G01*
X127231100Y-66512900D01*
G75*
G02*
X127083600Y-66660400I-147500J0D01*
G01*
G37*
G36*
G01*
X127083600Y-67630400D02*
X126738600Y-67630400D01*
G75*
G02*
X126591100Y-67482900I0J147500D01*
G01*
X126591100Y-67187900D01*
G75*
G02*
X126738600Y-67040400I147500J0D01*
G01*
X127083600Y-67040400D01*
G75*
G02*
X127231100Y-67187900I0J-147500D01*
G01*
X127231100Y-67482900D01*
G75*
G02*
X127083600Y-67630400I-147500J0D01*
G01*
G37*
%TD*%
%TO.C,C9*%
G36*
G01*
X101387000Y-122788900D02*
X101387000Y-123133900D01*
G75*
G02*
X101239500Y-123281400I-147500J0D01*
G01*
X100944500Y-123281400D01*
G75*
G02*
X100797000Y-123133900I0J147500D01*
G01*
X100797000Y-122788900D01*
G75*
G02*
X100944500Y-122641400I147500J0D01*
G01*
X101239500Y-122641400D01*
G75*
G02*
X101387000Y-122788900I0J-147500D01*
G01*
G37*
G36*
G01*
X102357000Y-122788900D02*
X102357000Y-123133900D01*
G75*
G02*
X102209500Y-123281400I-147500J0D01*
G01*
X101914500Y-123281400D01*
G75*
G02*
X101767000Y-123133900I0J147500D01*
G01*
X101767000Y-122788900D01*
G75*
G02*
X101914500Y-122641400I147500J0D01*
G01*
X102209500Y-122641400D01*
G75*
G02*
X102357000Y-122788900I0J-147500D01*
G01*
G37*
%TD*%
%TO.C,C8*%
G36*
G01*
X121391900Y-131162700D02*
X121736900Y-131162700D01*
G75*
G02*
X121884400Y-131310200I0J-147500D01*
G01*
X121884400Y-131605200D01*
G75*
G02*
X121736900Y-131752700I-147500J0D01*
G01*
X121391900Y-131752700D01*
G75*
G02*
X121244400Y-131605200I0J147500D01*
G01*
X121244400Y-131310200D01*
G75*
G02*
X121391900Y-131162700I147500J0D01*
G01*
G37*
G36*
G01*
X121391900Y-130192700D02*
X121736900Y-130192700D01*
G75*
G02*
X121884400Y-130340200I0J-147500D01*
G01*
X121884400Y-130635200D01*
G75*
G02*
X121736900Y-130782700I-147500J0D01*
G01*
X121391900Y-130782700D01*
G75*
G02*
X121244400Y-130635200I0J147500D01*
G01*
X121244400Y-130340200D01*
G75*
G02*
X121391900Y-130192700I147500J0D01*
G01*
G37*
%TD*%
%TO.C,C7*%
G36*
G01*
X95816200Y-65928600D02*
X95471200Y-65928600D01*
G75*
G02*
X95323700Y-65781100I0J147500D01*
G01*
X95323700Y-65486100D01*
G75*
G02*
X95471200Y-65338600I147500J0D01*
G01*
X95816200Y-65338600D01*
G75*
G02*
X95963700Y-65486100I0J-147500D01*
G01*
X95963700Y-65781100D01*
G75*
G02*
X95816200Y-65928600I-147500J0D01*
G01*
G37*
G36*
G01*
X95816200Y-66898600D02*
X95471200Y-66898600D01*
G75*
G02*
X95323700Y-66751100I0J147500D01*
G01*
X95323700Y-66456100D01*
G75*
G02*
X95471200Y-66308600I147500J0D01*
G01*
X95816200Y-66308600D01*
G75*
G02*
X95963700Y-66456100I0J-147500D01*
G01*
X95963700Y-66751100D01*
G75*
G02*
X95816200Y-66898600I-147500J0D01*
G01*
G37*
%TD*%
%TO.C,C6*%
G36*
G01*
X96324200Y-82933900D02*
X95979200Y-82933900D01*
G75*
G02*
X95831700Y-82786400I0J147500D01*
G01*
X95831700Y-82491400D01*
G75*
G02*
X95979200Y-82343900I147500J0D01*
G01*
X96324200Y-82343900D01*
G75*
G02*
X96471700Y-82491400I0J-147500D01*
G01*
X96471700Y-82786400D01*
G75*
G02*
X96324200Y-82933900I-147500J0D01*
G01*
G37*
G36*
G01*
X96324200Y-83903900D02*
X95979200Y-83903900D01*
G75*
G02*
X95831700Y-83756400I0J147500D01*
G01*
X95831700Y-83461400D01*
G75*
G02*
X95979200Y-83313900I147500J0D01*
G01*
X96324200Y-83313900D01*
G75*
G02*
X96471700Y-83461400I0J-147500D01*
G01*
X96471700Y-83756400D01*
G75*
G02*
X96324200Y-83903900I-147500J0D01*
G01*
G37*
%TD*%
%TO.C,C5*%
G36*
G01*
X112925500Y-123133900D02*
X112925500Y-122788900D01*
G75*
G02*
X113073000Y-122641400I147500J0D01*
G01*
X113368000Y-122641400D01*
G75*
G02*
X113515500Y-122788900I0J-147500D01*
G01*
X113515500Y-123133900D01*
G75*
G02*
X113368000Y-123281400I-147500J0D01*
G01*
X113073000Y-123281400D01*
G75*
G02*
X112925500Y-123133900I0J147500D01*
G01*
G37*
G36*
G01*
X111955500Y-123133900D02*
X111955500Y-122788900D01*
G75*
G02*
X112103000Y-122641400I147500J0D01*
G01*
X112398000Y-122641400D01*
G75*
G02*
X112545500Y-122788900I0J-147500D01*
G01*
X112545500Y-123133900D01*
G75*
G02*
X112398000Y-123281400I-147500J0D01*
G01*
X112103000Y-123281400D01*
G75*
G02*
X111955500Y-123133900I0J147500D01*
G01*
G37*
%TD*%
%TO.C,C4*%
G36*
G01*
X95407700Y-77040100D02*
X95752700Y-77040100D01*
G75*
G02*
X95900200Y-77187600I0J-147500D01*
G01*
X95900200Y-77482600D01*
G75*
G02*
X95752700Y-77630100I-147500J0D01*
G01*
X95407700Y-77630100D01*
G75*
G02*
X95260200Y-77482600I0J147500D01*
G01*
X95260200Y-77187600D01*
G75*
G02*
X95407700Y-77040100I147500J0D01*
G01*
G37*
G36*
G01*
X95407700Y-76070100D02*
X95752700Y-76070100D01*
G75*
G02*
X95900200Y-76217600I0J-147500D01*
G01*
X95900200Y-76512600D01*
G75*
G02*
X95752700Y-76660100I-147500J0D01*
G01*
X95407700Y-76660100D01*
G75*
G02*
X95260200Y-76512600I0J147500D01*
G01*
X95260200Y-76217600D01*
G75*
G02*
X95407700Y-76070100I147500J0D01*
G01*
G37*
%TD*%
%TO.C,C3*%
G36*
G01*
X126675100Y-77725900D02*
X127020100Y-77725900D01*
G75*
G02*
X127167600Y-77873400I0J-147500D01*
G01*
X127167600Y-78168400D01*
G75*
G02*
X127020100Y-78315900I-147500J0D01*
G01*
X126675100Y-78315900D01*
G75*
G02*
X126527600Y-78168400I0J147500D01*
G01*
X126527600Y-77873400D01*
G75*
G02*
X126675100Y-77725900I147500J0D01*
G01*
G37*
G36*
G01*
X126675100Y-76755900D02*
X127020100Y-76755900D01*
G75*
G02*
X127167600Y-76903400I0J-147500D01*
G01*
X127167600Y-77198400D01*
G75*
G02*
X127020100Y-77345900I-147500J0D01*
G01*
X126675100Y-77345900D01*
G75*
G02*
X126527600Y-77198400I0J147500D01*
G01*
X126527600Y-76903400D01*
G75*
G02*
X126675100Y-76755900I147500J0D01*
G01*
G37*
%TD*%
%TO.C,C2*%
G36*
G01*
X95979200Y-93918400D02*
X96324200Y-93918400D01*
G75*
G02*
X96471700Y-94065900I0J-147500D01*
G01*
X96471700Y-94360900D01*
G75*
G02*
X96324200Y-94508400I-147500J0D01*
G01*
X95979200Y-94508400D01*
G75*
G02*
X95831700Y-94360900I0J147500D01*
G01*
X95831700Y-94065900D01*
G75*
G02*
X95979200Y-93918400I147500J0D01*
G01*
G37*
G36*
G01*
X95979200Y-92948400D02*
X96324200Y-92948400D01*
G75*
G02*
X96471700Y-93095900I0J-147500D01*
G01*
X96471700Y-93390900D01*
G75*
G02*
X96324200Y-93538400I-147500J0D01*
G01*
X95979200Y-93538400D01*
G75*
G02*
X95831700Y-93390900I0J147500D01*
G01*
X95831700Y-93095900D01*
G75*
G02*
X95979200Y-92948400I147500J0D01*
G01*
G37*
%TD*%
%TO.C,C1*%
G36*
G01*
X121673400Y-120241700D02*
X121328400Y-120241700D01*
G75*
G02*
X121180900Y-120094200I0J147500D01*
G01*
X121180900Y-119799200D01*
G75*
G02*
X121328400Y-119651700I147500J0D01*
G01*
X121673400Y-119651700D01*
G75*
G02*
X121820900Y-119799200I0J-147500D01*
G01*
X121820900Y-120094200D01*
G75*
G02*
X121673400Y-120241700I-147500J0D01*
G01*
G37*
G36*
G01*
X121673400Y-121211700D02*
X121328400Y-121211700D01*
G75*
G02*
X121180900Y-121064200I0J147500D01*
G01*
X121180900Y-120769200D01*
G75*
G02*
X121328400Y-120621700I147500J0D01*
G01*
X121673400Y-120621700D01*
G75*
G02*
X121820900Y-120769200I0J-147500D01*
G01*
X121820900Y-121064200D01*
G75*
G02*
X121673400Y-121211700I-147500J0D01*
G01*
G37*
%TD*%
M02*
