%TF.GenerationSoftware,KiCad,Pcbnew,(5.1.6)-1*%
%TF.CreationDate,2020-09-22T22:20:25+03:00*%
%TF.ProjectId,Z80_devboard,5a38305f-6465-4766-926f-6172642e6b69,rev?*%
%TF.SameCoordinates,Original*%
%TF.FileFunction,Legend,Top*%
%TF.FilePolarity,Positive*%
%FSLAX46Y46*%
G04 Gerber Fmt 4.6, Leading zero omitted, Abs format (unit mm)*
G04 Created by KiCad (PCBNEW (5.1.6)-1) date 2020-09-22 22:20:25*
%MOMM*%
%LPD*%
G01*
G04 APERTURE LIST*
%ADD10C,0.150000*%
%ADD11C,0.300000*%
%ADD12C,0.120000*%
%ADD13C,0.200000*%
%ADD14C,0.254000*%
G04 APERTURE END LIST*
D10*
X108964480Y-88451747D02*
X109678766Y-88451747D01*
X109821623Y-88499366D01*
X109916861Y-88594604D01*
X109964480Y-88737461D01*
X109964480Y-88832700D01*
X109964480Y-87499366D02*
X109964480Y-87975557D01*
X108964480Y-87975557D01*
X109869242Y-86594604D02*
X109916861Y-86642223D01*
X109964480Y-86785080D01*
X109964480Y-86880319D01*
X109916861Y-87023176D01*
X109821623Y-87118414D01*
X109726385Y-87166033D01*
X109535909Y-87213652D01*
X109393052Y-87213652D01*
X109202576Y-87166033D01*
X109107338Y-87118414D01*
X109012100Y-87023176D01*
X108964480Y-86880319D01*
X108964480Y-86785080D01*
X109012100Y-86642223D01*
X109059719Y-86594604D01*
X108964480Y-85880319D02*
X109678766Y-85880319D01*
X109821623Y-85927938D01*
X109916861Y-86023176D01*
X109964480Y-86166033D01*
X109964480Y-86261271D01*
X109964480Y-84927938D02*
X109964480Y-85404128D01*
X108964480Y-85404128D01*
X109869242Y-84023176D02*
X109916861Y-84070795D01*
X109964480Y-84213652D01*
X109964480Y-84308890D01*
X109916861Y-84451747D01*
X109821623Y-84546985D01*
X109726385Y-84594604D01*
X109535909Y-84642223D01*
X109393052Y-84642223D01*
X109202576Y-84594604D01*
X109107338Y-84546985D01*
X109012100Y-84451747D01*
X108964480Y-84308890D01*
X108964480Y-84213652D01*
X109012100Y-84070795D01*
X109059719Y-84023176D01*
X108964480Y-83308890D02*
X109678766Y-83308890D01*
X109821623Y-83356509D01*
X109916861Y-83451747D01*
X109964480Y-83594604D01*
X109964480Y-83689842D01*
X109964480Y-82356509D02*
X109964480Y-82832700D01*
X108964480Y-82832700D01*
X109869242Y-81451747D02*
X109916861Y-81499366D01*
X109964480Y-81642223D01*
X109964480Y-81737461D01*
X109916861Y-81880319D01*
X109821623Y-81975557D01*
X109726385Y-82023176D01*
X109535909Y-82070795D01*
X109393052Y-82070795D01*
X109202576Y-82023176D01*
X109107338Y-81975557D01*
X109012100Y-81880319D01*
X108964480Y-81737461D01*
X108964480Y-81642223D01*
X109012100Y-81499366D01*
X109059719Y-81451747D01*
X108964480Y-80737461D02*
X109678766Y-80737461D01*
X109821623Y-80785080D01*
X109916861Y-80880319D01*
X109964480Y-81023176D01*
X109964480Y-81118414D01*
X109964480Y-79785080D02*
X109964480Y-80261271D01*
X108964480Y-80261271D01*
X109869242Y-78880319D02*
X109916861Y-78927938D01*
X109964480Y-79070795D01*
X109964480Y-79166033D01*
X109916861Y-79308890D01*
X109821623Y-79404128D01*
X109726385Y-79451747D01*
X109535909Y-79499366D01*
X109393052Y-79499366D01*
X109202576Y-79451747D01*
X109107338Y-79404128D01*
X109012100Y-79308890D01*
X108964480Y-79166033D01*
X108964480Y-79070795D01*
X109012100Y-78927938D01*
X109059719Y-78880319D01*
X128397047Y-69337228D02*
X129158952Y-69337228D01*
X128778000Y-69718180D02*
X128778000Y-68956276D01*
X119126047Y-128684328D02*
X119887952Y-128684328D01*
X119507000Y-129065280D02*
X119507000Y-128303376D01*
X103873347Y-120988128D02*
X104635252Y-120988128D01*
X104254300Y-121369080D02*
X104254300Y-120607176D01*
X97802747Y-85542428D02*
X98564652Y-85542428D01*
X98183700Y-85923380D02*
X98183700Y-85161476D01*
X97294747Y-68460928D02*
X98056652Y-68460928D01*
X97675700Y-68841880D02*
X97675700Y-68079976D01*
X101028547Y-66708328D02*
X101790452Y-66708328D01*
X101409500Y-67089280D02*
X101409500Y-66327376D01*
X78660761Y-119340380D02*
X78994095Y-120340380D01*
X79327428Y-119340380D01*
X79660761Y-120340380D02*
X79660761Y-119340380D01*
X80136952Y-120340380D02*
X80136952Y-119340380D01*
X80708380Y-120340380D01*
X80708380Y-119340380D01*
X91932285Y-96591428D02*
X92694190Y-96591428D01*
X92313238Y-96972380D02*
X92313238Y-96210476D01*
X93646571Y-95972380D02*
X93170380Y-95972380D01*
X93122761Y-96448571D01*
X93170380Y-96400952D01*
X93265619Y-96353333D01*
X93503714Y-96353333D01*
X93598952Y-96400952D01*
X93646571Y-96448571D01*
X93694190Y-96543809D01*
X93694190Y-96781904D01*
X93646571Y-96877142D01*
X93598952Y-96924761D01*
X93503714Y-96972380D01*
X93265619Y-96972380D01*
X93170380Y-96924761D01*
X93122761Y-96877142D01*
X93979904Y-95972380D02*
X94313238Y-96972380D01*
X94646571Y-95972380D01*
X88728800Y-119413328D02*
X89490704Y-119413328D01*
X89109752Y-119794280D02*
X89109752Y-119032376D01*
X89871657Y-118794280D02*
X90490704Y-118794280D01*
X90157371Y-119175233D01*
X90300228Y-119175233D01*
X90395466Y-119222852D01*
X90443085Y-119270471D01*
X90490704Y-119365709D01*
X90490704Y-119603804D01*
X90443085Y-119699042D01*
X90395466Y-119746661D01*
X90300228Y-119794280D01*
X90014514Y-119794280D01*
X89919276Y-119746661D01*
X89871657Y-119699042D01*
X90919276Y-119699042D02*
X90966895Y-119746661D01*
X90919276Y-119794280D01*
X90871657Y-119746661D01*
X90919276Y-119699042D01*
X90919276Y-119794280D01*
X91300228Y-118794280D02*
X91919276Y-118794280D01*
X91585942Y-119175233D01*
X91728800Y-119175233D01*
X91824038Y-119222852D01*
X91871657Y-119270471D01*
X91919276Y-119365709D01*
X91919276Y-119603804D01*
X91871657Y-119699042D01*
X91824038Y-119746661D01*
X91728800Y-119794280D01*
X91443085Y-119794280D01*
X91347847Y-119746661D01*
X91300228Y-119699042D01*
X92204990Y-118794280D02*
X92538323Y-119794280D01*
X92871657Y-118794280D01*
X89712895Y-123731400D02*
X89617657Y-123683780D01*
X89474800Y-123683780D01*
X89331942Y-123731400D01*
X89236704Y-123826638D01*
X89189085Y-123921876D01*
X89141466Y-124112352D01*
X89141466Y-124255209D01*
X89189085Y-124445685D01*
X89236704Y-124540923D01*
X89331942Y-124636161D01*
X89474800Y-124683780D01*
X89570038Y-124683780D01*
X89712895Y-124636161D01*
X89760514Y-124588542D01*
X89760514Y-124255209D01*
X89570038Y-124255209D01*
X90189085Y-124683780D02*
X90189085Y-123683780D01*
X90760514Y-124683780D01*
X90760514Y-123683780D01*
X91236704Y-124683780D02*
X91236704Y-123683780D01*
X91474800Y-123683780D01*
X91617657Y-123731400D01*
X91712895Y-123826638D01*
X91760514Y-123921876D01*
X91808133Y-124112352D01*
X91808133Y-124255209D01*
X91760514Y-124445685D01*
X91712895Y-124540923D01*
X91617657Y-124636161D01*
X91474800Y-124683780D01*
X91236704Y-124683780D01*
X79414666Y-63420476D02*
X79414666Y-62944285D01*
X79700380Y-63515714D02*
X78700380Y-63182380D01*
X79700380Y-62849047D01*
X79700380Y-61991904D02*
X79700380Y-62563333D01*
X79700380Y-62277619D02*
X78700380Y-62277619D01*
X78843238Y-62372857D01*
X78938476Y-62468095D01*
X78986095Y-62563333D01*
X78700380Y-61087142D02*
X78700380Y-61563333D01*
X79176571Y-61610952D01*
X79128952Y-61563333D01*
X79081333Y-61468095D01*
X79081333Y-61230000D01*
X79128952Y-61134761D01*
X79176571Y-61087142D01*
X79271809Y-61039523D01*
X79509904Y-61039523D01*
X79605142Y-61087142D01*
X79652761Y-61134761D01*
X79700380Y-61230000D01*
X79700380Y-61468095D01*
X79652761Y-61563333D01*
X79605142Y-61610952D01*
X81954666Y-63420476D02*
X81954666Y-62944285D01*
X82240380Y-63515714D02*
X81240380Y-63182380D01*
X82240380Y-62849047D01*
X82240380Y-61991904D02*
X82240380Y-62563333D01*
X82240380Y-62277619D02*
X81240380Y-62277619D01*
X81383238Y-62372857D01*
X81478476Y-62468095D01*
X81526095Y-62563333D01*
X81573714Y-61134761D02*
X82240380Y-61134761D01*
X81192761Y-61372857D02*
X81907047Y-61610952D01*
X81907047Y-60991904D01*
X84494666Y-63420476D02*
X84494666Y-62944285D01*
X84780380Y-63515714D02*
X83780380Y-63182380D01*
X84780380Y-62849047D01*
X84780380Y-61991904D02*
X84780380Y-62563333D01*
X84780380Y-62277619D02*
X83780380Y-62277619D01*
X83923238Y-62372857D01*
X84018476Y-62468095D01*
X84066095Y-62563333D01*
X83780380Y-61658571D02*
X83780380Y-61039523D01*
X84161333Y-61372857D01*
X84161333Y-61230000D01*
X84208952Y-61134761D01*
X84256571Y-61087142D01*
X84351809Y-61039523D01*
X84589904Y-61039523D01*
X84685142Y-61087142D01*
X84732761Y-61134761D01*
X84780380Y-61230000D01*
X84780380Y-61515714D01*
X84732761Y-61610952D01*
X84685142Y-61658571D01*
X87034666Y-63420476D02*
X87034666Y-62944285D01*
X87320380Y-63515714D02*
X86320380Y-63182380D01*
X87320380Y-62849047D01*
X87320380Y-61991904D02*
X87320380Y-62563333D01*
X87320380Y-62277619D02*
X86320380Y-62277619D01*
X86463238Y-62372857D01*
X86558476Y-62468095D01*
X86606095Y-62563333D01*
X86415619Y-61610952D02*
X86368000Y-61563333D01*
X86320380Y-61468095D01*
X86320380Y-61230000D01*
X86368000Y-61134761D01*
X86415619Y-61087142D01*
X86510857Y-61039523D01*
X86606095Y-61039523D01*
X86748952Y-61087142D01*
X87320380Y-61658571D01*
X87320380Y-61039523D01*
X89574666Y-63420476D02*
X89574666Y-62944285D01*
X89860380Y-63515714D02*
X88860380Y-63182380D01*
X89860380Y-62849047D01*
X89860380Y-61991904D02*
X89860380Y-62563333D01*
X89860380Y-62277619D02*
X88860380Y-62277619D01*
X89003238Y-62372857D01*
X89098476Y-62468095D01*
X89146095Y-62563333D01*
X89860380Y-61039523D02*
X89860380Y-61610952D01*
X89860380Y-61325238D02*
X88860380Y-61325238D01*
X89003238Y-61420476D01*
X89098476Y-61515714D01*
X89146095Y-61610952D01*
X92368666Y-63420476D02*
X92368666Y-62944285D01*
X92654380Y-63515714D02*
X91654380Y-63182380D01*
X92654380Y-62849047D01*
X92654380Y-61991904D02*
X92654380Y-62563333D01*
X92654380Y-62277619D02*
X91654380Y-62277619D01*
X91797238Y-62372857D01*
X91892476Y-62468095D01*
X91940095Y-62563333D01*
X91654380Y-61372857D02*
X91654380Y-61277619D01*
X91702000Y-61182380D01*
X91749619Y-61134761D01*
X91844857Y-61087142D01*
X92035333Y-61039523D01*
X92273428Y-61039523D01*
X92463904Y-61087142D01*
X92559142Y-61134761D01*
X92606761Y-61182380D01*
X92654380Y-61277619D01*
X92654380Y-61372857D01*
X92606761Y-61468095D01*
X92559142Y-61515714D01*
X92463904Y-61563333D01*
X92273428Y-61610952D01*
X92035333Y-61610952D01*
X91844857Y-61563333D01*
X91749619Y-61515714D01*
X91702000Y-61468095D01*
X91654380Y-61372857D01*
X94654666Y-62436285D02*
X94654666Y-61960095D01*
X94940380Y-62531523D02*
X93940380Y-62198190D01*
X94940380Y-61864857D01*
X94940380Y-61483904D02*
X94940380Y-61293428D01*
X94892761Y-61198190D01*
X94845142Y-61150571D01*
X94702285Y-61055333D01*
X94511809Y-61007714D01*
X94130857Y-61007714D01*
X94035619Y-61055333D01*
X93988000Y-61102952D01*
X93940380Y-61198190D01*
X93940380Y-61388666D01*
X93988000Y-61483904D01*
X94035619Y-61531523D01*
X94130857Y-61579142D01*
X94368952Y-61579142D01*
X94464190Y-61531523D01*
X94511809Y-61483904D01*
X94559428Y-61388666D01*
X94559428Y-61198190D01*
X94511809Y-61102952D01*
X94464190Y-61055333D01*
X94368952Y-61007714D01*
X97194666Y-62436285D02*
X97194666Y-61960095D01*
X97480380Y-62531523D02*
X96480380Y-62198190D01*
X97480380Y-61864857D01*
X96908952Y-61388666D02*
X96861333Y-61483904D01*
X96813714Y-61531523D01*
X96718476Y-61579142D01*
X96670857Y-61579142D01*
X96575619Y-61531523D01*
X96528000Y-61483904D01*
X96480380Y-61388666D01*
X96480380Y-61198190D01*
X96528000Y-61102952D01*
X96575619Y-61055333D01*
X96670857Y-61007714D01*
X96718476Y-61007714D01*
X96813714Y-61055333D01*
X96861333Y-61102952D01*
X96908952Y-61198190D01*
X96908952Y-61388666D01*
X96956571Y-61483904D01*
X97004190Y-61531523D01*
X97099428Y-61579142D01*
X97289904Y-61579142D01*
X97385142Y-61531523D01*
X97432761Y-61483904D01*
X97480380Y-61388666D01*
X97480380Y-61198190D01*
X97432761Y-61102952D01*
X97385142Y-61055333D01*
X97289904Y-61007714D01*
X97099428Y-61007714D01*
X97004190Y-61055333D01*
X96956571Y-61102952D01*
X96908952Y-61198190D01*
X99734666Y-62436285D02*
X99734666Y-61960095D01*
X100020380Y-62531523D02*
X99020380Y-62198190D01*
X100020380Y-61864857D01*
X99020380Y-61626761D02*
X99020380Y-60960095D01*
X100020380Y-61388666D01*
X102274666Y-62436285D02*
X102274666Y-61960095D01*
X102560380Y-62531523D02*
X101560380Y-62198190D01*
X102560380Y-61864857D01*
X101560380Y-61102952D02*
X101560380Y-61293428D01*
X101608000Y-61388666D01*
X101655619Y-61436285D01*
X101798476Y-61531523D01*
X101988952Y-61579142D01*
X102369904Y-61579142D01*
X102465142Y-61531523D01*
X102512761Y-61483904D01*
X102560380Y-61388666D01*
X102560380Y-61198190D01*
X102512761Y-61102952D01*
X102465142Y-61055333D01*
X102369904Y-61007714D01*
X102131809Y-61007714D01*
X102036571Y-61055333D01*
X101988952Y-61102952D01*
X101941333Y-61198190D01*
X101941333Y-61388666D01*
X101988952Y-61483904D01*
X102036571Y-61531523D01*
X102131809Y-61579142D01*
X104814666Y-62436285D02*
X104814666Y-61960095D01*
X105100380Y-62531523D02*
X104100380Y-62198190D01*
X105100380Y-61864857D01*
X104100380Y-61055333D02*
X104100380Y-61531523D01*
X104576571Y-61579142D01*
X104528952Y-61531523D01*
X104481333Y-61436285D01*
X104481333Y-61198190D01*
X104528952Y-61102952D01*
X104576571Y-61055333D01*
X104671809Y-61007714D01*
X104909904Y-61007714D01*
X105005142Y-61055333D01*
X105052761Y-61102952D01*
X105100380Y-61198190D01*
X105100380Y-61436285D01*
X105052761Y-61531523D01*
X105005142Y-61579142D01*
X107354666Y-62436285D02*
X107354666Y-61960095D01*
X107640380Y-62531523D02*
X106640380Y-62198190D01*
X107640380Y-61864857D01*
X106973714Y-61102952D02*
X107640380Y-61102952D01*
X106592761Y-61341047D02*
X107307047Y-61579142D01*
X107307047Y-60960095D01*
X109894666Y-62436285D02*
X109894666Y-61960095D01*
X110180380Y-62531523D02*
X109180380Y-62198190D01*
X110180380Y-61864857D01*
X109180380Y-61626761D02*
X109180380Y-61007714D01*
X109561333Y-61341047D01*
X109561333Y-61198190D01*
X109608952Y-61102952D01*
X109656571Y-61055333D01*
X109751809Y-61007714D01*
X109989904Y-61007714D01*
X110085142Y-61055333D01*
X110132761Y-61102952D01*
X110180380Y-61198190D01*
X110180380Y-61483904D01*
X110132761Y-61579142D01*
X110085142Y-61626761D01*
X112434666Y-62436285D02*
X112434666Y-61960095D01*
X112720380Y-62531523D02*
X111720380Y-62198190D01*
X112720380Y-61864857D01*
X111815619Y-61579142D02*
X111768000Y-61531523D01*
X111720380Y-61436285D01*
X111720380Y-61198190D01*
X111768000Y-61102952D01*
X111815619Y-61055333D01*
X111910857Y-61007714D01*
X112006095Y-61007714D01*
X112148952Y-61055333D01*
X112720380Y-61626761D01*
X112720380Y-61007714D01*
X114974666Y-62436285D02*
X114974666Y-61960095D01*
X115260380Y-62531523D02*
X114260380Y-62198190D01*
X115260380Y-61864857D01*
X115260380Y-61007714D02*
X115260380Y-61579142D01*
X115260380Y-61293428D02*
X114260380Y-61293428D01*
X114403238Y-61388666D01*
X114498476Y-61483904D01*
X114546095Y-61579142D01*
X117768666Y-62436285D02*
X117768666Y-61960095D01*
X118054380Y-62531523D02*
X117054380Y-62198190D01*
X118054380Y-61864857D01*
X117054380Y-61341047D02*
X117054380Y-61245809D01*
X117102000Y-61150571D01*
X117149619Y-61102952D01*
X117244857Y-61055333D01*
X117435333Y-61007714D01*
X117673428Y-61007714D01*
X117863904Y-61055333D01*
X117959142Y-61102952D01*
X118006761Y-61150571D01*
X118054380Y-61245809D01*
X118054380Y-61341047D01*
X118006761Y-61436285D01*
X117959142Y-61483904D01*
X117863904Y-61531523D01*
X117673428Y-61579142D01*
X117435333Y-61579142D01*
X117244857Y-61531523D01*
X117149619Y-61483904D01*
X117102000Y-61436285D01*
X117054380Y-61341047D01*
X98907000Y-144755904D02*
X98907000Y-143755904D01*
X100274380Y-143946380D02*
X99798190Y-144279714D01*
X100274380Y-144517809D02*
X99274380Y-144517809D01*
X99274380Y-144136857D01*
X99322000Y-144041619D01*
X99369619Y-143994000D01*
X99464857Y-143946380D01*
X99607714Y-143946380D01*
X99702952Y-143994000D01*
X99750571Y-144041619D01*
X99798190Y-144136857D01*
X99798190Y-144517809D01*
X98907000Y-143755904D02*
X98907000Y-142851142D01*
X99750571Y-143517809D02*
X99750571Y-143184476D01*
X100274380Y-143041619D02*
X100274380Y-143517809D01*
X99274380Y-143517809D01*
X99274380Y-143041619D01*
X98907000Y-142851142D02*
X98907000Y-141898761D01*
X100226761Y-142660666D02*
X100274380Y-142517809D01*
X100274380Y-142279714D01*
X100226761Y-142184476D01*
X100179142Y-142136857D01*
X100083904Y-142089238D01*
X99988666Y-142089238D01*
X99893428Y-142136857D01*
X99845809Y-142184476D01*
X99798190Y-142279714D01*
X99750571Y-142470190D01*
X99702952Y-142565428D01*
X99655333Y-142613047D01*
X99560095Y-142660666D01*
X99464857Y-142660666D01*
X99369619Y-142613047D01*
X99322000Y-142565428D01*
X99274380Y-142470190D01*
X99274380Y-142232095D01*
X99322000Y-142089238D01*
X98907000Y-141898761D02*
X98907000Y-140994000D01*
X99750571Y-141660666D02*
X99750571Y-141327333D01*
X100274380Y-141184476D02*
X100274380Y-141660666D01*
X99274380Y-141660666D01*
X99274380Y-141184476D01*
X98907000Y-140994000D02*
X98907000Y-140232095D01*
X99274380Y-140898761D02*
X99274380Y-140327333D01*
X100274380Y-140613047D02*
X99274380Y-140613047D01*
X103987000Y-144168571D02*
X103987000Y-143168571D01*
X105354380Y-143359047D02*
X104878190Y-143692380D01*
X105354380Y-143930476D02*
X104354380Y-143930476D01*
X104354380Y-143549523D01*
X104402000Y-143454285D01*
X104449619Y-143406666D01*
X104544857Y-143359047D01*
X104687714Y-143359047D01*
X104782952Y-143406666D01*
X104830571Y-143454285D01*
X104878190Y-143549523D01*
X104878190Y-143930476D01*
X103987000Y-143168571D02*
X103987000Y-142311428D01*
X104830571Y-142597142D02*
X104830571Y-142930476D01*
X105354380Y-142930476D02*
X104354380Y-142930476D01*
X104354380Y-142454285D01*
X103987000Y-142311428D02*
X103987000Y-141359047D01*
X105306761Y-142120952D02*
X105354380Y-141978095D01*
X105354380Y-141740000D01*
X105306761Y-141644761D01*
X105259142Y-141597142D01*
X105163904Y-141549523D01*
X105068666Y-141549523D01*
X104973428Y-141597142D01*
X104925809Y-141644761D01*
X104878190Y-141740000D01*
X104830571Y-141930476D01*
X104782952Y-142025714D01*
X104735333Y-142073333D01*
X104640095Y-142120952D01*
X104544857Y-142120952D01*
X104449619Y-142073333D01*
X104402000Y-142025714D01*
X104354380Y-141930476D01*
X104354380Y-141692380D01*
X104402000Y-141549523D01*
X103987000Y-141359047D02*
X103987000Y-140311428D01*
X105354380Y-141120952D02*
X104354380Y-141120952D01*
X104830571Y-141120952D02*
X104830571Y-140549523D01*
X105354380Y-140549523D02*
X104354380Y-140549523D01*
X93573000Y-142224000D02*
X93573000Y-141224000D01*
X94940380Y-141414476D02*
X94464190Y-141747809D01*
X94940380Y-141985904D02*
X93940380Y-141985904D01*
X93940380Y-141604952D01*
X93988000Y-141509714D01*
X94035619Y-141462095D01*
X94130857Y-141414476D01*
X94273714Y-141414476D01*
X94368952Y-141462095D01*
X94416571Y-141509714D01*
X94464190Y-141604952D01*
X94464190Y-141985904D01*
X93573000Y-141224000D02*
X93573000Y-140224000D01*
X94940380Y-140985904D02*
X93940380Y-140985904D01*
X93940380Y-140747809D01*
X93988000Y-140604952D01*
X94083238Y-140509714D01*
X94178476Y-140462095D01*
X94368952Y-140414476D01*
X94511809Y-140414476D01*
X94702285Y-140462095D01*
X94797523Y-140509714D01*
X94892761Y-140604952D01*
X94940380Y-140747809D01*
X94940380Y-140985904D01*
X88493000Y-144287619D02*
X88493000Y-143144761D01*
X89860380Y-144049523D02*
X88860380Y-144049523D01*
X89574666Y-143716190D01*
X88860380Y-143382857D01*
X89860380Y-143382857D01*
X88493000Y-143144761D02*
X88493000Y-142144761D01*
X89860380Y-142335238D02*
X89384190Y-142668571D01*
X89860380Y-142906666D02*
X88860380Y-142906666D01*
X88860380Y-142525714D01*
X88908000Y-142430476D01*
X88955619Y-142382857D01*
X89050857Y-142335238D01*
X89193714Y-142335238D01*
X89288952Y-142382857D01*
X89336571Y-142430476D01*
X89384190Y-142525714D01*
X89384190Y-142906666D01*
X88493000Y-142144761D02*
X88493000Y-141240000D01*
X89336571Y-141906666D02*
X89336571Y-141573333D01*
X89860380Y-141430476D02*
X89860380Y-141906666D01*
X88860380Y-141906666D01*
X88860380Y-141430476D01*
X88493000Y-141240000D02*
X88493000Y-140192380D01*
X89955619Y-140335238D02*
X89908000Y-140430476D01*
X89812761Y-140525714D01*
X89669904Y-140668571D01*
X89622285Y-140763809D01*
X89622285Y-140859047D01*
X89860380Y-140811428D02*
X89812761Y-140906666D01*
X89717523Y-141001904D01*
X89527047Y-141049523D01*
X89193714Y-141049523D01*
X89003238Y-141001904D01*
X88908000Y-140906666D01*
X88860380Y-140811428D01*
X88860380Y-140620952D01*
X88908000Y-140525714D01*
X89003238Y-140430476D01*
X89193714Y-140382857D01*
X89527047Y-140382857D01*
X89717523Y-140430476D01*
X89812761Y-140525714D01*
X89860380Y-140620952D01*
X89860380Y-140811428D01*
X101193000Y-142271619D02*
X101193000Y-141128761D01*
X102560380Y-142033523D02*
X101560380Y-142033523D01*
X102274666Y-141700190D01*
X101560380Y-141366857D01*
X102560380Y-141366857D01*
X101193000Y-141128761D02*
X101193000Y-140176380D01*
X102560380Y-140366857D02*
X102560380Y-140938285D01*
X102560380Y-140652571D02*
X101560380Y-140652571D01*
X101703238Y-140747809D01*
X101798476Y-140843047D01*
X101846095Y-140938285D01*
X96113000Y-142295428D02*
X96113000Y-141152571D01*
X96480380Y-142152571D02*
X97480380Y-141914476D01*
X96766095Y-141724000D01*
X97480380Y-141533523D01*
X96480380Y-141295428D01*
X96113000Y-141152571D02*
X96113000Y-140152571D01*
X97480380Y-140343047D02*
X97004190Y-140676380D01*
X97480380Y-140914476D02*
X96480380Y-140914476D01*
X96480380Y-140533523D01*
X96528000Y-140438285D01*
X96575619Y-140390666D01*
X96670857Y-140343047D01*
X96813714Y-140343047D01*
X96908952Y-140390666D01*
X96956571Y-140438285D01*
X97004190Y-140533523D01*
X97004190Y-140914476D01*
X91033000Y-143771714D02*
X91033000Y-143295523D01*
X92400380Y-143533619D02*
X91400380Y-143533619D01*
X91033000Y-143295523D02*
X91033000Y-142247904D01*
X91400380Y-142866952D02*
X91400380Y-142676476D01*
X91448000Y-142581238D01*
X91543238Y-142486000D01*
X91733714Y-142438380D01*
X92067047Y-142438380D01*
X92257523Y-142486000D01*
X92352761Y-142581238D01*
X92400380Y-142676476D01*
X92400380Y-142866952D01*
X92352761Y-142962190D01*
X92257523Y-143057428D01*
X92067047Y-143105047D01*
X91733714Y-143105047D01*
X91543238Y-143057428D01*
X91448000Y-142962190D01*
X91400380Y-142866952D01*
X91033000Y-142247904D02*
X91033000Y-141247904D01*
X92400380Y-141438380D02*
X91924190Y-141771714D01*
X92400380Y-142009809D02*
X91400380Y-142009809D01*
X91400380Y-141628857D01*
X91448000Y-141533619D01*
X91495619Y-141486000D01*
X91590857Y-141438380D01*
X91733714Y-141438380D01*
X91828952Y-141486000D01*
X91876571Y-141533619D01*
X91924190Y-141628857D01*
X91924190Y-142009809D01*
X91033000Y-141247904D02*
X91033000Y-140200285D01*
X92495619Y-140343142D02*
X92448000Y-140438380D01*
X92352761Y-140533619D01*
X92209904Y-140676476D01*
X92162285Y-140771714D01*
X92162285Y-140866952D01*
X92400380Y-140819333D02*
X92352761Y-140914571D01*
X92257523Y-141009809D01*
X92067047Y-141057428D01*
X91733714Y-141057428D01*
X91543238Y-141009809D01*
X91448000Y-140914571D01*
X91400380Y-140819333D01*
X91400380Y-140628857D01*
X91448000Y-140533619D01*
X91543238Y-140438380D01*
X91733714Y-140390761D01*
X92067047Y-140390761D01*
X92257523Y-140438380D01*
X92352761Y-140533619D01*
X92400380Y-140628857D01*
X92400380Y-140819333D01*
X85953000Y-143724095D02*
X85953000Y-142676476D01*
X87320380Y-143486000D02*
X86320380Y-143486000D01*
X86796571Y-143486000D02*
X86796571Y-142914571D01*
X87320380Y-142914571D02*
X86320380Y-142914571D01*
X85953000Y-142676476D02*
X85953000Y-141819333D01*
X87034666Y-142486000D02*
X87034666Y-142009809D01*
X87320380Y-142581238D02*
X86320380Y-142247904D01*
X87320380Y-141914571D01*
X85953000Y-141819333D02*
X85953000Y-141009809D01*
X87320380Y-141105047D02*
X87320380Y-141581238D01*
X86320380Y-141581238D01*
X85953000Y-141009809D02*
X85953000Y-140247904D01*
X86320380Y-140914571D02*
X86320380Y-140343142D01*
X87320380Y-140628857D02*
X86320380Y-140628857D01*
X83413000Y-142811333D02*
X83413000Y-141763714D01*
X84780380Y-142573238D02*
X83780380Y-142573238D01*
X84780380Y-142001809D01*
X83780380Y-142001809D01*
X83413000Y-141763714D02*
X83413000Y-140620857D01*
X84780380Y-141525619D02*
X83780380Y-141525619D01*
X84494666Y-141192285D01*
X83780380Y-140858952D01*
X84780380Y-140858952D01*
X83413000Y-140620857D02*
X83413000Y-140144666D01*
X84780380Y-140382761D02*
X83780380Y-140382761D01*
X81050800Y-142608157D02*
X81050800Y-142131966D01*
X82418180Y-142370061D02*
X81418180Y-142370061D01*
X81050800Y-142131966D02*
X81050800Y-141084347D01*
X82418180Y-141893871D02*
X81418180Y-141893871D01*
X82418180Y-141322442D01*
X81418180Y-141322442D01*
X81050800Y-141084347D02*
X81050800Y-140322442D01*
X81418180Y-140989109D02*
X81418180Y-140417680D01*
X82418180Y-140703395D02*
X81418180Y-140703395D01*
X79541642Y-142136738D02*
X79589261Y-142184357D01*
X79636880Y-142327214D01*
X79636880Y-142422452D01*
X79589261Y-142565309D01*
X79494023Y-142660547D01*
X79398785Y-142708166D01*
X79208309Y-142755785D01*
X79065452Y-142755785D01*
X78874976Y-142708166D01*
X78779738Y-142660547D01*
X78684500Y-142565309D01*
X78636880Y-142422452D01*
X78636880Y-142327214D01*
X78684500Y-142184357D01*
X78732119Y-142136738D01*
X79636880Y-141231976D02*
X79636880Y-141708166D01*
X78636880Y-141708166D01*
X79636880Y-140898642D02*
X78636880Y-140898642D01*
X79636880Y-140327214D02*
X79065452Y-140755785D01*
X78636880Y-140327214D02*
X79208309Y-140898642D01*
X77343047Y-116911428D02*
X78104952Y-116911428D01*
X77724000Y-117292380D02*
X77724000Y-116530476D01*
X85113904Y-86761580D02*
X85113904Y-85761580D01*
X85352000Y-85761580D01*
X85494857Y-85809200D01*
X85590095Y-85904438D01*
X85637714Y-85999676D01*
X85685333Y-86190152D01*
X85685333Y-86333009D01*
X85637714Y-86523485D01*
X85590095Y-86618723D01*
X85494857Y-86713961D01*
X85352000Y-86761580D01*
X85113904Y-86761580D01*
X86018666Y-85761580D02*
X86685333Y-85761580D01*
X86256761Y-86761580D01*
X85164704Y-84170780D02*
X85164704Y-83170780D01*
X85402800Y-83170780D01*
X85545657Y-83218400D01*
X85640895Y-83313638D01*
X85688514Y-83408876D01*
X85736133Y-83599352D01*
X85736133Y-83742209D01*
X85688514Y-83932685D01*
X85640895Y-84027923D01*
X85545657Y-84123161D01*
X85402800Y-84170780D01*
X85164704Y-84170780D01*
X86593276Y-83170780D02*
X86402800Y-83170780D01*
X86307561Y-83218400D01*
X86259942Y-83266019D01*
X86164704Y-83408876D01*
X86117085Y-83599352D01*
X86117085Y-83980304D01*
X86164704Y-84075542D01*
X86212323Y-84123161D01*
X86307561Y-84170780D01*
X86498038Y-84170780D01*
X86593276Y-84123161D01*
X86640895Y-84075542D01*
X86688514Y-83980304D01*
X86688514Y-83742209D01*
X86640895Y-83646971D01*
X86593276Y-83599352D01*
X86498038Y-83551733D01*
X86307561Y-83551733D01*
X86212323Y-83599352D01*
X86164704Y-83646971D01*
X86117085Y-83742209D01*
X85164704Y-81630780D02*
X85164704Y-80630780D01*
X85402800Y-80630780D01*
X85545657Y-80678400D01*
X85640895Y-80773638D01*
X85688514Y-80868876D01*
X85736133Y-81059352D01*
X85736133Y-81202209D01*
X85688514Y-81392685D01*
X85640895Y-81487923D01*
X85545657Y-81583161D01*
X85402800Y-81630780D01*
X85164704Y-81630780D01*
X86640895Y-80630780D02*
X86164704Y-80630780D01*
X86117085Y-81106971D01*
X86164704Y-81059352D01*
X86259942Y-81011733D01*
X86498038Y-81011733D01*
X86593276Y-81059352D01*
X86640895Y-81106971D01*
X86688514Y-81202209D01*
X86688514Y-81440304D01*
X86640895Y-81535542D01*
X86593276Y-81583161D01*
X86498038Y-81630780D01*
X86259942Y-81630780D01*
X86164704Y-81583161D01*
X86117085Y-81535542D01*
X85164704Y-79039980D02*
X85164704Y-78039980D01*
X85402800Y-78039980D01*
X85545657Y-78087600D01*
X85640895Y-78182838D01*
X85688514Y-78278076D01*
X85736133Y-78468552D01*
X85736133Y-78611409D01*
X85688514Y-78801885D01*
X85640895Y-78897123D01*
X85545657Y-78992361D01*
X85402800Y-79039980D01*
X85164704Y-79039980D01*
X86593276Y-78373314D02*
X86593276Y-79039980D01*
X86355180Y-77992361D02*
X86117085Y-78706647D01*
X86736133Y-78706647D01*
X85164704Y-76550780D02*
X85164704Y-75550780D01*
X85402800Y-75550780D01*
X85545657Y-75598400D01*
X85640895Y-75693638D01*
X85688514Y-75788876D01*
X85736133Y-75979352D01*
X85736133Y-76122209D01*
X85688514Y-76312685D01*
X85640895Y-76407923D01*
X85545657Y-76503161D01*
X85402800Y-76550780D01*
X85164704Y-76550780D01*
X86069466Y-75550780D02*
X86688514Y-75550780D01*
X86355180Y-75931733D01*
X86498038Y-75931733D01*
X86593276Y-75979352D01*
X86640895Y-76026971D01*
X86688514Y-76122209D01*
X86688514Y-76360304D01*
X86640895Y-76455542D01*
X86593276Y-76503161D01*
X86498038Y-76550780D01*
X86212323Y-76550780D01*
X86117085Y-76503161D01*
X86069466Y-76455542D01*
X85164704Y-73807580D02*
X85164704Y-72807580D01*
X85402800Y-72807580D01*
X85545657Y-72855200D01*
X85640895Y-72950438D01*
X85688514Y-73045676D01*
X85736133Y-73236152D01*
X85736133Y-73379009D01*
X85688514Y-73569485D01*
X85640895Y-73664723D01*
X85545657Y-73759961D01*
X85402800Y-73807580D01*
X85164704Y-73807580D01*
X86117085Y-72902819D02*
X86164704Y-72855200D01*
X86259942Y-72807580D01*
X86498038Y-72807580D01*
X86593276Y-72855200D01*
X86640895Y-72902819D01*
X86688514Y-72998057D01*
X86688514Y-73093295D01*
X86640895Y-73236152D01*
X86069466Y-73807580D01*
X86688514Y-73807580D01*
X85164704Y-71470780D02*
X85164704Y-70470780D01*
X85402800Y-70470780D01*
X85545657Y-70518400D01*
X85640895Y-70613638D01*
X85688514Y-70708876D01*
X85736133Y-70899352D01*
X85736133Y-71042209D01*
X85688514Y-71232685D01*
X85640895Y-71327923D01*
X85545657Y-71423161D01*
X85402800Y-71470780D01*
X85164704Y-71470780D01*
X86688514Y-71470780D02*
X86117085Y-71470780D01*
X86402800Y-71470780D02*
X86402800Y-70470780D01*
X86307561Y-70613638D01*
X86212323Y-70708876D01*
X86117085Y-70756495D01*
X85164704Y-69032380D02*
X85164704Y-68032380D01*
X85402800Y-68032380D01*
X85545657Y-68080000D01*
X85640895Y-68175238D01*
X85688514Y-68270476D01*
X85736133Y-68460952D01*
X85736133Y-68603809D01*
X85688514Y-68794285D01*
X85640895Y-68889523D01*
X85545657Y-68984761D01*
X85402800Y-69032380D01*
X85164704Y-69032380D01*
X86355180Y-68032380D02*
X86450419Y-68032380D01*
X86545657Y-68080000D01*
X86593276Y-68127619D01*
X86640895Y-68222857D01*
X86688514Y-68413333D01*
X86688514Y-68651428D01*
X86640895Y-68841904D01*
X86593276Y-68937142D01*
X86545657Y-68984761D01*
X86450419Y-69032380D01*
X86355180Y-69032380D01*
X86259942Y-68984761D01*
X86212323Y-68937142D01*
X86164704Y-68841904D01*
X86117085Y-68651428D01*
X86117085Y-68413333D01*
X86164704Y-68222857D01*
X86212323Y-68127619D01*
X86259942Y-68080000D01*
X86355180Y-68032380D01*
D11*
X112221557Y-139743571D02*
X111721557Y-139029285D01*
X111364414Y-139743571D02*
X111364414Y-138243571D01*
X111935842Y-138243571D01*
X112078700Y-138315000D01*
X112150128Y-138386428D01*
X112221557Y-138529285D01*
X112221557Y-138743571D01*
X112150128Y-138886428D01*
X112078700Y-138957857D01*
X111935842Y-139029285D01*
X111364414Y-139029285D01*
X113435842Y-139672142D02*
X113292985Y-139743571D01*
X113007271Y-139743571D01*
X112864414Y-139672142D01*
X112792985Y-139529285D01*
X112792985Y-138957857D01*
X112864414Y-138815000D01*
X113007271Y-138743571D01*
X113292985Y-138743571D01*
X113435842Y-138815000D01*
X113507271Y-138957857D01*
X113507271Y-139100714D01*
X112792985Y-139243571D01*
X114007271Y-138743571D02*
X114364414Y-139743571D01*
X114721557Y-138743571D01*
X117221557Y-139743571D02*
X116364414Y-139743571D01*
X116792985Y-139743571D02*
X116792985Y-138243571D01*
X116650128Y-138457857D01*
X116507271Y-138600714D01*
X116364414Y-138672142D01*
X117864414Y-139600714D02*
X117935842Y-139672142D01*
X117864414Y-139743571D01*
X117792985Y-139672142D01*
X117864414Y-139600714D01*
X117864414Y-139743571D01*
X118864414Y-138243571D02*
X119007271Y-138243571D01*
X119150128Y-138315000D01*
X119221557Y-138386428D01*
X119292985Y-138529285D01*
X119364414Y-138815000D01*
X119364414Y-139172142D01*
X119292985Y-139457857D01*
X119221557Y-139600714D01*
X119150128Y-139672142D01*
X119007271Y-139743571D01*
X118864414Y-139743571D01*
X118721557Y-139672142D01*
X118650128Y-139600714D01*
X118578700Y-139457857D01*
X118507271Y-139172142D01*
X118507271Y-138815000D01*
X118578700Y-138529285D01*
X118650128Y-138386428D01*
X118721557Y-138315000D01*
X118864414Y-138243571D01*
X111373614Y-134738371D02*
X112373614Y-134738371D01*
X111373614Y-136238371D01*
X112373614Y-136238371D01*
X113159328Y-135381228D02*
X113016471Y-135309800D01*
X112945042Y-135238371D01*
X112873614Y-135095514D01*
X112873614Y-135024085D01*
X112945042Y-134881228D01*
X113016471Y-134809800D01*
X113159328Y-134738371D01*
X113445042Y-134738371D01*
X113587900Y-134809800D01*
X113659328Y-134881228D01*
X113730757Y-135024085D01*
X113730757Y-135095514D01*
X113659328Y-135238371D01*
X113587900Y-135309800D01*
X113445042Y-135381228D01*
X113159328Y-135381228D01*
X113016471Y-135452657D01*
X112945042Y-135524085D01*
X112873614Y-135666942D01*
X112873614Y-135952657D01*
X112945042Y-136095514D01*
X113016471Y-136166942D01*
X113159328Y-136238371D01*
X113445042Y-136238371D01*
X113587900Y-136166942D01*
X113659328Y-136095514D01*
X113730757Y-135952657D01*
X113730757Y-135666942D01*
X113659328Y-135524085D01*
X113587900Y-135452657D01*
X113445042Y-135381228D01*
X114659328Y-134738371D02*
X114802185Y-134738371D01*
X114945042Y-134809800D01*
X115016471Y-134881228D01*
X115087900Y-135024085D01*
X115159328Y-135309800D01*
X115159328Y-135666942D01*
X115087900Y-135952657D01*
X115016471Y-136095514D01*
X114945042Y-136166942D01*
X114802185Y-136238371D01*
X114659328Y-136238371D01*
X114516471Y-136166942D01*
X114445042Y-136095514D01*
X114373614Y-135952657D01*
X114302185Y-135666942D01*
X114302185Y-135309800D01*
X114373614Y-135024085D01*
X114445042Y-134881228D01*
X114516471Y-134809800D01*
X114659328Y-134738371D01*
X116945042Y-136238371D02*
X116945042Y-134738371D01*
X117302185Y-134738371D01*
X117516471Y-134809800D01*
X117659328Y-134952657D01*
X117730757Y-135095514D01*
X117802185Y-135381228D01*
X117802185Y-135595514D01*
X117730757Y-135881228D01*
X117659328Y-136024085D01*
X117516471Y-136166942D01*
X117302185Y-136238371D01*
X116945042Y-136238371D01*
X119016471Y-136166942D02*
X118873614Y-136238371D01*
X118587900Y-136238371D01*
X118445042Y-136166942D01*
X118373614Y-136024085D01*
X118373614Y-135452657D01*
X118445042Y-135309800D01*
X118587900Y-135238371D01*
X118873614Y-135238371D01*
X119016471Y-135309800D01*
X119087900Y-135452657D01*
X119087900Y-135595514D01*
X118373614Y-135738371D01*
X119587900Y-135238371D02*
X119945042Y-136238371D01*
X120302185Y-135238371D01*
X121373614Y-135452657D02*
X121587900Y-135524085D01*
X121659328Y-135595514D01*
X121730757Y-135738371D01*
X121730757Y-135952657D01*
X121659328Y-136095514D01*
X121587900Y-136166942D01*
X121445042Y-136238371D01*
X120873614Y-136238371D01*
X120873614Y-134738371D01*
X121373614Y-134738371D01*
X121516471Y-134809800D01*
X121587900Y-134881228D01*
X121659328Y-135024085D01*
X121659328Y-135166942D01*
X121587900Y-135309800D01*
X121516471Y-135381228D01*
X121373614Y-135452657D01*
X120873614Y-135452657D01*
X122587900Y-136238371D02*
X122445042Y-136166942D01*
X122373614Y-136095514D01*
X122302185Y-135952657D01*
X122302185Y-135524085D01*
X122373614Y-135381228D01*
X122445042Y-135309800D01*
X122587900Y-135238371D01*
X122802185Y-135238371D01*
X122945042Y-135309800D01*
X123016471Y-135381228D01*
X123087900Y-135524085D01*
X123087900Y-135952657D01*
X123016471Y-136095514D01*
X122945042Y-136166942D01*
X122802185Y-136238371D01*
X122587900Y-136238371D01*
X124373614Y-136238371D02*
X124373614Y-135452657D01*
X124302185Y-135309800D01*
X124159328Y-135238371D01*
X123873614Y-135238371D01*
X123730757Y-135309800D01*
X124373614Y-136166942D02*
X124230757Y-136238371D01*
X123873614Y-136238371D01*
X123730757Y-136166942D01*
X123659328Y-136024085D01*
X123659328Y-135881228D01*
X123730757Y-135738371D01*
X123873614Y-135666942D01*
X124230757Y-135666942D01*
X124373614Y-135595514D01*
X125087900Y-136238371D02*
X125087900Y-135238371D01*
X125087900Y-135524085D02*
X125159328Y-135381228D01*
X125230757Y-135309800D01*
X125373614Y-135238371D01*
X125516471Y-135238371D01*
X126659328Y-136238371D02*
X126659328Y-134738371D01*
X126659328Y-136166942D02*
X126516471Y-136238371D01*
X126230757Y-136238371D01*
X126087900Y-136166942D01*
X126016471Y-136095514D01*
X125945042Y-135952657D01*
X125945042Y-135524085D01*
X126016471Y-135381228D01*
X126087900Y-135309800D01*
X126230757Y-135238371D01*
X126516471Y-135238371D01*
X126659328Y-135309800D01*
D12*
%TO.C,U3*%
X115680000Y-67758000D02*
X110220000Y-67758000D01*
X115680000Y-118678000D02*
X115680000Y-67758000D01*
X102760000Y-118678000D02*
X115680000Y-118678000D01*
X102760000Y-67758000D02*
X102760000Y-118678000D01*
X108220000Y-67758000D02*
X102760000Y-67758000D01*
X110220000Y-67758000D02*
G75*
G02*
X108220000Y-67758000I-1000000J0D01*
G01*
%TO.C,J10*%
X105914500Y-139493300D02*
X105914500Y-136833300D01*
X80454500Y-139493300D02*
X105914500Y-139493300D01*
X80454500Y-136833300D02*
X105914500Y-136833300D01*
X80454500Y-139493300D02*
X80454500Y-136833300D01*
X79184500Y-139493300D02*
X77854500Y-139493300D01*
X77854500Y-139493300D02*
X77854500Y-138163300D01*
%TO.C,J9*%
X118690700Y-56473400D02*
X118690700Y-53813400D01*
X80530700Y-56473400D02*
X118690700Y-56473400D01*
X80530700Y-53813400D02*
X118690700Y-53813400D01*
X80530700Y-56473400D02*
X80530700Y-53813400D01*
X79260700Y-56473400D02*
X77930700Y-56473400D01*
X77930700Y-56473400D02*
X77930700Y-55143400D01*
%TO.C,J8*%
X80400200Y-66907100D02*
X77740200Y-66907100D01*
X80400200Y-84747100D02*
X80400200Y-66907100D01*
X77740200Y-84747100D02*
X77740200Y-66907100D01*
X80400200Y-84747100D02*
X77740200Y-84747100D01*
X80400200Y-86017100D02*
X80400200Y-87347100D01*
X80400200Y-87347100D02*
X79070200Y-87347100D01*
%TO.C,J7*%
X97176900Y-123072200D02*
X97176900Y-120412200D01*
X92036900Y-123072200D02*
X97176900Y-123072200D01*
X92036900Y-120412200D02*
X97176900Y-120412200D01*
X92036900Y-123072200D02*
X92036900Y-120412200D01*
X90766900Y-123072200D02*
X89436900Y-123072200D01*
X89436900Y-123072200D02*
X89436900Y-121742200D01*
%TO.C,J6*%
X97215000Y-118106500D02*
X97215000Y-115446500D01*
X92075000Y-118106500D02*
X97215000Y-118106500D01*
X92075000Y-115446500D02*
X97215000Y-115446500D01*
X92075000Y-118106500D02*
X92075000Y-115446500D01*
X90805000Y-118106500D02*
X89475000Y-118106500D01*
X89475000Y-118106500D02*
X89475000Y-116776500D01*
%TO.C,J5*%
X93595500Y-100580500D02*
X93595500Y-97920500D01*
X88455500Y-100580500D02*
X93595500Y-100580500D01*
X88455500Y-97920500D02*
X93595500Y-97920500D01*
X88455500Y-100580500D02*
X88455500Y-97920500D01*
X87185500Y-100580500D02*
X85855500Y-100580500D01*
X85855500Y-100580500D02*
X85855500Y-99250500D01*
%TO.C,U2*%
X91332000Y-111193500D02*
X92592000Y-111193500D01*
X98152000Y-111193500D02*
X96892000Y-111193500D01*
X91332000Y-107433500D02*
X91332000Y-111193500D01*
X98152000Y-105183500D02*
X98152000Y-111193500D01*
%TO.C,U1*%
X85539500Y-111233000D02*
X85539500Y-109973000D01*
X85539500Y-104413000D02*
X85539500Y-105673000D01*
X81779500Y-111233000D02*
X85539500Y-111233000D01*
X79529500Y-104413000D02*
X85539500Y-104413000D01*
%TO.C,J4*%
X79251500Y-115510000D02*
X79251500Y-118170000D01*
X81851500Y-115510000D02*
X79251500Y-115510000D01*
X81851500Y-118170000D02*
X79251500Y-118170000D01*
X81851500Y-115510000D02*
X81851500Y-118170000D01*
X83121500Y-115510000D02*
X84451500Y-115510000D01*
X84451500Y-115510000D02*
X84451500Y-116840000D01*
%TO.C,J3*%
X105914500Y-133036000D02*
X105914500Y-134366000D01*
X104584500Y-133036000D02*
X105914500Y-133036000D01*
X103314500Y-133036000D02*
X103314500Y-135696000D01*
X103314500Y-135696000D02*
X77854500Y-135696000D01*
X103314500Y-133036000D02*
X77854500Y-133036000D01*
X77854500Y-133036000D02*
X77854500Y-135696000D01*
%TO.C,J2*%
X118678000Y-57534500D02*
X118678000Y-58864500D01*
X117348000Y-57534500D02*
X118678000Y-57534500D01*
X116078000Y-57534500D02*
X116078000Y-60194500D01*
X116078000Y-60194500D02*
X77918000Y-60194500D01*
X116078000Y-57534500D02*
X77918000Y-57534500D01*
X77918000Y-57534500D02*
X77918000Y-60194500D01*
%TO.C,J1*%
X81601000Y-66932500D02*
X82931000Y-66932500D01*
X81601000Y-68262500D02*
X81601000Y-66932500D01*
X81601000Y-69532500D02*
X84261000Y-69532500D01*
X84261000Y-69532500D02*
X84261000Y-87372500D01*
X81601000Y-69532500D02*
X81601000Y-87372500D01*
X81601000Y-87372500D02*
X84261000Y-87372500D01*
D13*
%TO.C,IC6*%
X120286900Y-129354200D02*
X120286900Y-127879200D01*
X127036900Y-127529200D02*
X120536900Y-127529200D01*
X127036900Y-123829200D02*
X127036900Y-127529200D01*
X120536900Y-123829200D02*
X127036900Y-123829200D01*
X120536900Y-127529200D02*
X120536900Y-123829200D01*
%TO.C,IC5*%
X103640000Y-121747400D02*
X105115000Y-121747400D01*
X105465000Y-128497400D02*
X105465000Y-121997400D01*
X109165000Y-128497400D02*
X105465000Y-128497400D01*
X109165000Y-121997400D02*
X109165000Y-128497400D01*
X105465000Y-121997400D02*
X109165000Y-121997400D01*
%TO.C,IC4*%
X96857700Y-67864100D02*
X96857700Y-69339100D01*
X90107700Y-69689100D02*
X96607700Y-69689100D01*
X90107700Y-73389100D02*
X90107700Y-69689100D01*
X96607700Y-73389100D02*
X90107700Y-73389100D01*
X96607700Y-69689100D02*
X96607700Y-73389100D01*
%TO.C,IC3*%
X128125100Y-68549900D02*
X128125100Y-70024900D01*
X121375100Y-70374900D02*
X127875100Y-70374900D01*
X121375100Y-74074900D02*
X121375100Y-70374900D01*
X127875100Y-74074900D02*
X121375100Y-74074900D01*
X127875100Y-70374900D02*
X127875100Y-74074900D01*
%TO.C,IC2*%
X97429200Y-84869400D02*
X97429200Y-86344400D01*
X90679200Y-86694400D02*
X97179200Y-86694400D01*
X90679200Y-90394400D02*
X90679200Y-86694400D01*
X97179200Y-90394400D02*
X90679200Y-90394400D01*
X97179200Y-86694400D02*
X97179200Y-90394400D01*
%TO.C,U3*%
D10*
X108458095Y-66210380D02*
X108458095Y-67019904D01*
X108505714Y-67115142D01*
X108553333Y-67162761D01*
X108648571Y-67210380D01*
X108839047Y-67210380D01*
X108934285Y-67162761D01*
X108981904Y-67115142D01*
X109029523Y-67019904D01*
X109029523Y-66210380D01*
X109410476Y-66210380D02*
X110029523Y-66210380D01*
X109696190Y-66591333D01*
X109839047Y-66591333D01*
X109934285Y-66638952D01*
X109981904Y-66686571D01*
X110029523Y-66781809D01*
X110029523Y-67019904D01*
X109981904Y-67115142D01*
X109934285Y-67162761D01*
X109839047Y-67210380D01*
X109553333Y-67210380D01*
X109458095Y-67162761D01*
X109410476Y-67115142D01*
%TO.C,J10*%
X76306880Y-138972823D02*
X77021166Y-138972823D01*
X77164023Y-139020442D01*
X77259261Y-139115680D01*
X77306880Y-139258538D01*
X77306880Y-139353776D01*
X77306880Y-137972823D02*
X77306880Y-138544252D01*
X77306880Y-138258538D02*
X76306880Y-138258538D01*
X76449738Y-138353776D01*
X76544976Y-138449014D01*
X76592595Y-138544252D01*
X76306880Y-137353776D02*
X76306880Y-137258538D01*
X76354500Y-137163300D01*
X76402119Y-137115680D01*
X76497357Y-137068061D01*
X76687833Y-137020442D01*
X76925928Y-137020442D01*
X77116404Y-137068061D01*
X77211642Y-137115680D01*
X77259261Y-137163300D01*
X77306880Y-137258538D01*
X77306880Y-137353776D01*
X77259261Y-137449014D01*
X77211642Y-137496633D01*
X77116404Y-137544252D01*
X76925928Y-137591871D01*
X76687833Y-137591871D01*
X76497357Y-137544252D01*
X76402119Y-137496633D01*
X76354500Y-137449014D01*
X76306880Y-137353776D01*
%TO.C,J9*%
X76383080Y-55476733D02*
X77097366Y-55476733D01*
X77240223Y-55524352D01*
X77335461Y-55619590D01*
X77383080Y-55762447D01*
X77383080Y-55857685D01*
X77383080Y-54952923D02*
X77383080Y-54762447D01*
X77335461Y-54667209D01*
X77287842Y-54619590D01*
X77144985Y-54524352D01*
X76954509Y-54476733D01*
X76573557Y-54476733D01*
X76478319Y-54524352D01*
X76430700Y-54571971D01*
X76383080Y-54667209D01*
X76383080Y-54857685D01*
X76430700Y-54952923D01*
X76478319Y-55000542D01*
X76573557Y-55048161D01*
X76811652Y-55048161D01*
X76906890Y-55000542D01*
X76954509Y-54952923D01*
X77002128Y-54857685D01*
X77002128Y-54667209D01*
X76954509Y-54571971D01*
X76906890Y-54524352D01*
X76811652Y-54476733D01*
%TO.C,J8*%
X78736866Y-87799480D02*
X78736866Y-88513766D01*
X78689247Y-88656623D01*
X78594009Y-88751861D01*
X78451152Y-88799480D01*
X78355914Y-88799480D01*
X79355914Y-88228052D02*
X79260676Y-88180433D01*
X79213057Y-88132814D01*
X79165438Y-88037576D01*
X79165438Y-87989957D01*
X79213057Y-87894719D01*
X79260676Y-87847100D01*
X79355914Y-87799480D01*
X79546390Y-87799480D01*
X79641628Y-87847100D01*
X79689247Y-87894719D01*
X79736866Y-87989957D01*
X79736866Y-88037576D01*
X79689247Y-88132814D01*
X79641628Y-88180433D01*
X79546390Y-88228052D01*
X79355914Y-88228052D01*
X79260676Y-88275671D01*
X79213057Y-88323290D01*
X79165438Y-88418528D01*
X79165438Y-88609004D01*
X79213057Y-88704242D01*
X79260676Y-88751861D01*
X79355914Y-88799480D01*
X79546390Y-88799480D01*
X79641628Y-88751861D01*
X79689247Y-88704242D01*
X79736866Y-88609004D01*
X79736866Y-88418528D01*
X79689247Y-88323290D01*
X79641628Y-88275671D01*
X79546390Y-88228052D01*
%TO.C,R7*%
X119260880Y-70156366D02*
X118784690Y-70489700D01*
X119260880Y-70727795D02*
X118260880Y-70727795D01*
X118260880Y-70346842D01*
X118308500Y-70251604D01*
X118356119Y-70203985D01*
X118451357Y-70156366D01*
X118594214Y-70156366D01*
X118689452Y-70203985D01*
X118737071Y-70251604D01*
X118784690Y-70346842D01*
X118784690Y-70727795D01*
X118260880Y-69823033D02*
X118260880Y-69156366D01*
X119260880Y-69584938D01*
%TO.C,R6*%
X129651080Y-129528866D02*
X129174890Y-129862200D01*
X129651080Y-130100295D02*
X128651080Y-130100295D01*
X128651080Y-129719342D01*
X128698700Y-129624104D01*
X128746319Y-129576485D01*
X128841557Y-129528866D01*
X128984414Y-129528866D01*
X129079652Y-129576485D01*
X129127271Y-129624104D01*
X129174890Y-129719342D01*
X129174890Y-130100295D01*
X128651080Y-128671723D02*
X128651080Y-128862200D01*
X128698700Y-128957438D01*
X128746319Y-129005057D01*
X128889176Y-129100295D01*
X129079652Y-129147914D01*
X129460604Y-129147914D01*
X129555842Y-129100295D01*
X129603461Y-129052676D01*
X129651080Y-128957438D01*
X129651080Y-128766961D01*
X129603461Y-128671723D01*
X129555842Y-128624104D01*
X129460604Y-128576485D01*
X129222509Y-128576485D01*
X129127271Y-128624104D01*
X129079652Y-128671723D01*
X129032033Y-128766961D01*
X129032033Y-128957438D01*
X129079652Y-129052676D01*
X129127271Y-129100295D01*
X129222509Y-129147914D01*
%TO.C,R5*%
X88405533Y-69922980D02*
X88072200Y-69446790D01*
X87834104Y-69922980D02*
X87834104Y-68922980D01*
X88215057Y-68922980D01*
X88310295Y-68970600D01*
X88357914Y-69018219D01*
X88405533Y-69113457D01*
X88405533Y-69256314D01*
X88357914Y-69351552D01*
X88310295Y-69399171D01*
X88215057Y-69446790D01*
X87834104Y-69446790D01*
X89310295Y-68922980D02*
X88834104Y-68922980D01*
X88786485Y-69399171D01*
X88834104Y-69351552D01*
X88929342Y-69303933D01*
X89167438Y-69303933D01*
X89262676Y-69351552D01*
X89310295Y-69399171D01*
X89357914Y-69494409D01*
X89357914Y-69732504D01*
X89310295Y-69827742D01*
X89262676Y-69875361D01*
X89167438Y-69922980D01*
X88929342Y-69922980D01*
X88834104Y-69875361D01*
X88786485Y-69827742D01*
%TO.C,R4*%
X105889380Y-130263066D02*
X105413190Y-130596400D01*
X105889380Y-130834495D02*
X104889380Y-130834495D01*
X104889380Y-130453542D01*
X104937000Y-130358304D01*
X104984619Y-130310685D01*
X105079857Y-130263066D01*
X105222714Y-130263066D01*
X105317952Y-130310685D01*
X105365571Y-130358304D01*
X105413190Y-130453542D01*
X105413190Y-130834495D01*
X105222714Y-129405923D02*
X105889380Y-129405923D01*
X104841761Y-129644019D02*
X105556047Y-129882114D01*
X105556047Y-129263066D01*
%TO.C,J7*%
X87889280Y-122075533D02*
X88603566Y-122075533D01*
X88746423Y-122123152D01*
X88841661Y-122218390D01*
X88889280Y-122361247D01*
X88889280Y-122456485D01*
X87889280Y-121694580D02*
X87889280Y-121027914D01*
X88889280Y-121456485D01*
%TO.C,J6*%
X87927380Y-117109833D02*
X88641666Y-117109833D01*
X88784523Y-117157452D01*
X88879761Y-117252690D01*
X88927380Y-117395547D01*
X88927380Y-117490785D01*
X87927380Y-116205071D02*
X87927380Y-116395547D01*
X87975000Y-116490785D01*
X88022619Y-116538404D01*
X88165476Y-116633642D01*
X88355952Y-116681261D01*
X88736904Y-116681261D01*
X88832142Y-116633642D01*
X88879761Y-116586023D01*
X88927380Y-116490785D01*
X88927380Y-116300309D01*
X88879761Y-116205071D01*
X88832142Y-116157452D01*
X88736904Y-116109833D01*
X88498809Y-116109833D01*
X88403571Y-116157452D01*
X88355952Y-116205071D01*
X88308333Y-116300309D01*
X88308333Y-116490785D01*
X88355952Y-116586023D01*
X88403571Y-116633642D01*
X88498809Y-116681261D01*
%TO.C,J5*%
X88769866Y-96277180D02*
X88769866Y-96991466D01*
X88722247Y-97134323D01*
X88627009Y-97229561D01*
X88484152Y-97277180D01*
X88388914Y-97277180D01*
X89722247Y-96277180D02*
X89246057Y-96277180D01*
X89198438Y-96753371D01*
X89246057Y-96705752D01*
X89341295Y-96658133D01*
X89579390Y-96658133D01*
X89674628Y-96705752D01*
X89722247Y-96753371D01*
X89769866Y-96848609D01*
X89769866Y-97086704D01*
X89722247Y-97181942D01*
X89674628Y-97229561D01*
X89579390Y-97277180D01*
X89341295Y-97277180D01*
X89246057Y-97229561D01*
X89198438Y-97181942D01*
%TO.C,U2*%
X98694380Y-110045404D02*
X99503904Y-110045404D01*
X99599142Y-109997785D01*
X99646761Y-109950166D01*
X99694380Y-109854928D01*
X99694380Y-109664452D01*
X99646761Y-109569214D01*
X99599142Y-109521595D01*
X99503904Y-109473976D01*
X98694380Y-109473976D01*
X98789619Y-109045404D02*
X98742000Y-108997785D01*
X98694380Y-108902547D01*
X98694380Y-108664452D01*
X98742000Y-108569214D01*
X98789619Y-108521595D01*
X98884857Y-108473976D01*
X98980095Y-108473976D01*
X99122952Y-108521595D01*
X99694380Y-109093023D01*
X99694380Y-108473976D01*
%TO.C,U1*%
X82867595Y-102775380D02*
X82867595Y-103584904D01*
X82915214Y-103680142D01*
X82962833Y-103727761D01*
X83058071Y-103775380D01*
X83248547Y-103775380D01*
X83343785Y-103727761D01*
X83391404Y-103680142D01*
X83439023Y-103584904D01*
X83439023Y-102775380D01*
X84439023Y-103775380D02*
X83867595Y-103775380D01*
X84153309Y-103775380D02*
X84153309Y-102775380D01*
X84058071Y-102918238D01*
X83962833Y-103013476D01*
X83867595Y-103061095D01*
%TO.C,J4*%
X82877066Y-118984780D02*
X82877066Y-119699066D01*
X82829447Y-119841923D01*
X82734209Y-119937161D01*
X82591352Y-119984780D01*
X82496114Y-119984780D01*
X83781828Y-119318114D02*
X83781828Y-119984780D01*
X83543733Y-118937161D02*
X83305638Y-119651447D01*
X83924685Y-119651447D01*
%TO.C,C16*%
X92956142Y-103163642D02*
X92908523Y-103211261D01*
X92765666Y-103258880D01*
X92670428Y-103258880D01*
X92527571Y-103211261D01*
X92432333Y-103116023D01*
X92384714Y-103020785D01*
X92337095Y-102830309D01*
X92337095Y-102687452D01*
X92384714Y-102496976D01*
X92432333Y-102401738D01*
X92527571Y-102306500D01*
X92670428Y-102258880D01*
X92765666Y-102258880D01*
X92908523Y-102306500D01*
X92956142Y-102354119D01*
X93908523Y-103258880D02*
X93337095Y-103258880D01*
X93622809Y-103258880D02*
X93622809Y-102258880D01*
X93527571Y-102401738D01*
X93432333Y-102496976D01*
X93337095Y-102544595D01*
X94765666Y-102258880D02*
X94575190Y-102258880D01*
X94479952Y-102306500D01*
X94432333Y-102354119D01*
X94337095Y-102496976D01*
X94289476Y-102687452D01*
X94289476Y-103068404D01*
X94337095Y-103163642D01*
X94384714Y-103211261D01*
X94479952Y-103258880D01*
X94670428Y-103258880D01*
X94765666Y-103211261D01*
X94813285Y-103163642D01*
X94860904Y-103068404D01*
X94860904Y-102830309D01*
X94813285Y-102735071D01*
X94765666Y-102687452D01*
X94670428Y-102639833D01*
X94479952Y-102639833D01*
X94384714Y-102687452D01*
X94337095Y-102735071D01*
X94289476Y-102830309D01*
%TO.C,C15*%
X92956142Y-104433642D02*
X92908523Y-104481261D01*
X92765666Y-104528880D01*
X92670428Y-104528880D01*
X92527571Y-104481261D01*
X92432333Y-104386023D01*
X92384714Y-104290785D01*
X92337095Y-104100309D01*
X92337095Y-103957452D01*
X92384714Y-103766976D01*
X92432333Y-103671738D01*
X92527571Y-103576500D01*
X92670428Y-103528880D01*
X92765666Y-103528880D01*
X92908523Y-103576500D01*
X92956142Y-103624119D01*
X93908523Y-104528880D02*
X93337095Y-104528880D01*
X93622809Y-104528880D02*
X93622809Y-103528880D01*
X93527571Y-103671738D01*
X93432333Y-103766976D01*
X93337095Y-103814595D01*
X94813285Y-103528880D02*
X94337095Y-103528880D01*
X94289476Y-104005071D01*
X94337095Y-103957452D01*
X94432333Y-103909833D01*
X94670428Y-103909833D01*
X94765666Y-103957452D01*
X94813285Y-104005071D01*
X94860904Y-104100309D01*
X94860904Y-104338404D01*
X94813285Y-104433642D01*
X94765666Y-104481261D01*
X94670428Y-104528880D01*
X94432333Y-104528880D01*
X94337095Y-104481261D01*
X94289476Y-104433642D01*
%TO.C,C14*%
X89146142Y-104814642D02*
X89098523Y-104862261D01*
X88955666Y-104909880D01*
X88860428Y-104909880D01*
X88717571Y-104862261D01*
X88622333Y-104767023D01*
X88574714Y-104671785D01*
X88527095Y-104481309D01*
X88527095Y-104338452D01*
X88574714Y-104147976D01*
X88622333Y-104052738D01*
X88717571Y-103957500D01*
X88860428Y-103909880D01*
X88955666Y-103909880D01*
X89098523Y-103957500D01*
X89146142Y-104005119D01*
X90098523Y-104909880D02*
X89527095Y-104909880D01*
X89812809Y-104909880D02*
X89812809Y-103909880D01*
X89717571Y-104052738D01*
X89622333Y-104147976D01*
X89527095Y-104195595D01*
X90955666Y-104243214D02*
X90955666Y-104909880D01*
X90717571Y-103862261D02*
X90479476Y-104576547D01*
X91098523Y-104576547D01*
%TO.C,C13*%
X89082642Y-103544642D02*
X89035023Y-103592261D01*
X88892166Y-103639880D01*
X88796928Y-103639880D01*
X88654071Y-103592261D01*
X88558833Y-103497023D01*
X88511214Y-103401785D01*
X88463595Y-103211309D01*
X88463595Y-103068452D01*
X88511214Y-102877976D01*
X88558833Y-102782738D01*
X88654071Y-102687500D01*
X88796928Y-102639880D01*
X88892166Y-102639880D01*
X89035023Y-102687500D01*
X89082642Y-102735119D01*
X90035023Y-103639880D02*
X89463595Y-103639880D01*
X89749309Y-103639880D02*
X89749309Y-102639880D01*
X89654071Y-102782738D01*
X89558833Y-102877976D01*
X89463595Y-102925595D01*
X90368357Y-102639880D02*
X90987404Y-102639880D01*
X90654071Y-103020833D01*
X90796928Y-103020833D01*
X90892166Y-103068452D01*
X90939785Y-103116071D01*
X90987404Y-103211309D01*
X90987404Y-103449404D01*
X90939785Y-103544642D01*
X90892166Y-103592261D01*
X90796928Y-103639880D01*
X90511214Y-103639880D01*
X90415976Y-103592261D01*
X90368357Y-103544642D01*
%TO.C,C12*%
X89082642Y-102147642D02*
X89035023Y-102195261D01*
X88892166Y-102242880D01*
X88796928Y-102242880D01*
X88654071Y-102195261D01*
X88558833Y-102100023D01*
X88511214Y-102004785D01*
X88463595Y-101814309D01*
X88463595Y-101671452D01*
X88511214Y-101480976D01*
X88558833Y-101385738D01*
X88654071Y-101290500D01*
X88796928Y-101242880D01*
X88892166Y-101242880D01*
X89035023Y-101290500D01*
X89082642Y-101338119D01*
X90035023Y-102242880D02*
X89463595Y-102242880D01*
X89749309Y-102242880D02*
X89749309Y-101242880D01*
X89654071Y-101385738D01*
X89558833Y-101480976D01*
X89463595Y-101528595D01*
X90415976Y-101338119D02*
X90463595Y-101290500D01*
X90558833Y-101242880D01*
X90796928Y-101242880D01*
X90892166Y-101290500D01*
X90939785Y-101338119D01*
X90987404Y-101433357D01*
X90987404Y-101528595D01*
X90939785Y-101671452D01*
X90368357Y-102242880D01*
X90987404Y-102242880D01*
%TO.C,C11*%
X81081642Y-113360142D02*
X81034023Y-113407761D01*
X80891166Y-113455380D01*
X80795928Y-113455380D01*
X80653071Y-113407761D01*
X80557833Y-113312523D01*
X80510214Y-113217285D01*
X80462595Y-113026809D01*
X80462595Y-112883952D01*
X80510214Y-112693476D01*
X80557833Y-112598238D01*
X80653071Y-112503000D01*
X80795928Y-112455380D01*
X80891166Y-112455380D01*
X81034023Y-112503000D01*
X81081642Y-112550619D01*
X82034023Y-113455380D02*
X81462595Y-113455380D01*
X81748309Y-113455380D02*
X81748309Y-112455380D01*
X81653071Y-112598238D01*
X81557833Y-112693476D01*
X81462595Y-112741095D01*
X82986404Y-113455380D02*
X82414976Y-113455380D01*
X82700690Y-113455380D02*
X82700690Y-112455380D01*
X82605452Y-112598238D01*
X82510214Y-112693476D01*
X82414976Y-112741095D01*
%TO.C,J3*%
X106366880Y-134699333D02*
X107081166Y-134699333D01*
X107224023Y-134746952D01*
X107319261Y-134842190D01*
X107366880Y-134985047D01*
X107366880Y-135080285D01*
X106366880Y-134318380D02*
X106366880Y-133699333D01*
X106747833Y-134032666D01*
X106747833Y-133889809D01*
X106795452Y-133794571D01*
X106843071Y-133746952D01*
X106938309Y-133699333D01*
X107176404Y-133699333D01*
X107271642Y-133746952D01*
X107319261Y-133794571D01*
X107366880Y-133889809D01*
X107366880Y-134175523D01*
X107319261Y-134270761D01*
X107271642Y-134318380D01*
%TO.C,J2*%
X119130380Y-59197833D02*
X119844666Y-59197833D01*
X119987523Y-59245452D01*
X120082761Y-59340690D01*
X120130380Y-59483547D01*
X120130380Y-59578785D01*
X119225619Y-58769261D02*
X119178000Y-58721642D01*
X119130380Y-58626404D01*
X119130380Y-58388309D01*
X119178000Y-58293071D01*
X119225619Y-58245452D01*
X119320857Y-58197833D01*
X119416095Y-58197833D01*
X119558952Y-58245452D01*
X120130380Y-58816880D01*
X120130380Y-58197833D01*
%TO.C,J1*%
X82597666Y-65384880D02*
X82597666Y-66099166D01*
X82550047Y-66242023D01*
X82454809Y-66337261D01*
X82311952Y-66384880D01*
X82216714Y-66384880D01*
X83597666Y-66384880D02*
X83026238Y-66384880D01*
X83311952Y-66384880D02*
X83311952Y-65384880D01*
X83216714Y-65527738D01*
X83121476Y-65622976D01*
X83026238Y-65670595D01*
%TO.C,R3*%
X89023033Y-87309280D02*
X88689700Y-86833090D01*
X88451604Y-87309280D02*
X88451604Y-86309280D01*
X88832557Y-86309280D01*
X88927795Y-86356900D01*
X88975414Y-86404519D01*
X89023033Y-86499757D01*
X89023033Y-86642614D01*
X88975414Y-86737852D01*
X88927795Y-86785471D01*
X88832557Y-86833090D01*
X88451604Y-86833090D01*
X89356366Y-86309280D02*
X89975414Y-86309280D01*
X89642080Y-86690233D01*
X89784938Y-86690233D01*
X89880176Y-86737852D01*
X89927795Y-86785471D01*
X89975414Y-86880709D01*
X89975414Y-87118804D01*
X89927795Y-87214042D01*
X89880176Y-87261661D01*
X89784938Y-87309280D01*
X89499223Y-87309280D01*
X89403985Y-87261661D01*
X89356366Y-87214042D01*
%TO.C,R2*%
X120483333Y-111450380D02*
X120150000Y-110974190D01*
X119911904Y-111450380D02*
X119911904Y-110450380D01*
X120292857Y-110450380D01*
X120388095Y-110498000D01*
X120435714Y-110545619D01*
X120483333Y-110640857D01*
X120483333Y-110783714D01*
X120435714Y-110878952D01*
X120388095Y-110926571D01*
X120292857Y-110974190D01*
X119911904Y-110974190D01*
X120864285Y-110545619D02*
X120911904Y-110498000D01*
X121007142Y-110450380D01*
X121245238Y-110450380D01*
X121340476Y-110498000D01*
X121388095Y-110545619D01*
X121435714Y-110640857D01*
X121435714Y-110736095D01*
X121388095Y-110878952D01*
X120816666Y-111450380D01*
X121435714Y-111450380D01*
%TO.C,R1*%
X120483333Y-106370380D02*
X120150000Y-105894190D01*
X119911904Y-106370380D02*
X119911904Y-105370380D01*
X120292857Y-105370380D01*
X120388095Y-105418000D01*
X120435714Y-105465619D01*
X120483333Y-105560857D01*
X120483333Y-105703714D01*
X120435714Y-105798952D01*
X120388095Y-105846571D01*
X120292857Y-105894190D01*
X119911904Y-105894190D01*
X121435714Y-106370380D02*
X120864285Y-106370380D01*
X121150000Y-106370380D02*
X121150000Y-105370380D01*
X121054761Y-105513238D01*
X120959523Y-105608476D01*
X120864285Y-105656095D01*
%TO.C,IC6*%
D14*
X124361423Y-126918961D02*
X123091423Y-126918961D01*
X124240471Y-125588485D02*
X124300947Y-125648961D01*
X124361423Y-125830390D01*
X124361423Y-125951342D01*
X124300947Y-126132771D01*
X124179995Y-126253723D01*
X124059042Y-126314200D01*
X123817138Y-126374676D01*
X123635709Y-126374676D01*
X123393804Y-126314200D01*
X123272852Y-126253723D01*
X123151900Y-126132771D01*
X123091423Y-125951342D01*
X123091423Y-125830390D01*
X123151900Y-125648961D01*
X123212376Y-125588485D01*
X123091423Y-124499914D02*
X123091423Y-124741819D01*
X123151900Y-124862771D01*
X123212376Y-124923247D01*
X123393804Y-125044200D01*
X123635709Y-125104676D01*
X124119519Y-125104676D01*
X124240471Y-125044200D01*
X124300947Y-124983723D01*
X124361423Y-124862771D01*
X124361423Y-124620866D01*
X124300947Y-124499914D01*
X124240471Y-124439438D01*
X124119519Y-124378961D01*
X123817138Y-124378961D01*
X123696185Y-124439438D01*
X123635709Y-124499914D01*
X123575233Y-124620866D01*
X123575233Y-124862771D01*
X123635709Y-124983723D01*
X123696185Y-125044200D01*
X123817138Y-125104676D01*
%TO.C,IC5*%
X106075238Y-125821923D02*
X106075238Y-124551923D01*
X107405714Y-125700971D02*
X107345238Y-125761447D01*
X107163809Y-125821923D01*
X107042857Y-125821923D01*
X106861428Y-125761447D01*
X106740476Y-125640495D01*
X106680000Y-125519542D01*
X106619523Y-125277638D01*
X106619523Y-125096209D01*
X106680000Y-124854304D01*
X106740476Y-124733352D01*
X106861428Y-124612400D01*
X107042857Y-124551923D01*
X107163809Y-124551923D01*
X107345238Y-124612400D01*
X107405714Y-124672876D01*
X108554761Y-124551923D02*
X107950000Y-124551923D01*
X107889523Y-125156685D01*
X107950000Y-125096209D01*
X108070952Y-125035733D01*
X108373333Y-125035733D01*
X108494285Y-125096209D01*
X108554761Y-125156685D01*
X108615238Y-125277638D01*
X108615238Y-125580019D01*
X108554761Y-125700971D01*
X108494285Y-125761447D01*
X108373333Y-125821923D01*
X108070952Y-125821923D01*
X107950000Y-125761447D01*
X107889523Y-125700971D01*
%TO.C,IC4*%
X93932223Y-72778861D02*
X92662223Y-72778861D01*
X93811271Y-71448385D02*
X93871747Y-71508861D01*
X93932223Y-71690290D01*
X93932223Y-71811242D01*
X93871747Y-71992671D01*
X93750795Y-72113623D01*
X93629842Y-72174100D01*
X93387938Y-72234576D01*
X93206509Y-72234576D01*
X92964604Y-72174100D01*
X92843652Y-72113623D01*
X92722700Y-71992671D01*
X92662223Y-71811242D01*
X92662223Y-71690290D01*
X92722700Y-71508861D01*
X92783176Y-71448385D01*
X93085557Y-70359814D02*
X93932223Y-70359814D01*
X92601747Y-70662195D02*
X93508890Y-70964576D01*
X93508890Y-70178385D01*
%TO.C,IC3*%
X125199623Y-73464661D02*
X123929623Y-73464661D01*
X125078671Y-72134185D02*
X125139147Y-72194661D01*
X125199623Y-72376090D01*
X125199623Y-72497042D01*
X125139147Y-72678471D01*
X125018195Y-72799423D01*
X124897242Y-72859900D01*
X124655338Y-72920376D01*
X124473909Y-72920376D01*
X124232004Y-72859900D01*
X124111052Y-72799423D01*
X123990100Y-72678471D01*
X123929623Y-72497042D01*
X123929623Y-72376090D01*
X123990100Y-72194661D01*
X124050576Y-72134185D01*
X123929623Y-71710852D02*
X123929623Y-70924661D01*
X124413433Y-71347995D01*
X124413433Y-71166566D01*
X124473909Y-71045614D01*
X124534385Y-70985138D01*
X124655338Y-70924661D01*
X124957719Y-70924661D01*
X125078671Y-70985138D01*
X125139147Y-71045614D01*
X125199623Y-71166566D01*
X125199623Y-71529423D01*
X125139147Y-71650376D01*
X125078671Y-71710852D01*
%TO.C,IC2*%
X94503723Y-89784161D02*
X93233723Y-89784161D01*
X94382771Y-88453685D02*
X94443247Y-88514161D01*
X94503723Y-88695590D01*
X94503723Y-88816542D01*
X94443247Y-88997971D01*
X94322295Y-89118923D01*
X94201342Y-89179400D01*
X93959438Y-89239876D01*
X93778009Y-89239876D01*
X93536104Y-89179400D01*
X93415152Y-89118923D01*
X93294200Y-88997971D01*
X93233723Y-88816542D01*
X93233723Y-88695590D01*
X93294200Y-88514161D01*
X93354676Y-88453685D01*
X93354676Y-87969876D02*
X93294200Y-87909400D01*
X93233723Y-87788447D01*
X93233723Y-87486066D01*
X93294200Y-87365114D01*
X93354676Y-87304638D01*
X93475628Y-87244161D01*
X93596580Y-87244161D01*
X93778009Y-87304638D01*
X94503723Y-88030352D01*
X94503723Y-87244161D01*
%TO.C,C10*%
D10*
X126098242Y-67493257D02*
X126145861Y-67540876D01*
X126193480Y-67683733D01*
X126193480Y-67778971D01*
X126145861Y-67921828D01*
X126050623Y-68017066D01*
X125955385Y-68064685D01*
X125764909Y-68112304D01*
X125622052Y-68112304D01*
X125431576Y-68064685D01*
X125336338Y-68017066D01*
X125241100Y-67921828D01*
X125193480Y-67778971D01*
X125193480Y-67683733D01*
X125241100Y-67540876D01*
X125288719Y-67493257D01*
X126193480Y-66540876D02*
X126193480Y-67112304D01*
X126193480Y-66826590D02*
X125193480Y-66826590D01*
X125336338Y-66921828D01*
X125431576Y-67017066D01*
X125479195Y-67112304D01*
X125193480Y-65921828D02*
X125193480Y-65826590D01*
X125241100Y-65731352D01*
X125288719Y-65683733D01*
X125383957Y-65636114D01*
X125574433Y-65588495D01*
X125812528Y-65588495D01*
X126003004Y-65636114D01*
X126098242Y-65683733D01*
X126145861Y-65731352D01*
X126193480Y-65826590D01*
X126193480Y-65921828D01*
X126145861Y-66017066D01*
X126098242Y-66064685D01*
X126003004Y-66112304D01*
X125812528Y-66159923D01*
X125574433Y-66159923D01*
X125383957Y-66112304D01*
X125288719Y-66064685D01*
X125241100Y-66017066D01*
X125193480Y-65921828D01*
%TO.C,C9*%
X101410333Y-124488542D02*
X101362714Y-124536161D01*
X101219857Y-124583780D01*
X101124619Y-124583780D01*
X100981761Y-124536161D01*
X100886523Y-124440923D01*
X100838904Y-124345685D01*
X100791285Y-124155209D01*
X100791285Y-124012352D01*
X100838904Y-123821876D01*
X100886523Y-123726638D01*
X100981761Y-123631400D01*
X101124619Y-123583780D01*
X101219857Y-123583780D01*
X101362714Y-123631400D01*
X101410333Y-123679019D01*
X101886523Y-124583780D02*
X102077000Y-124583780D01*
X102172238Y-124536161D01*
X102219857Y-124488542D01*
X102315095Y-124345685D01*
X102362714Y-124155209D01*
X102362714Y-123774257D01*
X102315095Y-123679019D01*
X102267476Y-123631400D01*
X102172238Y-123583780D01*
X101981761Y-123583780D01*
X101886523Y-123631400D01*
X101838904Y-123679019D01*
X101791285Y-123774257D01*
X101791285Y-124012352D01*
X101838904Y-124107590D01*
X101886523Y-124155209D01*
X101981761Y-124202828D01*
X102172238Y-124202828D01*
X102267476Y-124155209D01*
X102315095Y-124107590D01*
X102362714Y-124012352D01*
%TO.C,C8*%
X123091542Y-131139366D02*
X123139161Y-131186985D01*
X123186780Y-131329842D01*
X123186780Y-131425080D01*
X123139161Y-131567938D01*
X123043923Y-131663176D01*
X122948685Y-131710795D01*
X122758209Y-131758414D01*
X122615352Y-131758414D01*
X122424876Y-131710795D01*
X122329638Y-131663176D01*
X122234400Y-131567938D01*
X122186780Y-131425080D01*
X122186780Y-131329842D01*
X122234400Y-131186985D01*
X122282019Y-131139366D01*
X122615352Y-130567938D02*
X122567733Y-130663176D01*
X122520114Y-130710795D01*
X122424876Y-130758414D01*
X122377257Y-130758414D01*
X122282019Y-130710795D01*
X122234400Y-130663176D01*
X122186780Y-130567938D01*
X122186780Y-130377461D01*
X122234400Y-130282223D01*
X122282019Y-130234604D01*
X122377257Y-130186985D01*
X122424876Y-130186985D01*
X122520114Y-130234604D01*
X122567733Y-130282223D01*
X122615352Y-130377461D01*
X122615352Y-130567938D01*
X122662971Y-130663176D01*
X122710590Y-130710795D01*
X122805828Y-130758414D01*
X122996304Y-130758414D01*
X123091542Y-130710795D01*
X123139161Y-130663176D01*
X123186780Y-130567938D01*
X123186780Y-130377461D01*
X123139161Y-130282223D01*
X123091542Y-130234604D01*
X122996304Y-130186985D01*
X122805828Y-130186985D01*
X122710590Y-130234604D01*
X122662971Y-130282223D01*
X122615352Y-130377461D01*
%TO.C,C7*%
X94830842Y-66285266D02*
X94878461Y-66332885D01*
X94926080Y-66475742D01*
X94926080Y-66570980D01*
X94878461Y-66713838D01*
X94783223Y-66809076D01*
X94687985Y-66856695D01*
X94497509Y-66904314D01*
X94354652Y-66904314D01*
X94164176Y-66856695D01*
X94068938Y-66809076D01*
X93973700Y-66713838D01*
X93926080Y-66570980D01*
X93926080Y-66475742D01*
X93973700Y-66332885D01*
X94021319Y-66285266D01*
X93926080Y-65951933D02*
X93926080Y-65285266D01*
X94926080Y-65713838D01*
%TO.C,C6*%
X95338842Y-83290566D02*
X95386461Y-83338185D01*
X95434080Y-83481042D01*
X95434080Y-83576280D01*
X95386461Y-83719138D01*
X95291223Y-83814376D01*
X95195985Y-83861995D01*
X95005509Y-83909614D01*
X94862652Y-83909614D01*
X94672176Y-83861995D01*
X94576938Y-83814376D01*
X94481700Y-83719138D01*
X94434080Y-83576280D01*
X94434080Y-83481042D01*
X94481700Y-83338185D01*
X94529319Y-83290566D01*
X94434080Y-82433423D02*
X94434080Y-82623900D01*
X94481700Y-82719138D01*
X94529319Y-82766757D01*
X94672176Y-82861995D01*
X94862652Y-82909614D01*
X95243604Y-82909614D01*
X95338842Y-82861995D01*
X95386461Y-82814376D01*
X95434080Y-82719138D01*
X95434080Y-82528661D01*
X95386461Y-82433423D01*
X95338842Y-82385804D01*
X95243604Y-82338185D01*
X95005509Y-82338185D01*
X94910271Y-82385804D01*
X94862652Y-82433423D01*
X94815033Y-82528661D01*
X94815033Y-82719138D01*
X94862652Y-82814376D01*
X94910271Y-82861995D01*
X95005509Y-82909614D01*
%TO.C,C5*%
X112568833Y-122148542D02*
X112521214Y-122196161D01*
X112378357Y-122243780D01*
X112283119Y-122243780D01*
X112140261Y-122196161D01*
X112045023Y-122100923D01*
X111997404Y-122005685D01*
X111949785Y-121815209D01*
X111949785Y-121672352D01*
X111997404Y-121481876D01*
X112045023Y-121386638D01*
X112140261Y-121291400D01*
X112283119Y-121243780D01*
X112378357Y-121243780D01*
X112521214Y-121291400D01*
X112568833Y-121339019D01*
X113473595Y-121243780D02*
X112997404Y-121243780D01*
X112949785Y-121719971D01*
X112997404Y-121672352D01*
X113092642Y-121624733D01*
X113330738Y-121624733D01*
X113425976Y-121672352D01*
X113473595Y-121719971D01*
X113521214Y-121815209D01*
X113521214Y-122053304D01*
X113473595Y-122148542D01*
X113425976Y-122196161D01*
X113330738Y-122243780D01*
X113092642Y-122243780D01*
X112997404Y-122196161D01*
X112949785Y-122148542D01*
%TO.C,C4*%
X97107342Y-77016766D02*
X97154961Y-77064385D01*
X97202580Y-77207242D01*
X97202580Y-77302480D01*
X97154961Y-77445338D01*
X97059723Y-77540576D01*
X96964485Y-77588195D01*
X96774009Y-77635814D01*
X96631152Y-77635814D01*
X96440676Y-77588195D01*
X96345438Y-77540576D01*
X96250200Y-77445338D01*
X96202580Y-77302480D01*
X96202580Y-77207242D01*
X96250200Y-77064385D01*
X96297819Y-77016766D01*
X96535914Y-76159623D02*
X97202580Y-76159623D01*
X96154961Y-76397719D02*
X96869247Y-76635814D01*
X96869247Y-76016766D01*
%TO.C,C3*%
X128374742Y-77702566D02*
X128422361Y-77750185D01*
X128469980Y-77893042D01*
X128469980Y-77988280D01*
X128422361Y-78131138D01*
X128327123Y-78226376D01*
X128231885Y-78273995D01*
X128041409Y-78321614D01*
X127898552Y-78321614D01*
X127708076Y-78273995D01*
X127612838Y-78226376D01*
X127517600Y-78131138D01*
X127469980Y-77988280D01*
X127469980Y-77893042D01*
X127517600Y-77750185D01*
X127565219Y-77702566D01*
X127469980Y-77369233D02*
X127469980Y-76750185D01*
X127850933Y-77083519D01*
X127850933Y-76940661D01*
X127898552Y-76845423D01*
X127946171Y-76797804D01*
X128041409Y-76750185D01*
X128279504Y-76750185D01*
X128374742Y-76797804D01*
X128422361Y-76845423D01*
X128469980Y-76940661D01*
X128469980Y-77226376D01*
X128422361Y-77321614D01*
X128374742Y-77369233D01*
%TO.C,C2*%
X97678842Y-93895066D02*
X97726461Y-93942685D01*
X97774080Y-94085542D01*
X97774080Y-94180780D01*
X97726461Y-94323638D01*
X97631223Y-94418876D01*
X97535985Y-94466495D01*
X97345509Y-94514114D01*
X97202652Y-94514114D01*
X97012176Y-94466495D01*
X96916938Y-94418876D01*
X96821700Y-94323638D01*
X96774080Y-94180780D01*
X96774080Y-94085542D01*
X96821700Y-93942685D01*
X96869319Y-93895066D01*
X96869319Y-93514114D02*
X96821700Y-93466495D01*
X96774080Y-93371257D01*
X96774080Y-93133161D01*
X96821700Y-93037923D01*
X96869319Y-92990304D01*
X96964557Y-92942685D01*
X97059795Y-92942685D01*
X97202652Y-92990304D01*
X97774080Y-93561733D01*
X97774080Y-92942685D01*
%TO.C,C1*%
X120688042Y-120598366D02*
X120735661Y-120645985D01*
X120783280Y-120788842D01*
X120783280Y-120884080D01*
X120735661Y-121026938D01*
X120640423Y-121122176D01*
X120545185Y-121169795D01*
X120354709Y-121217414D01*
X120211852Y-121217414D01*
X120021376Y-121169795D01*
X119926138Y-121122176D01*
X119830900Y-121026938D01*
X119783280Y-120884080D01*
X119783280Y-120788842D01*
X119830900Y-120645985D01*
X119878519Y-120598366D01*
X120783280Y-119645985D02*
X120783280Y-120217414D01*
X120783280Y-119931700D02*
X119783280Y-119931700D01*
X119926138Y-120026938D01*
X120021376Y-120122176D01*
X120068995Y-120217414D01*
%TD*%
M02*
