G04 #@! TF.GenerationSoftware,KiCad,Pcbnew,(5.1.6)-1*
G04 #@! TF.CreationDate,2020-09-15T00:28:45+03:00*
G04 #@! TF.ProjectId,469devboard,34363964-6576-4626-9f61-72642e6b6963,rev?*
G04 #@! TF.SameCoordinates,Original*
G04 #@! TF.FileFunction,Legend,Bot*
G04 #@! TF.FilePolarity,Positive*
%FSLAX46Y46*%
G04 Gerber Fmt 4.6, Leading zero omitted, Abs format (unit mm)*
G04 Created by KiCad (PCBNEW (5.1.6)-1) date 2020-09-15 00:28:45*
%MOMM*%
%LPD*%
G01*
G04 APERTURE LIST*
%ADD10C,0.150000*%
%ADD11C,0.200000*%
%ADD12C,0.120000*%
%ADD13C,0.254000*%
G04 APERTURE END LIST*
D10*
X94522347Y-115657380D02*
X94522347Y-116371666D01*
X94569966Y-116514523D01*
X94665204Y-116609761D01*
X94808061Y-116657380D01*
X94903300Y-116657380D01*
X93569966Y-116657380D02*
X94046157Y-116657380D01*
X94046157Y-115657380D01*
X92665204Y-116562142D02*
X92712823Y-116609761D01*
X92855680Y-116657380D01*
X92950919Y-116657380D01*
X93093776Y-116609761D01*
X93189014Y-116514523D01*
X93236633Y-116419285D01*
X93284252Y-116228809D01*
X93284252Y-116085952D01*
X93236633Y-115895476D01*
X93189014Y-115800238D01*
X93093776Y-115705000D01*
X92950919Y-115657380D01*
X92855680Y-115657380D01*
X92712823Y-115705000D01*
X92665204Y-115752619D01*
X91950919Y-115657380D02*
X91950919Y-116371666D01*
X91998538Y-116514523D01*
X92093776Y-116609761D01*
X92236633Y-116657380D01*
X92331871Y-116657380D01*
X90998538Y-116657380D02*
X91474728Y-116657380D01*
X91474728Y-115657380D01*
X90093776Y-116562142D02*
X90141395Y-116609761D01*
X90284252Y-116657380D01*
X90379490Y-116657380D01*
X90522347Y-116609761D01*
X90617585Y-116514523D01*
X90665204Y-116419285D01*
X90712823Y-116228809D01*
X90712823Y-116085952D01*
X90665204Y-115895476D01*
X90617585Y-115800238D01*
X90522347Y-115705000D01*
X90379490Y-115657380D01*
X90284252Y-115657380D01*
X90141395Y-115705000D01*
X90093776Y-115752619D01*
X89379490Y-115657380D02*
X89379490Y-116371666D01*
X89427109Y-116514523D01*
X89522347Y-116609761D01*
X89665204Y-116657380D01*
X89760442Y-116657380D01*
X88427109Y-116657380D02*
X88903300Y-116657380D01*
X88903300Y-115657380D01*
X87522347Y-116562142D02*
X87569966Y-116609761D01*
X87712823Y-116657380D01*
X87808061Y-116657380D01*
X87950919Y-116609761D01*
X88046157Y-116514523D01*
X88093776Y-116419285D01*
X88141395Y-116228809D01*
X88141395Y-116085952D01*
X88093776Y-115895476D01*
X88046157Y-115800238D01*
X87950919Y-115705000D01*
X87808061Y-115657380D01*
X87712823Y-115657380D01*
X87569966Y-115705000D01*
X87522347Y-115752619D01*
X86808061Y-115657380D02*
X86808061Y-116371666D01*
X86855680Y-116514523D01*
X86950919Y-116609761D01*
X87093776Y-116657380D01*
X87189014Y-116657380D01*
X85855680Y-116657380D02*
X86331871Y-116657380D01*
X86331871Y-115657380D01*
X84950919Y-116562142D02*
X84998538Y-116609761D01*
X85141395Y-116657380D01*
X85236633Y-116657380D01*
X85379490Y-116609761D01*
X85474728Y-116514523D01*
X85522347Y-116419285D01*
X85569966Y-116228809D01*
X85569966Y-116085952D01*
X85522347Y-115895476D01*
X85474728Y-115800238D01*
X85379490Y-115705000D01*
X85236633Y-115657380D01*
X85141395Y-115657380D01*
X84998538Y-115705000D01*
X84950919Y-115752619D01*
X132257752Y-87891928D02*
X131495847Y-87891928D01*
X131876800Y-88272880D02*
X131876800Y-87510976D01*
X110159752Y-90685928D02*
X109397847Y-90685928D01*
X109778800Y-91066880D02*
X109778800Y-90304976D01*
X123240752Y-83319928D02*
X122478847Y-83319928D01*
X122859800Y-83700880D02*
X122859800Y-82938976D01*
X110540752Y-92463928D02*
X109778847Y-92463928D01*
X110159800Y-92844880D02*
X110159800Y-92082976D01*
D11*
X134455760Y-54868600D02*
G75*
G03*
X134455760Y-54868600I-113360J0D01*
G01*
X134447400Y-55473600D02*
X135268400Y-55473600D01*
X136683400Y-61074600D02*
X136683400Y-56840600D01*
X136683400Y-64770600D02*
X136683400Y-62689600D01*
X136683400Y-66873600D02*
X134163400Y-66873600D01*
X128208400Y-66873600D02*
X131708400Y-66873600D01*
X124733400Y-66873600D02*
X125794400Y-66873600D01*
X124733400Y-66873600D02*
X124733400Y-57194600D01*
D12*
X114581678Y-88850400D02*
X114064522Y-88850400D01*
X114581678Y-90270400D02*
X114064522Y-90270400D01*
D13*
X130452733Y-60917123D02*
X130452733Y-61824266D01*
X130513209Y-62005695D01*
X130634161Y-62126647D01*
X130815590Y-62187123D01*
X130936542Y-62187123D01*
X129787495Y-62187123D02*
X129545590Y-62187123D01*
X129424638Y-62126647D01*
X129364161Y-62066171D01*
X129243209Y-61884742D01*
X129182733Y-61642838D01*
X129182733Y-61159028D01*
X129243209Y-61038076D01*
X129303685Y-60977600D01*
X129424638Y-60917123D01*
X129666542Y-60917123D01*
X129787495Y-60977600D01*
X129847971Y-61038076D01*
X129908447Y-61159028D01*
X129908447Y-61461409D01*
X129847971Y-61582361D01*
X129787495Y-61642838D01*
X129666542Y-61703314D01*
X129424638Y-61703314D01*
X129303685Y-61642838D01*
X129243209Y-61582361D01*
X129182733Y-61461409D01*
D10*
X109786657Y-88812642D02*
X109834276Y-88860261D01*
X109977133Y-88907880D01*
X110072371Y-88907880D01*
X110215228Y-88860261D01*
X110310466Y-88765023D01*
X110358085Y-88669785D01*
X110405704Y-88479309D01*
X110405704Y-88336452D01*
X110358085Y-88145976D01*
X110310466Y-88050738D01*
X110215228Y-87955500D01*
X110072371Y-87907880D01*
X109977133Y-87907880D01*
X109834276Y-87955500D01*
X109786657Y-88003119D01*
X108929514Y-88241214D02*
X108929514Y-88907880D01*
X109167609Y-87860261D02*
X109405704Y-88574547D01*
X108786657Y-88574547D01*
X108358085Y-88907880D02*
X108167609Y-88907880D01*
X108072371Y-88860261D01*
X108024752Y-88812642D01*
X107929514Y-88669785D01*
X107881895Y-88479309D01*
X107881895Y-88098357D01*
X107929514Y-88003119D01*
X107977133Y-87955500D01*
X108072371Y-87907880D01*
X108262847Y-87907880D01*
X108358085Y-87955500D01*
X108405704Y-88003119D01*
X108453323Y-88098357D01*
X108453323Y-88336452D01*
X108405704Y-88431690D01*
X108358085Y-88479309D01*
X108262847Y-88526928D01*
X108072371Y-88526928D01*
X107977133Y-88479309D01*
X107929514Y-88431690D01*
X107881895Y-88336452D01*
X109850157Y-87669642D02*
X109897776Y-87717261D01*
X110040633Y-87764880D01*
X110135871Y-87764880D01*
X110278728Y-87717261D01*
X110373966Y-87622023D01*
X110421585Y-87526785D01*
X110469204Y-87336309D01*
X110469204Y-87193452D01*
X110421585Y-87002976D01*
X110373966Y-86907738D01*
X110278728Y-86812500D01*
X110135871Y-86764880D01*
X110040633Y-86764880D01*
X109897776Y-86812500D01*
X109850157Y-86860119D01*
X108993014Y-87098214D02*
X108993014Y-87764880D01*
X109231109Y-86717261D02*
X109469204Y-87431547D01*
X108850157Y-87431547D01*
X108326347Y-87193452D02*
X108421585Y-87145833D01*
X108469204Y-87098214D01*
X108516823Y-87002976D01*
X108516823Y-86955357D01*
X108469204Y-86860119D01*
X108421585Y-86812500D01*
X108326347Y-86764880D01*
X108135871Y-86764880D01*
X108040633Y-86812500D01*
X107993014Y-86860119D01*
X107945395Y-86955357D01*
X107945395Y-87002976D01*
X107993014Y-87098214D01*
X108040633Y-87145833D01*
X108135871Y-87193452D01*
X108326347Y-87193452D01*
X108421585Y-87241071D01*
X108469204Y-87288690D01*
X108516823Y-87383928D01*
X108516823Y-87574404D01*
X108469204Y-87669642D01*
X108421585Y-87717261D01*
X108326347Y-87764880D01*
X108135871Y-87764880D01*
X108040633Y-87717261D01*
X107993014Y-87669642D01*
X107945395Y-87574404D01*
X107945395Y-87383928D01*
X107993014Y-87288690D01*
X108040633Y-87241071D01*
X108135871Y-87193452D01*
X122782057Y-92616257D02*
X122734438Y-92663876D01*
X122686819Y-92806733D01*
X122686819Y-92901971D01*
X122734438Y-93044828D01*
X122829676Y-93140066D01*
X122924914Y-93187685D01*
X123115390Y-93235304D01*
X123258247Y-93235304D01*
X123448723Y-93187685D01*
X123543961Y-93140066D01*
X123639200Y-93044828D01*
X123686819Y-92901971D01*
X123686819Y-92806733D01*
X123639200Y-92663876D01*
X123591580Y-92616257D01*
X123353485Y-91759114D02*
X122686819Y-91759114D01*
X123734438Y-91997209D02*
X123020152Y-92235304D01*
X123020152Y-91616257D01*
X123686819Y-91330542D02*
X123686819Y-90663876D01*
X122686819Y-91092447D01*
X123925057Y-92560257D02*
X123877438Y-92607876D01*
X123829819Y-92750733D01*
X123829819Y-92845971D01*
X123877438Y-92988828D01*
X123972676Y-93084066D01*
X124067914Y-93131685D01*
X124258390Y-93179304D01*
X124401247Y-93179304D01*
X124591723Y-93131685D01*
X124686961Y-93084066D01*
X124782200Y-92988828D01*
X124829819Y-92845971D01*
X124829819Y-92750733D01*
X124782200Y-92607876D01*
X124734580Y-92560257D01*
X124496485Y-91703114D02*
X123829819Y-91703114D01*
X124877438Y-91941209D02*
X124163152Y-92179304D01*
X124163152Y-91560257D01*
X124829819Y-90750733D02*
X124829819Y-90941209D01*
X124782200Y-91036447D01*
X124734580Y-91084066D01*
X124591723Y-91179304D01*
X124401247Y-91226923D01*
X124020295Y-91226923D01*
X123925057Y-91179304D01*
X123877438Y-91131685D01*
X123829819Y-91036447D01*
X123829819Y-90845971D01*
X123877438Y-90750733D01*
X123925057Y-90703114D01*
X124020295Y-90655495D01*
X124258390Y-90655495D01*
X124353628Y-90703114D01*
X124401247Y-90750733D01*
X124448866Y-90845971D01*
X124448866Y-91036447D01*
X124401247Y-91131685D01*
X124353628Y-91179304D01*
X124258390Y-91226923D01*
X114276657Y-85709942D02*
X114324276Y-85757561D01*
X114467133Y-85805180D01*
X114562371Y-85805180D01*
X114705228Y-85757561D01*
X114800466Y-85662323D01*
X114848085Y-85567085D01*
X114895704Y-85376609D01*
X114895704Y-85233752D01*
X114848085Y-85043276D01*
X114800466Y-84948038D01*
X114705228Y-84852800D01*
X114562371Y-84805180D01*
X114467133Y-84805180D01*
X114324276Y-84852800D01*
X114276657Y-84900419D01*
X113419514Y-85138514D02*
X113419514Y-85805180D01*
X113657609Y-84757561D02*
X113895704Y-85471847D01*
X113276657Y-85471847D01*
X112419514Y-84805180D02*
X112895704Y-84805180D01*
X112943323Y-85281371D01*
X112895704Y-85233752D01*
X112800466Y-85186133D01*
X112562371Y-85186133D01*
X112467133Y-85233752D01*
X112419514Y-85281371D01*
X112371895Y-85376609D01*
X112371895Y-85614704D01*
X112419514Y-85709942D01*
X112467133Y-85757561D01*
X112562371Y-85805180D01*
X112800466Y-85805180D01*
X112895704Y-85757561D01*
X112943323Y-85709942D01*
X114231657Y-84608942D02*
X114279276Y-84656561D01*
X114422133Y-84704180D01*
X114517371Y-84704180D01*
X114660228Y-84656561D01*
X114755466Y-84561323D01*
X114803085Y-84466085D01*
X114850704Y-84275609D01*
X114850704Y-84132752D01*
X114803085Y-83942276D01*
X114755466Y-83847038D01*
X114660228Y-83751800D01*
X114517371Y-83704180D01*
X114422133Y-83704180D01*
X114279276Y-83751800D01*
X114231657Y-83799419D01*
X113374514Y-84037514D02*
X113374514Y-84704180D01*
X113612609Y-83656561D02*
X113850704Y-84370847D01*
X113231657Y-84370847D01*
X112422133Y-84037514D02*
X112422133Y-84704180D01*
X112660228Y-83656561D02*
X112898323Y-84370847D01*
X112279276Y-84370847D01*
X114307857Y-80913242D02*
X114355476Y-80960861D01*
X114498333Y-81008480D01*
X114593571Y-81008480D01*
X114736428Y-80960861D01*
X114831666Y-80865623D01*
X114879285Y-80770385D01*
X114926904Y-80579909D01*
X114926904Y-80437052D01*
X114879285Y-80246576D01*
X114831666Y-80151338D01*
X114736428Y-80056100D01*
X114593571Y-80008480D01*
X114498333Y-80008480D01*
X114355476Y-80056100D01*
X114307857Y-80103719D01*
X113450714Y-80341814D02*
X113450714Y-81008480D01*
X113688809Y-79960861D02*
X113926904Y-80675147D01*
X113307857Y-80675147D01*
X113022142Y-80008480D02*
X112403095Y-80008480D01*
X112736428Y-80389433D01*
X112593571Y-80389433D01*
X112498333Y-80437052D01*
X112450714Y-80484671D01*
X112403095Y-80579909D01*
X112403095Y-80818004D01*
X112450714Y-80913242D01*
X112498333Y-80960861D01*
X112593571Y-81008480D01*
X112879285Y-81008480D01*
X112974523Y-80960861D01*
X113022142Y-80913242D01*
X114307857Y-82056242D02*
X114355476Y-82103861D01*
X114498333Y-82151480D01*
X114593571Y-82151480D01*
X114736428Y-82103861D01*
X114831666Y-82008623D01*
X114879285Y-81913385D01*
X114926904Y-81722909D01*
X114926904Y-81580052D01*
X114879285Y-81389576D01*
X114831666Y-81294338D01*
X114736428Y-81199100D01*
X114593571Y-81151480D01*
X114498333Y-81151480D01*
X114355476Y-81199100D01*
X114307857Y-81246719D01*
X113450714Y-81484814D02*
X113450714Y-82151480D01*
X113688809Y-81103861D02*
X113926904Y-81818147D01*
X113307857Y-81818147D01*
X112974523Y-81246719D02*
X112926904Y-81199100D01*
X112831666Y-81151480D01*
X112593571Y-81151480D01*
X112498333Y-81199100D01*
X112450714Y-81246719D01*
X112403095Y-81341957D01*
X112403095Y-81437195D01*
X112450714Y-81580052D01*
X113022142Y-82151480D01*
X112403095Y-82151480D01*
X113133142Y-76954142D02*
X113180761Y-76906523D01*
X113228380Y-76763666D01*
X113228380Y-76668428D01*
X113180761Y-76525571D01*
X113085523Y-76430333D01*
X112990285Y-76382714D01*
X112799809Y-76335095D01*
X112656952Y-76335095D01*
X112466476Y-76382714D01*
X112371238Y-76430333D01*
X112276000Y-76525571D01*
X112228380Y-76668428D01*
X112228380Y-76763666D01*
X112276000Y-76906523D01*
X112323619Y-76954142D01*
X112561714Y-77811285D02*
X113228380Y-77811285D01*
X112180761Y-77573190D02*
X112895047Y-77335095D01*
X112895047Y-77954142D01*
X113228380Y-78858904D02*
X113228380Y-78287476D01*
X113228380Y-78573190D02*
X112228380Y-78573190D01*
X112371238Y-78477952D01*
X112466476Y-78382714D01*
X112514095Y-78287476D01*
X111990142Y-76954142D02*
X112037761Y-76906523D01*
X112085380Y-76763666D01*
X112085380Y-76668428D01*
X112037761Y-76525571D01*
X111942523Y-76430333D01*
X111847285Y-76382714D01*
X111656809Y-76335095D01*
X111513952Y-76335095D01*
X111323476Y-76382714D01*
X111228238Y-76430333D01*
X111133000Y-76525571D01*
X111085380Y-76668428D01*
X111085380Y-76763666D01*
X111133000Y-76906523D01*
X111180619Y-76954142D01*
X111418714Y-77811285D02*
X112085380Y-77811285D01*
X111037761Y-77573190D02*
X111752047Y-77335095D01*
X111752047Y-77954142D01*
X111085380Y-78525571D02*
X111085380Y-78620809D01*
X111133000Y-78716047D01*
X111180619Y-78763666D01*
X111275857Y-78811285D01*
X111466333Y-78858904D01*
X111704428Y-78858904D01*
X111894904Y-78811285D01*
X111990142Y-78763666D01*
X112037761Y-78716047D01*
X112085380Y-78620809D01*
X112085380Y-78525571D01*
X112037761Y-78430333D01*
X111990142Y-78382714D01*
X111894904Y-78335095D01*
X111704428Y-78287476D01*
X111466333Y-78287476D01*
X111275857Y-78335095D01*
X111180619Y-78382714D01*
X111133000Y-78430333D01*
X111085380Y-78525571D01*
X119749842Y-76446142D02*
X119797461Y-76398523D01*
X119845080Y-76255666D01*
X119845080Y-76160428D01*
X119797461Y-76017571D01*
X119702223Y-75922333D01*
X119606985Y-75874714D01*
X119416509Y-75827095D01*
X119273652Y-75827095D01*
X119083176Y-75874714D01*
X118987938Y-75922333D01*
X118892700Y-76017571D01*
X118845080Y-76160428D01*
X118845080Y-76255666D01*
X118892700Y-76398523D01*
X118940319Y-76446142D01*
X118845080Y-76779476D02*
X118845080Y-77398523D01*
X119226033Y-77065190D01*
X119226033Y-77208047D01*
X119273652Y-77303285D01*
X119321271Y-77350904D01*
X119416509Y-77398523D01*
X119654604Y-77398523D01*
X119749842Y-77350904D01*
X119797461Y-77303285D01*
X119845080Y-77208047D01*
X119845080Y-76922333D01*
X119797461Y-76827095D01*
X119749842Y-76779476D01*
X119845080Y-77874714D02*
X119845080Y-78065190D01*
X119797461Y-78160428D01*
X119749842Y-78208047D01*
X119606985Y-78303285D01*
X119416509Y-78350904D01*
X119035557Y-78350904D01*
X118940319Y-78303285D01*
X118892700Y-78255666D01*
X118845080Y-78160428D01*
X118845080Y-77969952D01*
X118892700Y-77874714D01*
X118940319Y-77827095D01*
X119035557Y-77779476D01*
X119273652Y-77779476D01*
X119368890Y-77827095D01*
X119416509Y-77874714D01*
X119464128Y-77969952D01*
X119464128Y-78160428D01*
X119416509Y-78255666D01*
X119368890Y-78303285D01*
X119273652Y-78350904D01*
X118606842Y-76446142D02*
X118654461Y-76398523D01*
X118702080Y-76255666D01*
X118702080Y-76160428D01*
X118654461Y-76017571D01*
X118559223Y-75922333D01*
X118463985Y-75874714D01*
X118273509Y-75827095D01*
X118130652Y-75827095D01*
X117940176Y-75874714D01*
X117844938Y-75922333D01*
X117749700Y-76017571D01*
X117702080Y-76160428D01*
X117702080Y-76255666D01*
X117749700Y-76398523D01*
X117797319Y-76446142D01*
X117702080Y-76779476D02*
X117702080Y-77398523D01*
X118083033Y-77065190D01*
X118083033Y-77208047D01*
X118130652Y-77303285D01*
X118178271Y-77350904D01*
X118273509Y-77398523D01*
X118511604Y-77398523D01*
X118606842Y-77350904D01*
X118654461Y-77303285D01*
X118702080Y-77208047D01*
X118702080Y-76922333D01*
X118654461Y-76827095D01*
X118606842Y-76779476D01*
X118130652Y-77969952D02*
X118083033Y-77874714D01*
X118035414Y-77827095D01*
X117940176Y-77779476D01*
X117892557Y-77779476D01*
X117797319Y-77827095D01*
X117749700Y-77874714D01*
X117702080Y-77969952D01*
X117702080Y-78160428D01*
X117749700Y-78255666D01*
X117797319Y-78303285D01*
X117892557Y-78350904D01*
X117940176Y-78350904D01*
X118035414Y-78303285D01*
X118083033Y-78255666D01*
X118130652Y-78160428D01*
X118130652Y-77969952D01*
X118178271Y-77874714D01*
X118225890Y-77827095D01*
X118321128Y-77779476D01*
X118511604Y-77779476D01*
X118606842Y-77827095D01*
X118654461Y-77874714D01*
X118702080Y-77969952D01*
X118702080Y-78160428D01*
X118654461Y-78255666D01*
X118606842Y-78303285D01*
X118511604Y-78350904D01*
X118321128Y-78350904D01*
X118225890Y-78303285D01*
X118178271Y-78255666D01*
X118130652Y-78160428D01*
X118282933Y-89615971D02*
X118616266Y-89615971D01*
X118616266Y-90139780D02*
X118616266Y-89139780D01*
X118140076Y-89139780D01*
X117425790Y-89615971D02*
X117282933Y-89663590D01*
X117235314Y-89711209D01*
X117187695Y-89806447D01*
X117187695Y-89949304D01*
X117235314Y-90044542D01*
X117282933Y-90092161D01*
X117378171Y-90139780D01*
X117759123Y-90139780D01*
X117759123Y-89139780D01*
X117425790Y-89139780D01*
X117330552Y-89187400D01*
X117282933Y-89235019D01*
X117235314Y-89330257D01*
X117235314Y-89425495D01*
X117282933Y-89520733D01*
X117330552Y-89568352D01*
X117425790Y-89615971D01*
X117759123Y-89615971D01*
X116235314Y-90139780D02*
X116806742Y-90139780D01*
X116521028Y-90139780D02*
X116521028Y-89139780D01*
X116616266Y-89282638D01*
X116711504Y-89377876D01*
X116806742Y-89425495D01*
X109500966Y-94965780D02*
X109834300Y-94489590D01*
X110072395Y-94965780D02*
X110072395Y-93965780D01*
X109691442Y-93965780D01*
X109596204Y-94013400D01*
X109548585Y-94061019D01*
X109500966Y-94156257D01*
X109500966Y-94299114D01*
X109548585Y-94394352D01*
X109596204Y-94441971D01*
X109691442Y-94489590D01*
X110072395Y-94489590D01*
X109167633Y-93965780D02*
X108548585Y-93965780D01*
X108881919Y-94346733D01*
X108739061Y-94346733D01*
X108643823Y-94394352D01*
X108596204Y-94441971D01*
X108548585Y-94537209D01*
X108548585Y-94775304D01*
X108596204Y-94870542D01*
X108643823Y-94918161D01*
X108739061Y-94965780D01*
X109024776Y-94965780D01*
X109120014Y-94918161D01*
X109167633Y-94870542D01*
X124703442Y-76419642D02*
X124751061Y-76372023D01*
X124798680Y-76229166D01*
X124798680Y-76133928D01*
X124751061Y-75991071D01*
X124655823Y-75895833D01*
X124560585Y-75848214D01*
X124370109Y-75800595D01*
X124227252Y-75800595D01*
X124036776Y-75848214D01*
X123941538Y-75895833D01*
X123846300Y-75991071D01*
X123798680Y-76133928D01*
X123798680Y-76229166D01*
X123846300Y-76372023D01*
X123893919Y-76419642D01*
X123798680Y-76752976D02*
X123798680Y-77372023D01*
X124179633Y-77038690D01*
X124179633Y-77181547D01*
X124227252Y-77276785D01*
X124274871Y-77324404D01*
X124370109Y-77372023D01*
X124608204Y-77372023D01*
X124703442Y-77324404D01*
X124751061Y-77276785D01*
X124798680Y-77181547D01*
X124798680Y-76895833D01*
X124751061Y-76800595D01*
X124703442Y-76752976D01*
X123798680Y-77705357D02*
X123798680Y-78372023D01*
X124798680Y-77943452D01*
X123534442Y-76463642D02*
X123582061Y-76416023D01*
X123629680Y-76273166D01*
X123629680Y-76177928D01*
X123582061Y-76035071D01*
X123486823Y-75939833D01*
X123391585Y-75892214D01*
X123201109Y-75844595D01*
X123058252Y-75844595D01*
X122867776Y-75892214D01*
X122772538Y-75939833D01*
X122677300Y-76035071D01*
X122629680Y-76177928D01*
X122629680Y-76273166D01*
X122677300Y-76416023D01*
X122724919Y-76463642D01*
X122629680Y-76796976D02*
X122629680Y-77416023D01*
X123010633Y-77082690D01*
X123010633Y-77225547D01*
X123058252Y-77320785D01*
X123105871Y-77368404D01*
X123201109Y-77416023D01*
X123439204Y-77416023D01*
X123534442Y-77368404D01*
X123582061Y-77320785D01*
X123629680Y-77225547D01*
X123629680Y-76939833D01*
X123582061Y-76844595D01*
X123534442Y-76796976D01*
X122629680Y-78273166D02*
X122629680Y-78082690D01*
X122677300Y-77987452D01*
X122724919Y-77939833D01*
X122867776Y-77844595D01*
X123058252Y-77796976D01*
X123439204Y-77796976D01*
X123534442Y-77844595D01*
X123582061Y-77892214D01*
X123629680Y-77987452D01*
X123629680Y-78177928D01*
X123582061Y-78273166D01*
X123534442Y-78320785D01*
X123439204Y-78368404D01*
X123201109Y-78368404D01*
X123105871Y-78320785D01*
X123058252Y-78273166D01*
X123010633Y-78177928D01*
X123010633Y-77987452D01*
X123058252Y-77892214D01*
X123105871Y-77844595D01*
X123201109Y-77796976D01*
X129262142Y-76471542D02*
X129309761Y-76423923D01*
X129357380Y-76281066D01*
X129357380Y-76185828D01*
X129309761Y-76042971D01*
X129214523Y-75947733D01*
X129119285Y-75900114D01*
X128928809Y-75852495D01*
X128785952Y-75852495D01*
X128595476Y-75900114D01*
X128500238Y-75947733D01*
X128405000Y-76042971D01*
X128357380Y-76185828D01*
X128357380Y-76281066D01*
X128405000Y-76423923D01*
X128452619Y-76471542D01*
X128357380Y-76804876D02*
X128357380Y-77423923D01*
X128738333Y-77090590D01*
X128738333Y-77233447D01*
X128785952Y-77328685D01*
X128833571Y-77376304D01*
X128928809Y-77423923D01*
X129166904Y-77423923D01*
X129262142Y-77376304D01*
X129309761Y-77328685D01*
X129357380Y-77233447D01*
X129357380Y-76947733D01*
X129309761Y-76852495D01*
X129262142Y-76804876D01*
X128357380Y-78328685D02*
X128357380Y-77852495D01*
X128833571Y-77804876D01*
X128785952Y-77852495D01*
X128738333Y-77947733D01*
X128738333Y-78185828D01*
X128785952Y-78281066D01*
X128833571Y-78328685D01*
X128928809Y-78376304D01*
X129166904Y-78376304D01*
X129262142Y-78328685D01*
X129309761Y-78281066D01*
X129357380Y-78185828D01*
X129357380Y-77947733D01*
X129309761Y-77852495D01*
X129262142Y-77804876D01*
X128119142Y-76448542D02*
X128166761Y-76400923D01*
X128214380Y-76258066D01*
X128214380Y-76162828D01*
X128166761Y-76019971D01*
X128071523Y-75924733D01*
X127976285Y-75877114D01*
X127785809Y-75829495D01*
X127642952Y-75829495D01*
X127452476Y-75877114D01*
X127357238Y-75924733D01*
X127262000Y-76019971D01*
X127214380Y-76162828D01*
X127214380Y-76258066D01*
X127262000Y-76400923D01*
X127309619Y-76448542D01*
X127214380Y-76781876D02*
X127214380Y-77400923D01*
X127595333Y-77067590D01*
X127595333Y-77210447D01*
X127642952Y-77305685D01*
X127690571Y-77353304D01*
X127785809Y-77400923D01*
X128023904Y-77400923D01*
X128119142Y-77353304D01*
X128166761Y-77305685D01*
X128214380Y-77210447D01*
X128214380Y-76924733D01*
X128166761Y-76829495D01*
X128119142Y-76781876D01*
X127547714Y-78258066D02*
X128214380Y-78258066D01*
X127166761Y-78019971D02*
X127881047Y-77781876D01*
X127881047Y-78400923D01*
X131675142Y-76598542D02*
X131722761Y-76550923D01*
X131770380Y-76408066D01*
X131770380Y-76312828D01*
X131722761Y-76169971D01*
X131627523Y-76074733D01*
X131532285Y-76027114D01*
X131341809Y-75979495D01*
X131198952Y-75979495D01*
X131008476Y-76027114D01*
X130913238Y-76074733D01*
X130818000Y-76169971D01*
X130770380Y-76312828D01*
X130770380Y-76408066D01*
X130818000Y-76550923D01*
X130865619Y-76598542D01*
X130770380Y-76931876D02*
X130770380Y-77550923D01*
X131151333Y-77217590D01*
X131151333Y-77360447D01*
X131198952Y-77455685D01*
X131246571Y-77503304D01*
X131341809Y-77550923D01*
X131579904Y-77550923D01*
X131675142Y-77503304D01*
X131722761Y-77455685D01*
X131770380Y-77360447D01*
X131770380Y-77074733D01*
X131722761Y-76979495D01*
X131675142Y-76931876D01*
X130770380Y-77884257D02*
X130770380Y-78503304D01*
X131151333Y-78169971D01*
X131151333Y-78312828D01*
X131198952Y-78408066D01*
X131246571Y-78455685D01*
X131341809Y-78503304D01*
X131579904Y-78503304D01*
X131675142Y-78455685D01*
X131722761Y-78408066D01*
X131770380Y-78312828D01*
X131770380Y-78027114D01*
X131722761Y-77931876D01*
X131675142Y-77884257D01*
X130532142Y-76598542D02*
X130579761Y-76550923D01*
X130627380Y-76408066D01*
X130627380Y-76312828D01*
X130579761Y-76169971D01*
X130484523Y-76074733D01*
X130389285Y-76027114D01*
X130198809Y-75979495D01*
X130055952Y-75979495D01*
X129865476Y-76027114D01*
X129770238Y-76074733D01*
X129675000Y-76169971D01*
X129627380Y-76312828D01*
X129627380Y-76408066D01*
X129675000Y-76550923D01*
X129722619Y-76598542D01*
X129627380Y-76931876D02*
X129627380Y-77550923D01*
X130008333Y-77217590D01*
X130008333Y-77360447D01*
X130055952Y-77455685D01*
X130103571Y-77503304D01*
X130198809Y-77550923D01*
X130436904Y-77550923D01*
X130532142Y-77503304D01*
X130579761Y-77455685D01*
X130627380Y-77360447D01*
X130627380Y-77074733D01*
X130579761Y-76979495D01*
X130532142Y-76931876D01*
X129722619Y-77931876D02*
X129675000Y-77979495D01*
X129627380Y-78074733D01*
X129627380Y-78312828D01*
X129675000Y-78408066D01*
X129722619Y-78455685D01*
X129817857Y-78503304D01*
X129913095Y-78503304D01*
X130055952Y-78455685D01*
X130627380Y-77884257D01*
X130627380Y-78503304D01*
X129039857Y-82145142D02*
X129087476Y-82192761D01*
X129230333Y-82240380D01*
X129325571Y-82240380D01*
X129468428Y-82192761D01*
X129563666Y-82097523D01*
X129611285Y-82002285D01*
X129658904Y-81811809D01*
X129658904Y-81668952D01*
X129611285Y-81478476D01*
X129563666Y-81383238D01*
X129468428Y-81288000D01*
X129325571Y-81240380D01*
X129230333Y-81240380D01*
X129087476Y-81288000D01*
X129039857Y-81335619D01*
X128706523Y-81240380D02*
X128087476Y-81240380D01*
X128420809Y-81621333D01*
X128277952Y-81621333D01*
X128182714Y-81668952D01*
X128135095Y-81716571D01*
X128087476Y-81811809D01*
X128087476Y-82049904D01*
X128135095Y-82145142D01*
X128182714Y-82192761D01*
X128277952Y-82240380D01*
X128563666Y-82240380D01*
X128658904Y-82192761D01*
X128706523Y-82145142D01*
X127135095Y-82240380D02*
X127706523Y-82240380D01*
X127420809Y-82240380D02*
X127420809Y-81240380D01*
X127516047Y-81383238D01*
X127611285Y-81478476D01*
X127706523Y-81526095D01*
X129062857Y-81002142D02*
X129110476Y-81049761D01*
X129253333Y-81097380D01*
X129348571Y-81097380D01*
X129491428Y-81049761D01*
X129586666Y-80954523D01*
X129634285Y-80859285D01*
X129681904Y-80668809D01*
X129681904Y-80525952D01*
X129634285Y-80335476D01*
X129586666Y-80240238D01*
X129491428Y-80145000D01*
X129348571Y-80097380D01*
X129253333Y-80097380D01*
X129110476Y-80145000D01*
X129062857Y-80192619D01*
X128729523Y-80097380D02*
X128110476Y-80097380D01*
X128443809Y-80478333D01*
X128300952Y-80478333D01*
X128205714Y-80525952D01*
X128158095Y-80573571D01*
X128110476Y-80668809D01*
X128110476Y-80906904D01*
X128158095Y-81002142D01*
X128205714Y-81049761D01*
X128300952Y-81097380D01*
X128586666Y-81097380D01*
X128681904Y-81049761D01*
X128729523Y-81002142D01*
X127491428Y-80097380D02*
X127396190Y-80097380D01*
X127300952Y-80145000D01*
X127253333Y-80192619D01*
X127205714Y-80287857D01*
X127158095Y-80478333D01*
X127158095Y-80716428D01*
X127205714Y-80906904D01*
X127253333Y-81002142D01*
X127300952Y-81049761D01*
X127396190Y-81097380D01*
X127491428Y-81097380D01*
X127586666Y-81049761D01*
X127634285Y-81002142D01*
X127681904Y-80906904D01*
X127729523Y-80716428D01*
X127729523Y-80478333D01*
X127681904Y-80287857D01*
X127634285Y-80192619D01*
X127586666Y-80145000D01*
X127491428Y-80097380D01*
X128608057Y-88050642D02*
X128655676Y-88098261D01*
X128798533Y-88145880D01*
X128893771Y-88145880D01*
X129036628Y-88098261D01*
X129131866Y-88003023D01*
X129179485Y-87907785D01*
X129227104Y-87717309D01*
X129227104Y-87574452D01*
X129179485Y-87383976D01*
X129131866Y-87288738D01*
X129036628Y-87193500D01*
X128893771Y-87145880D01*
X128798533Y-87145880D01*
X128655676Y-87193500D01*
X128608057Y-87241119D01*
X128227104Y-87241119D02*
X128179485Y-87193500D01*
X128084247Y-87145880D01*
X127846152Y-87145880D01*
X127750914Y-87193500D01*
X127703295Y-87241119D01*
X127655676Y-87336357D01*
X127655676Y-87431595D01*
X127703295Y-87574452D01*
X128274723Y-88145880D01*
X127655676Y-88145880D01*
X127179485Y-88145880D02*
X126989009Y-88145880D01*
X126893771Y-88098261D01*
X126846152Y-88050642D01*
X126750914Y-87907785D01*
X126703295Y-87717309D01*
X126703295Y-87336357D01*
X126750914Y-87241119D01*
X126798533Y-87193500D01*
X126893771Y-87145880D01*
X127084247Y-87145880D01*
X127179485Y-87193500D01*
X127227104Y-87241119D01*
X127274723Y-87336357D01*
X127274723Y-87574452D01*
X127227104Y-87669690D01*
X127179485Y-87717309D01*
X127084247Y-87764928D01*
X126893771Y-87764928D01*
X126798533Y-87717309D01*
X126750914Y-87669690D01*
X126703295Y-87574452D01*
X128646157Y-86844142D02*
X128693776Y-86891761D01*
X128836633Y-86939380D01*
X128931871Y-86939380D01*
X129074728Y-86891761D01*
X129169966Y-86796523D01*
X129217585Y-86701285D01*
X129265204Y-86510809D01*
X129265204Y-86367952D01*
X129217585Y-86177476D01*
X129169966Y-86082238D01*
X129074728Y-85987000D01*
X128931871Y-85939380D01*
X128836633Y-85939380D01*
X128693776Y-85987000D01*
X128646157Y-86034619D01*
X128265204Y-86034619D02*
X128217585Y-85987000D01*
X128122347Y-85939380D01*
X127884252Y-85939380D01*
X127789014Y-85987000D01*
X127741395Y-86034619D01*
X127693776Y-86129857D01*
X127693776Y-86225095D01*
X127741395Y-86367952D01*
X128312823Y-86939380D01*
X127693776Y-86939380D01*
X127122347Y-86367952D02*
X127217585Y-86320333D01*
X127265204Y-86272714D01*
X127312823Y-86177476D01*
X127312823Y-86129857D01*
X127265204Y-86034619D01*
X127217585Y-85987000D01*
X127122347Y-85939380D01*
X126931871Y-85939380D01*
X126836633Y-85987000D01*
X126789014Y-86034619D01*
X126741395Y-86129857D01*
X126741395Y-86177476D01*
X126789014Y-86272714D01*
X126836633Y-86320333D01*
X126931871Y-86367952D01*
X127122347Y-86367952D01*
X127217585Y-86415571D01*
X127265204Y-86463190D01*
X127312823Y-86558428D01*
X127312823Y-86748904D01*
X127265204Y-86844142D01*
X127217585Y-86891761D01*
X127122347Y-86939380D01*
X126931871Y-86939380D01*
X126836633Y-86891761D01*
X126789014Y-86844142D01*
X126741395Y-86748904D01*
X126741395Y-86558428D01*
X126789014Y-86463190D01*
X126836633Y-86415571D01*
X126931871Y-86367952D01*
X112901457Y-92636857D02*
X112853838Y-92684476D01*
X112806219Y-92827333D01*
X112806219Y-92922571D01*
X112853838Y-93065428D01*
X112949076Y-93160666D01*
X113044314Y-93208285D01*
X113234790Y-93255904D01*
X113377647Y-93255904D01*
X113568123Y-93208285D01*
X113663361Y-93160666D01*
X113758600Y-93065428D01*
X113806219Y-92922571D01*
X113806219Y-92827333D01*
X113758600Y-92684476D01*
X113710980Y-92636857D01*
X113710980Y-92255904D02*
X113758600Y-92208285D01*
X113806219Y-92113047D01*
X113806219Y-91874952D01*
X113758600Y-91779714D01*
X113710980Y-91732095D01*
X113615742Y-91684476D01*
X113520504Y-91684476D01*
X113377647Y-91732095D01*
X112806219Y-92303523D01*
X112806219Y-91684476D01*
X113806219Y-91351142D02*
X113806219Y-90684476D01*
X112806219Y-91113047D01*
X113968257Y-92743257D02*
X113920638Y-92790876D01*
X113873019Y-92933733D01*
X113873019Y-93028971D01*
X113920638Y-93171828D01*
X114015876Y-93267066D01*
X114111114Y-93314685D01*
X114301590Y-93362304D01*
X114444447Y-93362304D01*
X114634923Y-93314685D01*
X114730161Y-93267066D01*
X114825400Y-93171828D01*
X114873019Y-93028971D01*
X114873019Y-92933733D01*
X114825400Y-92790876D01*
X114777780Y-92743257D01*
X114777780Y-92362304D02*
X114825400Y-92314685D01*
X114873019Y-92219447D01*
X114873019Y-91981352D01*
X114825400Y-91886114D01*
X114777780Y-91838495D01*
X114682542Y-91790876D01*
X114587304Y-91790876D01*
X114444447Y-91838495D01*
X113873019Y-92409923D01*
X113873019Y-91790876D01*
X114873019Y-90933733D02*
X114873019Y-91124209D01*
X114825400Y-91219447D01*
X114777780Y-91267066D01*
X114634923Y-91362304D01*
X114444447Y-91409923D01*
X114063495Y-91409923D01*
X113968257Y-91362304D01*
X113920638Y-91314685D01*
X113873019Y-91219447D01*
X113873019Y-91028971D01*
X113920638Y-90933733D01*
X113968257Y-90886114D01*
X114063495Y-90838495D01*
X114301590Y-90838495D01*
X114396828Y-90886114D01*
X114444447Y-90933733D01*
X114492066Y-91028971D01*
X114492066Y-91219447D01*
X114444447Y-91314685D01*
X114396828Y-91362304D01*
X114301590Y-91409923D01*
X128519157Y-90273142D02*
X128566776Y-90320761D01*
X128709633Y-90368380D01*
X128804871Y-90368380D01*
X128947728Y-90320761D01*
X129042966Y-90225523D01*
X129090585Y-90130285D01*
X129138204Y-89939809D01*
X129138204Y-89796952D01*
X129090585Y-89606476D01*
X129042966Y-89511238D01*
X128947728Y-89416000D01*
X128804871Y-89368380D01*
X128709633Y-89368380D01*
X128566776Y-89416000D01*
X128519157Y-89463619D01*
X128138204Y-89463619D02*
X128090585Y-89416000D01*
X127995347Y-89368380D01*
X127757252Y-89368380D01*
X127662014Y-89416000D01*
X127614395Y-89463619D01*
X127566776Y-89558857D01*
X127566776Y-89654095D01*
X127614395Y-89796952D01*
X128185823Y-90368380D01*
X127566776Y-90368380D01*
X126662014Y-89368380D02*
X127138204Y-89368380D01*
X127185823Y-89844571D01*
X127138204Y-89796952D01*
X127042966Y-89749333D01*
X126804871Y-89749333D01*
X126709633Y-89796952D01*
X126662014Y-89844571D01*
X126614395Y-89939809D01*
X126614395Y-90177904D01*
X126662014Y-90273142D01*
X126709633Y-90320761D01*
X126804871Y-90368380D01*
X127042966Y-90368380D01*
X127138204Y-90320761D01*
X127185823Y-90273142D01*
X128646157Y-89257142D02*
X128693776Y-89304761D01*
X128836633Y-89352380D01*
X128931871Y-89352380D01*
X129074728Y-89304761D01*
X129169966Y-89209523D01*
X129217585Y-89114285D01*
X129265204Y-88923809D01*
X129265204Y-88780952D01*
X129217585Y-88590476D01*
X129169966Y-88495238D01*
X129074728Y-88400000D01*
X128931871Y-88352380D01*
X128836633Y-88352380D01*
X128693776Y-88400000D01*
X128646157Y-88447619D01*
X128265204Y-88447619D02*
X128217585Y-88400000D01*
X128122347Y-88352380D01*
X127884252Y-88352380D01*
X127789014Y-88400000D01*
X127741395Y-88447619D01*
X127693776Y-88542857D01*
X127693776Y-88638095D01*
X127741395Y-88780952D01*
X128312823Y-89352380D01*
X127693776Y-89352380D01*
X126836633Y-88685714D02*
X126836633Y-89352380D01*
X127074728Y-88304761D02*
X127312823Y-89019047D01*
X126693776Y-89019047D01*
X127915942Y-96321642D02*
X127963561Y-96274023D01*
X128011180Y-96131166D01*
X128011180Y-96035928D01*
X127963561Y-95893071D01*
X127868323Y-95797833D01*
X127773085Y-95750214D01*
X127582609Y-95702595D01*
X127439752Y-95702595D01*
X127249276Y-95750214D01*
X127154038Y-95797833D01*
X127058800Y-95893071D01*
X127011180Y-96035928D01*
X127011180Y-96131166D01*
X127058800Y-96274023D01*
X127106419Y-96321642D01*
X127106419Y-96702595D02*
X127058800Y-96750214D01*
X127011180Y-96845452D01*
X127011180Y-97083547D01*
X127058800Y-97178785D01*
X127106419Y-97226404D01*
X127201657Y-97274023D01*
X127296895Y-97274023D01*
X127439752Y-97226404D01*
X128011180Y-96654976D01*
X128011180Y-97274023D01*
X127011180Y-97607357D02*
X127011180Y-98226404D01*
X127392133Y-97893071D01*
X127392133Y-98035928D01*
X127439752Y-98131166D01*
X127487371Y-98178785D01*
X127582609Y-98226404D01*
X127820704Y-98226404D01*
X127915942Y-98178785D01*
X127963561Y-98131166D01*
X128011180Y-98035928D01*
X128011180Y-97750214D01*
X127963561Y-97654976D01*
X127915942Y-97607357D01*
X129185942Y-96321642D02*
X129233561Y-96274023D01*
X129281180Y-96131166D01*
X129281180Y-96035928D01*
X129233561Y-95893071D01*
X129138323Y-95797833D01*
X129043085Y-95750214D01*
X128852609Y-95702595D01*
X128709752Y-95702595D01*
X128519276Y-95750214D01*
X128424038Y-95797833D01*
X128328800Y-95893071D01*
X128281180Y-96035928D01*
X128281180Y-96131166D01*
X128328800Y-96274023D01*
X128376419Y-96321642D01*
X128376419Y-96702595D02*
X128328800Y-96750214D01*
X128281180Y-96845452D01*
X128281180Y-97083547D01*
X128328800Y-97178785D01*
X128376419Y-97226404D01*
X128471657Y-97274023D01*
X128566895Y-97274023D01*
X128709752Y-97226404D01*
X129281180Y-96654976D01*
X129281180Y-97274023D01*
X128376419Y-97654976D02*
X128328800Y-97702595D01*
X128281180Y-97797833D01*
X128281180Y-98035928D01*
X128328800Y-98131166D01*
X128376419Y-98178785D01*
X128471657Y-98226404D01*
X128566895Y-98226404D01*
X128709752Y-98178785D01*
X129281180Y-97607357D01*
X129281180Y-98226404D01*
X118972057Y-92514657D02*
X118924438Y-92562276D01*
X118876819Y-92705133D01*
X118876819Y-92800371D01*
X118924438Y-92943228D01*
X119019676Y-93038466D01*
X119114914Y-93086085D01*
X119305390Y-93133704D01*
X119448247Y-93133704D01*
X119638723Y-93086085D01*
X119733961Y-93038466D01*
X119829200Y-92943228D01*
X119876819Y-92800371D01*
X119876819Y-92705133D01*
X119829200Y-92562276D01*
X119781580Y-92514657D01*
X119781580Y-92133704D02*
X119829200Y-92086085D01*
X119876819Y-91990847D01*
X119876819Y-91752752D01*
X119829200Y-91657514D01*
X119781580Y-91609895D01*
X119686342Y-91562276D01*
X119591104Y-91562276D01*
X119448247Y-91609895D01*
X118876819Y-92181323D01*
X118876819Y-91562276D01*
X118876819Y-90609895D02*
X118876819Y-91181323D01*
X118876819Y-90895609D02*
X119876819Y-90895609D01*
X119733961Y-90990847D01*
X119638723Y-91086085D01*
X119591104Y-91181323D01*
X117829057Y-92410657D02*
X117781438Y-92458276D01*
X117733819Y-92601133D01*
X117733819Y-92696371D01*
X117781438Y-92839228D01*
X117876676Y-92934466D01*
X117971914Y-92982085D01*
X118162390Y-93029704D01*
X118305247Y-93029704D01*
X118495723Y-92982085D01*
X118590961Y-92934466D01*
X118686200Y-92839228D01*
X118733819Y-92696371D01*
X118733819Y-92601133D01*
X118686200Y-92458276D01*
X118638580Y-92410657D01*
X118638580Y-92029704D02*
X118686200Y-91982085D01*
X118733819Y-91886847D01*
X118733819Y-91648752D01*
X118686200Y-91553514D01*
X118638580Y-91505895D01*
X118543342Y-91458276D01*
X118448104Y-91458276D01*
X118305247Y-91505895D01*
X117733819Y-92077323D01*
X117733819Y-91458276D01*
X118733819Y-90839228D02*
X118733819Y-90743990D01*
X118686200Y-90648752D01*
X118638580Y-90601133D01*
X118543342Y-90553514D01*
X118352866Y-90505895D01*
X118114771Y-90505895D01*
X117924295Y-90553514D01*
X117829057Y-90601133D01*
X117781438Y-90648752D01*
X117733819Y-90743990D01*
X117733819Y-90839228D01*
X117781438Y-90934466D01*
X117829057Y-90982085D01*
X117924295Y-91029704D01*
X118114771Y-91077323D01*
X118352866Y-91077323D01*
X118543342Y-91029704D01*
X118638580Y-90982085D01*
X118686200Y-90934466D01*
X118733819Y-90839228D01*
X109786657Y-89955642D02*
X109834276Y-90003261D01*
X109977133Y-90050880D01*
X110072371Y-90050880D01*
X110215228Y-90003261D01*
X110310466Y-89908023D01*
X110358085Y-89812785D01*
X110405704Y-89622309D01*
X110405704Y-89479452D01*
X110358085Y-89288976D01*
X110310466Y-89193738D01*
X110215228Y-89098500D01*
X110072371Y-89050880D01*
X109977133Y-89050880D01*
X109834276Y-89098500D01*
X109786657Y-89146119D01*
X108834276Y-90050880D02*
X109405704Y-90050880D01*
X109119990Y-90050880D02*
X109119990Y-89050880D01*
X109215228Y-89193738D01*
X109310466Y-89288976D01*
X109405704Y-89336595D01*
X108358085Y-90050880D02*
X108167609Y-90050880D01*
X108072371Y-90003261D01*
X108024752Y-89955642D01*
X107929514Y-89812785D01*
X107881895Y-89622309D01*
X107881895Y-89241357D01*
X107929514Y-89146119D01*
X107977133Y-89098500D01*
X108072371Y-89050880D01*
X108262847Y-89050880D01*
X108358085Y-89098500D01*
X108405704Y-89146119D01*
X108453323Y-89241357D01*
X108453323Y-89479452D01*
X108405704Y-89574690D01*
X108358085Y-89622309D01*
X108262847Y-89669928D01*
X108072371Y-89669928D01*
X107977133Y-89622309D01*
X107929514Y-89574690D01*
X107881895Y-89479452D01*
X109659657Y-91098642D02*
X109707276Y-91146261D01*
X109850133Y-91193880D01*
X109945371Y-91193880D01*
X110088228Y-91146261D01*
X110183466Y-91051023D01*
X110231085Y-90955785D01*
X110278704Y-90765309D01*
X110278704Y-90622452D01*
X110231085Y-90431976D01*
X110183466Y-90336738D01*
X110088228Y-90241500D01*
X109945371Y-90193880D01*
X109850133Y-90193880D01*
X109707276Y-90241500D01*
X109659657Y-90289119D01*
X108707276Y-91193880D02*
X109278704Y-91193880D01*
X108992990Y-91193880D02*
X108992990Y-90193880D01*
X109088228Y-90336738D01*
X109183466Y-90431976D01*
X109278704Y-90479595D01*
X108135847Y-90622452D02*
X108231085Y-90574833D01*
X108278704Y-90527214D01*
X108326323Y-90431976D01*
X108326323Y-90384357D01*
X108278704Y-90289119D01*
X108231085Y-90241500D01*
X108135847Y-90193880D01*
X107945371Y-90193880D01*
X107850133Y-90241500D01*
X107802514Y-90289119D01*
X107754895Y-90384357D01*
X107754895Y-90431976D01*
X107802514Y-90527214D01*
X107850133Y-90574833D01*
X107945371Y-90622452D01*
X108135847Y-90622452D01*
X108231085Y-90670071D01*
X108278704Y-90717690D01*
X108326323Y-90812928D01*
X108326323Y-91003404D01*
X108278704Y-91098642D01*
X108231085Y-91146261D01*
X108135847Y-91193880D01*
X107945371Y-91193880D01*
X107850133Y-91146261D01*
X107802514Y-91098642D01*
X107754895Y-91003404D01*
X107754895Y-90812928D01*
X107802514Y-90717690D01*
X107850133Y-90670071D01*
X107945371Y-90622452D01*
X109596157Y-93448142D02*
X109643776Y-93495761D01*
X109786633Y-93543380D01*
X109881871Y-93543380D01*
X110024728Y-93495761D01*
X110119966Y-93400523D01*
X110167585Y-93305285D01*
X110215204Y-93114809D01*
X110215204Y-92971952D01*
X110167585Y-92781476D01*
X110119966Y-92686238D01*
X110024728Y-92591000D01*
X109881871Y-92543380D01*
X109786633Y-92543380D01*
X109643776Y-92591000D01*
X109596157Y-92638619D01*
X108643776Y-93543380D02*
X109215204Y-93543380D01*
X108929490Y-93543380D02*
X108929490Y-92543380D01*
X109024728Y-92686238D01*
X109119966Y-92781476D01*
X109215204Y-92829095D01*
X108310442Y-92543380D02*
X107643776Y-92543380D01*
X108072347Y-93543380D01*
X109636657Y-92241642D02*
X109684276Y-92289261D01*
X109827133Y-92336880D01*
X109922371Y-92336880D01*
X110065228Y-92289261D01*
X110160466Y-92194023D01*
X110208085Y-92098785D01*
X110255704Y-91908309D01*
X110255704Y-91765452D01*
X110208085Y-91574976D01*
X110160466Y-91479738D01*
X110065228Y-91384500D01*
X109922371Y-91336880D01*
X109827133Y-91336880D01*
X109684276Y-91384500D01*
X109636657Y-91432119D01*
X108684276Y-92336880D02*
X109255704Y-92336880D01*
X108969990Y-92336880D02*
X108969990Y-91336880D01*
X109065228Y-91479738D01*
X109160466Y-91574976D01*
X109255704Y-91622595D01*
X107827133Y-91336880D02*
X108017609Y-91336880D01*
X108112847Y-91384500D01*
X108160466Y-91432119D01*
X108255704Y-91574976D01*
X108303323Y-91765452D01*
X108303323Y-92146404D01*
X108255704Y-92241642D01*
X108208085Y-92289261D01*
X108112847Y-92336880D01*
X107922371Y-92336880D01*
X107827133Y-92289261D01*
X107779514Y-92241642D01*
X107731895Y-92146404D01*
X107731895Y-91908309D01*
X107779514Y-91813071D01*
X107827133Y-91765452D01*
X107922371Y-91717833D01*
X108112847Y-91717833D01*
X108208085Y-91765452D01*
X108255704Y-91813071D01*
X108303323Y-91908309D01*
X122065157Y-85420142D02*
X122112776Y-85467761D01*
X122255633Y-85515380D01*
X122350871Y-85515380D01*
X122493728Y-85467761D01*
X122588966Y-85372523D01*
X122636585Y-85277285D01*
X122684204Y-85086809D01*
X122684204Y-84943952D01*
X122636585Y-84753476D01*
X122588966Y-84658238D01*
X122493728Y-84563000D01*
X122350871Y-84515380D01*
X122255633Y-84515380D01*
X122112776Y-84563000D01*
X122065157Y-84610619D01*
X121112776Y-85515380D02*
X121684204Y-85515380D01*
X121398490Y-85515380D02*
X121398490Y-84515380D01*
X121493728Y-84658238D01*
X121588966Y-84753476D01*
X121684204Y-84801095D01*
X120208014Y-84515380D02*
X120684204Y-84515380D01*
X120731823Y-84991571D01*
X120684204Y-84943952D01*
X120588966Y-84896333D01*
X120350871Y-84896333D01*
X120255633Y-84943952D01*
X120208014Y-84991571D01*
X120160395Y-85086809D01*
X120160395Y-85324904D01*
X120208014Y-85420142D01*
X120255633Y-85467761D01*
X120350871Y-85515380D01*
X120588966Y-85515380D01*
X120684204Y-85467761D01*
X120731823Y-85420142D01*
X122054857Y-82854742D02*
X122102476Y-82902361D01*
X122245333Y-82949980D01*
X122340571Y-82949980D01*
X122483428Y-82902361D01*
X122578666Y-82807123D01*
X122626285Y-82711885D01*
X122673904Y-82521409D01*
X122673904Y-82378552D01*
X122626285Y-82188076D01*
X122578666Y-82092838D01*
X122483428Y-81997600D01*
X122340571Y-81949980D01*
X122245333Y-81949980D01*
X122102476Y-81997600D01*
X122054857Y-82045219D01*
X121102476Y-82949980D02*
X121673904Y-82949980D01*
X121388190Y-82949980D02*
X121388190Y-81949980D01*
X121483428Y-82092838D01*
X121578666Y-82188076D01*
X121673904Y-82235695D01*
X120245333Y-82283314D02*
X120245333Y-82949980D01*
X120483428Y-81902361D02*
X120721523Y-82616647D01*
X120102476Y-82616647D01*
X128582657Y-83415142D02*
X128630276Y-83462761D01*
X128773133Y-83510380D01*
X128868371Y-83510380D01*
X129011228Y-83462761D01*
X129106466Y-83367523D01*
X129154085Y-83272285D01*
X129201704Y-83081809D01*
X129201704Y-82938952D01*
X129154085Y-82748476D01*
X129106466Y-82653238D01*
X129011228Y-82558000D01*
X128868371Y-82510380D01*
X128773133Y-82510380D01*
X128630276Y-82558000D01*
X128582657Y-82605619D01*
X127630276Y-83510380D02*
X128201704Y-83510380D01*
X127915990Y-83510380D02*
X127915990Y-82510380D01*
X128011228Y-82653238D01*
X128106466Y-82748476D01*
X128201704Y-82796095D01*
X127296942Y-82510380D02*
X126677895Y-82510380D01*
X127011228Y-82891333D01*
X126868371Y-82891333D01*
X126773133Y-82938952D01*
X126725514Y-82986571D01*
X126677895Y-83081809D01*
X126677895Y-83319904D01*
X126725514Y-83415142D01*
X126773133Y-83462761D01*
X126868371Y-83510380D01*
X127154085Y-83510380D01*
X127249323Y-83462761D01*
X127296942Y-83415142D01*
X128582657Y-85701142D02*
X128630276Y-85748761D01*
X128773133Y-85796380D01*
X128868371Y-85796380D01*
X129011228Y-85748761D01*
X129106466Y-85653523D01*
X129154085Y-85558285D01*
X129201704Y-85367809D01*
X129201704Y-85224952D01*
X129154085Y-85034476D01*
X129106466Y-84939238D01*
X129011228Y-84844000D01*
X128868371Y-84796380D01*
X128773133Y-84796380D01*
X128630276Y-84844000D01*
X128582657Y-84891619D01*
X127630276Y-85796380D02*
X128201704Y-85796380D01*
X127915990Y-85796380D02*
X127915990Y-84796380D01*
X128011228Y-84939238D01*
X128106466Y-85034476D01*
X128201704Y-85082095D01*
X127249323Y-84891619D02*
X127201704Y-84844000D01*
X127106466Y-84796380D01*
X126868371Y-84796380D01*
X126773133Y-84844000D01*
X126725514Y-84891619D01*
X126677895Y-84986857D01*
X126677895Y-85082095D01*
X126725514Y-85224952D01*
X127296942Y-85796380D01*
X126677895Y-85796380D01*
X128582657Y-84558142D02*
X128630276Y-84605761D01*
X128773133Y-84653380D01*
X128868371Y-84653380D01*
X129011228Y-84605761D01*
X129106466Y-84510523D01*
X129154085Y-84415285D01*
X129201704Y-84224809D01*
X129201704Y-84081952D01*
X129154085Y-83891476D01*
X129106466Y-83796238D01*
X129011228Y-83701000D01*
X128868371Y-83653380D01*
X128773133Y-83653380D01*
X128630276Y-83701000D01*
X128582657Y-83748619D01*
X127630276Y-84653380D02*
X128201704Y-84653380D01*
X127915990Y-84653380D02*
X127915990Y-83653380D01*
X128011228Y-83796238D01*
X128106466Y-83891476D01*
X128201704Y-83939095D01*
X126677895Y-84653380D02*
X127249323Y-84653380D01*
X126963609Y-84653380D02*
X126963609Y-83653380D01*
X127058847Y-83796238D01*
X127154085Y-83891476D01*
X127249323Y-83939095D01*
X115387380Y-76264333D02*
X114911190Y-75931000D01*
X115387380Y-75692904D02*
X114387380Y-75692904D01*
X114387380Y-76073857D01*
X114435000Y-76169095D01*
X114482619Y-76216714D01*
X114577857Y-76264333D01*
X114720714Y-76264333D01*
X114815952Y-76216714D01*
X114863571Y-76169095D01*
X114911190Y-76073857D01*
X114911190Y-75692904D01*
X115387380Y-76740523D02*
X115387380Y-76931000D01*
X115339761Y-77026238D01*
X115292142Y-77073857D01*
X115149285Y-77169095D01*
X114958809Y-77216714D01*
X114577857Y-77216714D01*
X114482619Y-77169095D01*
X114435000Y-77121476D01*
X114387380Y-77026238D01*
X114387380Y-76835761D01*
X114435000Y-76740523D01*
X114482619Y-76692904D01*
X114577857Y-76645285D01*
X114815952Y-76645285D01*
X114911190Y-76692904D01*
X114958809Y-76740523D01*
X115006428Y-76835761D01*
X115006428Y-77026238D01*
X114958809Y-77121476D01*
X114911190Y-77169095D01*
X114815952Y-77216714D01*
X116995297Y-77156671D02*
X116519107Y-76823338D01*
X116995297Y-76585242D02*
X115995297Y-76585242D01*
X115995297Y-76966195D01*
X116042917Y-77061433D01*
X116090536Y-77109052D01*
X116185774Y-77156671D01*
X116328631Y-77156671D01*
X116423869Y-77109052D01*
X116471488Y-77061433D01*
X116519107Y-76966195D01*
X116519107Y-76585242D01*
X116995297Y-78109052D02*
X116995297Y-77537623D01*
X116995297Y-77823338D02*
X115995297Y-77823338D01*
X116138155Y-77728099D01*
X116233393Y-77632861D01*
X116281012Y-77537623D01*
M02*
