G04 #@! TF.GenerationSoftware,KiCad,Pcbnew,(5.1.6)-1*
G04 #@! TF.CreationDate,2020-09-15T12:17:56+03:00*
G04 #@! TF.ProjectId,469devboard,34363964-6576-4626-9f61-72642e6b6963,rev?*
G04 #@! TF.SameCoordinates,Original*
G04 #@! TF.FileFunction,Legend,Top*
G04 #@! TF.FilePolarity,Positive*
%FSLAX46Y46*%
G04 Gerber Fmt 4.6, Leading zero omitted, Abs format (unit mm)*
G04 Created by KiCad (PCBNEW (5.1.6)-1) date 2020-09-15 12:17:56*
%MOMM*%
%LPD*%
G01*
G04 APERTURE LIST*
%ADD10C,0.150000*%
%ADD11C,0.120000*%
%ADD12C,0.100000*%
%ADD13C,0.254000*%
G04 APERTURE END LIST*
D10*
X88768585Y-107259380D02*
X88435252Y-106783190D01*
X88197157Y-107259380D02*
X88197157Y-106259380D01*
X88578109Y-106259380D01*
X88673347Y-106307000D01*
X88720966Y-106354619D01*
X88768585Y-106449857D01*
X88768585Y-106592714D01*
X88720966Y-106687952D01*
X88673347Y-106735571D01*
X88578109Y-106783190D01*
X88197157Y-106783190D01*
X89578109Y-107211761D02*
X89482871Y-107259380D01*
X89292395Y-107259380D01*
X89197157Y-107211761D01*
X89149538Y-107116523D01*
X89149538Y-106735571D01*
X89197157Y-106640333D01*
X89292395Y-106592714D01*
X89482871Y-106592714D01*
X89578109Y-106640333D01*
X89625728Y-106735571D01*
X89625728Y-106830809D01*
X89149538Y-106926047D01*
X89959061Y-106592714D02*
X90197157Y-107259380D01*
X90435252Y-106592714D01*
X90816204Y-107164142D02*
X90863823Y-107211761D01*
X90816204Y-107259380D01*
X90768585Y-107211761D01*
X90816204Y-107164142D01*
X90816204Y-107259380D01*
X92578109Y-107259380D02*
X92006680Y-107259380D01*
X92292395Y-107259380D02*
X92292395Y-106259380D01*
X92197157Y-106402238D01*
X92101919Y-106497476D01*
X92006680Y-106545095D01*
X93006680Y-107164142D02*
X93054300Y-107211761D01*
X93006680Y-107259380D01*
X92959061Y-107211761D01*
X93006680Y-107164142D01*
X93006680Y-107259380D01*
X93673347Y-106259380D02*
X93768585Y-106259380D01*
X93863823Y-106307000D01*
X93911442Y-106354619D01*
X93959061Y-106449857D01*
X94006680Y-106640333D01*
X94006680Y-106878428D01*
X93959061Y-107068904D01*
X93911442Y-107164142D01*
X93863823Y-107211761D01*
X93768585Y-107259380D01*
X93673347Y-107259380D01*
X93578109Y-107211761D01*
X93530490Y-107164142D01*
X93482871Y-107068904D01*
X93435252Y-106878428D01*
X93435252Y-106640333D01*
X93482871Y-106449857D01*
X93530490Y-106354619D01*
X93578109Y-106307000D01*
X93673347Y-106259380D01*
X94625728Y-106259380D02*
X94720966Y-106259380D01*
X94816204Y-106307000D01*
X94863823Y-106354619D01*
X94911442Y-106449857D01*
X94959061Y-106640333D01*
X94959061Y-106878428D01*
X94911442Y-107068904D01*
X94863823Y-107164142D01*
X94816204Y-107211761D01*
X94720966Y-107259380D01*
X94625728Y-107259380D01*
X94530490Y-107211761D01*
X94482871Y-107164142D01*
X94435252Y-107068904D01*
X94387633Y-106878428D01*
X94387633Y-106640333D01*
X94435252Y-106449857D01*
X94482871Y-106354619D01*
X94530490Y-106307000D01*
X94625728Y-106259380D01*
X88435823Y-103211261D02*
X88531061Y-103258880D01*
X88721538Y-103258880D01*
X88816776Y-103211261D01*
X88864395Y-103116023D01*
X88864395Y-103068404D01*
X88816776Y-102973166D01*
X88721538Y-102925547D01*
X88578680Y-102925547D01*
X88483442Y-102877928D01*
X88435823Y-102782690D01*
X88435823Y-102735071D01*
X88483442Y-102639833D01*
X88578680Y-102592214D01*
X88721538Y-102592214D01*
X88816776Y-102639833D01*
X89150109Y-102592214D02*
X89531061Y-102592214D01*
X89292966Y-102258880D02*
X89292966Y-103116023D01*
X89340585Y-103211261D01*
X89435823Y-103258880D01*
X89531061Y-103258880D01*
X89864395Y-103258880D02*
X89864395Y-102592214D01*
X89864395Y-102687452D02*
X89912014Y-102639833D01*
X90007252Y-102592214D01*
X90150109Y-102592214D01*
X90245347Y-102639833D01*
X90292966Y-102735071D01*
X90292966Y-103258880D01*
X90292966Y-102735071D02*
X90340585Y-102639833D01*
X90435823Y-102592214D01*
X90578680Y-102592214D01*
X90673919Y-102639833D01*
X90721538Y-102735071D01*
X90721538Y-103258880D01*
X91102490Y-102258880D02*
X91721538Y-102258880D01*
X91388204Y-102639833D01*
X91531061Y-102639833D01*
X91626300Y-102687452D01*
X91673919Y-102735071D01*
X91721538Y-102830309D01*
X91721538Y-103068404D01*
X91673919Y-103163642D01*
X91626300Y-103211261D01*
X91531061Y-103258880D01*
X91245347Y-103258880D01*
X91150109Y-103211261D01*
X91102490Y-103163642D01*
X92102490Y-102354119D02*
X92150109Y-102306500D01*
X92245347Y-102258880D01*
X92483442Y-102258880D01*
X92578680Y-102306500D01*
X92626300Y-102354119D01*
X92673919Y-102449357D01*
X92673919Y-102544595D01*
X92626300Y-102687452D01*
X92054871Y-103258880D01*
X92673919Y-103258880D01*
X92959633Y-102592214D02*
X93340585Y-102592214D01*
X93102490Y-103258880D02*
X93102490Y-102401738D01*
X93150109Y-102306500D01*
X93245347Y-102258880D01*
X93340585Y-102258880D01*
X94102490Y-102592214D02*
X94102490Y-103258880D01*
X93864395Y-102211261D02*
X93626300Y-102925547D01*
X94245347Y-102925547D01*
X95054871Y-102258880D02*
X94864395Y-102258880D01*
X94769157Y-102306500D01*
X94721538Y-102354119D01*
X94626300Y-102496976D01*
X94578680Y-102687452D01*
X94578680Y-103068404D01*
X94626300Y-103163642D01*
X94673919Y-103211261D01*
X94769157Y-103258880D01*
X94959633Y-103258880D01*
X95054871Y-103211261D01*
X95102490Y-103163642D01*
X95150109Y-103068404D01*
X95150109Y-102830309D01*
X95102490Y-102735071D01*
X95054871Y-102687452D01*
X94959633Y-102639833D01*
X94769157Y-102639833D01*
X94673919Y-102687452D01*
X94626300Y-102735071D01*
X94578680Y-102830309D01*
X95626300Y-103258880D02*
X95816776Y-103258880D01*
X95912014Y-103211261D01*
X95959633Y-103163642D01*
X96054871Y-103020785D01*
X96102490Y-102830309D01*
X96102490Y-102449357D01*
X96054871Y-102354119D01*
X96007252Y-102306500D01*
X95912014Y-102258880D01*
X95721538Y-102258880D01*
X95626300Y-102306500D01*
X95578680Y-102354119D01*
X95531061Y-102449357D01*
X95531061Y-102687452D01*
X95578680Y-102782690D01*
X95626300Y-102830309D01*
X95721538Y-102877928D01*
X95912014Y-102877928D01*
X96007252Y-102830309D01*
X96054871Y-102782690D01*
X96102490Y-102687452D01*
X97292966Y-103258880D02*
X97292966Y-102258880D01*
X97531061Y-102258880D01*
X97673919Y-102306500D01*
X97769157Y-102401738D01*
X97816776Y-102496976D01*
X97864395Y-102687452D01*
X97864395Y-102830309D01*
X97816776Y-103020785D01*
X97769157Y-103116023D01*
X97673919Y-103211261D01*
X97531061Y-103258880D01*
X97292966Y-103258880D01*
X98673919Y-103211261D02*
X98578680Y-103258880D01*
X98388204Y-103258880D01*
X98292966Y-103211261D01*
X98245347Y-103116023D01*
X98245347Y-102735071D01*
X98292966Y-102639833D01*
X98388204Y-102592214D01*
X98578680Y-102592214D01*
X98673919Y-102639833D01*
X98721538Y-102735071D01*
X98721538Y-102830309D01*
X98245347Y-102925547D01*
X99054871Y-102592214D02*
X99292966Y-103258880D01*
X99531061Y-102592214D01*
X100245347Y-102735071D02*
X100388204Y-102782690D01*
X100435823Y-102830309D01*
X100483442Y-102925547D01*
X100483442Y-103068404D01*
X100435823Y-103163642D01*
X100388204Y-103211261D01*
X100292966Y-103258880D01*
X99912014Y-103258880D01*
X99912014Y-102258880D01*
X100245347Y-102258880D01*
X100340585Y-102306500D01*
X100388204Y-102354119D01*
X100435823Y-102449357D01*
X100435823Y-102544595D01*
X100388204Y-102639833D01*
X100340585Y-102687452D01*
X100245347Y-102735071D01*
X99912014Y-102735071D01*
X101054871Y-103258880D02*
X100959633Y-103211261D01*
X100912014Y-103163642D01*
X100864395Y-103068404D01*
X100864395Y-102782690D01*
X100912014Y-102687452D01*
X100959633Y-102639833D01*
X101054871Y-102592214D01*
X101197728Y-102592214D01*
X101292966Y-102639833D01*
X101340585Y-102687452D01*
X101388204Y-102782690D01*
X101388204Y-103068404D01*
X101340585Y-103163642D01*
X101292966Y-103211261D01*
X101197728Y-103258880D01*
X101054871Y-103258880D01*
X102245347Y-103258880D02*
X102245347Y-102735071D01*
X102197728Y-102639833D01*
X102102490Y-102592214D01*
X101912014Y-102592214D01*
X101816776Y-102639833D01*
X102245347Y-103211261D02*
X102150109Y-103258880D01*
X101912014Y-103258880D01*
X101816776Y-103211261D01*
X101769157Y-103116023D01*
X101769157Y-103020785D01*
X101816776Y-102925547D01*
X101912014Y-102877928D01*
X102150109Y-102877928D01*
X102245347Y-102830309D01*
X102721538Y-103258880D02*
X102721538Y-102592214D01*
X102721538Y-102782690D02*
X102769157Y-102687452D01*
X102816776Y-102639833D01*
X102912014Y-102592214D01*
X103007252Y-102592214D01*
X103769157Y-103258880D02*
X103769157Y-102258880D01*
X103769157Y-103211261D02*
X103673919Y-103258880D01*
X103483442Y-103258880D01*
X103388204Y-103211261D01*
X103340585Y-103163642D01*
X103292966Y-103068404D01*
X103292966Y-102782690D01*
X103340585Y-102687452D01*
X103388204Y-102639833D01*
X103483442Y-102592214D01*
X103673919Y-102592214D01*
X103769157Y-102639833D01*
X89784180Y-53704976D02*
X88784180Y-53704976D01*
X88784180Y-53324023D01*
X88831800Y-53228785D01*
X88879419Y-53181166D01*
X88974657Y-53133547D01*
X89117514Y-53133547D01*
X89212752Y-53181166D01*
X89260371Y-53228785D01*
X89307990Y-53324023D01*
X89307990Y-53704976D01*
X89260371Y-52704976D02*
X89260371Y-52371642D01*
X89784180Y-52228785D02*
X89784180Y-52704976D01*
X88784180Y-52704976D01*
X88784180Y-52228785D01*
X89784180Y-51276404D02*
X89784180Y-51847833D01*
X89784180Y-51562119D02*
X88784180Y-51562119D01*
X88927038Y-51657357D01*
X89022276Y-51752595D01*
X89069895Y-51847833D01*
X92387680Y-53704976D02*
X91387680Y-53704976D01*
X91387680Y-53324023D01*
X91435300Y-53228785D01*
X91482919Y-53181166D01*
X91578157Y-53133547D01*
X91721014Y-53133547D01*
X91816252Y-53181166D01*
X91863871Y-53228785D01*
X91911490Y-53324023D01*
X91911490Y-53704976D01*
X91863871Y-52704976D02*
X91863871Y-52371642D01*
X92387680Y-52228785D02*
X92387680Y-52704976D01*
X91387680Y-52704976D01*
X91387680Y-52228785D01*
X91387680Y-51609738D02*
X91387680Y-51514500D01*
X91435300Y-51419261D01*
X91482919Y-51371642D01*
X91578157Y-51324023D01*
X91768633Y-51276404D01*
X92006728Y-51276404D01*
X92197204Y-51324023D01*
X92292442Y-51371642D01*
X92340061Y-51419261D01*
X92387680Y-51514500D01*
X92387680Y-51609738D01*
X92340061Y-51704976D01*
X92292442Y-51752595D01*
X92197204Y-51800214D01*
X92006728Y-51847833D01*
X91768633Y-51847833D01*
X91578157Y-51800214D01*
X91482919Y-51752595D01*
X91435300Y-51704976D01*
X91387680Y-51609738D01*
X94927680Y-53752595D02*
X93927680Y-53752595D01*
X93927680Y-53371642D01*
X93975300Y-53276404D01*
X94022919Y-53228785D01*
X94118157Y-53181166D01*
X94261014Y-53181166D01*
X94356252Y-53228785D01*
X94403871Y-53276404D01*
X94451490Y-53371642D01*
X94451490Y-53752595D01*
X94403871Y-52419261D02*
X94451490Y-52276404D01*
X94499109Y-52228785D01*
X94594347Y-52181166D01*
X94737204Y-52181166D01*
X94832442Y-52228785D01*
X94880061Y-52276404D01*
X94927680Y-52371642D01*
X94927680Y-52752595D01*
X93927680Y-52752595D01*
X93927680Y-52419261D01*
X93975300Y-52324023D01*
X94022919Y-52276404D01*
X94118157Y-52228785D01*
X94213395Y-52228785D01*
X94308633Y-52276404D01*
X94356252Y-52324023D01*
X94403871Y-52419261D01*
X94403871Y-52752595D01*
X94927680Y-51704976D02*
X94927680Y-51514500D01*
X94880061Y-51419261D01*
X94832442Y-51371642D01*
X94689585Y-51276404D01*
X94499109Y-51228785D01*
X94118157Y-51228785D01*
X94022919Y-51276404D01*
X93975300Y-51324023D01*
X93927680Y-51419261D01*
X93927680Y-51609738D01*
X93975300Y-51704976D01*
X94022919Y-51752595D01*
X94118157Y-51800214D01*
X94356252Y-51800214D01*
X94451490Y-51752595D01*
X94499109Y-51704976D01*
X94546728Y-51609738D01*
X94546728Y-51419261D01*
X94499109Y-51324023D01*
X94451490Y-51276404D01*
X94356252Y-51228785D01*
X97531180Y-53752595D02*
X96531180Y-53752595D01*
X96531180Y-53371642D01*
X96578800Y-53276404D01*
X96626419Y-53228785D01*
X96721657Y-53181166D01*
X96864514Y-53181166D01*
X96959752Y-53228785D01*
X97007371Y-53276404D01*
X97054990Y-53371642D01*
X97054990Y-53752595D01*
X97007371Y-52419261D02*
X97054990Y-52276404D01*
X97102609Y-52228785D01*
X97197847Y-52181166D01*
X97340704Y-52181166D01*
X97435942Y-52228785D01*
X97483561Y-52276404D01*
X97531180Y-52371642D01*
X97531180Y-52752595D01*
X96531180Y-52752595D01*
X96531180Y-52419261D01*
X96578800Y-52324023D01*
X96626419Y-52276404D01*
X96721657Y-52228785D01*
X96816895Y-52228785D01*
X96912133Y-52276404D01*
X96959752Y-52324023D01*
X97007371Y-52419261D01*
X97007371Y-52752595D01*
X96959752Y-51609738D02*
X96912133Y-51704976D01*
X96864514Y-51752595D01*
X96769276Y-51800214D01*
X96721657Y-51800214D01*
X96626419Y-51752595D01*
X96578800Y-51704976D01*
X96531180Y-51609738D01*
X96531180Y-51419261D01*
X96578800Y-51324023D01*
X96626419Y-51276404D01*
X96721657Y-51228785D01*
X96769276Y-51228785D01*
X96864514Y-51276404D01*
X96912133Y-51324023D01*
X96959752Y-51419261D01*
X96959752Y-51609738D01*
X97007371Y-51704976D01*
X97054990Y-51752595D01*
X97150228Y-51800214D01*
X97340704Y-51800214D01*
X97435942Y-51752595D01*
X97483561Y-51704976D01*
X97531180Y-51609738D01*
X97531180Y-51419261D01*
X97483561Y-51324023D01*
X97435942Y-51276404D01*
X97340704Y-51228785D01*
X97150228Y-51228785D01*
X97054990Y-51276404D01*
X97007371Y-51324023D01*
X96959752Y-51419261D01*
X100071180Y-53752595D02*
X99071180Y-53752595D01*
X99071180Y-53371642D01*
X99118800Y-53276404D01*
X99166419Y-53228785D01*
X99261657Y-53181166D01*
X99404514Y-53181166D01*
X99499752Y-53228785D01*
X99547371Y-53276404D01*
X99594990Y-53371642D01*
X99594990Y-53752595D01*
X99547371Y-52419261D02*
X99594990Y-52276404D01*
X99642609Y-52228785D01*
X99737847Y-52181166D01*
X99880704Y-52181166D01*
X99975942Y-52228785D01*
X100023561Y-52276404D01*
X100071180Y-52371642D01*
X100071180Y-52752595D01*
X99071180Y-52752595D01*
X99071180Y-52419261D01*
X99118800Y-52324023D01*
X99166419Y-52276404D01*
X99261657Y-52228785D01*
X99356895Y-52228785D01*
X99452133Y-52276404D01*
X99499752Y-52324023D01*
X99547371Y-52419261D01*
X99547371Y-52752595D01*
X99071180Y-51847833D02*
X99071180Y-51181166D01*
X100071180Y-51609738D01*
X102674680Y-53752595D02*
X101674680Y-53752595D01*
X101674680Y-53371642D01*
X101722300Y-53276404D01*
X101769919Y-53228785D01*
X101865157Y-53181166D01*
X102008014Y-53181166D01*
X102103252Y-53228785D01*
X102150871Y-53276404D01*
X102198490Y-53371642D01*
X102198490Y-53752595D01*
X102150871Y-52419261D02*
X102198490Y-52276404D01*
X102246109Y-52228785D01*
X102341347Y-52181166D01*
X102484204Y-52181166D01*
X102579442Y-52228785D01*
X102627061Y-52276404D01*
X102674680Y-52371642D01*
X102674680Y-52752595D01*
X101674680Y-52752595D01*
X101674680Y-52419261D01*
X101722300Y-52324023D01*
X101769919Y-52276404D01*
X101865157Y-52228785D01*
X101960395Y-52228785D01*
X102055633Y-52276404D01*
X102103252Y-52324023D01*
X102150871Y-52419261D01*
X102150871Y-52752595D01*
X101674680Y-51324023D02*
X101674680Y-51514500D01*
X101722300Y-51609738D01*
X101769919Y-51657357D01*
X101912776Y-51752595D01*
X102103252Y-51800214D01*
X102484204Y-51800214D01*
X102579442Y-51752595D01*
X102627061Y-51704976D01*
X102674680Y-51609738D01*
X102674680Y-51419261D01*
X102627061Y-51324023D01*
X102579442Y-51276404D01*
X102484204Y-51228785D01*
X102246109Y-51228785D01*
X102150871Y-51276404D01*
X102103252Y-51324023D01*
X102055633Y-51419261D01*
X102055633Y-51609738D01*
X102103252Y-51704976D01*
X102150871Y-51752595D01*
X102246109Y-51800214D01*
X105087680Y-53752595D02*
X104087680Y-53752595D01*
X104087680Y-53371642D01*
X104135300Y-53276404D01*
X104182919Y-53228785D01*
X104278157Y-53181166D01*
X104421014Y-53181166D01*
X104516252Y-53228785D01*
X104563871Y-53276404D01*
X104611490Y-53371642D01*
X104611490Y-53752595D01*
X104563871Y-52419261D02*
X104611490Y-52276404D01*
X104659109Y-52228785D01*
X104754347Y-52181166D01*
X104897204Y-52181166D01*
X104992442Y-52228785D01*
X105040061Y-52276404D01*
X105087680Y-52371642D01*
X105087680Y-52752595D01*
X104087680Y-52752595D01*
X104087680Y-52419261D01*
X104135300Y-52324023D01*
X104182919Y-52276404D01*
X104278157Y-52228785D01*
X104373395Y-52228785D01*
X104468633Y-52276404D01*
X104516252Y-52324023D01*
X104563871Y-52419261D01*
X104563871Y-52752595D01*
X104087680Y-51276404D02*
X104087680Y-51752595D01*
X104563871Y-51800214D01*
X104516252Y-51752595D01*
X104468633Y-51657357D01*
X104468633Y-51419261D01*
X104516252Y-51324023D01*
X104563871Y-51276404D01*
X104659109Y-51228785D01*
X104897204Y-51228785D01*
X104992442Y-51276404D01*
X105040061Y-51324023D01*
X105087680Y-51419261D01*
X105087680Y-51657357D01*
X105040061Y-51752595D01*
X104992442Y-51800214D01*
X107627680Y-53752595D02*
X106627680Y-53752595D01*
X106627680Y-53371642D01*
X106675300Y-53276404D01*
X106722919Y-53228785D01*
X106818157Y-53181166D01*
X106961014Y-53181166D01*
X107056252Y-53228785D01*
X107103871Y-53276404D01*
X107151490Y-53371642D01*
X107151490Y-53752595D01*
X107103871Y-52419261D02*
X107151490Y-52276404D01*
X107199109Y-52228785D01*
X107294347Y-52181166D01*
X107437204Y-52181166D01*
X107532442Y-52228785D01*
X107580061Y-52276404D01*
X107627680Y-52371642D01*
X107627680Y-52752595D01*
X106627680Y-52752595D01*
X106627680Y-52419261D01*
X106675300Y-52324023D01*
X106722919Y-52276404D01*
X106818157Y-52228785D01*
X106913395Y-52228785D01*
X107008633Y-52276404D01*
X107056252Y-52324023D01*
X107103871Y-52419261D01*
X107103871Y-52752595D01*
X106961014Y-51324023D02*
X107627680Y-51324023D01*
X106580061Y-51562119D02*
X107294347Y-51800214D01*
X107294347Y-51181166D01*
X110167680Y-53752595D02*
X109167680Y-53752595D01*
X109167680Y-53371642D01*
X109215300Y-53276404D01*
X109262919Y-53228785D01*
X109358157Y-53181166D01*
X109501014Y-53181166D01*
X109596252Y-53228785D01*
X109643871Y-53276404D01*
X109691490Y-53371642D01*
X109691490Y-53752595D01*
X109643871Y-52419261D02*
X109691490Y-52276404D01*
X109739109Y-52228785D01*
X109834347Y-52181166D01*
X109977204Y-52181166D01*
X110072442Y-52228785D01*
X110120061Y-52276404D01*
X110167680Y-52371642D01*
X110167680Y-52752595D01*
X109167680Y-52752595D01*
X109167680Y-52419261D01*
X109215300Y-52324023D01*
X109262919Y-52276404D01*
X109358157Y-52228785D01*
X109453395Y-52228785D01*
X109548633Y-52276404D01*
X109596252Y-52324023D01*
X109643871Y-52419261D01*
X109643871Y-52752595D01*
X109167680Y-51847833D02*
X109167680Y-51228785D01*
X109548633Y-51562119D01*
X109548633Y-51419261D01*
X109596252Y-51324023D01*
X109643871Y-51276404D01*
X109739109Y-51228785D01*
X109977204Y-51228785D01*
X110072442Y-51276404D01*
X110120061Y-51324023D01*
X110167680Y-51419261D01*
X110167680Y-51704976D01*
X110120061Y-51800214D01*
X110072442Y-51847833D01*
X112707680Y-54673285D02*
X111707680Y-54673285D01*
X111707680Y-54292333D01*
X111755300Y-54197095D01*
X111802919Y-54149476D01*
X111898157Y-54101857D01*
X112041014Y-54101857D01*
X112136252Y-54149476D01*
X112183871Y-54197095D01*
X112231490Y-54292333D01*
X112231490Y-54673285D01*
X111755300Y-53149476D02*
X111707680Y-53244714D01*
X111707680Y-53387571D01*
X111755300Y-53530428D01*
X111850538Y-53625666D01*
X111945776Y-53673285D01*
X112136252Y-53720904D01*
X112279109Y-53720904D01*
X112469585Y-53673285D01*
X112564823Y-53625666D01*
X112660061Y-53530428D01*
X112707680Y-53387571D01*
X112707680Y-53292333D01*
X112660061Y-53149476D01*
X112612442Y-53101857D01*
X112279109Y-53101857D01*
X112279109Y-53292333D01*
X112707680Y-52149476D02*
X112707680Y-52720904D01*
X112707680Y-52435190D02*
X111707680Y-52435190D01*
X111850538Y-52530428D01*
X111945776Y-52625666D01*
X111993395Y-52720904D01*
X111707680Y-51244714D02*
X111707680Y-51720904D01*
X112183871Y-51768523D01*
X112136252Y-51720904D01*
X112088633Y-51625666D01*
X112088633Y-51387571D01*
X112136252Y-51292333D01*
X112183871Y-51244714D01*
X112279109Y-51197095D01*
X112517204Y-51197095D01*
X112612442Y-51244714D01*
X112660061Y-51292333D01*
X112707680Y-51387571D01*
X112707680Y-51625666D01*
X112660061Y-51720904D01*
X112612442Y-51768523D01*
X115184180Y-54673285D02*
X114184180Y-54673285D01*
X114184180Y-54292333D01*
X114231800Y-54197095D01*
X114279419Y-54149476D01*
X114374657Y-54101857D01*
X114517514Y-54101857D01*
X114612752Y-54149476D01*
X114660371Y-54197095D01*
X114707990Y-54292333D01*
X114707990Y-54673285D01*
X114231800Y-53149476D02*
X114184180Y-53244714D01*
X114184180Y-53387571D01*
X114231800Y-53530428D01*
X114327038Y-53625666D01*
X114422276Y-53673285D01*
X114612752Y-53720904D01*
X114755609Y-53720904D01*
X114946085Y-53673285D01*
X115041323Y-53625666D01*
X115136561Y-53530428D01*
X115184180Y-53387571D01*
X115184180Y-53292333D01*
X115136561Y-53149476D01*
X115088942Y-53101857D01*
X114755609Y-53101857D01*
X114755609Y-53292333D01*
X115184180Y-52149476D02*
X115184180Y-52720904D01*
X115184180Y-52435190D02*
X114184180Y-52435190D01*
X114327038Y-52530428D01*
X114422276Y-52625666D01*
X114469895Y-52720904D01*
X114517514Y-51292333D02*
X115184180Y-51292333D01*
X114136561Y-51530428D02*
X114850847Y-51768523D01*
X114850847Y-51149476D01*
X117724180Y-54673285D02*
X116724180Y-54673285D01*
X116724180Y-54292333D01*
X116771800Y-54197095D01*
X116819419Y-54149476D01*
X116914657Y-54101857D01*
X117057514Y-54101857D01*
X117152752Y-54149476D01*
X117200371Y-54197095D01*
X117247990Y-54292333D01*
X117247990Y-54673285D01*
X116771800Y-53149476D02*
X116724180Y-53244714D01*
X116724180Y-53387571D01*
X116771800Y-53530428D01*
X116867038Y-53625666D01*
X116962276Y-53673285D01*
X117152752Y-53720904D01*
X117295609Y-53720904D01*
X117486085Y-53673285D01*
X117581323Y-53625666D01*
X117676561Y-53530428D01*
X117724180Y-53387571D01*
X117724180Y-53292333D01*
X117676561Y-53149476D01*
X117628942Y-53101857D01*
X117295609Y-53101857D01*
X117295609Y-53292333D01*
X117724180Y-52149476D02*
X117724180Y-52720904D01*
X117724180Y-52435190D02*
X116724180Y-52435190D01*
X116867038Y-52530428D01*
X116962276Y-52625666D01*
X117009895Y-52720904D01*
X116724180Y-51816142D02*
X116724180Y-51197095D01*
X117105133Y-51530428D01*
X117105133Y-51387571D01*
X117152752Y-51292333D01*
X117200371Y-51244714D01*
X117295609Y-51197095D01*
X117533704Y-51197095D01*
X117628942Y-51244714D01*
X117676561Y-51292333D01*
X117724180Y-51387571D01*
X117724180Y-51673285D01*
X117676561Y-51768523D01*
X117628942Y-51816142D01*
X120200680Y-54673285D02*
X119200680Y-54673285D01*
X119200680Y-54292333D01*
X119248300Y-54197095D01*
X119295919Y-54149476D01*
X119391157Y-54101857D01*
X119534014Y-54101857D01*
X119629252Y-54149476D01*
X119676871Y-54197095D01*
X119724490Y-54292333D01*
X119724490Y-54673285D01*
X119248300Y-53149476D02*
X119200680Y-53244714D01*
X119200680Y-53387571D01*
X119248300Y-53530428D01*
X119343538Y-53625666D01*
X119438776Y-53673285D01*
X119629252Y-53720904D01*
X119772109Y-53720904D01*
X119962585Y-53673285D01*
X120057823Y-53625666D01*
X120153061Y-53530428D01*
X120200680Y-53387571D01*
X120200680Y-53292333D01*
X120153061Y-53149476D01*
X120105442Y-53101857D01*
X119772109Y-53101857D01*
X119772109Y-53292333D01*
X120200680Y-52149476D02*
X120200680Y-52720904D01*
X120200680Y-52435190D02*
X119200680Y-52435190D01*
X119343538Y-52530428D01*
X119438776Y-52625666D01*
X119486395Y-52720904D01*
X119295919Y-51768523D02*
X119248300Y-51720904D01*
X119200680Y-51625666D01*
X119200680Y-51387571D01*
X119248300Y-51292333D01*
X119295919Y-51244714D01*
X119391157Y-51197095D01*
X119486395Y-51197095D01*
X119629252Y-51244714D01*
X120200680Y-51816142D01*
X120200680Y-51197095D01*
X122867680Y-54673285D02*
X121867680Y-54673285D01*
X121867680Y-54292333D01*
X121915300Y-54197095D01*
X121962919Y-54149476D01*
X122058157Y-54101857D01*
X122201014Y-54101857D01*
X122296252Y-54149476D01*
X122343871Y-54197095D01*
X122391490Y-54292333D01*
X122391490Y-54673285D01*
X121915300Y-53149476D02*
X121867680Y-53244714D01*
X121867680Y-53387571D01*
X121915300Y-53530428D01*
X122010538Y-53625666D01*
X122105776Y-53673285D01*
X122296252Y-53720904D01*
X122439109Y-53720904D01*
X122629585Y-53673285D01*
X122724823Y-53625666D01*
X122820061Y-53530428D01*
X122867680Y-53387571D01*
X122867680Y-53292333D01*
X122820061Y-53149476D01*
X122772442Y-53101857D01*
X122439109Y-53101857D01*
X122439109Y-53292333D01*
X122867680Y-52149476D02*
X122867680Y-52720904D01*
X122867680Y-52435190D02*
X121867680Y-52435190D01*
X122010538Y-52530428D01*
X122105776Y-52625666D01*
X122153395Y-52720904D01*
X122867680Y-51197095D02*
X122867680Y-51768523D01*
X122867680Y-51482809D02*
X121867680Y-51482809D01*
X122010538Y-51578047D01*
X122105776Y-51673285D01*
X122153395Y-51768523D01*
X125344180Y-54673285D02*
X124344180Y-54673285D01*
X124344180Y-54292333D01*
X124391800Y-54197095D01*
X124439419Y-54149476D01*
X124534657Y-54101857D01*
X124677514Y-54101857D01*
X124772752Y-54149476D01*
X124820371Y-54197095D01*
X124867990Y-54292333D01*
X124867990Y-54673285D01*
X124391800Y-53149476D02*
X124344180Y-53244714D01*
X124344180Y-53387571D01*
X124391800Y-53530428D01*
X124487038Y-53625666D01*
X124582276Y-53673285D01*
X124772752Y-53720904D01*
X124915609Y-53720904D01*
X125106085Y-53673285D01*
X125201323Y-53625666D01*
X125296561Y-53530428D01*
X125344180Y-53387571D01*
X125344180Y-53292333D01*
X125296561Y-53149476D01*
X125248942Y-53101857D01*
X124915609Y-53101857D01*
X124915609Y-53292333D01*
X125344180Y-52149476D02*
X125344180Y-52720904D01*
X125344180Y-52435190D02*
X124344180Y-52435190D01*
X124487038Y-52530428D01*
X124582276Y-52625666D01*
X124629895Y-52720904D01*
X124344180Y-51530428D02*
X124344180Y-51435190D01*
X124391800Y-51339952D01*
X124439419Y-51292333D01*
X124534657Y-51244714D01*
X124725133Y-51197095D01*
X124963228Y-51197095D01*
X125153704Y-51244714D01*
X125248942Y-51292333D01*
X125296561Y-51339952D01*
X125344180Y-51435190D01*
X125344180Y-51530428D01*
X125296561Y-51625666D01*
X125248942Y-51673285D01*
X125153704Y-51720904D01*
X124963228Y-51768523D01*
X124725133Y-51768523D01*
X124534657Y-51720904D01*
X124439419Y-51673285D01*
X124391800Y-51625666D01*
X124344180Y-51530428D01*
X127884180Y-53752595D02*
X126884180Y-53752595D01*
X126884180Y-53371642D01*
X126931800Y-53276404D01*
X126979419Y-53228785D01*
X127074657Y-53181166D01*
X127217514Y-53181166D01*
X127312752Y-53228785D01*
X127360371Y-53276404D01*
X127407990Y-53371642D01*
X127407990Y-53752595D01*
X126931800Y-52228785D02*
X126884180Y-52324023D01*
X126884180Y-52466880D01*
X126931800Y-52609738D01*
X127027038Y-52704976D01*
X127122276Y-52752595D01*
X127312752Y-52800214D01*
X127455609Y-52800214D01*
X127646085Y-52752595D01*
X127741323Y-52704976D01*
X127836561Y-52609738D01*
X127884180Y-52466880D01*
X127884180Y-52371642D01*
X127836561Y-52228785D01*
X127788942Y-52181166D01*
X127455609Y-52181166D01*
X127455609Y-52371642D01*
X127884180Y-51704976D02*
X127884180Y-51514500D01*
X127836561Y-51419261D01*
X127788942Y-51371642D01*
X127646085Y-51276404D01*
X127455609Y-51228785D01*
X127074657Y-51228785D01*
X126979419Y-51276404D01*
X126931800Y-51324023D01*
X126884180Y-51419261D01*
X126884180Y-51609738D01*
X126931800Y-51704976D01*
X126979419Y-51752595D01*
X127074657Y-51800214D01*
X127312752Y-51800214D01*
X127407990Y-51752595D01*
X127455609Y-51704976D01*
X127503228Y-51609738D01*
X127503228Y-51419261D01*
X127455609Y-51324023D01*
X127407990Y-51276404D01*
X127312752Y-51228785D01*
X130487680Y-53752595D02*
X129487680Y-53752595D01*
X129487680Y-53371642D01*
X129535300Y-53276404D01*
X129582919Y-53228785D01*
X129678157Y-53181166D01*
X129821014Y-53181166D01*
X129916252Y-53228785D01*
X129963871Y-53276404D01*
X130011490Y-53371642D01*
X130011490Y-53752595D01*
X130487680Y-52752595D02*
X129487680Y-52752595D01*
X129487680Y-52514500D01*
X129535300Y-52371642D01*
X129630538Y-52276404D01*
X129725776Y-52228785D01*
X129916252Y-52181166D01*
X130059109Y-52181166D01*
X130249585Y-52228785D01*
X130344823Y-52276404D01*
X130440061Y-52371642D01*
X130487680Y-52514500D01*
X130487680Y-52752595D01*
X129487680Y-51847833D02*
X129487680Y-51181166D01*
X130487680Y-51609738D01*
X132964180Y-53752595D02*
X131964180Y-53752595D01*
X131964180Y-53371642D01*
X132011800Y-53276404D01*
X132059419Y-53228785D01*
X132154657Y-53181166D01*
X132297514Y-53181166D01*
X132392752Y-53228785D01*
X132440371Y-53276404D01*
X132487990Y-53371642D01*
X132487990Y-53752595D01*
X132964180Y-52752595D02*
X131964180Y-52752595D01*
X131964180Y-52514500D01*
X132011800Y-52371642D01*
X132107038Y-52276404D01*
X132202276Y-52228785D01*
X132392752Y-52181166D01*
X132535609Y-52181166D01*
X132726085Y-52228785D01*
X132821323Y-52276404D01*
X132916561Y-52371642D01*
X132964180Y-52514500D01*
X132964180Y-52752595D01*
X131964180Y-51324023D02*
X131964180Y-51514500D01*
X132011800Y-51609738D01*
X132059419Y-51657357D01*
X132202276Y-51752595D01*
X132392752Y-51800214D01*
X132773704Y-51800214D01*
X132868942Y-51752595D01*
X132916561Y-51704976D01*
X132964180Y-51609738D01*
X132964180Y-51419261D01*
X132916561Y-51324023D01*
X132868942Y-51276404D01*
X132773704Y-51228785D01*
X132535609Y-51228785D01*
X132440371Y-51276404D01*
X132392752Y-51324023D01*
X132345133Y-51419261D01*
X132345133Y-51609738D01*
X132392752Y-51704976D01*
X132440371Y-51752595D01*
X132535609Y-51800214D01*
X135504180Y-53752595D02*
X134504180Y-53752595D01*
X134504180Y-53371642D01*
X134551800Y-53276404D01*
X134599419Y-53228785D01*
X134694657Y-53181166D01*
X134837514Y-53181166D01*
X134932752Y-53228785D01*
X134980371Y-53276404D01*
X135027990Y-53371642D01*
X135027990Y-53752595D01*
X135504180Y-52752595D02*
X134504180Y-52752595D01*
X134504180Y-52514500D01*
X134551800Y-52371642D01*
X134647038Y-52276404D01*
X134742276Y-52228785D01*
X134932752Y-52181166D01*
X135075609Y-52181166D01*
X135266085Y-52228785D01*
X135361323Y-52276404D01*
X135456561Y-52371642D01*
X135504180Y-52514500D01*
X135504180Y-52752595D01*
X134504180Y-51276404D02*
X134504180Y-51752595D01*
X134980371Y-51800214D01*
X134932752Y-51752595D01*
X134885133Y-51657357D01*
X134885133Y-51419261D01*
X134932752Y-51324023D01*
X134980371Y-51276404D01*
X135075609Y-51228785D01*
X135313704Y-51228785D01*
X135408942Y-51276404D01*
X135456561Y-51324023D01*
X135504180Y-51419261D01*
X135504180Y-51657357D01*
X135456561Y-51752595D01*
X135408942Y-51800214D01*
X138107680Y-53752595D02*
X137107680Y-53752595D01*
X137107680Y-53371642D01*
X137155300Y-53276404D01*
X137202919Y-53228785D01*
X137298157Y-53181166D01*
X137441014Y-53181166D01*
X137536252Y-53228785D01*
X137583871Y-53276404D01*
X137631490Y-53371642D01*
X137631490Y-53752595D01*
X138107680Y-52752595D02*
X137107680Y-52752595D01*
X137107680Y-52514500D01*
X137155300Y-52371642D01*
X137250538Y-52276404D01*
X137345776Y-52228785D01*
X137536252Y-52181166D01*
X137679109Y-52181166D01*
X137869585Y-52228785D01*
X137964823Y-52276404D01*
X138060061Y-52371642D01*
X138107680Y-52514500D01*
X138107680Y-52752595D01*
X137441014Y-51324023D02*
X138107680Y-51324023D01*
X137060061Y-51562119D02*
X137774347Y-51800214D01*
X137774347Y-51181166D01*
X140520680Y-53752595D02*
X139520680Y-53752595D01*
X139520680Y-53371642D01*
X139568300Y-53276404D01*
X139615919Y-53228785D01*
X139711157Y-53181166D01*
X139854014Y-53181166D01*
X139949252Y-53228785D01*
X139996871Y-53276404D01*
X140044490Y-53371642D01*
X140044490Y-53752595D01*
X140520680Y-52752595D02*
X139520680Y-52752595D01*
X139520680Y-52514500D01*
X139568300Y-52371642D01*
X139663538Y-52276404D01*
X139758776Y-52228785D01*
X139949252Y-52181166D01*
X140092109Y-52181166D01*
X140282585Y-52228785D01*
X140377823Y-52276404D01*
X140473061Y-52371642D01*
X140520680Y-52514500D01*
X140520680Y-52752595D01*
X139520680Y-51847833D02*
X139520680Y-51228785D01*
X139901633Y-51562119D01*
X139901633Y-51419261D01*
X139949252Y-51324023D01*
X139996871Y-51276404D01*
X140092109Y-51228785D01*
X140330204Y-51228785D01*
X140425442Y-51276404D01*
X140473061Y-51324023D01*
X140520680Y-51419261D01*
X140520680Y-51704976D01*
X140473061Y-51800214D01*
X140425442Y-51847833D01*
X142997180Y-53752595D02*
X141997180Y-53752595D01*
X141997180Y-53371642D01*
X142044800Y-53276404D01*
X142092419Y-53228785D01*
X142187657Y-53181166D01*
X142330514Y-53181166D01*
X142425752Y-53228785D01*
X142473371Y-53276404D01*
X142520990Y-53371642D01*
X142520990Y-53752595D01*
X142997180Y-52752595D02*
X141997180Y-52752595D01*
X141997180Y-52514500D01*
X142044800Y-52371642D01*
X142140038Y-52276404D01*
X142235276Y-52228785D01*
X142425752Y-52181166D01*
X142568609Y-52181166D01*
X142759085Y-52228785D01*
X142854323Y-52276404D01*
X142949561Y-52371642D01*
X142997180Y-52514500D01*
X142997180Y-52752595D01*
X142092419Y-51800214D02*
X142044800Y-51752595D01*
X141997180Y-51657357D01*
X141997180Y-51419261D01*
X142044800Y-51324023D01*
X142092419Y-51276404D01*
X142187657Y-51228785D01*
X142282895Y-51228785D01*
X142425752Y-51276404D01*
X142997180Y-51847833D01*
X142997180Y-51228785D01*
X145727680Y-53752595D02*
X144727680Y-53752595D01*
X144727680Y-53371642D01*
X144775300Y-53276404D01*
X144822919Y-53228785D01*
X144918157Y-53181166D01*
X145061014Y-53181166D01*
X145156252Y-53228785D01*
X145203871Y-53276404D01*
X145251490Y-53371642D01*
X145251490Y-53752595D01*
X145727680Y-52752595D02*
X144727680Y-52752595D01*
X144727680Y-52514500D01*
X144775300Y-52371642D01*
X144870538Y-52276404D01*
X144965776Y-52228785D01*
X145156252Y-52181166D01*
X145299109Y-52181166D01*
X145489585Y-52228785D01*
X145584823Y-52276404D01*
X145680061Y-52371642D01*
X145727680Y-52514500D01*
X145727680Y-52752595D01*
X145727680Y-51228785D02*
X145727680Y-51800214D01*
X145727680Y-51514500D02*
X144727680Y-51514500D01*
X144870538Y-51609738D01*
X144965776Y-51704976D01*
X145013395Y-51800214D01*
X148204180Y-53752595D02*
X147204180Y-53752595D01*
X147204180Y-53371642D01*
X147251800Y-53276404D01*
X147299419Y-53228785D01*
X147394657Y-53181166D01*
X147537514Y-53181166D01*
X147632752Y-53228785D01*
X147680371Y-53276404D01*
X147727990Y-53371642D01*
X147727990Y-53752595D01*
X148204180Y-52752595D02*
X147204180Y-52752595D01*
X147204180Y-52514500D01*
X147251800Y-52371642D01*
X147347038Y-52276404D01*
X147442276Y-52228785D01*
X147632752Y-52181166D01*
X147775609Y-52181166D01*
X147966085Y-52228785D01*
X148061323Y-52276404D01*
X148156561Y-52371642D01*
X148204180Y-52514500D01*
X148204180Y-52752595D01*
X147204180Y-51562119D02*
X147204180Y-51466880D01*
X147251800Y-51371642D01*
X147299419Y-51324023D01*
X147394657Y-51276404D01*
X147585133Y-51228785D01*
X147823228Y-51228785D01*
X148013704Y-51276404D01*
X148108942Y-51324023D01*
X148156561Y-51371642D01*
X148204180Y-51466880D01*
X148204180Y-51562119D01*
X148156561Y-51657357D01*
X148108942Y-51704976D01*
X148013704Y-51752595D01*
X147823228Y-51800214D01*
X147585133Y-51800214D01*
X147394657Y-51752595D01*
X147299419Y-51704976D01*
X147251800Y-51657357D01*
X147204180Y-51562119D01*
X150744180Y-54736785D02*
X149744180Y-54736785D01*
X149744180Y-54355833D01*
X149791800Y-54260595D01*
X149839419Y-54212976D01*
X149934657Y-54165357D01*
X150077514Y-54165357D01*
X150172752Y-54212976D01*
X150220371Y-54260595D01*
X150267990Y-54355833D01*
X150267990Y-54736785D01*
X150648942Y-53165357D02*
X150696561Y-53212976D01*
X150744180Y-53355833D01*
X150744180Y-53451071D01*
X150696561Y-53593928D01*
X150601323Y-53689166D01*
X150506085Y-53736785D01*
X150315609Y-53784404D01*
X150172752Y-53784404D01*
X149982276Y-53736785D01*
X149887038Y-53689166D01*
X149791800Y-53593928D01*
X149744180Y-53451071D01*
X149744180Y-53355833D01*
X149791800Y-53212976D01*
X149839419Y-53165357D01*
X150744180Y-52212976D02*
X150744180Y-52784404D01*
X150744180Y-52498690D02*
X149744180Y-52498690D01*
X149887038Y-52593928D01*
X149982276Y-52689166D01*
X150029895Y-52784404D01*
X149839419Y-51832023D02*
X149791800Y-51784404D01*
X149744180Y-51689166D01*
X149744180Y-51451071D01*
X149791800Y-51355833D01*
X149839419Y-51308214D01*
X149934657Y-51260595D01*
X150029895Y-51260595D01*
X150172752Y-51308214D01*
X150744180Y-51879642D01*
X150744180Y-51260595D01*
X153284180Y-54736785D02*
X152284180Y-54736785D01*
X152284180Y-54355833D01*
X152331800Y-54260595D01*
X152379419Y-54212976D01*
X152474657Y-54165357D01*
X152617514Y-54165357D01*
X152712752Y-54212976D01*
X152760371Y-54260595D01*
X152807990Y-54355833D01*
X152807990Y-54736785D01*
X153188942Y-53165357D02*
X153236561Y-53212976D01*
X153284180Y-53355833D01*
X153284180Y-53451071D01*
X153236561Y-53593928D01*
X153141323Y-53689166D01*
X153046085Y-53736785D01*
X152855609Y-53784404D01*
X152712752Y-53784404D01*
X152522276Y-53736785D01*
X152427038Y-53689166D01*
X152331800Y-53593928D01*
X152284180Y-53451071D01*
X152284180Y-53355833D01*
X152331800Y-53212976D01*
X152379419Y-53165357D01*
X153284180Y-52212976D02*
X153284180Y-52784404D01*
X153284180Y-52498690D02*
X152284180Y-52498690D01*
X152427038Y-52593928D01*
X152522276Y-52689166D01*
X152569895Y-52784404D01*
X153284180Y-51260595D02*
X153284180Y-51832023D01*
X153284180Y-51546309D02*
X152284180Y-51546309D01*
X152427038Y-51641547D01*
X152522276Y-51736785D01*
X152569895Y-51832023D01*
X155887680Y-54736785D02*
X154887680Y-54736785D01*
X154887680Y-54355833D01*
X154935300Y-54260595D01*
X154982919Y-54212976D01*
X155078157Y-54165357D01*
X155221014Y-54165357D01*
X155316252Y-54212976D01*
X155363871Y-54260595D01*
X155411490Y-54355833D01*
X155411490Y-54736785D01*
X155792442Y-53165357D02*
X155840061Y-53212976D01*
X155887680Y-53355833D01*
X155887680Y-53451071D01*
X155840061Y-53593928D01*
X155744823Y-53689166D01*
X155649585Y-53736785D01*
X155459109Y-53784404D01*
X155316252Y-53784404D01*
X155125776Y-53736785D01*
X155030538Y-53689166D01*
X154935300Y-53593928D01*
X154887680Y-53451071D01*
X154887680Y-53355833D01*
X154935300Y-53212976D01*
X154982919Y-53165357D01*
X155887680Y-52212976D02*
X155887680Y-52784404D01*
X155887680Y-52498690D02*
X154887680Y-52498690D01*
X155030538Y-52593928D01*
X155125776Y-52689166D01*
X155173395Y-52784404D01*
X154887680Y-51593928D02*
X154887680Y-51498690D01*
X154935300Y-51403452D01*
X154982919Y-51355833D01*
X155078157Y-51308214D01*
X155268633Y-51260595D01*
X155506728Y-51260595D01*
X155697204Y-51308214D01*
X155792442Y-51355833D01*
X155840061Y-51403452D01*
X155887680Y-51498690D01*
X155887680Y-51593928D01*
X155840061Y-51689166D01*
X155792442Y-51736785D01*
X155697204Y-51784404D01*
X155506728Y-51832023D01*
X155268633Y-51832023D01*
X155078157Y-51784404D01*
X154982919Y-51736785D01*
X154935300Y-51689166D01*
X154887680Y-51593928D01*
X158427680Y-54665357D02*
X157427680Y-54665357D01*
X157427680Y-54284404D01*
X157475300Y-54189166D01*
X157522919Y-54141547D01*
X157618157Y-54093928D01*
X157761014Y-54093928D01*
X157856252Y-54141547D01*
X157903871Y-54189166D01*
X157951490Y-54284404D01*
X157951490Y-54665357D01*
X158141966Y-53712976D02*
X158141966Y-53236785D01*
X158427680Y-53808214D02*
X157427680Y-53474880D01*
X158427680Y-53141547D01*
X158427680Y-52284404D02*
X158427680Y-52855833D01*
X158427680Y-52570119D02*
X157427680Y-52570119D01*
X157570538Y-52665357D01*
X157665776Y-52760595D01*
X157713395Y-52855833D01*
X157427680Y-51379642D02*
X157427680Y-51855833D01*
X157903871Y-51903452D01*
X157856252Y-51855833D01*
X157808633Y-51760595D01*
X157808633Y-51522500D01*
X157856252Y-51427261D01*
X157903871Y-51379642D01*
X157999109Y-51332023D01*
X158237204Y-51332023D01*
X158332442Y-51379642D01*
X158380061Y-51427261D01*
X158427680Y-51522500D01*
X158427680Y-51760595D01*
X158380061Y-51855833D01*
X158332442Y-51903452D01*
X161031180Y-54665357D02*
X160031180Y-54665357D01*
X160031180Y-54284404D01*
X160078800Y-54189166D01*
X160126419Y-54141547D01*
X160221657Y-54093928D01*
X160364514Y-54093928D01*
X160459752Y-54141547D01*
X160507371Y-54189166D01*
X160554990Y-54284404D01*
X160554990Y-54665357D01*
X160745466Y-53712976D02*
X160745466Y-53236785D01*
X161031180Y-53808214D02*
X160031180Y-53474880D01*
X161031180Y-53141547D01*
X161031180Y-52284404D02*
X161031180Y-52855833D01*
X161031180Y-52570119D02*
X160031180Y-52570119D01*
X160174038Y-52665357D01*
X160269276Y-52760595D01*
X160316895Y-52855833D01*
X160364514Y-51427261D02*
X161031180Y-51427261D01*
X159983561Y-51665357D02*
X160697847Y-51903452D01*
X160697847Y-51284404D01*
X163380680Y-53300190D02*
X162380680Y-53300190D01*
X162380680Y-52919238D01*
X162428300Y-52824000D01*
X162475919Y-52776380D01*
X162571157Y-52728761D01*
X162714014Y-52728761D01*
X162809252Y-52776380D01*
X162856871Y-52824000D01*
X162904490Y-52919238D01*
X162904490Y-53300190D01*
X163380680Y-52300190D02*
X162380680Y-52300190D01*
X162380680Y-51919238D02*
X162380680Y-51300190D01*
X162761633Y-51633523D01*
X162761633Y-51490666D01*
X162809252Y-51395428D01*
X162856871Y-51347809D01*
X162952109Y-51300190D01*
X163190204Y-51300190D01*
X163285442Y-51347809D01*
X163333061Y-51395428D01*
X163380680Y-51490666D01*
X163380680Y-51776380D01*
X163333061Y-51871619D01*
X163285442Y-51919238D01*
X167159109Y-49918880D02*
X167159109Y-48918880D01*
X167540061Y-48918880D01*
X167635300Y-48966500D01*
X167682919Y-49014119D01*
X167730538Y-49109357D01*
X167730538Y-49252214D01*
X167682919Y-49347452D01*
X167635300Y-49395071D01*
X167540061Y-49442690D01*
X167159109Y-49442690D01*
X168159109Y-49918880D02*
X168159109Y-48918880D01*
X169159109Y-49918880D02*
X168587680Y-49918880D01*
X168873395Y-49918880D02*
X168873395Y-48918880D01*
X168778157Y-49061738D01*
X168682919Y-49156976D01*
X168587680Y-49204595D01*
X167095609Y-53665380D02*
X167095609Y-52665380D01*
X167476561Y-52665380D01*
X167571800Y-52713000D01*
X167619419Y-52760619D01*
X167667038Y-52855857D01*
X167667038Y-52998714D01*
X167619419Y-53093952D01*
X167571800Y-53141571D01*
X167476561Y-53189190D01*
X167095609Y-53189190D01*
X168095609Y-53665380D02*
X168095609Y-52665380D01*
X168762276Y-52665380D02*
X168857514Y-52665380D01*
X168952752Y-52713000D01*
X169000371Y-52760619D01*
X169047990Y-52855857D01*
X169095609Y-53046333D01*
X169095609Y-53284428D01*
X169047990Y-53474904D01*
X169000371Y-53570142D01*
X168952752Y-53617761D01*
X168857514Y-53665380D01*
X168762276Y-53665380D01*
X168667038Y-53617761D01*
X168619419Y-53570142D01*
X168571800Y-53474904D01*
X168524180Y-53284428D01*
X168524180Y-53046333D01*
X168571800Y-52855857D01*
X168619419Y-52760619D01*
X168667038Y-52713000D01*
X168762276Y-52665380D01*
X167127442Y-56268880D02*
X167127442Y-55268880D01*
X167508395Y-55268880D01*
X167603633Y-55316500D01*
X167651252Y-55364119D01*
X167698871Y-55459357D01*
X167698871Y-55602214D01*
X167651252Y-55697452D01*
X167603633Y-55745071D01*
X167508395Y-55792690D01*
X167127442Y-55792690D01*
X168079823Y-55983166D02*
X168556014Y-55983166D01*
X167984585Y-56268880D02*
X168317919Y-55268880D01*
X168651252Y-56268880D01*
X169508395Y-56268880D02*
X168936966Y-56268880D01*
X169222680Y-56268880D02*
X169222680Y-55268880D01*
X169127442Y-55411738D01*
X169032204Y-55506976D01*
X168936966Y-55554595D01*
X169889347Y-55364119D02*
X169936966Y-55316500D01*
X170032204Y-55268880D01*
X170270300Y-55268880D01*
X170365538Y-55316500D01*
X170413157Y-55364119D01*
X170460776Y-55459357D01*
X170460776Y-55554595D01*
X170413157Y-55697452D01*
X169841728Y-56268880D01*
X170460776Y-56268880D01*
X167127442Y-58808880D02*
X167127442Y-57808880D01*
X167508395Y-57808880D01*
X167603633Y-57856500D01*
X167651252Y-57904119D01*
X167698871Y-57999357D01*
X167698871Y-58142214D01*
X167651252Y-58237452D01*
X167603633Y-58285071D01*
X167508395Y-58332690D01*
X167127442Y-58332690D01*
X168079823Y-58523166D02*
X168556014Y-58523166D01*
X167984585Y-58808880D02*
X168317919Y-57808880D01*
X168651252Y-58808880D01*
X169508395Y-58808880D02*
X168936966Y-58808880D01*
X169222680Y-58808880D02*
X169222680Y-57808880D01*
X169127442Y-57951738D01*
X169032204Y-58046976D01*
X168936966Y-58094595D01*
X170460776Y-58808880D02*
X169889347Y-58808880D01*
X170175061Y-58808880D02*
X170175061Y-57808880D01*
X170079823Y-57951738D01*
X169984585Y-58046976D01*
X169889347Y-58094595D01*
X167127442Y-61348880D02*
X167127442Y-60348880D01*
X167508395Y-60348880D01*
X167603633Y-60396500D01*
X167651252Y-60444119D01*
X167698871Y-60539357D01*
X167698871Y-60682214D01*
X167651252Y-60777452D01*
X167603633Y-60825071D01*
X167508395Y-60872690D01*
X167127442Y-60872690D01*
X168079823Y-61063166D02*
X168556014Y-61063166D01*
X167984585Y-61348880D02*
X168317919Y-60348880D01*
X168651252Y-61348880D01*
X169508395Y-61348880D02*
X168936966Y-61348880D01*
X169222680Y-61348880D02*
X169222680Y-60348880D01*
X169127442Y-60491738D01*
X169032204Y-60586976D01*
X168936966Y-60634595D01*
X170127442Y-60348880D02*
X170222680Y-60348880D01*
X170317919Y-60396500D01*
X170365538Y-60444119D01*
X170413157Y-60539357D01*
X170460776Y-60729833D01*
X170460776Y-60967928D01*
X170413157Y-61158404D01*
X170365538Y-61253642D01*
X170317919Y-61301261D01*
X170222680Y-61348880D01*
X170127442Y-61348880D01*
X170032204Y-61301261D01*
X169984585Y-61253642D01*
X169936966Y-61158404D01*
X169889347Y-60967928D01*
X169889347Y-60729833D01*
X169936966Y-60539357D01*
X169984585Y-60444119D01*
X170032204Y-60396500D01*
X170127442Y-60348880D01*
X167095633Y-63888880D02*
X167095633Y-62888880D01*
X167476585Y-62888880D01*
X167571823Y-62936500D01*
X167619442Y-62984119D01*
X167667061Y-63079357D01*
X167667061Y-63222214D01*
X167619442Y-63317452D01*
X167571823Y-63365071D01*
X167476585Y-63412690D01*
X167095633Y-63412690D01*
X168048014Y-63603166D02*
X168524204Y-63603166D01*
X167952776Y-63888880D02*
X168286109Y-62888880D01*
X168619442Y-63888880D01*
X169000395Y-63888880D02*
X169190871Y-63888880D01*
X169286109Y-63841261D01*
X169333728Y-63793642D01*
X169428966Y-63650785D01*
X169476585Y-63460309D01*
X169476585Y-63079357D01*
X169428966Y-62984119D01*
X169381347Y-62936500D01*
X169286109Y-62888880D01*
X169095633Y-62888880D01*
X169000395Y-62936500D01*
X168952776Y-62984119D01*
X168905157Y-63079357D01*
X168905157Y-63317452D01*
X168952776Y-63412690D01*
X169000395Y-63460309D01*
X169095633Y-63507928D01*
X169286109Y-63507928D01*
X169381347Y-63460309D01*
X169428966Y-63412690D01*
X169476585Y-63317452D01*
X167095633Y-66428880D02*
X167095633Y-65428880D01*
X167476585Y-65428880D01*
X167571823Y-65476500D01*
X167619442Y-65524119D01*
X167667061Y-65619357D01*
X167667061Y-65762214D01*
X167619442Y-65857452D01*
X167571823Y-65905071D01*
X167476585Y-65952690D01*
X167095633Y-65952690D01*
X168048014Y-66143166D02*
X168524204Y-66143166D01*
X167952776Y-66428880D02*
X168286109Y-65428880D01*
X168619442Y-66428880D01*
X169095633Y-65857452D02*
X169000395Y-65809833D01*
X168952776Y-65762214D01*
X168905157Y-65666976D01*
X168905157Y-65619357D01*
X168952776Y-65524119D01*
X169000395Y-65476500D01*
X169095633Y-65428880D01*
X169286109Y-65428880D01*
X169381347Y-65476500D01*
X169428966Y-65524119D01*
X169476585Y-65619357D01*
X169476585Y-65666976D01*
X169428966Y-65762214D01*
X169381347Y-65809833D01*
X169286109Y-65857452D01*
X169095633Y-65857452D01*
X169000395Y-65905071D01*
X168952776Y-65952690D01*
X168905157Y-66047928D01*
X168905157Y-66238404D01*
X168952776Y-66333642D01*
X169000395Y-66381261D01*
X169095633Y-66428880D01*
X169286109Y-66428880D01*
X169381347Y-66381261D01*
X169428966Y-66333642D01*
X169476585Y-66238404D01*
X169476585Y-66047928D01*
X169428966Y-65952690D01*
X169381347Y-65905071D01*
X169286109Y-65857452D01*
X167087704Y-69032380D02*
X167087704Y-68032380D01*
X167468657Y-68032380D01*
X167563895Y-68080000D01*
X167611514Y-68127619D01*
X167659133Y-68222857D01*
X167659133Y-68365714D01*
X167611514Y-68460952D01*
X167563895Y-68508571D01*
X167468657Y-68556190D01*
X167087704Y-68556190D01*
X168659133Y-68937142D02*
X168611514Y-68984761D01*
X168468657Y-69032380D01*
X168373419Y-69032380D01*
X168230561Y-68984761D01*
X168135323Y-68889523D01*
X168087704Y-68794285D01*
X168040085Y-68603809D01*
X168040085Y-68460952D01*
X168087704Y-68270476D01*
X168135323Y-68175238D01*
X168230561Y-68080000D01*
X168373419Y-68032380D01*
X168468657Y-68032380D01*
X168611514Y-68080000D01*
X168659133Y-68127619D01*
X168992466Y-68032380D02*
X169659133Y-68032380D01*
X169230561Y-69032380D01*
X167151204Y-71445380D02*
X167151204Y-70445380D01*
X167532157Y-70445380D01*
X167627395Y-70493000D01*
X167675014Y-70540619D01*
X167722633Y-70635857D01*
X167722633Y-70778714D01*
X167675014Y-70873952D01*
X167627395Y-70921571D01*
X167532157Y-70969190D01*
X167151204Y-70969190D01*
X168722633Y-71350142D02*
X168675014Y-71397761D01*
X168532157Y-71445380D01*
X168436919Y-71445380D01*
X168294061Y-71397761D01*
X168198823Y-71302523D01*
X168151204Y-71207285D01*
X168103585Y-71016809D01*
X168103585Y-70873952D01*
X168151204Y-70683476D01*
X168198823Y-70588238D01*
X168294061Y-70493000D01*
X168436919Y-70445380D01*
X168532157Y-70445380D01*
X168675014Y-70493000D01*
X168722633Y-70540619D01*
X169579776Y-70445380D02*
X169389300Y-70445380D01*
X169294061Y-70493000D01*
X169246442Y-70540619D01*
X169151204Y-70683476D01*
X169103585Y-70873952D01*
X169103585Y-71254904D01*
X169151204Y-71350142D01*
X169198823Y-71397761D01*
X169294061Y-71445380D01*
X169484538Y-71445380D01*
X169579776Y-71397761D01*
X169627395Y-71350142D01*
X169675014Y-71254904D01*
X169675014Y-71016809D01*
X169627395Y-70921571D01*
X169579776Y-70873952D01*
X169484538Y-70826333D01*
X169294061Y-70826333D01*
X169198823Y-70873952D01*
X169151204Y-70921571D01*
X169103585Y-71016809D01*
X167151204Y-74112380D02*
X167151204Y-73112380D01*
X167532157Y-73112380D01*
X167627395Y-73160000D01*
X167675014Y-73207619D01*
X167722633Y-73302857D01*
X167722633Y-73445714D01*
X167675014Y-73540952D01*
X167627395Y-73588571D01*
X167532157Y-73636190D01*
X167151204Y-73636190D01*
X168675014Y-73160000D02*
X168579776Y-73112380D01*
X168436919Y-73112380D01*
X168294061Y-73160000D01*
X168198823Y-73255238D01*
X168151204Y-73350476D01*
X168103585Y-73540952D01*
X168103585Y-73683809D01*
X168151204Y-73874285D01*
X168198823Y-73969523D01*
X168294061Y-74064761D01*
X168436919Y-74112380D01*
X168532157Y-74112380D01*
X168675014Y-74064761D01*
X168722633Y-74017142D01*
X168722633Y-73683809D01*
X168532157Y-73683809D01*
X169294061Y-73540952D02*
X169198823Y-73493333D01*
X169151204Y-73445714D01*
X169103585Y-73350476D01*
X169103585Y-73302857D01*
X169151204Y-73207619D01*
X169198823Y-73160000D01*
X169294061Y-73112380D01*
X169484538Y-73112380D01*
X169579776Y-73160000D01*
X169627395Y-73207619D01*
X169675014Y-73302857D01*
X169675014Y-73350476D01*
X169627395Y-73445714D01*
X169579776Y-73493333D01*
X169484538Y-73540952D01*
X169294061Y-73540952D01*
X169198823Y-73588571D01*
X169151204Y-73636190D01*
X169103585Y-73731428D01*
X169103585Y-73921904D01*
X169151204Y-74017142D01*
X169198823Y-74064761D01*
X169294061Y-74112380D01*
X169484538Y-74112380D01*
X169579776Y-74064761D01*
X169627395Y-74017142D01*
X169675014Y-73921904D01*
X169675014Y-73731428D01*
X169627395Y-73636190D01*
X169579776Y-73588571D01*
X169484538Y-73540952D01*
X167087704Y-76588880D02*
X167087704Y-75588880D01*
X167468657Y-75588880D01*
X167563895Y-75636500D01*
X167611514Y-75684119D01*
X167659133Y-75779357D01*
X167659133Y-75922214D01*
X167611514Y-76017452D01*
X167563895Y-76065071D01*
X167468657Y-76112690D01*
X167087704Y-76112690D01*
X168611514Y-75636500D02*
X168516276Y-75588880D01*
X168373419Y-75588880D01*
X168230561Y-75636500D01*
X168135323Y-75731738D01*
X168087704Y-75826976D01*
X168040085Y-76017452D01*
X168040085Y-76160309D01*
X168087704Y-76350785D01*
X168135323Y-76446023D01*
X168230561Y-76541261D01*
X168373419Y-76588880D01*
X168468657Y-76588880D01*
X168611514Y-76541261D01*
X168659133Y-76493642D01*
X168659133Y-76160309D01*
X168468657Y-76160309D01*
X168992466Y-75588880D02*
X169659133Y-75588880D01*
X169230561Y-76588880D01*
X167087704Y-79128880D02*
X167087704Y-78128880D01*
X167468657Y-78128880D01*
X167563895Y-78176500D01*
X167611514Y-78224119D01*
X167659133Y-78319357D01*
X167659133Y-78462214D01*
X167611514Y-78557452D01*
X167563895Y-78605071D01*
X167468657Y-78652690D01*
X167087704Y-78652690D01*
X168611514Y-78176500D02*
X168516276Y-78128880D01*
X168373419Y-78128880D01*
X168230561Y-78176500D01*
X168135323Y-78271738D01*
X168087704Y-78366976D01*
X168040085Y-78557452D01*
X168040085Y-78700309D01*
X168087704Y-78890785D01*
X168135323Y-78986023D01*
X168230561Y-79081261D01*
X168373419Y-79128880D01*
X168468657Y-79128880D01*
X168611514Y-79081261D01*
X168659133Y-79033642D01*
X168659133Y-78700309D01*
X168468657Y-78700309D01*
X169516276Y-78128880D02*
X169325800Y-78128880D01*
X169230561Y-78176500D01*
X169182942Y-78224119D01*
X169087704Y-78366976D01*
X169040085Y-78557452D01*
X169040085Y-78938404D01*
X169087704Y-79033642D01*
X169135323Y-79081261D01*
X169230561Y-79128880D01*
X169421038Y-79128880D01*
X169516276Y-79081261D01*
X169563895Y-79033642D01*
X169611514Y-78938404D01*
X169611514Y-78700309D01*
X169563895Y-78605071D01*
X169516276Y-78557452D01*
X169421038Y-78509833D01*
X169230561Y-78509833D01*
X169135323Y-78557452D01*
X169087704Y-78605071D01*
X169040085Y-78700309D01*
X167087704Y-81668880D02*
X167087704Y-80668880D01*
X167468657Y-80668880D01*
X167563895Y-80716500D01*
X167611514Y-80764119D01*
X167659133Y-80859357D01*
X167659133Y-81002214D01*
X167611514Y-81097452D01*
X167563895Y-81145071D01*
X167468657Y-81192690D01*
X167087704Y-81192690D01*
X168611514Y-80716500D02*
X168516276Y-80668880D01*
X168373419Y-80668880D01*
X168230561Y-80716500D01*
X168135323Y-80811738D01*
X168087704Y-80906976D01*
X168040085Y-81097452D01*
X168040085Y-81240309D01*
X168087704Y-81430785D01*
X168135323Y-81526023D01*
X168230561Y-81621261D01*
X168373419Y-81668880D01*
X168468657Y-81668880D01*
X168611514Y-81621261D01*
X168659133Y-81573642D01*
X168659133Y-81240309D01*
X168468657Y-81240309D01*
X169563895Y-80668880D02*
X169087704Y-80668880D01*
X169040085Y-81145071D01*
X169087704Y-81097452D01*
X169182942Y-81049833D01*
X169421038Y-81049833D01*
X169516276Y-81097452D01*
X169563895Y-81145071D01*
X169611514Y-81240309D01*
X169611514Y-81478404D01*
X169563895Y-81573642D01*
X169516276Y-81621261D01*
X169421038Y-81668880D01*
X169182942Y-81668880D01*
X169087704Y-81621261D01*
X169040085Y-81573642D01*
X167087704Y-84145380D02*
X167087704Y-83145380D01*
X167468657Y-83145380D01*
X167563895Y-83193000D01*
X167611514Y-83240619D01*
X167659133Y-83335857D01*
X167659133Y-83478714D01*
X167611514Y-83573952D01*
X167563895Y-83621571D01*
X167468657Y-83669190D01*
X167087704Y-83669190D01*
X168611514Y-83193000D02*
X168516276Y-83145380D01*
X168373419Y-83145380D01*
X168230561Y-83193000D01*
X168135323Y-83288238D01*
X168087704Y-83383476D01*
X168040085Y-83573952D01*
X168040085Y-83716809D01*
X168087704Y-83907285D01*
X168135323Y-84002523D01*
X168230561Y-84097761D01*
X168373419Y-84145380D01*
X168468657Y-84145380D01*
X168611514Y-84097761D01*
X168659133Y-84050142D01*
X168659133Y-83716809D01*
X168468657Y-83716809D01*
X169516276Y-83478714D02*
X169516276Y-84145380D01*
X169278180Y-83097761D02*
X169040085Y-83812047D01*
X169659133Y-83812047D01*
X167087704Y-86685380D02*
X167087704Y-85685380D01*
X167468657Y-85685380D01*
X167563895Y-85733000D01*
X167611514Y-85780619D01*
X167659133Y-85875857D01*
X167659133Y-86018714D01*
X167611514Y-86113952D01*
X167563895Y-86161571D01*
X167468657Y-86209190D01*
X167087704Y-86209190D01*
X168611514Y-85733000D02*
X168516276Y-85685380D01*
X168373419Y-85685380D01*
X168230561Y-85733000D01*
X168135323Y-85828238D01*
X168087704Y-85923476D01*
X168040085Y-86113952D01*
X168040085Y-86256809D01*
X168087704Y-86447285D01*
X168135323Y-86542523D01*
X168230561Y-86637761D01*
X168373419Y-86685380D01*
X168468657Y-86685380D01*
X168611514Y-86637761D01*
X168659133Y-86590142D01*
X168659133Y-86256809D01*
X168468657Y-86256809D01*
X168992466Y-85685380D02*
X169611514Y-85685380D01*
X169278180Y-86066333D01*
X169421038Y-86066333D01*
X169516276Y-86113952D01*
X169563895Y-86161571D01*
X169611514Y-86256809D01*
X169611514Y-86494904D01*
X169563895Y-86590142D01*
X169516276Y-86637761D01*
X169421038Y-86685380D01*
X169135323Y-86685380D01*
X169040085Y-86637761D01*
X168992466Y-86590142D01*
X167087704Y-89288880D02*
X167087704Y-88288880D01*
X167468657Y-88288880D01*
X167563895Y-88336500D01*
X167611514Y-88384119D01*
X167659133Y-88479357D01*
X167659133Y-88622214D01*
X167611514Y-88717452D01*
X167563895Y-88765071D01*
X167468657Y-88812690D01*
X167087704Y-88812690D01*
X168611514Y-88336500D02*
X168516276Y-88288880D01*
X168373419Y-88288880D01*
X168230561Y-88336500D01*
X168135323Y-88431738D01*
X168087704Y-88526976D01*
X168040085Y-88717452D01*
X168040085Y-88860309D01*
X168087704Y-89050785D01*
X168135323Y-89146023D01*
X168230561Y-89241261D01*
X168373419Y-89288880D01*
X168468657Y-89288880D01*
X168611514Y-89241261D01*
X168659133Y-89193642D01*
X168659133Y-88860309D01*
X168468657Y-88860309D01*
X169040085Y-88384119D02*
X169087704Y-88336500D01*
X169182942Y-88288880D01*
X169421038Y-88288880D01*
X169516276Y-88336500D01*
X169563895Y-88384119D01*
X169611514Y-88479357D01*
X169611514Y-88574595D01*
X169563895Y-88717452D01*
X168992466Y-89288880D01*
X169611514Y-89288880D01*
X167119514Y-91765380D02*
X167119514Y-90765380D01*
X167500466Y-90765380D01*
X167595704Y-90813000D01*
X167643323Y-90860619D01*
X167690942Y-90955857D01*
X167690942Y-91098714D01*
X167643323Y-91193952D01*
X167595704Y-91241571D01*
X167500466Y-91289190D01*
X167119514Y-91289190D01*
X168119514Y-91765380D02*
X168119514Y-90765380D01*
X168357609Y-90765380D01*
X168500466Y-90813000D01*
X168595704Y-90908238D01*
X168643323Y-91003476D01*
X168690942Y-91193952D01*
X168690942Y-91336809D01*
X168643323Y-91527285D01*
X168595704Y-91622523D01*
X168500466Y-91717761D01*
X168357609Y-91765380D01*
X168119514Y-91765380D01*
X169643323Y-91765380D02*
X169071895Y-91765380D01*
X169357609Y-91765380D02*
X169357609Y-90765380D01*
X169262371Y-90908238D01*
X169167133Y-91003476D01*
X169071895Y-91051095D01*
X170548085Y-90765380D02*
X170071895Y-90765380D01*
X170024276Y-91241571D01*
X170071895Y-91193952D01*
X170167133Y-91146333D01*
X170405228Y-91146333D01*
X170500466Y-91193952D01*
X170548085Y-91241571D01*
X170595704Y-91336809D01*
X170595704Y-91574904D01*
X170548085Y-91670142D01*
X170500466Y-91717761D01*
X170405228Y-91765380D01*
X170167133Y-91765380D01*
X170071895Y-91717761D01*
X170024276Y-91670142D01*
X167119514Y-94368880D02*
X167119514Y-93368880D01*
X167500466Y-93368880D01*
X167595704Y-93416500D01*
X167643323Y-93464119D01*
X167690942Y-93559357D01*
X167690942Y-93702214D01*
X167643323Y-93797452D01*
X167595704Y-93845071D01*
X167500466Y-93892690D01*
X167119514Y-93892690D01*
X168119514Y-94368880D02*
X168119514Y-93368880D01*
X168357609Y-93368880D01*
X168500466Y-93416500D01*
X168595704Y-93511738D01*
X168643323Y-93606976D01*
X168690942Y-93797452D01*
X168690942Y-93940309D01*
X168643323Y-94130785D01*
X168595704Y-94226023D01*
X168500466Y-94321261D01*
X168357609Y-94368880D01*
X168119514Y-94368880D01*
X169643323Y-94368880D02*
X169071895Y-94368880D01*
X169357609Y-94368880D02*
X169357609Y-93368880D01*
X169262371Y-93511738D01*
X169167133Y-93606976D01*
X169071895Y-93654595D01*
X170500466Y-93702214D02*
X170500466Y-94368880D01*
X170262371Y-93321261D02*
X170024276Y-94035547D01*
X170643323Y-94035547D01*
X167119514Y-96908880D02*
X167119514Y-95908880D01*
X167500466Y-95908880D01*
X167595704Y-95956500D01*
X167643323Y-96004119D01*
X167690942Y-96099357D01*
X167690942Y-96242214D01*
X167643323Y-96337452D01*
X167595704Y-96385071D01*
X167500466Y-96432690D01*
X167119514Y-96432690D01*
X168119514Y-96908880D02*
X168119514Y-95908880D01*
X168357609Y-95908880D01*
X168500466Y-95956500D01*
X168595704Y-96051738D01*
X168643323Y-96146976D01*
X168690942Y-96337452D01*
X168690942Y-96480309D01*
X168643323Y-96670785D01*
X168595704Y-96766023D01*
X168500466Y-96861261D01*
X168357609Y-96908880D01*
X168119514Y-96908880D01*
X169643323Y-96908880D02*
X169071895Y-96908880D01*
X169357609Y-96908880D02*
X169357609Y-95908880D01*
X169262371Y-96051738D01*
X169167133Y-96146976D01*
X169071895Y-96194595D01*
X169976657Y-95908880D02*
X170595704Y-95908880D01*
X170262371Y-96289833D01*
X170405228Y-96289833D01*
X170500466Y-96337452D01*
X170548085Y-96385071D01*
X170595704Y-96480309D01*
X170595704Y-96718404D01*
X170548085Y-96813642D01*
X170500466Y-96861261D01*
X170405228Y-96908880D01*
X170119514Y-96908880D01*
X170024276Y-96861261D01*
X169976657Y-96813642D01*
X167119514Y-99321880D02*
X167119514Y-98321880D01*
X167500466Y-98321880D01*
X167595704Y-98369500D01*
X167643323Y-98417119D01*
X167690942Y-98512357D01*
X167690942Y-98655214D01*
X167643323Y-98750452D01*
X167595704Y-98798071D01*
X167500466Y-98845690D01*
X167119514Y-98845690D01*
X168119514Y-99321880D02*
X168119514Y-98321880D01*
X168357609Y-98321880D01*
X168500466Y-98369500D01*
X168595704Y-98464738D01*
X168643323Y-98559976D01*
X168690942Y-98750452D01*
X168690942Y-98893309D01*
X168643323Y-99083785D01*
X168595704Y-99179023D01*
X168500466Y-99274261D01*
X168357609Y-99321880D01*
X168119514Y-99321880D01*
X169643323Y-99321880D02*
X169071895Y-99321880D01*
X169357609Y-99321880D02*
X169357609Y-98321880D01*
X169262371Y-98464738D01*
X169167133Y-98559976D01*
X169071895Y-98607595D01*
X170024276Y-98417119D02*
X170071895Y-98369500D01*
X170167133Y-98321880D01*
X170405228Y-98321880D01*
X170500466Y-98369500D01*
X170548085Y-98417119D01*
X170595704Y-98512357D01*
X170595704Y-98607595D01*
X170548085Y-98750452D01*
X169976657Y-99321880D01*
X170595704Y-99321880D01*
X167119514Y-101988880D02*
X167119514Y-100988880D01*
X167500466Y-100988880D01*
X167595704Y-101036500D01*
X167643323Y-101084119D01*
X167690942Y-101179357D01*
X167690942Y-101322214D01*
X167643323Y-101417452D01*
X167595704Y-101465071D01*
X167500466Y-101512690D01*
X167119514Y-101512690D01*
X168119514Y-101988880D02*
X168119514Y-100988880D01*
X168357609Y-100988880D01*
X168500466Y-101036500D01*
X168595704Y-101131738D01*
X168643323Y-101226976D01*
X168690942Y-101417452D01*
X168690942Y-101560309D01*
X168643323Y-101750785D01*
X168595704Y-101846023D01*
X168500466Y-101941261D01*
X168357609Y-101988880D01*
X168119514Y-101988880D01*
X169643323Y-101988880D02*
X169071895Y-101988880D01*
X169357609Y-101988880D02*
X169357609Y-100988880D01*
X169262371Y-101131738D01*
X169167133Y-101226976D01*
X169071895Y-101274595D01*
X170595704Y-101988880D02*
X170024276Y-101988880D01*
X170309990Y-101988880D02*
X170309990Y-100988880D01*
X170214752Y-101131738D01*
X170119514Y-101226976D01*
X170024276Y-101274595D01*
X167119514Y-104528880D02*
X167119514Y-103528880D01*
X167500466Y-103528880D01*
X167595704Y-103576500D01*
X167643323Y-103624119D01*
X167690942Y-103719357D01*
X167690942Y-103862214D01*
X167643323Y-103957452D01*
X167595704Y-104005071D01*
X167500466Y-104052690D01*
X167119514Y-104052690D01*
X168119514Y-104528880D02*
X168119514Y-103528880D01*
X168357609Y-103528880D01*
X168500466Y-103576500D01*
X168595704Y-103671738D01*
X168643323Y-103766976D01*
X168690942Y-103957452D01*
X168690942Y-104100309D01*
X168643323Y-104290785D01*
X168595704Y-104386023D01*
X168500466Y-104481261D01*
X168357609Y-104528880D01*
X168119514Y-104528880D01*
X169643323Y-104528880D02*
X169071895Y-104528880D01*
X169357609Y-104528880D02*
X169357609Y-103528880D01*
X169262371Y-103671738D01*
X169167133Y-103766976D01*
X169071895Y-103814595D01*
X170262371Y-103528880D02*
X170357609Y-103528880D01*
X170452847Y-103576500D01*
X170500466Y-103624119D01*
X170548085Y-103719357D01*
X170595704Y-103909833D01*
X170595704Y-104147928D01*
X170548085Y-104338404D01*
X170500466Y-104433642D01*
X170452847Y-104481261D01*
X170357609Y-104528880D01*
X170262371Y-104528880D01*
X170167133Y-104481261D01*
X170119514Y-104433642D01*
X170071895Y-104338404D01*
X170024276Y-104147928D01*
X170024276Y-103909833D01*
X170071895Y-103719357D01*
X170119514Y-103624119D01*
X170167133Y-103576500D01*
X170262371Y-103528880D01*
X167151204Y-107068880D02*
X167151204Y-106068880D01*
X167532157Y-106068880D01*
X167627395Y-106116500D01*
X167675014Y-106164119D01*
X167722633Y-106259357D01*
X167722633Y-106402214D01*
X167675014Y-106497452D01*
X167627395Y-106545071D01*
X167532157Y-106592690D01*
X167151204Y-106592690D01*
X168151204Y-107068880D02*
X168151204Y-106068880D01*
X168389300Y-106068880D01*
X168532157Y-106116500D01*
X168627395Y-106211738D01*
X168675014Y-106306976D01*
X168722633Y-106497452D01*
X168722633Y-106640309D01*
X168675014Y-106830785D01*
X168627395Y-106926023D01*
X168532157Y-107021261D01*
X168389300Y-107068880D01*
X168151204Y-107068880D01*
X169198823Y-107068880D02*
X169389300Y-107068880D01*
X169484538Y-107021261D01*
X169532157Y-106973642D01*
X169627395Y-106830785D01*
X169675014Y-106640309D01*
X169675014Y-106259357D01*
X169627395Y-106164119D01*
X169579776Y-106116500D01*
X169484538Y-106068880D01*
X169294061Y-106068880D01*
X169198823Y-106116500D01*
X169151204Y-106164119D01*
X169103585Y-106259357D01*
X169103585Y-106497452D01*
X169151204Y-106592690D01*
X169198823Y-106640309D01*
X169294061Y-106687928D01*
X169484538Y-106687928D01*
X169579776Y-106640309D01*
X169627395Y-106592690D01*
X169675014Y-106497452D01*
X167151204Y-109608880D02*
X167151204Y-108608880D01*
X167532157Y-108608880D01*
X167627395Y-108656500D01*
X167675014Y-108704119D01*
X167722633Y-108799357D01*
X167722633Y-108942214D01*
X167675014Y-109037452D01*
X167627395Y-109085071D01*
X167532157Y-109132690D01*
X167151204Y-109132690D01*
X168151204Y-109608880D02*
X168151204Y-108608880D01*
X168389300Y-108608880D01*
X168532157Y-108656500D01*
X168627395Y-108751738D01*
X168675014Y-108846976D01*
X168722633Y-109037452D01*
X168722633Y-109180309D01*
X168675014Y-109370785D01*
X168627395Y-109466023D01*
X168532157Y-109561261D01*
X168389300Y-109608880D01*
X168151204Y-109608880D01*
X169294061Y-109037452D02*
X169198823Y-108989833D01*
X169151204Y-108942214D01*
X169103585Y-108846976D01*
X169103585Y-108799357D01*
X169151204Y-108704119D01*
X169198823Y-108656500D01*
X169294061Y-108608880D01*
X169484538Y-108608880D01*
X169579776Y-108656500D01*
X169627395Y-108704119D01*
X169675014Y-108799357D01*
X169675014Y-108846976D01*
X169627395Y-108942214D01*
X169579776Y-108989833D01*
X169484538Y-109037452D01*
X169294061Y-109037452D01*
X169198823Y-109085071D01*
X169151204Y-109132690D01*
X169103585Y-109227928D01*
X169103585Y-109418404D01*
X169151204Y-109513642D01*
X169198823Y-109561261D01*
X169294061Y-109608880D01*
X169484538Y-109608880D01*
X169579776Y-109561261D01*
X169627395Y-109513642D01*
X169675014Y-109418404D01*
X169675014Y-109227928D01*
X169627395Y-109132690D01*
X169579776Y-109085071D01*
X169484538Y-109037452D01*
X168524180Y-128587285D02*
X167524180Y-128587285D01*
X167524180Y-128206333D01*
X167571800Y-128111095D01*
X167619419Y-128063476D01*
X167714657Y-128015857D01*
X167857514Y-128015857D01*
X167952752Y-128063476D01*
X168000371Y-128111095D01*
X168047990Y-128206333D01*
X168047990Y-128587285D01*
X168000371Y-127253952D02*
X168047990Y-127111095D01*
X168095609Y-127063476D01*
X168190847Y-127015857D01*
X168333704Y-127015857D01*
X168428942Y-127063476D01*
X168476561Y-127111095D01*
X168524180Y-127206333D01*
X168524180Y-127587285D01*
X167524180Y-127587285D01*
X167524180Y-127253952D01*
X167571800Y-127158714D01*
X167619419Y-127111095D01*
X167714657Y-127063476D01*
X167809895Y-127063476D01*
X167905133Y-127111095D01*
X167952752Y-127158714D01*
X168000371Y-127253952D01*
X168000371Y-127587285D01*
X168524180Y-126063476D02*
X168524180Y-126634904D01*
X168524180Y-126349190D02*
X167524180Y-126349190D01*
X167667038Y-126444428D01*
X167762276Y-126539666D01*
X167809895Y-126634904D01*
X167524180Y-125158714D02*
X167524180Y-125634904D01*
X168000371Y-125682523D01*
X167952752Y-125634904D01*
X167905133Y-125539666D01*
X167905133Y-125301571D01*
X167952752Y-125206333D01*
X168000371Y-125158714D01*
X168095609Y-125111095D01*
X168333704Y-125111095D01*
X168428942Y-125158714D01*
X168476561Y-125206333D01*
X168524180Y-125301571D01*
X168524180Y-125539666D01*
X168476561Y-125634904D01*
X168428942Y-125682523D01*
X165793680Y-128587285D02*
X164793680Y-128587285D01*
X164793680Y-128206333D01*
X164841300Y-128111095D01*
X164888919Y-128063476D01*
X164984157Y-128015857D01*
X165127014Y-128015857D01*
X165222252Y-128063476D01*
X165269871Y-128111095D01*
X165317490Y-128206333D01*
X165317490Y-128587285D01*
X165269871Y-127253952D02*
X165317490Y-127111095D01*
X165365109Y-127063476D01*
X165460347Y-127015857D01*
X165603204Y-127015857D01*
X165698442Y-127063476D01*
X165746061Y-127111095D01*
X165793680Y-127206333D01*
X165793680Y-127587285D01*
X164793680Y-127587285D01*
X164793680Y-127253952D01*
X164841300Y-127158714D01*
X164888919Y-127111095D01*
X164984157Y-127063476D01*
X165079395Y-127063476D01*
X165174633Y-127111095D01*
X165222252Y-127158714D01*
X165269871Y-127253952D01*
X165269871Y-127587285D01*
X165793680Y-126063476D02*
X165793680Y-126634904D01*
X165793680Y-126349190D02*
X164793680Y-126349190D01*
X164936538Y-126444428D01*
X165031776Y-126539666D01*
X165079395Y-126634904D01*
X165127014Y-125206333D02*
X165793680Y-125206333D01*
X164746061Y-125444428D02*
X165460347Y-125682523D01*
X165460347Y-125063476D01*
X163317180Y-128587285D02*
X162317180Y-128587285D01*
X162317180Y-128206333D01*
X162364800Y-128111095D01*
X162412419Y-128063476D01*
X162507657Y-128015857D01*
X162650514Y-128015857D01*
X162745752Y-128063476D01*
X162793371Y-128111095D01*
X162840990Y-128206333D01*
X162840990Y-128587285D01*
X162793371Y-127253952D02*
X162840990Y-127111095D01*
X162888609Y-127063476D01*
X162983847Y-127015857D01*
X163126704Y-127015857D01*
X163221942Y-127063476D01*
X163269561Y-127111095D01*
X163317180Y-127206333D01*
X163317180Y-127587285D01*
X162317180Y-127587285D01*
X162317180Y-127253952D01*
X162364800Y-127158714D01*
X162412419Y-127111095D01*
X162507657Y-127063476D01*
X162602895Y-127063476D01*
X162698133Y-127111095D01*
X162745752Y-127158714D01*
X162793371Y-127253952D01*
X162793371Y-127587285D01*
X163317180Y-126063476D02*
X163317180Y-126634904D01*
X163317180Y-126349190D02*
X162317180Y-126349190D01*
X162460038Y-126444428D01*
X162555276Y-126539666D01*
X162602895Y-126634904D01*
X162317180Y-125730142D02*
X162317180Y-125111095D01*
X162698133Y-125444428D01*
X162698133Y-125301571D01*
X162745752Y-125206333D01*
X162793371Y-125158714D01*
X162888609Y-125111095D01*
X163126704Y-125111095D01*
X163221942Y-125158714D01*
X163269561Y-125206333D01*
X163317180Y-125301571D01*
X163317180Y-125587285D01*
X163269561Y-125682523D01*
X163221942Y-125730142D01*
X160840680Y-128587285D02*
X159840680Y-128587285D01*
X159840680Y-128206333D01*
X159888300Y-128111095D01*
X159935919Y-128063476D01*
X160031157Y-128015857D01*
X160174014Y-128015857D01*
X160269252Y-128063476D01*
X160316871Y-128111095D01*
X160364490Y-128206333D01*
X160364490Y-128587285D01*
X160316871Y-127253952D02*
X160364490Y-127111095D01*
X160412109Y-127063476D01*
X160507347Y-127015857D01*
X160650204Y-127015857D01*
X160745442Y-127063476D01*
X160793061Y-127111095D01*
X160840680Y-127206333D01*
X160840680Y-127587285D01*
X159840680Y-127587285D01*
X159840680Y-127253952D01*
X159888300Y-127158714D01*
X159935919Y-127111095D01*
X160031157Y-127063476D01*
X160126395Y-127063476D01*
X160221633Y-127111095D01*
X160269252Y-127158714D01*
X160316871Y-127253952D01*
X160316871Y-127587285D01*
X160840680Y-126063476D02*
X160840680Y-126634904D01*
X160840680Y-126349190D02*
X159840680Y-126349190D01*
X159983538Y-126444428D01*
X160078776Y-126539666D01*
X160126395Y-126634904D01*
X159935919Y-125682523D02*
X159888300Y-125634904D01*
X159840680Y-125539666D01*
X159840680Y-125301571D01*
X159888300Y-125206333D01*
X159935919Y-125158714D01*
X160031157Y-125111095D01*
X160126395Y-125111095D01*
X160269252Y-125158714D01*
X160840680Y-125730142D01*
X160840680Y-125111095D01*
X158237180Y-128579404D02*
X157237180Y-128579404D01*
X157237180Y-128198452D01*
X157284800Y-128103214D01*
X157332419Y-128055595D01*
X157427657Y-128007976D01*
X157570514Y-128007976D01*
X157665752Y-128055595D01*
X157713371Y-128103214D01*
X157760990Y-128198452D01*
X157760990Y-128579404D01*
X158237180Y-127579404D02*
X157237180Y-127579404D01*
X157713371Y-127579404D02*
X157713371Y-127007976D01*
X158237180Y-127007976D02*
X157237180Y-127007976D01*
X157237180Y-126627023D02*
X157237180Y-125960357D01*
X158237180Y-126388928D01*
X155697180Y-128579404D02*
X154697180Y-128579404D01*
X154697180Y-128198452D01*
X154744800Y-128103214D01*
X154792419Y-128055595D01*
X154887657Y-128007976D01*
X155030514Y-128007976D01*
X155125752Y-128055595D01*
X155173371Y-128103214D01*
X155220990Y-128198452D01*
X155220990Y-128579404D01*
X155697180Y-127579404D02*
X154697180Y-127579404D01*
X155173371Y-127579404D02*
X155173371Y-127007976D01*
X155697180Y-127007976D02*
X154697180Y-127007976D01*
X154697180Y-126103214D02*
X154697180Y-126293690D01*
X154744800Y-126388928D01*
X154792419Y-126436547D01*
X154935276Y-126531785D01*
X155125752Y-126579404D01*
X155506704Y-126579404D01*
X155601942Y-126531785D01*
X155649561Y-126484166D01*
X155697180Y-126388928D01*
X155697180Y-126198452D01*
X155649561Y-126103214D01*
X155601942Y-126055595D01*
X155506704Y-126007976D01*
X155268609Y-126007976D01*
X155173371Y-126055595D01*
X155125752Y-126103214D01*
X155078133Y-126198452D01*
X155078133Y-126388928D01*
X155125752Y-126484166D01*
X155173371Y-126531785D01*
X155268609Y-126579404D01*
X153157180Y-128587285D02*
X152157180Y-128587285D01*
X152157180Y-128206333D01*
X152204800Y-128111095D01*
X152252419Y-128063476D01*
X152347657Y-128015857D01*
X152490514Y-128015857D01*
X152585752Y-128063476D01*
X152633371Y-128111095D01*
X152680990Y-128206333D01*
X152680990Y-128587285D01*
X152633371Y-127253952D02*
X152680990Y-127111095D01*
X152728609Y-127063476D01*
X152823847Y-127015857D01*
X152966704Y-127015857D01*
X153061942Y-127063476D01*
X153109561Y-127111095D01*
X153157180Y-127206333D01*
X153157180Y-127587285D01*
X152157180Y-127587285D01*
X152157180Y-127253952D01*
X152204800Y-127158714D01*
X152252419Y-127111095D01*
X152347657Y-127063476D01*
X152442895Y-127063476D01*
X152538133Y-127111095D01*
X152585752Y-127158714D01*
X152633371Y-127253952D01*
X152633371Y-127587285D01*
X153157180Y-126063476D02*
X153157180Y-126634904D01*
X153157180Y-126349190D02*
X152157180Y-126349190D01*
X152300038Y-126444428D01*
X152395276Y-126539666D01*
X152442895Y-126634904D01*
X153157180Y-125111095D02*
X153157180Y-125682523D01*
X153157180Y-125396809D02*
X152157180Y-125396809D01*
X152300038Y-125492047D01*
X152395276Y-125587285D01*
X152442895Y-125682523D01*
X150680680Y-128587285D02*
X149680680Y-128587285D01*
X149680680Y-128206333D01*
X149728300Y-128111095D01*
X149775919Y-128063476D01*
X149871157Y-128015857D01*
X150014014Y-128015857D01*
X150109252Y-128063476D01*
X150156871Y-128111095D01*
X150204490Y-128206333D01*
X150204490Y-128587285D01*
X150156871Y-127253952D02*
X150204490Y-127111095D01*
X150252109Y-127063476D01*
X150347347Y-127015857D01*
X150490204Y-127015857D01*
X150585442Y-127063476D01*
X150633061Y-127111095D01*
X150680680Y-127206333D01*
X150680680Y-127587285D01*
X149680680Y-127587285D01*
X149680680Y-127253952D01*
X149728300Y-127158714D01*
X149775919Y-127111095D01*
X149871157Y-127063476D01*
X149966395Y-127063476D01*
X150061633Y-127111095D01*
X150109252Y-127158714D01*
X150156871Y-127253952D01*
X150156871Y-127587285D01*
X150680680Y-126063476D02*
X150680680Y-126634904D01*
X150680680Y-126349190D02*
X149680680Y-126349190D01*
X149823538Y-126444428D01*
X149918776Y-126539666D01*
X149966395Y-126634904D01*
X149680680Y-125444428D02*
X149680680Y-125349190D01*
X149728300Y-125253952D01*
X149775919Y-125206333D01*
X149871157Y-125158714D01*
X150061633Y-125111095D01*
X150299728Y-125111095D01*
X150490204Y-125158714D01*
X150585442Y-125206333D01*
X150633061Y-125253952D01*
X150680680Y-125349190D01*
X150680680Y-125444428D01*
X150633061Y-125539666D01*
X150585442Y-125587285D01*
X150490204Y-125634904D01*
X150299728Y-125682523D01*
X150061633Y-125682523D01*
X149871157Y-125634904D01*
X149775919Y-125587285D01*
X149728300Y-125539666D01*
X149680680Y-125444428D01*
X148140680Y-128539666D02*
X147140680Y-128539666D01*
X147140680Y-128158714D01*
X147188300Y-128063476D01*
X147235919Y-128015857D01*
X147331157Y-127968238D01*
X147474014Y-127968238D01*
X147569252Y-128015857D01*
X147616871Y-128063476D01*
X147664490Y-128158714D01*
X147664490Y-128539666D01*
X147616871Y-127539666D02*
X147616871Y-127206333D01*
X148140680Y-127063476D02*
X148140680Y-127539666D01*
X147140680Y-127539666D01*
X147140680Y-127063476D01*
X148140680Y-126111095D02*
X148140680Y-126682523D01*
X148140680Y-126396809D02*
X147140680Y-126396809D01*
X147283538Y-126492047D01*
X147378776Y-126587285D01*
X147426395Y-126682523D01*
X147140680Y-125206333D02*
X147140680Y-125682523D01*
X147616871Y-125730142D01*
X147569252Y-125682523D01*
X147521633Y-125587285D01*
X147521633Y-125349190D01*
X147569252Y-125253952D01*
X147616871Y-125206333D01*
X147712109Y-125158714D01*
X147950204Y-125158714D01*
X148045442Y-125206333D01*
X148093061Y-125253952D01*
X148140680Y-125349190D01*
X148140680Y-125587285D01*
X148093061Y-125682523D01*
X148045442Y-125730142D01*
X145537180Y-128539666D02*
X144537180Y-128539666D01*
X144537180Y-128158714D01*
X144584800Y-128063476D01*
X144632419Y-128015857D01*
X144727657Y-127968238D01*
X144870514Y-127968238D01*
X144965752Y-128015857D01*
X145013371Y-128063476D01*
X145060990Y-128158714D01*
X145060990Y-128539666D01*
X145013371Y-127539666D02*
X145013371Y-127206333D01*
X145537180Y-127063476D02*
X145537180Y-127539666D01*
X144537180Y-127539666D01*
X144537180Y-127063476D01*
X145537180Y-126111095D02*
X145537180Y-126682523D01*
X145537180Y-126396809D02*
X144537180Y-126396809D01*
X144680038Y-126492047D01*
X144775276Y-126587285D01*
X144822895Y-126682523D01*
X144870514Y-125253952D02*
X145537180Y-125253952D01*
X144489561Y-125492047D02*
X145203847Y-125730142D01*
X145203847Y-125111095D01*
X142997180Y-128539666D02*
X141997180Y-128539666D01*
X141997180Y-128158714D01*
X142044800Y-128063476D01*
X142092419Y-128015857D01*
X142187657Y-127968238D01*
X142330514Y-127968238D01*
X142425752Y-128015857D01*
X142473371Y-128063476D01*
X142520990Y-128158714D01*
X142520990Y-128539666D01*
X142473371Y-127539666D02*
X142473371Y-127206333D01*
X142997180Y-127063476D02*
X142997180Y-127539666D01*
X141997180Y-127539666D01*
X141997180Y-127063476D01*
X142997180Y-126111095D02*
X142997180Y-126682523D01*
X142997180Y-126396809D02*
X141997180Y-126396809D01*
X142140038Y-126492047D01*
X142235276Y-126587285D01*
X142282895Y-126682523D01*
X141997180Y-125777761D02*
X141997180Y-125158714D01*
X142378133Y-125492047D01*
X142378133Y-125349190D01*
X142425752Y-125253952D01*
X142473371Y-125206333D01*
X142568609Y-125158714D01*
X142806704Y-125158714D01*
X142901942Y-125206333D01*
X142949561Y-125253952D01*
X142997180Y-125349190D01*
X142997180Y-125634904D01*
X142949561Y-125730142D01*
X142901942Y-125777761D01*
X140520680Y-128539666D02*
X139520680Y-128539666D01*
X139520680Y-128158714D01*
X139568300Y-128063476D01*
X139615919Y-128015857D01*
X139711157Y-127968238D01*
X139854014Y-127968238D01*
X139949252Y-128015857D01*
X139996871Y-128063476D01*
X140044490Y-128158714D01*
X140044490Y-128539666D01*
X139996871Y-127539666D02*
X139996871Y-127206333D01*
X140520680Y-127063476D02*
X140520680Y-127539666D01*
X139520680Y-127539666D01*
X139520680Y-127063476D01*
X140520680Y-126111095D02*
X140520680Y-126682523D01*
X140520680Y-126396809D02*
X139520680Y-126396809D01*
X139663538Y-126492047D01*
X139758776Y-126587285D01*
X139806395Y-126682523D01*
X139615919Y-125730142D02*
X139568300Y-125682523D01*
X139520680Y-125587285D01*
X139520680Y-125349190D01*
X139568300Y-125253952D01*
X139615919Y-125206333D01*
X139711157Y-125158714D01*
X139806395Y-125158714D01*
X139949252Y-125206333D01*
X140520680Y-125777761D01*
X140520680Y-125158714D01*
X137917180Y-128539666D02*
X136917180Y-128539666D01*
X136917180Y-128158714D01*
X136964800Y-128063476D01*
X137012419Y-128015857D01*
X137107657Y-127968238D01*
X137250514Y-127968238D01*
X137345752Y-128015857D01*
X137393371Y-128063476D01*
X137440990Y-128158714D01*
X137440990Y-128539666D01*
X137393371Y-127539666D02*
X137393371Y-127206333D01*
X137917180Y-127063476D02*
X137917180Y-127539666D01*
X136917180Y-127539666D01*
X136917180Y-127063476D01*
X137917180Y-126111095D02*
X137917180Y-126682523D01*
X137917180Y-126396809D02*
X136917180Y-126396809D01*
X137060038Y-126492047D01*
X137155276Y-126587285D01*
X137202895Y-126682523D01*
X137917180Y-125158714D02*
X137917180Y-125730142D01*
X137917180Y-125444428D02*
X136917180Y-125444428D01*
X137060038Y-125539666D01*
X137155276Y-125634904D01*
X137202895Y-125730142D01*
X135440680Y-128539666D02*
X134440680Y-128539666D01*
X134440680Y-128158714D01*
X134488300Y-128063476D01*
X134535919Y-128015857D01*
X134631157Y-127968238D01*
X134774014Y-127968238D01*
X134869252Y-128015857D01*
X134916871Y-128063476D01*
X134964490Y-128158714D01*
X134964490Y-128539666D01*
X134916871Y-127539666D02*
X134916871Y-127206333D01*
X135440680Y-127063476D02*
X135440680Y-127539666D01*
X134440680Y-127539666D01*
X134440680Y-127063476D01*
X135440680Y-126111095D02*
X135440680Y-126682523D01*
X135440680Y-126396809D02*
X134440680Y-126396809D01*
X134583538Y-126492047D01*
X134678776Y-126587285D01*
X134726395Y-126682523D01*
X134440680Y-125492047D02*
X134440680Y-125396809D01*
X134488300Y-125301571D01*
X134535919Y-125253952D01*
X134631157Y-125206333D01*
X134821633Y-125158714D01*
X135059728Y-125158714D01*
X135250204Y-125206333D01*
X135345442Y-125253952D01*
X135393061Y-125301571D01*
X135440680Y-125396809D01*
X135440680Y-125492047D01*
X135393061Y-125587285D01*
X135345442Y-125634904D01*
X135250204Y-125682523D01*
X135059728Y-125730142D01*
X134821633Y-125730142D01*
X134631157Y-125682523D01*
X134535919Y-125634904D01*
X134488300Y-125587285D01*
X134440680Y-125492047D01*
X132900680Y-128444476D02*
X131900680Y-128444476D01*
X131900680Y-128063523D01*
X131948300Y-127968285D01*
X131995919Y-127920666D01*
X132091157Y-127873047D01*
X132234014Y-127873047D01*
X132329252Y-127920666D01*
X132376871Y-127968285D01*
X132424490Y-128063523D01*
X132424490Y-128444476D01*
X132376871Y-127444476D02*
X132376871Y-127111142D01*
X132900680Y-126968285D02*
X132900680Y-127444476D01*
X131900680Y-127444476D01*
X131900680Y-126968285D01*
X132900680Y-126492095D02*
X132900680Y-126301619D01*
X132853061Y-126206380D01*
X132805442Y-126158761D01*
X132662585Y-126063523D01*
X132472109Y-126015904D01*
X132091157Y-126015904D01*
X131995919Y-126063523D01*
X131948300Y-126111142D01*
X131900680Y-126206380D01*
X131900680Y-126396857D01*
X131948300Y-126492095D01*
X131995919Y-126539714D01*
X132091157Y-126587333D01*
X132329252Y-126587333D01*
X132424490Y-126539714D01*
X132472109Y-126492095D01*
X132519728Y-126396857D01*
X132519728Y-126206380D01*
X132472109Y-126111142D01*
X132424490Y-126063523D01*
X132329252Y-126015904D01*
X130487680Y-128444476D02*
X129487680Y-128444476D01*
X129487680Y-128063523D01*
X129535300Y-127968285D01*
X129582919Y-127920666D01*
X129678157Y-127873047D01*
X129821014Y-127873047D01*
X129916252Y-127920666D01*
X129963871Y-127968285D01*
X130011490Y-128063523D01*
X130011490Y-128444476D01*
X129963871Y-127444476D02*
X129963871Y-127111142D01*
X130487680Y-126968285D02*
X130487680Y-127444476D01*
X129487680Y-127444476D01*
X129487680Y-126968285D01*
X129916252Y-126396857D02*
X129868633Y-126492095D01*
X129821014Y-126539714D01*
X129725776Y-126587333D01*
X129678157Y-126587333D01*
X129582919Y-126539714D01*
X129535300Y-126492095D01*
X129487680Y-126396857D01*
X129487680Y-126206380D01*
X129535300Y-126111142D01*
X129582919Y-126063523D01*
X129678157Y-126015904D01*
X129725776Y-126015904D01*
X129821014Y-126063523D01*
X129868633Y-126111142D01*
X129916252Y-126206380D01*
X129916252Y-126396857D01*
X129963871Y-126492095D01*
X130011490Y-126539714D01*
X130106728Y-126587333D01*
X130297204Y-126587333D01*
X130392442Y-126539714D01*
X130440061Y-126492095D01*
X130487680Y-126396857D01*
X130487680Y-126206380D01*
X130440061Y-126111142D01*
X130392442Y-126063523D01*
X130297204Y-126015904D01*
X130106728Y-126015904D01*
X130011490Y-126063523D01*
X129963871Y-126111142D01*
X129916252Y-126206380D01*
X127947680Y-128444476D02*
X126947680Y-128444476D01*
X126947680Y-128063523D01*
X126995300Y-127968285D01*
X127042919Y-127920666D01*
X127138157Y-127873047D01*
X127281014Y-127873047D01*
X127376252Y-127920666D01*
X127423871Y-127968285D01*
X127471490Y-128063523D01*
X127471490Y-128444476D01*
X127423871Y-127444476D02*
X127423871Y-127111142D01*
X127947680Y-126968285D02*
X127947680Y-127444476D01*
X126947680Y-127444476D01*
X126947680Y-126968285D01*
X126947680Y-126634952D02*
X126947680Y-125968285D01*
X127947680Y-126396857D01*
X125280680Y-128492095D02*
X124280680Y-128492095D01*
X124280680Y-128111142D01*
X124328300Y-128015904D01*
X124375919Y-127968285D01*
X124471157Y-127920666D01*
X124614014Y-127920666D01*
X124709252Y-127968285D01*
X124756871Y-128015904D01*
X124804490Y-128111142D01*
X124804490Y-128492095D01*
X124328300Y-126968285D02*
X124280680Y-127063523D01*
X124280680Y-127206380D01*
X124328300Y-127349238D01*
X124423538Y-127444476D01*
X124518776Y-127492095D01*
X124709252Y-127539714D01*
X124852109Y-127539714D01*
X125042585Y-127492095D01*
X125137823Y-127444476D01*
X125233061Y-127349238D01*
X125280680Y-127206380D01*
X125280680Y-127111142D01*
X125233061Y-126968285D01*
X125185442Y-126920666D01*
X124852109Y-126920666D01*
X124852109Y-127111142D01*
X125280680Y-125968285D02*
X125280680Y-126539714D01*
X125280680Y-126254000D02*
X124280680Y-126254000D01*
X124423538Y-126349238D01*
X124518776Y-126444476D01*
X124566395Y-126539714D01*
X122740680Y-128492095D02*
X121740680Y-128492095D01*
X121740680Y-128111142D01*
X121788300Y-128015904D01*
X121835919Y-127968285D01*
X121931157Y-127920666D01*
X122074014Y-127920666D01*
X122169252Y-127968285D01*
X122216871Y-128015904D01*
X122264490Y-128111142D01*
X122264490Y-128492095D01*
X121788300Y-126968285D02*
X121740680Y-127063523D01*
X121740680Y-127206380D01*
X121788300Y-127349238D01*
X121883538Y-127444476D01*
X121978776Y-127492095D01*
X122169252Y-127539714D01*
X122312109Y-127539714D01*
X122502585Y-127492095D01*
X122597823Y-127444476D01*
X122693061Y-127349238D01*
X122740680Y-127206380D01*
X122740680Y-127111142D01*
X122693061Y-126968285D01*
X122645442Y-126920666D01*
X122312109Y-126920666D01*
X122312109Y-127111142D01*
X121740680Y-126301619D02*
X121740680Y-126206380D01*
X121788300Y-126111142D01*
X121835919Y-126063523D01*
X121931157Y-126015904D01*
X122121633Y-125968285D01*
X122359728Y-125968285D01*
X122550204Y-126015904D01*
X122645442Y-126063523D01*
X122693061Y-126111142D01*
X122740680Y-126206380D01*
X122740680Y-126301619D01*
X122693061Y-126396857D01*
X122645442Y-126444476D01*
X122550204Y-126492095D01*
X122359728Y-126539714D01*
X122121633Y-126539714D01*
X121931157Y-126492095D01*
X121835919Y-126444476D01*
X121788300Y-126396857D01*
X121740680Y-126301619D01*
X120200680Y-128515857D02*
X119200680Y-128515857D01*
X119200680Y-128134904D01*
X119248300Y-128039666D01*
X119295919Y-127992047D01*
X119391157Y-127944428D01*
X119534014Y-127944428D01*
X119629252Y-127992047D01*
X119676871Y-128039666D01*
X119724490Y-128134904D01*
X119724490Y-128515857D01*
X119676871Y-127182523D02*
X119676871Y-127515857D01*
X120200680Y-127515857D02*
X119200680Y-127515857D01*
X119200680Y-127039666D01*
X120200680Y-126134904D02*
X120200680Y-126706333D01*
X120200680Y-126420619D02*
X119200680Y-126420619D01*
X119343538Y-126515857D01*
X119438776Y-126611095D01*
X119486395Y-126706333D01*
X119200680Y-125230142D02*
X119200680Y-125706333D01*
X119676871Y-125753952D01*
X119629252Y-125706333D01*
X119581633Y-125611095D01*
X119581633Y-125373000D01*
X119629252Y-125277761D01*
X119676871Y-125230142D01*
X119772109Y-125182523D01*
X120010204Y-125182523D01*
X120105442Y-125230142D01*
X120153061Y-125277761D01*
X120200680Y-125373000D01*
X120200680Y-125611095D01*
X120153061Y-125706333D01*
X120105442Y-125753952D01*
X117597180Y-128515857D02*
X116597180Y-128515857D01*
X116597180Y-128134904D01*
X116644800Y-128039666D01*
X116692419Y-127992047D01*
X116787657Y-127944428D01*
X116930514Y-127944428D01*
X117025752Y-127992047D01*
X117073371Y-128039666D01*
X117120990Y-128134904D01*
X117120990Y-128515857D01*
X117073371Y-127182523D02*
X117073371Y-127515857D01*
X117597180Y-127515857D02*
X116597180Y-127515857D01*
X116597180Y-127039666D01*
X117597180Y-126134904D02*
X117597180Y-126706333D01*
X117597180Y-126420619D02*
X116597180Y-126420619D01*
X116740038Y-126515857D01*
X116835276Y-126611095D01*
X116882895Y-126706333D01*
X116930514Y-125277761D02*
X117597180Y-125277761D01*
X116549561Y-125515857D02*
X117263847Y-125753952D01*
X117263847Y-125134904D01*
X115184180Y-128515857D02*
X114184180Y-128515857D01*
X114184180Y-128134904D01*
X114231800Y-128039666D01*
X114279419Y-127992047D01*
X114374657Y-127944428D01*
X114517514Y-127944428D01*
X114612752Y-127992047D01*
X114660371Y-128039666D01*
X114707990Y-128134904D01*
X114707990Y-128515857D01*
X114660371Y-127182523D02*
X114660371Y-127515857D01*
X115184180Y-127515857D02*
X114184180Y-127515857D01*
X114184180Y-127039666D01*
X115184180Y-126134904D02*
X115184180Y-126706333D01*
X115184180Y-126420619D02*
X114184180Y-126420619D01*
X114327038Y-126515857D01*
X114422276Y-126611095D01*
X114469895Y-126706333D01*
X114184180Y-125801571D02*
X114184180Y-125182523D01*
X114565133Y-125515857D01*
X114565133Y-125373000D01*
X114612752Y-125277761D01*
X114660371Y-125230142D01*
X114755609Y-125182523D01*
X114993704Y-125182523D01*
X115088942Y-125230142D01*
X115136561Y-125277761D01*
X115184180Y-125373000D01*
X115184180Y-125658714D01*
X115136561Y-125753952D01*
X115088942Y-125801571D01*
X112580680Y-128515857D02*
X111580680Y-128515857D01*
X111580680Y-128134904D01*
X111628300Y-128039666D01*
X111675919Y-127992047D01*
X111771157Y-127944428D01*
X111914014Y-127944428D01*
X112009252Y-127992047D01*
X112056871Y-128039666D01*
X112104490Y-128134904D01*
X112104490Y-128515857D01*
X112056871Y-127182523D02*
X112056871Y-127515857D01*
X112580680Y-127515857D02*
X111580680Y-127515857D01*
X111580680Y-127039666D01*
X112580680Y-126134904D02*
X112580680Y-126706333D01*
X112580680Y-126420619D02*
X111580680Y-126420619D01*
X111723538Y-126515857D01*
X111818776Y-126611095D01*
X111866395Y-126706333D01*
X111675919Y-125753952D02*
X111628300Y-125706333D01*
X111580680Y-125611095D01*
X111580680Y-125373000D01*
X111628300Y-125277761D01*
X111675919Y-125230142D01*
X111771157Y-125182523D01*
X111866395Y-125182523D01*
X112009252Y-125230142D01*
X112580680Y-125801571D01*
X112580680Y-125182523D01*
X110040680Y-128515857D02*
X109040680Y-128515857D01*
X109040680Y-128134904D01*
X109088300Y-128039666D01*
X109135919Y-127992047D01*
X109231157Y-127944428D01*
X109374014Y-127944428D01*
X109469252Y-127992047D01*
X109516871Y-128039666D01*
X109564490Y-128134904D01*
X109564490Y-128515857D01*
X109516871Y-127182523D02*
X109516871Y-127515857D01*
X110040680Y-127515857D02*
X109040680Y-127515857D01*
X109040680Y-127039666D01*
X110040680Y-126134904D02*
X110040680Y-126706333D01*
X110040680Y-126420619D02*
X109040680Y-126420619D01*
X109183538Y-126515857D01*
X109278776Y-126611095D01*
X109326395Y-126706333D01*
X110040680Y-125182523D02*
X110040680Y-125753952D01*
X110040680Y-125468238D02*
X109040680Y-125468238D01*
X109183538Y-125563476D01*
X109278776Y-125658714D01*
X109326395Y-125753952D01*
X107500680Y-128492095D02*
X106500680Y-128492095D01*
X106500680Y-128111142D01*
X106548300Y-128015904D01*
X106595919Y-127968285D01*
X106691157Y-127920666D01*
X106834014Y-127920666D01*
X106929252Y-127968285D01*
X106976871Y-128015904D01*
X107024490Y-128111142D01*
X107024490Y-128492095D01*
X106976871Y-127158761D02*
X107024490Y-127015904D01*
X107072109Y-126968285D01*
X107167347Y-126920666D01*
X107310204Y-126920666D01*
X107405442Y-126968285D01*
X107453061Y-127015904D01*
X107500680Y-127111142D01*
X107500680Y-127492095D01*
X106500680Y-127492095D01*
X106500680Y-127158761D01*
X106548300Y-127063523D01*
X106595919Y-127015904D01*
X106691157Y-126968285D01*
X106786395Y-126968285D01*
X106881633Y-127015904D01*
X106929252Y-127063523D01*
X106976871Y-127158761D01*
X106976871Y-127492095D01*
X106595919Y-126539714D02*
X106548300Y-126492095D01*
X106500680Y-126396857D01*
X106500680Y-126158761D01*
X106548300Y-126063523D01*
X106595919Y-126015904D01*
X106691157Y-125968285D01*
X106786395Y-125968285D01*
X106929252Y-126015904D01*
X107500680Y-126587333D01*
X107500680Y-125968285D01*
X104960680Y-128492095D02*
X103960680Y-128492095D01*
X103960680Y-128111142D01*
X104008300Y-128015904D01*
X104055919Y-127968285D01*
X104151157Y-127920666D01*
X104294014Y-127920666D01*
X104389252Y-127968285D01*
X104436871Y-128015904D01*
X104484490Y-128111142D01*
X104484490Y-128492095D01*
X104436871Y-127158761D02*
X104484490Y-127015904D01*
X104532109Y-126968285D01*
X104627347Y-126920666D01*
X104770204Y-126920666D01*
X104865442Y-126968285D01*
X104913061Y-127015904D01*
X104960680Y-127111142D01*
X104960680Y-127492095D01*
X103960680Y-127492095D01*
X103960680Y-127158761D01*
X104008300Y-127063523D01*
X104055919Y-127015904D01*
X104151157Y-126968285D01*
X104246395Y-126968285D01*
X104341633Y-127015904D01*
X104389252Y-127063523D01*
X104436871Y-127158761D01*
X104436871Y-127492095D01*
X104960680Y-125968285D02*
X104960680Y-126539714D01*
X104960680Y-126254000D02*
X103960680Y-126254000D01*
X104103538Y-126349238D01*
X104198776Y-126444476D01*
X104246395Y-126539714D01*
X102420680Y-128492095D02*
X101420680Y-128492095D01*
X101420680Y-128111142D01*
X101468300Y-128015904D01*
X101515919Y-127968285D01*
X101611157Y-127920666D01*
X101754014Y-127920666D01*
X101849252Y-127968285D01*
X101896871Y-128015904D01*
X101944490Y-128111142D01*
X101944490Y-128492095D01*
X101896871Y-127158761D02*
X101944490Y-127015904D01*
X101992109Y-126968285D01*
X102087347Y-126920666D01*
X102230204Y-126920666D01*
X102325442Y-126968285D01*
X102373061Y-127015904D01*
X102420680Y-127111142D01*
X102420680Y-127492095D01*
X101420680Y-127492095D01*
X101420680Y-127158761D01*
X101468300Y-127063523D01*
X101515919Y-127015904D01*
X101611157Y-126968285D01*
X101706395Y-126968285D01*
X101801633Y-127015904D01*
X101849252Y-127063523D01*
X101896871Y-127158761D01*
X101896871Y-127492095D01*
X101420680Y-126301619D02*
X101420680Y-126206380D01*
X101468300Y-126111142D01*
X101515919Y-126063523D01*
X101611157Y-126015904D01*
X101801633Y-125968285D01*
X102039728Y-125968285D01*
X102230204Y-126015904D01*
X102325442Y-126063523D01*
X102373061Y-126111142D01*
X102420680Y-126206380D01*
X102420680Y-126301619D01*
X102373061Y-126396857D01*
X102325442Y-126444476D01*
X102230204Y-126492095D01*
X102039728Y-126539714D01*
X101801633Y-126539714D01*
X101611157Y-126492095D01*
X101515919Y-126444476D01*
X101468300Y-126396857D01*
X101420680Y-126301619D01*
X97340680Y-128492095D02*
X96340680Y-128492095D01*
X96340680Y-128111142D01*
X96388300Y-128015904D01*
X96435919Y-127968285D01*
X96531157Y-127920666D01*
X96674014Y-127920666D01*
X96769252Y-127968285D01*
X96816871Y-128015904D01*
X96864490Y-128111142D01*
X96864490Y-128492095D01*
X97245442Y-126920666D02*
X97293061Y-126968285D01*
X97340680Y-127111142D01*
X97340680Y-127206380D01*
X97293061Y-127349238D01*
X97197823Y-127444476D01*
X97102585Y-127492095D01*
X96912109Y-127539714D01*
X96769252Y-127539714D01*
X96578776Y-127492095D01*
X96483538Y-127444476D01*
X96388300Y-127349238D01*
X96340680Y-127206380D01*
X96340680Y-127111142D01*
X96388300Y-126968285D01*
X96435919Y-126920666D01*
X96674014Y-126063523D02*
X97340680Y-126063523D01*
X96293061Y-126301619D02*
X97007347Y-126539714D01*
X97007347Y-125920666D01*
X99880680Y-128492095D02*
X98880680Y-128492095D01*
X98880680Y-128111142D01*
X98928300Y-128015904D01*
X98975919Y-127968285D01*
X99071157Y-127920666D01*
X99214014Y-127920666D01*
X99309252Y-127968285D01*
X99356871Y-128015904D01*
X99404490Y-128111142D01*
X99404490Y-128492095D01*
X99785442Y-126920666D02*
X99833061Y-126968285D01*
X99880680Y-127111142D01*
X99880680Y-127206380D01*
X99833061Y-127349238D01*
X99737823Y-127444476D01*
X99642585Y-127492095D01*
X99452109Y-127539714D01*
X99309252Y-127539714D01*
X99118776Y-127492095D01*
X99023538Y-127444476D01*
X98928300Y-127349238D01*
X98880680Y-127206380D01*
X98880680Y-127111142D01*
X98928300Y-126968285D01*
X98975919Y-126920666D01*
X98880680Y-126015904D02*
X98880680Y-126492095D01*
X99356871Y-126539714D01*
X99309252Y-126492095D01*
X99261633Y-126396857D01*
X99261633Y-126158761D01*
X99309252Y-126063523D01*
X99356871Y-126015904D01*
X99452109Y-125968285D01*
X99690204Y-125968285D01*
X99785442Y-126015904D01*
X99833061Y-126063523D01*
X99880680Y-126158761D01*
X99880680Y-126396857D01*
X99833061Y-126492095D01*
X99785442Y-126539714D01*
X94800680Y-128420666D02*
X93800680Y-128420666D01*
X93800680Y-128039714D01*
X93848300Y-127944476D01*
X93895919Y-127896857D01*
X93991157Y-127849238D01*
X94134014Y-127849238D01*
X94229252Y-127896857D01*
X94276871Y-127944476D01*
X94324490Y-128039714D01*
X94324490Y-128420666D01*
X94514966Y-127468285D02*
X94514966Y-126992095D01*
X94800680Y-127563523D02*
X93800680Y-127230190D01*
X94800680Y-126896857D01*
X93800680Y-126658761D02*
X93800680Y-125992095D01*
X94800680Y-126420666D01*
X92197180Y-128420666D02*
X91197180Y-128420666D01*
X91197180Y-128039714D01*
X91244800Y-127944476D01*
X91292419Y-127896857D01*
X91387657Y-127849238D01*
X91530514Y-127849238D01*
X91625752Y-127896857D01*
X91673371Y-127944476D01*
X91720990Y-128039714D01*
X91720990Y-128420666D01*
X91911466Y-127468285D02*
X91911466Y-126992095D01*
X92197180Y-127563523D02*
X91197180Y-127230190D01*
X92197180Y-126896857D01*
X91197180Y-126134952D02*
X91197180Y-126325428D01*
X91244800Y-126420666D01*
X91292419Y-126468285D01*
X91435276Y-126563523D01*
X91625752Y-126611142D01*
X92006704Y-126611142D01*
X92101942Y-126563523D01*
X92149561Y-126515904D01*
X92197180Y-126420666D01*
X92197180Y-126230190D01*
X92149561Y-126134952D01*
X92101942Y-126087333D01*
X92006704Y-126039714D01*
X91768609Y-126039714D01*
X91673371Y-126087333D01*
X91625752Y-126134952D01*
X91578133Y-126230190D01*
X91578133Y-126420666D01*
X91625752Y-126515904D01*
X91673371Y-126563523D01*
X91768609Y-126611142D01*
X89720680Y-128420666D02*
X88720680Y-128420666D01*
X88720680Y-128039714D01*
X88768300Y-127944476D01*
X88815919Y-127896857D01*
X88911157Y-127849238D01*
X89054014Y-127849238D01*
X89149252Y-127896857D01*
X89196871Y-127944476D01*
X89244490Y-128039714D01*
X89244490Y-128420666D01*
X89434966Y-127468285D02*
X89434966Y-126992095D01*
X89720680Y-127563523D02*
X88720680Y-127230190D01*
X89720680Y-126896857D01*
X88720680Y-126087333D02*
X88720680Y-126563523D01*
X89196871Y-126611142D01*
X89149252Y-126563523D01*
X89101633Y-126468285D01*
X89101633Y-126230190D01*
X89149252Y-126134952D01*
X89196871Y-126087333D01*
X89292109Y-126039714D01*
X89530204Y-126039714D01*
X89625442Y-126087333D01*
X89673061Y-126134952D01*
X89720680Y-126230190D01*
X89720680Y-126468285D01*
X89673061Y-126563523D01*
X89625442Y-126611142D01*
X87180680Y-128420666D02*
X86180680Y-128420666D01*
X86180680Y-128039714D01*
X86228300Y-127944476D01*
X86275919Y-127896857D01*
X86371157Y-127849238D01*
X86514014Y-127849238D01*
X86609252Y-127896857D01*
X86656871Y-127944476D01*
X86704490Y-128039714D01*
X86704490Y-128420666D01*
X86894966Y-127468285D02*
X86894966Y-126992095D01*
X87180680Y-127563523D02*
X86180680Y-127230190D01*
X87180680Y-126896857D01*
X86514014Y-126134952D02*
X87180680Y-126134952D01*
X86133061Y-126373047D02*
X86847347Y-126611142D01*
X86847347Y-125992095D01*
X84704180Y-135088166D02*
X83704180Y-135088166D01*
X83704180Y-134707214D01*
X83751800Y-134611976D01*
X83799419Y-134564357D01*
X83894657Y-134516738D01*
X84037514Y-134516738D01*
X84132752Y-134564357D01*
X84180371Y-134611976D01*
X84227990Y-134707214D01*
X84227990Y-135088166D01*
X84418466Y-134135785D02*
X84418466Y-133659595D01*
X84704180Y-134231023D02*
X83704180Y-133897690D01*
X84704180Y-133564357D01*
X83704180Y-133326261D02*
X83704180Y-132707214D01*
X84085133Y-133040547D01*
X84085133Y-132897690D01*
X84132752Y-132802452D01*
X84180371Y-132754833D01*
X84275609Y-132707214D01*
X84513704Y-132707214D01*
X84608942Y-132754833D01*
X84656561Y-132802452D01*
X84704180Y-132897690D01*
X84704180Y-133183404D01*
X84656561Y-133278642D01*
X84608942Y-133326261D01*
X82227680Y-135183404D02*
X81227680Y-135183404D01*
X81227680Y-134802452D01*
X81275300Y-134707214D01*
X81322919Y-134659595D01*
X81418157Y-134611976D01*
X81561014Y-134611976D01*
X81656252Y-134659595D01*
X81703871Y-134707214D01*
X81751490Y-134802452D01*
X81751490Y-135183404D01*
X82227680Y-134183404D02*
X81227680Y-134183404D01*
X81703871Y-134183404D02*
X81703871Y-133611976D01*
X82227680Y-133611976D02*
X81227680Y-133611976D01*
X81227680Y-132659595D02*
X81227680Y-133135785D01*
X81703871Y-133183404D01*
X81656252Y-133135785D01*
X81608633Y-133040547D01*
X81608633Y-132802452D01*
X81656252Y-132707214D01*
X81703871Y-132659595D01*
X81799109Y-132611976D01*
X82037204Y-132611976D01*
X82132442Y-132659595D01*
X82180061Y-132707214D01*
X82227680Y-132802452D01*
X82227680Y-133040547D01*
X82180061Y-133135785D01*
X82132442Y-133183404D01*
X79687680Y-135310404D02*
X78687680Y-135310404D01*
X78687680Y-134929452D01*
X78735300Y-134834214D01*
X78782919Y-134786595D01*
X78878157Y-134738976D01*
X79021014Y-134738976D01*
X79116252Y-134786595D01*
X79163871Y-134834214D01*
X79211490Y-134929452D01*
X79211490Y-135310404D01*
X79687680Y-134310404D02*
X78687680Y-134310404D01*
X79163871Y-134310404D02*
X79163871Y-133738976D01*
X79687680Y-133738976D02*
X78687680Y-133738976D01*
X79021014Y-132834214D02*
X79687680Y-132834214D01*
X78640061Y-133072309D02*
X79354347Y-133310404D01*
X79354347Y-132691357D01*
X81338895Y-127388880D02*
X81338895Y-126388880D01*
X81719847Y-126388880D01*
X81815085Y-126436500D01*
X81862704Y-126484119D01*
X81910323Y-126579357D01*
X81910323Y-126722214D01*
X81862704Y-126817452D01*
X81815085Y-126865071D01*
X81719847Y-126912690D01*
X81338895Y-126912690D01*
X82338895Y-127388880D02*
X82338895Y-126388880D01*
X82338895Y-126865071D02*
X82910323Y-126865071D01*
X82910323Y-127388880D02*
X82910323Y-126388880D01*
X83291276Y-126388880D02*
X83910323Y-126388880D01*
X83576990Y-126769833D01*
X83719847Y-126769833D01*
X83815085Y-126817452D01*
X83862704Y-126865071D01*
X83910323Y-126960309D01*
X83910323Y-127198404D01*
X83862704Y-127293642D01*
X83815085Y-127341261D01*
X83719847Y-127388880D01*
X83434133Y-127388880D01*
X83338895Y-127341261D01*
X83291276Y-127293642D01*
X81338895Y-124848880D02*
X81338895Y-123848880D01*
X81719847Y-123848880D01*
X81815085Y-123896500D01*
X81862704Y-123944119D01*
X81910323Y-124039357D01*
X81910323Y-124182214D01*
X81862704Y-124277452D01*
X81815085Y-124325071D01*
X81719847Y-124372690D01*
X81338895Y-124372690D01*
X82338895Y-124848880D02*
X82338895Y-123848880D01*
X82338895Y-124325071D02*
X82910323Y-124325071D01*
X82910323Y-124848880D02*
X82910323Y-123848880D01*
X83338895Y-123944119D02*
X83386514Y-123896500D01*
X83481752Y-123848880D01*
X83719847Y-123848880D01*
X83815085Y-123896500D01*
X83862704Y-123944119D01*
X83910323Y-124039357D01*
X83910323Y-124134595D01*
X83862704Y-124277452D01*
X83291276Y-124848880D01*
X83910323Y-124848880D01*
X81434133Y-122245380D02*
X81434133Y-121245380D01*
X81815085Y-121245380D01*
X81910323Y-121293000D01*
X81957942Y-121340619D01*
X82005561Y-121435857D01*
X82005561Y-121578714D01*
X81957942Y-121673952D01*
X81910323Y-121721571D01*
X81815085Y-121769190D01*
X81434133Y-121769190D01*
X82386514Y-121959666D02*
X82862704Y-121959666D01*
X82291276Y-122245380D02*
X82624609Y-121245380D01*
X82957942Y-122245380D01*
X83243657Y-121340619D02*
X83291276Y-121293000D01*
X83386514Y-121245380D01*
X83624609Y-121245380D01*
X83719847Y-121293000D01*
X83767466Y-121340619D01*
X83815085Y-121435857D01*
X83815085Y-121531095D01*
X83767466Y-121673952D01*
X83196038Y-122245380D01*
X83815085Y-122245380D01*
X81434133Y-119705380D02*
X81434133Y-118705380D01*
X81815085Y-118705380D01*
X81910323Y-118753000D01*
X81957942Y-118800619D01*
X82005561Y-118895857D01*
X82005561Y-119038714D01*
X81957942Y-119133952D01*
X81910323Y-119181571D01*
X81815085Y-119229190D01*
X81434133Y-119229190D01*
X82386514Y-119419666D02*
X82862704Y-119419666D01*
X82291276Y-119705380D02*
X82624609Y-118705380D01*
X82957942Y-119705380D01*
X83815085Y-119705380D02*
X83243657Y-119705380D01*
X83529371Y-119705380D02*
X83529371Y-118705380D01*
X83434133Y-118848238D01*
X83338895Y-118943476D01*
X83243657Y-118991095D01*
X81434133Y-117165380D02*
X81434133Y-116165380D01*
X81815085Y-116165380D01*
X81910323Y-116213000D01*
X81957942Y-116260619D01*
X82005561Y-116355857D01*
X82005561Y-116498714D01*
X81957942Y-116593952D01*
X81910323Y-116641571D01*
X81815085Y-116689190D01*
X81434133Y-116689190D01*
X82386514Y-116879666D02*
X82862704Y-116879666D01*
X82291276Y-117165380D02*
X82624609Y-116165380D01*
X82957942Y-117165380D01*
X83481752Y-116165380D02*
X83576990Y-116165380D01*
X83672228Y-116213000D01*
X83719847Y-116260619D01*
X83767466Y-116355857D01*
X83815085Y-116546333D01*
X83815085Y-116784428D01*
X83767466Y-116974904D01*
X83719847Y-117070142D01*
X83672228Y-117117761D01*
X83576990Y-117165380D01*
X83481752Y-117165380D01*
X83386514Y-117117761D01*
X83338895Y-117070142D01*
X83291276Y-116974904D01*
X83243657Y-116784428D01*
X83243657Y-116546333D01*
X83291276Y-116355857D01*
X83338895Y-116260619D01*
X83386514Y-116213000D01*
X83481752Y-116165380D01*
X81362704Y-114625380D02*
X81362704Y-113625380D01*
X81743657Y-113625380D01*
X81838895Y-113673000D01*
X81886514Y-113720619D01*
X81934133Y-113815857D01*
X81934133Y-113958714D01*
X81886514Y-114053952D01*
X81838895Y-114101571D01*
X81743657Y-114149190D01*
X81362704Y-114149190D01*
X82934133Y-114530142D02*
X82886514Y-114577761D01*
X82743657Y-114625380D01*
X82648419Y-114625380D01*
X82505561Y-114577761D01*
X82410323Y-114482523D01*
X82362704Y-114387285D01*
X82315085Y-114196809D01*
X82315085Y-114053952D01*
X82362704Y-113863476D01*
X82410323Y-113768238D01*
X82505561Y-113673000D01*
X82648419Y-113625380D01*
X82743657Y-113625380D01*
X82886514Y-113673000D01*
X82934133Y-113720619D01*
X83267466Y-113625380D02*
X83886514Y-113625380D01*
X83553180Y-114006333D01*
X83696038Y-114006333D01*
X83791276Y-114053952D01*
X83838895Y-114101571D01*
X83886514Y-114196809D01*
X83886514Y-114434904D01*
X83838895Y-114530142D01*
X83791276Y-114577761D01*
X83696038Y-114625380D01*
X83410323Y-114625380D01*
X83315085Y-114577761D01*
X83267466Y-114530142D01*
X81362704Y-112085380D02*
X81362704Y-111085380D01*
X81743657Y-111085380D01*
X81838895Y-111133000D01*
X81886514Y-111180619D01*
X81934133Y-111275857D01*
X81934133Y-111418714D01*
X81886514Y-111513952D01*
X81838895Y-111561571D01*
X81743657Y-111609190D01*
X81362704Y-111609190D01*
X82934133Y-111990142D02*
X82886514Y-112037761D01*
X82743657Y-112085380D01*
X82648419Y-112085380D01*
X82505561Y-112037761D01*
X82410323Y-111942523D01*
X82362704Y-111847285D01*
X82315085Y-111656809D01*
X82315085Y-111513952D01*
X82362704Y-111323476D01*
X82410323Y-111228238D01*
X82505561Y-111133000D01*
X82648419Y-111085380D01*
X82743657Y-111085380D01*
X82886514Y-111133000D01*
X82934133Y-111180619D01*
X83315085Y-111180619D02*
X83362704Y-111133000D01*
X83457942Y-111085380D01*
X83696038Y-111085380D01*
X83791276Y-111133000D01*
X83838895Y-111180619D01*
X83886514Y-111275857D01*
X83886514Y-111371095D01*
X83838895Y-111513952D01*
X83267466Y-112085380D01*
X83886514Y-112085380D01*
X81362704Y-109545380D02*
X81362704Y-108545380D01*
X81743657Y-108545380D01*
X81838895Y-108593000D01*
X81886514Y-108640619D01*
X81934133Y-108735857D01*
X81934133Y-108878714D01*
X81886514Y-108973952D01*
X81838895Y-109021571D01*
X81743657Y-109069190D01*
X81362704Y-109069190D01*
X82934133Y-109450142D02*
X82886514Y-109497761D01*
X82743657Y-109545380D01*
X82648419Y-109545380D01*
X82505561Y-109497761D01*
X82410323Y-109402523D01*
X82362704Y-109307285D01*
X82315085Y-109116809D01*
X82315085Y-108973952D01*
X82362704Y-108783476D01*
X82410323Y-108688238D01*
X82505561Y-108593000D01*
X82648419Y-108545380D01*
X82743657Y-108545380D01*
X82886514Y-108593000D01*
X82934133Y-108640619D01*
X83886514Y-109545380D02*
X83315085Y-109545380D01*
X83600800Y-109545380D02*
X83600800Y-108545380D01*
X83505561Y-108688238D01*
X83410323Y-108783476D01*
X83315085Y-108831095D01*
X81362704Y-107005380D02*
X81362704Y-106005380D01*
X81743657Y-106005380D01*
X81838895Y-106053000D01*
X81886514Y-106100619D01*
X81934133Y-106195857D01*
X81934133Y-106338714D01*
X81886514Y-106433952D01*
X81838895Y-106481571D01*
X81743657Y-106529190D01*
X81362704Y-106529190D01*
X82934133Y-106910142D02*
X82886514Y-106957761D01*
X82743657Y-107005380D01*
X82648419Y-107005380D01*
X82505561Y-106957761D01*
X82410323Y-106862523D01*
X82362704Y-106767285D01*
X82315085Y-106576809D01*
X82315085Y-106433952D01*
X82362704Y-106243476D01*
X82410323Y-106148238D01*
X82505561Y-106053000D01*
X82648419Y-106005380D01*
X82743657Y-106005380D01*
X82886514Y-106053000D01*
X82934133Y-106100619D01*
X83553180Y-106005380D02*
X83648419Y-106005380D01*
X83743657Y-106053000D01*
X83791276Y-106100619D01*
X83838895Y-106195857D01*
X83886514Y-106386333D01*
X83886514Y-106624428D01*
X83838895Y-106814904D01*
X83791276Y-106910142D01*
X83743657Y-106957761D01*
X83648419Y-107005380D01*
X83553180Y-107005380D01*
X83457942Y-106957761D01*
X83410323Y-106910142D01*
X83362704Y-106814904D01*
X83315085Y-106624428D01*
X83315085Y-106386333D01*
X83362704Y-106195857D01*
X83410323Y-106100619D01*
X83457942Y-106053000D01*
X83553180Y-106005380D01*
X81338942Y-104465380D02*
X81338942Y-103465380D01*
X81719895Y-103465380D01*
X81815133Y-103513000D01*
X81862752Y-103560619D01*
X81910371Y-103655857D01*
X81910371Y-103798714D01*
X81862752Y-103893952D01*
X81815133Y-103941571D01*
X81719895Y-103989190D01*
X81338942Y-103989190D01*
X82672276Y-103941571D02*
X82338942Y-103941571D01*
X82338942Y-104465380D02*
X82338942Y-103465380D01*
X82815133Y-103465380D01*
X83719895Y-104465380D02*
X83148466Y-104465380D01*
X83434180Y-104465380D02*
X83434180Y-103465380D01*
X83338942Y-103608238D01*
X83243704Y-103703476D01*
X83148466Y-103751095D01*
X84338942Y-103465380D02*
X84434180Y-103465380D01*
X84529419Y-103513000D01*
X84577038Y-103560619D01*
X84624657Y-103655857D01*
X84672276Y-103846333D01*
X84672276Y-104084428D01*
X84624657Y-104274904D01*
X84577038Y-104370142D01*
X84529419Y-104417761D01*
X84434180Y-104465380D01*
X84338942Y-104465380D01*
X84243704Y-104417761D01*
X84196085Y-104370142D01*
X84148466Y-104274904D01*
X84100847Y-104084428D01*
X84100847Y-103846333D01*
X84148466Y-103655857D01*
X84196085Y-103560619D01*
X84243704Y-103513000D01*
X84338942Y-103465380D01*
X81370633Y-101925380D02*
X81370633Y-100925380D01*
X81751585Y-100925380D01*
X81846823Y-100973000D01*
X81894442Y-101020619D01*
X81942061Y-101115857D01*
X81942061Y-101258714D01*
X81894442Y-101353952D01*
X81846823Y-101401571D01*
X81751585Y-101449190D01*
X81370633Y-101449190D01*
X82703966Y-101401571D02*
X82370633Y-101401571D01*
X82370633Y-101925380D02*
X82370633Y-100925380D01*
X82846823Y-100925380D01*
X83275395Y-101925380D02*
X83465871Y-101925380D01*
X83561109Y-101877761D01*
X83608728Y-101830142D01*
X83703966Y-101687285D01*
X83751585Y-101496809D01*
X83751585Y-101115857D01*
X83703966Y-101020619D01*
X83656347Y-100973000D01*
X83561109Y-100925380D01*
X83370633Y-100925380D01*
X83275395Y-100973000D01*
X83227776Y-101020619D01*
X83180157Y-101115857D01*
X83180157Y-101353952D01*
X83227776Y-101449190D01*
X83275395Y-101496809D01*
X83370633Y-101544428D01*
X83561109Y-101544428D01*
X83656347Y-101496809D01*
X83703966Y-101449190D01*
X83751585Y-101353952D01*
X81370633Y-99385380D02*
X81370633Y-98385380D01*
X81751585Y-98385380D01*
X81846823Y-98433000D01*
X81894442Y-98480619D01*
X81942061Y-98575857D01*
X81942061Y-98718714D01*
X81894442Y-98813952D01*
X81846823Y-98861571D01*
X81751585Y-98909190D01*
X81370633Y-98909190D01*
X82703966Y-98861571D02*
X82370633Y-98861571D01*
X82370633Y-99385380D02*
X82370633Y-98385380D01*
X82846823Y-98385380D01*
X83370633Y-98813952D02*
X83275395Y-98766333D01*
X83227776Y-98718714D01*
X83180157Y-98623476D01*
X83180157Y-98575857D01*
X83227776Y-98480619D01*
X83275395Y-98433000D01*
X83370633Y-98385380D01*
X83561109Y-98385380D01*
X83656347Y-98433000D01*
X83703966Y-98480619D01*
X83751585Y-98575857D01*
X83751585Y-98623476D01*
X83703966Y-98718714D01*
X83656347Y-98766333D01*
X83561109Y-98813952D01*
X83370633Y-98813952D01*
X83275395Y-98861571D01*
X83227776Y-98909190D01*
X83180157Y-99004428D01*
X83180157Y-99194904D01*
X83227776Y-99290142D01*
X83275395Y-99337761D01*
X83370633Y-99385380D01*
X83561109Y-99385380D01*
X83656347Y-99337761D01*
X83703966Y-99290142D01*
X83751585Y-99194904D01*
X83751585Y-99004428D01*
X83703966Y-98909190D01*
X83656347Y-98861571D01*
X83561109Y-98813952D01*
X81370633Y-96908880D02*
X81370633Y-95908880D01*
X81751585Y-95908880D01*
X81846823Y-95956500D01*
X81894442Y-96004119D01*
X81942061Y-96099357D01*
X81942061Y-96242214D01*
X81894442Y-96337452D01*
X81846823Y-96385071D01*
X81751585Y-96432690D01*
X81370633Y-96432690D01*
X82703966Y-96385071D02*
X82370633Y-96385071D01*
X82370633Y-96908880D02*
X82370633Y-95908880D01*
X82846823Y-95908880D01*
X83132538Y-95908880D02*
X83799204Y-95908880D01*
X83370633Y-96908880D01*
X81370633Y-94368880D02*
X81370633Y-93368880D01*
X81751585Y-93368880D01*
X81846823Y-93416500D01*
X81894442Y-93464119D01*
X81942061Y-93559357D01*
X81942061Y-93702214D01*
X81894442Y-93797452D01*
X81846823Y-93845071D01*
X81751585Y-93892690D01*
X81370633Y-93892690D01*
X82703966Y-93845071D02*
X82370633Y-93845071D01*
X82370633Y-94368880D02*
X82370633Y-93368880D01*
X82846823Y-93368880D01*
X83656347Y-93368880D02*
X83465871Y-93368880D01*
X83370633Y-93416500D01*
X83323014Y-93464119D01*
X83227776Y-93606976D01*
X83180157Y-93797452D01*
X83180157Y-94178404D01*
X83227776Y-94273642D01*
X83275395Y-94321261D01*
X83370633Y-94368880D01*
X83561109Y-94368880D01*
X83656347Y-94321261D01*
X83703966Y-94273642D01*
X83751585Y-94178404D01*
X83751585Y-93940309D01*
X83703966Y-93845071D01*
X83656347Y-93797452D01*
X83561109Y-93749833D01*
X83370633Y-93749833D01*
X83275395Y-93797452D01*
X83227776Y-93845071D01*
X83180157Y-93940309D01*
X81370633Y-91765380D02*
X81370633Y-90765380D01*
X81751585Y-90765380D01*
X81846823Y-90813000D01*
X81894442Y-90860619D01*
X81942061Y-90955857D01*
X81942061Y-91098714D01*
X81894442Y-91193952D01*
X81846823Y-91241571D01*
X81751585Y-91289190D01*
X81370633Y-91289190D01*
X82703966Y-91241571D02*
X82370633Y-91241571D01*
X82370633Y-91765380D02*
X82370633Y-90765380D01*
X82846823Y-90765380D01*
X83703966Y-90765380D02*
X83227776Y-90765380D01*
X83180157Y-91241571D01*
X83227776Y-91193952D01*
X83323014Y-91146333D01*
X83561109Y-91146333D01*
X83656347Y-91193952D01*
X83703966Y-91241571D01*
X83751585Y-91336809D01*
X83751585Y-91574904D01*
X83703966Y-91670142D01*
X83656347Y-91717761D01*
X83561109Y-91765380D01*
X83323014Y-91765380D01*
X83227776Y-91717761D01*
X83180157Y-91670142D01*
X81370633Y-89352380D02*
X81370633Y-88352380D01*
X81751585Y-88352380D01*
X81846823Y-88400000D01*
X81894442Y-88447619D01*
X81942061Y-88542857D01*
X81942061Y-88685714D01*
X81894442Y-88780952D01*
X81846823Y-88828571D01*
X81751585Y-88876190D01*
X81370633Y-88876190D01*
X82703966Y-88828571D02*
X82370633Y-88828571D01*
X82370633Y-89352380D02*
X82370633Y-88352380D01*
X82846823Y-88352380D01*
X83656347Y-88685714D02*
X83656347Y-89352380D01*
X83418252Y-88304761D02*
X83180157Y-89019047D01*
X83799204Y-89019047D01*
X81370633Y-86748880D02*
X81370633Y-85748880D01*
X81751585Y-85748880D01*
X81846823Y-85796500D01*
X81894442Y-85844119D01*
X81942061Y-85939357D01*
X81942061Y-86082214D01*
X81894442Y-86177452D01*
X81846823Y-86225071D01*
X81751585Y-86272690D01*
X81370633Y-86272690D01*
X82703966Y-86225071D02*
X82370633Y-86225071D01*
X82370633Y-86748880D02*
X82370633Y-85748880D01*
X82846823Y-85748880D01*
X83132538Y-85748880D02*
X83751585Y-85748880D01*
X83418252Y-86129833D01*
X83561109Y-86129833D01*
X83656347Y-86177452D01*
X83703966Y-86225071D01*
X83751585Y-86320309D01*
X83751585Y-86558404D01*
X83703966Y-86653642D01*
X83656347Y-86701261D01*
X83561109Y-86748880D01*
X83275395Y-86748880D01*
X83180157Y-86701261D01*
X83132538Y-86653642D01*
X81370633Y-84145380D02*
X81370633Y-83145380D01*
X81751585Y-83145380D01*
X81846823Y-83193000D01*
X81894442Y-83240619D01*
X81942061Y-83335857D01*
X81942061Y-83478714D01*
X81894442Y-83573952D01*
X81846823Y-83621571D01*
X81751585Y-83669190D01*
X81370633Y-83669190D01*
X82703966Y-83621571D02*
X82370633Y-83621571D01*
X82370633Y-84145380D02*
X82370633Y-83145380D01*
X82846823Y-83145380D01*
X83180157Y-83240619D02*
X83227776Y-83193000D01*
X83323014Y-83145380D01*
X83561109Y-83145380D01*
X83656347Y-83193000D01*
X83703966Y-83240619D01*
X83751585Y-83335857D01*
X83751585Y-83431095D01*
X83703966Y-83573952D01*
X83132538Y-84145380D01*
X83751585Y-84145380D01*
X81370633Y-81605380D02*
X81370633Y-80605380D01*
X81751585Y-80605380D01*
X81846823Y-80653000D01*
X81894442Y-80700619D01*
X81942061Y-80795857D01*
X81942061Y-80938714D01*
X81894442Y-81033952D01*
X81846823Y-81081571D01*
X81751585Y-81129190D01*
X81370633Y-81129190D01*
X82703966Y-81081571D02*
X82370633Y-81081571D01*
X82370633Y-81605380D02*
X82370633Y-80605380D01*
X82846823Y-80605380D01*
X83751585Y-81605380D02*
X83180157Y-81605380D01*
X83465871Y-81605380D02*
X83465871Y-80605380D01*
X83370633Y-80748238D01*
X83275395Y-80843476D01*
X83180157Y-80891095D01*
X81370633Y-79128880D02*
X81370633Y-78128880D01*
X81751585Y-78128880D01*
X81846823Y-78176500D01*
X81894442Y-78224119D01*
X81942061Y-78319357D01*
X81942061Y-78462214D01*
X81894442Y-78557452D01*
X81846823Y-78605071D01*
X81751585Y-78652690D01*
X81370633Y-78652690D01*
X82703966Y-78605071D02*
X82370633Y-78605071D01*
X82370633Y-79128880D02*
X82370633Y-78128880D01*
X82846823Y-78128880D01*
X83418252Y-78128880D02*
X83513490Y-78128880D01*
X83608728Y-78176500D01*
X83656347Y-78224119D01*
X83703966Y-78319357D01*
X83751585Y-78509833D01*
X83751585Y-78747928D01*
X83703966Y-78938404D01*
X83656347Y-79033642D01*
X83608728Y-79081261D01*
X83513490Y-79128880D01*
X83418252Y-79128880D01*
X83323014Y-79081261D01*
X83275395Y-79033642D01*
X83227776Y-78938404D01*
X83180157Y-78747928D01*
X83180157Y-78509833D01*
X83227776Y-78319357D01*
X83275395Y-78224119D01*
X83323014Y-78176500D01*
X83418252Y-78128880D01*
X81338919Y-76588880D02*
X81338919Y-75588880D01*
X81719871Y-75588880D01*
X81815109Y-75636500D01*
X81862728Y-75684119D01*
X81910347Y-75779357D01*
X81910347Y-75922214D01*
X81862728Y-76017452D01*
X81815109Y-76065071D01*
X81719871Y-76112690D01*
X81338919Y-76112690D01*
X82338919Y-76588880D02*
X82338919Y-75588880D01*
X83338919Y-76588880D02*
X82767490Y-76588880D01*
X83053204Y-76588880D02*
X83053204Y-75588880D01*
X82957966Y-75731738D01*
X82862728Y-75826976D01*
X82767490Y-75874595D01*
X84291300Y-76588880D02*
X83719871Y-76588880D01*
X84005585Y-76588880D02*
X84005585Y-75588880D01*
X83910347Y-75731738D01*
X83815109Y-75826976D01*
X83719871Y-75874595D01*
X81338919Y-74048880D02*
X81338919Y-73048880D01*
X81719871Y-73048880D01*
X81815109Y-73096500D01*
X81862728Y-73144119D01*
X81910347Y-73239357D01*
X81910347Y-73382214D01*
X81862728Y-73477452D01*
X81815109Y-73525071D01*
X81719871Y-73572690D01*
X81338919Y-73572690D01*
X82338919Y-74048880D02*
X82338919Y-73048880D01*
X83338919Y-74048880D02*
X82767490Y-74048880D01*
X83053204Y-74048880D02*
X83053204Y-73048880D01*
X82957966Y-73191738D01*
X82862728Y-73286976D01*
X82767490Y-73334595D01*
X83957966Y-73048880D02*
X84053204Y-73048880D01*
X84148442Y-73096500D01*
X84196061Y-73144119D01*
X84243680Y-73239357D01*
X84291300Y-73429833D01*
X84291300Y-73667928D01*
X84243680Y-73858404D01*
X84196061Y-73953642D01*
X84148442Y-74001261D01*
X84053204Y-74048880D01*
X83957966Y-74048880D01*
X83862728Y-74001261D01*
X83815109Y-73953642D01*
X83767490Y-73858404D01*
X83719871Y-73667928D01*
X83719871Y-73429833D01*
X83767490Y-73239357D01*
X83815109Y-73144119D01*
X83862728Y-73096500D01*
X83957966Y-73048880D01*
X81307109Y-71508880D02*
X81307109Y-70508880D01*
X81688061Y-70508880D01*
X81783300Y-70556500D01*
X81830919Y-70604119D01*
X81878538Y-70699357D01*
X81878538Y-70842214D01*
X81830919Y-70937452D01*
X81783300Y-70985071D01*
X81688061Y-71032690D01*
X81307109Y-71032690D01*
X82307109Y-71508880D02*
X82307109Y-70508880D01*
X82830919Y-71508880D02*
X83021395Y-71508880D01*
X83116633Y-71461261D01*
X83164252Y-71413642D01*
X83259490Y-71270785D01*
X83307109Y-71080309D01*
X83307109Y-70699357D01*
X83259490Y-70604119D01*
X83211871Y-70556500D01*
X83116633Y-70508880D01*
X82926157Y-70508880D01*
X82830919Y-70556500D01*
X82783300Y-70604119D01*
X82735680Y-70699357D01*
X82735680Y-70937452D01*
X82783300Y-71032690D01*
X82830919Y-71080309D01*
X82926157Y-71127928D01*
X83116633Y-71127928D01*
X83211871Y-71080309D01*
X83259490Y-71032690D01*
X83307109Y-70937452D01*
X81331014Y-68968880D02*
X81331014Y-67968880D01*
X81711966Y-67968880D01*
X81807204Y-68016500D01*
X81854823Y-68064119D01*
X81902442Y-68159357D01*
X81902442Y-68302214D01*
X81854823Y-68397452D01*
X81807204Y-68445071D01*
X81711966Y-68492690D01*
X81331014Y-68492690D01*
X82902442Y-68873642D02*
X82854823Y-68921261D01*
X82711966Y-68968880D01*
X82616728Y-68968880D01*
X82473871Y-68921261D01*
X82378633Y-68826023D01*
X82331014Y-68730785D01*
X82283395Y-68540309D01*
X82283395Y-68397452D01*
X82331014Y-68206976D01*
X82378633Y-68111738D01*
X82473871Y-68016500D01*
X82616728Y-67968880D01*
X82711966Y-67968880D01*
X82854823Y-68016500D01*
X82902442Y-68064119D01*
X83854823Y-68968880D02*
X83283395Y-68968880D01*
X83569109Y-68968880D02*
X83569109Y-67968880D01*
X83473871Y-68111738D01*
X83378633Y-68206976D01*
X83283395Y-68254595D01*
X84188157Y-67968880D02*
X84807204Y-67968880D01*
X84473871Y-68349833D01*
X84616728Y-68349833D01*
X84711966Y-68397452D01*
X84759585Y-68445071D01*
X84807204Y-68540309D01*
X84807204Y-68778404D01*
X84759585Y-68873642D01*
X84711966Y-68921261D01*
X84616728Y-68968880D01*
X84331014Y-68968880D01*
X84235776Y-68921261D01*
X84188157Y-68873642D01*
X81307109Y-66428880D02*
X81307109Y-65428880D01*
X81688061Y-65428880D01*
X81783300Y-65476500D01*
X81830919Y-65524119D01*
X81878538Y-65619357D01*
X81878538Y-65762214D01*
X81830919Y-65857452D01*
X81783300Y-65905071D01*
X81688061Y-65952690D01*
X81307109Y-65952690D01*
X82307109Y-66428880D02*
X82307109Y-65428880D01*
X82926157Y-65857452D02*
X82830919Y-65809833D01*
X82783300Y-65762214D01*
X82735680Y-65666976D01*
X82735680Y-65619357D01*
X82783300Y-65524119D01*
X82830919Y-65476500D01*
X82926157Y-65428880D01*
X83116633Y-65428880D01*
X83211871Y-65476500D01*
X83259490Y-65524119D01*
X83307109Y-65619357D01*
X83307109Y-65666976D01*
X83259490Y-65762214D01*
X83211871Y-65809833D01*
X83116633Y-65857452D01*
X82926157Y-65857452D01*
X82830919Y-65905071D01*
X82783300Y-65952690D01*
X82735680Y-66047928D01*
X82735680Y-66238404D01*
X82783300Y-66333642D01*
X82830919Y-66381261D01*
X82926157Y-66428880D01*
X83116633Y-66428880D01*
X83211871Y-66381261D01*
X83259490Y-66333642D01*
X83307109Y-66238404D01*
X83307109Y-66047928D01*
X83259490Y-65952690D01*
X83211871Y-65905071D01*
X83116633Y-65857452D01*
X81092823Y-63825380D02*
X81092823Y-62825380D01*
X81473776Y-62825380D01*
X81569014Y-62873000D01*
X81616633Y-62920619D01*
X81664252Y-63015857D01*
X81664252Y-63158714D01*
X81616633Y-63253952D01*
X81569014Y-63301571D01*
X81473776Y-63349190D01*
X81092823Y-63349190D01*
X82092823Y-63301571D02*
X82426157Y-63301571D01*
X82569014Y-63825380D02*
X82092823Y-63825380D01*
X82092823Y-62825380D01*
X82569014Y-62825380D01*
X83426157Y-62825380D02*
X83235680Y-62825380D01*
X83140442Y-62873000D01*
X83092823Y-62920619D01*
X82997585Y-63063476D01*
X82949966Y-63253952D01*
X82949966Y-63634904D01*
X82997585Y-63730142D01*
X83045204Y-63777761D01*
X83140442Y-63825380D01*
X83330919Y-63825380D01*
X83426157Y-63777761D01*
X83473776Y-63730142D01*
X83521395Y-63634904D01*
X83521395Y-63396809D01*
X83473776Y-63301571D01*
X83426157Y-63253952D01*
X83330919Y-63206333D01*
X83140442Y-63206333D01*
X83045204Y-63253952D01*
X82997585Y-63301571D01*
X82949966Y-63396809D01*
X81092823Y-61285380D02*
X81092823Y-60285380D01*
X81473776Y-60285380D01*
X81569014Y-60333000D01*
X81616633Y-60380619D01*
X81664252Y-60475857D01*
X81664252Y-60618714D01*
X81616633Y-60713952D01*
X81569014Y-60761571D01*
X81473776Y-60809190D01*
X81092823Y-60809190D01*
X82092823Y-60761571D02*
X82426157Y-60761571D01*
X82569014Y-61285380D02*
X82092823Y-61285380D01*
X82092823Y-60285380D01*
X82569014Y-60285380D01*
X83473776Y-60285380D02*
X82997585Y-60285380D01*
X82949966Y-60761571D01*
X82997585Y-60713952D01*
X83092823Y-60666333D01*
X83330919Y-60666333D01*
X83426157Y-60713952D01*
X83473776Y-60761571D01*
X83521395Y-60856809D01*
X83521395Y-61094904D01*
X83473776Y-61190142D01*
X83426157Y-61237761D01*
X83330919Y-61285380D01*
X83092823Y-61285380D01*
X82997585Y-61237761D01*
X82949966Y-61190142D01*
X81092823Y-58745380D02*
X81092823Y-57745380D01*
X81473776Y-57745380D01*
X81569014Y-57793000D01*
X81616633Y-57840619D01*
X81664252Y-57935857D01*
X81664252Y-58078714D01*
X81616633Y-58173952D01*
X81569014Y-58221571D01*
X81473776Y-58269190D01*
X81092823Y-58269190D01*
X82092823Y-58221571D02*
X82426157Y-58221571D01*
X82569014Y-58745380D02*
X82092823Y-58745380D01*
X82092823Y-57745380D01*
X82569014Y-57745380D01*
X83426157Y-58078714D02*
X83426157Y-58745380D01*
X83188061Y-57697761D02*
X82949966Y-58412047D01*
X83569014Y-58412047D01*
X81092823Y-56395880D02*
X81092823Y-55395880D01*
X81473776Y-55395880D01*
X81569014Y-55443500D01*
X81616633Y-55491119D01*
X81664252Y-55586357D01*
X81664252Y-55729214D01*
X81616633Y-55824452D01*
X81569014Y-55872071D01*
X81473776Y-55919690D01*
X81092823Y-55919690D01*
X82092823Y-55872071D02*
X82426157Y-55872071D01*
X82569014Y-56395880D02*
X82092823Y-56395880D01*
X82092823Y-55395880D01*
X82569014Y-55395880D01*
X82902347Y-55395880D02*
X83521395Y-55395880D01*
X83188061Y-55776833D01*
X83330919Y-55776833D01*
X83426157Y-55824452D01*
X83473776Y-55872071D01*
X83521395Y-55967309D01*
X83521395Y-56205404D01*
X83473776Y-56300642D01*
X83426157Y-56348261D01*
X83330919Y-56395880D01*
X83045204Y-56395880D01*
X82949966Y-56348261D01*
X82902347Y-56300642D01*
X87244180Y-53554190D02*
X86244180Y-53554190D01*
X86244180Y-53173238D01*
X86291800Y-53078000D01*
X86339419Y-53030380D01*
X86434657Y-52982761D01*
X86577514Y-52982761D01*
X86672752Y-53030380D01*
X86720371Y-53078000D01*
X86767990Y-53173238D01*
X86767990Y-53554190D01*
X87244180Y-52554190D02*
X86244180Y-52554190D01*
X86577514Y-51649428D02*
X87244180Y-51649428D01*
X86196561Y-51887523D02*
X86910847Y-52125619D01*
X86910847Y-51506571D01*
X84640680Y-53554190D02*
X83640680Y-53554190D01*
X83640680Y-53173238D01*
X83688300Y-53078000D01*
X83735919Y-53030380D01*
X83831157Y-52982761D01*
X83974014Y-52982761D01*
X84069252Y-53030380D01*
X84116871Y-53078000D01*
X84164490Y-53173238D01*
X84164490Y-53554190D01*
X84640680Y-52554190D02*
X83640680Y-52554190D01*
X83640680Y-51601809D02*
X83640680Y-52078000D01*
X84116871Y-52125619D01*
X84069252Y-52078000D01*
X84021633Y-51982761D01*
X84021633Y-51744666D01*
X84069252Y-51649428D01*
X84116871Y-51601809D01*
X84212109Y-51554190D01*
X84450204Y-51554190D01*
X84545442Y-51601809D01*
X84593061Y-51649428D01*
X84640680Y-51744666D01*
X84640680Y-51982761D01*
X84593061Y-52078000D01*
X84545442Y-52125619D01*
X83180180Y-53554190D02*
X82180180Y-53554190D01*
X82180180Y-53173238D01*
X82227800Y-53078000D01*
X82275419Y-53030380D01*
X82370657Y-52982761D01*
X82513514Y-52982761D01*
X82608752Y-53030380D01*
X82656371Y-53078000D01*
X82703990Y-53173238D01*
X82703990Y-53554190D01*
X83180180Y-52554190D02*
X82180180Y-52554190D01*
X82180180Y-51649428D02*
X82180180Y-51839904D01*
X82227800Y-51935142D01*
X82275419Y-51982761D01*
X82418276Y-52078000D01*
X82608752Y-52125619D01*
X82989704Y-52125619D01*
X83084942Y-52078000D01*
X83132561Y-52030380D01*
X83180180Y-51935142D01*
X83180180Y-51744666D01*
X83132561Y-51649428D01*
X83084942Y-51601809D01*
X82989704Y-51554190D01*
X82751609Y-51554190D01*
X82656371Y-51601809D01*
X82608752Y-51649428D01*
X82561133Y-51744666D01*
X82561133Y-51935142D01*
X82608752Y-52030380D01*
X82656371Y-52078000D01*
X82751609Y-52125619D01*
X82037180Y-53554190D02*
X81037180Y-53554190D01*
X81037180Y-53173238D01*
X81084800Y-53078000D01*
X81132419Y-53030380D01*
X81227657Y-52982761D01*
X81370514Y-52982761D01*
X81465752Y-53030380D01*
X81513371Y-53078000D01*
X81560990Y-53173238D01*
X81560990Y-53554190D01*
X82037180Y-52554190D02*
X81037180Y-52554190D01*
X81037180Y-52173238D02*
X81037180Y-51506571D01*
X82037180Y-51935142D01*
X81092823Y-54998880D02*
X81092823Y-53998880D01*
X81473776Y-53998880D01*
X81569014Y-54046500D01*
X81616633Y-54094119D01*
X81664252Y-54189357D01*
X81664252Y-54332214D01*
X81616633Y-54427452D01*
X81569014Y-54475071D01*
X81473776Y-54522690D01*
X81092823Y-54522690D01*
X82092823Y-54475071D02*
X82426157Y-54475071D01*
X82569014Y-54998880D02*
X82092823Y-54998880D01*
X82092823Y-53998880D01*
X82569014Y-53998880D01*
X82949966Y-54094119D02*
X82997585Y-54046500D01*
X83092823Y-53998880D01*
X83330919Y-53998880D01*
X83426157Y-54046500D01*
X83473776Y-54094119D01*
X83521395Y-54189357D01*
X83521395Y-54284595D01*
X83473776Y-54427452D01*
X82902347Y-54998880D01*
X83521395Y-54998880D01*
X164706347Y-118435428D02*
X165468252Y-118435428D01*
X165087300Y-118816380D02*
X165087300Y-118054476D01*
X163817347Y-123388428D02*
X164579252Y-123388428D01*
X164198300Y-123769380D02*
X164198300Y-123007476D01*
X158102347Y-66111428D02*
X158864252Y-66111428D01*
X158483300Y-66492380D02*
X158483300Y-65730476D01*
X104825847Y-60586928D02*
X105587752Y-60586928D01*
X105206800Y-60967880D02*
X105206800Y-60205976D01*
X97332847Y-85923428D02*
X98094752Y-85923428D01*
X97713800Y-86304380D02*
X97713800Y-85542476D01*
X107302347Y-72143928D02*
X108064252Y-72143928D01*
X107683300Y-72524880D02*
X107683300Y-71762976D01*
D11*
X149533300Y-108376500D02*
X149533300Y-107046500D01*
X150863300Y-108376500D02*
X149533300Y-108376500D01*
X152133300Y-108376500D02*
X152133300Y-105716500D01*
X152133300Y-105716500D02*
X162353300Y-105716500D01*
X152133300Y-108376500D02*
X162353300Y-108376500D01*
X162353300Y-108376500D02*
X162353300Y-105716500D01*
X149533300Y-113026500D02*
X149533300Y-111696500D01*
X150863300Y-113026500D02*
X149533300Y-113026500D01*
X152133300Y-113026500D02*
X152133300Y-110366500D01*
X152133300Y-110366500D02*
X162353300Y-110366500D01*
X152133300Y-113026500D02*
X162353300Y-113026500D01*
X162353300Y-113026500D02*
X162353300Y-110366500D01*
X126122600Y-101302736D02*
X126122600Y-102506864D01*
X128842600Y-101302736D02*
X128842600Y-102506864D01*
X134661600Y-67427800D02*
X134661600Y-72627800D01*
X157581600Y-67427800D02*
X134661600Y-67427800D01*
X160181600Y-72627800D02*
X134661600Y-72627800D01*
X157581600Y-67427800D02*
X157581600Y-70027800D01*
X157581600Y-70027800D02*
X160181600Y-70027800D01*
X160181600Y-70027800D02*
X160181600Y-72627800D01*
X158851600Y-67427800D02*
X160181600Y-67427800D01*
X160181600Y-67427800D02*
X160181600Y-68757800D01*
X77765600Y-128228400D02*
X80425600Y-128228400D01*
X77765600Y-54508400D02*
X77765600Y-128228400D01*
X80425600Y-54508400D02*
X80425600Y-128228400D01*
X77765600Y-54508400D02*
X80425600Y-54508400D01*
X77765600Y-53238400D02*
X77765600Y-51908400D01*
X77765600Y-51908400D02*
X79095600Y-51908400D01*
X166734800Y-51857600D02*
X164074800Y-51857600D01*
X166734800Y-107797600D02*
X166734800Y-51857600D01*
X164074800Y-107797600D02*
X164074800Y-51857600D01*
X166734800Y-107797600D02*
X164074800Y-107797600D01*
X166734800Y-109067600D02*
X166734800Y-110397600D01*
X166734800Y-110397600D02*
X165404800Y-110397600D01*
D12*
X159713300Y-144249000D02*
X159713300Y-145249000D01*
X159713300Y-145249000D02*
X167413300Y-145249000D01*
X167413300Y-145249000D02*
X167413300Y-144249000D01*
X159713300Y-140249000D02*
X159713300Y-138749000D01*
X167413300Y-140249000D02*
X167413300Y-138749000D01*
X160563300Y-135929000D02*
X161063300Y-135929000D01*
X166063300Y-135929000D02*
X166563300Y-135929000D01*
X92097600Y-60163200D02*
X86697600Y-60163200D01*
X86697600Y-60163200D02*
X86697600Y-63163200D01*
X86697600Y-67163200D02*
X86697600Y-70163200D01*
X86697600Y-70163200D02*
X103497600Y-70163200D01*
X103497600Y-70163200D02*
X103497600Y-67163200D01*
X103497600Y-63163200D02*
X103497600Y-60163200D01*
X103497600Y-60163200D02*
X97097600Y-60163200D01*
D11*
X98504600Y-87669800D02*
X98264600Y-87669800D01*
X98504600Y-89469800D02*
X98504600Y-87669800D01*
X102104600Y-87669800D02*
X102104600Y-89469800D01*
X100704600Y-91269800D02*
X99904600Y-91269800D01*
X99904600Y-85869800D02*
X100704600Y-85869800D01*
X99904600Y-85469800D02*
X99904600Y-85869800D01*
X103363600Y-75804800D02*
X101563600Y-75804800D01*
X101513600Y-77204800D02*
X101513600Y-78304800D01*
X103413600Y-77204800D02*
X103413600Y-78304800D01*
X137766036Y-76721800D02*
X138970164Y-76721800D01*
X137766036Y-74001800D02*
X138970164Y-74001800D01*
X77765600Y-131886000D02*
X77765600Y-130556000D01*
X79095600Y-131886000D02*
X77765600Y-131886000D01*
X80365600Y-131886000D02*
X80365600Y-129226000D01*
X80365600Y-129226000D02*
X169325600Y-129226000D01*
X80365600Y-131886000D02*
X169325600Y-131886000D01*
X169325600Y-131886000D02*
X169325600Y-129226000D01*
X166785600Y-48250800D02*
X166785600Y-49580800D01*
X165455600Y-48250800D02*
X166785600Y-48250800D01*
X164185600Y-48250800D02*
X164185600Y-50910800D01*
X164185600Y-50910800D02*
X77765600Y-50910800D01*
X164185600Y-48250800D02*
X77765600Y-48250800D01*
X77765600Y-48250800D02*
X77765600Y-50910800D01*
X153323600Y-91042800D02*
X153323600Y-88382800D01*
X140563600Y-91042800D02*
X153323600Y-91042800D01*
X140563600Y-88382800D02*
X153323600Y-88382800D01*
X140563600Y-91042800D02*
X140563600Y-88382800D01*
X139293600Y-91042800D02*
X137963600Y-91042800D01*
X137963600Y-91042800D02*
X137963600Y-89712800D01*
X157016400Y-123581600D02*
X157016400Y-117571600D01*
X163836400Y-121331600D02*
X163836400Y-117571600D01*
X157016400Y-117571600D02*
X158276400Y-117571600D01*
X163836400Y-117571600D02*
X162576400Y-117571600D01*
X147237400Y-57783200D02*
X154057400Y-57783200D01*
X147237400Y-62003200D02*
X154057400Y-62003200D01*
X147237400Y-57783200D02*
X147237400Y-59093200D01*
X147237400Y-60693200D02*
X147237400Y-62003200D01*
X154057400Y-57783200D02*
X154057400Y-59093200D01*
X154057400Y-60693200D02*
X154057400Y-62003200D01*
X146997400Y-57543200D02*
X148380400Y-57543200D01*
X146997400Y-57543200D02*
X146997400Y-58926200D01*
X148837400Y-59258200D02*
X148837400Y-60528200D01*
X148837400Y-60528200D02*
X152457400Y-60528200D01*
X152457400Y-60528200D02*
X152457400Y-59258200D01*
X152457400Y-59258200D02*
X148837400Y-59258200D01*
X148837400Y-59378200D02*
X150044067Y-59378200D01*
X148837400Y-59498200D02*
X150044067Y-59498200D01*
X148837400Y-59618200D02*
X150044067Y-59618200D01*
X148837400Y-59738200D02*
X150044067Y-59738200D01*
X148837400Y-59858200D02*
X150044067Y-59858200D01*
X148837400Y-59978200D02*
X150044067Y-59978200D01*
X148837400Y-60098200D02*
X150044067Y-60098200D01*
X148837400Y-60218200D02*
X150044067Y-60218200D01*
X148837400Y-60338200D02*
X150044067Y-60338200D01*
X148837400Y-60458200D02*
X150044067Y-60458200D01*
X150044067Y-59258200D02*
X150044067Y-60528200D01*
X105502400Y-70773600D02*
X108162400Y-70773600D01*
X105502400Y-65633600D02*
X105502400Y-70773600D01*
X108162400Y-65633600D02*
X108162400Y-70773600D01*
X105502400Y-65633600D02*
X108162400Y-65633600D01*
X105502400Y-64363600D02*
X105502400Y-63033600D01*
X105502400Y-63033600D02*
X106832400Y-63033600D01*
X149869200Y-143154400D02*
X149869200Y-144484400D01*
X149869200Y-144484400D02*
X148539200Y-144484400D01*
X149869200Y-141884400D02*
X147269200Y-141884400D01*
X147269200Y-141884400D02*
X147269200Y-144484400D01*
X147269200Y-144484400D02*
X106569200Y-144484400D01*
X106569200Y-139284400D02*
X106569200Y-144484400D01*
X149869200Y-139284400D02*
X106569200Y-139284400D01*
X149869200Y-139284400D02*
X149869200Y-141884400D01*
X108895600Y-73472800D02*
X107580600Y-73472800D01*
X108895600Y-72522800D02*
X108895600Y-73472800D01*
X109845600Y-72522800D02*
X108895600Y-72522800D01*
X133115600Y-72522800D02*
X133115600Y-73472800D01*
X132165600Y-72522800D02*
X133115600Y-72522800D01*
X108895600Y-96742800D02*
X108895600Y-95792800D01*
X109845600Y-96742800D02*
X108895600Y-96742800D01*
X133115600Y-96742800D02*
X133115600Y-95792800D01*
X132165600Y-96742800D02*
X133115600Y-96742800D01*
D10*
X148033300Y-107808404D02*
X147985680Y-107903642D01*
X147985680Y-108046500D01*
X148033300Y-108189357D01*
X148128538Y-108284595D01*
X148223776Y-108332214D01*
X148414252Y-108379833D01*
X148557109Y-108379833D01*
X148747585Y-108332214D01*
X148842823Y-108284595D01*
X148938061Y-108189357D01*
X148985680Y-108046500D01*
X148985680Y-107951261D01*
X148938061Y-107808404D01*
X148890442Y-107760785D01*
X148557109Y-107760785D01*
X148557109Y-107951261D01*
X148985680Y-107332214D02*
X147985680Y-107332214D01*
X148985680Y-106760785D01*
X147985680Y-106760785D01*
X148985680Y-106284595D02*
X147985680Y-106284595D01*
X147985680Y-106046500D01*
X148033300Y-105903642D01*
X148128538Y-105808404D01*
X148223776Y-105760785D01*
X148414252Y-105713166D01*
X148557109Y-105713166D01*
X148747585Y-105760785D01*
X148842823Y-105808404D01*
X148938061Y-105903642D01*
X148985680Y-106046500D01*
X148985680Y-106284595D01*
X148604728Y-113696500D02*
X148604728Y-112934595D01*
X148985680Y-113315547D02*
X148223776Y-113315547D01*
X147985680Y-112553642D02*
X147985680Y-111934595D01*
X148366633Y-112267928D01*
X148366633Y-112125071D01*
X148414252Y-112029833D01*
X148461871Y-111982214D01*
X148557109Y-111934595D01*
X148795204Y-111934595D01*
X148890442Y-111982214D01*
X148938061Y-112029833D01*
X148985680Y-112125071D01*
X148985680Y-112410785D01*
X148938061Y-112506023D01*
X148890442Y-112553642D01*
X148890442Y-111506023D02*
X148938061Y-111458404D01*
X148985680Y-111506023D01*
X148938061Y-111553642D01*
X148890442Y-111506023D01*
X148985680Y-111506023D01*
X147985680Y-111125071D02*
X147985680Y-110506023D01*
X148366633Y-110839357D01*
X148366633Y-110696500D01*
X148414252Y-110601261D01*
X148461871Y-110553642D01*
X148557109Y-110506023D01*
X148795204Y-110506023D01*
X148890442Y-110553642D01*
X148938061Y-110601261D01*
X148985680Y-110696500D01*
X148985680Y-110982214D01*
X148938061Y-111077452D01*
X148890442Y-111125071D01*
X147985680Y-110220309D02*
X148985680Y-109886976D01*
X147985680Y-109553642D01*
X128030242Y-105627466D02*
X128077861Y-105675085D01*
X128125480Y-105817942D01*
X128125480Y-105913180D01*
X128077861Y-106056038D01*
X127982623Y-106151276D01*
X127887385Y-106198895D01*
X127696909Y-106246514D01*
X127554052Y-106246514D01*
X127363576Y-106198895D01*
X127268338Y-106151276D01*
X127173100Y-106056038D01*
X127125480Y-105913180D01*
X127125480Y-105817942D01*
X127173100Y-105675085D01*
X127220719Y-105627466D01*
X127125480Y-104770323D02*
X127125480Y-104960800D01*
X127173100Y-105056038D01*
X127220719Y-105103657D01*
X127363576Y-105198895D01*
X127554052Y-105246514D01*
X127935004Y-105246514D01*
X128030242Y-105198895D01*
X128077861Y-105151276D01*
X128125480Y-105056038D01*
X128125480Y-104865561D01*
X128077861Y-104770323D01*
X128030242Y-104722704D01*
X127935004Y-104675085D01*
X127696909Y-104675085D01*
X127601671Y-104722704D01*
X127554052Y-104770323D01*
X127506433Y-104865561D01*
X127506433Y-105056038D01*
X127554052Y-105151276D01*
X127601671Y-105198895D01*
X127696909Y-105246514D01*
X148172633Y-74191880D02*
X148172633Y-74906166D01*
X148125014Y-75049023D01*
X148029776Y-75144261D01*
X147886919Y-75191880D01*
X147791680Y-75191880D01*
X148505966Y-74191880D02*
X149077395Y-74191880D01*
X148791680Y-75191880D02*
X148791680Y-74191880D01*
X149363109Y-74906166D02*
X149839300Y-74906166D01*
X149267871Y-75191880D02*
X149601204Y-74191880D01*
X149934538Y-75191880D01*
X150791680Y-74239500D02*
X150696442Y-74191880D01*
X150553585Y-74191880D01*
X150410728Y-74239500D01*
X150315490Y-74334738D01*
X150267871Y-74429976D01*
X150220252Y-74620452D01*
X150220252Y-74763309D01*
X150267871Y-74953785D01*
X150315490Y-75049023D01*
X150410728Y-75144261D01*
X150553585Y-75191880D01*
X150648823Y-75191880D01*
X150791680Y-75144261D01*
X150839300Y-75096642D01*
X150839300Y-74763309D01*
X150648823Y-74763309D01*
D13*
X163139966Y-139728523D02*
X163139966Y-140635666D01*
X163079490Y-140817095D01*
X162958538Y-140938047D01*
X162777109Y-140998523D01*
X162656157Y-140998523D01*
X163623776Y-139728523D02*
X164409966Y-139728523D01*
X163986633Y-140212333D01*
X164168061Y-140212333D01*
X164289014Y-140272809D01*
X164349490Y-140333285D01*
X164409966Y-140454238D01*
X164409966Y-140756619D01*
X164349490Y-140877571D01*
X164289014Y-140938047D01*
X164168061Y-140998523D01*
X163805204Y-140998523D01*
X163684252Y-140938047D01*
X163623776Y-140877571D01*
X93857838Y-65737723D02*
X93857838Y-64467723D01*
X95188314Y-65616771D02*
X95127838Y-65677247D01*
X94946409Y-65737723D01*
X94825457Y-65737723D01*
X94644028Y-65677247D01*
X94523076Y-65556295D01*
X94462600Y-65435342D01*
X94402123Y-65193438D01*
X94402123Y-65012009D01*
X94462600Y-64770104D01*
X94523076Y-64649152D01*
X94644028Y-64528200D01*
X94825457Y-64467723D01*
X94946409Y-64467723D01*
X95127838Y-64528200D01*
X95188314Y-64588676D01*
X96397838Y-65737723D02*
X95672123Y-65737723D01*
X96034980Y-65737723D02*
X96034980Y-64467723D01*
X95914028Y-64649152D01*
X95793076Y-64770104D01*
X95672123Y-64830580D01*
D10*
X105018742Y-87625180D02*
X104685409Y-87148990D01*
X104447314Y-87625180D02*
X104447314Y-86625180D01*
X104828266Y-86625180D01*
X104923504Y-86672800D01*
X104971123Y-86720419D01*
X105018742Y-86815657D01*
X105018742Y-86958514D01*
X104971123Y-87053752D01*
X104923504Y-87101371D01*
X104828266Y-87148990D01*
X104447314Y-87148990D01*
X105971123Y-87625180D02*
X105399695Y-87625180D01*
X105685409Y-87625180D02*
X105685409Y-86625180D01*
X105590171Y-86768038D01*
X105494933Y-86863276D01*
X105399695Y-86910895D01*
X106590171Y-86625180D02*
X106685409Y-86625180D01*
X106780647Y-86672800D01*
X106828266Y-86720419D01*
X106875885Y-86815657D01*
X106923504Y-87006133D01*
X106923504Y-87244228D01*
X106875885Y-87434704D01*
X106828266Y-87529942D01*
X106780647Y-87577561D01*
X106685409Y-87625180D01*
X106590171Y-87625180D01*
X106494933Y-87577561D01*
X106447314Y-87529942D01*
X106399695Y-87434704D01*
X106352076Y-87244228D01*
X106352076Y-87006133D01*
X106399695Y-86815657D01*
X106447314Y-86720419D01*
X106494933Y-86672800D01*
X106590171Y-86625180D01*
X99828409Y-92749690D02*
X99828409Y-93225880D01*
X99495076Y-92225880D02*
X99828409Y-92749690D01*
X100161742Y-92225880D01*
X100447457Y-92321119D02*
X100495076Y-92273500D01*
X100590314Y-92225880D01*
X100828409Y-92225880D01*
X100923647Y-92273500D01*
X100971266Y-92321119D01*
X101018885Y-92416357D01*
X101018885Y-92511595D01*
X100971266Y-92654452D01*
X100399838Y-93225880D01*
X101018885Y-93225880D01*
X101987409Y-74956990D02*
X101987409Y-75433180D01*
X101654076Y-74433180D02*
X101987409Y-74956990D01*
X102320742Y-74433180D01*
X103177885Y-75433180D02*
X102606457Y-75433180D01*
X102892171Y-75433180D02*
X102892171Y-74433180D01*
X102796933Y-74576038D01*
X102701695Y-74671276D01*
X102606457Y-74718895D01*
X141666933Y-75591942D02*
X141619314Y-75639561D01*
X141476457Y-75687180D01*
X141381219Y-75687180D01*
X141238361Y-75639561D01*
X141143123Y-75544323D01*
X141095504Y-75449085D01*
X141047885Y-75258609D01*
X141047885Y-75115752D01*
X141095504Y-74925276D01*
X141143123Y-74830038D01*
X141238361Y-74734800D01*
X141381219Y-74687180D01*
X141476457Y-74687180D01*
X141619314Y-74734800D01*
X141666933Y-74782419D01*
X142000266Y-74687180D02*
X142666933Y-74687180D01*
X142238361Y-75687180D01*
X143698933Y-65222380D02*
X143365600Y-64746190D01*
X143127504Y-65222380D02*
X143127504Y-64222380D01*
X143508457Y-64222380D01*
X143603695Y-64270000D01*
X143651314Y-64317619D01*
X143698933Y-64412857D01*
X143698933Y-64555714D01*
X143651314Y-64650952D01*
X143603695Y-64698571D01*
X143508457Y-64746190D01*
X143127504Y-64746190D01*
X144270361Y-64650952D02*
X144175123Y-64603333D01*
X144127504Y-64555714D01*
X144079885Y-64460476D01*
X144079885Y-64412857D01*
X144127504Y-64317619D01*
X144175123Y-64270000D01*
X144270361Y-64222380D01*
X144460838Y-64222380D01*
X144556076Y-64270000D01*
X144603695Y-64317619D01*
X144651314Y-64412857D01*
X144651314Y-64460476D01*
X144603695Y-64555714D01*
X144556076Y-64603333D01*
X144460838Y-64650952D01*
X144270361Y-64650952D01*
X144175123Y-64698571D01*
X144127504Y-64746190D01*
X144079885Y-64841428D01*
X144079885Y-65031904D01*
X144127504Y-65127142D01*
X144175123Y-65174761D01*
X144270361Y-65222380D01*
X144460838Y-65222380D01*
X144556076Y-65174761D01*
X144603695Y-65127142D01*
X144651314Y-65031904D01*
X144651314Y-64841428D01*
X144603695Y-64746190D01*
X144556076Y-64698571D01*
X144460838Y-64650952D01*
X132735580Y-69559466D02*
X132259390Y-69892800D01*
X132735580Y-70130895D02*
X131735580Y-70130895D01*
X131735580Y-69749942D01*
X131783200Y-69654704D01*
X131830819Y-69607085D01*
X131926057Y-69559466D01*
X132068914Y-69559466D01*
X132164152Y-69607085D01*
X132211771Y-69654704D01*
X132259390Y-69749942D01*
X132259390Y-70130895D01*
X131735580Y-69226133D02*
X131735580Y-68559466D01*
X132735580Y-68988038D01*
X138974533Y-65322380D02*
X138641200Y-64846190D01*
X138403104Y-65322380D02*
X138403104Y-64322380D01*
X138784057Y-64322380D01*
X138879295Y-64370000D01*
X138926914Y-64417619D01*
X138974533Y-64512857D01*
X138974533Y-64655714D01*
X138926914Y-64750952D01*
X138879295Y-64798571D01*
X138784057Y-64846190D01*
X138403104Y-64846190D01*
X139831676Y-64322380D02*
X139641200Y-64322380D01*
X139545961Y-64370000D01*
X139498342Y-64417619D01*
X139403104Y-64560476D01*
X139355485Y-64750952D01*
X139355485Y-65131904D01*
X139403104Y-65227142D01*
X139450723Y-65274761D01*
X139545961Y-65322380D01*
X139736438Y-65322380D01*
X139831676Y-65274761D01*
X139879295Y-65227142D01*
X139926914Y-65131904D01*
X139926914Y-64893809D01*
X139879295Y-64798571D01*
X139831676Y-64750952D01*
X139736438Y-64703333D01*
X139545961Y-64703333D01*
X139450723Y-64750952D01*
X139403104Y-64798571D01*
X139355485Y-64893809D01*
X137415980Y-90688990D02*
X136415980Y-90688990D01*
X136415980Y-90450895D01*
X136463600Y-90308038D01*
X136558838Y-90212800D01*
X136654076Y-90165180D01*
X136844552Y-90117561D01*
X136987409Y-90117561D01*
X137177885Y-90165180D01*
X137273123Y-90212800D01*
X137368361Y-90308038D01*
X137415980Y-90450895D01*
X137415980Y-90688990D01*
X137368361Y-89736609D02*
X137415980Y-89593752D01*
X137415980Y-89355657D01*
X137368361Y-89260419D01*
X137320742Y-89212800D01*
X137225504Y-89165180D01*
X137130266Y-89165180D01*
X137035028Y-89212800D01*
X136987409Y-89260419D01*
X136939790Y-89355657D01*
X136892171Y-89546133D01*
X136844552Y-89641371D01*
X136796933Y-89688990D01*
X136701695Y-89736609D01*
X136606457Y-89736609D01*
X136511219Y-89688990D01*
X136463600Y-89641371D01*
X136415980Y-89546133D01*
X136415980Y-89308038D01*
X136463600Y-89165180D01*
X137415980Y-88736609D02*
X136415980Y-88736609D01*
X167133542Y-113901457D02*
X167181161Y-113949076D01*
X167228780Y-114091933D01*
X167228780Y-114187171D01*
X167181161Y-114330028D01*
X167085923Y-114425266D01*
X166990685Y-114472885D01*
X166800209Y-114520504D01*
X166657352Y-114520504D01*
X166466876Y-114472885D01*
X166371638Y-114425266D01*
X166276400Y-114330028D01*
X166228780Y-114187171D01*
X166228780Y-114091933D01*
X166276400Y-113949076D01*
X166324019Y-113901457D01*
X167228780Y-112949076D02*
X167228780Y-113520504D01*
X167228780Y-113234790D02*
X166228780Y-113234790D01*
X166371638Y-113330028D01*
X166466876Y-113425266D01*
X166514495Y-113520504D01*
X166228780Y-112330028D02*
X166228780Y-112234790D01*
X166276400Y-112139552D01*
X166324019Y-112091933D01*
X166419257Y-112044314D01*
X166609733Y-111996695D01*
X166847828Y-111996695D01*
X167038304Y-112044314D01*
X167133542Y-112091933D01*
X167181161Y-112139552D01*
X167228780Y-112234790D01*
X167228780Y-112330028D01*
X167181161Y-112425266D01*
X167133542Y-112472885D01*
X167038304Y-112520504D01*
X166847828Y-112568123D01*
X166609733Y-112568123D01*
X166419257Y-112520504D01*
X166324019Y-112472885D01*
X166276400Y-112425266D01*
X166228780Y-112330028D01*
X165482542Y-113679266D02*
X165530161Y-113726885D01*
X165577780Y-113869742D01*
X165577780Y-113964980D01*
X165530161Y-114107838D01*
X165434923Y-114203076D01*
X165339685Y-114250695D01*
X165149209Y-114298314D01*
X165006352Y-114298314D01*
X164815876Y-114250695D01*
X164720638Y-114203076D01*
X164625400Y-114107838D01*
X164577780Y-113964980D01*
X164577780Y-113869742D01*
X164625400Y-113726885D01*
X164673019Y-113679266D01*
X165577780Y-113203076D02*
X165577780Y-113012600D01*
X165530161Y-112917361D01*
X165482542Y-112869742D01*
X165339685Y-112774504D01*
X165149209Y-112726885D01*
X164768257Y-112726885D01*
X164673019Y-112774504D01*
X164625400Y-112822123D01*
X164577780Y-112917361D01*
X164577780Y-113107838D01*
X164625400Y-113203076D01*
X164673019Y-113250695D01*
X164768257Y-113298314D01*
X165006352Y-113298314D01*
X165101590Y-113250695D01*
X165149209Y-113203076D01*
X165196828Y-113107838D01*
X165196828Y-112917361D01*
X165149209Y-112822123D01*
X165101590Y-112774504D01*
X165006352Y-112726885D01*
X165108733Y-121589742D02*
X165061114Y-121637361D01*
X164918257Y-121684980D01*
X164823019Y-121684980D01*
X164680161Y-121637361D01*
X164584923Y-121542123D01*
X164537304Y-121446885D01*
X164489685Y-121256409D01*
X164489685Y-121113552D01*
X164537304Y-120923076D01*
X164584923Y-120827838D01*
X164680161Y-120732600D01*
X164823019Y-120684980D01*
X164918257Y-120684980D01*
X165061114Y-120732600D01*
X165108733Y-120780219D01*
X165680161Y-121113552D02*
X165584923Y-121065933D01*
X165537304Y-121018314D01*
X165489685Y-120923076D01*
X165489685Y-120875457D01*
X165537304Y-120780219D01*
X165584923Y-120732600D01*
X165680161Y-120684980D01*
X165870638Y-120684980D01*
X165965876Y-120732600D01*
X166013495Y-120780219D01*
X166061114Y-120875457D01*
X166061114Y-120923076D01*
X166013495Y-121018314D01*
X165965876Y-121065933D01*
X165870638Y-121113552D01*
X165680161Y-121113552D01*
X165584923Y-121161171D01*
X165537304Y-121208790D01*
X165489685Y-121304028D01*
X165489685Y-121494504D01*
X165537304Y-121589742D01*
X165584923Y-121637361D01*
X165680161Y-121684980D01*
X165870638Y-121684980D01*
X165965876Y-121637361D01*
X166013495Y-121589742D01*
X166061114Y-121494504D01*
X166061114Y-121304028D01*
X166013495Y-121208790D01*
X165965876Y-121161171D01*
X165870638Y-121113552D01*
X164730133Y-133076880D02*
X164396800Y-132600690D01*
X164158704Y-133076880D02*
X164158704Y-132076880D01*
X164539657Y-132076880D01*
X164634895Y-132124500D01*
X164682514Y-132172119D01*
X164730133Y-132267357D01*
X164730133Y-132410214D01*
X164682514Y-132505452D01*
X164634895Y-132553071D01*
X164539657Y-132600690D01*
X164158704Y-132600690D01*
X165634895Y-132076880D02*
X165158704Y-132076880D01*
X165111085Y-132553071D01*
X165158704Y-132505452D01*
X165253942Y-132457833D01*
X165492038Y-132457833D01*
X165587276Y-132505452D01*
X165634895Y-132553071D01*
X165682514Y-132648309D01*
X165682514Y-132886404D01*
X165634895Y-132981642D01*
X165587276Y-133029261D01*
X165492038Y-133076880D01*
X165253942Y-133076880D01*
X165158704Y-133029261D01*
X165111085Y-132981642D01*
X155459180Y-119951404D02*
X156268704Y-119951404D01*
X156363942Y-119903785D01*
X156411561Y-119856166D01*
X156459180Y-119760928D01*
X156459180Y-119570452D01*
X156411561Y-119475214D01*
X156363942Y-119427595D01*
X156268704Y-119379976D01*
X155459180Y-119379976D01*
X155554419Y-118951404D02*
X155506800Y-118903785D01*
X155459180Y-118808547D01*
X155459180Y-118570452D01*
X155506800Y-118475214D01*
X155554419Y-118427595D01*
X155649657Y-118379976D01*
X155744895Y-118379976D01*
X155887752Y-118427595D01*
X156459180Y-118999023D01*
X156459180Y-118379976D01*
X149195019Y-57235580D02*
X148861685Y-56759390D01*
X148623590Y-57235580D02*
X148623590Y-56235580D01*
X149004542Y-56235580D01*
X149099780Y-56283200D01*
X149147400Y-56330819D01*
X149195019Y-56426057D01*
X149195019Y-56568914D01*
X149147400Y-56664152D01*
X149099780Y-56711771D01*
X149004542Y-56759390D01*
X148623590Y-56759390D01*
X149623590Y-56711771D02*
X149956923Y-56711771D01*
X150099780Y-57235580D02*
X149623590Y-57235580D01*
X149623590Y-56235580D01*
X150099780Y-56235580D01*
X150480733Y-57187961D02*
X150623590Y-57235580D01*
X150861685Y-57235580D01*
X150956923Y-57187961D01*
X151004542Y-57140342D01*
X151052161Y-57045104D01*
X151052161Y-56949866D01*
X151004542Y-56854628D01*
X150956923Y-56807009D01*
X150861685Y-56759390D01*
X150671209Y-56711771D01*
X150575971Y-56664152D01*
X150528352Y-56616533D01*
X150480733Y-56521295D01*
X150480733Y-56426057D01*
X150528352Y-56330819D01*
X150575971Y-56283200D01*
X150671209Y-56235580D01*
X150909304Y-56235580D01*
X151052161Y-56283200D01*
X151480733Y-56711771D02*
X151814066Y-56711771D01*
X151956923Y-57235580D02*
X151480733Y-57235580D01*
X151480733Y-56235580D01*
X151956923Y-56235580D01*
X152242638Y-56235580D02*
X152814066Y-56235580D01*
X152528352Y-57235580D02*
X152528352Y-56235580D01*
X153046133Y-64841380D02*
X152712800Y-64365190D01*
X152474704Y-64841380D02*
X152474704Y-63841380D01*
X152855657Y-63841380D01*
X152950895Y-63889000D01*
X152998514Y-63936619D01*
X153046133Y-64031857D01*
X153046133Y-64174714D01*
X152998514Y-64269952D01*
X152950895Y-64317571D01*
X152855657Y-64365190D01*
X152474704Y-64365190D01*
X153427085Y-63936619D02*
X153474704Y-63889000D01*
X153569942Y-63841380D01*
X153808038Y-63841380D01*
X153903276Y-63889000D01*
X153950895Y-63936619D01*
X153998514Y-64031857D01*
X153998514Y-64127095D01*
X153950895Y-64269952D01*
X153379466Y-64841380D01*
X153998514Y-64841380D01*
X106499066Y-61485980D02*
X106499066Y-62200266D01*
X106451447Y-62343123D01*
X106356209Y-62438361D01*
X106213352Y-62485980D01*
X106118114Y-62485980D01*
X107403828Y-61819314D02*
X107403828Y-62485980D01*
X107165733Y-61438361D02*
X106927638Y-62152647D01*
X107546685Y-62152647D01*
X152919133Y-63539642D02*
X152871514Y-63587261D01*
X152728657Y-63634880D01*
X152633419Y-63634880D01*
X152490561Y-63587261D01*
X152395323Y-63492023D01*
X152347704Y-63396785D01*
X152300085Y-63206309D01*
X152300085Y-63063452D01*
X152347704Y-62872976D01*
X152395323Y-62777738D01*
X152490561Y-62682500D01*
X152633419Y-62634880D01*
X152728657Y-62634880D01*
X152871514Y-62682500D01*
X152919133Y-62730119D01*
X153823895Y-62634880D02*
X153347704Y-62634880D01*
X153300085Y-63111071D01*
X153347704Y-63063452D01*
X153442942Y-63015833D01*
X153681038Y-63015833D01*
X153776276Y-63063452D01*
X153823895Y-63111071D01*
X153871514Y-63206309D01*
X153871514Y-63444404D01*
X153823895Y-63539642D01*
X153776276Y-63587261D01*
X153681038Y-63634880D01*
X153442942Y-63634880D01*
X153347704Y-63587261D01*
X153300085Y-63539642D01*
X103519242Y-91720966D02*
X103566861Y-91768585D01*
X103614480Y-91911442D01*
X103614480Y-92006680D01*
X103566861Y-92149538D01*
X103471623Y-92244776D01*
X103376385Y-92292395D01*
X103185909Y-92340014D01*
X103043052Y-92340014D01*
X102852576Y-92292395D01*
X102757338Y-92244776D01*
X102662100Y-92149538D01*
X102614480Y-92006680D01*
X102614480Y-91911442D01*
X102662100Y-91768585D01*
X102709719Y-91720966D01*
X102947814Y-90863823D02*
X103614480Y-90863823D01*
X102566861Y-91101919D02*
X103281147Y-91340014D01*
X103281147Y-90720966D01*
X103595442Y-85447166D02*
X103643061Y-85494785D01*
X103690680Y-85637642D01*
X103690680Y-85732880D01*
X103643061Y-85875738D01*
X103547823Y-85970976D01*
X103452585Y-86018595D01*
X103262109Y-86066214D01*
X103119252Y-86066214D01*
X102928776Y-86018595D01*
X102833538Y-85970976D01*
X102738300Y-85875738D01*
X102690680Y-85732880D01*
X102690680Y-85637642D01*
X102738300Y-85494785D01*
X102785919Y-85447166D01*
X102690680Y-85113833D02*
X102690680Y-84494785D01*
X103071633Y-84828119D01*
X103071633Y-84685261D01*
X103119252Y-84590023D01*
X103166871Y-84542404D01*
X103262109Y-84494785D01*
X103500204Y-84494785D01*
X103595442Y-84542404D01*
X103643061Y-84590023D01*
X103690680Y-84685261D01*
X103690680Y-84970976D01*
X103643061Y-85066214D01*
X103595442Y-85113833D01*
X104801942Y-80684666D02*
X104849561Y-80732285D01*
X104897180Y-80875142D01*
X104897180Y-80970380D01*
X104849561Y-81113238D01*
X104754323Y-81208476D01*
X104659085Y-81256095D01*
X104468609Y-81303714D01*
X104325752Y-81303714D01*
X104135276Y-81256095D01*
X104040038Y-81208476D01*
X103944800Y-81113238D01*
X103897180Y-80970380D01*
X103897180Y-80875142D01*
X103944800Y-80732285D01*
X103992419Y-80684666D01*
X103992419Y-80303714D02*
X103944800Y-80256095D01*
X103897180Y-80160857D01*
X103897180Y-79922761D01*
X103944800Y-79827523D01*
X103992419Y-79779904D01*
X104087657Y-79732285D01*
X104182895Y-79732285D01*
X104325752Y-79779904D01*
X104897180Y-80351333D01*
X104897180Y-79732285D01*
X104725742Y-74067966D02*
X104773361Y-74115585D01*
X104820980Y-74258442D01*
X104820980Y-74353680D01*
X104773361Y-74496538D01*
X104678123Y-74591776D01*
X104582885Y-74639395D01*
X104392409Y-74687014D01*
X104249552Y-74687014D01*
X104059076Y-74639395D01*
X103963838Y-74591776D01*
X103868600Y-74496538D01*
X103820980Y-74353680D01*
X103820980Y-74258442D01*
X103868600Y-74115585D01*
X103916219Y-74067966D01*
X104820980Y-73115585D02*
X104820980Y-73687014D01*
X104820980Y-73401300D02*
X103820980Y-73401300D01*
X103963838Y-73496538D01*
X104059076Y-73591776D01*
X104106695Y-73687014D01*
X151237771Y-142812971D02*
X151237771Y-143146304D01*
X151761580Y-143146304D02*
X150761580Y-143146304D01*
X150761580Y-142670114D01*
X151761580Y-142289161D02*
X150761580Y-142289161D01*
X151475866Y-141955828D01*
X150761580Y-141622495D01*
X151761580Y-141622495D01*
X151666342Y-140574876D02*
X151713961Y-140622495D01*
X151761580Y-140765352D01*
X151761580Y-140860590D01*
X151713961Y-141003447D01*
X151618723Y-141098685D01*
X151523485Y-141146304D01*
X151333009Y-141193923D01*
X151190152Y-141193923D01*
X150999676Y-141146304D01*
X150904438Y-141098685D01*
X150809200Y-141003447D01*
X150761580Y-140860590D01*
X150761580Y-140765352D01*
X150809200Y-140622495D01*
X150856819Y-140574876D01*
X120243695Y-69705180D02*
X120243695Y-70514704D01*
X120291314Y-70609942D01*
X120338933Y-70657561D01*
X120434171Y-70705180D01*
X120624647Y-70705180D01*
X120719885Y-70657561D01*
X120767504Y-70609942D01*
X120815123Y-70514704D01*
X120815123Y-69705180D01*
X121815123Y-70705180D02*
X121243695Y-70705180D01*
X121529409Y-70705180D02*
X121529409Y-69705180D01*
X121434171Y-69848038D01*
X121338933Y-69943276D01*
X121243695Y-69990895D01*
M02*
