G04 #@! TF.GenerationSoftware,KiCad,Pcbnew,(5.1.6)-1*
G04 #@! TF.CreationDate,2020-09-15T00:28:45+03:00*
G04 #@! TF.ProjectId,469devboard,34363964-6576-4626-9f61-72642e6b6963,rev?*
G04 #@! TF.SameCoordinates,Original*
G04 #@! TF.FileFunction,Paste,Top*
G04 #@! TF.FilePolarity,Positive*
%FSLAX46Y46*%
G04 Gerber Fmt 4.6, Leading zero omitted, Abs format (unit mm)*
G04 Created by KiCad (PCBNEW (5.1.6)-1) date 2020-09-15 00:28:45*
%MOMM*%
%LPD*%
G01*
G04 APERTURE LIST*
%ADD10R,2.000000X2.500000*%
%ADD11R,0.500000X2.250000*%
%ADD12R,2.000000X1.500000*%
%ADD13R,1.200000X1.800000*%
%ADD14R,1.800000X1.000000*%
%ADD15R,1.500000X2.000000*%
%ADD16R,3.800000X2.000000*%
%ADD17R,2.160000X1.120000*%
G04 APERTURE END LIST*
G36*
G01*
X126407600Y-102679800D02*
X128557600Y-102679800D01*
G75*
G02*
X128807600Y-102929800I0J-250000D01*
G01*
X128807600Y-103854800D01*
G75*
G02*
X128557600Y-104104800I-250000J0D01*
G01*
X126407600Y-104104800D01*
G75*
G02*
X126157600Y-103854800I0J250000D01*
G01*
X126157600Y-102929800D01*
G75*
G02*
X126407600Y-102679800I250000J0D01*
G01*
G37*
G36*
G01*
X126407600Y-99704800D02*
X128557600Y-99704800D01*
G75*
G02*
X128807600Y-99954800I0J-250000D01*
G01*
X128807600Y-100879800D01*
G75*
G02*
X128557600Y-101129800I-250000J0D01*
G01*
X126407600Y-101129800D01*
G75*
G02*
X126157600Y-100879800I0J250000D01*
G01*
X126157600Y-99954800D01*
G75*
G02*
X126407600Y-99704800I250000J0D01*
G01*
G37*
D10*
X168013300Y-136849000D03*
X168013300Y-142299000D03*
X159113300Y-142299000D03*
X159113300Y-136849000D03*
D11*
X165163300Y-136724000D03*
X164363300Y-136724000D03*
X163563300Y-136724000D03*
X162763300Y-136724000D03*
X161963300Y-136724000D03*
D12*
X102497600Y-65163200D03*
X87697600Y-65163200D03*
G36*
G01*
X105471600Y-88397300D02*
X105471600Y-88742300D01*
G75*
G02*
X105324100Y-88889800I-147500J0D01*
G01*
X105029100Y-88889800D01*
G75*
G02*
X104881600Y-88742300I0J147500D01*
G01*
X104881600Y-88397300D01*
G75*
G02*
X105029100Y-88249800I147500J0D01*
G01*
X105324100Y-88249800D01*
G75*
G02*
X105471600Y-88397300I0J-147500D01*
G01*
G37*
G36*
G01*
X106441600Y-88397300D02*
X106441600Y-88742300D01*
G75*
G02*
X106294100Y-88889800I-147500J0D01*
G01*
X105999100Y-88889800D01*
G75*
G02*
X105851600Y-88742300I0J147500D01*
G01*
X105851600Y-88397300D01*
G75*
G02*
X105999100Y-88249800I147500J0D01*
G01*
X106294100Y-88249800D01*
G75*
G02*
X106441600Y-88397300I0J-147500D01*
G01*
G37*
D13*
X101504600Y-86569800D03*
X101504600Y-90569800D03*
X99104600Y-90569800D03*
X99104600Y-86569800D03*
D14*
X102463600Y-79004800D03*
X102463600Y-76504800D03*
G36*
G01*
X139143100Y-76436800D02*
X139143100Y-74286800D01*
G75*
G02*
X139393100Y-74036800I250000J0D01*
G01*
X140318100Y-74036800D01*
G75*
G02*
X140568100Y-74286800I0J-250000D01*
G01*
X140568100Y-76436800D01*
G75*
G02*
X140318100Y-76686800I-250000J0D01*
G01*
X139393100Y-76686800D01*
G75*
G02*
X139143100Y-76436800I0J250000D01*
G01*
G37*
G36*
G01*
X136168100Y-76436800D02*
X136168100Y-74286800D01*
G75*
G02*
X136418100Y-74036800I250000J0D01*
G01*
X137343100Y-74036800D01*
G75*
G02*
X137593100Y-74286800I0J-250000D01*
G01*
X137593100Y-76436800D01*
G75*
G02*
X137343100Y-76686800I-250000J0D01*
G01*
X136418100Y-76686800D01*
G75*
G02*
X136168100Y-76436800I0J250000D01*
G01*
G37*
G36*
G01*
X143777200Y-65816700D02*
X143777200Y-66161700D01*
G75*
G02*
X143629700Y-66309200I-147500J0D01*
G01*
X143334700Y-66309200D01*
G75*
G02*
X143187200Y-66161700I0J147500D01*
G01*
X143187200Y-65816700D01*
G75*
G02*
X143334700Y-65669200I147500J0D01*
G01*
X143629700Y-65669200D01*
G75*
G02*
X143777200Y-65816700I0J-147500D01*
G01*
G37*
G36*
G01*
X144747200Y-65816700D02*
X144747200Y-66161700D01*
G75*
G02*
X144599700Y-66309200I-147500J0D01*
G01*
X144304700Y-66309200D01*
G75*
G02*
X144157200Y-66161700I0J147500D01*
G01*
X144157200Y-65816700D01*
G75*
G02*
X144304700Y-65669200I147500J0D01*
G01*
X144599700Y-65669200D01*
G75*
G02*
X144747200Y-65816700I0J-147500D01*
G01*
G37*
G36*
G01*
X133279100Y-70040000D02*
X133624100Y-70040000D01*
G75*
G02*
X133771600Y-70187500I0J-147500D01*
G01*
X133771600Y-70482500D01*
G75*
G02*
X133624100Y-70630000I-147500J0D01*
G01*
X133279100Y-70630000D01*
G75*
G02*
X133131600Y-70482500I0J147500D01*
G01*
X133131600Y-70187500D01*
G75*
G02*
X133279100Y-70040000I147500J0D01*
G01*
G37*
G36*
G01*
X133279100Y-69070000D02*
X133624100Y-69070000D01*
G75*
G02*
X133771600Y-69217500I0J-147500D01*
G01*
X133771600Y-69512500D01*
G75*
G02*
X133624100Y-69660000I-147500J0D01*
G01*
X133279100Y-69660000D01*
G75*
G02*
X133131600Y-69512500I0J147500D01*
G01*
X133131600Y-69217500D01*
G75*
G02*
X133279100Y-69070000I147500J0D01*
G01*
G37*
G36*
G01*
X139331200Y-66212500D02*
X139331200Y-65867500D01*
G75*
G02*
X139478700Y-65720000I147500J0D01*
G01*
X139773700Y-65720000D01*
G75*
G02*
X139921200Y-65867500I0J-147500D01*
G01*
X139921200Y-66212500D01*
G75*
G02*
X139773700Y-66360000I-147500J0D01*
G01*
X139478700Y-66360000D01*
G75*
G02*
X139331200Y-66212500I0J147500D01*
G01*
G37*
G36*
G01*
X138361200Y-66212500D02*
X138361200Y-65867500D01*
G75*
G02*
X138508700Y-65720000I147500J0D01*
G01*
X138803700Y-65720000D01*
G75*
G02*
X138951200Y-65867500I0J-147500D01*
G01*
X138951200Y-66212500D01*
G75*
G02*
X138803700Y-66360000I-147500J0D01*
G01*
X138508700Y-66360000D01*
G75*
G02*
X138361200Y-66212500I0J147500D01*
G01*
G37*
G36*
G01*
X166821900Y-115862600D02*
X166476900Y-115862600D01*
G75*
G02*
X166329400Y-115715100I0J147500D01*
G01*
X166329400Y-115420100D01*
G75*
G02*
X166476900Y-115272600I147500J0D01*
G01*
X166821900Y-115272600D01*
G75*
G02*
X166969400Y-115420100I0J-147500D01*
G01*
X166969400Y-115715100D01*
G75*
G02*
X166821900Y-115862600I-147500J0D01*
G01*
G37*
G36*
G01*
X166821900Y-116832600D02*
X166476900Y-116832600D01*
G75*
G02*
X166329400Y-116685100I0J147500D01*
G01*
X166329400Y-116390100D01*
G75*
G02*
X166476900Y-116242600I147500J0D01*
G01*
X166821900Y-116242600D01*
G75*
G02*
X166969400Y-116390100I0J-147500D01*
G01*
X166969400Y-116685100D01*
G75*
G02*
X166821900Y-116832600I-147500J0D01*
G01*
G37*
G36*
G01*
X165424900Y-115862600D02*
X165079900Y-115862600D01*
G75*
G02*
X164932400Y-115715100I0J147500D01*
G01*
X164932400Y-115420100D01*
G75*
G02*
X165079900Y-115272600I147500J0D01*
G01*
X165424900Y-115272600D01*
G75*
G02*
X165572400Y-115420100I0J-147500D01*
G01*
X165572400Y-115715100D01*
G75*
G02*
X165424900Y-115862600I-147500J0D01*
G01*
G37*
G36*
G01*
X165424900Y-116832600D02*
X165079900Y-116832600D01*
G75*
G02*
X164932400Y-116685100I0J147500D01*
G01*
X164932400Y-116390100D01*
G75*
G02*
X165079900Y-116242600I147500J0D01*
G01*
X165424900Y-116242600D01*
G75*
G02*
X165572400Y-116390100I0J-147500D01*
G01*
X165572400Y-116685100D01*
G75*
G02*
X165424900Y-116832600I-147500J0D01*
G01*
G37*
G36*
G01*
X165465400Y-122575100D02*
X165465400Y-122230100D01*
G75*
G02*
X165612900Y-122082600I147500J0D01*
G01*
X165907900Y-122082600D01*
G75*
G02*
X166055400Y-122230100I0J-147500D01*
G01*
X166055400Y-122575100D01*
G75*
G02*
X165907900Y-122722600I-147500J0D01*
G01*
X165612900Y-122722600D01*
G75*
G02*
X165465400Y-122575100I0J147500D01*
G01*
G37*
G36*
G01*
X164495400Y-122575100D02*
X164495400Y-122230100D01*
G75*
G02*
X164642900Y-122082600I147500J0D01*
G01*
X164937900Y-122082600D01*
G75*
G02*
X165085400Y-122230100I0J-147500D01*
G01*
X165085400Y-122575100D01*
G75*
G02*
X164937900Y-122722600I-147500J0D01*
G01*
X164642900Y-122722600D01*
G75*
G02*
X164495400Y-122575100I0J147500D01*
G01*
G37*
G36*
G01*
X165086800Y-133967000D02*
X165086800Y-133622000D01*
G75*
G02*
X165234300Y-133474500I147500J0D01*
G01*
X165529300Y-133474500D01*
G75*
G02*
X165676800Y-133622000I0J-147500D01*
G01*
X165676800Y-133967000D01*
G75*
G02*
X165529300Y-134114500I-147500J0D01*
G01*
X165234300Y-134114500D01*
G75*
G02*
X165086800Y-133967000I0J147500D01*
G01*
G37*
G36*
G01*
X164116800Y-133967000D02*
X164116800Y-133622000D01*
G75*
G02*
X164264300Y-133474500I147500J0D01*
G01*
X164559300Y-133474500D01*
G75*
G02*
X164706800Y-133622000I0J-147500D01*
G01*
X164706800Y-133967000D01*
G75*
G02*
X164559300Y-134114500I-147500J0D01*
G01*
X164264300Y-134114500D01*
G75*
G02*
X164116800Y-133967000I0J147500D01*
G01*
G37*
D15*
X158126400Y-122631600D03*
X162726400Y-122631600D03*
X160426400Y-122631600D03*
D16*
X160426400Y-116331600D03*
D17*
X154012400Y-59893200D03*
X147282400Y-59893200D03*
G36*
G01*
X150889200Y-64038700D02*
X150889200Y-64383700D01*
G75*
G02*
X150741700Y-64531200I-147500J0D01*
G01*
X150446700Y-64531200D01*
G75*
G02*
X150299200Y-64383700I0J147500D01*
G01*
X150299200Y-64038700D01*
G75*
G02*
X150446700Y-63891200I147500J0D01*
G01*
X150741700Y-63891200D01*
G75*
G02*
X150889200Y-64038700I0J-147500D01*
G01*
G37*
G36*
G01*
X151859200Y-64038700D02*
X151859200Y-64383700D01*
G75*
G02*
X151711700Y-64531200I-147500J0D01*
G01*
X151416700Y-64531200D01*
G75*
G02*
X151269200Y-64383700I0J147500D01*
G01*
X151269200Y-64038700D01*
G75*
G02*
X151416700Y-63891200I147500J0D01*
G01*
X151711700Y-63891200D01*
G75*
G02*
X151859200Y-64038700I0J-147500D01*
G01*
G37*
G36*
G01*
X151292200Y-63266100D02*
X151292200Y-62921100D01*
G75*
G02*
X151439700Y-62773600I147500J0D01*
G01*
X151734700Y-62773600D01*
G75*
G02*
X151882200Y-62921100I0J-147500D01*
G01*
X151882200Y-63266100D01*
G75*
G02*
X151734700Y-63413600I-147500J0D01*
G01*
X151439700Y-63413600D01*
G75*
G02*
X151292200Y-63266100I0J147500D01*
G01*
G37*
G36*
G01*
X150322200Y-63266100D02*
X150322200Y-62921100D01*
G75*
G02*
X150469700Y-62773600I147500J0D01*
G01*
X150764700Y-62773600D01*
G75*
G02*
X150912200Y-62921100I0J-147500D01*
G01*
X150912200Y-63266100D01*
G75*
G02*
X150764700Y-63413600I-147500J0D01*
G01*
X150469700Y-63413600D01*
G75*
G02*
X150322200Y-63266100I0J147500D01*
G01*
G37*
G36*
G01*
X102989600Y-89712300D02*
X103334600Y-89712300D01*
G75*
G02*
X103482100Y-89859800I0J-147500D01*
G01*
X103482100Y-90154800D01*
G75*
G02*
X103334600Y-90302300I-147500J0D01*
G01*
X102989600Y-90302300D01*
G75*
G02*
X102842100Y-90154800I0J147500D01*
G01*
X102842100Y-89859800D01*
G75*
G02*
X102989600Y-89712300I147500J0D01*
G01*
G37*
G36*
G01*
X102989600Y-88742300D02*
X103334600Y-88742300D01*
G75*
G02*
X103482100Y-88889800I0J-147500D01*
G01*
X103482100Y-89184800D01*
G75*
G02*
X103334600Y-89332300I-147500J0D01*
G01*
X102989600Y-89332300D01*
G75*
G02*
X102842100Y-89184800I0J147500D01*
G01*
X102842100Y-88889800D01*
G75*
G02*
X102989600Y-88742300I147500J0D01*
G01*
G37*
G36*
G01*
X103334600Y-87196300D02*
X102989600Y-87196300D01*
G75*
G02*
X102842100Y-87048800I0J147500D01*
G01*
X102842100Y-86753800D01*
G75*
G02*
X102989600Y-86606300I147500J0D01*
G01*
X103334600Y-86606300D01*
G75*
G02*
X103482100Y-86753800I0J-147500D01*
G01*
X103482100Y-87048800D01*
G75*
G02*
X103334600Y-87196300I-147500J0D01*
G01*
G37*
G36*
G01*
X103334600Y-88166300D02*
X102989600Y-88166300D01*
G75*
G02*
X102842100Y-88018800I0J147500D01*
G01*
X102842100Y-87723800D01*
G75*
G02*
X102989600Y-87576300I147500J0D01*
G01*
X103334600Y-87576300D01*
G75*
G02*
X103482100Y-87723800I0J-147500D01*
G01*
X103482100Y-88018800D01*
G75*
G02*
X103334600Y-88166300I-147500J0D01*
G01*
G37*
G36*
G01*
X104541100Y-78306300D02*
X104196100Y-78306300D01*
G75*
G02*
X104048600Y-78158800I0J147500D01*
G01*
X104048600Y-77863800D01*
G75*
G02*
X104196100Y-77716300I147500J0D01*
G01*
X104541100Y-77716300D01*
G75*
G02*
X104688600Y-77863800I0J-147500D01*
G01*
X104688600Y-78158800D01*
G75*
G02*
X104541100Y-78306300I-147500J0D01*
G01*
G37*
G36*
G01*
X104541100Y-79276300D02*
X104196100Y-79276300D01*
G75*
G02*
X104048600Y-79128800I0J147500D01*
G01*
X104048600Y-78833800D01*
G75*
G02*
X104196100Y-78686300I147500J0D01*
G01*
X104541100Y-78686300D01*
G75*
G02*
X104688600Y-78833800I0J-147500D01*
G01*
X104688600Y-79128800D01*
G75*
G02*
X104541100Y-79276300I-147500J0D01*
G01*
G37*
G36*
G01*
X104477600Y-75575800D02*
X104132600Y-75575800D01*
G75*
G02*
X103985100Y-75428300I0J147500D01*
G01*
X103985100Y-75133300D01*
G75*
G02*
X104132600Y-74985800I147500J0D01*
G01*
X104477600Y-74985800D01*
G75*
G02*
X104625100Y-75133300I0J-147500D01*
G01*
X104625100Y-75428300D01*
G75*
G02*
X104477600Y-75575800I-147500J0D01*
G01*
G37*
G36*
G01*
X104477600Y-76545800D02*
X104132600Y-76545800D01*
G75*
G02*
X103985100Y-76398300I0J147500D01*
G01*
X103985100Y-76103300D01*
G75*
G02*
X104132600Y-75955800I147500J0D01*
G01*
X104477600Y-75955800D01*
G75*
G02*
X104625100Y-76103300I0J-147500D01*
G01*
X104625100Y-76398300D01*
G75*
G02*
X104477600Y-76545800I-147500J0D01*
G01*
G37*
G36*
G01*
X110105600Y-72632800D02*
X110105600Y-71282800D01*
G75*
G02*
X110180600Y-71207800I75000J0D01*
G01*
X110330600Y-71207800D01*
G75*
G02*
X110405600Y-71282800I0J-75000D01*
G01*
X110405600Y-72632800D01*
G75*
G02*
X110330600Y-72707800I-75000J0D01*
G01*
X110180600Y-72707800D01*
G75*
G02*
X110105600Y-72632800I0J75000D01*
G01*
G37*
G36*
G01*
X110605600Y-72632800D02*
X110605600Y-71282800D01*
G75*
G02*
X110680600Y-71207800I75000J0D01*
G01*
X110830600Y-71207800D01*
G75*
G02*
X110905600Y-71282800I0J-75000D01*
G01*
X110905600Y-72632800D01*
G75*
G02*
X110830600Y-72707800I-75000J0D01*
G01*
X110680600Y-72707800D01*
G75*
G02*
X110605600Y-72632800I0J75000D01*
G01*
G37*
G36*
G01*
X111105600Y-72632800D02*
X111105600Y-71282800D01*
G75*
G02*
X111180600Y-71207800I75000J0D01*
G01*
X111330600Y-71207800D01*
G75*
G02*
X111405600Y-71282800I0J-75000D01*
G01*
X111405600Y-72632800D01*
G75*
G02*
X111330600Y-72707800I-75000J0D01*
G01*
X111180600Y-72707800D01*
G75*
G02*
X111105600Y-72632800I0J75000D01*
G01*
G37*
G36*
G01*
X111605600Y-72632800D02*
X111605600Y-71282800D01*
G75*
G02*
X111680600Y-71207800I75000J0D01*
G01*
X111830600Y-71207800D01*
G75*
G02*
X111905600Y-71282800I0J-75000D01*
G01*
X111905600Y-72632800D01*
G75*
G02*
X111830600Y-72707800I-75000J0D01*
G01*
X111680600Y-72707800D01*
G75*
G02*
X111605600Y-72632800I0J75000D01*
G01*
G37*
G36*
G01*
X112105600Y-72632800D02*
X112105600Y-71282800D01*
G75*
G02*
X112180600Y-71207800I75000J0D01*
G01*
X112330600Y-71207800D01*
G75*
G02*
X112405600Y-71282800I0J-75000D01*
G01*
X112405600Y-72632800D01*
G75*
G02*
X112330600Y-72707800I-75000J0D01*
G01*
X112180600Y-72707800D01*
G75*
G02*
X112105600Y-72632800I0J75000D01*
G01*
G37*
G36*
G01*
X112605600Y-72632800D02*
X112605600Y-71282800D01*
G75*
G02*
X112680600Y-71207800I75000J0D01*
G01*
X112830600Y-71207800D01*
G75*
G02*
X112905600Y-71282800I0J-75000D01*
G01*
X112905600Y-72632800D01*
G75*
G02*
X112830600Y-72707800I-75000J0D01*
G01*
X112680600Y-72707800D01*
G75*
G02*
X112605600Y-72632800I0J75000D01*
G01*
G37*
G36*
G01*
X113105600Y-72632800D02*
X113105600Y-71282800D01*
G75*
G02*
X113180600Y-71207800I75000J0D01*
G01*
X113330600Y-71207800D01*
G75*
G02*
X113405600Y-71282800I0J-75000D01*
G01*
X113405600Y-72632800D01*
G75*
G02*
X113330600Y-72707800I-75000J0D01*
G01*
X113180600Y-72707800D01*
G75*
G02*
X113105600Y-72632800I0J75000D01*
G01*
G37*
G36*
G01*
X113605600Y-72632800D02*
X113605600Y-71282800D01*
G75*
G02*
X113680600Y-71207800I75000J0D01*
G01*
X113830600Y-71207800D01*
G75*
G02*
X113905600Y-71282800I0J-75000D01*
G01*
X113905600Y-72632800D01*
G75*
G02*
X113830600Y-72707800I-75000J0D01*
G01*
X113680600Y-72707800D01*
G75*
G02*
X113605600Y-72632800I0J75000D01*
G01*
G37*
G36*
G01*
X114105600Y-72632800D02*
X114105600Y-71282800D01*
G75*
G02*
X114180600Y-71207800I75000J0D01*
G01*
X114330600Y-71207800D01*
G75*
G02*
X114405600Y-71282800I0J-75000D01*
G01*
X114405600Y-72632800D01*
G75*
G02*
X114330600Y-72707800I-75000J0D01*
G01*
X114180600Y-72707800D01*
G75*
G02*
X114105600Y-72632800I0J75000D01*
G01*
G37*
G36*
G01*
X114605600Y-72632800D02*
X114605600Y-71282800D01*
G75*
G02*
X114680600Y-71207800I75000J0D01*
G01*
X114830600Y-71207800D01*
G75*
G02*
X114905600Y-71282800I0J-75000D01*
G01*
X114905600Y-72632800D01*
G75*
G02*
X114830600Y-72707800I-75000J0D01*
G01*
X114680600Y-72707800D01*
G75*
G02*
X114605600Y-72632800I0J75000D01*
G01*
G37*
G36*
G01*
X115105600Y-72632800D02*
X115105600Y-71282800D01*
G75*
G02*
X115180600Y-71207800I75000J0D01*
G01*
X115330600Y-71207800D01*
G75*
G02*
X115405600Y-71282800I0J-75000D01*
G01*
X115405600Y-72632800D01*
G75*
G02*
X115330600Y-72707800I-75000J0D01*
G01*
X115180600Y-72707800D01*
G75*
G02*
X115105600Y-72632800I0J75000D01*
G01*
G37*
G36*
G01*
X115605600Y-72632800D02*
X115605600Y-71282800D01*
G75*
G02*
X115680600Y-71207800I75000J0D01*
G01*
X115830600Y-71207800D01*
G75*
G02*
X115905600Y-71282800I0J-75000D01*
G01*
X115905600Y-72632800D01*
G75*
G02*
X115830600Y-72707800I-75000J0D01*
G01*
X115680600Y-72707800D01*
G75*
G02*
X115605600Y-72632800I0J75000D01*
G01*
G37*
G36*
G01*
X116105600Y-72632800D02*
X116105600Y-71282800D01*
G75*
G02*
X116180600Y-71207800I75000J0D01*
G01*
X116330600Y-71207800D01*
G75*
G02*
X116405600Y-71282800I0J-75000D01*
G01*
X116405600Y-72632800D01*
G75*
G02*
X116330600Y-72707800I-75000J0D01*
G01*
X116180600Y-72707800D01*
G75*
G02*
X116105600Y-72632800I0J75000D01*
G01*
G37*
G36*
G01*
X116605600Y-72632800D02*
X116605600Y-71282800D01*
G75*
G02*
X116680600Y-71207800I75000J0D01*
G01*
X116830600Y-71207800D01*
G75*
G02*
X116905600Y-71282800I0J-75000D01*
G01*
X116905600Y-72632800D01*
G75*
G02*
X116830600Y-72707800I-75000J0D01*
G01*
X116680600Y-72707800D01*
G75*
G02*
X116605600Y-72632800I0J75000D01*
G01*
G37*
G36*
G01*
X117105600Y-72632800D02*
X117105600Y-71282800D01*
G75*
G02*
X117180600Y-71207800I75000J0D01*
G01*
X117330600Y-71207800D01*
G75*
G02*
X117405600Y-71282800I0J-75000D01*
G01*
X117405600Y-72632800D01*
G75*
G02*
X117330600Y-72707800I-75000J0D01*
G01*
X117180600Y-72707800D01*
G75*
G02*
X117105600Y-72632800I0J75000D01*
G01*
G37*
G36*
G01*
X117605600Y-72632800D02*
X117605600Y-71282800D01*
G75*
G02*
X117680600Y-71207800I75000J0D01*
G01*
X117830600Y-71207800D01*
G75*
G02*
X117905600Y-71282800I0J-75000D01*
G01*
X117905600Y-72632800D01*
G75*
G02*
X117830600Y-72707800I-75000J0D01*
G01*
X117680600Y-72707800D01*
G75*
G02*
X117605600Y-72632800I0J75000D01*
G01*
G37*
G36*
G01*
X118105600Y-72632800D02*
X118105600Y-71282800D01*
G75*
G02*
X118180600Y-71207800I75000J0D01*
G01*
X118330600Y-71207800D01*
G75*
G02*
X118405600Y-71282800I0J-75000D01*
G01*
X118405600Y-72632800D01*
G75*
G02*
X118330600Y-72707800I-75000J0D01*
G01*
X118180600Y-72707800D01*
G75*
G02*
X118105600Y-72632800I0J75000D01*
G01*
G37*
G36*
G01*
X118605600Y-72632800D02*
X118605600Y-71282800D01*
G75*
G02*
X118680600Y-71207800I75000J0D01*
G01*
X118830600Y-71207800D01*
G75*
G02*
X118905600Y-71282800I0J-75000D01*
G01*
X118905600Y-72632800D01*
G75*
G02*
X118830600Y-72707800I-75000J0D01*
G01*
X118680600Y-72707800D01*
G75*
G02*
X118605600Y-72632800I0J75000D01*
G01*
G37*
G36*
G01*
X119105600Y-72632800D02*
X119105600Y-71282800D01*
G75*
G02*
X119180600Y-71207800I75000J0D01*
G01*
X119330600Y-71207800D01*
G75*
G02*
X119405600Y-71282800I0J-75000D01*
G01*
X119405600Y-72632800D01*
G75*
G02*
X119330600Y-72707800I-75000J0D01*
G01*
X119180600Y-72707800D01*
G75*
G02*
X119105600Y-72632800I0J75000D01*
G01*
G37*
G36*
G01*
X119605600Y-72632800D02*
X119605600Y-71282800D01*
G75*
G02*
X119680600Y-71207800I75000J0D01*
G01*
X119830600Y-71207800D01*
G75*
G02*
X119905600Y-71282800I0J-75000D01*
G01*
X119905600Y-72632800D01*
G75*
G02*
X119830600Y-72707800I-75000J0D01*
G01*
X119680600Y-72707800D01*
G75*
G02*
X119605600Y-72632800I0J75000D01*
G01*
G37*
G36*
G01*
X120105600Y-72632800D02*
X120105600Y-71282800D01*
G75*
G02*
X120180600Y-71207800I75000J0D01*
G01*
X120330600Y-71207800D01*
G75*
G02*
X120405600Y-71282800I0J-75000D01*
G01*
X120405600Y-72632800D01*
G75*
G02*
X120330600Y-72707800I-75000J0D01*
G01*
X120180600Y-72707800D01*
G75*
G02*
X120105600Y-72632800I0J75000D01*
G01*
G37*
G36*
G01*
X120605600Y-72632800D02*
X120605600Y-71282800D01*
G75*
G02*
X120680600Y-71207800I75000J0D01*
G01*
X120830600Y-71207800D01*
G75*
G02*
X120905600Y-71282800I0J-75000D01*
G01*
X120905600Y-72632800D01*
G75*
G02*
X120830600Y-72707800I-75000J0D01*
G01*
X120680600Y-72707800D01*
G75*
G02*
X120605600Y-72632800I0J75000D01*
G01*
G37*
G36*
G01*
X121105600Y-72632800D02*
X121105600Y-71282800D01*
G75*
G02*
X121180600Y-71207800I75000J0D01*
G01*
X121330600Y-71207800D01*
G75*
G02*
X121405600Y-71282800I0J-75000D01*
G01*
X121405600Y-72632800D01*
G75*
G02*
X121330600Y-72707800I-75000J0D01*
G01*
X121180600Y-72707800D01*
G75*
G02*
X121105600Y-72632800I0J75000D01*
G01*
G37*
G36*
G01*
X121605600Y-72632800D02*
X121605600Y-71282800D01*
G75*
G02*
X121680600Y-71207800I75000J0D01*
G01*
X121830600Y-71207800D01*
G75*
G02*
X121905600Y-71282800I0J-75000D01*
G01*
X121905600Y-72632800D01*
G75*
G02*
X121830600Y-72707800I-75000J0D01*
G01*
X121680600Y-72707800D01*
G75*
G02*
X121605600Y-72632800I0J75000D01*
G01*
G37*
G36*
G01*
X122105600Y-72632800D02*
X122105600Y-71282800D01*
G75*
G02*
X122180600Y-71207800I75000J0D01*
G01*
X122330600Y-71207800D01*
G75*
G02*
X122405600Y-71282800I0J-75000D01*
G01*
X122405600Y-72632800D01*
G75*
G02*
X122330600Y-72707800I-75000J0D01*
G01*
X122180600Y-72707800D01*
G75*
G02*
X122105600Y-72632800I0J75000D01*
G01*
G37*
G36*
G01*
X122605600Y-72632800D02*
X122605600Y-71282800D01*
G75*
G02*
X122680600Y-71207800I75000J0D01*
G01*
X122830600Y-71207800D01*
G75*
G02*
X122905600Y-71282800I0J-75000D01*
G01*
X122905600Y-72632800D01*
G75*
G02*
X122830600Y-72707800I-75000J0D01*
G01*
X122680600Y-72707800D01*
G75*
G02*
X122605600Y-72632800I0J75000D01*
G01*
G37*
G36*
G01*
X123105600Y-72632800D02*
X123105600Y-71282800D01*
G75*
G02*
X123180600Y-71207800I75000J0D01*
G01*
X123330600Y-71207800D01*
G75*
G02*
X123405600Y-71282800I0J-75000D01*
G01*
X123405600Y-72632800D01*
G75*
G02*
X123330600Y-72707800I-75000J0D01*
G01*
X123180600Y-72707800D01*
G75*
G02*
X123105600Y-72632800I0J75000D01*
G01*
G37*
G36*
G01*
X123605600Y-72632800D02*
X123605600Y-71282800D01*
G75*
G02*
X123680600Y-71207800I75000J0D01*
G01*
X123830600Y-71207800D01*
G75*
G02*
X123905600Y-71282800I0J-75000D01*
G01*
X123905600Y-72632800D01*
G75*
G02*
X123830600Y-72707800I-75000J0D01*
G01*
X123680600Y-72707800D01*
G75*
G02*
X123605600Y-72632800I0J75000D01*
G01*
G37*
G36*
G01*
X124105600Y-72632800D02*
X124105600Y-71282800D01*
G75*
G02*
X124180600Y-71207800I75000J0D01*
G01*
X124330600Y-71207800D01*
G75*
G02*
X124405600Y-71282800I0J-75000D01*
G01*
X124405600Y-72632800D01*
G75*
G02*
X124330600Y-72707800I-75000J0D01*
G01*
X124180600Y-72707800D01*
G75*
G02*
X124105600Y-72632800I0J75000D01*
G01*
G37*
G36*
G01*
X124605600Y-72632800D02*
X124605600Y-71282800D01*
G75*
G02*
X124680600Y-71207800I75000J0D01*
G01*
X124830600Y-71207800D01*
G75*
G02*
X124905600Y-71282800I0J-75000D01*
G01*
X124905600Y-72632800D01*
G75*
G02*
X124830600Y-72707800I-75000J0D01*
G01*
X124680600Y-72707800D01*
G75*
G02*
X124605600Y-72632800I0J75000D01*
G01*
G37*
G36*
G01*
X125105600Y-72632800D02*
X125105600Y-71282800D01*
G75*
G02*
X125180600Y-71207800I75000J0D01*
G01*
X125330600Y-71207800D01*
G75*
G02*
X125405600Y-71282800I0J-75000D01*
G01*
X125405600Y-72632800D01*
G75*
G02*
X125330600Y-72707800I-75000J0D01*
G01*
X125180600Y-72707800D01*
G75*
G02*
X125105600Y-72632800I0J75000D01*
G01*
G37*
G36*
G01*
X125605600Y-72632800D02*
X125605600Y-71282800D01*
G75*
G02*
X125680600Y-71207800I75000J0D01*
G01*
X125830600Y-71207800D01*
G75*
G02*
X125905600Y-71282800I0J-75000D01*
G01*
X125905600Y-72632800D01*
G75*
G02*
X125830600Y-72707800I-75000J0D01*
G01*
X125680600Y-72707800D01*
G75*
G02*
X125605600Y-72632800I0J75000D01*
G01*
G37*
G36*
G01*
X126105600Y-72632800D02*
X126105600Y-71282800D01*
G75*
G02*
X126180600Y-71207800I75000J0D01*
G01*
X126330600Y-71207800D01*
G75*
G02*
X126405600Y-71282800I0J-75000D01*
G01*
X126405600Y-72632800D01*
G75*
G02*
X126330600Y-72707800I-75000J0D01*
G01*
X126180600Y-72707800D01*
G75*
G02*
X126105600Y-72632800I0J75000D01*
G01*
G37*
G36*
G01*
X126605600Y-72632800D02*
X126605600Y-71282800D01*
G75*
G02*
X126680600Y-71207800I75000J0D01*
G01*
X126830600Y-71207800D01*
G75*
G02*
X126905600Y-71282800I0J-75000D01*
G01*
X126905600Y-72632800D01*
G75*
G02*
X126830600Y-72707800I-75000J0D01*
G01*
X126680600Y-72707800D01*
G75*
G02*
X126605600Y-72632800I0J75000D01*
G01*
G37*
G36*
G01*
X127105600Y-72632800D02*
X127105600Y-71282800D01*
G75*
G02*
X127180600Y-71207800I75000J0D01*
G01*
X127330600Y-71207800D01*
G75*
G02*
X127405600Y-71282800I0J-75000D01*
G01*
X127405600Y-72632800D01*
G75*
G02*
X127330600Y-72707800I-75000J0D01*
G01*
X127180600Y-72707800D01*
G75*
G02*
X127105600Y-72632800I0J75000D01*
G01*
G37*
G36*
G01*
X127605600Y-72632800D02*
X127605600Y-71282800D01*
G75*
G02*
X127680600Y-71207800I75000J0D01*
G01*
X127830600Y-71207800D01*
G75*
G02*
X127905600Y-71282800I0J-75000D01*
G01*
X127905600Y-72632800D01*
G75*
G02*
X127830600Y-72707800I-75000J0D01*
G01*
X127680600Y-72707800D01*
G75*
G02*
X127605600Y-72632800I0J75000D01*
G01*
G37*
G36*
G01*
X128105600Y-72632800D02*
X128105600Y-71282800D01*
G75*
G02*
X128180600Y-71207800I75000J0D01*
G01*
X128330600Y-71207800D01*
G75*
G02*
X128405600Y-71282800I0J-75000D01*
G01*
X128405600Y-72632800D01*
G75*
G02*
X128330600Y-72707800I-75000J0D01*
G01*
X128180600Y-72707800D01*
G75*
G02*
X128105600Y-72632800I0J75000D01*
G01*
G37*
G36*
G01*
X128605600Y-72632800D02*
X128605600Y-71282800D01*
G75*
G02*
X128680600Y-71207800I75000J0D01*
G01*
X128830600Y-71207800D01*
G75*
G02*
X128905600Y-71282800I0J-75000D01*
G01*
X128905600Y-72632800D01*
G75*
G02*
X128830600Y-72707800I-75000J0D01*
G01*
X128680600Y-72707800D01*
G75*
G02*
X128605600Y-72632800I0J75000D01*
G01*
G37*
G36*
G01*
X129105600Y-72632800D02*
X129105600Y-71282800D01*
G75*
G02*
X129180600Y-71207800I75000J0D01*
G01*
X129330600Y-71207800D01*
G75*
G02*
X129405600Y-71282800I0J-75000D01*
G01*
X129405600Y-72632800D01*
G75*
G02*
X129330600Y-72707800I-75000J0D01*
G01*
X129180600Y-72707800D01*
G75*
G02*
X129105600Y-72632800I0J75000D01*
G01*
G37*
G36*
G01*
X129605600Y-72632800D02*
X129605600Y-71282800D01*
G75*
G02*
X129680600Y-71207800I75000J0D01*
G01*
X129830600Y-71207800D01*
G75*
G02*
X129905600Y-71282800I0J-75000D01*
G01*
X129905600Y-72632800D01*
G75*
G02*
X129830600Y-72707800I-75000J0D01*
G01*
X129680600Y-72707800D01*
G75*
G02*
X129605600Y-72632800I0J75000D01*
G01*
G37*
G36*
G01*
X130105600Y-72632800D02*
X130105600Y-71282800D01*
G75*
G02*
X130180600Y-71207800I75000J0D01*
G01*
X130330600Y-71207800D01*
G75*
G02*
X130405600Y-71282800I0J-75000D01*
G01*
X130405600Y-72632800D01*
G75*
G02*
X130330600Y-72707800I-75000J0D01*
G01*
X130180600Y-72707800D01*
G75*
G02*
X130105600Y-72632800I0J75000D01*
G01*
G37*
G36*
G01*
X130605600Y-72632800D02*
X130605600Y-71282800D01*
G75*
G02*
X130680600Y-71207800I75000J0D01*
G01*
X130830600Y-71207800D01*
G75*
G02*
X130905600Y-71282800I0J-75000D01*
G01*
X130905600Y-72632800D01*
G75*
G02*
X130830600Y-72707800I-75000J0D01*
G01*
X130680600Y-72707800D01*
G75*
G02*
X130605600Y-72632800I0J75000D01*
G01*
G37*
G36*
G01*
X131105600Y-72632800D02*
X131105600Y-71282800D01*
G75*
G02*
X131180600Y-71207800I75000J0D01*
G01*
X131330600Y-71207800D01*
G75*
G02*
X131405600Y-71282800I0J-75000D01*
G01*
X131405600Y-72632800D01*
G75*
G02*
X131330600Y-72707800I-75000J0D01*
G01*
X131180600Y-72707800D01*
G75*
G02*
X131105600Y-72632800I0J75000D01*
G01*
G37*
G36*
G01*
X131605600Y-72632800D02*
X131605600Y-71282800D01*
G75*
G02*
X131680600Y-71207800I75000J0D01*
G01*
X131830600Y-71207800D01*
G75*
G02*
X131905600Y-71282800I0J-75000D01*
G01*
X131905600Y-72632800D01*
G75*
G02*
X131830600Y-72707800I-75000J0D01*
G01*
X131680600Y-72707800D01*
G75*
G02*
X131605600Y-72632800I0J75000D01*
G01*
G37*
G36*
G01*
X132930600Y-73957800D02*
X132930600Y-73807800D01*
G75*
G02*
X133005600Y-73732800I75000J0D01*
G01*
X134355600Y-73732800D01*
G75*
G02*
X134430600Y-73807800I0J-75000D01*
G01*
X134430600Y-73957800D01*
G75*
G02*
X134355600Y-74032800I-75000J0D01*
G01*
X133005600Y-74032800D01*
G75*
G02*
X132930600Y-73957800I0J75000D01*
G01*
G37*
G36*
G01*
X132930600Y-74457800D02*
X132930600Y-74307800D01*
G75*
G02*
X133005600Y-74232800I75000J0D01*
G01*
X134355600Y-74232800D01*
G75*
G02*
X134430600Y-74307800I0J-75000D01*
G01*
X134430600Y-74457800D01*
G75*
G02*
X134355600Y-74532800I-75000J0D01*
G01*
X133005600Y-74532800D01*
G75*
G02*
X132930600Y-74457800I0J75000D01*
G01*
G37*
G36*
G01*
X132930600Y-74957800D02*
X132930600Y-74807800D01*
G75*
G02*
X133005600Y-74732800I75000J0D01*
G01*
X134355600Y-74732800D01*
G75*
G02*
X134430600Y-74807800I0J-75000D01*
G01*
X134430600Y-74957800D01*
G75*
G02*
X134355600Y-75032800I-75000J0D01*
G01*
X133005600Y-75032800D01*
G75*
G02*
X132930600Y-74957800I0J75000D01*
G01*
G37*
G36*
G01*
X132930600Y-75457800D02*
X132930600Y-75307800D01*
G75*
G02*
X133005600Y-75232800I75000J0D01*
G01*
X134355600Y-75232800D01*
G75*
G02*
X134430600Y-75307800I0J-75000D01*
G01*
X134430600Y-75457800D01*
G75*
G02*
X134355600Y-75532800I-75000J0D01*
G01*
X133005600Y-75532800D01*
G75*
G02*
X132930600Y-75457800I0J75000D01*
G01*
G37*
G36*
G01*
X132930600Y-75957800D02*
X132930600Y-75807800D01*
G75*
G02*
X133005600Y-75732800I75000J0D01*
G01*
X134355600Y-75732800D01*
G75*
G02*
X134430600Y-75807800I0J-75000D01*
G01*
X134430600Y-75957800D01*
G75*
G02*
X134355600Y-76032800I-75000J0D01*
G01*
X133005600Y-76032800D01*
G75*
G02*
X132930600Y-75957800I0J75000D01*
G01*
G37*
G36*
G01*
X132930600Y-76457800D02*
X132930600Y-76307800D01*
G75*
G02*
X133005600Y-76232800I75000J0D01*
G01*
X134355600Y-76232800D01*
G75*
G02*
X134430600Y-76307800I0J-75000D01*
G01*
X134430600Y-76457800D01*
G75*
G02*
X134355600Y-76532800I-75000J0D01*
G01*
X133005600Y-76532800D01*
G75*
G02*
X132930600Y-76457800I0J75000D01*
G01*
G37*
G36*
G01*
X132930600Y-76957800D02*
X132930600Y-76807800D01*
G75*
G02*
X133005600Y-76732800I75000J0D01*
G01*
X134355600Y-76732800D01*
G75*
G02*
X134430600Y-76807800I0J-75000D01*
G01*
X134430600Y-76957800D01*
G75*
G02*
X134355600Y-77032800I-75000J0D01*
G01*
X133005600Y-77032800D01*
G75*
G02*
X132930600Y-76957800I0J75000D01*
G01*
G37*
G36*
G01*
X132930600Y-77457800D02*
X132930600Y-77307800D01*
G75*
G02*
X133005600Y-77232800I75000J0D01*
G01*
X134355600Y-77232800D01*
G75*
G02*
X134430600Y-77307800I0J-75000D01*
G01*
X134430600Y-77457800D01*
G75*
G02*
X134355600Y-77532800I-75000J0D01*
G01*
X133005600Y-77532800D01*
G75*
G02*
X132930600Y-77457800I0J75000D01*
G01*
G37*
G36*
G01*
X132930600Y-77957800D02*
X132930600Y-77807800D01*
G75*
G02*
X133005600Y-77732800I75000J0D01*
G01*
X134355600Y-77732800D01*
G75*
G02*
X134430600Y-77807800I0J-75000D01*
G01*
X134430600Y-77957800D01*
G75*
G02*
X134355600Y-78032800I-75000J0D01*
G01*
X133005600Y-78032800D01*
G75*
G02*
X132930600Y-77957800I0J75000D01*
G01*
G37*
G36*
G01*
X132930600Y-78457800D02*
X132930600Y-78307800D01*
G75*
G02*
X133005600Y-78232800I75000J0D01*
G01*
X134355600Y-78232800D01*
G75*
G02*
X134430600Y-78307800I0J-75000D01*
G01*
X134430600Y-78457800D01*
G75*
G02*
X134355600Y-78532800I-75000J0D01*
G01*
X133005600Y-78532800D01*
G75*
G02*
X132930600Y-78457800I0J75000D01*
G01*
G37*
G36*
G01*
X132930600Y-78957800D02*
X132930600Y-78807800D01*
G75*
G02*
X133005600Y-78732800I75000J0D01*
G01*
X134355600Y-78732800D01*
G75*
G02*
X134430600Y-78807800I0J-75000D01*
G01*
X134430600Y-78957800D01*
G75*
G02*
X134355600Y-79032800I-75000J0D01*
G01*
X133005600Y-79032800D01*
G75*
G02*
X132930600Y-78957800I0J75000D01*
G01*
G37*
G36*
G01*
X132930600Y-79457800D02*
X132930600Y-79307800D01*
G75*
G02*
X133005600Y-79232800I75000J0D01*
G01*
X134355600Y-79232800D01*
G75*
G02*
X134430600Y-79307800I0J-75000D01*
G01*
X134430600Y-79457800D01*
G75*
G02*
X134355600Y-79532800I-75000J0D01*
G01*
X133005600Y-79532800D01*
G75*
G02*
X132930600Y-79457800I0J75000D01*
G01*
G37*
G36*
G01*
X132930600Y-79957800D02*
X132930600Y-79807800D01*
G75*
G02*
X133005600Y-79732800I75000J0D01*
G01*
X134355600Y-79732800D01*
G75*
G02*
X134430600Y-79807800I0J-75000D01*
G01*
X134430600Y-79957800D01*
G75*
G02*
X134355600Y-80032800I-75000J0D01*
G01*
X133005600Y-80032800D01*
G75*
G02*
X132930600Y-79957800I0J75000D01*
G01*
G37*
G36*
G01*
X132930600Y-80457800D02*
X132930600Y-80307800D01*
G75*
G02*
X133005600Y-80232800I75000J0D01*
G01*
X134355600Y-80232800D01*
G75*
G02*
X134430600Y-80307800I0J-75000D01*
G01*
X134430600Y-80457800D01*
G75*
G02*
X134355600Y-80532800I-75000J0D01*
G01*
X133005600Y-80532800D01*
G75*
G02*
X132930600Y-80457800I0J75000D01*
G01*
G37*
G36*
G01*
X132930600Y-80957800D02*
X132930600Y-80807800D01*
G75*
G02*
X133005600Y-80732800I75000J0D01*
G01*
X134355600Y-80732800D01*
G75*
G02*
X134430600Y-80807800I0J-75000D01*
G01*
X134430600Y-80957800D01*
G75*
G02*
X134355600Y-81032800I-75000J0D01*
G01*
X133005600Y-81032800D01*
G75*
G02*
X132930600Y-80957800I0J75000D01*
G01*
G37*
G36*
G01*
X132930600Y-81457800D02*
X132930600Y-81307800D01*
G75*
G02*
X133005600Y-81232800I75000J0D01*
G01*
X134355600Y-81232800D01*
G75*
G02*
X134430600Y-81307800I0J-75000D01*
G01*
X134430600Y-81457800D01*
G75*
G02*
X134355600Y-81532800I-75000J0D01*
G01*
X133005600Y-81532800D01*
G75*
G02*
X132930600Y-81457800I0J75000D01*
G01*
G37*
G36*
G01*
X132930600Y-81957800D02*
X132930600Y-81807800D01*
G75*
G02*
X133005600Y-81732800I75000J0D01*
G01*
X134355600Y-81732800D01*
G75*
G02*
X134430600Y-81807800I0J-75000D01*
G01*
X134430600Y-81957800D01*
G75*
G02*
X134355600Y-82032800I-75000J0D01*
G01*
X133005600Y-82032800D01*
G75*
G02*
X132930600Y-81957800I0J75000D01*
G01*
G37*
G36*
G01*
X132930600Y-82457800D02*
X132930600Y-82307800D01*
G75*
G02*
X133005600Y-82232800I75000J0D01*
G01*
X134355600Y-82232800D01*
G75*
G02*
X134430600Y-82307800I0J-75000D01*
G01*
X134430600Y-82457800D01*
G75*
G02*
X134355600Y-82532800I-75000J0D01*
G01*
X133005600Y-82532800D01*
G75*
G02*
X132930600Y-82457800I0J75000D01*
G01*
G37*
G36*
G01*
X132930600Y-82957800D02*
X132930600Y-82807800D01*
G75*
G02*
X133005600Y-82732800I75000J0D01*
G01*
X134355600Y-82732800D01*
G75*
G02*
X134430600Y-82807800I0J-75000D01*
G01*
X134430600Y-82957800D01*
G75*
G02*
X134355600Y-83032800I-75000J0D01*
G01*
X133005600Y-83032800D01*
G75*
G02*
X132930600Y-82957800I0J75000D01*
G01*
G37*
G36*
G01*
X132930600Y-83457800D02*
X132930600Y-83307800D01*
G75*
G02*
X133005600Y-83232800I75000J0D01*
G01*
X134355600Y-83232800D01*
G75*
G02*
X134430600Y-83307800I0J-75000D01*
G01*
X134430600Y-83457800D01*
G75*
G02*
X134355600Y-83532800I-75000J0D01*
G01*
X133005600Y-83532800D01*
G75*
G02*
X132930600Y-83457800I0J75000D01*
G01*
G37*
G36*
G01*
X132930600Y-83957800D02*
X132930600Y-83807800D01*
G75*
G02*
X133005600Y-83732800I75000J0D01*
G01*
X134355600Y-83732800D01*
G75*
G02*
X134430600Y-83807800I0J-75000D01*
G01*
X134430600Y-83957800D01*
G75*
G02*
X134355600Y-84032800I-75000J0D01*
G01*
X133005600Y-84032800D01*
G75*
G02*
X132930600Y-83957800I0J75000D01*
G01*
G37*
G36*
G01*
X132930600Y-84457800D02*
X132930600Y-84307800D01*
G75*
G02*
X133005600Y-84232800I75000J0D01*
G01*
X134355600Y-84232800D01*
G75*
G02*
X134430600Y-84307800I0J-75000D01*
G01*
X134430600Y-84457800D01*
G75*
G02*
X134355600Y-84532800I-75000J0D01*
G01*
X133005600Y-84532800D01*
G75*
G02*
X132930600Y-84457800I0J75000D01*
G01*
G37*
G36*
G01*
X132930600Y-84957800D02*
X132930600Y-84807800D01*
G75*
G02*
X133005600Y-84732800I75000J0D01*
G01*
X134355600Y-84732800D01*
G75*
G02*
X134430600Y-84807800I0J-75000D01*
G01*
X134430600Y-84957800D01*
G75*
G02*
X134355600Y-85032800I-75000J0D01*
G01*
X133005600Y-85032800D01*
G75*
G02*
X132930600Y-84957800I0J75000D01*
G01*
G37*
G36*
G01*
X132930600Y-85457800D02*
X132930600Y-85307800D01*
G75*
G02*
X133005600Y-85232800I75000J0D01*
G01*
X134355600Y-85232800D01*
G75*
G02*
X134430600Y-85307800I0J-75000D01*
G01*
X134430600Y-85457800D01*
G75*
G02*
X134355600Y-85532800I-75000J0D01*
G01*
X133005600Y-85532800D01*
G75*
G02*
X132930600Y-85457800I0J75000D01*
G01*
G37*
G36*
G01*
X132930600Y-85957800D02*
X132930600Y-85807800D01*
G75*
G02*
X133005600Y-85732800I75000J0D01*
G01*
X134355600Y-85732800D01*
G75*
G02*
X134430600Y-85807800I0J-75000D01*
G01*
X134430600Y-85957800D01*
G75*
G02*
X134355600Y-86032800I-75000J0D01*
G01*
X133005600Y-86032800D01*
G75*
G02*
X132930600Y-85957800I0J75000D01*
G01*
G37*
G36*
G01*
X132930600Y-86457800D02*
X132930600Y-86307800D01*
G75*
G02*
X133005600Y-86232800I75000J0D01*
G01*
X134355600Y-86232800D01*
G75*
G02*
X134430600Y-86307800I0J-75000D01*
G01*
X134430600Y-86457800D01*
G75*
G02*
X134355600Y-86532800I-75000J0D01*
G01*
X133005600Y-86532800D01*
G75*
G02*
X132930600Y-86457800I0J75000D01*
G01*
G37*
G36*
G01*
X132930600Y-86957800D02*
X132930600Y-86807800D01*
G75*
G02*
X133005600Y-86732800I75000J0D01*
G01*
X134355600Y-86732800D01*
G75*
G02*
X134430600Y-86807800I0J-75000D01*
G01*
X134430600Y-86957800D01*
G75*
G02*
X134355600Y-87032800I-75000J0D01*
G01*
X133005600Y-87032800D01*
G75*
G02*
X132930600Y-86957800I0J75000D01*
G01*
G37*
G36*
G01*
X132930600Y-87457800D02*
X132930600Y-87307800D01*
G75*
G02*
X133005600Y-87232800I75000J0D01*
G01*
X134355600Y-87232800D01*
G75*
G02*
X134430600Y-87307800I0J-75000D01*
G01*
X134430600Y-87457800D01*
G75*
G02*
X134355600Y-87532800I-75000J0D01*
G01*
X133005600Y-87532800D01*
G75*
G02*
X132930600Y-87457800I0J75000D01*
G01*
G37*
G36*
G01*
X132930600Y-87957800D02*
X132930600Y-87807800D01*
G75*
G02*
X133005600Y-87732800I75000J0D01*
G01*
X134355600Y-87732800D01*
G75*
G02*
X134430600Y-87807800I0J-75000D01*
G01*
X134430600Y-87957800D01*
G75*
G02*
X134355600Y-88032800I-75000J0D01*
G01*
X133005600Y-88032800D01*
G75*
G02*
X132930600Y-87957800I0J75000D01*
G01*
G37*
G36*
G01*
X132930600Y-88457800D02*
X132930600Y-88307800D01*
G75*
G02*
X133005600Y-88232800I75000J0D01*
G01*
X134355600Y-88232800D01*
G75*
G02*
X134430600Y-88307800I0J-75000D01*
G01*
X134430600Y-88457800D01*
G75*
G02*
X134355600Y-88532800I-75000J0D01*
G01*
X133005600Y-88532800D01*
G75*
G02*
X132930600Y-88457800I0J75000D01*
G01*
G37*
G36*
G01*
X132930600Y-88957800D02*
X132930600Y-88807800D01*
G75*
G02*
X133005600Y-88732800I75000J0D01*
G01*
X134355600Y-88732800D01*
G75*
G02*
X134430600Y-88807800I0J-75000D01*
G01*
X134430600Y-88957800D01*
G75*
G02*
X134355600Y-89032800I-75000J0D01*
G01*
X133005600Y-89032800D01*
G75*
G02*
X132930600Y-88957800I0J75000D01*
G01*
G37*
G36*
G01*
X132930600Y-89457800D02*
X132930600Y-89307800D01*
G75*
G02*
X133005600Y-89232800I75000J0D01*
G01*
X134355600Y-89232800D01*
G75*
G02*
X134430600Y-89307800I0J-75000D01*
G01*
X134430600Y-89457800D01*
G75*
G02*
X134355600Y-89532800I-75000J0D01*
G01*
X133005600Y-89532800D01*
G75*
G02*
X132930600Y-89457800I0J75000D01*
G01*
G37*
G36*
G01*
X132930600Y-89957800D02*
X132930600Y-89807800D01*
G75*
G02*
X133005600Y-89732800I75000J0D01*
G01*
X134355600Y-89732800D01*
G75*
G02*
X134430600Y-89807800I0J-75000D01*
G01*
X134430600Y-89957800D01*
G75*
G02*
X134355600Y-90032800I-75000J0D01*
G01*
X133005600Y-90032800D01*
G75*
G02*
X132930600Y-89957800I0J75000D01*
G01*
G37*
G36*
G01*
X132930600Y-90457800D02*
X132930600Y-90307800D01*
G75*
G02*
X133005600Y-90232800I75000J0D01*
G01*
X134355600Y-90232800D01*
G75*
G02*
X134430600Y-90307800I0J-75000D01*
G01*
X134430600Y-90457800D01*
G75*
G02*
X134355600Y-90532800I-75000J0D01*
G01*
X133005600Y-90532800D01*
G75*
G02*
X132930600Y-90457800I0J75000D01*
G01*
G37*
G36*
G01*
X132930600Y-90957800D02*
X132930600Y-90807800D01*
G75*
G02*
X133005600Y-90732800I75000J0D01*
G01*
X134355600Y-90732800D01*
G75*
G02*
X134430600Y-90807800I0J-75000D01*
G01*
X134430600Y-90957800D01*
G75*
G02*
X134355600Y-91032800I-75000J0D01*
G01*
X133005600Y-91032800D01*
G75*
G02*
X132930600Y-90957800I0J75000D01*
G01*
G37*
G36*
G01*
X132930600Y-91457800D02*
X132930600Y-91307800D01*
G75*
G02*
X133005600Y-91232800I75000J0D01*
G01*
X134355600Y-91232800D01*
G75*
G02*
X134430600Y-91307800I0J-75000D01*
G01*
X134430600Y-91457800D01*
G75*
G02*
X134355600Y-91532800I-75000J0D01*
G01*
X133005600Y-91532800D01*
G75*
G02*
X132930600Y-91457800I0J75000D01*
G01*
G37*
G36*
G01*
X132930600Y-91957800D02*
X132930600Y-91807800D01*
G75*
G02*
X133005600Y-91732800I75000J0D01*
G01*
X134355600Y-91732800D01*
G75*
G02*
X134430600Y-91807800I0J-75000D01*
G01*
X134430600Y-91957800D01*
G75*
G02*
X134355600Y-92032800I-75000J0D01*
G01*
X133005600Y-92032800D01*
G75*
G02*
X132930600Y-91957800I0J75000D01*
G01*
G37*
G36*
G01*
X132930600Y-92457800D02*
X132930600Y-92307800D01*
G75*
G02*
X133005600Y-92232800I75000J0D01*
G01*
X134355600Y-92232800D01*
G75*
G02*
X134430600Y-92307800I0J-75000D01*
G01*
X134430600Y-92457800D01*
G75*
G02*
X134355600Y-92532800I-75000J0D01*
G01*
X133005600Y-92532800D01*
G75*
G02*
X132930600Y-92457800I0J75000D01*
G01*
G37*
G36*
G01*
X132930600Y-92957800D02*
X132930600Y-92807800D01*
G75*
G02*
X133005600Y-92732800I75000J0D01*
G01*
X134355600Y-92732800D01*
G75*
G02*
X134430600Y-92807800I0J-75000D01*
G01*
X134430600Y-92957800D01*
G75*
G02*
X134355600Y-93032800I-75000J0D01*
G01*
X133005600Y-93032800D01*
G75*
G02*
X132930600Y-92957800I0J75000D01*
G01*
G37*
G36*
G01*
X132930600Y-93457800D02*
X132930600Y-93307800D01*
G75*
G02*
X133005600Y-93232800I75000J0D01*
G01*
X134355600Y-93232800D01*
G75*
G02*
X134430600Y-93307800I0J-75000D01*
G01*
X134430600Y-93457800D01*
G75*
G02*
X134355600Y-93532800I-75000J0D01*
G01*
X133005600Y-93532800D01*
G75*
G02*
X132930600Y-93457800I0J75000D01*
G01*
G37*
G36*
G01*
X132930600Y-93957800D02*
X132930600Y-93807800D01*
G75*
G02*
X133005600Y-93732800I75000J0D01*
G01*
X134355600Y-93732800D01*
G75*
G02*
X134430600Y-93807800I0J-75000D01*
G01*
X134430600Y-93957800D01*
G75*
G02*
X134355600Y-94032800I-75000J0D01*
G01*
X133005600Y-94032800D01*
G75*
G02*
X132930600Y-93957800I0J75000D01*
G01*
G37*
G36*
G01*
X132930600Y-94457800D02*
X132930600Y-94307800D01*
G75*
G02*
X133005600Y-94232800I75000J0D01*
G01*
X134355600Y-94232800D01*
G75*
G02*
X134430600Y-94307800I0J-75000D01*
G01*
X134430600Y-94457800D01*
G75*
G02*
X134355600Y-94532800I-75000J0D01*
G01*
X133005600Y-94532800D01*
G75*
G02*
X132930600Y-94457800I0J75000D01*
G01*
G37*
G36*
G01*
X132930600Y-94957800D02*
X132930600Y-94807800D01*
G75*
G02*
X133005600Y-94732800I75000J0D01*
G01*
X134355600Y-94732800D01*
G75*
G02*
X134430600Y-94807800I0J-75000D01*
G01*
X134430600Y-94957800D01*
G75*
G02*
X134355600Y-95032800I-75000J0D01*
G01*
X133005600Y-95032800D01*
G75*
G02*
X132930600Y-94957800I0J75000D01*
G01*
G37*
G36*
G01*
X132930600Y-95457800D02*
X132930600Y-95307800D01*
G75*
G02*
X133005600Y-95232800I75000J0D01*
G01*
X134355600Y-95232800D01*
G75*
G02*
X134430600Y-95307800I0J-75000D01*
G01*
X134430600Y-95457800D01*
G75*
G02*
X134355600Y-95532800I-75000J0D01*
G01*
X133005600Y-95532800D01*
G75*
G02*
X132930600Y-95457800I0J75000D01*
G01*
G37*
G36*
G01*
X131605600Y-97982800D02*
X131605600Y-96632800D01*
G75*
G02*
X131680600Y-96557800I75000J0D01*
G01*
X131830600Y-96557800D01*
G75*
G02*
X131905600Y-96632800I0J-75000D01*
G01*
X131905600Y-97982800D01*
G75*
G02*
X131830600Y-98057800I-75000J0D01*
G01*
X131680600Y-98057800D01*
G75*
G02*
X131605600Y-97982800I0J75000D01*
G01*
G37*
G36*
G01*
X131105600Y-97982800D02*
X131105600Y-96632800D01*
G75*
G02*
X131180600Y-96557800I75000J0D01*
G01*
X131330600Y-96557800D01*
G75*
G02*
X131405600Y-96632800I0J-75000D01*
G01*
X131405600Y-97982800D01*
G75*
G02*
X131330600Y-98057800I-75000J0D01*
G01*
X131180600Y-98057800D01*
G75*
G02*
X131105600Y-97982800I0J75000D01*
G01*
G37*
G36*
G01*
X130605600Y-97982800D02*
X130605600Y-96632800D01*
G75*
G02*
X130680600Y-96557800I75000J0D01*
G01*
X130830600Y-96557800D01*
G75*
G02*
X130905600Y-96632800I0J-75000D01*
G01*
X130905600Y-97982800D01*
G75*
G02*
X130830600Y-98057800I-75000J0D01*
G01*
X130680600Y-98057800D01*
G75*
G02*
X130605600Y-97982800I0J75000D01*
G01*
G37*
G36*
G01*
X130105600Y-97982800D02*
X130105600Y-96632800D01*
G75*
G02*
X130180600Y-96557800I75000J0D01*
G01*
X130330600Y-96557800D01*
G75*
G02*
X130405600Y-96632800I0J-75000D01*
G01*
X130405600Y-97982800D01*
G75*
G02*
X130330600Y-98057800I-75000J0D01*
G01*
X130180600Y-98057800D01*
G75*
G02*
X130105600Y-97982800I0J75000D01*
G01*
G37*
G36*
G01*
X129605600Y-97982800D02*
X129605600Y-96632800D01*
G75*
G02*
X129680600Y-96557800I75000J0D01*
G01*
X129830600Y-96557800D01*
G75*
G02*
X129905600Y-96632800I0J-75000D01*
G01*
X129905600Y-97982800D01*
G75*
G02*
X129830600Y-98057800I-75000J0D01*
G01*
X129680600Y-98057800D01*
G75*
G02*
X129605600Y-97982800I0J75000D01*
G01*
G37*
G36*
G01*
X129105600Y-97982800D02*
X129105600Y-96632800D01*
G75*
G02*
X129180600Y-96557800I75000J0D01*
G01*
X129330600Y-96557800D01*
G75*
G02*
X129405600Y-96632800I0J-75000D01*
G01*
X129405600Y-97982800D01*
G75*
G02*
X129330600Y-98057800I-75000J0D01*
G01*
X129180600Y-98057800D01*
G75*
G02*
X129105600Y-97982800I0J75000D01*
G01*
G37*
G36*
G01*
X128605600Y-97982800D02*
X128605600Y-96632800D01*
G75*
G02*
X128680600Y-96557800I75000J0D01*
G01*
X128830600Y-96557800D01*
G75*
G02*
X128905600Y-96632800I0J-75000D01*
G01*
X128905600Y-97982800D01*
G75*
G02*
X128830600Y-98057800I-75000J0D01*
G01*
X128680600Y-98057800D01*
G75*
G02*
X128605600Y-97982800I0J75000D01*
G01*
G37*
G36*
G01*
X128105600Y-97982800D02*
X128105600Y-96632800D01*
G75*
G02*
X128180600Y-96557800I75000J0D01*
G01*
X128330600Y-96557800D01*
G75*
G02*
X128405600Y-96632800I0J-75000D01*
G01*
X128405600Y-97982800D01*
G75*
G02*
X128330600Y-98057800I-75000J0D01*
G01*
X128180600Y-98057800D01*
G75*
G02*
X128105600Y-97982800I0J75000D01*
G01*
G37*
G36*
G01*
X127605600Y-97982800D02*
X127605600Y-96632800D01*
G75*
G02*
X127680600Y-96557800I75000J0D01*
G01*
X127830600Y-96557800D01*
G75*
G02*
X127905600Y-96632800I0J-75000D01*
G01*
X127905600Y-97982800D01*
G75*
G02*
X127830600Y-98057800I-75000J0D01*
G01*
X127680600Y-98057800D01*
G75*
G02*
X127605600Y-97982800I0J75000D01*
G01*
G37*
G36*
G01*
X127105600Y-97982800D02*
X127105600Y-96632800D01*
G75*
G02*
X127180600Y-96557800I75000J0D01*
G01*
X127330600Y-96557800D01*
G75*
G02*
X127405600Y-96632800I0J-75000D01*
G01*
X127405600Y-97982800D01*
G75*
G02*
X127330600Y-98057800I-75000J0D01*
G01*
X127180600Y-98057800D01*
G75*
G02*
X127105600Y-97982800I0J75000D01*
G01*
G37*
G36*
G01*
X126605600Y-97982800D02*
X126605600Y-96632800D01*
G75*
G02*
X126680600Y-96557800I75000J0D01*
G01*
X126830600Y-96557800D01*
G75*
G02*
X126905600Y-96632800I0J-75000D01*
G01*
X126905600Y-97982800D01*
G75*
G02*
X126830600Y-98057800I-75000J0D01*
G01*
X126680600Y-98057800D01*
G75*
G02*
X126605600Y-97982800I0J75000D01*
G01*
G37*
G36*
G01*
X126105600Y-97982800D02*
X126105600Y-96632800D01*
G75*
G02*
X126180600Y-96557800I75000J0D01*
G01*
X126330600Y-96557800D01*
G75*
G02*
X126405600Y-96632800I0J-75000D01*
G01*
X126405600Y-97982800D01*
G75*
G02*
X126330600Y-98057800I-75000J0D01*
G01*
X126180600Y-98057800D01*
G75*
G02*
X126105600Y-97982800I0J75000D01*
G01*
G37*
G36*
G01*
X125605600Y-97982800D02*
X125605600Y-96632800D01*
G75*
G02*
X125680600Y-96557800I75000J0D01*
G01*
X125830600Y-96557800D01*
G75*
G02*
X125905600Y-96632800I0J-75000D01*
G01*
X125905600Y-97982800D01*
G75*
G02*
X125830600Y-98057800I-75000J0D01*
G01*
X125680600Y-98057800D01*
G75*
G02*
X125605600Y-97982800I0J75000D01*
G01*
G37*
G36*
G01*
X125105600Y-97982800D02*
X125105600Y-96632800D01*
G75*
G02*
X125180600Y-96557800I75000J0D01*
G01*
X125330600Y-96557800D01*
G75*
G02*
X125405600Y-96632800I0J-75000D01*
G01*
X125405600Y-97982800D01*
G75*
G02*
X125330600Y-98057800I-75000J0D01*
G01*
X125180600Y-98057800D01*
G75*
G02*
X125105600Y-97982800I0J75000D01*
G01*
G37*
G36*
G01*
X124605600Y-97982800D02*
X124605600Y-96632800D01*
G75*
G02*
X124680600Y-96557800I75000J0D01*
G01*
X124830600Y-96557800D01*
G75*
G02*
X124905600Y-96632800I0J-75000D01*
G01*
X124905600Y-97982800D01*
G75*
G02*
X124830600Y-98057800I-75000J0D01*
G01*
X124680600Y-98057800D01*
G75*
G02*
X124605600Y-97982800I0J75000D01*
G01*
G37*
G36*
G01*
X124105600Y-97982800D02*
X124105600Y-96632800D01*
G75*
G02*
X124180600Y-96557800I75000J0D01*
G01*
X124330600Y-96557800D01*
G75*
G02*
X124405600Y-96632800I0J-75000D01*
G01*
X124405600Y-97982800D01*
G75*
G02*
X124330600Y-98057800I-75000J0D01*
G01*
X124180600Y-98057800D01*
G75*
G02*
X124105600Y-97982800I0J75000D01*
G01*
G37*
G36*
G01*
X123605600Y-97982800D02*
X123605600Y-96632800D01*
G75*
G02*
X123680600Y-96557800I75000J0D01*
G01*
X123830600Y-96557800D01*
G75*
G02*
X123905600Y-96632800I0J-75000D01*
G01*
X123905600Y-97982800D01*
G75*
G02*
X123830600Y-98057800I-75000J0D01*
G01*
X123680600Y-98057800D01*
G75*
G02*
X123605600Y-97982800I0J75000D01*
G01*
G37*
G36*
G01*
X123105600Y-97982800D02*
X123105600Y-96632800D01*
G75*
G02*
X123180600Y-96557800I75000J0D01*
G01*
X123330600Y-96557800D01*
G75*
G02*
X123405600Y-96632800I0J-75000D01*
G01*
X123405600Y-97982800D01*
G75*
G02*
X123330600Y-98057800I-75000J0D01*
G01*
X123180600Y-98057800D01*
G75*
G02*
X123105600Y-97982800I0J75000D01*
G01*
G37*
G36*
G01*
X122605600Y-97982800D02*
X122605600Y-96632800D01*
G75*
G02*
X122680600Y-96557800I75000J0D01*
G01*
X122830600Y-96557800D01*
G75*
G02*
X122905600Y-96632800I0J-75000D01*
G01*
X122905600Y-97982800D01*
G75*
G02*
X122830600Y-98057800I-75000J0D01*
G01*
X122680600Y-98057800D01*
G75*
G02*
X122605600Y-97982800I0J75000D01*
G01*
G37*
G36*
G01*
X122105600Y-97982800D02*
X122105600Y-96632800D01*
G75*
G02*
X122180600Y-96557800I75000J0D01*
G01*
X122330600Y-96557800D01*
G75*
G02*
X122405600Y-96632800I0J-75000D01*
G01*
X122405600Y-97982800D01*
G75*
G02*
X122330600Y-98057800I-75000J0D01*
G01*
X122180600Y-98057800D01*
G75*
G02*
X122105600Y-97982800I0J75000D01*
G01*
G37*
G36*
G01*
X121605600Y-97982800D02*
X121605600Y-96632800D01*
G75*
G02*
X121680600Y-96557800I75000J0D01*
G01*
X121830600Y-96557800D01*
G75*
G02*
X121905600Y-96632800I0J-75000D01*
G01*
X121905600Y-97982800D01*
G75*
G02*
X121830600Y-98057800I-75000J0D01*
G01*
X121680600Y-98057800D01*
G75*
G02*
X121605600Y-97982800I0J75000D01*
G01*
G37*
G36*
G01*
X121105600Y-97982800D02*
X121105600Y-96632800D01*
G75*
G02*
X121180600Y-96557800I75000J0D01*
G01*
X121330600Y-96557800D01*
G75*
G02*
X121405600Y-96632800I0J-75000D01*
G01*
X121405600Y-97982800D01*
G75*
G02*
X121330600Y-98057800I-75000J0D01*
G01*
X121180600Y-98057800D01*
G75*
G02*
X121105600Y-97982800I0J75000D01*
G01*
G37*
G36*
G01*
X120605600Y-97982800D02*
X120605600Y-96632800D01*
G75*
G02*
X120680600Y-96557800I75000J0D01*
G01*
X120830600Y-96557800D01*
G75*
G02*
X120905600Y-96632800I0J-75000D01*
G01*
X120905600Y-97982800D01*
G75*
G02*
X120830600Y-98057800I-75000J0D01*
G01*
X120680600Y-98057800D01*
G75*
G02*
X120605600Y-97982800I0J75000D01*
G01*
G37*
G36*
G01*
X120105600Y-97982800D02*
X120105600Y-96632800D01*
G75*
G02*
X120180600Y-96557800I75000J0D01*
G01*
X120330600Y-96557800D01*
G75*
G02*
X120405600Y-96632800I0J-75000D01*
G01*
X120405600Y-97982800D01*
G75*
G02*
X120330600Y-98057800I-75000J0D01*
G01*
X120180600Y-98057800D01*
G75*
G02*
X120105600Y-97982800I0J75000D01*
G01*
G37*
G36*
G01*
X119605600Y-97982800D02*
X119605600Y-96632800D01*
G75*
G02*
X119680600Y-96557800I75000J0D01*
G01*
X119830600Y-96557800D01*
G75*
G02*
X119905600Y-96632800I0J-75000D01*
G01*
X119905600Y-97982800D01*
G75*
G02*
X119830600Y-98057800I-75000J0D01*
G01*
X119680600Y-98057800D01*
G75*
G02*
X119605600Y-97982800I0J75000D01*
G01*
G37*
G36*
G01*
X119105600Y-97982800D02*
X119105600Y-96632800D01*
G75*
G02*
X119180600Y-96557800I75000J0D01*
G01*
X119330600Y-96557800D01*
G75*
G02*
X119405600Y-96632800I0J-75000D01*
G01*
X119405600Y-97982800D01*
G75*
G02*
X119330600Y-98057800I-75000J0D01*
G01*
X119180600Y-98057800D01*
G75*
G02*
X119105600Y-97982800I0J75000D01*
G01*
G37*
G36*
G01*
X118605600Y-97982800D02*
X118605600Y-96632800D01*
G75*
G02*
X118680600Y-96557800I75000J0D01*
G01*
X118830600Y-96557800D01*
G75*
G02*
X118905600Y-96632800I0J-75000D01*
G01*
X118905600Y-97982800D01*
G75*
G02*
X118830600Y-98057800I-75000J0D01*
G01*
X118680600Y-98057800D01*
G75*
G02*
X118605600Y-97982800I0J75000D01*
G01*
G37*
G36*
G01*
X118105600Y-97982800D02*
X118105600Y-96632800D01*
G75*
G02*
X118180600Y-96557800I75000J0D01*
G01*
X118330600Y-96557800D01*
G75*
G02*
X118405600Y-96632800I0J-75000D01*
G01*
X118405600Y-97982800D01*
G75*
G02*
X118330600Y-98057800I-75000J0D01*
G01*
X118180600Y-98057800D01*
G75*
G02*
X118105600Y-97982800I0J75000D01*
G01*
G37*
G36*
G01*
X117605600Y-97982800D02*
X117605600Y-96632800D01*
G75*
G02*
X117680600Y-96557800I75000J0D01*
G01*
X117830600Y-96557800D01*
G75*
G02*
X117905600Y-96632800I0J-75000D01*
G01*
X117905600Y-97982800D01*
G75*
G02*
X117830600Y-98057800I-75000J0D01*
G01*
X117680600Y-98057800D01*
G75*
G02*
X117605600Y-97982800I0J75000D01*
G01*
G37*
G36*
G01*
X117105600Y-97982800D02*
X117105600Y-96632800D01*
G75*
G02*
X117180600Y-96557800I75000J0D01*
G01*
X117330600Y-96557800D01*
G75*
G02*
X117405600Y-96632800I0J-75000D01*
G01*
X117405600Y-97982800D01*
G75*
G02*
X117330600Y-98057800I-75000J0D01*
G01*
X117180600Y-98057800D01*
G75*
G02*
X117105600Y-97982800I0J75000D01*
G01*
G37*
G36*
G01*
X116605600Y-97982800D02*
X116605600Y-96632800D01*
G75*
G02*
X116680600Y-96557800I75000J0D01*
G01*
X116830600Y-96557800D01*
G75*
G02*
X116905600Y-96632800I0J-75000D01*
G01*
X116905600Y-97982800D01*
G75*
G02*
X116830600Y-98057800I-75000J0D01*
G01*
X116680600Y-98057800D01*
G75*
G02*
X116605600Y-97982800I0J75000D01*
G01*
G37*
G36*
G01*
X116105600Y-97982800D02*
X116105600Y-96632800D01*
G75*
G02*
X116180600Y-96557800I75000J0D01*
G01*
X116330600Y-96557800D01*
G75*
G02*
X116405600Y-96632800I0J-75000D01*
G01*
X116405600Y-97982800D01*
G75*
G02*
X116330600Y-98057800I-75000J0D01*
G01*
X116180600Y-98057800D01*
G75*
G02*
X116105600Y-97982800I0J75000D01*
G01*
G37*
G36*
G01*
X115605600Y-97982800D02*
X115605600Y-96632800D01*
G75*
G02*
X115680600Y-96557800I75000J0D01*
G01*
X115830600Y-96557800D01*
G75*
G02*
X115905600Y-96632800I0J-75000D01*
G01*
X115905600Y-97982800D01*
G75*
G02*
X115830600Y-98057800I-75000J0D01*
G01*
X115680600Y-98057800D01*
G75*
G02*
X115605600Y-97982800I0J75000D01*
G01*
G37*
G36*
G01*
X115105600Y-97982800D02*
X115105600Y-96632800D01*
G75*
G02*
X115180600Y-96557800I75000J0D01*
G01*
X115330600Y-96557800D01*
G75*
G02*
X115405600Y-96632800I0J-75000D01*
G01*
X115405600Y-97982800D01*
G75*
G02*
X115330600Y-98057800I-75000J0D01*
G01*
X115180600Y-98057800D01*
G75*
G02*
X115105600Y-97982800I0J75000D01*
G01*
G37*
G36*
G01*
X114605600Y-97982800D02*
X114605600Y-96632800D01*
G75*
G02*
X114680600Y-96557800I75000J0D01*
G01*
X114830600Y-96557800D01*
G75*
G02*
X114905600Y-96632800I0J-75000D01*
G01*
X114905600Y-97982800D01*
G75*
G02*
X114830600Y-98057800I-75000J0D01*
G01*
X114680600Y-98057800D01*
G75*
G02*
X114605600Y-97982800I0J75000D01*
G01*
G37*
G36*
G01*
X114105600Y-97982800D02*
X114105600Y-96632800D01*
G75*
G02*
X114180600Y-96557800I75000J0D01*
G01*
X114330600Y-96557800D01*
G75*
G02*
X114405600Y-96632800I0J-75000D01*
G01*
X114405600Y-97982800D01*
G75*
G02*
X114330600Y-98057800I-75000J0D01*
G01*
X114180600Y-98057800D01*
G75*
G02*
X114105600Y-97982800I0J75000D01*
G01*
G37*
G36*
G01*
X113605600Y-97982800D02*
X113605600Y-96632800D01*
G75*
G02*
X113680600Y-96557800I75000J0D01*
G01*
X113830600Y-96557800D01*
G75*
G02*
X113905600Y-96632800I0J-75000D01*
G01*
X113905600Y-97982800D01*
G75*
G02*
X113830600Y-98057800I-75000J0D01*
G01*
X113680600Y-98057800D01*
G75*
G02*
X113605600Y-97982800I0J75000D01*
G01*
G37*
G36*
G01*
X113105600Y-97982800D02*
X113105600Y-96632800D01*
G75*
G02*
X113180600Y-96557800I75000J0D01*
G01*
X113330600Y-96557800D01*
G75*
G02*
X113405600Y-96632800I0J-75000D01*
G01*
X113405600Y-97982800D01*
G75*
G02*
X113330600Y-98057800I-75000J0D01*
G01*
X113180600Y-98057800D01*
G75*
G02*
X113105600Y-97982800I0J75000D01*
G01*
G37*
G36*
G01*
X112605600Y-97982800D02*
X112605600Y-96632800D01*
G75*
G02*
X112680600Y-96557800I75000J0D01*
G01*
X112830600Y-96557800D01*
G75*
G02*
X112905600Y-96632800I0J-75000D01*
G01*
X112905600Y-97982800D01*
G75*
G02*
X112830600Y-98057800I-75000J0D01*
G01*
X112680600Y-98057800D01*
G75*
G02*
X112605600Y-97982800I0J75000D01*
G01*
G37*
G36*
G01*
X112105600Y-97982800D02*
X112105600Y-96632800D01*
G75*
G02*
X112180600Y-96557800I75000J0D01*
G01*
X112330600Y-96557800D01*
G75*
G02*
X112405600Y-96632800I0J-75000D01*
G01*
X112405600Y-97982800D01*
G75*
G02*
X112330600Y-98057800I-75000J0D01*
G01*
X112180600Y-98057800D01*
G75*
G02*
X112105600Y-97982800I0J75000D01*
G01*
G37*
G36*
G01*
X111605600Y-97982800D02*
X111605600Y-96632800D01*
G75*
G02*
X111680600Y-96557800I75000J0D01*
G01*
X111830600Y-96557800D01*
G75*
G02*
X111905600Y-96632800I0J-75000D01*
G01*
X111905600Y-97982800D01*
G75*
G02*
X111830600Y-98057800I-75000J0D01*
G01*
X111680600Y-98057800D01*
G75*
G02*
X111605600Y-97982800I0J75000D01*
G01*
G37*
G36*
G01*
X111105600Y-97982800D02*
X111105600Y-96632800D01*
G75*
G02*
X111180600Y-96557800I75000J0D01*
G01*
X111330600Y-96557800D01*
G75*
G02*
X111405600Y-96632800I0J-75000D01*
G01*
X111405600Y-97982800D01*
G75*
G02*
X111330600Y-98057800I-75000J0D01*
G01*
X111180600Y-98057800D01*
G75*
G02*
X111105600Y-97982800I0J75000D01*
G01*
G37*
G36*
G01*
X110605600Y-97982800D02*
X110605600Y-96632800D01*
G75*
G02*
X110680600Y-96557800I75000J0D01*
G01*
X110830600Y-96557800D01*
G75*
G02*
X110905600Y-96632800I0J-75000D01*
G01*
X110905600Y-97982800D01*
G75*
G02*
X110830600Y-98057800I-75000J0D01*
G01*
X110680600Y-98057800D01*
G75*
G02*
X110605600Y-97982800I0J75000D01*
G01*
G37*
G36*
G01*
X110105600Y-97982800D02*
X110105600Y-96632800D01*
G75*
G02*
X110180600Y-96557800I75000J0D01*
G01*
X110330600Y-96557800D01*
G75*
G02*
X110405600Y-96632800I0J-75000D01*
G01*
X110405600Y-97982800D01*
G75*
G02*
X110330600Y-98057800I-75000J0D01*
G01*
X110180600Y-98057800D01*
G75*
G02*
X110105600Y-97982800I0J75000D01*
G01*
G37*
G36*
G01*
X107580600Y-95457800D02*
X107580600Y-95307800D01*
G75*
G02*
X107655600Y-95232800I75000J0D01*
G01*
X109005600Y-95232800D01*
G75*
G02*
X109080600Y-95307800I0J-75000D01*
G01*
X109080600Y-95457800D01*
G75*
G02*
X109005600Y-95532800I-75000J0D01*
G01*
X107655600Y-95532800D01*
G75*
G02*
X107580600Y-95457800I0J75000D01*
G01*
G37*
G36*
G01*
X107580600Y-94957800D02*
X107580600Y-94807800D01*
G75*
G02*
X107655600Y-94732800I75000J0D01*
G01*
X109005600Y-94732800D01*
G75*
G02*
X109080600Y-94807800I0J-75000D01*
G01*
X109080600Y-94957800D01*
G75*
G02*
X109005600Y-95032800I-75000J0D01*
G01*
X107655600Y-95032800D01*
G75*
G02*
X107580600Y-94957800I0J75000D01*
G01*
G37*
G36*
G01*
X107580600Y-94457800D02*
X107580600Y-94307800D01*
G75*
G02*
X107655600Y-94232800I75000J0D01*
G01*
X109005600Y-94232800D01*
G75*
G02*
X109080600Y-94307800I0J-75000D01*
G01*
X109080600Y-94457800D01*
G75*
G02*
X109005600Y-94532800I-75000J0D01*
G01*
X107655600Y-94532800D01*
G75*
G02*
X107580600Y-94457800I0J75000D01*
G01*
G37*
G36*
G01*
X107580600Y-93957800D02*
X107580600Y-93807800D01*
G75*
G02*
X107655600Y-93732800I75000J0D01*
G01*
X109005600Y-93732800D01*
G75*
G02*
X109080600Y-93807800I0J-75000D01*
G01*
X109080600Y-93957800D01*
G75*
G02*
X109005600Y-94032800I-75000J0D01*
G01*
X107655600Y-94032800D01*
G75*
G02*
X107580600Y-93957800I0J75000D01*
G01*
G37*
G36*
G01*
X107580600Y-93457800D02*
X107580600Y-93307800D01*
G75*
G02*
X107655600Y-93232800I75000J0D01*
G01*
X109005600Y-93232800D01*
G75*
G02*
X109080600Y-93307800I0J-75000D01*
G01*
X109080600Y-93457800D01*
G75*
G02*
X109005600Y-93532800I-75000J0D01*
G01*
X107655600Y-93532800D01*
G75*
G02*
X107580600Y-93457800I0J75000D01*
G01*
G37*
G36*
G01*
X107580600Y-92957800D02*
X107580600Y-92807800D01*
G75*
G02*
X107655600Y-92732800I75000J0D01*
G01*
X109005600Y-92732800D01*
G75*
G02*
X109080600Y-92807800I0J-75000D01*
G01*
X109080600Y-92957800D01*
G75*
G02*
X109005600Y-93032800I-75000J0D01*
G01*
X107655600Y-93032800D01*
G75*
G02*
X107580600Y-92957800I0J75000D01*
G01*
G37*
G36*
G01*
X107580600Y-92457800D02*
X107580600Y-92307800D01*
G75*
G02*
X107655600Y-92232800I75000J0D01*
G01*
X109005600Y-92232800D01*
G75*
G02*
X109080600Y-92307800I0J-75000D01*
G01*
X109080600Y-92457800D01*
G75*
G02*
X109005600Y-92532800I-75000J0D01*
G01*
X107655600Y-92532800D01*
G75*
G02*
X107580600Y-92457800I0J75000D01*
G01*
G37*
G36*
G01*
X107580600Y-91957800D02*
X107580600Y-91807800D01*
G75*
G02*
X107655600Y-91732800I75000J0D01*
G01*
X109005600Y-91732800D01*
G75*
G02*
X109080600Y-91807800I0J-75000D01*
G01*
X109080600Y-91957800D01*
G75*
G02*
X109005600Y-92032800I-75000J0D01*
G01*
X107655600Y-92032800D01*
G75*
G02*
X107580600Y-91957800I0J75000D01*
G01*
G37*
G36*
G01*
X107580600Y-91457800D02*
X107580600Y-91307800D01*
G75*
G02*
X107655600Y-91232800I75000J0D01*
G01*
X109005600Y-91232800D01*
G75*
G02*
X109080600Y-91307800I0J-75000D01*
G01*
X109080600Y-91457800D01*
G75*
G02*
X109005600Y-91532800I-75000J0D01*
G01*
X107655600Y-91532800D01*
G75*
G02*
X107580600Y-91457800I0J75000D01*
G01*
G37*
G36*
G01*
X107580600Y-90957800D02*
X107580600Y-90807800D01*
G75*
G02*
X107655600Y-90732800I75000J0D01*
G01*
X109005600Y-90732800D01*
G75*
G02*
X109080600Y-90807800I0J-75000D01*
G01*
X109080600Y-90957800D01*
G75*
G02*
X109005600Y-91032800I-75000J0D01*
G01*
X107655600Y-91032800D01*
G75*
G02*
X107580600Y-90957800I0J75000D01*
G01*
G37*
G36*
G01*
X107580600Y-90457800D02*
X107580600Y-90307800D01*
G75*
G02*
X107655600Y-90232800I75000J0D01*
G01*
X109005600Y-90232800D01*
G75*
G02*
X109080600Y-90307800I0J-75000D01*
G01*
X109080600Y-90457800D01*
G75*
G02*
X109005600Y-90532800I-75000J0D01*
G01*
X107655600Y-90532800D01*
G75*
G02*
X107580600Y-90457800I0J75000D01*
G01*
G37*
G36*
G01*
X107580600Y-89957800D02*
X107580600Y-89807800D01*
G75*
G02*
X107655600Y-89732800I75000J0D01*
G01*
X109005600Y-89732800D01*
G75*
G02*
X109080600Y-89807800I0J-75000D01*
G01*
X109080600Y-89957800D01*
G75*
G02*
X109005600Y-90032800I-75000J0D01*
G01*
X107655600Y-90032800D01*
G75*
G02*
X107580600Y-89957800I0J75000D01*
G01*
G37*
G36*
G01*
X107580600Y-89457800D02*
X107580600Y-89307800D01*
G75*
G02*
X107655600Y-89232800I75000J0D01*
G01*
X109005600Y-89232800D01*
G75*
G02*
X109080600Y-89307800I0J-75000D01*
G01*
X109080600Y-89457800D01*
G75*
G02*
X109005600Y-89532800I-75000J0D01*
G01*
X107655600Y-89532800D01*
G75*
G02*
X107580600Y-89457800I0J75000D01*
G01*
G37*
G36*
G01*
X107580600Y-88957800D02*
X107580600Y-88807800D01*
G75*
G02*
X107655600Y-88732800I75000J0D01*
G01*
X109005600Y-88732800D01*
G75*
G02*
X109080600Y-88807800I0J-75000D01*
G01*
X109080600Y-88957800D01*
G75*
G02*
X109005600Y-89032800I-75000J0D01*
G01*
X107655600Y-89032800D01*
G75*
G02*
X107580600Y-88957800I0J75000D01*
G01*
G37*
G36*
G01*
X107580600Y-88457800D02*
X107580600Y-88307800D01*
G75*
G02*
X107655600Y-88232800I75000J0D01*
G01*
X109005600Y-88232800D01*
G75*
G02*
X109080600Y-88307800I0J-75000D01*
G01*
X109080600Y-88457800D01*
G75*
G02*
X109005600Y-88532800I-75000J0D01*
G01*
X107655600Y-88532800D01*
G75*
G02*
X107580600Y-88457800I0J75000D01*
G01*
G37*
G36*
G01*
X107580600Y-87957800D02*
X107580600Y-87807800D01*
G75*
G02*
X107655600Y-87732800I75000J0D01*
G01*
X109005600Y-87732800D01*
G75*
G02*
X109080600Y-87807800I0J-75000D01*
G01*
X109080600Y-87957800D01*
G75*
G02*
X109005600Y-88032800I-75000J0D01*
G01*
X107655600Y-88032800D01*
G75*
G02*
X107580600Y-87957800I0J75000D01*
G01*
G37*
G36*
G01*
X107580600Y-87457800D02*
X107580600Y-87307800D01*
G75*
G02*
X107655600Y-87232800I75000J0D01*
G01*
X109005600Y-87232800D01*
G75*
G02*
X109080600Y-87307800I0J-75000D01*
G01*
X109080600Y-87457800D01*
G75*
G02*
X109005600Y-87532800I-75000J0D01*
G01*
X107655600Y-87532800D01*
G75*
G02*
X107580600Y-87457800I0J75000D01*
G01*
G37*
G36*
G01*
X107580600Y-86957800D02*
X107580600Y-86807800D01*
G75*
G02*
X107655600Y-86732800I75000J0D01*
G01*
X109005600Y-86732800D01*
G75*
G02*
X109080600Y-86807800I0J-75000D01*
G01*
X109080600Y-86957800D01*
G75*
G02*
X109005600Y-87032800I-75000J0D01*
G01*
X107655600Y-87032800D01*
G75*
G02*
X107580600Y-86957800I0J75000D01*
G01*
G37*
G36*
G01*
X107580600Y-86457800D02*
X107580600Y-86307800D01*
G75*
G02*
X107655600Y-86232800I75000J0D01*
G01*
X109005600Y-86232800D01*
G75*
G02*
X109080600Y-86307800I0J-75000D01*
G01*
X109080600Y-86457800D01*
G75*
G02*
X109005600Y-86532800I-75000J0D01*
G01*
X107655600Y-86532800D01*
G75*
G02*
X107580600Y-86457800I0J75000D01*
G01*
G37*
G36*
G01*
X107580600Y-85957800D02*
X107580600Y-85807800D01*
G75*
G02*
X107655600Y-85732800I75000J0D01*
G01*
X109005600Y-85732800D01*
G75*
G02*
X109080600Y-85807800I0J-75000D01*
G01*
X109080600Y-85957800D01*
G75*
G02*
X109005600Y-86032800I-75000J0D01*
G01*
X107655600Y-86032800D01*
G75*
G02*
X107580600Y-85957800I0J75000D01*
G01*
G37*
G36*
G01*
X107580600Y-85457800D02*
X107580600Y-85307800D01*
G75*
G02*
X107655600Y-85232800I75000J0D01*
G01*
X109005600Y-85232800D01*
G75*
G02*
X109080600Y-85307800I0J-75000D01*
G01*
X109080600Y-85457800D01*
G75*
G02*
X109005600Y-85532800I-75000J0D01*
G01*
X107655600Y-85532800D01*
G75*
G02*
X107580600Y-85457800I0J75000D01*
G01*
G37*
G36*
G01*
X107580600Y-84957800D02*
X107580600Y-84807800D01*
G75*
G02*
X107655600Y-84732800I75000J0D01*
G01*
X109005600Y-84732800D01*
G75*
G02*
X109080600Y-84807800I0J-75000D01*
G01*
X109080600Y-84957800D01*
G75*
G02*
X109005600Y-85032800I-75000J0D01*
G01*
X107655600Y-85032800D01*
G75*
G02*
X107580600Y-84957800I0J75000D01*
G01*
G37*
G36*
G01*
X107580600Y-84457800D02*
X107580600Y-84307800D01*
G75*
G02*
X107655600Y-84232800I75000J0D01*
G01*
X109005600Y-84232800D01*
G75*
G02*
X109080600Y-84307800I0J-75000D01*
G01*
X109080600Y-84457800D01*
G75*
G02*
X109005600Y-84532800I-75000J0D01*
G01*
X107655600Y-84532800D01*
G75*
G02*
X107580600Y-84457800I0J75000D01*
G01*
G37*
G36*
G01*
X107580600Y-83957800D02*
X107580600Y-83807800D01*
G75*
G02*
X107655600Y-83732800I75000J0D01*
G01*
X109005600Y-83732800D01*
G75*
G02*
X109080600Y-83807800I0J-75000D01*
G01*
X109080600Y-83957800D01*
G75*
G02*
X109005600Y-84032800I-75000J0D01*
G01*
X107655600Y-84032800D01*
G75*
G02*
X107580600Y-83957800I0J75000D01*
G01*
G37*
G36*
G01*
X107580600Y-83457800D02*
X107580600Y-83307800D01*
G75*
G02*
X107655600Y-83232800I75000J0D01*
G01*
X109005600Y-83232800D01*
G75*
G02*
X109080600Y-83307800I0J-75000D01*
G01*
X109080600Y-83457800D01*
G75*
G02*
X109005600Y-83532800I-75000J0D01*
G01*
X107655600Y-83532800D01*
G75*
G02*
X107580600Y-83457800I0J75000D01*
G01*
G37*
G36*
G01*
X107580600Y-82957800D02*
X107580600Y-82807800D01*
G75*
G02*
X107655600Y-82732800I75000J0D01*
G01*
X109005600Y-82732800D01*
G75*
G02*
X109080600Y-82807800I0J-75000D01*
G01*
X109080600Y-82957800D01*
G75*
G02*
X109005600Y-83032800I-75000J0D01*
G01*
X107655600Y-83032800D01*
G75*
G02*
X107580600Y-82957800I0J75000D01*
G01*
G37*
G36*
G01*
X107580600Y-82457800D02*
X107580600Y-82307800D01*
G75*
G02*
X107655600Y-82232800I75000J0D01*
G01*
X109005600Y-82232800D01*
G75*
G02*
X109080600Y-82307800I0J-75000D01*
G01*
X109080600Y-82457800D01*
G75*
G02*
X109005600Y-82532800I-75000J0D01*
G01*
X107655600Y-82532800D01*
G75*
G02*
X107580600Y-82457800I0J75000D01*
G01*
G37*
G36*
G01*
X107580600Y-81957800D02*
X107580600Y-81807800D01*
G75*
G02*
X107655600Y-81732800I75000J0D01*
G01*
X109005600Y-81732800D01*
G75*
G02*
X109080600Y-81807800I0J-75000D01*
G01*
X109080600Y-81957800D01*
G75*
G02*
X109005600Y-82032800I-75000J0D01*
G01*
X107655600Y-82032800D01*
G75*
G02*
X107580600Y-81957800I0J75000D01*
G01*
G37*
G36*
G01*
X107580600Y-81457800D02*
X107580600Y-81307800D01*
G75*
G02*
X107655600Y-81232800I75000J0D01*
G01*
X109005600Y-81232800D01*
G75*
G02*
X109080600Y-81307800I0J-75000D01*
G01*
X109080600Y-81457800D01*
G75*
G02*
X109005600Y-81532800I-75000J0D01*
G01*
X107655600Y-81532800D01*
G75*
G02*
X107580600Y-81457800I0J75000D01*
G01*
G37*
G36*
G01*
X107580600Y-80957800D02*
X107580600Y-80807800D01*
G75*
G02*
X107655600Y-80732800I75000J0D01*
G01*
X109005600Y-80732800D01*
G75*
G02*
X109080600Y-80807800I0J-75000D01*
G01*
X109080600Y-80957800D01*
G75*
G02*
X109005600Y-81032800I-75000J0D01*
G01*
X107655600Y-81032800D01*
G75*
G02*
X107580600Y-80957800I0J75000D01*
G01*
G37*
G36*
G01*
X107580600Y-80457800D02*
X107580600Y-80307800D01*
G75*
G02*
X107655600Y-80232800I75000J0D01*
G01*
X109005600Y-80232800D01*
G75*
G02*
X109080600Y-80307800I0J-75000D01*
G01*
X109080600Y-80457800D01*
G75*
G02*
X109005600Y-80532800I-75000J0D01*
G01*
X107655600Y-80532800D01*
G75*
G02*
X107580600Y-80457800I0J75000D01*
G01*
G37*
G36*
G01*
X107580600Y-79957800D02*
X107580600Y-79807800D01*
G75*
G02*
X107655600Y-79732800I75000J0D01*
G01*
X109005600Y-79732800D01*
G75*
G02*
X109080600Y-79807800I0J-75000D01*
G01*
X109080600Y-79957800D01*
G75*
G02*
X109005600Y-80032800I-75000J0D01*
G01*
X107655600Y-80032800D01*
G75*
G02*
X107580600Y-79957800I0J75000D01*
G01*
G37*
G36*
G01*
X107580600Y-79457800D02*
X107580600Y-79307800D01*
G75*
G02*
X107655600Y-79232800I75000J0D01*
G01*
X109005600Y-79232800D01*
G75*
G02*
X109080600Y-79307800I0J-75000D01*
G01*
X109080600Y-79457800D01*
G75*
G02*
X109005600Y-79532800I-75000J0D01*
G01*
X107655600Y-79532800D01*
G75*
G02*
X107580600Y-79457800I0J75000D01*
G01*
G37*
G36*
G01*
X107580600Y-78957800D02*
X107580600Y-78807800D01*
G75*
G02*
X107655600Y-78732800I75000J0D01*
G01*
X109005600Y-78732800D01*
G75*
G02*
X109080600Y-78807800I0J-75000D01*
G01*
X109080600Y-78957800D01*
G75*
G02*
X109005600Y-79032800I-75000J0D01*
G01*
X107655600Y-79032800D01*
G75*
G02*
X107580600Y-78957800I0J75000D01*
G01*
G37*
G36*
G01*
X107580600Y-78457800D02*
X107580600Y-78307800D01*
G75*
G02*
X107655600Y-78232800I75000J0D01*
G01*
X109005600Y-78232800D01*
G75*
G02*
X109080600Y-78307800I0J-75000D01*
G01*
X109080600Y-78457800D01*
G75*
G02*
X109005600Y-78532800I-75000J0D01*
G01*
X107655600Y-78532800D01*
G75*
G02*
X107580600Y-78457800I0J75000D01*
G01*
G37*
G36*
G01*
X107580600Y-77957800D02*
X107580600Y-77807800D01*
G75*
G02*
X107655600Y-77732800I75000J0D01*
G01*
X109005600Y-77732800D01*
G75*
G02*
X109080600Y-77807800I0J-75000D01*
G01*
X109080600Y-77957800D01*
G75*
G02*
X109005600Y-78032800I-75000J0D01*
G01*
X107655600Y-78032800D01*
G75*
G02*
X107580600Y-77957800I0J75000D01*
G01*
G37*
G36*
G01*
X107580600Y-77457800D02*
X107580600Y-77307800D01*
G75*
G02*
X107655600Y-77232800I75000J0D01*
G01*
X109005600Y-77232800D01*
G75*
G02*
X109080600Y-77307800I0J-75000D01*
G01*
X109080600Y-77457800D01*
G75*
G02*
X109005600Y-77532800I-75000J0D01*
G01*
X107655600Y-77532800D01*
G75*
G02*
X107580600Y-77457800I0J75000D01*
G01*
G37*
G36*
G01*
X107580600Y-76957800D02*
X107580600Y-76807800D01*
G75*
G02*
X107655600Y-76732800I75000J0D01*
G01*
X109005600Y-76732800D01*
G75*
G02*
X109080600Y-76807800I0J-75000D01*
G01*
X109080600Y-76957800D01*
G75*
G02*
X109005600Y-77032800I-75000J0D01*
G01*
X107655600Y-77032800D01*
G75*
G02*
X107580600Y-76957800I0J75000D01*
G01*
G37*
G36*
G01*
X107580600Y-76457800D02*
X107580600Y-76307800D01*
G75*
G02*
X107655600Y-76232800I75000J0D01*
G01*
X109005600Y-76232800D01*
G75*
G02*
X109080600Y-76307800I0J-75000D01*
G01*
X109080600Y-76457800D01*
G75*
G02*
X109005600Y-76532800I-75000J0D01*
G01*
X107655600Y-76532800D01*
G75*
G02*
X107580600Y-76457800I0J75000D01*
G01*
G37*
G36*
G01*
X107580600Y-75957800D02*
X107580600Y-75807800D01*
G75*
G02*
X107655600Y-75732800I75000J0D01*
G01*
X109005600Y-75732800D01*
G75*
G02*
X109080600Y-75807800I0J-75000D01*
G01*
X109080600Y-75957800D01*
G75*
G02*
X109005600Y-76032800I-75000J0D01*
G01*
X107655600Y-76032800D01*
G75*
G02*
X107580600Y-75957800I0J75000D01*
G01*
G37*
G36*
G01*
X107580600Y-75457800D02*
X107580600Y-75307800D01*
G75*
G02*
X107655600Y-75232800I75000J0D01*
G01*
X109005600Y-75232800D01*
G75*
G02*
X109080600Y-75307800I0J-75000D01*
G01*
X109080600Y-75457800D01*
G75*
G02*
X109005600Y-75532800I-75000J0D01*
G01*
X107655600Y-75532800D01*
G75*
G02*
X107580600Y-75457800I0J75000D01*
G01*
G37*
G36*
G01*
X107580600Y-74957800D02*
X107580600Y-74807800D01*
G75*
G02*
X107655600Y-74732800I75000J0D01*
G01*
X109005600Y-74732800D01*
G75*
G02*
X109080600Y-74807800I0J-75000D01*
G01*
X109080600Y-74957800D01*
G75*
G02*
X109005600Y-75032800I-75000J0D01*
G01*
X107655600Y-75032800D01*
G75*
G02*
X107580600Y-74957800I0J75000D01*
G01*
G37*
G36*
G01*
X107580600Y-74457800D02*
X107580600Y-74307800D01*
G75*
G02*
X107655600Y-74232800I75000J0D01*
G01*
X109005600Y-74232800D01*
G75*
G02*
X109080600Y-74307800I0J-75000D01*
G01*
X109080600Y-74457800D01*
G75*
G02*
X109005600Y-74532800I-75000J0D01*
G01*
X107655600Y-74532800D01*
G75*
G02*
X107580600Y-74457800I0J75000D01*
G01*
G37*
G36*
G01*
X107580600Y-73957800D02*
X107580600Y-73807800D01*
G75*
G02*
X107655600Y-73732800I75000J0D01*
G01*
X109005600Y-73732800D01*
G75*
G02*
X109080600Y-73807800I0J-75000D01*
G01*
X109080600Y-73957800D01*
G75*
G02*
X109005600Y-74032800I-75000J0D01*
G01*
X107655600Y-74032800D01*
G75*
G02*
X107580600Y-73957800I0J75000D01*
G01*
G37*
M02*
