G04 #@! TF.GenerationSoftware,KiCad,Pcbnew,(5.1.6)-1*
G04 #@! TF.CreationDate,2020-09-15T00:28:45+03:00*
G04 #@! TF.ProjectId,469devboard,34363964-6576-4626-9f61-72642e6b6963,rev?*
G04 #@! TF.SameCoordinates,Original*
G04 #@! TF.FileFunction,Soldermask,Top*
G04 #@! TF.FilePolarity,Negative*
%FSLAX46Y46*%
G04 Gerber Fmt 4.6, Leading zero omitted, Abs format (unit mm)*
G04 Created by KiCad (PCBNEW (5.1.6)-1) date 2020-09-15 00:28:45*
%MOMM*%
%LPD*%
G01*
G04 APERTURE LIST*
%ADD10O,1.800000X1.800000*%
%ADD11R,1.800000X1.800000*%
%ADD12R,2.100000X2.600000*%
%ADD13C,1.050000*%
%ADD14R,0.600000X2.350000*%
%ADD15C,1.750000*%
%ADD16C,1.300000*%
%ADD17R,2.100000X1.600000*%
%ADD18R,1.300000X1.900000*%
%ADD19R,1.900000X1.100000*%
%ADD20R,1.600000X2.100000*%
%ADD21R,3.900000X2.100000*%
%ADD22R,2.260000X1.220000*%
G04 APERTURE END LIST*
D10*
X161023300Y-107046500D03*
X158483300Y-107046500D03*
X155943300Y-107046500D03*
X153403300Y-107046500D03*
D11*
X150863300Y-107046500D03*
D10*
X161023300Y-111696500D03*
X158483300Y-111696500D03*
X155943300Y-111696500D03*
X153403300Y-111696500D03*
D11*
X150863300Y-111696500D03*
G36*
G01*
X126375144Y-102629800D02*
X128590056Y-102629800D01*
G75*
G02*
X128857600Y-102897344I0J-267544D01*
G01*
X128857600Y-103887256D01*
G75*
G02*
X128590056Y-104154800I-267544J0D01*
G01*
X126375144Y-104154800D01*
G75*
G02*
X126107600Y-103887256I0J267544D01*
G01*
X126107600Y-102897344D01*
G75*
G02*
X126375144Y-102629800I267544J0D01*
G01*
G37*
G36*
G01*
X126375144Y-99654800D02*
X128590056Y-99654800D01*
G75*
G02*
X128857600Y-99922344I0J-267544D01*
G01*
X128857600Y-100912256D01*
G75*
G02*
X128590056Y-101179800I-267544J0D01*
G01*
X126375144Y-101179800D01*
G75*
G02*
X126107600Y-100912256I0J267544D01*
G01*
X126107600Y-99922344D01*
G75*
G02*
X126375144Y-99654800I267544J0D01*
G01*
G37*
D10*
X135991600Y-71297800D03*
X135991600Y-68757800D03*
X138531600Y-71297800D03*
X138531600Y-68757800D03*
X141071600Y-71297800D03*
X141071600Y-68757800D03*
X143611600Y-71297800D03*
X143611600Y-68757800D03*
X146151600Y-71297800D03*
X146151600Y-68757800D03*
X148691600Y-71297800D03*
X148691600Y-68757800D03*
X151231600Y-71297800D03*
X151231600Y-68757800D03*
X153771600Y-71297800D03*
X153771600Y-68757800D03*
X156311600Y-71297800D03*
X156311600Y-68757800D03*
X158851600Y-71297800D03*
D11*
X158851600Y-68757800D03*
D10*
X79095600Y-126898400D03*
X79095600Y-124358400D03*
X79095600Y-121818400D03*
X79095600Y-119278400D03*
X79095600Y-116738400D03*
X79095600Y-114198400D03*
X79095600Y-111658400D03*
X79095600Y-109118400D03*
X79095600Y-106578400D03*
X79095600Y-104038400D03*
X79095600Y-101498400D03*
X79095600Y-98958400D03*
X79095600Y-96418400D03*
X79095600Y-93878400D03*
X79095600Y-91338400D03*
X79095600Y-88798400D03*
X79095600Y-86258400D03*
X79095600Y-83718400D03*
X79095600Y-81178400D03*
X79095600Y-78638400D03*
X79095600Y-76098400D03*
X79095600Y-73558400D03*
X79095600Y-71018400D03*
X79095600Y-68478400D03*
X79095600Y-65938400D03*
X79095600Y-63398400D03*
X79095600Y-60858400D03*
X79095600Y-58318400D03*
X79095600Y-55778400D03*
D11*
X79095600Y-53238400D03*
D10*
X165404800Y-53187600D03*
X165404800Y-55727600D03*
X165404800Y-58267600D03*
X165404800Y-60807600D03*
X165404800Y-63347600D03*
X165404800Y-65887600D03*
X165404800Y-68427600D03*
X165404800Y-70967600D03*
X165404800Y-73507600D03*
X165404800Y-76047600D03*
X165404800Y-78587600D03*
X165404800Y-81127600D03*
X165404800Y-83667600D03*
X165404800Y-86207600D03*
X165404800Y-88747600D03*
X165404800Y-91287600D03*
X165404800Y-93827600D03*
X165404800Y-96367600D03*
X165404800Y-98907600D03*
X165404800Y-101447600D03*
X165404800Y-103987600D03*
X165404800Y-106527600D03*
D11*
X165404800Y-109067600D03*
D12*
X168013300Y-136849000D03*
X168013300Y-142299000D03*
X159113300Y-142299000D03*
X159113300Y-136849000D03*
D13*
X165763300Y-139399000D03*
X161363300Y-139399000D03*
D14*
X165163300Y-136724000D03*
X164363300Y-136724000D03*
X163563300Y-136724000D03*
X162763300Y-136724000D03*
X161963300Y-136724000D03*
D15*
X95097600Y-61163200D03*
D16*
X95097600Y-69163200D03*
D17*
X102497600Y-65163200D03*
X87697600Y-65163200D03*
G36*
G01*
X105521600Y-88372300D02*
X105521600Y-88767300D01*
G75*
G02*
X105349100Y-88939800I-172500J0D01*
G01*
X105004100Y-88939800D01*
G75*
G02*
X104831600Y-88767300I0J172500D01*
G01*
X104831600Y-88372300D01*
G75*
G02*
X105004100Y-88199800I172500J0D01*
G01*
X105349100Y-88199800D01*
G75*
G02*
X105521600Y-88372300I0J-172500D01*
G01*
G37*
G36*
G01*
X106491600Y-88372300D02*
X106491600Y-88767300D01*
G75*
G02*
X106319100Y-88939800I-172500J0D01*
G01*
X105974100Y-88939800D01*
G75*
G02*
X105801600Y-88767300I0J172500D01*
G01*
X105801600Y-88372300D01*
G75*
G02*
X105974100Y-88199800I172500J0D01*
G01*
X106319100Y-88199800D01*
G75*
G02*
X106491600Y-88372300I0J-172500D01*
G01*
G37*
D18*
X101504600Y-86569800D03*
X101504600Y-90569800D03*
X99104600Y-90569800D03*
X99104600Y-86569800D03*
D19*
X102463600Y-79004800D03*
X102463600Y-76504800D03*
G36*
G01*
X139093100Y-76469256D02*
X139093100Y-74254344D01*
G75*
G02*
X139360644Y-73986800I267544J0D01*
G01*
X140350556Y-73986800D01*
G75*
G02*
X140618100Y-74254344I0J-267544D01*
G01*
X140618100Y-76469256D01*
G75*
G02*
X140350556Y-76736800I-267544J0D01*
G01*
X139360644Y-76736800D01*
G75*
G02*
X139093100Y-76469256I0J267544D01*
G01*
G37*
G36*
G01*
X136118100Y-76469256D02*
X136118100Y-74254344D01*
G75*
G02*
X136385644Y-73986800I267544J0D01*
G01*
X137375556Y-73986800D01*
G75*
G02*
X137643100Y-74254344I0J-267544D01*
G01*
X137643100Y-76469256D01*
G75*
G02*
X137375556Y-76736800I-267544J0D01*
G01*
X136385644Y-76736800D01*
G75*
G02*
X136118100Y-76469256I0J267544D01*
G01*
G37*
D10*
X167995600Y-130556000D03*
X165455600Y-130556000D03*
X162915600Y-130556000D03*
X160375600Y-130556000D03*
X157835600Y-130556000D03*
X155295600Y-130556000D03*
X152755600Y-130556000D03*
X150215600Y-130556000D03*
X147675600Y-130556000D03*
X145135600Y-130556000D03*
X142595600Y-130556000D03*
X140055600Y-130556000D03*
X137515600Y-130556000D03*
X134975600Y-130556000D03*
X132435600Y-130556000D03*
X129895600Y-130556000D03*
X127355600Y-130556000D03*
X124815600Y-130556000D03*
X122275600Y-130556000D03*
X119735600Y-130556000D03*
X117195600Y-130556000D03*
X114655600Y-130556000D03*
X112115600Y-130556000D03*
X109575600Y-130556000D03*
X107035600Y-130556000D03*
X104495600Y-130556000D03*
X101955600Y-130556000D03*
X99415600Y-130556000D03*
X96875600Y-130556000D03*
X94335600Y-130556000D03*
X91795600Y-130556000D03*
X89255600Y-130556000D03*
X86715600Y-130556000D03*
X84175600Y-130556000D03*
X81635600Y-130556000D03*
D11*
X79095600Y-130556000D03*
D10*
X79095600Y-49580800D03*
X81635600Y-49580800D03*
X84175600Y-49580800D03*
X86715600Y-49580800D03*
X89255600Y-49580800D03*
X91795600Y-49580800D03*
X94335600Y-49580800D03*
X96875600Y-49580800D03*
X99415600Y-49580800D03*
X101955600Y-49580800D03*
X104495600Y-49580800D03*
X107035600Y-49580800D03*
X109575600Y-49580800D03*
X112115600Y-49580800D03*
X114655600Y-49580800D03*
X117195600Y-49580800D03*
X119735600Y-49580800D03*
X122275600Y-49580800D03*
X124815600Y-49580800D03*
X127355600Y-49580800D03*
X129895600Y-49580800D03*
X132435600Y-49580800D03*
X134975600Y-49580800D03*
X137515600Y-49580800D03*
X140055600Y-49580800D03*
X142595600Y-49580800D03*
X145135600Y-49580800D03*
X147675600Y-49580800D03*
X150215600Y-49580800D03*
X152755600Y-49580800D03*
X155295600Y-49580800D03*
X157835600Y-49580800D03*
X160375600Y-49580800D03*
X162915600Y-49580800D03*
D11*
X165455600Y-49580800D03*
G36*
G01*
X143827200Y-65791700D02*
X143827200Y-66186700D01*
G75*
G02*
X143654700Y-66359200I-172500J0D01*
G01*
X143309700Y-66359200D01*
G75*
G02*
X143137200Y-66186700I0J172500D01*
G01*
X143137200Y-65791700D01*
G75*
G02*
X143309700Y-65619200I172500J0D01*
G01*
X143654700Y-65619200D01*
G75*
G02*
X143827200Y-65791700I0J-172500D01*
G01*
G37*
G36*
G01*
X144797200Y-65791700D02*
X144797200Y-66186700D01*
G75*
G02*
X144624700Y-66359200I-172500J0D01*
G01*
X144279700Y-66359200D01*
G75*
G02*
X144107200Y-66186700I0J172500D01*
G01*
X144107200Y-65791700D01*
G75*
G02*
X144279700Y-65619200I172500J0D01*
G01*
X144624700Y-65619200D01*
G75*
G02*
X144797200Y-65791700I0J-172500D01*
G01*
G37*
G36*
G01*
X133254100Y-69990000D02*
X133649100Y-69990000D01*
G75*
G02*
X133821600Y-70162500I0J-172500D01*
G01*
X133821600Y-70507500D01*
G75*
G02*
X133649100Y-70680000I-172500J0D01*
G01*
X133254100Y-70680000D01*
G75*
G02*
X133081600Y-70507500I0J172500D01*
G01*
X133081600Y-70162500D01*
G75*
G02*
X133254100Y-69990000I172500J0D01*
G01*
G37*
G36*
G01*
X133254100Y-69020000D02*
X133649100Y-69020000D01*
G75*
G02*
X133821600Y-69192500I0J-172500D01*
G01*
X133821600Y-69537500D01*
G75*
G02*
X133649100Y-69710000I-172500J0D01*
G01*
X133254100Y-69710000D01*
G75*
G02*
X133081600Y-69537500I0J172500D01*
G01*
X133081600Y-69192500D01*
G75*
G02*
X133254100Y-69020000I172500J0D01*
G01*
G37*
G36*
G01*
X139281200Y-66237500D02*
X139281200Y-65842500D01*
G75*
G02*
X139453700Y-65670000I172500J0D01*
G01*
X139798700Y-65670000D01*
G75*
G02*
X139971200Y-65842500I0J-172500D01*
G01*
X139971200Y-66237500D01*
G75*
G02*
X139798700Y-66410000I-172500J0D01*
G01*
X139453700Y-66410000D01*
G75*
G02*
X139281200Y-66237500I0J172500D01*
G01*
G37*
G36*
G01*
X138311200Y-66237500D02*
X138311200Y-65842500D01*
G75*
G02*
X138483700Y-65670000I172500J0D01*
G01*
X138828700Y-65670000D01*
G75*
G02*
X139001200Y-65842500I0J-172500D01*
G01*
X139001200Y-66237500D01*
G75*
G02*
X138828700Y-66410000I-172500J0D01*
G01*
X138483700Y-66410000D01*
G75*
G02*
X138311200Y-66237500I0J172500D01*
G01*
G37*
D10*
X151993600Y-89712800D03*
X149453600Y-89712800D03*
X146913600Y-89712800D03*
X144373600Y-89712800D03*
X141833600Y-89712800D03*
D11*
X139293600Y-89712800D03*
G36*
G01*
X166846900Y-115912600D02*
X166451900Y-115912600D01*
G75*
G02*
X166279400Y-115740100I0J172500D01*
G01*
X166279400Y-115395100D01*
G75*
G02*
X166451900Y-115222600I172500J0D01*
G01*
X166846900Y-115222600D01*
G75*
G02*
X167019400Y-115395100I0J-172500D01*
G01*
X167019400Y-115740100D01*
G75*
G02*
X166846900Y-115912600I-172500J0D01*
G01*
G37*
G36*
G01*
X166846900Y-116882600D02*
X166451900Y-116882600D01*
G75*
G02*
X166279400Y-116710100I0J172500D01*
G01*
X166279400Y-116365100D01*
G75*
G02*
X166451900Y-116192600I172500J0D01*
G01*
X166846900Y-116192600D01*
G75*
G02*
X167019400Y-116365100I0J-172500D01*
G01*
X167019400Y-116710100D01*
G75*
G02*
X166846900Y-116882600I-172500J0D01*
G01*
G37*
G36*
G01*
X165449900Y-115912600D02*
X165054900Y-115912600D01*
G75*
G02*
X164882400Y-115740100I0J172500D01*
G01*
X164882400Y-115395100D01*
G75*
G02*
X165054900Y-115222600I172500J0D01*
G01*
X165449900Y-115222600D01*
G75*
G02*
X165622400Y-115395100I0J-172500D01*
G01*
X165622400Y-115740100D01*
G75*
G02*
X165449900Y-115912600I-172500J0D01*
G01*
G37*
G36*
G01*
X165449900Y-116882600D02*
X165054900Y-116882600D01*
G75*
G02*
X164882400Y-116710100I0J172500D01*
G01*
X164882400Y-116365100D01*
G75*
G02*
X165054900Y-116192600I172500J0D01*
G01*
X165449900Y-116192600D01*
G75*
G02*
X165622400Y-116365100I0J-172500D01*
G01*
X165622400Y-116710100D01*
G75*
G02*
X165449900Y-116882600I-172500J0D01*
G01*
G37*
G36*
G01*
X165415400Y-122600100D02*
X165415400Y-122205100D01*
G75*
G02*
X165587900Y-122032600I172500J0D01*
G01*
X165932900Y-122032600D01*
G75*
G02*
X166105400Y-122205100I0J-172500D01*
G01*
X166105400Y-122600100D01*
G75*
G02*
X165932900Y-122772600I-172500J0D01*
G01*
X165587900Y-122772600D01*
G75*
G02*
X165415400Y-122600100I0J172500D01*
G01*
G37*
G36*
G01*
X164445400Y-122600100D02*
X164445400Y-122205100D01*
G75*
G02*
X164617900Y-122032600I172500J0D01*
G01*
X164962900Y-122032600D01*
G75*
G02*
X165135400Y-122205100I0J-172500D01*
G01*
X165135400Y-122600100D01*
G75*
G02*
X164962900Y-122772600I-172500J0D01*
G01*
X164617900Y-122772600D01*
G75*
G02*
X164445400Y-122600100I0J172500D01*
G01*
G37*
G36*
G01*
X165036800Y-133992000D02*
X165036800Y-133597000D01*
G75*
G02*
X165209300Y-133424500I172500J0D01*
G01*
X165554300Y-133424500D01*
G75*
G02*
X165726800Y-133597000I0J-172500D01*
G01*
X165726800Y-133992000D01*
G75*
G02*
X165554300Y-134164500I-172500J0D01*
G01*
X165209300Y-134164500D01*
G75*
G02*
X165036800Y-133992000I0J172500D01*
G01*
G37*
G36*
G01*
X164066800Y-133992000D02*
X164066800Y-133597000D01*
G75*
G02*
X164239300Y-133424500I172500J0D01*
G01*
X164584300Y-133424500D01*
G75*
G02*
X164756800Y-133597000I0J-172500D01*
G01*
X164756800Y-133992000D01*
G75*
G02*
X164584300Y-134164500I-172500J0D01*
G01*
X164239300Y-134164500D01*
G75*
G02*
X164066800Y-133992000I0J172500D01*
G01*
G37*
D20*
X158126400Y-122631600D03*
X162726400Y-122631600D03*
X160426400Y-122631600D03*
D21*
X160426400Y-116331600D03*
D22*
X154012400Y-59893200D03*
X147282400Y-59893200D03*
G36*
G01*
X150939200Y-64013700D02*
X150939200Y-64408700D01*
G75*
G02*
X150766700Y-64581200I-172500J0D01*
G01*
X150421700Y-64581200D01*
G75*
G02*
X150249200Y-64408700I0J172500D01*
G01*
X150249200Y-64013700D01*
G75*
G02*
X150421700Y-63841200I172500J0D01*
G01*
X150766700Y-63841200D01*
G75*
G02*
X150939200Y-64013700I0J-172500D01*
G01*
G37*
G36*
G01*
X151909200Y-64013700D02*
X151909200Y-64408700D01*
G75*
G02*
X151736700Y-64581200I-172500J0D01*
G01*
X151391700Y-64581200D01*
G75*
G02*
X151219200Y-64408700I0J172500D01*
G01*
X151219200Y-64013700D01*
G75*
G02*
X151391700Y-63841200I172500J0D01*
G01*
X151736700Y-63841200D01*
G75*
G02*
X151909200Y-64013700I0J-172500D01*
G01*
G37*
D10*
X106832400Y-69443600D03*
X106832400Y-66903600D03*
D11*
X106832400Y-64363600D03*
G36*
G01*
X151242200Y-63291100D02*
X151242200Y-62896100D01*
G75*
G02*
X151414700Y-62723600I172500J0D01*
G01*
X151759700Y-62723600D01*
G75*
G02*
X151932200Y-62896100I0J-172500D01*
G01*
X151932200Y-63291100D01*
G75*
G02*
X151759700Y-63463600I-172500J0D01*
G01*
X151414700Y-63463600D01*
G75*
G02*
X151242200Y-63291100I0J172500D01*
G01*
G37*
G36*
G01*
X150272200Y-63291100D02*
X150272200Y-62896100D01*
G75*
G02*
X150444700Y-62723600I172500J0D01*
G01*
X150789700Y-62723600D01*
G75*
G02*
X150962200Y-62896100I0J-172500D01*
G01*
X150962200Y-63291100D01*
G75*
G02*
X150789700Y-63463600I-172500J0D01*
G01*
X150444700Y-63463600D01*
G75*
G02*
X150272200Y-63291100I0J172500D01*
G01*
G37*
G36*
G01*
X102964600Y-89662300D02*
X103359600Y-89662300D01*
G75*
G02*
X103532100Y-89834800I0J-172500D01*
G01*
X103532100Y-90179800D01*
G75*
G02*
X103359600Y-90352300I-172500J0D01*
G01*
X102964600Y-90352300D01*
G75*
G02*
X102792100Y-90179800I0J172500D01*
G01*
X102792100Y-89834800D01*
G75*
G02*
X102964600Y-89662300I172500J0D01*
G01*
G37*
G36*
G01*
X102964600Y-88692300D02*
X103359600Y-88692300D01*
G75*
G02*
X103532100Y-88864800I0J-172500D01*
G01*
X103532100Y-89209800D01*
G75*
G02*
X103359600Y-89382300I-172500J0D01*
G01*
X102964600Y-89382300D01*
G75*
G02*
X102792100Y-89209800I0J172500D01*
G01*
X102792100Y-88864800D01*
G75*
G02*
X102964600Y-88692300I172500J0D01*
G01*
G37*
G36*
G01*
X103359600Y-87246300D02*
X102964600Y-87246300D01*
G75*
G02*
X102792100Y-87073800I0J172500D01*
G01*
X102792100Y-86728800D01*
G75*
G02*
X102964600Y-86556300I172500J0D01*
G01*
X103359600Y-86556300D01*
G75*
G02*
X103532100Y-86728800I0J-172500D01*
G01*
X103532100Y-87073800D01*
G75*
G02*
X103359600Y-87246300I-172500J0D01*
G01*
G37*
G36*
G01*
X103359600Y-88216300D02*
X102964600Y-88216300D01*
G75*
G02*
X102792100Y-88043800I0J172500D01*
G01*
X102792100Y-87698800D01*
G75*
G02*
X102964600Y-87526300I172500J0D01*
G01*
X103359600Y-87526300D01*
G75*
G02*
X103532100Y-87698800I0J-172500D01*
G01*
X103532100Y-88043800D01*
G75*
G02*
X103359600Y-88216300I-172500J0D01*
G01*
G37*
G36*
G01*
X104566100Y-78356300D02*
X104171100Y-78356300D01*
G75*
G02*
X103998600Y-78183800I0J172500D01*
G01*
X103998600Y-77838800D01*
G75*
G02*
X104171100Y-77666300I172500J0D01*
G01*
X104566100Y-77666300D01*
G75*
G02*
X104738600Y-77838800I0J-172500D01*
G01*
X104738600Y-78183800D01*
G75*
G02*
X104566100Y-78356300I-172500J0D01*
G01*
G37*
G36*
G01*
X104566100Y-79326300D02*
X104171100Y-79326300D01*
G75*
G02*
X103998600Y-79153800I0J172500D01*
G01*
X103998600Y-78808800D01*
G75*
G02*
X104171100Y-78636300I172500J0D01*
G01*
X104566100Y-78636300D01*
G75*
G02*
X104738600Y-78808800I0J-172500D01*
G01*
X104738600Y-79153800D01*
G75*
G02*
X104566100Y-79326300I-172500J0D01*
G01*
G37*
G36*
G01*
X104502600Y-75625800D02*
X104107600Y-75625800D01*
G75*
G02*
X103935100Y-75453300I0J172500D01*
G01*
X103935100Y-75108300D01*
G75*
G02*
X104107600Y-74935800I172500J0D01*
G01*
X104502600Y-74935800D01*
G75*
G02*
X104675100Y-75108300I0J-172500D01*
G01*
X104675100Y-75453300D01*
G75*
G02*
X104502600Y-75625800I-172500J0D01*
G01*
G37*
G36*
G01*
X104502600Y-76595800D02*
X104107600Y-76595800D01*
G75*
G02*
X103935100Y-76423300I0J172500D01*
G01*
X103935100Y-76078300D01*
G75*
G02*
X104107600Y-75905800I172500J0D01*
G01*
X104502600Y-75905800D01*
G75*
G02*
X104675100Y-76078300I0J-172500D01*
G01*
X104675100Y-76423300D01*
G75*
G02*
X104502600Y-76595800I-172500J0D01*
G01*
G37*
D10*
X107899200Y-140614400D03*
X107899200Y-143154400D03*
X110439200Y-140614400D03*
X110439200Y-143154400D03*
X112979200Y-140614400D03*
X112979200Y-143154400D03*
X115519200Y-140614400D03*
X115519200Y-143154400D03*
X118059200Y-140614400D03*
X118059200Y-143154400D03*
X120599200Y-140614400D03*
X120599200Y-143154400D03*
X123139200Y-140614400D03*
X123139200Y-143154400D03*
X125679200Y-140614400D03*
X125679200Y-143154400D03*
X128219200Y-140614400D03*
X128219200Y-143154400D03*
X130759200Y-140614400D03*
X130759200Y-143154400D03*
X133299200Y-140614400D03*
X133299200Y-143154400D03*
X135839200Y-140614400D03*
X135839200Y-143154400D03*
X138379200Y-140614400D03*
X138379200Y-143154400D03*
X140919200Y-140614400D03*
X140919200Y-143154400D03*
X143459200Y-140614400D03*
X143459200Y-143154400D03*
X145999200Y-140614400D03*
X145999200Y-143154400D03*
X148539200Y-140614400D03*
D11*
X148539200Y-143154400D03*
G36*
G01*
X110055600Y-72657800D02*
X110055600Y-71257800D01*
G75*
G02*
X110155600Y-71157800I100000J0D01*
G01*
X110355600Y-71157800D01*
G75*
G02*
X110455600Y-71257800I0J-100000D01*
G01*
X110455600Y-72657800D01*
G75*
G02*
X110355600Y-72757800I-100000J0D01*
G01*
X110155600Y-72757800D01*
G75*
G02*
X110055600Y-72657800I0J100000D01*
G01*
G37*
G36*
G01*
X110555600Y-72657800D02*
X110555600Y-71257800D01*
G75*
G02*
X110655600Y-71157800I100000J0D01*
G01*
X110855600Y-71157800D01*
G75*
G02*
X110955600Y-71257800I0J-100000D01*
G01*
X110955600Y-72657800D01*
G75*
G02*
X110855600Y-72757800I-100000J0D01*
G01*
X110655600Y-72757800D01*
G75*
G02*
X110555600Y-72657800I0J100000D01*
G01*
G37*
G36*
G01*
X111055600Y-72657800D02*
X111055600Y-71257800D01*
G75*
G02*
X111155600Y-71157800I100000J0D01*
G01*
X111355600Y-71157800D01*
G75*
G02*
X111455600Y-71257800I0J-100000D01*
G01*
X111455600Y-72657800D01*
G75*
G02*
X111355600Y-72757800I-100000J0D01*
G01*
X111155600Y-72757800D01*
G75*
G02*
X111055600Y-72657800I0J100000D01*
G01*
G37*
G36*
G01*
X111555600Y-72657800D02*
X111555600Y-71257800D01*
G75*
G02*
X111655600Y-71157800I100000J0D01*
G01*
X111855600Y-71157800D01*
G75*
G02*
X111955600Y-71257800I0J-100000D01*
G01*
X111955600Y-72657800D01*
G75*
G02*
X111855600Y-72757800I-100000J0D01*
G01*
X111655600Y-72757800D01*
G75*
G02*
X111555600Y-72657800I0J100000D01*
G01*
G37*
G36*
G01*
X112055600Y-72657800D02*
X112055600Y-71257800D01*
G75*
G02*
X112155600Y-71157800I100000J0D01*
G01*
X112355600Y-71157800D01*
G75*
G02*
X112455600Y-71257800I0J-100000D01*
G01*
X112455600Y-72657800D01*
G75*
G02*
X112355600Y-72757800I-100000J0D01*
G01*
X112155600Y-72757800D01*
G75*
G02*
X112055600Y-72657800I0J100000D01*
G01*
G37*
G36*
G01*
X112555600Y-72657800D02*
X112555600Y-71257800D01*
G75*
G02*
X112655600Y-71157800I100000J0D01*
G01*
X112855600Y-71157800D01*
G75*
G02*
X112955600Y-71257800I0J-100000D01*
G01*
X112955600Y-72657800D01*
G75*
G02*
X112855600Y-72757800I-100000J0D01*
G01*
X112655600Y-72757800D01*
G75*
G02*
X112555600Y-72657800I0J100000D01*
G01*
G37*
G36*
G01*
X113055600Y-72657800D02*
X113055600Y-71257800D01*
G75*
G02*
X113155600Y-71157800I100000J0D01*
G01*
X113355600Y-71157800D01*
G75*
G02*
X113455600Y-71257800I0J-100000D01*
G01*
X113455600Y-72657800D01*
G75*
G02*
X113355600Y-72757800I-100000J0D01*
G01*
X113155600Y-72757800D01*
G75*
G02*
X113055600Y-72657800I0J100000D01*
G01*
G37*
G36*
G01*
X113555600Y-72657800D02*
X113555600Y-71257800D01*
G75*
G02*
X113655600Y-71157800I100000J0D01*
G01*
X113855600Y-71157800D01*
G75*
G02*
X113955600Y-71257800I0J-100000D01*
G01*
X113955600Y-72657800D01*
G75*
G02*
X113855600Y-72757800I-100000J0D01*
G01*
X113655600Y-72757800D01*
G75*
G02*
X113555600Y-72657800I0J100000D01*
G01*
G37*
G36*
G01*
X114055600Y-72657800D02*
X114055600Y-71257800D01*
G75*
G02*
X114155600Y-71157800I100000J0D01*
G01*
X114355600Y-71157800D01*
G75*
G02*
X114455600Y-71257800I0J-100000D01*
G01*
X114455600Y-72657800D01*
G75*
G02*
X114355600Y-72757800I-100000J0D01*
G01*
X114155600Y-72757800D01*
G75*
G02*
X114055600Y-72657800I0J100000D01*
G01*
G37*
G36*
G01*
X114555600Y-72657800D02*
X114555600Y-71257800D01*
G75*
G02*
X114655600Y-71157800I100000J0D01*
G01*
X114855600Y-71157800D01*
G75*
G02*
X114955600Y-71257800I0J-100000D01*
G01*
X114955600Y-72657800D01*
G75*
G02*
X114855600Y-72757800I-100000J0D01*
G01*
X114655600Y-72757800D01*
G75*
G02*
X114555600Y-72657800I0J100000D01*
G01*
G37*
G36*
G01*
X115055600Y-72657800D02*
X115055600Y-71257800D01*
G75*
G02*
X115155600Y-71157800I100000J0D01*
G01*
X115355600Y-71157800D01*
G75*
G02*
X115455600Y-71257800I0J-100000D01*
G01*
X115455600Y-72657800D01*
G75*
G02*
X115355600Y-72757800I-100000J0D01*
G01*
X115155600Y-72757800D01*
G75*
G02*
X115055600Y-72657800I0J100000D01*
G01*
G37*
G36*
G01*
X115555600Y-72657800D02*
X115555600Y-71257800D01*
G75*
G02*
X115655600Y-71157800I100000J0D01*
G01*
X115855600Y-71157800D01*
G75*
G02*
X115955600Y-71257800I0J-100000D01*
G01*
X115955600Y-72657800D01*
G75*
G02*
X115855600Y-72757800I-100000J0D01*
G01*
X115655600Y-72757800D01*
G75*
G02*
X115555600Y-72657800I0J100000D01*
G01*
G37*
G36*
G01*
X116055600Y-72657800D02*
X116055600Y-71257800D01*
G75*
G02*
X116155600Y-71157800I100000J0D01*
G01*
X116355600Y-71157800D01*
G75*
G02*
X116455600Y-71257800I0J-100000D01*
G01*
X116455600Y-72657800D01*
G75*
G02*
X116355600Y-72757800I-100000J0D01*
G01*
X116155600Y-72757800D01*
G75*
G02*
X116055600Y-72657800I0J100000D01*
G01*
G37*
G36*
G01*
X116555600Y-72657800D02*
X116555600Y-71257800D01*
G75*
G02*
X116655600Y-71157800I100000J0D01*
G01*
X116855600Y-71157800D01*
G75*
G02*
X116955600Y-71257800I0J-100000D01*
G01*
X116955600Y-72657800D01*
G75*
G02*
X116855600Y-72757800I-100000J0D01*
G01*
X116655600Y-72757800D01*
G75*
G02*
X116555600Y-72657800I0J100000D01*
G01*
G37*
G36*
G01*
X117055600Y-72657800D02*
X117055600Y-71257800D01*
G75*
G02*
X117155600Y-71157800I100000J0D01*
G01*
X117355600Y-71157800D01*
G75*
G02*
X117455600Y-71257800I0J-100000D01*
G01*
X117455600Y-72657800D01*
G75*
G02*
X117355600Y-72757800I-100000J0D01*
G01*
X117155600Y-72757800D01*
G75*
G02*
X117055600Y-72657800I0J100000D01*
G01*
G37*
G36*
G01*
X117555600Y-72657800D02*
X117555600Y-71257800D01*
G75*
G02*
X117655600Y-71157800I100000J0D01*
G01*
X117855600Y-71157800D01*
G75*
G02*
X117955600Y-71257800I0J-100000D01*
G01*
X117955600Y-72657800D01*
G75*
G02*
X117855600Y-72757800I-100000J0D01*
G01*
X117655600Y-72757800D01*
G75*
G02*
X117555600Y-72657800I0J100000D01*
G01*
G37*
G36*
G01*
X118055600Y-72657800D02*
X118055600Y-71257800D01*
G75*
G02*
X118155600Y-71157800I100000J0D01*
G01*
X118355600Y-71157800D01*
G75*
G02*
X118455600Y-71257800I0J-100000D01*
G01*
X118455600Y-72657800D01*
G75*
G02*
X118355600Y-72757800I-100000J0D01*
G01*
X118155600Y-72757800D01*
G75*
G02*
X118055600Y-72657800I0J100000D01*
G01*
G37*
G36*
G01*
X118555600Y-72657800D02*
X118555600Y-71257800D01*
G75*
G02*
X118655600Y-71157800I100000J0D01*
G01*
X118855600Y-71157800D01*
G75*
G02*
X118955600Y-71257800I0J-100000D01*
G01*
X118955600Y-72657800D01*
G75*
G02*
X118855600Y-72757800I-100000J0D01*
G01*
X118655600Y-72757800D01*
G75*
G02*
X118555600Y-72657800I0J100000D01*
G01*
G37*
G36*
G01*
X119055600Y-72657800D02*
X119055600Y-71257800D01*
G75*
G02*
X119155600Y-71157800I100000J0D01*
G01*
X119355600Y-71157800D01*
G75*
G02*
X119455600Y-71257800I0J-100000D01*
G01*
X119455600Y-72657800D01*
G75*
G02*
X119355600Y-72757800I-100000J0D01*
G01*
X119155600Y-72757800D01*
G75*
G02*
X119055600Y-72657800I0J100000D01*
G01*
G37*
G36*
G01*
X119555600Y-72657800D02*
X119555600Y-71257800D01*
G75*
G02*
X119655600Y-71157800I100000J0D01*
G01*
X119855600Y-71157800D01*
G75*
G02*
X119955600Y-71257800I0J-100000D01*
G01*
X119955600Y-72657800D01*
G75*
G02*
X119855600Y-72757800I-100000J0D01*
G01*
X119655600Y-72757800D01*
G75*
G02*
X119555600Y-72657800I0J100000D01*
G01*
G37*
G36*
G01*
X120055600Y-72657800D02*
X120055600Y-71257800D01*
G75*
G02*
X120155600Y-71157800I100000J0D01*
G01*
X120355600Y-71157800D01*
G75*
G02*
X120455600Y-71257800I0J-100000D01*
G01*
X120455600Y-72657800D01*
G75*
G02*
X120355600Y-72757800I-100000J0D01*
G01*
X120155600Y-72757800D01*
G75*
G02*
X120055600Y-72657800I0J100000D01*
G01*
G37*
G36*
G01*
X120555600Y-72657800D02*
X120555600Y-71257800D01*
G75*
G02*
X120655600Y-71157800I100000J0D01*
G01*
X120855600Y-71157800D01*
G75*
G02*
X120955600Y-71257800I0J-100000D01*
G01*
X120955600Y-72657800D01*
G75*
G02*
X120855600Y-72757800I-100000J0D01*
G01*
X120655600Y-72757800D01*
G75*
G02*
X120555600Y-72657800I0J100000D01*
G01*
G37*
G36*
G01*
X121055600Y-72657800D02*
X121055600Y-71257800D01*
G75*
G02*
X121155600Y-71157800I100000J0D01*
G01*
X121355600Y-71157800D01*
G75*
G02*
X121455600Y-71257800I0J-100000D01*
G01*
X121455600Y-72657800D01*
G75*
G02*
X121355600Y-72757800I-100000J0D01*
G01*
X121155600Y-72757800D01*
G75*
G02*
X121055600Y-72657800I0J100000D01*
G01*
G37*
G36*
G01*
X121555600Y-72657800D02*
X121555600Y-71257800D01*
G75*
G02*
X121655600Y-71157800I100000J0D01*
G01*
X121855600Y-71157800D01*
G75*
G02*
X121955600Y-71257800I0J-100000D01*
G01*
X121955600Y-72657800D01*
G75*
G02*
X121855600Y-72757800I-100000J0D01*
G01*
X121655600Y-72757800D01*
G75*
G02*
X121555600Y-72657800I0J100000D01*
G01*
G37*
G36*
G01*
X122055600Y-72657800D02*
X122055600Y-71257800D01*
G75*
G02*
X122155600Y-71157800I100000J0D01*
G01*
X122355600Y-71157800D01*
G75*
G02*
X122455600Y-71257800I0J-100000D01*
G01*
X122455600Y-72657800D01*
G75*
G02*
X122355600Y-72757800I-100000J0D01*
G01*
X122155600Y-72757800D01*
G75*
G02*
X122055600Y-72657800I0J100000D01*
G01*
G37*
G36*
G01*
X122555600Y-72657800D02*
X122555600Y-71257800D01*
G75*
G02*
X122655600Y-71157800I100000J0D01*
G01*
X122855600Y-71157800D01*
G75*
G02*
X122955600Y-71257800I0J-100000D01*
G01*
X122955600Y-72657800D01*
G75*
G02*
X122855600Y-72757800I-100000J0D01*
G01*
X122655600Y-72757800D01*
G75*
G02*
X122555600Y-72657800I0J100000D01*
G01*
G37*
G36*
G01*
X123055600Y-72657800D02*
X123055600Y-71257800D01*
G75*
G02*
X123155600Y-71157800I100000J0D01*
G01*
X123355600Y-71157800D01*
G75*
G02*
X123455600Y-71257800I0J-100000D01*
G01*
X123455600Y-72657800D01*
G75*
G02*
X123355600Y-72757800I-100000J0D01*
G01*
X123155600Y-72757800D01*
G75*
G02*
X123055600Y-72657800I0J100000D01*
G01*
G37*
G36*
G01*
X123555600Y-72657800D02*
X123555600Y-71257800D01*
G75*
G02*
X123655600Y-71157800I100000J0D01*
G01*
X123855600Y-71157800D01*
G75*
G02*
X123955600Y-71257800I0J-100000D01*
G01*
X123955600Y-72657800D01*
G75*
G02*
X123855600Y-72757800I-100000J0D01*
G01*
X123655600Y-72757800D01*
G75*
G02*
X123555600Y-72657800I0J100000D01*
G01*
G37*
G36*
G01*
X124055600Y-72657800D02*
X124055600Y-71257800D01*
G75*
G02*
X124155600Y-71157800I100000J0D01*
G01*
X124355600Y-71157800D01*
G75*
G02*
X124455600Y-71257800I0J-100000D01*
G01*
X124455600Y-72657800D01*
G75*
G02*
X124355600Y-72757800I-100000J0D01*
G01*
X124155600Y-72757800D01*
G75*
G02*
X124055600Y-72657800I0J100000D01*
G01*
G37*
G36*
G01*
X124555600Y-72657800D02*
X124555600Y-71257800D01*
G75*
G02*
X124655600Y-71157800I100000J0D01*
G01*
X124855600Y-71157800D01*
G75*
G02*
X124955600Y-71257800I0J-100000D01*
G01*
X124955600Y-72657800D01*
G75*
G02*
X124855600Y-72757800I-100000J0D01*
G01*
X124655600Y-72757800D01*
G75*
G02*
X124555600Y-72657800I0J100000D01*
G01*
G37*
G36*
G01*
X125055600Y-72657800D02*
X125055600Y-71257800D01*
G75*
G02*
X125155600Y-71157800I100000J0D01*
G01*
X125355600Y-71157800D01*
G75*
G02*
X125455600Y-71257800I0J-100000D01*
G01*
X125455600Y-72657800D01*
G75*
G02*
X125355600Y-72757800I-100000J0D01*
G01*
X125155600Y-72757800D01*
G75*
G02*
X125055600Y-72657800I0J100000D01*
G01*
G37*
G36*
G01*
X125555600Y-72657800D02*
X125555600Y-71257800D01*
G75*
G02*
X125655600Y-71157800I100000J0D01*
G01*
X125855600Y-71157800D01*
G75*
G02*
X125955600Y-71257800I0J-100000D01*
G01*
X125955600Y-72657800D01*
G75*
G02*
X125855600Y-72757800I-100000J0D01*
G01*
X125655600Y-72757800D01*
G75*
G02*
X125555600Y-72657800I0J100000D01*
G01*
G37*
G36*
G01*
X126055600Y-72657800D02*
X126055600Y-71257800D01*
G75*
G02*
X126155600Y-71157800I100000J0D01*
G01*
X126355600Y-71157800D01*
G75*
G02*
X126455600Y-71257800I0J-100000D01*
G01*
X126455600Y-72657800D01*
G75*
G02*
X126355600Y-72757800I-100000J0D01*
G01*
X126155600Y-72757800D01*
G75*
G02*
X126055600Y-72657800I0J100000D01*
G01*
G37*
G36*
G01*
X126555600Y-72657800D02*
X126555600Y-71257800D01*
G75*
G02*
X126655600Y-71157800I100000J0D01*
G01*
X126855600Y-71157800D01*
G75*
G02*
X126955600Y-71257800I0J-100000D01*
G01*
X126955600Y-72657800D01*
G75*
G02*
X126855600Y-72757800I-100000J0D01*
G01*
X126655600Y-72757800D01*
G75*
G02*
X126555600Y-72657800I0J100000D01*
G01*
G37*
G36*
G01*
X127055600Y-72657800D02*
X127055600Y-71257800D01*
G75*
G02*
X127155600Y-71157800I100000J0D01*
G01*
X127355600Y-71157800D01*
G75*
G02*
X127455600Y-71257800I0J-100000D01*
G01*
X127455600Y-72657800D01*
G75*
G02*
X127355600Y-72757800I-100000J0D01*
G01*
X127155600Y-72757800D01*
G75*
G02*
X127055600Y-72657800I0J100000D01*
G01*
G37*
G36*
G01*
X127555600Y-72657800D02*
X127555600Y-71257800D01*
G75*
G02*
X127655600Y-71157800I100000J0D01*
G01*
X127855600Y-71157800D01*
G75*
G02*
X127955600Y-71257800I0J-100000D01*
G01*
X127955600Y-72657800D01*
G75*
G02*
X127855600Y-72757800I-100000J0D01*
G01*
X127655600Y-72757800D01*
G75*
G02*
X127555600Y-72657800I0J100000D01*
G01*
G37*
G36*
G01*
X128055600Y-72657800D02*
X128055600Y-71257800D01*
G75*
G02*
X128155600Y-71157800I100000J0D01*
G01*
X128355600Y-71157800D01*
G75*
G02*
X128455600Y-71257800I0J-100000D01*
G01*
X128455600Y-72657800D01*
G75*
G02*
X128355600Y-72757800I-100000J0D01*
G01*
X128155600Y-72757800D01*
G75*
G02*
X128055600Y-72657800I0J100000D01*
G01*
G37*
G36*
G01*
X128555600Y-72657800D02*
X128555600Y-71257800D01*
G75*
G02*
X128655600Y-71157800I100000J0D01*
G01*
X128855600Y-71157800D01*
G75*
G02*
X128955600Y-71257800I0J-100000D01*
G01*
X128955600Y-72657800D01*
G75*
G02*
X128855600Y-72757800I-100000J0D01*
G01*
X128655600Y-72757800D01*
G75*
G02*
X128555600Y-72657800I0J100000D01*
G01*
G37*
G36*
G01*
X129055600Y-72657800D02*
X129055600Y-71257800D01*
G75*
G02*
X129155600Y-71157800I100000J0D01*
G01*
X129355600Y-71157800D01*
G75*
G02*
X129455600Y-71257800I0J-100000D01*
G01*
X129455600Y-72657800D01*
G75*
G02*
X129355600Y-72757800I-100000J0D01*
G01*
X129155600Y-72757800D01*
G75*
G02*
X129055600Y-72657800I0J100000D01*
G01*
G37*
G36*
G01*
X129555600Y-72657800D02*
X129555600Y-71257800D01*
G75*
G02*
X129655600Y-71157800I100000J0D01*
G01*
X129855600Y-71157800D01*
G75*
G02*
X129955600Y-71257800I0J-100000D01*
G01*
X129955600Y-72657800D01*
G75*
G02*
X129855600Y-72757800I-100000J0D01*
G01*
X129655600Y-72757800D01*
G75*
G02*
X129555600Y-72657800I0J100000D01*
G01*
G37*
G36*
G01*
X130055600Y-72657800D02*
X130055600Y-71257800D01*
G75*
G02*
X130155600Y-71157800I100000J0D01*
G01*
X130355600Y-71157800D01*
G75*
G02*
X130455600Y-71257800I0J-100000D01*
G01*
X130455600Y-72657800D01*
G75*
G02*
X130355600Y-72757800I-100000J0D01*
G01*
X130155600Y-72757800D01*
G75*
G02*
X130055600Y-72657800I0J100000D01*
G01*
G37*
G36*
G01*
X130555600Y-72657800D02*
X130555600Y-71257800D01*
G75*
G02*
X130655600Y-71157800I100000J0D01*
G01*
X130855600Y-71157800D01*
G75*
G02*
X130955600Y-71257800I0J-100000D01*
G01*
X130955600Y-72657800D01*
G75*
G02*
X130855600Y-72757800I-100000J0D01*
G01*
X130655600Y-72757800D01*
G75*
G02*
X130555600Y-72657800I0J100000D01*
G01*
G37*
G36*
G01*
X131055600Y-72657800D02*
X131055600Y-71257800D01*
G75*
G02*
X131155600Y-71157800I100000J0D01*
G01*
X131355600Y-71157800D01*
G75*
G02*
X131455600Y-71257800I0J-100000D01*
G01*
X131455600Y-72657800D01*
G75*
G02*
X131355600Y-72757800I-100000J0D01*
G01*
X131155600Y-72757800D01*
G75*
G02*
X131055600Y-72657800I0J100000D01*
G01*
G37*
G36*
G01*
X131555600Y-72657800D02*
X131555600Y-71257800D01*
G75*
G02*
X131655600Y-71157800I100000J0D01*
G01*
X131855600Y-71157800D01*
G75*
G02*
X131955600Y-71257800I0J-100000D01*
G01*
X131955600Y-72657800D01*
G75*
G02*
X131855600Y-72757800I-100000J0D01*
G01*
X131655600Y-72757800D01*
G75*
G02*
X131555600Y-72657800I0J100000D01*
G01*
G37*
G36*
G01*
X132880600Y-73982800D02*
X132880600Y-73782800D01*
G75*
G02*
X132980600Y-73682800I100000J0D01*
G01*
X134380600Y-73682800D01*
G75*
G02*
X134480600Y-73782800I0J-100000D01*
G01*
X134480600Y-73982800D01*
G75*
G02*
X134380600Y-74082800I-100000J0D01*
G01*
X132980600Y-74082800D01*
G75*
G02*
X132880600Y-73982800I0J100000D01*
G01*
G37*
G36*
G01*
X132880600Y-74482800D02*
X132880600Y-74282800D01*
G75*
G02*
X132980600Y-74182800I100000J0D01*
G01*
X134380600Y-74182800D01*
G75*
G02*
X134480600Y-74282800I0J-100000D01*
G01*
X134480600Y-74482800D01*
G75*
G02*
X134380600Y-74582800I-100000J0D01*
G01*
X132980600Y-74582800D01*
G75*
G02*
X132880600Y-74482800I0J100000D01*
G01*
G37*
G36*
G01*
X132880600Y-74982800D02*
X132880600Y-74782800D01*
G75*
G02*
X132980600Y-74682800I100000J0D01*
G01*
X134380600Y-74682800D01*
G75*
G02*
X134480600Y-74782800I0J-100000D01*
G01*
X134480600Y-74982800D01*
G75*
G02*
X134380600Y-75082800I-100000J0D01*
G01*
X132980600Y-75082800D01*
G75*
G02*
X132880600Y-74982800I0J100000D01*
G01*
G37*
G36*
G01*
X132880600Y-75482800D02*
X132880600Y-75282800D01*
G75*
G02*
X132980600Y-75182800I100000J0D01*
G01*
X134380600Y-75182800D01*
G75*
G02*
X134480600Y-75282800I0J-100000D01*
G01*
X134480600Y-75482800D01*
G75*
G02*
X134380600Y-75582800I-100000J0D01*
G01*
X132980600Y-75582800D01*
G75*
G02*
X132880600Y-75482800I0J100000D01*
G01*
G37*
G36*
G01*
X132880600Y-75982800D02*
X132880600Y-75782800D01*
G75*
G02*
X132980600Y-75682800I100000J0D01*
G01*
X134380600Y-75682800D01*
G75*
G02*
X134480600Y-75782800I0J-100000D01*
G01*
X134480600Y-75982800D01*
G75*
G02*
X134380600Y-76082800I-100000J0D01*
G01*
X132980600Y-76082800D01*
G75*
G02*
X132880600Y-75982800I0J100000D01*
G01*
G37*
G36*
G01*
X132880600Y-76482800D02*
X132880600Y-76282800D01*
G75*
G02*
X132980600Y-76182800I100000J0D01*
G01*
X134380600Y-76182800D01*
G75*
G02*
X134480600Y-76282800I0J-100000D01*
G01*
X134480600Y-76482800D01*
G75*
G02*
X134380600Y-76582800I-100000J0D01*
G01*
X132980600Y-76582800D01*
G75*
G02*
X132880600Y-76482800I0J100000D01*
G01*
G37*
G36*
G01*
X132880600Y-76982800D02*
X132880600Y-76782800D01*
G75*
G02*
X132980600Y-76682800I100000J0D01*
G01*
X134380600Y-76682800D01*
G75*
G02*
X134480600Y-76782800I0J-100000D01*
G01*
X134480600Y-76982800D01*
G75*
G02*
X134380600Y-77082800I-100000J0D01*
G01*
X132980600Y-77082800D01*
G75*
G02*
X132880600Y-76982800I0J100000D01*
G01*
G37*
G36*
G01*
X132880600Y-77482800D02*
X132880600Y-77282800D01*
G75*
G02*
X132980600Y-77182800I100000J0D01*
G01*
X134380600Y-77182800D01*
G75*
G02*
X134480600Y-77282800I0J-100000D01*
G01*
X134480600Y-77482800D01*
G75*
G02*
X134380600Y-77582800I-100000J0D01*
G01*
X132980600Y-77582800D01*
G75*
G02*
X132880600Y-77482800I0J100000D01*
G01*
G37*
G36*
G01*
X132880600Y-77982800D02*
X132880600Y-77782800D01*
G75*
G02*
X132980600Y-77682800I100000J0D01*
G01*
X134380600Y-77682800D01*
G75*
G02*
X134480600Y-77782800I0J-100000D01*
G01*
X134480600Y-77982800D01*
G75*
G02*
X134380600Y-78082800I-100000J0D01*
G01*
X132980600Y-78082800D01*
G75*
G02*
X132880600Y-77982800I0J100000D01*
G01*
G37*
G36*
G01*
X132880600Y-78482800D02*
X132880600Y-78282800D01*
G75*
G02*
X132980600Y-78182800I100000J0D01*
G01*
X134380600Y-78182800D01*
G75*
G02*
X134480600Y-78282800I0J-100000D01*
G01*
X134480600Y-78482800D01*
G75*
G02*
X134380600Y-78582800I-100000J0D01*
G01*
X132980600Y-78582800D01*
G75*
G02*
X132880600Y-78482800I0J100000D01*
G01*
G37*
G36*
G01*
X132880600Y-78982800D02*
X132880600Y-78782800D01*
G75*
G02*
X132980600Y-78682800I100000J0D01*
G01*
X134380600Y-78682800D01*
G75*
G02*
X134480600Y-78782800I0J-100000D01*
G01*
X134480600Y-78982800D01*
G75*
G02*
X134380600Y-79082800I-100000J0D01*
G01*
X132980600Y-79082800D01*
G75*
G02*
X132880600Y-78982800I0J100000D01*
G01*
G37*
G36*
G01*
X132880600Y-79482800D02*
X132880600Y-79282800D01*
G75*
G02*
X132980600Y-79182800I100000J0D01*
G01*
X134380600Y-79182800D01*
G75*
G02*
X134480600Y-79282800I0J-100000D01*
G01*
X134480600Y-79482800D01*
G75*
G02*
X134380600Y-79582800I-100000J0D01*
G01*
X132980600Y-79582800D01*
G75*
G02*
X132880600Y-79482800I0J100000D01*
G01*
G37*
G36*
G01*
X132880600Y-79982800D02*
X132880600Y-79782800D01*
G75*
G02*
X132980600Y-79682800I100000J0D01*
G01*
X134380600Y-79682800D01*
G75*
G02*
X134480600Y-79782800I0J-100000D01*
G01*
X134480600Y-79982800D01*
G75*
G02*
X134380600Y-80082800I-100000J0D01*
G01*
X132980600Y-80082800D01*
G75*
G02*
X132880600Y-79982800I0J100000D01*
G01*
G37*
G36*
G01*
X132880600Y-80482800D02*
X132880600Y-80282800D01*
G75*
G02*
X132980600Y-80182800I100000J0D01*
G01*
X134380600Y-80182800D01*
G75*
G02*
X134480600Y-80282800I0J-100000D01*
G01*
X134480600Y-80482800D01*
G75*
G02*
X134380600Y-80582800I-100000J0D01*
G01*
X132980600Y-80582800D01*
G75*
G02*
X132880600Y-80482800I0J100000D01*
G01*
G37*
G36*
G01*
X132880600Y-80982800D02*
X132880600Y-80782800D01*
G75*
G02*
X132980600Y-80682800I100000J0D01*
G01*
X134380600Y-80682800D01*
G75*
G02*
X134480600Y-80782800I0J-100000D01*
G01*
X134480600Y-80982800D01*
G75*
G02*
X134380600Y-81082800I-100000J0D01*
G01*
X132980600Y-81082800D01*
G75*
G02*
X132880600Y-80982800I0J100000D01*
G01*
G37*
G36*
G01*
X132880600Y-81482800D02*
X132880600Y-81282800D01*
G75*
G02*
X132980600Y-81182800I100000J0D01*
G01*
X134380600Y-81182800D01*
G75*
G02*
X134480600Y-81282800I0J-100000D01*
G01*
X134480600Y-81482800D01*
G75*
G02*
X134380600Y-81582800I-100000J0D01*
G01*
X132980600Y-81582800D01*
G75*
G02*
X132880600Y-81482800I0J100000D01*
G01*
G37*
G36*
G01*
X132880600Y-81982800D02*
X132880600Y-81782800D01*
G75*
G02*
X132980600Y-81682800I100000J0D01*
G01*
X134380600Y-81682800D01*
G75*
G02*
X134480600Y-81782800I0J-100000D01*
G01*
X134480600Y-81982800D01*
G75*
G02*
X134380600Y-82082800I-100000J0D01*
G01*
X132980600Y-82082800D01*
G75*
G02*
X132880600Y-81982800I0J100000D01*
G01*
G37*
G36*
G01*
X132880600Y-82482800D02*
X132880600Y-82282800D01*
G75*
G02*
X132980600Y-82182800I100000J0D01*
G01*
X134380600Y-82182800D01*
G75*
G02*
X134480600Y-82282800I0J-100000D01*
G01*
X134480600Y-82482800D01*
G75*
G02*
X134380600Y-82582800I-100000J0D01*
G01*
X132980600Y-82582800D01*
G75*
G02*
X132880600Y-82482800I0J100000D01*
G01*
G37*
G36*
G01*
X132880600Y-82982800D02*
X132880600Y-82782800D01*
G75*
G02*
X132980600Y-82682800I100000J0D01*
G01*
X134380600Y-82682800D01*
G75*
G02*
X134480600Y-82782800I0J-100000D01*
G01*
X134480600Y-82982800D01*
G75*
G02*
X134380600Y-83082800I-100000J0D01*
G01*
X132980600Y-83082800D01*
G75*
G02*
X132880600Y-82982800I0J100000D01*
G01*
G37*
G36*
G01*
X132880600Y-83482800D02*
X132880600Y-83282800D01*
G75*
G02*
X132980600Y-83182800I100000J0D01*
G01*
X134380600Y-83182800D01*
G75*
G02*
X134480600Y-83282800I0J-100000D01*
G01*
X134480600Y-83482800D01*
G75*
G02*
X134380600Y-83582800I-100000J0D01*
G01*
X132980600Y-83582800D01*
G75*
G02*
X132880600Y-83482800I0J100000D01*
G01*
G37*
G36*
G01*
X132880600Y-83982800D02*
X132880600Y-83782800D01*
G75*
G02*
X132980600Y-83682800I100000J0D01*
G01*
X134380600Y-83682800D01*
G75*
G02*
X134480600Y-83782800I0J-100000D01*
G01*
X134480600Y-83982800D01*
G75*
G02*
X134380600Y-84082800I-100000J0D01*
G01*
X132980600Y-84082800D01*
G75*
G02*
X132880600Y-83982800I0J100000D01*
G01*
G37*
G36*
G01*
X132880600Y-84482800D02*
X132880600Y-84282800D01*
G75*
G02*
X132980600Y-84182800I100000J0D01*
G01*
X134380600Y-84182800D01*
G75*
G02*
X134480600Y-84282800I0J-100000D01*
G01*
X134480600Y-84482800D01*
G75*
G02*
X134380600Y-84582800I-100000J0D01*
G01*
X132980600Y-84582800D01*
G75*
G02*
X132880600Y-84482800I0J100000D01*
G01*
G37*
G36*
G01*
X132880600Y-84982800D02*
X132880600Y-84782800D01*
G75*
G02*
X132980600Y-84682800I100000J0D01*
G01*
X134380600Y-84682800D01*
G75*
G02*
X134480600Y-84782800I0J-100000D01*
G01*
X134480600Y-84982800D01*
G75*
G02*
X134380600Y-85082800I-100000J0D01*
G01*
X132980600Y-85082800D01*
G75*
G02*
X132880600Y-84982800I0J100000D01*
G01*
G37*
G36*
G01*
X132880600Y-85482800D02*
X132880600Y-85282800D01*
G75*
G02*
X132980600Y-85182800I100000J0D01*
G01*
X134380600Y-85182800D01*
G75*
G02*
X134480600Y-85282800I0J-100000D01*
G01*
X134480600Y-85482800D01*
G75*
G02*
X134380600Y-85582800I-100000J0D01*
G01*
X132980600Y-85582800D01*
G75*
G02*
X132880600Y-85482800I0J100000D01*
G01*
G37*
G36*
G01*
X132880600Y-85982800D02*
X132880600Y-85782800D01*
G75*
G02*
X132980600Y-85682800I100000J0D01*
G01*
X134380600Y-85682800D01*
G75*
G02*
X134480600Y-85782800I0J-100000D01*
G01*
X134480600Y-85982800D01*
G75*
G02*
X134380600Y-86082800I-100000J0D01*
G01*
X132980600Y-86082800D01*
G75*
G02*
X132880600Y-85982800I0J100000D01*
G01*
G37*
G36*
G01*
X132880600Y-86482800D02*
X132880600Y-86282800D01*
G75*
G02*
X132980600Y-86182800I100000J0D01*
G01*
X134380600Y-86182800D01*
G75*
G02*
X134480600Y-86282800I0J-100000D01*
G01*
X134480600Y-86482800D01*
G75*
G02*
X134380600Y-86582800I-100000J0D01*
G01*
X132980600Y-86582800D01*
G75*
G02*
X132880600Y-86482800I0J100000D01*
G01*
G37*
G36*
G01*
X132880600Y-86982800D02*
X132880600Y-86782800D01*
G75*
G02*
X132980600Y-86682800I100000J0D01*
G01*
X134380600Y-86682800D01*
G75*
G02*
X134480600Y-86782800I0J-100000D01*
G01*
X134480600Y-86982800D01*
G75*
G02*
X134380600Y-87082800I-100000J0D01*
G01*
X132980600Y-87082800D01*
G75*
G02*
X132880600Y-86982800I0J100000D01*
G01*
G37*
G36*
G01*
X132880600Y-87482800D02*
X132880600Y-87282800D01*
G75*
G02*
X132980600Y-87182800I100000J0D01*
G01*
X134380600Y-87182800D01*
G75*
G02*
X134480600Y-87282800I0J-100000D01*
G01*
X134480600Y-87482800D01*
G75*
G02*
X134380600Y-87582800I-100000J0D01*
G01*
X132980600Y-87582800D01*
G75*
G02*
X132880600Y-87482800I0J100000D01*
G01*
G37*
G36*
G01*
X132880600Y-87982800D02*
X132880600Y-87782800D01*
G75*
G02*
X132980600Y-87682800I100000J0D01*
G01*
X134380600Y-87682800D01*
G75*
G02*
X134480600Y-87782800I0J-100000D01*
G01*
X134480600Y-87982800D01*
G75*
G02*
X134380600Y-88082800I-100000J0D01*
G01*
X132980600Y-88082800D01*
G75*
G02*
X132880600Y-87982800I0J100000D01*
G01*
G37*
G36*
G01*
X132880600Y-88482800D02*
X132880600Y-88282800D01*
G75*
G02*
X132980600Y-88182800I100000J0D01*
G01*
X134380600Y-88182800D01*
G75*
G02*
X134480600Y-88282800I0J-100000D01*
G01*
X134480600Y-88482800D01*
G75*
G02*
X134380600Y-88582800I-100000J0D01*
G01*
X132980600Y-88582800D01*
G75*
G02*
X132880600Y-88482800I0J100000D01*
G01*
G37*
G36*
G01*
X132880600Y-88982800D02*
X132880600Y-88782800D01*
G75*
G02*
X132980600Y-88682800I100000J0D01*
G01*
X134380600Y-88682800D01*
G75*
G02*
X134480600Y-88782800I0J-100000D01*
G01*
X134480600Y-88982800D01*
G75*
G02*
X134380600Y-89082800I-100000J0D01*
G01*
X132980600Y-89082800D01*
G75*
G02*
X132880600Y-88982800I0J100000D01*
G01*
G37*
G36*
G01*
X132880600Y-89482800D02*
X132880600Y-89282800D01*
G75*
G02*
X132980600Y-89182800I100000J0D01*
G01*
X134380600Y-89182800D01*
G75*
G02*
X134480600Y-89282800I0J-100000D01*
G01*
X134480600Y-89482800D01*
G75*
G02*
X134380600Y-89582800I-100000J0D01*
G01*
X132980600Y-89582800D01*
G75*
G02*
X132880600Y-89482800I0J100000D01*
G01*
G37*
G36*
G01*
X132880600Y-89982800D02*
X132880600Y-89782800D01*
G75*
G02*
X132980600Y-89682800I100000J0D01*
G01*
X134380600Y-89682800D01*
G75*
G02*
X134480600Y-89782800I0J-100000D01*
G01*
X134480600Y-89982800D01*
G75*
G02*
X134380600Y-90082800I-100000J0D01*
G01*
X132980600Y-90082800D01*
G75*
G02*
X132880600Y-89982800I0J100000D01*
G01*
G37*
G36*
G01*
X132880600Y-90482800D02*
X132880600Y-90282800D01*
G75*
G02*
X132980600Y-90182800I100000J0D01*
G01*
X134380600Y-90182800D01*
G75*
G02*
X134480600Y-90282800I0J-100000D01*
G01*
X134480600Y-90482800D01*
G75*
G02*
X134380600Y-90582800I-100000J0D01*
G01*
X132980600Y-90582800D01*
G75*
G02*
X132880600Y-90482800I0J100000D01*
G01*
G37*
G36*
G01*
X132880600Y-90982800D02*
X132880600Y-90782800D01*
G75*
G02*
X132980600Y-90682800I100000J0D01*
G01*
X134380600Y-90682800D01*
G75*
G02*
X134480600Y-90782800I0J-100000D01*
G01*
X134480600Y-90982800D01*
G75*
G02*
X134380600Y-91082800I-100000J0D01*
G01*
X132980600Y-91082800D01*
G75*
G02*
X132880600Y-90982800I0J100000D01*
G01*
G37*
G36*
G01*
X132880600Y-91482800D02*
X132880600Y-91282800D01*
G75*
G02*
X132980600Y-91182800I100000J0D01*
G01*
X134380600Y-91182800D01*
G75*
G02*
X134480600Y-91282800I0J-100000D01*
G01*
X134480600Y-91482800D01*
G75*
G02*
X134380600Y-91582800I-100000J0D01*
G01*
X132980600Y-91582800D01*
G75*
G02*
X132880600Y-91482800I0J100000D01*
G01*
G37*
G36*
G01*
X132880600Y-91982800D02*
X132880600Y-91782800D01*
G75*
G02*
X132980600Y-91682800I100000J0D01*
G01*
X134380600Y-91682800D01*
G75*
G02*
X134480600Y-91782800I0J-100000D01*
G01*
X134480600Y-91982800D01*
G75*
G02*
X134380600Y-92082800I-100000J0D01*
G01*
X132980600Y-92082800D01*
G75*
G02*
X132880600Y-91982800I0J100000D01*
G01*
G37*
G36*
G01*
X132880600Y-92482800D02*
X132880600Y-92282800D01*
G75*
G02*
X132980600Y-92182800I100000J0D01*
G01*
X134380600Y-92182800D01*
G75*
G02*
X134480600Y-92282800I0J-100000D01*
G01*
X134480600Y-92482800D01*
G75*
G02*
X134380600Y-92582800I-100000J0D01*
G01*
X132980600Y-92582800D01*
G75*
G02*
X132880600Y-92482800I0J100000D01*
G01*
G37*
G36*
G01*
X132880600Y-92982800D02*
X132880600Y-92782800D01*
G75*
G02*
X132980600Y-92682800I100000J0D01*
G01*
X134380600Y-92682800D01*
G75*
G02*
X134480600Y-92782800I0J-100000D01*
G01*
X134480600Y-92982800D01*
G75*
G02*
X134380600Y-93082800I-100000J0D01*
G01*
X132980600Y-93082800D01*
G75*
G02*
X132880600Y-92982800I0J100000D01*
G01*
G37*
G36*
G01*
X132880600Y-93482800D02*
X132880600Y-93282800D01*
G75*
G02*
X132980600Y-93182800I100000J0D01*
G01*
X134380600Y-93182800D01*
G75*
G02*
X134480600Y-93282800I0J-100000D01*
G01*
X134480600Y-93482800D01*
G75*
G02*
X134380600Y-93582800I-100000J0D01*
G01*
X132980600Y-93582800D01*
G75*
G02*
X132880600Y-93482800I0J100000D01*
G01*
G37*
G36*
G01*
X132880600Y-93982800D02*
X132880600Y-93782800D01*
G75*
G02*
X132980600Y-93682800I100000J0D01*
G01*
X134380600Y-93682800D01*
G75*
G02*
X134480600Y-93782800I0J-100000D01*
G01*
X134480600Y-93982800D01*
G75*
G02*
X134380600Y-94082800I-100000J0D01*
G01*
X132980600Y-94082800D01*
G75*
G02*
X132880600Y-93982800I0J100000D01*
G01*
G37*
G36*
G01*
X132880600Y-94482800D02*
X132880600Y-94282800D01*
G75*
G02*
X132980600Y-94182800I100000J0D01*
G01*
X134380600Y-94182800D01*
G75*
G02*
X134480600Y-94282800I0J-100000D01*
G01*
X134480600Y-94482800D01*
G75*
G02*
X134380600Y-94582800I-100000J0D01*
G01*
X132980600Y-94582800D01*
G75*
G02*
X132880600Y-94482800I0J100000D01*
G01*
G37*
G36*
G01*
X132880600Y-94982800D02*
X132880600Y-94782800D01*
G75*
G02*
X132980600Y-94682800I100000J0D01*
G01*
X134380600Y-94682800D01*
G75*
G02*
X134480600Y-94782800I0J-100000D01*
G01*
X134480600Y-94982800D01*
G75*
G02*
X134380600Y-95082800I-100000J0D01*
G01*
X132980600Y-95082800D01*
G75*
G02*
X132880600Y-94982800I0J100000D01*
G01*
G37*
G36*
G01*
X132880600Y-95482800D02*
X132880600Y-95282800D01*
G75*
G02*
X132980600Y-95182800I100000J0D01*
G01*
X134380600Y-95182800D01*
G75*
G02*
X134480600Y-95282800I0J-100000D01*
G01*
X134480600Y-95482800D01*
G75*
G02*
X134380600Y-95582800I-100000J0D01*
G01*
X132980600Y-95582800D01*
G75*
G02*
X132880600Y-95482800I0J100000D01*
G01*
G37*
G36*
G01*
X131555600Y-98007800D02*
X131555600Y-96607800D01*
G75*
G02*
X131655600Y-96507800I100000J0D01*
G01*
X131855600Y-96507800D01*
G75*
G02*
X131955600Y-96607800I0J-100000D01*
G01*
X131955600Y-98007800D01*
G75*
G02*
X131855600Y-98107800I-100000J0D01*
G01*
X131655600Y-98107800D01*
G75*
G02*
X131555600Y-98007800I0J100000D01*
G01*
G37*
G36*
G01*
X131055600Y-98007800D02*
X131055600Y-96607800D01*
G75*
G02*
X131155600Y-96507800I100000J0D01*
G01*
X131355600Y-96507800D01*
G75*
G02*
X131455600Y-96607800I0J-100000D01*
G01*
X131455600Y-98007800D01*
G75*
G02*
X131355600Y-98107800I-100000J0D01*
G01*
X131155600Y-98107800D01*
G75*
G02*
X131055600Y-98007800I0J100000D01*
G01*
G37*
G36*
G01*
X130555600Y-98007800D02*
X130555600Y-96607800D01*
G75*
G02*
X130655600Y-96507800I100000J0D01*
G01*
X130855600Y-96507800D01*
G75*
G02*
X130955600Y-96607800I0J-100000D01*
G01*
X130955600Y-98007800D01*
G75*
G02*
X130855600Y-98107800I-100000J0D01*
G01*
X130655600Y-98107800D01*
G75*
G02*
X130555600Y-98007800I0J100000D01*
G01*
G37*
G36*
G01*
X130055600Y-98007800D02*
X130055600Y-96607800D01*
G75*
G02*
X130155600Y-96507800I100000J0D01*
G01*
X130355600Y-96507800D01*
G75*
G02*
X130455600Y-96607800I0J-100000D01*
G01*
X130455600Y-98007800D01*
G75*
G02*
X130355600Y-98107800I-100000J0D01*
G01*
X130155600Y-98107800D01*
G75*
G02*
X130055600Y-98007800I0J100000D01*
G01*
G37*
G36*
G01*
X129555600Y-98007800D02*
X129555600Y-96607800D01*
G75*
G02*
X129655600Y-96507800I100000J0D01*
G01*
X129855600Y-96507800D01*
G75*
G02*
X129955600Y-96607800I0J-100000D01*
G01*
X129955600Y-98007800D01*
G75*
G02*
X129855600Y-98107800I-100000J0D01*
G01*
X129655600Y-98107800D01*
G75*
G02*
X129555600Y-98007800I0J100000D01*
G01*
G37*
G36*
G01*
X129055600Y-98007800D02*
X129055600Y-96607800D01*
G75*
G02*
X129155600Y-96507800I100000J0D01*
G01*
X129355600Y-96507800D01*
G75*
G02*
X129455600Y-96607800I0J-100000D01*
G01*
X129455600Y-98007800D01*
G75*
G02*
X129355600Y-98107800I-100000J0D01*
G01*
X129155600Y-98107800D01*
G75*
G02*
X129055600Y-98007800I0J100000D01*
G01*
G37*
G36*
G01*
X128555600Y-98007800D02*
X128555600Y-96607800D01*
G75*
G02*
X128655600Y-96507800I100000J0D01*
G01*
X128855600Y-96507800D01*
G75*
G02*
X128955600Y-96607800I0J-100000D01*
G01*
X128955600Y-98007800D01*
G75*
G02*
X128855600Y-98107800I-100000J0D01*
G01*
X128655600Y-98107800D01*
G75*
G02*
X128555600Y-98007800I0J100000D01*
G01*
G37*
G36*
G01*
X128055600Y-98007800D02*
X128055600Y-96607800D01*
G75*
G02*
X128155600Y-96507800I100000J0D01*
G01*
X128355600Y-96507800D01*
G75*
G02*
X128455600Y-96607800I0J-100000D01*
G01*
X128455600Y-98007800D01*
G75*
G02*
X128355600Y-98107800I-100000J0D01*
G01*
X128155600Y-98107800D01*
G75*
G02*
X128055600Y-98007800I0J100000D01*
G01*
G37*
G36*
G01*
X127555600Y-98007800D02*
X127555600Y-96607800D01*
G75*
G02*
X127655600Y-96507800I100000J0D01*
G01*
X127855600Y-96507800D01*
G75*
G02*
X127955600Y-96607800I0J-100000D01*
G01*
X127955600Y-98007800D01*
G75*
G02*
X127855600Y-98107800I-100000J0D01*
G01*
X127655600Y-98107800D01*
G75*
G02*
X127555600Y-98007800I0J100000D01*
G01*
G37*
G36*
G01*
X127055600Y-98007800D02*
X127055600Y-96607800D01*
G75*
G02*
X127155600Y-96507800I100000J0D01*
G01*
X127355600Y-96507800D01*
G75*
G02*
X127455600Y-96607800I0J-100000D01*
G01*
X127455600Y-98007800D01*
G75*
G02*
X127355600Y-98107800I-100000J0D01*
G01*
X127155600Y-98107800D01*
G75*
G02*
X127055600Y-98007800I0J100000D01*
G01*
G37*
G36*
G01*
X126555600Y-98007800D02*
X126555600Y-96607800D01*
G75*
G02*
X126655600Y-96507800I100000J0D01*
G01*
X126855600Y-96507800D01*
G75*
G02*
X126955600Y-96607800I0J-100000D01*
G01*
X126955600Y-98007800D01*
G75*
G02*
X126855600Y-98107800I-100000J0D01*
G01*
X126655600Y-98107800D01*
G75*
G02*
X126555600Y-98007800I0J100000D01*
G01*
G37*
G36*
G01*
X126055600Y-98007800D02*
X126055600Y-96607800D01*
G75*
G02*
X126155600Y-96507800I100000J0D01*
G01*
X126355600Y-96507800D01*
G75*
G02*
X126455600Y-96607800I0J-100000D01*
G01*
X126455600Y-98007800D01*
G75*
G02*
X126355600Y-98107800I-100000J0D01*
G01*
X126155600Y-98107800D01*
G75*
G02*
X126055600Y-98007800I0J100000D01*
G01*
G37*
G36*
G01*
X125555600Y-98007800D02*
X125555600Y-96607800D01*
G75*
G02*
X125655600Y-96507800I100000J0D01*
G01*
X125855600Y-96507800D01*
G75*
G02*
X125955600Y-96607800I0J-100000D01*
G01*
X125955600Y-98007800D01*
G75*
G02*
X125855600Y-98107800I-100000J0D01*
G01*
X125655600Y-98107800D01*
G75*
G02*
X125555600Y-98007800I0J100000D01*
G01*
G37*
G36*
G01*
X125055600Y-98007800D02*
X125055600Y-96607800D01*
G75*
G02*
X125155600Y-96507800I100000J0D01*
G01*
X125355600Y-96507800D01*
G75*
G02*
X125455600Y-96607800I0J-100000D01*
G01*
X125455600Y-98007800D01*
G75*
G02*
X125355600Y-98107800I-100000J0D01*
G01*
X125155600Y-98107800D01*
G75*
G02*
X125055600Y-98007800I0J100000D01*
G01*
G37*
G36*
G01*
X124555600Y-98007800D02*
X124555600Y-96607800D01*
G75*
G02*
X124655600Y-96507800I100000J0D01*
G01*
X124855600Y-96507800D01*
G75*
G02*
X124955600Y-96607800I0J-100000D01*
G01*
X124955600Y-98007800D01*
G75*
G02*
X124855600Y-98107800I-100000J0D01*
G01*
X124655600Y-98107800D01*
G75*
G02*
X124555600Y-98007800I0J100000D01*
G01*
G37*
G36*
G01*
X124055600Y-98007800D02*
X124055600Y-96607800D01*
G75*
G02*
X124155600Y-96507800I100000J0D01*
G01*
X124355600Y-96507800D01*
G75*
G02*
X124455600Y-96607800I0J-100000D01*
G01*
X124455600Y-98007800D01*
G75*
G02*
X124355600Y-98107800I-100000J0D01*
G01*
X124155600Y-98107800D01*
G75*
G02*
X124055600Y-98007800I0J100000D01*
G01*
G37*
G36*
G01*
X123555600Y-98007800D02*
X123555600Y-96607800D01*
G75*
G02*
X123655600Y-96507800I100000J0D01*
G01*
X123855600Y-96507800D01*
G75*
G02*
X123955600Y-96607800I0J-100000D01*
G01*
X123955600Y-98007800D01*
G75*
G02*
X123855600Y-98107800I-100000J0D01*
G01*
X123655600Y-98107800D01*
G75*
G02*
X123555600Y-98007800I0J100000D01*
G01*
G37*
G36*
G01*
X123055600Y-98007800D02*
X123055600Y-96607800D01*
G75*
G02*
X123155600Y-96507800I100000J0D01*
G01*
X123355600Y-96507800D01*
G75*
G02*
X123455600Y-96607800I0J-100000D01*
G01*
X123455600Y-98007800D01*
G75*
G02*
X123355600Y-98107800I-100000J0D01*
G01*
X123155600Y-98107800D01*
G75*
G02*
X123055600Y-98007800I0J100000D01*
G01*
G37*
G36*
G01*
X122555600Y-98007800D02*
X122555600Y-96607800D01*
G75*
G02*
X122655600Y-96507800I100000J0D01*
G01*
X122855600Y-96507800D01*
G75*
G02*
X122955600Y-96607800I0J-100000D01*
G01*
X122955600Y-98007800D01*
G75*
G02*
X122855600Y-98107800I-100000J0D01*
G01*
X122655600Y-98107800D01*
G75*
G02*
X122555600Y-98007800I0J100000D01*
G01*
G37*
G36*
G01*
X122055600Y-98007800D02*
X122055600Y-96607800D01*
G75*
G02*
X122155600Y-96507800I100000J0D01*
G01*
X122355600Y-96507800D01*
G75*
G02*
X122455600Y-96607800I0J-100000D01*
G01*
X122455600Y-98007800D01*
G75*
G02*
X122355600Y-98107800I-100000J0D01*
G01*
X122155600Y-98107800D01*
G75*
G02*
X122055600Y-98007800I0J100000D01*
G01*
G37*
G36*
G01*
X121555600Y-98007800D02*
X121555600Y-96607800D01*
G75*
G02*
X121655600Y-96507800I100000J0D01*
G01*
X121855600Y-96507800D01*
G75*
G02*
X121955600Y-96607800I0J-100000D01*
G01*
X121955600Y-98007800D01*
G75*
G02*
X121855600Y-98107800I-100000J0D01*
G01*
X121655600Y-98107800D01*
G75*
G02*
X121555600Y-98007800I0J100000D01*
G01*
G37*
G36*
G01*
X121055600Y-98007800D02*
X121055600Y-96607800D01*
G75*
G02*
X121155600Y-96507800I100000J0D01*
G01*
X121355600Y-96507800D01*
G75*
G02*
X121455600Y-96607800I0J-100000D01*
G01*
X121455600Y-98007800D01*
G75*
G02*
X121355600Y-98107800I-100000J0D01*
G01*
X121155600Y-98107800D01*
G75*
G02*
X121055600Y-98007800I0J100000D01*
G01*
G37*
G36*
G01*
X120555600Y-98007800D02*
X120555600Y-96607800D01*
G75*
G02*
X120655600Y-96507800I100000J0D01*
G01*
X120855600Y-96507800D01*
G75*
G02*
X120955600Y-96607800I0J-100000D01*
G01*
X120955600Y-98007800D01*
G75*
G02*
X120855600Y-98107800I-100000J0D01*
G01*
X120655600Y-98107800D01*
G75*
G02*
X120555600Y-98007800I0J100000D01*
G01*
G37*
G36*
G01*
X120055600Y-98007800D02*
X120055600Y-96607800D01*
G75*
G02*
X120155600Y-96507800I100000J0D01*
G01*
X120355600Y-96507800D01*
G75*
G02*
X120455600Y-96607800I0J-100000D01*
G01*
X120455600Y-98007800D01*
G75*
G02*
X120355600Y-98107800I-100000J0D01*
G01*
X120155600Y-98107800D01*
G75*
G02*
X120055600Y-98007800I0J100000D01*
G01*
G37*
G36*
G01*
X119555600Y-98007800D02*
X119555600Y-96607800D01*
G75*
G02*
X119655600Y-96507800I100000J0D01*
G01*
X119855600Y-96507800D01*
G75*
G02*
X119955600Y-96607800I0J-100000D01*
G01*
X119955600Y-98007800D01*
G75*
G02*
X119855600Y-98107800I-100000J0D01*
G01*
X119655600Y-98107800D01*
G75*
G02*
X119555600Y-98007800I0J100000D01*
G01*
G37*
G36*
G01*
X119055600Y-98007800D02*
X119055600Y-96607800D01*
G75*
G02*
X119155600Y-96507800I100000J0D01*
G01*
X119355600Y-96507800D01*
G75*
G02*
X119455600Y-96607800I0J-100000D01*
G01*
X119455600Y-98007800D01*
G75*
G02*
X119355600Y-98107800I-100000J0D01*
G01*
X119155600Y-98107800D01*
G75*
G02*
X119055600Y-98007800I0J100000D01*
G01*
G37*
G36*
G01*
X118555600Y-98007800D02*
X118555600Y-96607800D01*
G75*
G02*
X118655600Y-96507800I100000J0D01*
G01*
X118855600Y-96507800D01*
G75*
G02*
X118955600Y-96607800I0J-100000D01*
G01*
X118955600Y-98007800D01*
G75*
G02*
X118855600Y-98107800I-100000J0D01*
G01*
X118655600Y-98107800D01*
G75*
G02*
X118555600Y-98007800I0J100000D01*
G01*
G37*
G36*
G01*
X118055600Y-98007800D02*
X118055600Y-96607800D01*
G75*
G02*
X118155600Y-96507800I100000J0D01*
G01*
X118355600Y-96507800D01*
G75*
G02*
X118455600Y-96607800I0J-100000D01*
G01*
X118455600Y-98007800D01*
G75*
G02*
X118355600Y-98107800I-100000J0D01*
G01*
X118155600Y-98107800D01*
G75*
G02*
X118055600Y-98007800I0J100000D01*
G01*
G37*
G36*
G01*
X117555600Y-98007800D02*
X117555600Y-96607800D01*
G75*
G02*
X117655600Y-96507800I100000J0D01*
G01*
X117855600Y-96507800D01*
G75*
G02*
X117955600Y-96607800I0J-100000D01*
G01*
X117955600Y-98007800D01*
G75*
G02*
X117855600Y-98107800I-100000J0D01*
G01*
X117655600Y-98107800D01*
G75*
G02*
X117555600Y-98007800I0J100000D01*
G01*
G37*
G36*
G01*
X117055600Y-98007800D02*
X117055600Y-96607800D01*
G75*
G02*
X117155600Y-96507800I100000J0D01*
G01*
X117355600Y-96507800D01*
G75*
G02*
X117455600Y-96607800I0J-100000D01*
G01*
X117455600Y-98007800D01*
G75*
G02*
X117355600Y-98107800I-100000J0D01*
G01*
X117155600Y-98107800D01*
G75*
G02*
X117055600Y-98007800I0J100000D01*
G01*
G37*
G36*
G01*
X116555600Y-98007800D02*
X116555600Y-96607800D01*
G75*
G02*
X116655600Y-96507800I100000J0D01*
G01*
X116855600Y-96507800D01*
G75*
G02*
X116955600Y-96607800I0J-100000D01*
G01*
X116955600Y-98007800D01*
G75*
G02*
X116855600Y-98107800I-100000J0D01*
G01*
X116655600Y-98107800D01*
G75*
G02*
X116555600Y-98007800I0J100000D01*
G01*
G37*
G36*
G01*
X116055600Y-98007800D02*
X116055600Y-96607800D01*
G75*
G02*
X116155600Y-96507800I100000J0D01*
G01*
X116355600Y-96507800D01*
G75*
G02*
X116455600Y-96607800I0J-100000D01*
G01*
X116455600Y-98007800D01*
G75*
G02*
X116355600Y-98107800I-100000J0D01*
G01*
X116155600Y-98107800D01*
G75*
G02*
X116055600Y-98007800I0J100000D01*
G01*
G37*
G36*
G01*
X115555600Y-98007800D02*
X115555600Y-96607800D01*
G75*
G02*
X115655600Y-96507800I100000J0D01*
G01*
X115855600Y-96507800D01*
G75*
G02*
X115955600Y-96607800I0J-100000D01*
G01*
X115955600Y-98007800D01*
G75*
G02*
X115855600Y-98107800I-100000J0D01*
G01*
X115655600Y-98107800D01*
G75*
G02*
X115555600Y-98007800I0J100000D01*
G01*
G37*
G36*
G01*
X115055600Y-98007800D02*
X115055600Y-96607800D01*
G75*
G02*
X115155600Y-96507800I100000J0D01*
G01*
X115355600Y-96507800D01*
G75*
G02*
X115455600Y-96607800I0J-100000D01*
G01*
X115455600Y-98007800D01*
G75*
G02*
X115355600Y-98107800I-100000J0D01*
G01*
X115155600Y-98107800D01*
G75*
G02*
X115055600Y-98007800I0J100000D01*
G01*
G37*
G36*
G01*
X114555600Y-98007800D02*
X114555600Y-96607800D01*
G75*
G02*
X114655600Y-96507800I100000J0D01*
G01*
X114855600Y-96507800D01*
G75*
G02*
X114955600Y-96607800I0J-100000D01*
G01*
X114955600Y-98007800D01*
G75*
G02*
X114855600Y-98107800I-100000J0D01*
G01*
X114655600Y-98107800D01*
G75*
G02*
X114555600Y-98007800I0J100000D01*
G01*
G37*
G36*
G01*
X114055600Y-98007800D02*
X114055600Y-96607800D01*
G75*
G02*
X114155600Y-96507800I100000J0D01*
G01*
X114355600Y-96507800D01*
G75*
G02*
X114455600Y-96607800I0J-100000D01*
G01*
X114455600Y-98007800D01*
G75*
G02*
X114355600Y-98107800I-100000J0D01*
G01*
X114155600Y-98107800D01*
G75*
G02*
X114055600Y-98007800I0J100000D01*
G01*
G37*
G36*
G01*
X113555600Y-98007800D02*
X113555600Y-96607800D01*
G75*
G02*
X113655600Y-96507800I100000J0D01*
G01*
X113855600Y-96507800D01*
G75*
G02*
X113955600Y-96607800I0J-100000D01*
G01*
X113955600Y-98007800D01*
G75*
G02*
X113855600Y-98107800I-100000J0D01*
G01*
X113655600Y-98107800D01*
G75*
G02*
X113555600Y-98007800I0J100000D01*
G01*
G37*
G36*
G01*
X113055600Y-98007800D02*
X113055600Y-96607800D01*
G75*
G02*
X113155600Y-96507800I100000J0D01*
G01*
X113355600Y-96507800D01*
G75*
G02*
X113455600Y-96607800I0J-100000D01*
G01*
X113455600Y-98007800D01*
G75*
G02*
X113355600Y-98107800I-100000J0D01*
G01*
X113155600Y-98107800D01*
G75*
G02*
X113055600Y-98007800I0J100000D01*
G01*
G37*
G36*
G01*
X112555600Y-98007800D02*
X112555600Y-96607800D01*
G75*
G02*
X112655600Y-96507800I100000J0D01*
G01*
X112855600Y-96507800D01*
G75*
G02*
X112955600Y-96607800I0J-100000D01*
G01*
X112955600Y-98007800D01*
G75*
G02*
X112855600Y-98107800I-100000J0D01*
G01*
X112655600Y-98107800D01*
G75*
G02*
X112555600Y-98007800I0J100000D01*
G01*
G37*
G36*
G01*
X112055600Y-98007800D02*
X112055600Y-96607800D01*
G75*
G02*
X112155600Y-96507800I100000J0D01*
G01*
X112355600Y-96507800D01*
G75*
G02*
X112455600Y-96607800I0J-100000D01*
G01*
X112455600Y-98007800D01*
G75*
G02*
X112355600Y-98107800I-100000J0D01*
G01*
X112155600Y-98107800D01*
G75*
G02*
X112055600Y-98007800I0J100000D01*
G01*
G37*
G36*
G01*
X111555600Y-98007800D02*
X111555600Y-96607800D01*
G75*
G02*
X111655600Y-96507800I100000J0D01*
G01*
X111855600Y-96507800D01*
G75*
G02*
X111955600Y-96607800I0J-100000D01*
G01*
X111955600Y-98007800D01*
G75*
G02*
X111855600Y-98107800I-100000J0D01*
G01*
X111655600Y-98107800D01*
G75*
G02*
X111555600Y-98007800I0J100000D01*
G01*
G37*
G36*
G01*
X111055600Y-98007800D02*
X111055600Y-96607800D01*
G75*
G02*
X111155600Y-96507800I100000J0D01*
G01*
X111355600Y-96507800D01*
G75*
G02*
X111455600Y-96607800I0J-100000D01*
G01*
X111455600Y-98007800D01*
G75*
G02*
X111355600Y-98107800I-100000J0D01*
G01*
X111155600Y-98107800D01*
G75*
G02*
X111055600Y-98007800I0J100000D01*
G01*
G37*
G36*
G01*
X110555600Y-98007800D02*
X110555600Y-96607800D01*
G75*
G02*
X110655600Y-96507800I100000J0D01*
G01*
X110855600Y-96507800D01*
G75*
G02*
X110955600Y-96607800I0J-100000D01*
G01*
X110955600Y-98007800D01*
G75*
G02*
X110855600Y-98107800I-100000J0D01*
G01*
X110655600Y-98107800D01*
G75*
G02*
X110555600Y-98007800I0J100000D01*
G01*
G37*
G36*
G01*
X110055600Y-98007800D02*
X110055600Y-96607800D01*
G75*
G02*
X110155600Y-96507800I100000J0D01*
G01*
X110355600Y-96507800D01*
G75*
G02*
X110455600Y-96607800I0J-100000D01*
G01*
X110455600Y-98007800D01*
G75*
G02*
X110355600Y-98107800I-100000J0D01*
G01*
X110155600Y-98107800D01*
G75*
G02*
X110055600Y-98007800I0J100000D01*
G01*
G37*
G36*
G01*
X107530600Y-95482800D02*
X107530600Y-95282800D01*
G75*
G02*
X107630600Y-95182800I100000J0D01*
G01*
X109030600Y-95182800D01*
G75*
G02*
X109130600Y-95282800I0J-100000D01*
G01*
X109130600Y-95482800D01*
G75*
G02*
X109030600Y-95582800I-100000J0D01*
G01*
X107630600Y-95582800D01*
G75*
G02*
X107530600Y-95482800I0J100000D01*
G01*
G37*
G36*
G01*
X107530600Y-94982800D02*
X107530600Y-94782800D01*
G75*
G02*
X107630600Y-94682800I100000J0D01*
G01*
X109030600Y-94682800D01*
G75*
G02*
X109130600Y-94782800I0J-100000D01*
G01*
X109130600Y-94982800D01*
G75*
G02*
X109030600Y-95082800I-100000J0D01*
G01*
X107630600Y-95082800D01*
G75*
G02*
X107530600Y-94982800I0J100000D01*
G01*
G37*
G36*
G01*
X107530600Y-94482800D02*
X107530600Y-94282800D01*
G75*
G02*
X107630600Y-94182800I100000J0D01*
G01*
X109030600Y-94182800D01*
G75*
G02*
X109130600Y-94282800I0J-100000D01*
G01*
X109130600Y-94482800D01*
G75*
G02*
X109030600Y-94582800I-100000J0D01*
G01*
X107630600Y-94582800D01*
G75*
G02*
X107530600Y-94482800I0J100000D01*
G01*
G37*
G36*
G01*
X107530600Y-93982800D02*
X107530600Y-93782800D01*
G75*
G02*
X107630600Y-93682800I100000J0D01*
G01*
X109030600Y-93682800D01*
G75*
G02*
X109130600Y-93782800I0J-100000D01*
G01*
X109130600Y-93982800D01*
G75*
G02*
X109030600Y-94082800I-100000J0D01*
G01*
X107630600Y-94082800D01*
G75*
G02*
X107530600Y-93982800I0J100000D01*
G01*
G37*
G36*
G01*
X107530600Y-93482800D02*
X107530600Y-93282800D01*
G75*
G02*
X107630600Y-93182800I100000J0D01*
G01*
X109030600Y-93182800D01*
G75*
G02*
X109130600Y-93282800I0J-100000D01*
G01*
X109130600Y-93482800D01*
G75*
G02*
X109030600Y-93582800I-100000J0D01*
G01*
X107630600Y-93582800D01*
G75*
G02*
X107530600Y-93482800I0J100000D01*
G01*
G37*
G36*
G01*
X107530600Y-92982800D02*
X107530600Y-92782800D01*
G75*
G02*
X107630600Y-92682800I100000J0D01*
G01*
X109030600Y-92682800D01*
G75*
G02*
X109130600Y-92782800I0J-100000D01*
G01*
X109130600Y-92982800D01*
G75*
G02*
X109030600Y-93082800I-100000J0D01*
G01*
X107630600Y-93082800D01*
G75*
G02*
X107530600Y-92982800I0J100000D01*
G01*
G37*
G36*
G01*
X107530600Y-92482800D02*
X107530600Y-92282800D01*
G75*
G02*
X107630600Y-92182800I100000J0D01*
G01*
X109030600Y-92182800D01*
G75*
G02*
X109130600Y-92282800I0J-100000D01*
G01*
X109130600Y-92482800D01*
G75*
G02*
X109030600Y-92582800I-100000J0D01*
G01*
X107630600Y-92582800D01*
G75*
G02*
X107530600Y-92482800I0J100000D01*
G01*
G37*
G36*
G01*
X107530600Y-91982800D02*
X107530600Y-91782800D01*
G75*
G02*
X107630600Y-91682800I100000J0D01*
G01*
X109030600Y-91682800D01*
G75*
G02*
X109130600Y-91782800I0J-100000D01*
G01*
X109130600Y-91982800D01*
G75*
G02*
X109030600Y-92082800I-100000J0D01*
G01*
X107630600Y-92082800D01*
G75*
G02*
X107530600Y-91982800I0J100000D01*
G01*
G37*
G36*
G01*
X107530600Y-91482800D02*
X107530600Y-91282800D01*
G75*
G02*
X107630600Y-91182800I100000J0D01*
G01*
X109030600Y-91182800D01*
G75*
G02*
X109130600Y-91282800I0J-100000D01*
G01*
X109130600Y-91482800D01*
G75*
G02*
X109030600Y-91582800I-100000J0D01*
G01*
X107630600Y-91582800D01*
G75*
G02*
X107530600Y-91482800I0J100000D01*
G01*
G37*
G36*
G01*
X107530600Y-90982800D02*
X107530600Y-90782800D01*
G75*
G02*
X107630600Y-90682800I100000J0D01*
G01*
X109030600Y-90682800D01*
G75*
G02*
X109130600Y-90782800I0J-100000D01*
G01*
X109130600Y-90982800D01*
G75*
G02*
X109030600Y-91082800I-100000J0D01*
G01*
X107630600Y-91082800D01*
G75*
G02*
X107530600Y-90982800I0J100000D01*
G01*
G37*
G36*
G01*
X107530600Y-90482800D02*
X107530600Y-90282800D01*
G75*
G02*
X107630600Y-90182800I100000J0D01*
G01*
X109030600Y-90182800D01*
G75*
G02*
X109130600Y-90282800I0J-100000D01*
G01*
X109130600Y-90482800D01*
G75*
G02*
X109030600Y-90582800I-100000J0D01*
G01*
X107630600Y-90582800D01*
G75*
G02*
X107530600Y-90482800I0J100000D01*
G01*
G37*
G36*
G01*
X107530600Y-89982800D02*
X107530600Y-89782800D01*
G75*
G02*
X107630600Y-89682800I100000J0D01*
G01*
X109030600Y-89682800D01*
G75*
G02*
X109130600Y-89782800I0J-100000D01*
G01*
X109130600Y-89982800D01*
G75*
G02*
X109030600Y-90082800I-100000J0D01*
G01*
X107630600Y-90082800D01*
G75*
G02*
X107530600Y-89982800I0J100000D01*
G01*
G37*
G36*
G01*
X107530600Y-89482800D02*
X107530600Y-89282800D01*
G75*
G02*
X107630600Y-89182800I100000J0D01*
G01*
X109030600Y-89182800D01*
G75*
G02*
X109130600Y-89282800I0J-100000D01*
G01*
X109130600Y-89482800D01*
G75*
G02*
X109030600Y-89582800I-100000J0D01*
G01*
X107630600Y-89582800D01*
G75*
G02*
X107530600Y-89482800I0J100000D01*
G01*
G37*
G36*
G01*
X107530600Y-88982800D02*
X107530600Y-88782800D01*
G75*
G02*
X107630600Y-88682800I100000J0D01*
G01*
X109030600Y-88682800D01*
G75*
G02*
X109130600Y-88782800I0J-100000D01*
G01*
X109130600Y-88982800D01*
G75*
G02*
X109030600Y-89082800I-100000J0D01*
G01*
X107630600Y-89082800D01*
G75*
G02*
X107530600Y-88982800I0J100000D01*
G01*
G37*
G36*
G01*
X107530600Y-88482800D02*
X107530600Y-88282800D01*
G75*
G02*
X107630600Y-88182800I100000J0D01*
G01*
X109030600Y-88182800D01*
G75*
G02*
X109130600Y-88282800I0J-100000D01*
G01*
X109130600Y-88482800D01*
G75*
G02*
X109030600Y-88582800I-100000J0D01*
G01*
X107630600Y-88582800D01*
G75*
G02*
X107530600Y-88482800I0J100000D01*
G01*
G37*
G36*
G01*
X107530600Y-87982800D02*
X107530600Y-87782800D01*
G75*
G02*
X107630600Y-87682800I100000J0D01*
G01*
X109030600Y-87682800D01*
G75*
G02*
X109130600Y-87782800I0J-100000D01*
G01*
X109130600Y-87982800D01*
G75*
G02*
X109030600Y-88082800I-100000J0D01*
G01*
X107630600Y-88082800D01*
G75*
G02*
X107530600Y-87982800I0J100000D01*
G01*
G37*
G36*
G01*
X107530600Y-87482800D02*
X107530600Y-87282800D01*
G75*
G02*
X107630600Y-87182800I100000J0D01*
G01*
X109030600Y-87182800D01*
G75*
G02*
X109130600Y-87282800I0J-100000D01*
G01*
X109130600Y-87482800D01*
G75*
G02*
X109030600Y-87582800I-100000J0D01*
G01*
X107630600Y-87582800D01*
G75*
G02*
X107530600Y-87482800I0J100000D01*
G01*
G37*
G36*
G01*
X107530600Y-86982800D02*
X107530600Y-86782800D01*
G75*
G02*
X107630600Y-86682800I100000J0D01*
G01*
X109030600Y-86682800D01*
G75*
G02*
X109130600Y-86782800I0J-100000D01*
G01*
X109130600Y-86982800D01*
G75*
G02*
X109030600Y-87082800I-100000J0D01*
G01*
X107630600Y-87082800D01*
G75*
G02*
X107530600Y-86982800I0J100000D01*
G01*
G37*
G36*
G01*
X107530600Y-86482800D02*
X107530600Y-86282800D01*
G75*
G02*
X107630600Y-86182800I100000J0D01*
G01*
X109030600Y-86182800D01*
G75*
G02*
X109130600Y-86282800I0J-100000D01*
G01*
X109130600Y-86482800D01*
G75*
G02*
X109030600Y-86582800I-100000J0D01*
G01*
X107630600Y-86582800D01*
G75*
G02*
X107530600Y-86482800I0J100000D01*
G01*
G37*
G36*
G01*
X107530600Y-85982800D02*
X107530600Y-85782800D01*
G75*
G02*
X107630600Y-85682800I100000J0D01*
G01*
X109030600Y-85682800D01*
G75*
G02*
X109130600Y-85782800I0J-100000D01*
G01*
X109130600Y-85982800D01*
G75*
G02*
X109030600Y-86082800I-100000J0D01*
G01*
X107630600Y-86082800D01*
G75*
G02*
X107530600Y-85982800I0J100000D01*
G01*
G37*
G36*
G01*
X107530600Y-85482800D02*
X107530600Y-85282800D01*
G75*
G02*
X107630600Y-85182800I100000J0D01*
G01*
X109030600Y-85182800D01*
G75*
G02*
X109130600Y-85282800I0J-100000D01*
G01*
X109130600Y-85482800D01*
G75*
G02*
X109030600Y-85582800I-100000J0D01*
G01*
X107630600Y-85582800D01*
G75*
G02*
X107530600Y-85482800I0J100000D01*
G01*
G37*
G36*
G01*
X107530600Y-84982800D02*
X107530600Y-84782800D01*
G75*
G02*
X107630600Y-84682800I100000J0D01*
G01*
X109030600Y-84682800D01*
G75*
G02*
X109130600Y-84782800I0J-100000D01*
G01*
X109130600Y-84982800D01*
G75*
G02*
X109030600Y-85082800I-100000J0D01*
G01*
X107630600Y-85082800D01*
G75*
G02*
X107530600Y-84982800I0J100000D01*
G01*
G37*
G36*
G01*
X107530600Y-84482800D02*
X107530600Y-84282800D01*
G75*
G02*
X107630600Y-84182800I100000J0D01*
G01*
X109030600Y-84182800D01*
G75*
G02*
X109130600Y-84282800I0J-100000D01*
G01*
X109130600Y-84482800D01*
G75*
G02*
X109030600Y-84582800I-100000J0D01*
G01*
X107630600Y-84582800D01*
G75*
G02*
X107530600Y-84482800I0J100000D01*
G01*
G37*
G36*
G01*
X107530600Y-83982800D02*
X107530600Y-83782800D01*
G75*
G02*
X107630600Y-83682800I100000J0D01*
G01*
X109030600Y-83682800D01*
G75*
G02*
X109130600Y-83782800I0J-100000D01*
G01*
X109130600Y-83982800D01*
G75*
G02*
X109030600Y-84082800I-100000J0D01*
G01*
X107630600Y-84082800D01*
G75*
G02*
X107530600Y-83982800I0J100000D01*
G01*
G37*
G36*
G01*
X107530600Y-83482800D02*
X107530600Y-83282800D01*
G75*
G02*
X107630600Y-83182800I100000J0D01*
G01*
X109030600Y-83182800D01*
G75*
G02*
X109130600Y-83282800I0J-100000D01*
G01*
X109130600Y-83482800D01*
G75*
G02*
X109030600Y-83582800I-100000J0D01*
G01*
X107630600Y-83582800D01*
G75*
G02*
X107530600Y-83482800I0J100000D01*
G01*
G37*
G36*
G01*
X107530600Y-82982800D02*
X107530600Y-82782800D01*
G75*
G02*
X107630600Y-82682800I100000J0D01*
G01*
X109030600Y-82682800D01*
G75*
G02*
X109130600Y-82782800I0J-100000D01*
G01*
X109130600Y-82982800D01*
G75*
G02*
X109030600Y-83082800I-100000J0D01*
G01*
X107630600Y-83082800D01*
G75*
G02*
X107530600Y-82982800I0J100000D01*
G01*
G37*
G36*
G01*
X107530600Y-82482800D02*
X107530600Y-82282800D01*
G75*
G02*
X107630600Y-82182800I100000J0D01*
G01*
X109030600Y-82182800D01*
G75*
G02*
X109130600Y-82282800I0J-100000D01*
G01*
X109130600Y-82482800D01*
G75*
G02*
X109030600Y-82582800I-100000J0D01*
G01*
X107630600Y-82582800D01*
G75*
G02*
X107530600Y-82482800I0J100000D01*
G01*
G37*
G36*
G01*
X107530600Y-81982800D02*
X107530600Y-81782800D01*
G75*
G02*
X107630600Y-81682800I100000J0D01*
G01*
X109030600Y-81682800D01*
G75*
G02*
X109130600Y-81782800I0J-100000D01*
G01*
X109130600Y-81982800D01*
G75*
G02*
X109030600Y-82082800I-100000J0D01*
G01*
X107630600Y-82082800D01*
G75*
G02*
X107530600Y-81982800I0J100000D01*
G01*
G37*
G36*
G01*
X107530600Y-81482800D02*
X107530600Y-81282800D01*
G75*
G02*
X107630600Y-81182800I100000J0D01*
G01*
X109030600Y-81182800D01*
G75*
G02*
X109130600Y-81282800I0J-100000D01*
G01*
X109130600Y-81482800D01*
G75*
G02*
X109030600Y-81582800I-100000J0D01*
G01*
X107630600Y-81582800D01*
G75*
G02*
X107530600Y-81482800I0J100000D01*
G01*
G37*
G36*
G01*
X107530600Y-80982800D02*
X107530600Y-80782800D01*
G75*
G02*
X107630600Y-80682800I100000J0D01*
G01*
X109030600Y-80682800D01*
G75*
G02*
X109130600Y-80782800I0J-100000D01*
G01*
X109130600Y-80982800D01*
G75*
G02*
X109030600Y-81082800I-100000J0D01*
G01*
X107630600Y-81082800D01*
G75*
G02*
X107530600Y-80982800I0J100000D01*
G01*
G37*
G36*
G01*
X107530600Y-80482800D02*
X107530600Y-80282800D01*
G75*
G02*
X107630600Y-80182800I100000J0D01*
G01*
X109030600Y-80182800D01*
G75*
G02*
X109130600Y-80282800I0J-100000D01*
G01*
X109130600Y-80482800D01*
G75*
G02*
X109030600Y-80582800I-100000J0D01*
G01*
X107630600Y-80582800D01*
G75*
G02*
X107530600Y-80482800I0J100000D01*
G01*
G37*
G36*
G01*
X107530600Y-79982800D02*
X107530600Y-79782800D01*
G75*
G02*
X107630600Y-79682800I100000J0D01*
G01*
X109030600Y-79682800D01*
G75*
G02*
X109130600Y-79782800I0J-100000D01*
G01*
X109130600Y-79982800D01*
G75*
G02*
X109030600Y-80082800I-100000J0D01*
G01*
X107630600Y-80082800D01*
G75*
G02*
X107530600Y-79982800I0J100000D01*
G01*
G37*
G36*
G01*
X107530600Y-79482800D02*
X107530600Y-79282800D01*
G75*
G02*
X107630600Y-79182800I100000J0D01*
G01*
X109030600Y-79182800D01*
G75*
G02*
X109130600Y-79282800I0J-100000D01*
G01*
X109130600Y-79482800D01*
G75*
G02*
X109030600Y-79582800I-100000J0D01*
G01*
X107630600Y-79582800D01*
G75*
G02*
X107530600Y-79482800I0J100000D01*
G01*
G37*
G36*
G01*
X107530600Y-78982800D02*
X107530600Y-78782800D01*
G75*
G02*
X107630600Y-78682800I100000J0D01*
G01*
X109030600Y-78682800D01*
G75*
G02*
X109130600Y-78782800I0J-100000D01*
G01*
X109130600Y-78982800D01*
G75*
G02*
X109030600Y-79082800I-100000J0D01*
G01*
X107630600Y-79082800D01*
G75*
G02*
X107530600Y-78982800I0J100000D01*
G01*
G37*
G36*
G01*
X107530600Y-78482800D02*
X107530600Y-78282800D01*
G75*
G02*
X107630600Y-78182800I100000J0D01*
G01*
X109030600Y-78182800D01*
G75*
G02*
X109130600Y-78282800I0J-100000D01*
G01*
X109130600Y-78482800D01*
G75*
G02*
X109030600Y-78582800I-100000J0D01*
G01*
X107630600Y-78582800D01*
G75*
G02*
X107530600Y-78482800I0J100000D01*
G01*
G37*
G36*
G01*
X107530600Y-77982800D02*
X107530600Y-77782800D01*
G75*
G02*
X107630600Y-77682800I100000J0D01*
G01*
X109030600Y-77682800D01*
G75*
G02*
X109130600Y-77782800I0J-100000D01*
G01*
X109130600Y-77982800D01*
G75*
G02*
X109030600Y-78082800I-100000J0D01*
G01*
X107630600Y-78082800D01*
G75*
G02*
X107530600Y-77982800I0J100000D01*
G01*
G37*
G36*
G01*
X107530600Y-77482800D02*
X107530600Y-77282800D01*
G75*
G02*
X107630600Y-77182800I100000J0D01*
G01*
X109030600Y-77182800D01*
G75*
G02*
X109130600Y-77282800I0J-100000D01*
G01*
X109130600Y-77482800D01*
G75*
G02*
X109030600Y-77582800I-100000J0D01*
G01*
X107630600Y-77582800D01*
G75*
G02*
X107530600Y-77482800I0J100000D01*
G01*
G37*
G36*
G01*
X107530600Y-76982800D02*
X107530600Y-76782800D01*
G75*
G02*
X107630600Y-76682800I100000J0D01*
G01*
X109030600Y-76682800D01*
G75*
G02*
X109130600Y-76782800I0J-100000D01*
G01*
X109130600Y-76982800D01*
G75*
G02*
X109030600Y-77082800I-100000J0D01*
G01*
X107630600Y-77082800D01*
G75*
G02*
X107530600Y-76982800I0J100000D01*
G01*
G37*
G36*
G01*
X107530600Y-76482800D02*
X107530600Y-76282800D01*
G75*
G02*
X107630600Y-76182800I100000J0D01*
G01*
X109030600Y-76182800D01*
G75*
G02*
X109130600Y-76282800I0J-100000D01*
G01*
X109130600Y-76482800D01*
G75*
G02*
X109030600Y-76582800I-100000J0D01*
G01*
X107630600Y-76582800D01*
G75*
G02*
X107530600Y-76482800I0J100000D01*
G01*
G37*
G36*
G01*
X107530600Y-75982800D02*
X107530600Y-75782800D01*
G75*
G02*
X107630600Y-75682800I100000J0D01*
G01*
X109030600Y-75682800D01*
G75*
G02*
X109130600Y-75782800I0J-100000D01*
G01*
X109130600Y-75982800D01*
G75*
G02*
X109030600Y-76082800I-100000J0D01*
G01*
X107630600Y-76082800D01*
G75*
G02*
X107530600Y-75982800I0J100000D01*
G01*
G37*
G36*
G01*
X107530600Y-75482800D02*
X107530600Y-75282800D01*
G75*
G02*
X107630600Y-75182800I100000J0D01*
G01*
X109030600Y-75182800D01*
G75*
G02*
X109130600Y-75282800I0J-100000D01*
G01*
X109130600Y-75482800D01*
G75*
G02*
X109030600Y-75582800I-100000J0D01*
G01*
X107630600Y-75582800D01*
G75*
G02*
X107530600Y-75482800I0J100000D01*
G01*
G37*
G36*
G01*
X107530600Y-74982800D02*
X107530600Y-74782800D01*
G75*
G02*
X107630600Y-74682800I100000J0D01*
G01*
X109030600Y-74682800D01*
G75*
G02*
X109130600Y-74782800I0J-100000D01*
G01*
X109130600Y-74982800D01*
G75*
G02*
X109030600Y-75082800I-100000J0D01*
G01*
X107630600Y-75082800D01*
G75*
G02*
X107530600Y-74982800I0J100000D01*
G01*
G37*
G36*
G01*
X107530600Y-74482800D02*
X107530600Y-74282800D01*
G75*
G02*
X107630600Y-74182800I100000J0D01*
G01*
X109030600Y-74182800D01*
G75*
G02*
X109130600Y-74282800I0J-100000D01*
G01*
X109130600Y-74482800D01*
G75*
G02*
X109030600Y-74582800I-100000J0D01*
G01*
X107630600Y-74582800D01*
G75*
G02*
X107530600Y-74482800I0J100000D01*
G01*
G37*
G36*
G01*
X107530600Y-73982800D02*
X107530600Y-73782800D01*
G75*
G02*
X107630600Y-73682800I100000J0D01*
G01*
X109030600Y-73682800D01*
G75*
G02*
X109130600Y-73782800I0J-100000D01*
G01*
X109130600Y-73982800D01*
G75*
G02*
X109030600Y-74082800I-100000J0D01*
G01*
X107630600Y-74082800D01*
G75*
G02*
X107530600Y-73982800I0J100000D01*
G01*
G37*
M02*
