G04 #@! TF.GenerationSoftware,KiCad,Pcbnew,(5.1.6)-1*
G04 #@! TF.CreationDate,2020-09-15T00:28:45+03:00*
G04 #@! TF.ProjectId,469devboard,34363964-6576-4626-9f61-72642e6b6963,rev?*
G04 #@! TF.SameCoordinates,Original*
G04 #@! TF.FileFunction,Paste,Bot*
G04 #@! TF.FilePolarity,Positive*
%FSLAX46Y46*%
G04 Gerber Fmt 4.6, Leading zero omitted, Abs format (unit mm)*
G04 Created by KiCad (PCBNEW (5.1.6)-1) date 2020-09-15 00:28:45*
%MOMM*%
%LPD*%
G01*
G04 APERTURE LIST*
%ADD10R,1.550000X1.350000*%
%ADD11R,1.200000X1.000000*%
%ADD12R,1.900000X1.350000*%
%ADD13R,1.170000X1.800000*%
%ADD14R,0.750000X1.100000*%
%ADD15R,0.850000X1.100000*%
G04 APERTURE END LIST*
D10*
X136273400Y-55848600D03*
D11*
X136448400Y-61873600D03*
X136448400Y-65573600D03*
D12*
X132948400Y-66548600D03*
X126978400Y-66548600D03*
D13*
X124953400Y-56073600D03*
D14*
X126163400Y-55723600D03*
D15*
X127213400Y-55723600D03*
X128313400Y-55723600D03*
X129413400Y-55723600D03*
X130513400Y-55723600D03*
X131613400Y-55723600D03*
X132713400Y-55723600D03*
X133813400Y-55723600D03*
G36*
G01*
X111723800Y-89072500D02*
X111723800Y-88727500D01*
G75*
G02*
X111871300Y-88580000I147500J0D01*
G01*
X112166300Y-88580000D01*
G75*
G02*
X112313800Y-88727500I0J-147500D01*
G01*
X112313800Y-89072500D01*
G75*
G02*
X112166300Y-89220000I-147500J0D01*
G01*
X111871300Y-89220000D01*
G75*
G02*
X111723800Y-89072500I0J147500D01*
G01*
G37*
G36*
G01*
X110753800Y-89072500D02*
X110753800Y-88727500D01*
G75*
G02*
X110901300Y-88580000I147500J0D01*
G01*
X111196300Y-88580000D01*
G75*
G02*
X111343800Y-88727500I0J-147500D01*
G01*
X111343800Y-89072500D01*
G75*
G02*
X111196300Y-89220000I-147500J0D01*
G01*
X110901300Y-89220000D01*
G75*
G02*
X110753800Y-89072500I0J147500D01*
G01*
G37*
G36*
G01*
X111723800Y-88056500D02*
X111723800Y-87711500D01*
G75*
G02*
X111871300Y-87564000I147500J0D01*
G01*
X112166300Y-87564000D01*
G75*
G02*
X112313800Y-87711500I0J-147500D01*
G01*
X112313800Y-88056500D01*
G75*
G02*
X112166300Y-88204000I-147500J0D01*
G01*
X111871300Y-88204000D01*
G75*
G02*
X111723800Y-88056500I0J147500D01*
G01*
G37*
G36*
G01*
X110753800Y-88056500D02*
X110753800Y-87711500D01*
G75*
G02*
X110901300Y-87564000I147500J0D01*
G01*
X111196300Y-87564000D01*
G75*
G02*
X111343800Y-87711500I0J-147500D01*
G01*
X111343800Y-88056500D01*
G75*
G02*
X111196300Y-88204000I-147500J0D01*
G01*
X110901300Y-88204000D01*
G75*
G02*
X110753800Y-88056500I0J147500D01*
G01*
G37*
G36*
G01*
X123311700Y-94196400D02*
X122966700Y-94196400D01*
G75*
G02*
X122819200Y-94048900I0J147500D01*
G01*
X122819200Y-93753900D01*
G75*
G02*
X122966700Y-93606400I147500J0D01*
G01*
X123311700Y-93606400D01*
G75*
G02*
X123459200Y-93753900I0J-147500D01*
G01*
X123459200Y-94048900D01*
G75*
G02*
X123311700Y-94196400I-147500J0D01*
G01*
G37*
G36*
G01*
X123311700Y-95166400D02*
X122966700Y-95166400D01*
G75*
G02*
X122819200Y-95018900I0J147500D01*
G01*
X122819200Y-94723900D01*
G75*
G02*
X122966700Y-94576400I147500J0D01*
G01*
X123311700Y-94576400D01*
G75*
G02*
X123459200Y-94723900I0J-147500D01*
G01*
X123459200Y-95018900D01*
G75*
G02*
X123311700Y-95166400I-147500J0D01*
G01*
G37*
G36*
G01*
X124454700Y-94173400D02*
X124109700Y-94173400D01*
G75*
G02*
X123962200Y-94025900I0J147500D01*
G01*
X123962200Y-93730900D01*
G75*
G02*
X124109700Y-93583400I147500J0D01*
G01*
X124454700Y-93583400D01*
G75*
G02*
X124602200Y-93730900I0J-147500D01*
G01*
X124602200Y-94025900D01*
G75*
G02*
X124454700Y-94173400I-147500J0D01*
G01*
G37*
G36*
G01*
X124454700Y-95143400D02*
X124109700Y-95143400D01*
G75*
G02*
X123962200Y-94995900I0J147500D01*
G01*
X123962200Y-94700900D01*
G75*
G02*
X124109700Y-94553400I147500J0D01*
G01*
X124454700Y-94553400D01*
G75*
G02*
X124602200Y-94700900I0J-147500D01*
G01*
X124602200Y-94995900D01*
G75*
G02*
X124454700Y-95143400I-147500J0D01*
G01*
G37*
G36*
G01*
X111388800Y-85567300D02*
X111388800Y-85222300D01*
G75*
G02*
X111536300Y-85074800I147500J0D01*
G01*
X111831300Y-85074800D01*
G75*
G02*
X111978800Y-85222300I0J-147500D01*
G01*
X111978800Y-85567300D01*
G75*
G02*
X111831300Y-85714800I-147500J0D01*
G01*
X111536300Y-85714800D01*
G75*
G02*
X111388800Y-85567300I0J147500D01*
G01*
G37*
G36*
G01*
X110418800Y-85567300D02*
X110418800Y-85222300D01*
G75*
G02*
X110566300Y-85074800I147500J0D01*
G01*
X110861300Y-85074800D01*
G75*
G02*
X111008800Y-85222300I0J-147500D01*
G01*
X111008800Y-85567300D01*
G75*
G02*
X110861300Y-85714800I-147500J0D01*
G01*
X110566300Y-85714800D01*
G75*
G02*
X110418800Y-85567300I0J147500D01*
G01*
G37*
G36*
G01*
X111388800Y-84424300D02*
X111388800Y-84079300D01*
G75*
G02*
X111536300Y-83931800I147500J0D01*
G01*
X111831300Y-83931800D01*
G75*
G02*
X111978800Y-84079300I0J-147500D01*
G01*
X111978800Y-84424300D01*
G75*
G02*
X111831300Y-84571800I-147500J0D01*
G01*
X111536300Y-84571800D01*
G75*
G02*
X111388800Y-84424300I0J147500D01*
G01*
G37*
G36*
G01*
X110418800Y-84424300D02*
X110418800Y-84079300D01*
G75*
G02*
X110566300Y-83931800I147500J0D01*
G01*
X110861300Y-83931800D01*
G75*
G02*
X111008800Y-84079300I0J-147500D01*
G01*
X111008800Y-84424300D01*
G75*
G02*
X110861300Y-84571800I-147500J0D01*
G01*
X110566300Y-84571800D01*
G75*
G02*
X110418800Y-84424300I0J147500D01*
G01*
G37*
G36*
G01*
X111401500Y-80538100D02*
X111401500Y-80193100D01*
G75*
G02*
X111549000Y-80045600I147500J0D01*
G01*
X111844000Y-80045600D01*
G75*
G02*
X111991500Y-80193100I0J-147500D01*
G01*
X111991500Y-80538100D01*
G75*
G02*
X111844000Y-80685600I-147500J0D01*
G01*
X111549000Y-80685600D01*
G75*
G02*
X111401500Y-80538100I0J147500D01*
G01*
G37*
G36*
G01*
X110431500Y-80538100D02*
X110431500Y-80193100D01*
G75*
G02*
X110579000Y-80045600I147500J0D01*
G01*
X110874000Y-80045600D01*
G75*
G02*
X111021500Y-80193100I0J-147500D01*
G01*
X111021500Y-80538100D01*
G75*
G02*
X110874000Y-80685600I-147500J0D01*
G01*
X110579000Y-80685600D01*
G75*
G02*
X110431500Y-80538100I0J147500D01*
G01*
G37*
G36*
G01*
X111401500Y-81681100D02*
X111401500Y-81336100D01*
G75*
G02*
X111549000Y-81188600I147500J0D01*
G01*
X111844000Y-81188600D01*
G75*
G02*
X111991500Y-81336100I0J-147500D01*
G01*
X111991500Y-81681100D01*
G75*
G02*
X111844000Y-81828600I-147500J0D01*
G01*
X111549000Y-81828600D01*
G75*
G02*
X111401500Y-81681100I0J147500D01*
G01*
G37*
G36*
G01*
X110431500Y-81681100D02*
X110431500Y-81336100D01*
G75*
G02*
X110579000Y-81188600I147500J0D01*
G01*
X110874000Y-81188600D01*
G75*
G02*
X111021500Y-81336100I0J-147500D01*
G01*
X111021500Y-81681100D01*
G75*
G02*
X110874000Y-81828600I-147500J0D01*
G01*
X110579000Y-81828600D01*
G75*
G02*
X110431500Y-81681100I0J147500D01*
G01*
G37*
G36*
G01*
X112603500Y-75397000D02*
X112948500Y-75397000D01*
G75*
G02*
X113096000Y-75544500I0J-147500D01*
G01*
X113096000Y-75839500D01*
G75*
G02*
X112948500Y-75987000I-147500J0D01*
G01*
X112603500Y-75987000D01*
G75*
G02*
X112456000Y-75839500I0J147500D01*
G01*
X112456000Y-75544500D01*
G75*
G02*
X112603500Y-75397000I147500J0D01*
G01*
G37*
G36*
G01*
X112603500Y-74427000D02*
X112948500Y-74427000D01*
G75*
G02*
X113096000Y-74574500I0J-147500D01*
G01*
X113096000Y-74869500D01*
G75*
G02*
X112948500Y-75017000I-147500J0D01*
G01*
X112603500Y-75017000D01*
G75*
G02*
X112456000Y-74869500I0J147500D01*
G01*
X112456000Y-74574500D01*
G75*
G02*
X112603500Y-74427000I147500J0D01*
G01*
G37*
G36*
G01*
X111460500Y-75397000D02*
X111805500Y-75397000D01*
G75*
G02*
X111953000Y-75544500I0J-147500D01*
G01*
X111953000Y-75839500D01*
G75*
G02*
X111805500Y-75987000I-147500J0D01*
G01*
X111460500Y-75987000D01*
G75*
G02*
X111313000Y-75839500I0J147500D01*
G01*
X111313000Y-75544500D01*
G75*
G02*
X111460500Y-75397000I147500J0D01*
G01*
G37*
G36*
G01*
X111460500Y-74427000D02*
X111805500Y-74427000D01*
G75*
G02*
X111953000Y-74574500I0J-147500D01*
G01*
X111953000Y-74869500D01*
G75*
G02*
X111805500Y-75017000I-147500J0D01*
G01*
X111460500Y-75017000D01*
G75*
G02*
X111313000Y-74869500I0J147500D01*
G01*
X111313000Y-74574500D01*
G75*
G02*
X111460500Y-74427000I147500J0D01*
G01*
G37*
G36*
G01*
X119220200Y-74889000D02*
X119565200Y-74889000D01*
G75*
G02*
X119712700Y-75036500I0J-147500D01*
G01*
X119712700Y-75331500D01*
G75*
G02*
X119565200Y-75479000I-147500J0D01*
G01*
X119220200Y-75479000D01*
G75*
G02*
X119072700Y-75331500I0J147500D01*
G01*
X119072700Y-75036500D01*
G75*
G02*
X119220200Y-74889000I147500J0D01*
G01*
G37*
G36*
G01*
X119220200Y-73919000D02*
X119565200Y-73919000D01*
G75*
G02*
X119712700Y-74066500I0J-147500D01*
G01*
X119712700Y-74361500D01*
G75*
G02*
X119565200Y-74509000I-147500J0D01*
G01*
X119220200Y-74509000D01*
G75*
G02*
X119072700Y-74361500I0J147500D01*
G01*
X119072700Y-74066500D01*
G75*
G02*
X119220200Y-73919000I147500J0D01*
G01*
G37*
G36*
G01*
X118077200Y-74889000D02*
X118422200Y-74889000D01*
G75*
G02*
X118569700Y-75036500I0J-147500D01*
G01*
X118569700Y-75331500D01*
G75*
G02*
X118422200Y-75479000I-147500J0D01*
G01*
X118077200Y-75479000D01*
G75*
G02*
X117929700Y-75331500I0J147500D01*
G01*
X117929700Y-75036500D01*
G75*
G02*
X118077200Y-74889000I147500J0D01*
G01*
G37*
G36*
G01*
X118077200Y-73919000D02*
X118422200Y-73919000D01*
G75*
G02*
X118569700Y-74066500I0J-147500D01*
G01*
X118569700Y-74361500D01*
G75*
G02*
X118422200Y-74509000I-147500J0D01*
G01*
X118077200Y-74509000D01*
G75*
G02*
X117929700Y-74361500I0J147500D01*
G01*
X117929700Y-74066500D01*
G75*
G02*
X118077200Y-73919000I147500J0D01*
G01*
G37*
G36*
G01*
X113873100Y-89104150D02*
X113873100Y-90016650D01*
G75*
G02*
X113629350Y-90260400I-243750J0D01*
G01*
X113141850Y-90260400D01*
G75*
G02*
X112898100Y-90016650I0J243750D01*
G01*
X112898100Y-89104150D01*
G75*
G02*
X113141850Y-88860400I243750J0D01*
G01*
X113629350Y-88860400D01*
G75*
G02*
X113873100Y-89104150I0J-243750D01*
G01*
G37*
G36*
G01*
X115748100Y-89104150D02*
X115748100Y-90016650D01*
G75*
G02*
X115504350Y-90260400I-243750J0D01*
G01*
X115016850Y-90260400D01*
G75*
G02*
X114773100Y-90016650I0J243750D01*
G01*
X114773100Y-89104150D01*
G75*
G02*
X115016850Y-88860400I243750J0D01*
G01*
X115504350Y-88860400D01*
G75*
G02*
X115748100Y-89104150I0J-243750D01*
G01*
G37*
G36*
G01*
X111723800Y-94558900D02*
X111723800Y-94213900D01*
G75*
G02*
X111871300Y-94066400I147500J0D01*
G01*
X112166300Y-94066400D01*
G75*
G02*
X112313800Y-94213900I0J-147500D01*
G01*
X112313800Y-94558900D01*
G75*
G02*
X112166300Y-94706400I-147500J0D01*
G01*
X111871300Y-94706400D01*
G75*
G02*
X111723800Y-94558900I0J147500D01*
G01*
G37*
G36*
G01*
X110753800Y-94558900D02*
X110753800Y-94213900D01*
G75*
G02*
X110901300Y-94066400I147500J0D01*
G01*
X111196300Y-94066400D01*
G75*
G02*
X111343800Y-94213900I0J-147500D01*
G01*
X111343800Y-94558900D01*
G75*
G02*
X111196300Y-94706400I-147500J0D01*
G01*
X110901300Y-94706400D01*
G75*
G02*
X110753800Y-94558900I0J147500D01*
G01*
G37*
G36*
G01*
X124147800Y-74906500D02*
X124492800Y-74906500D01*
G75*
G02*
X124640300Y-75054000I0J-147500D01*
G01*
X124640300Y-75349000D01*
G75*
G02*
X124492800Y-75496500I-147500J0D01*
G01*
X124147800Y-75496500D01*
G75*
G02*
X124000300Y-75349000I0J147500D01*
G01*
X124000300Y-75054000D01*
G75*
G02*
X124147800Y-74906500I147500J0D01*
G01*
G37*
G36*
G01*
X124147800Y-73936500D02*
X124492800Y-73936500D01*
G75*
G02*
X124640300Y-74084000I0J-147500D01*
G01*
X124640300Y-74379000D01*
G75*
G02*
X124492800Y-74526500I-147500J0D01*
G01*
X124147800Y-74526500D01*
G75*
G02*
X124000300Y-74379000I0J147500D01*
G01*
X124000300Y-74084000D01*
G75*
G02*
X124147800Y-73936500I147500J0D01*
G01*
G37*
G36*
G01*
X123004800Y-74906500D02*
X123349800Y-74906500D01*
G75*
G02*
X123497300Y-75054000I0J-147500D01*
G01*
X123497300Y-75349000D01*
G75*
G02*
X123349800Y-75496500I-147500J0D01*
G01*
X123004800Y-75496500D01*
G75*
G02*
X122857300Y-75349000I0J147500D01*
G01*
X122857300Y-75054000D01*
G75*
G02*
X123004800Y-74906500I147500J0D01*
G01*
G37*
G36*
G01*
X123004800Y-73936500D02*
X123349800Y-73936500D01*
G75*
G02*
X123497300Y-74084000I0J-147500D01*
G01*
X123497300Y-74379000D01*
G75*
G02*
X123349800Y-74526500I-147500J0D01*
G01*
X123004800Y-74526500D01*
G75*
G02*
X122857300Y-74379000I0J147500D01*
G01*
X122857300Y-74084000D01*
G75*
G02*
X123004800Y-73936500I147500J0D01*
G01*
G37*
G36*
G01*
X128732500Y-74914400D02*
X129077500Y-74914400D01*
G75*
G02*
X129225000Y-75061900I0J-147500D01*
G01*
X129225000Y-75356900D01*
G75*
G02*
X129077500Y-75504400I-147500J0D01*
G01*
X128732500Y-75504400D01*
G75*
G02*
X128585000Y-75356900I0J147500D01*
G01*
X128585000Y-75061900D01*
G75*
G02*
X128732500Y-74914400I147500J0D01*
G01*
G37*
G36*
G01*
X128732500Y-73944400D02*
X129077500Y-73944400D01*
G75*
G02*
X129225000Y-74091900I0J-147500D01*
G01*
X129225000Y-74386900D01*
G75*
G02*
X129077500Y-74534400I-147500J0D01*
G01*
X128732500Y-74534400D01*
G75*
G02*
X128585000Y-74386900I0J147500D01*
G01*
X128585000Y-74091900D01*
G75*
G02*
X128732500Y-73944400I147500J0D01*
G01*
G37*
G36*
G01*
X127462500Y-74868400D02*
X127807500Y-74868400D01*
G75*
G02*
X127955000Y-75015900I0J-147500D01*
G01*
X127955000Y-75310900D01*
G75*
G02*
X127807500Y-75458400I-147500J0D01*
G01*
X127462500Y-75458400D01*
G75*
G02*
X127315000Y-75310900I0J147500D01*
G01*
X127315000Y-75015900D01*
G75*
G02*
X127462500Y-74868400I147500J0D01*
G01*
G37*
G36*
G01*
X127462500Y-73898400D02*
X127807500Y-73898400D01*
G75*
G02*
X127955000Y-74045900I0J-147500D01*
G01*
X127955000Y-74340900D01*
G75*
G02*
X127807500Y-74488400I-147500J0D01*
G01*
X127462500Y-74488400D01*
G75*
G02*
X127315000Y-74340900I0J147500D01*
G01*
X127315000Y-74045900D01*
G75*
G02*
X127462500Y-73898400I147500J0D01*
G01*
G37*
G36*
G01*
X131145500Y-75041400D02*
X131490500Y-75041400D01*
G75*
G02*
X131638000Y-75188900I0J-147500D01*
G01*
X131638000Y-75483900D01*
G75*
G02*
X131490500Y-75631400I-147500J0D01*
G01*
X131145500Y-75631400D01*
G75*
G02*
X130998000Y-75483900I0J147500D01*
G01*
X130998000Y-75188900D01*
G75*
G02*
X131145500Y-75041400I147500J0D01*
G01*
G37*
G36*
G01*
X131145500Y-74071400D02*
X131490500Y-74071400D01*
G75*
G02*
X131638000Y-74218900I0J-147500D01*
G01*
X131638000Y-74513900D01*
G75*
G02*
X131490500Y-74661400I-147500J0D01*
G01*
X131145500Y-74661400D01*
G75*
G02*
X130998000Y-74513900I0J147500D01*
G01*
X130998000Y-74218900D01*
G75*
G02*
X131145500Y-74071400I147500J0D01*
G01*
G37*
G36*
G01*
X130002500Y-75041400D02*
X130347500Y-75041400D01*
G75*
G02*
X130495000Y-75188900I0J-147500D01*
G01*
X130495000Y-75483900D01*
G75*
G02*
X130347500Y-75631400I-147500J0D01*
G01*
X130002500Y-75631400D01*
G75*
G02*
X129855000Y-75483900I0J147500D01*
G01*
X129855000Y-75188900D01*
G75*
G02*
X130002500Y-75041400I147500J0D01*
G01*
G37*
G36*
G01*
X130002500Y-74071400D02*
X130347500Y-74071400D01*
G75*
G02*
X130495000Y-74218900I0J-147500D01*
G01*
X130495000Y-74513900D01*
G75*
G02*
X130347500Y-74661400I-147500J0D01*
G01*
X130002500Y-74661400D01*
G75*
G02*
X129855000Y-74513900I0J147500D01*
G01*
X129855000Y-74218900D01*
G75*
G02*
X130002500Y-74071400I147500J0D01*
G01*
G37*
G36*
G01*
X130620000Y-81615500D02*
X130620000Y-81960500D01*
G75*
G02*
X130472500Y-82108000I-147500J0D01*
G01*
X130177500Y-82108000D01*
G75*
G02*
X130030000Y-81960500I0J147500D01*
G01*
X130030000Y-81615500D01*
G75*
G02*
X130177500Y-81468000I147500J0D01*
G01*
X130472500Y-81468000D01*
G75*
G02*
X130620000Y-81615500I0J-147500D01*
G01*
G37*
G36*
G01*
X131590000Y-81615500D02*
X131590000Y-81960500D01*
G75*
G02*
X131442500Y-82108000I-147500J0D01*
G01*
X131147500Y-82108000D01*
G75*
G02*
X131000000Y-81960500I0J147500D01*
G01*
X131000000Y-81615500D01*
G75*
G02*
X131147500Y-81468000I147500J0D01*
G01*
X131442500Y-81468000D01*
G75*
G02*
X131590000Y-81615500I0J-147500D01*
G01*
G37*
G36*
G01*
X130620000Y-80472500D02*
X130620000Y-80817500D01*
G75*
G02*
X130472500Y-80965000I-147500J0D01*
G01*
X130177500Y-80965000D01*
G75*
G02*
X130030000Y-80817500I0J147500D01*
G01*
X130030000Y-80472500D01*
G75*
G02*
X130177500Y-80325000I147500J0D01*
G01*
X130472500Y-80325000D01*
G75*
G02*
X130620000Y-80472500I0J-147500D01*
G01*
G37*
G36*
G01*
X131590000Y-80472500D02*
X131590000Y-80817500D01*
G75*
G02*
X131442500Y-80965000I-147500J0D01*
G01*
X131147500Y-80965000D01*
G75*
G02*
X131000000Y-80817500I0J147500D01*
G01*
X131000000Y-80472500D01*
G75*
G02*
X131147500Y-80325000I147500J0D01*
G01*
X131442500Y-80325000D01*
G75*
G02*
X131590000Y-80472500I0J-147500D01*
G01*
G37*
G36*
G01*
X130292200Y-91800900D02*
X130292200Y-92145900D01*
G75*
G02*
X130144700Y-92293400I-147500J0D01*
G01*
X129849700Y-92293400D01*
G75*
G02*
X129702200Y-92145900I0J147500D01*
G01*
X129702200Y-91800900D01*
G75*
G02*
X129849700Y-91653400I147500J0D01*
G01*
X130144700Y-91653400D01*
G75*
G02*
X130292200Y-91800900I0J-147500D01*
G01*
G37*
G36*
G01*
X131262200Y-91800900D02*
X131262200Y-92145900D01*
G75*
G02*
X131114700Y-92293400I-147500J0D01*
G01*
X130819700Y-92293400D01*
G75*
G02*
X130672200Y-92145900I0J147500D01*
G01*
X130672200Y-91800900D01*
G75*
G02*
X130819700Y-91653400I147500J0D01*
G01*
X131114700Y-91653400D01*
G75*
G02*
X131262200Y-91800900I0J-147500D01*
G01*
G37*
G36*
G01*
X130292200Y-90530900D02*
X130292200Y-90875900D01*
G75*
G02*
X130144700Y-91023400I-147500J0D01*
G01*
X129849700Y-91023400D01*
G75*
G02*
X129702200Y-90875900I0J147500D01*
G01*
X129702200Y-90530900D01*
G75*
G02*
X129849700Y-90383400I147500J0D01*
G01*
X130144700Y-90383400D01*
G75*
G02*
X130292200Y-90530900I0J-147500D01*
G01*
G37*
G36*
G01*
X131262200Y-90530900D02*
X131262200Y-90875900D01*
G75*
G02*
X131114700Y-91023400I-147500J0D01*
G01*
X130819700Y-91023400D01*
G75*
G02*
X130672200Y-90875900I0J147500D01*
G01*
X130672200Y-90530900D01*
G75*
G02*
X130819700Y-90383400I147500J0D01*
G01*
X131114700Y-90383400D01*
G75*
G02*
X131262200Y-90530900I0J-147500D01*
G01*
G37*
G36*
G01*
X113304100Y-94321000D02*
X112959100Y-94321000D01*
G75*
G02*
X112811600Y-94173500I0J147500D01*
G01*
X112811600Y-93878500D01*
G75*
G02*
X112959100Y-93731000I147500J0D01*
G01*
X113304100Y-93731000D01*
G75*
G02*
X113451600Y-93878500I0J-147500D01*
G01*
X113451600Y-94173500D01*
G75*
G02*
X113304100Y-94321000I-147500J0D01*
G01*
G37*
G36*
G01*
X113304100Y-95291000D02*
X112959100Y-95291000D01*
G75*
G02*
X112811600Y-95143500I0J147500D01*
G01*
X112811600Y-94848500D01*
G75*
G02*
X112959100Y-94701000I147500J0D01*
G01*
X113304100Y-94701000D01*
G75*
G02*
X113451600Y-94848500I0J-147500D01*
G01*
X113451600Y-95143500D01*
G75*
G02*
X113304100Y-95291000I-147500J0D01*
G01*
G37*
G36*
G01*
X114497900Y-94323400D02*
X114152900Y-94323400D01*
G75*
G02*
X114005400Y-94175900I0J147500D01*
G01*
X114005400Y-93880900D01*
G75*
G02*
X114152900Y-93733400I147500J0D01*
G01*
X114497900Y-93733400D01*
G75*
G02*
X114645400Y-93880900I0J-147500D01*
G01*
X114645400Y-94175900D01*
G75*
G02*
X114497900Y-94323400I-147500J0D01*
G01*
G37*
G36*
G01*
X114497900Y-95293400D02*
X114152900Y-95293400D01*
G75*
G02*
X114005400Y-95145900I0J147500D01*
G01*
X114005400Y-94850900D01*
G75*
G02*
X114152900Y-94703400I147500J0D01*
G01*
X114497900Y-94703400D01*
G75*
G02*
X114645400Y-94850900I0J-147500D01*
G01*
X114645400Y-95145900D01*
G75*
G02*
X114497900Y-95293400I-147500J0D01*
G01*
G37*
G36*
G01*
X130317600Y-94036100D02*
X130317600Y-94381100D01*
G75*
G02*
X130170100Y-94528600I-147500J0D01*
G01*
X129875100Y-94528600D01*
G75*
G02*
X129727600Y-94381100I0J147500D01*
G01*
X129727600Y-94036100D01*
G75*
G02*
X129875100Y-93888600I147500J0D01*
G01*
X130170100Y-93888600D01*
G75*
G02*
X130317600Y-94036100I0J-147500D01*
G01*
G37*
G36*
G01*
X131287600Y-94036100D02*
X131287600Y-94381100D01*
G75*
G02*
X131140100Y-94528600I-147500J0D01*
G01*
X130845100Y-94528600D01*
G75*
G02*
X130697600Y-94381100I0J147500D01*
G01*
X130697600Y-94036100D01*
G75*
G02*
X130845100Y-93888600I147500J0D01*
G01*
X131140100Y-93888600D01*
G75*
G02*
X131287600Y-94036100I0J-147500D01*
G01*
G37*
G36*
G01*
X130340600Y-92893100D02*
X130340600Y-93238100D01*
G75*
G02*
X130193100Y-93385600I-147500J0D01*
G01*
X129898100Y-93385600D01*
G75*
G02*
X129750600Y-93238100I0J147500D01*
G01*
X129750600Y-92893100D01*
G75*
G02*
X129898100Y-92745600I147500J0D01*
G01*
X130193100Y-92745600D01*
G75*
G02*
X130340600Y-92893100I0J-147500D01*
G01*
G37*
G36*
G01*
X131310600Y-92893100D02*
X131310600Y-93238100D01*
G75*
G02*
X131163100Y-93385600I-147500J0D01*
G01*
X130868100Y-93385600D01*
G75*
G02*
X130720600Y-93238100I0J147500D01*
G01*
X130720600Y-92893100D01*
G75*
G02*
X130868100Y-92745600I147500J0D01*
G01*
X131163100Y-92745600D01*
G75*
G02*
X131310600Y-92893100I0J-147500D01*
G01*
G37*
G36*
G01*
X127731300Y-94143200D02*
X127386300Y-94143200D01*
G75*
G02*
X127238800Y-93995700I0J147500D01*
G01*
X127238800Y-93700700D01*
G75*
G02*
X127386300Y-93553200I147500J0D01*
G01*
X127731300Y-93553200D01*
G75*
G02*
X127878800Y-93700700I0J-147500D01*
G01*
X127878800Y-93995700D01*
G75*
G02*
X127731300Y-94143200I-147500J0D01*
G01*
G37*
G36*
G01*
X127731300Y-95113200D02*
X127386300Y-95113200D01*
G75*
G02*
X127238800Y-94965700I0J147500D01*
G01*
X127238800Y-94670700D01*
G75*
G02*
X127386300Y-94523200I147500J0D01*
G01*
X127731300Y-94523200D01*
G75*
G02*
X127878800Y-94670700I0J-147500D01*
G01*
X127878800Y-94965700D01*
G75*
G02*
X127731300Y-95113200I-147500J0D01*
G01*
G37*
G36*
G01*
X129001300Y-94120200D02*
X128656300Y-94120200D01*
G75*
G02*
X128508800Y-93972700I0J147500D01*
G01*
X128508800Y-93677700D01*
G75*
G02*
X128656300Y-93530200I147500J0D01*
G01*
X129001300Y-93530200D01*
G75*
G02*
X129148800Y-93677700I0J-147500D01*
G01*
X129148800Y-93972700D01*
G75*
G02*
X129001300Y-94120200I-147500J0D01*
G01*
G37*
G36*
G01*
X129001300Y-95090200D02*
X128656300Y-95090200D01*
G75*
G02*
X128508800Y-94942700I0J147500D01*
G01*
X128508800Y-94647700D01*
G75*
G02*
X128656300Y-94500200I147500J0D01*
G01*
X129001300Y-94500200D01*
G75*
G02*
X129148800Y-94647700I0J-147500D01*
G01*
X129148800Y-94942700D01*
G75*
G02*
X129001300Y-95090200I-147500J0D01*
G01*
G37*
G36*
G01*
X119501700Y-94221800D02*
X119156700Y-94221800D01*
G75*
G02*
X119009200Y-94074300I0J147500D01*
G01*
X119009200Y-93779300D01*
G75*
G02*
X119156700Y-93631800I147500J0D01*
G01*
X119501700Y-93631800D01*
G75*
G02*
X119649200Y-93779300I0J-147500D01*
G01*
X119649200Y-94074300D01*
G75*
G02*
X119501700Y-94221800I-147500J0D01*
G01*
G37*
G36*
G01*
X119501700Y-95191800D02*
X119156700Y-95191800D01*
G75*
G02*
X119009200Y-95044300I0J147500D01*
G01*
X119009200Y-94749300D01*
G75*
G02*
X119156700Y-94601800I147500J0D01*
G01*
X119501700Y-94601800D01*
G75*
G02*
X119649200Y-94749300I0J-147500D01*
G01*
X119649200Y-95044300D01*
G75*
G02*
X119501700Y-95191800I-147500J0D01*
G01*
G37*
G36*
G01*
X118358700Y-94244800D02*
X118013700Y-94244800D01*
G75*
G02*
X117866200Y-94097300I0J147500D01*
G01*
X117866200Y-93802300D01*
G75*
G02*
X118013700Y-93654800I147500J0D01*
G01*
X118358700Y-93654800D01*
G75*
G02*
X118506200Y-93802300I0J-147500D01*
G01*
X118506200Y-94097300D01*
G75*
G02*
X118358700Y-94244800I-147500J0D01*
G01*
G37*
G36*
G01*
X118358700Y-95214800D02*
X118013700Y-95214800D01*
G75*
G02*
X117866200Y-95067300I0J147500D01*
G01*
X117866200Y-94772300D01*
G75*
G02*
X118013700Y-94624800I147500J0D01*
G01*
X118358700Y-94624800D01*
G75*
G02*
X118506200Y-94772300I0J-147500D01*
G01*
X118506200Y-95067300D01*
G75*
G02*
X118358700Y-95214800I-147500J0D01*
G01*
G37*
G36*
G01*
X111723800Y-90304400D02*
X111723800Y-89959400D01*
G75*
G02*
X111871300Y-89811900I147500J0D01*
G01*
X112166300Y-89811900D01*
G75*
G02*
X112313800Y-89959400I0J-147500D01*
G01*
X112313800Y-90304400D01*
G75*
G02*
X112166300Y-90451900I-147500J0D01*
G01*
X111871300Y-90451900D01*
G75*
G02*
X111723800Y-90304400I0J147500D01*
G01*
G37*
G36*
G01*
X110753800Y-90304400D02*
X110753800Y-89959400D01*
G75*
G02*
X110901300Y-89811900I147500J0D01*
G01*
X111196300Y-89811900D01*
G75*
G02*
X111343800Y-89959400I0J-147500D01*
G01*
X111343800Y-90304400D01*
G75*
G02*
X111196300Y-90451900I-147500J0D01*
G01*
X110901300Y-90451900D01*
G75*
G02*
X110753800Y-90304400I0J147500D01*
G01*
G37*
G36*
G01*
X111746800Y-91447400D02*
X111746800Y-91102400D01*
G75*
G02*
X111894300Y-90954900I147500J0D01*
G01*
X112189300Y-90954900D01*
G75*
G02*
X112336800Y-91102400I0J-147500D01*
G01*
X112336800Y-91447400D01*
G75*
G02*
X112189300Y-91594900I-147500J0D01*
G01*
X111894300Y-91594900D01*
G75*
G02*
X111746800Y-91447400I0J147500D01*
G01*
G37*
G36*
G01*
X110776800Y-91447400D02*
X110776800Y-91102400D01*
G75*
G02*
X110924300Y-90954900I147500J0D01*
G01*
X111219300Y-90954900D01*
G75*
G02*
X111366800Y-91102400I0J-147500D01*
G01*
X111366800Y-91447400D01*
G75*
G02*
X111219300Y-91594900I-147500J0D01*
G01*
X110924300Y-91594900D01*
G75*
G02*
X110776800Y-91447400I0J147500D01*
G01*
G37*
G36*
G01*
X111723800Y-93542900D02*
X111723800Y-93197900D01*
G75*
G02*
X111871300Y-93050400I147500J0D01*
G01*
X112166300Y-93050400D01*
G75*
G02*
X112313800Y-93197900I0J-147500D01*
G01*
X112313800Y-93542900D01*
G75*
G02*
X112166300Y-93690400I-147500J0D01*
G01*
X111871300Y-93690400D01*
G75*
G02*
X111723800Y-93542900I0J147500D01*
G01*
G37*
G36*
G01*
X110753800Y-93542900D02*
X110753800Y-93197900D01*
G75*
G02*
X110901300Y-93050400I147500J0D01*
G01*
X111196300Y-93050400D01*
G75*
G02*
X111343800Y-93197900I0J-147500D01*
G01*
X111343800Y-93542900D01*
G75*
G02*
X111196300Y-93690400I-147500J0D01*
G01*
X110901300Y-93690400D01*
G75*
G02*
X110753800Y-93542900I0J147500D01*
G01*
G37*
G36*
G01*
X111723800Y-92463400D02*
X111723800Y-92118400D01*
G75*
G02*
X111871300Y-91970900I147500J0D01*
G01*
X112166300Y-91970900D01*
G75*
G02*
X112313800Y-92118400I0J-147500D01*
G01*
X112313800Y-92463400D01*
G75*
G02*
X112166300Y-92610900I-147500J0D01*
G01*
X111871300Y-92610900D01*
G75*
G02*
X111723800Y-92463400I0J147500D01*
G01*
G37*
G36*
G01*
X110753800Y-92463400D02*
X110753800Y-92118400D01*
G75*
G02*
X110901300Y-91970900I147500J0D01*
G01*
X111196300Y-91970900D01*
G75*
G02*
X111343800Y-92118400I0J-147500D01*
G01*
X111343800Y-92463400D01*
G75*
G02*
X111196300Y-92610900I-147500J0D01*
G01*
X110901300Y-92610900D01*
G75*
G02*
X110753800Y-92463400I0J147500D01*
G01*
G37*
G36*
G01*
X121232300Y-86060500D02*
X121232300Y-86405500D01*
G75*
G02*
X121084800Y-86553000I-147500J0D01*
G01*
X120789800Y-86553000D01*
G75*
G02*
X120642300Y-86405500I0J147500D01*
G01*
X120642300Y-86060500D01*
G75*
G02*
X120789800Y-85913000I147500J0D01*
G01*
X121084800Y-85913000D01*
G75*
G02*
X121232300Y-86060500I0J-147500D01*
G01*
G37*
G36*
G01*
X122202300Y-86060500D02*
X122202300Y-86405500D01*
G75*
G02*
X122054800Y-86553000I-147500J0D01*
G01*
X121759800Y-86553000D01*
G75*
G02*
X121612300Y-86405500I0J147500D01*
G01*
X121612300Y-86060500D01*
G75*
G02*
X121759800Y-85913000I147500J0D01*
G01*
X122054800Y-85913000D01*
G75*
G02*
X122202300Y-86060500I0J-147500D01*
G01*
G37*
G36*
G01*
X121222000Y-83495100D02*
X121222000Y-83840100D01*
G75*
G02*
X121074500Y-83987600I-147500J0D01*
G01*
X120779500Y-83987600D01*
G75*
G02*
X120632000Y-83840100I0J147500D01*
G01*
X120632000Y-83495100D01*
G75*
G02*
X120779500Y-83347600I147500J0D01*
G01*
X121074500Y-83347600D01*
G75*
G02*
X121222000Y-83495100I0J-147500D01*
G01*
G37*
G36*
G01*
X122192000Y-83495100D02*
X122192000Y-83840100D01*
G75*
G02*
X122044500Y-83987600I-147500J0D01*
G01*
X121749500Y-83987600D01*
G75*
G02*
X121602000Y-83840100I0J147500D01*
G01*
X121602000Y-83495100D01*
G75*
G02*
X121749500Y-83347600I147500J0D01*
G01*
X122044500Y-83347600D01*
G75*
G02*
X122192000Y-83495100I0J-147500D01*
G01*
G37*
G36*
G01*
X130289800Y-87051100D02*
X130289800Y-87396100D01*
G75*
G02*
X130142300Y-87543600I-147500J0D01*
G01*
X129847300Y-87543600D01*
G75*
G02*
X129699800Y-87396100I0J147500D01*
G01*
X129699800Y-87051100D01*
G75*
G02*
X129847300Y-86903600I147500J0D01*
G01*
X130142300Y-86903600D01*
G75*
G02*
X130289800Y-87051100I0J-147500D01*
G01*
G37*
G36*
G01*
X131259800Y-87051100D02*
X131259800Y-87396100D01*
G75*
G02*
X131112300Y-87543600I-147500J0D01*
G01*
X130817300Y-87543600D01*
G75*
G02*
X130669800Y-87396100I0J147500D01*
G01*
X130669800Y-87051100D01*
G75*
G02*
X130817300Y-86903600I147500J0D01*
G01*
X131112300Y-86903600D01*
G75*
G02*
X131259800Y-87051100I0J-147500D01*
G01*
G37*
G36*
G01*
X130289800Y-89464100D02*
X130289800Y-89809100D01*
G75*
G02*
X130142300Y-89956600I-147500J0D01*
G01*
X129847300Y-89956600D01*
G75*
G02*
X129699800Y-89809100I0J147500D01*
G01*
X129699800Y-89464100D01*
G75*
G02*
X129847300Y-89316600I147500J0D01*
G01*
X130142300Y-89316600D01*
G75*
G02*
X130289800Y-89464100I0J-147500D01*
G01*
G37*
G36*
G01*
X131259800Y-89464100D02*
X131259800Y-89809100D01*
G75*
G02*
X131112300Y-89956600I-147500J0D01*
G01*
X130817300Y-89956600D01*
G75*
G02*
X130669800Y-89809100I0J147500D01*
G01*
X130669800Y-89464100D01*
G75*
G02*
X130817300Y-89316600I147500J0D01*
G01*
X131112300Y-89316600D01*
G75*
G02*
X131259800Y-89464100I0J-147500D01*
G01*
G37*
G36*
G01*
X130266800Y-88194100D02*
X130266800Y-88539100D01*
G75*
G02*
X130119300Y-88686600I-147500J0D01*
G01*
X129824300Y-88686600D01*
G75*
G02*
X129676800Y-88539100I0J147500D01*
G01*
X129676800Y-88194100D01*
G75*
G02*
X129824300Y-88046600I147500J0D01*
G01*
X130119300Y-88046600D01*
G75*
G02*
X130266800Y-88194100I0J-147500D01*
G01*
G37*
G36*
G01*
X131236800Y-88194100D02*
X131236800Y-88539100D01*
G75*
G02*
X131089300Y-88686600I-147500J0D01*
G01*
X130794300Y-88686600D01*
G75*
G02*
X130646800Y-88539100I0J147500D01*
G01*
X130646800Y-88194100D01*
G75*
G02*
X130794300Y-88046600I147500J0D01*
G01*
X131089300Y-88046600D01*
G75*
G02*
X131236800Y-88194100I0J-147500D01*
G01*
G37*
G36*
G01*
X114635500Y-74589000D02*
X114980500Y-74589000D01*
G75*
G02*
X115128000Y-74736500I0J-147500D01*
G01*
X115128000Y-75031500D01*
G75*
G02*
X114980500Y-75179000I-147500J0D01*
G01*
X114635500Y-75179000D01*
G75*
G02*
X114488000Y-75031500I0J147500D01*
G01*
X114488000Y-74736500D01*
G75*
G02*
X114635500Y-74589000I147500J0D01*
G01*
G37*
G36*
G01*
X114635500Y-73619000D02*
X114980500Y-73619000D01*
G75*
G02*
X115128000Y-73766500I0J-147500D01*
G01*
X115128000Y-74061500D01*
G75*
G02*
X114980500Y-74209000I-147500J0D01*
G01*
X114635500Y-74209000D01*
G75*
G02*
X114488000Y-74061500I0J147500D01*
G01*
X114488000Y-73766500D01*
G75*
G02*
X114635500Y-73619000I147500J0D01*
G01*
G37*
G36*
G01*
X116464300Y-75475600D02*
X116809300Y-75475600D01*
G75*
G02*
X116956800Y-75623100I0J-147500D01*
G01*
X116956800Y-75918100D01*
G75*
G02*
X116809300Y-76065600I-147500J0D01*
G01*
X116464300Y-76065600D01*
G75*
G02*
X116316800Y-75918100I0J147500D01*
G01*
X116316800Y-75623100D01*
G75*
G02*
X116464300Y-75475600I147500J0D01*
G01*
G37*
G36*
G01*
X116464300Y-74505600D02*
X116809300Y-74505600D01*
G75*
G02*
X116956800Y-74653100I0J-147500D01*
G01*
X116956800Y-74948100D01*
G75*
G02*
X116809300Y-75095600I-147500J0D01*
G01*
X116464300Y-75095600D01*
G75*
G02*
X116316800Y-74948100I0J147500D01*
G01*
X116316800Y-74653100D01*
G75*
G02*
X116464300Y-74505600I147500J0D01*
G01*
G37*
M02*
