%TF.GenerationSoftware,KiCad,Pcbnew,(5.1.6)-1*%
%TF.CreationDate,2020-09-22T22:22:23+03:00*%
%TF.ProjectId,ZX Keyboard logic,5a58204b-6579-4626-9f61-7264206c6f67,rev?*%
%TF.SameCoordinates,Original*%
%TF.FileFunction,Copper,L1,Top*%
%TF.FilePolarity,Positive*%
%FSLAX46Y46*%
G04 Gerber Fmt 4.6, Leading zero omitted, Abs format (unit mm)*
G04 Created by KiCad (PCBNEW (5.1.6)-1) date 2020-09-22 22:22:24*
%MOMM*%
%LPD*%
G01*
G04 APERTURE LIST*
%TA.AperFunction,ComponentPad*%
%ADD10O,1.700000X1.700000*%
%TD*%
%TA.AperFunction,ComponentPad*%
%ADD11R,1.700000X1.700000*%
%TD*%
%TA.AperFunction,SMDPad,CuDef*%
%ADD12R,0.650000X1.950000*%
%TD*%
%TA.AperFunction,ComponentPad*%
%ADD13C,1.130000*%
%TD*%
%TA.AperFunction,ComponentPad*%
%ADD14R,1.130000X1.130000*%
%TD*%
%TA.AperFunction,ViaPad*%
%ADD15C,0.800000*%
%TD*%
%TA.AperFunction,Conductor*%
%ADD16C,0.250000*%
%TD*%
G04 APERTURE END LIST*
D10*
%TO.P,J4,13*%
%TO.N,/K_D0*%
X82296000Y-103124000D03*
%TO.P,J4,12*%
%TO.N,/K_D1*%
X79756000Y-103124000D03*
%TO.P,J4,11*%
%TO.N,/K_D2*%
X77216000Y-103124000D03*
%TO.P,J4,10*%
%TO.N,/K_D3*%
X74676000Y-103124000D03*
%TO.P,J4,9*%
%TO.N,/K_D4*%
X72136000Y-103124000D03*
%TO.P,J4,8*%
%TO.N,/K_A15*%
X69596000Y-103124000D03*
%TO.P,J4,7*%
%TO.N,/K_A14*%
X67056000Y-103124000D03*
%TO.P,J4,6*%
%TO.N,/K_A13*%
X64516000Y-103124000D03*
%TO.P,J4,5*%
%TO.N,/K_A12*%
X61976000Y-103124000D03*
%TO.P,J4,4*%
%TO.N,/K_A11*%
X59436000Y-103124000D03*
%TO.P,J4,3*%
%TO.N,/K_A10*%
X56896000Y-103124000D03*
%TO.P,J4,2*%
%TO.N,/K_A9*%
X54356000Y-103124000D03*
D11*
%TO.P,J4,1*%
%TO.N,/K_A8*%
X51816000Y-103124000D03*
%TD*%
D10*
%TO.P,J3,2*%
%TO.N,GND*%
X35306000Y-92710000D03*
D11*
%TO.P,J3,1*%
%TO.N,+5V*%
X35306000Y-95250000D03*
%TD*%
D10*
%TO.P,J2,14*%
%TO.N,/KEY_ENBL*%
X83820000Y-82804000D03*
%TO.P,J2,13*%
%TO.N,/D0*%
X81280000Y-82804000D03*
%TO.P,J2,12*%
%TO.N,/D1*%
X78740000Y-82804000D03*
%TO.P,J2,11*%
%TO.N,/D2*%
X76200000Y-82804000D03*
%TO.P,J2,10*%
%TO.N,/D3*%
X73660000Y-82804000D03*
%TO.P,J2,9*%
%TO.N,/D4*%
X71120000Y-82804000D03*
%TO.P,J2,8*%
%TO.N,/A15*%
X68580000Y-82804000D03*
%TO.P,J2,7*%
%TO.N,/A14*%
X66040000Y-82804000D03*
%TO.P,J2,6*%
%TO.N,/A13*%
X63500000Y-82804000D03*
%TO.P,J2,5*%
%TO.N,/A12*%
X60960000Y-82804000D03*
%TO.P,J2,4*%
%TO.N,/A11*%
X58420000Y-82804000D03*
%TO.P,J2,3*%
%TO.N,/A10*%
X55880000Y-82804000D03*
%TO.P,J2,2*%
%TO.N,/A9*%
X53340000Y-82804000D03*
D11*
%TO.P,J2,1*%
%TO.N,/A8*%
X50800000Y-82804000D03*
%TD*%
D10*
%TO.P,J1,3*%
%TO.N,/~RD*%
X35306000Y-88138000D03*
%TO.P,J1,2*%
%TO.N,/~IORQ*%
X35306000Y-85598000D03*
D11*
%TO.P,J1,1*%
%TO.N,/A0*%
X35306000Y-83058000D03*
%TD*%
%TO.P,R?-R1,2*%
%TO.N,/D0*%
%TA.AperFunction,SMDPad,CuDef*%
G36*
G01*
X79928500Y-85939000D02*
X79583500Y-85939000D01*
G75*
G02*
X79436000Y-85791500I0J147500D01*
G01*
X79436000Y-85496500D01*
G75*
G02*
X79583500Y-85349000I147500J0D01*
G01*
X79928500Y-85349000D01*
G75*
G02*
X80076000Y-85496500I0J-147500D01*
G01*
X80076000Y-85791500D01*
G75*
G02*
X79928500Y-85939000I-147500J0D01*
G01*
G37*
%TD.AperFunction*%
%TO.P,R?-R1,1*%
%TO.N,Net-(IC3-Pad2)*%
%TA.AperFunction,SMDPad,CuDef*%
G36*
G01*
X79928500Y-86909000D02*
X79583500Y-86909000D01*
G75*
G02*
X79436000Y-86761500I0J147500D01*
G01*
X79436000Y-86466500D01*
G75*
G02*
X79583500Y-86319000I147500J0D01*
G01*
X79928500Y-86319000D01*
G75*
G02*
X80076000Y-86466500I0J-147500D01*
G01*
X80076000Y-86761500D01*
G75*
G02*
X79928500Y-86909000I-147500J0D01*
G01*
G37*
%TD.AperFunction*%
%TD*%
%TO.P,R4,2*%
%TO.N,/D4*%
%TA.AperFunction,SMDPad,CuDef*%
G36*
G01*
X74594500Y-85916000D02*
X74249500Y-85916000D01*
G75*
G02*
X74102000Y-85768500I0J147500D01*
G01*
X74102000Y-85473500D01*
G75*
G02*
X74249500Y-85326000I147500J0D01*
G01*
X74594500Y-85326000D01*
G75*
G02*
X74742000Y-85473500I0J-147500D01*
G01*
X74742000Y-85768500D01*
G75*
G02*
X74594500Y-85916000I-147500J0D01*
G01*
G37*
%TD.AperFunction*%
%TO.P,R4,1*%
%TO.N,Net-(IC3-Pad6)*%
%TA.AperFunction,SMDPad,CuDef*%
G36*
G01*
X74594500Y-86886000D02*
X74249500Y-86886000D01*
G75*
G02*
X74102000Y-86738500I0J147500D01*
G01*
X74102000Y-86443500D01*
G75*
G02*
X74249500Y-86296000I147500J0D01*
G01*
X74594500Y-86296000D01*
G75*
G02*
X74742000Y-86443500I0J-147500D01*
G01*
X74742000Y-86738500D01*
G75*
G02*
X74594500Y-86886000I-147500J0D01*
G01*
G37*
%TD.AperFunction*%
%TD*%
%TO.P,R3,2*%
%TO.N,/D3*%
%TA.AperFunction,SMDPad,CuDef*%
G36*
G01*
X76036100Y-85939000D02*
X75691100Y-85939000D01*
G75*
G02*
X75543600Y-85791500I0J147500D01*
G01*
X75543600Y-85496500D01*
G75*
G02*
X75691100Y-85349000I147500J0D01*
G01*
X76036100Y-85349000D01*
G75*
G02*
X76183600Y-85496500I0J-147500D01*
G01*
X76183600Y-85791500D01*
G75*
G02*
X76036100Y-85939000I-147500J0D01*
G01*
G37*
%TD.AperFunction*%
%TO.P,R3,1*%
%TO.N,Net-(IC3-Pad5)*%
%TA.AperFunction,SMDPad,CuDef*%
G36*
G01*
X76036100Y-86909000D02*
X75691100Y-86909000D01*
G75*
G02*
X75543600Y-86761500I0J147500D01*
G01*
X75543600Y-86466500D01*
G75*
G02*
X75691100Y-86319000I147500J0D01*
G01*
X76036100Y-86319000D01*
G75*
G02*
X76183600Y-86466500I0J-147500D01*
G01*
X76183600Y-86761500D01*
G75*
G02*
X76036100Y-86909000I-147500J0D01*
G01*
G37*
%TD.AperFunction*%
%TD*%
%TO.P,R2,2*%
%TO.N,/D2*%
%TA.AperFunction,SMDPad,CuDef*%
G36*
G01*
X77388500Y-85939000D02*
X77043500Y-85939000D01*
G75*
G02*
X76896000Y-85791500I0J147500D01*
G01*
X76896000Y-85496500D01*
G75*
G02*
X77043500Y-85349000I147500J0D01*
G01*
X77388500Y-85349000D01*
G75*
G02*
X77536000Y-85496500I0J-147500D01*
G01*
X77536000Y-85791500D01*
G75*
G02*
X77388500Y-85939000I-147500J0D01*
G01*
G37*
%TD.AperFunction*%
%TO.P,R2,1*%
%TO.N,Net-(IC3-Pad4)*%
%TA.AperFunction,SMDPad,CuDef*%
G36*
G01*
X77388500Y-86909000D02*
X77043500Y-86909000D01*
G75*
G02*
X76896000Y-86761500I0J147500D01*
G01*
X76896000Y-86466500D01*
G75*
G02*
X77043500Y-86319000I147500J0D01*
G01*
X77388500Y-86319000D01*
G75*
G02*
X77536000Y-86466500I0J-147500D01*
G01*
X77536000Y-86761500D01*
G75*
G02*
X77388500Y-86909000I-147500J0D01*
G01*
G37*
%TD.AperFunction*%
%TD*%
%TO.P,R1,2*%
%TO.N,/D1*%
%TA.AperFunction,SMDPad,CuDef*%
G36*
G01*
X78658500Y-85939000D02*
X78313500Y-85939000D01*
G75*
G02*
X78166000Y-85791500I0J147500D01*
G01*
X78166000Y-85496500D01*
G75*
G02*
X78313500Y-85349000I147500J0D01*
G01*
X78658500Y-85349000D01*
G75*
G02*
X78806000Y-85496500I0J-147500D01*
G01*
X78806000Y-85791500D01*
G75*
G02*
X78658500Y-85939000I-147500J0D01*
G01*
G37*
%TD.AperFunction*%
%TO.P,R1,1*%
%TO.N,Net-(IC3-Pad3)*%
%TA.AperFunction,SMDPad,CuDef*%
G36*
G01*
X78658500Y-86909000D02*
X78313500Y-86909000D01*
G75*
G02*
X78166000Y-86761500I0J147500D01*
G01*
X78166000Y-86466500D01*
G75*
G02*
X78313500Y-86319000I147500J0D01*
G01*
X78658500Y-86319000D01*
G75*
G02*
X78806000Y-86466500I0J-147500D01*
G01*
X78806000Y-86761500D01*
G75*
G02*
X78658500Y-86909000I-147500J0D01*
G01*
G37*
%TD.AperFunction*%
%TD*%
D12*
%TO.P,IC3,20*%
%TO.N,+5V*%
X81069000Y-99213000D03*
%TO.P,IC3,19*%
%TO.N,/KEY_ENBL*%
X79799000Y-99213000D03*
%TO.P,IC3,18*%
%TO.N,/K_D0*%
X78529000Y-99213000D03*
%TO.P,IC3,17*%
%TO.N,/K_D1*%
X77259000Y-99213000D03*
%TO.P,IC3,16*%
%TO.N,/K_D2*%
X75989000Y-99213000D03*
%TO.P,IC3,15*%
%TO.N,/K_D3*%
X74719000Y-99213000D03*
%TO.P,IC3,14*%
%TO.N,/K_D4*%
X73449000Y-99213000D03*
%TO.P,IC3,13*%
%TO.N,N/C*%
X72179000Y-99213000D03*
%TO.P,IC3,12*%
X70909000Y-99213000D03*
%TO.P,IC3,11*%
X69639000Y-99213000D03*
%TO.P,IC3,10*%
%TO.N,GND*%
X69639000Y-89763000D03*
%TO.P,IC3,9*%
%TO.N,N/C*%
X70909000Y-89763000D03*
%TO.P,IC3,8*%
X72179000Y-89763000D03*
%TO.P,IC3,7*%
X73449000Y-89763000D03*
%TO.P,IC3,6*%
%TO.N,Net-(IC3-Pad6)*%
X74719000Y-89763000D03*
%TO.P,IC3,5*%
%TO.N,Net-(IC3-Pad5)*%
X75989000Y-89763000D03*
%TO.P,IC3,4*%
%TO.N,Net-(IC3-Pad4)*%
X77259000Y-89763000D03*
%TO.P,IC3,3*%
%TO.N,Net-(IC3-Pad3)*%
X78529000Y-89763000D03*
%TO.P,IC3,2*%
%TO.N,Net-(IC3-Pad2)*%
X79799000Y-89763000D03*
%TO.P,IC3,1*%
%TO.N,GND*%
X81069000Y-89763000D03*
%TD*%
D13*
%TO.P,IC2,14*%
%TO.N,+5V*%
X46990000Y-83312000D03*
%TO.P,IC2,13*%
%TO.N,/~RD*%
X46990000Y-85852000D03*
%TO.P,IC2,12*%
%TO.N,Net-(IC2-Pad10)*%
X46990000Y-88392000D03*
%TO.P,IC2,11*%
X46990000Y-90932000D03*
%TO.P,IC2,10*%
X46990000Y-93472000D03*
%TO.P,IC2,9*%
X46990000Y-96012000D03*
%TO.P,IC2,8*%
%TO.N,/KEY_ENBL*%
X46990000Y-98552000D03*
%TO.P,IC2,7*%
%TO.N,GND*%
X39050000Y-98552000D03*
%TO.P,IC2,6*%
%TO.N,N/C*%
X39050000Y-96012000D03*
%TO.P,IC2,5*%
%TO.N,GND*%
X39050000Y-93472000D03*
%TO.P,IC2,4*%
X39050000Y-90932000D03*
%TO.P,IC2,3*%
X39050000Y-88392000D03*
%TO.P,IC2,2*%
%TO.N,/~IORQ*%
X39050000Y-85852000D03*
D14*
%TO.P,IC2,1*%
%TO.N,/A0*%
X39050000Y-83312000D03*
%TD*%
D15*
%TO.N,GND*%
X68580000Y-87884000D03*
X61976000Y-96520000D03*
%TD*%
D16*
%TO.N,+5V*%
X83471001Y-103688001D02*
X82257002Y-104902000D01*
X81069000Y-99213000D02*
X83471001Y-101615001D01*
X83471001Y-101615001D02*
X83471001Y-103688001D01*
X35306000Y-96125202D02*
X35306000Y-95250000D01*
X44082798Y-104902000D02*
X35306000Y-96125202D01*
X82257002Y-104902000D02*
X44082798Y-104902000D01*
%TO.N,GND*%
X39050000Y-98552000D02*
X37592000Y-97094000D01*
X37592000Y-94930000D02*
X39050000Y-93472000D01*
X37592000Y-97094000D02*
X37592000Y-94930000D01*
X39050000Y-93472000D02*
X39050000Y-90932000D01*
X39050000Y-90932000D02*
X39050000Y-88392000D01*
X69639000Y-88943000D02*
X68580000Y-87884000D01*
X69639000Y-89763000D02*
X69639000Y-88943000D01*
X69639000Y-90988000D02*
X70091000Y-91440000D01*
X69639000Y-89763000D02*
X69639000Y-90988000D01*
X81069000Y-90988000D02*
X81069000Y-89763000D01*
X80617000Y-91440000D02*
X81069000Y-90988000D01*
X70091000Y-91440000D02*
X80617000Y-91440000D01*
X38288000Y-92710000D02*
X39050000Y-93472000D01*
X35306000Y-92710000D02*
X38288000Y-92710000D01*
X40699999Y-96902001D02*
X61593999Y-96902001D01*
X39050000Y-98552000D02*
X40699999Y-96902001D01*
X61593999Y-96902001D02*
X61976000Y-96520000D01*
X61976000Y-96520000D02*
X61976000Y-96520000D01*
%TO.N,Net-(IC2-Pad10)*%
X46990000Y-96012000D02*
X46990000Y-93472000D01*
X46990000Y-93472000D02*
X46990000Y-90932000D01*
X46990000Y-90932000D02*
X46990000Y-88392000D01*
%TO.N,/KEY_ENBL*%
X83820000Y-82804000D02*
X83820000Y-93726000D01*
X79799000Y-97747000D02*
X79799000Y-99213000D01*
X83820000Y-93726000D02*
X79799000Y-97747000D01*
X47629001Y-97912999D02*
X79633001Y-97912999D01*
X79633001Y-97912999D02*
X79799000Y-97747000D01*
X46990000Y-98552000D02*
X47629001Y-97912999D01*
%TO.N,/K_D0*%
X78529000Y-99036002D02*
X78529000Y-98421000D01*
X81790000Y-103124000D02*
X82296000Y-103124000D01*
X78529000Y-99863000D02*
X81790000Y-103124000D01*
X78529000Y-99213000D02*
X78529000Y-99863000D01*
%TO.N,/K_D1*%
X77259000Y-100438000D02*
X79756000Y-102935000D01*
X79756000Y-102935000D02*
X79756000Y-103124000D01*
X77259000Y-99213000D02*
X77259000Y-100438000D01*
%TO.N,/K_D2*%
X75989000Y-101897000D02*
X77216000Y-103124000D01*
X75989000Y-99213000D02*
X75989000Y-101897000D01*
%TO.N,/K_D3*%
X74676000Y-98464000D02*
X74719000Y-98421000D01*
X74719000Y-103081000D02*
X74676000Y-103124000D01*
X74719000Y-99213000D02*
X74719000Y-103081000D01*
%TO.N,/K_D4*%
X73449000Y-101811000D02*
X72136000Y-103124000D01*
X73449000Y-99213000D02*
X73449000Y-101811000D01*
%TO.N,Net-(IC3-Pad6)*%
X74719000Y-86888000D02*
X74422000Y-86591000D01*
X74719000Y-89763000D02*
X74719000Y-86888000D01*
%TO.N,Net-(IC3-Pad5)*%
X75863600Y-89637600D02*
X75989000Y-89763000D01*
X75863600Y-86614000D02*
X75863600Y-89637600D01*
%TO.N,Net-(IC3-Pad4)*%
X77216000Y-89720000D02*
X77259000Y-89763000D01*
X77216000Y-86614000D02*
X77216000Y-89720000D01*
%TO.N,Net-(IC3-Pad3)*%
X78486000Y-89720000D02*
X78529000Y-89763000D01*
X78486000Y-86614000D02*
X78486000Y-89720000D01*
%TO.N,Net-(IC3-Pad2)*%
X79756000Y-89720000D02*
X79799000Y-89763000D01*
X79756000Y-86614000D02*
X79756000Y-89720000D01*
%TO.N,/A14*%
X65786000Y-82594588D02*
X65786000Y-82550000D01*
%TO.N,/~RD*%
X45553999Y-87288001D02*
X46990000Y-85852000D01*
X36155999Y-87288001D02*
X45553999Y-87288001D01*
X35306000Y-88138000D02*
X36155999Y-87288001D01*
%TO.N,/~IORQ*%
X38796000Y-85598000D02*
X39050000Y-85852000D01*
X35306000Y-85598000D02*
X38796000Y-85598000D01*
%TO.N,/A0*%
X38796000Y-83058000D02*
X39050000Y-83312000D01*
X35306000Y-83058000D02*
X38796000Y-83058000D01*
%TO.N,/D4*%
X74422000Y-85621000D02*
X74422000Y-85598000D01*
X73937000Y-85621000D02*
X71120000Y-82804000D01*
X74422000Y-85621000D02*
X73937000Y-85621000D01*
%TO.N,/D3*%
X75863600Y-85007600D02*
X73660000Y-82804000D01*
X75863600Y-85644000D02*
X75863600Y-85007600D01*
%TO.N,/D2*%
X77216000Y-83820000D02*
X76200000Y-82804000D01*
X77216000Y-85644000D02*
X77216000Y-83820000D01*
%TO.N,/D1*%
X78486000Y-83058000D02*
X78740000Y-82804000D01*
X78486000Y-85644000D02*
X78486000Y-83058000D01*
%TO.N,/D0*%
X79756000Y-84328000D02*
X81280000Y-82804000D01*
X79756000Y-85644000D02*
X79756000Y-84328000D01*
%TD*%
M02*
