%TF.GenerationSoftware,KiCad,Pcbnew,(5.1.6)-1*%
%TF.CreationDate,2020-09-22T22:22:24+03:00*%
%TF.ProjectId,ZX Keyboard logic,5a58204b-6579-4626-9f61-7264206c6f67,rev?*%
%TF.SameCoordinates,Original*%
%TF.FileFunction,Soldermask,Bot*%
%TF.FilePolarity,Negative*%
%FSLAX46Y46*%
G04 Gerber Fmt 4.6, Leading zero omitted, Abs format (unit mm)*
G04 Created by KiCad (PCBNEW (5.1.6)-1) date 2020-09-22 22:22:24*
%MOMM*%
%LPD*%
G01*
G04 APERTURE LIST*
%ADD10O,1.800000X1.800000*%
%ADD11R,1.800000X1.800000*%
%ADD12C,1.230000*%
%ADD13R,1.230000X1.230000*%
%ADD14R,0.750000X2.050000*%
G04 APERTURE END LIST*
D10*
%TO.C,J4*%
X82296000Y-103124000D03*
X79756000Y-103124000D03*
X77216000Y-103124000D03*
X74676000Y-103124000D03*
X72136000Y-103124000D03*
X69596000Y-103124000D03*
X67056000Y-103124000D03*
X64516000Y-103124000D03*
X61976000Y-103124000D03*
X59436000Y-103124000D03*
X56896000Y-103124000D03*
X54356000Y-103124000D03*
D11*
X51816000Y-103124000D03*
%TD*%
D10*
%TO.C,J3*%
X35306000Y-92710000D03*
D11*
X35306000Y-95250000D03*
%TD*%
D10*
%TO.C,J2*%
X83820000Y-82804000D03*
X81280000Y-82804000D03*
X78740000Y-82804000D03*
X76200000Y-82804000D03*
X73660000Y-82804000D03*
X71120000Y-82804000D03*
X68580000Y-82804000D03*
X66040000Y-82804000D03*
X63500000Y-82804000D03*
X60960000Y-82804000D03*
X58420000Y-82804000D03*
X55880000Y-82804000D03*
X53340000Y-82804000D03*
D11*
X50800000Y-82804000D03*
%TD*%
D10*
%TO.C,J1*%
X35306000Y-88138000D03*
X35306000Y-85598000D03*
D11*
X35306000Y-83058000D03*
%TD*%
D12*
%TO.C,IC2*%
X46990000Y-83312000D03*
X46990000Y-85852000D03*
X46990000Y-88392000D03*
X46990000Y-90932000D03*
X46990000Y-93472000D03*
X46990000Y-96012000D03*
X46990000Y-98552000D03*
X39050000Y-98552000D03*
X39050000Y-96012000D03*
X39050000Y-93472000D03*
X39050000Y-90932000D03*
X39050000Y-88392000D03*
X39050000Y-85852000D03*
D13*
X39050000Y-83312000D03*
%TD*%
D14*
%TO.C,IC1*%
X56007000Y-99213000D03*
X57277000Y-99213000D03*
X58547000Y-99213000D03*
X59817000Y-99213000D03*
X61087000Y-99213000D03*
X62357000Y-99213000D03*
X63627000Y-99213000D03*
X64897000Y-99213000D03*
X66167000Y-99213000D03*
X67437000Y-99213000D03*
X67437000Y-89763000D03*
X66167000Y-89763000D03*
X64897000Y-89763000D03*
X63627000Y-89763000D03*
X62357000Y-89763000D03*
X61087000Y-89763000D03*
X59817000Y-89763000D03*
X58547000Y-89763000D03*
X57277000Y-89763000D03*
X56007000Y-89763000D03*
%TD*%
M02*
