%TF.GenerationSoftware,KiCad,Pcbnew,(5.1.6)-1*%
%TF.CreationDate,2020-09-22T22:22:24+03:00*%
%TF.ProjectId,ZX Keyboard logic,5a58204b-6579-4626-9f61-7264206c6f67,rev?*%
%TF.SameCoordinates,Original*%
%TF.FileFunction,Paste,Top*%
%TF.FilePolarity,Positive*%
%FSLAX46Y46*%
G04 Gerber Fmt 4.6, Leading zero omitted, Abs format (unit mm)*
G04 Created by KiCad (PCBNEW (5.1.6)-1) date 2020-09-22 22:22:24*
%MOMM*%
%LPD*%
G01*
G04 APERTURE LIST*
%ADD10R,0.650000X1.950000*%
G04 APERTURE END LIST*
%TO.C,R?-R1*%
G36*
G01*
X79928500Y-85939000D02*
X79583500Y-85939000D01*
G75*
G02*
X79436000Y-85791500I0J147500D01*
G01*
X79436000Y-85496500D01*
G75*
G02*
X79583500Y-85349000I147500J0D01*
G01*
X79928500Y-85349000D01*
G75*
G02*
X80076000Y-85496500I0J-147500D01*
G01*
X80076000Y-85791500D01*
G75*
G02*
X79928500Y-85939000I-147500J0D01*
G01*
G37*
G36*
G01*
X79928500Y-86909000D02*
X79583500Y-86909000D01*
G75*
G02*
X79436000Y-86761500I0J147500D01*
G01*
X79436000Y-86466500D01*
G75*
G02*
X79583500Y-86319000I147500J0D01*
G01*
X79928500Y-86319000D01*
G75*
G02*
X80076000Y-86466500I0J-147500D01*
G01*
X80076000Y-86761500D01*
G75*
G02*
X79928500Y-86909000I-147500J0D01*
G01*
G37*
%TD*%
%TO.C,R4*%
G36*
G01*
X74594500Y-85916000D02*
X74249500Y-85916000D01*
G75*
G02*
X74102000Y-85768500I0J147500D01*
G01*
X74102000Y-85473500D01*
G75*
G02*
X74249500Y-85326000I147500J0D01*
G01*
X74594500Y-85326000D01*
G75*
G02*
X74742000Y-85473500I0J-147500D01*
G01*
X74742000Y-85768500D01*
G75*
G02*
X74594500Y-85916000I-147500J0D01*
G01*
G37*
G36*
G01*
X74594500Y-86886000D02*
X74249500Y-86886000D01*
G75*
G02*
X74102000Y-86738500I0J147500D01*
G01*
X74102000Y-86443500D01*
G75*
G02*
X74249500Y-86296000I147500J0D01*
G01*
X74594500Y-86296000D01*
G75*
G02*
X74742000Y-86443500I0J-147500D01*
G01*
X74742000Y-86738500D01*
G75*
G02*
X74594500Y-86886000I-147500J0D01*
G01*
G37*
%TD*%
%TO.C,R3*%
G36*
G01*
X76036100Y-85939000D02*
X75691100Y-85939000D01*
G75*
G02*
X75543600Y-85791500I0J147500D01*
G01*
X75543600Y-85496500D01*
G75*
G02*
X75691100Y-85349000I147500J0D01*
G01*
X76036100Y-85349000D01*
G75*
G02*
X76183600Y-85496500I0J-147500D01*
G01*
X76183600Y-85791500D01*
G75*
G02*
X76036100Y-85939000I-147500J0D01*
G01*
G37*
G36*
G01*
X76036100Y-86909000D02*
X75691100Y-86909000D01*
G75*
G02*
X75543600Y-86761500I0J147500D01*
G01*
X75543600Y-86466500D01*
G75*
G02*
X75691100Y-86319000I147500J0D01*
G01*
X76036100Y-86319000D01*
G75*
G02*
X76183600Y-86466500I0J-147500D01*
G01*
X76183600Y-86761500D01*
G75*
G02*
X76036100Y-86909000I-147500J0D01*
G01*
G37*
%TD*%
%TO.C,R2*%
G36*
G01*
X77388500Y-85939000D02*
X77043500Y-85939000D01*
G75*
G02*
X76896000Y-85791500I0J147500D01*
G01*
X76896000Y-85496500D01*
G75*
G02*
X77043500Y-85349000I147500J0D01*
G01*
X77388500Y-85349000D01*
G75*
G02*
X77536000Y-85496500I0J-147500D01*
G01*
X77536000Y-85791500D01*
G75*
G02*
X77388500Y-85939000I-147500J0D01*
G01*
G37*
G36*
G01*
X77388500Y-86909000D02*
X77043500Y-86909000D01*
G75*
G02*
X76896000Y-86761500I0J147500D01*
G01*
X76896000Y-86466500D01*
G75*
G02*
X77043500Y-86319000I147500J0D01*
G01*
X77388500Y-86319000D01*
G75*
G02*
X77536000Y-86466500I0J-147500D01*
G01*
X77536000Y-86761500D01*
G75*
G02*
X77388500Y-86909000I-147500J0D01*
G01*
G37*
%TD*%
%TO.C,R1*%
G36*
G01*
X78658500Y-85939000D02*
X78313500Y-85939000D01*
G75*
G02*
X78166000Y-85791500I0J147500D01*
G01*
X78166000Y-85496500D01*
G75*
G02*
X78313500Y-85349000I147500J0D01*
G01*
X78658500Y-85349000D01*
G75*
G02*
X78806000Y-85496500I0J-147500D01*
G01*
X78806000Y-85791500D01*
G75*
G02*
X78658500Y-85939000I-147500J0D01*
G01*
G37*
G36*
G01*
X78658500Y-86909000D02*
X78313500Y-86909000D01*
G75*
G02*
X78166000Y-86761500I0J147500D01*
G01*
X78166000Y-86466500D01*
G75*
G02*
X78313500Y-86319000I147500J0D01*
G01*
X78658500Y-86319000D01*
G75*
G02*
X78806000Y-86466500I0J-147500D01*
G01*
X78806000Y-86761500D01*
G75*
G02*
X78658500Y-86909000I-147500J0D01*
G01*
G37*
%TD*%
D10*
%TO.C,IC3*%
X81069000Y-99213000D03*
X79799000Y-99213000D03*
X78529000Y-99213000D03*
X77259000Y-99213000D03*
X75989000Y-99213000D03*
X74719000Y-99213000D03*
X73449000Y-99213000D03*
X72179000Y-99213000D03*
X70909000Y-99213000D03*
X69639000Y-99213000D03*
X69639000Y-89763000D03*
X70909000Y-89763000D03*
X72179000Y-89763000D03*
X73449000Y-89763000D03*
X74719000Y-89763000D03*
X75989000Y-89763000D03*
X77259000Y-89763000D03*
X78529000Y-89763000D03*
X79799000Y-89763000D03*
X81069000Y-89763000D03*
%TD*%
M02*
