%TF.GenerationSoftware,KiCad,Pcbnew,(5.1.6)-1*%
%TF.CreationDate,2020-09-22T22:22:24+03:00*%
%TF.ProjectId,ZX Keyboard logic,5a58204b-6579-4626-9f61-7264206c6f67,rev?*%
%TF.SameCoordinates,Original*%
%TF.FileFunction,Soldermask,Top*%
%TF.FilePolarity,Negative*%
%FSLAX46Y46*%
G04 Gerber Fmt 4.6, Leading zero omitted, Abs format (unit mm)*
G04 Created by KiCad (PCBNEW (5.1.6)-1) date 2020-09-22 22:22:24*
%MOMM*%
%LPD*%
G01*
G04 APERTURE LIST*
%ADD10O,1.800000X1.800000*%
%ADD11R,1.800000X1.800000*%
%ADD12R,0.750000X2.050000*%
%ADD13C,1.230000*%
%ADD14R,1.230000X1.230000*%
G04 APERTURE END LIST*
D10*
%TO.C,J4*%
X82296000Y-103124000D03*
X79756000Y-103124000D03*
X77216000Y-103124000D03*
X74676000Y-103124000D03*
X72136000Y-103124000D03*
X69596000Y-103124000D03*
X67056000Y-103124000D03*
X64516000Y-103124000D03*
X61976000Y-103124000D03*
X59436000Y-103124000D03*
X56896000Y-103124000D03*
X54356000Y-103124000D03*
D11*
X51816000Y-103124000D03*
%TD*%
D10*
%TO.C,J3*%
X35306000Y-92710000D03*
D11*
X35306000Y-95250000D03*
%TD*%
D10*
%TO.C,J2*%
X83820000Y-82804000D03*
X81280000Y-82804000D03*
X78740000Y-82804000D03*
X76200000Y-82804000D03*
X73660000Y-82804000D03*
X71120000Y-82804000D03*
X68580000Y-82804000D03*
X66040000Y-82804000D03*
X63500000Y-82804000D03*
X60960000Y-82804000D03*
X58420000Y-82804000D03*
X55880000Y-82804000D03*
X53340000Y-82804000D03*
D11*
X50800000Y-82804000D03*
%TD*%
D10*
%TO.C,J1*%
X35306000Y-88138000D03*
X35306000Y-85598000D03*
D11*
X35306000Y-83058000D03*
%TD*%
%TO.C,R?-R1*%
G36*
G01*
X79953500Y-85989000D02*
X79558500Y-85989000D01*
G75*
G02*
X79386000Y-85816500I0J172500D01*
G01*
X79386000Y-85471500D01*
G75*
G02*
X79558500Y-85299000I172500J0D01*
G01*
X79953500Y-85299000D01*
G75*
G02*
X80126000Y-85471500I0J-172500D01*
G01*
X80126000Y-85816500D01*
G75*
G02*
X79953500Y-85989000I-172500J0D01*
G01*
G37*
G36*
G01*
X79953500Y-86959000D02*
X79558500Y-86959000D01*
G75*
G02*
X79386000Y-86786500I0J172500D01*
G01*
X79386000Y-86441500D01*
G75*
G02*
X79558500Y-86269000I172500J0D01*
G01*
X79953500Y-86269000D01*
G75*
G02*
X80126000Y-86441500I0J-172500D01*
G01*
X80126000Y-86786500D01*
G75*
G02*
X79953500Y-86959000I-172500J0D01*
G01*
G37*
%TD*%
%TO.C,R4*%
G36*
G01*
X74619500Y-85966000D02*
X74224500Y-85966000D01*
G75*
G02*
X74052000Y-85793500I0J172500D01*
G01*
X74052000Y-85448500D01*
G75*
G02*
X74224500Y-85276000I172500J0D01*
G01*
X74619500Y-85276000D01*
G75*
G02*
X74792000Y-85448500I0J-172500D01*
G01*
X74792000Y-85793500D01*
G75*
G02*
X74619500Y-85966000I-172500J0D01*
G01*
G37*
G36*
G01*
X74619500Y-86936000D02*
X74224500Y-86936000D01*
G75*
G02*
X74052000Y-86763500I0J172500D01*
G01*
X74052000Y-86418500D01*
G75*
G02*
X74224500Y-86246000I172500J0D01*
G01*
X74619500Y-86246000D01*
G75*
G02*
X74792000Y-86418500I0J-172500D01*
G01*
X74792000Y-86763500D01*
G75*
G02*
X74619500Y-86936000I-172500J0D01*
G01*
G37*
%TD*%
%TO.C,R3*%
G36*
G01*
X76061100Y-85989000D02*
X75666100Y-85989000D01*
G75*
G02*
X75493600Y-85816500I0J172500D01*
G01*
X75493600Y-85471500D01*
G75*
G02*
X75666100Y-85299000I172500J0D01*
G01*
X76061100Y-85299000D01*
G75*
G02*
X76233600Y-85471500I0J-172500D01*
G01*
X76233600Y-85816500D01*
G75*
G02*
X76061100Y-85989000I-172500J0D01*
G01*
G37*
G36*
G01*
X76061100Y-86959000D02*
X75666100Y-86959000D01*
G75*
G02*
X75493600Y-86786500I0J172500D01*
G01*
X75493600Y-86441500D01*
G75*
G02*
X75666100Y-86269000I172500J0D01*
G01*
X76061100Y-86269000D01*
G75*
G02*
X76233600Y-86441500I0J-172500D01*
G01*
X76233600Y-86786500D01*
G75*
G02*
X76061100Y-86959000I-172500J0D01*
G01*
G37*
%TD*%
%TO.C,R2*%
G36*
G01*
X77413500Y-85989000D02*
X77018500Y-85989000D01*
G75*
G02*
X76846000Y-85816500I0J172500D01*
G01*
X76846000Y-85471500D01*
G75*
G02*
X77018500Y-85299000I172500J0D01*
G01*
X77413500Y-85299000D01*
G75*
G02*
X77586000Y-85471500I0J-172500D01*
G01*
X77586000Y-85816500D01*
G75*
G02*
X77413500Y-85989000I-172500J0D01*
G01*
G37*
G36*
G01*
X77413500Y-86959000D02*
X77018500Y-86959000D01*
G75*
G02*
X76846000Y-86786500I0J172500D01*
G01*
X76846000Y-86441500D01*
G75*
G02*
X77018500Y-86269000I172500J0D01*
G01*
X77413500Y-86269000D01*
G75*
G02*
X77586000Y-86441500I0J-172500D01*
G01*
X77586000Y-86786500D01*
G75*
G02*
X77413500Y-86959000I-172500J0D01*
G01*
G37*
%TD*%
%TO.C,R1*%
G36*
G01*
X78683500Y-85989000D02*
X78288500Y-85989000D01*
G75*
G02*
X78116000Y-85816500I0J172500D01*
G01*
X78116000Y-85471500D01*
G75*
G02*
X78288500Y-85299000I172500J0D01*
G01*
X78683500Y-85299000D01*
G75*
G02*
X78856000Y-85471500I0J-172500D01*
G01*
X78856000Y-85816500D01*
G75*
G02*
X78683500Y-85989000I-172500J0D01*
G01*
G37*
G36*
G01*
X78683500Y-86959000D02*
X78288500Y-86959000D01*
G75*
G02*
X78116000Y-86786500I0J172500D01*
G01*
X78116000Y-86441500D01*
G75*
G02*
X78288500Y-86269000I172500J0D01*
G01*
X78683500Y-86269000D01*
G75*
G02*
X78856000Y-86441500I0J-172500D01*
G01*
X78856000Y-86786500D01*
G75*
G02*
X78683500Y-86959000I-172500J0D01*
G01*
G37*
%TD*%
D12*
%TO.C,IC3*%
X81069000Y-99213000D03*
X79799000Y-99213000D03*
X78529000Y-99213000D03*
X77259000Y-99213000D03*
X75989000Y-99213000D03*
X74719000Y-99213000D03*
X73449000Y-99213000D03*
X72179000Y-99213000D03*
X70909000Y-99213000D03*
X69639000Y-99213000D03*
X69639000Y-89763000D03*
X70909000Y-89763000D03*
X72179000Y-89763000D03*
X73449000Y-89763000D03*
X74719000Y-89763000D03*
X75989000Y-89763000D03*
X77259000Y-89763000D03*
X78529000Y-89763000D03*
X79799000Y-89763000D03*
X81069000Y-89763000D03*
%TD*%
D13*
%TO.C,IC2*%
X46990000Y-83312000D03*
X46990000Y-85852000D03*
X46990000Y-88392000D03*
X46990000Y-90932000D03*
X46990000Y-93472000D03*
X46990000Y-96012000D03*
X46990000Y-98552000D03*
X39050000Y-98552000D03*
X39050000Y-96012000D03*
X39050000Y-93472000D03*
X39050000Y-90932000D03*
X39050000Y-88392000D03*
X39050000Y-85852000D03*
D14*
X39050000Y-83312000D03*
%TD*%
M02*
