%TF.GenerationSoftware,KiCad,Pcbnew,(5.1.6)-1*%
%TF.CreationDate,2020-09-22T22:22:24+03:00*%
%TF.ProjectId,ZX Keyboard logic,5a58204b-6579-4626-9f61-7264206c6f67,rev?*%
%TF.SameCoordinates,Original*%
%TF.FileFunction,Copper,L2,Bot*%
%TF.FilePolarity,Positive*%
%FSLAX46Y46*%
G04 Gerber Fmt 4.6, Leading zero omitted, Abs format (unit mm)*
G04 Created by KiCad (PCBNEW (5.1.6)-1) date 2020-09-22 22:22:24*
%MOMM*%
%LPD*%
G01*
G04 APERTURE LIST*
%TA.AperFunction,ComponentPad*%
%ADD10O,1.700000X1.700000*%
%TD*%
%TA.AperFunction,ComponentPad*%
%ADD11R,1.700000X1.700000*%
%TD*%
%TA.AperFunction,ComponentPad*%
%ADD12C,1.130000*%
%TD*%
%TA.AperFunction,ComponentPad*%
%ADD13R,1.130000X1.130000*%
%TD*%
%TA.AperFunction,SMDPad,CuDef*%
%ADD14R,0.650000X1.950000*%
%TD*%
%TA.AperFunction,ViaPad*%
%ADD15C,0.800000*%
%TD*%
%TA.AperFunction,Conductor*%
%ADD16C,0.250000*%
%TD*%
G04 APERTURE END LIST*
D10*
%TO.P,J4,13*%
%TO.N,/K_D0*%
X82296000Y-103124000D03*
%TO.P,J4,12*%
%TO.N,/K_D1*%
X79756000Y-103124000D03*
%TO.P,J4,11*%
%TO.N,/K_D2*%
X77216000Y-103124000D03*
%TO.P,J4,10*%
%TO.N,/K_D3*%
X74676000Y-103124000D03*
%TO.P,J4,9*%
%TO.N,/K_D4*%
X72136000Y-103124000D03*
%TO.P,J4,8*%
%TO.N,/K_A15*%
X69596000Y-103124000D03*
%TO.P,J4,7*%
%TO.N,/K_A14*%
X67056000Y-103124000D03*
%TO.P,J4,6*%
%TO.N,/K_A13*%
X64516000Y-103124000D03*
%TO.P,J4,5*%
%TO.N,/K_A12*%
X61976000Y-103124000D03*
%TO.P,J4,4*%
%TO.N,/K_A11*%
X59436000Y-103124000D03*
%TO.P,J4,3*%
%TO.N,/K_A10*%
X56896000Y-103124000D03*
%TO.P,J4,2*%
%TO.N,/K_A9*%
X54356000Y-103124000D03*
D11*
%TO.P,J4,1*%
%TO.N,/K_A8*%
X51816000Y-103124000D03*
%TD*%
D10*
%TO.P,J3,2*%
%TO.N,GND*%
X35306000Y-92710000D03*
D11*
%TO.P,J3,1*%
%TO.N,+5V*%
X35306000Y-95250000D03*
%TD*%
D10*
%TO.P,J2,14*%
%TO.N,/KEY_ENBL*%
X83820000Y-82804000D03*
%TO.P,J2,13*%
%TO.N,/D0*%
X81280000Y-82804000D03*
%TO.P,J2,12*%
%TO.N,/D1*%
X78740000Y-82804000D03*
%TO.P,J2,11*%
%TO.N,/D2*%
X76200000Y-82804000D03*
%TO.P,J2,10*%
%TO.N,/D3*%
X73660000Y-82804000D03*
%TO.P,J2,9*%
%TO.N,/D4*%
X71120000Y-82804000D03*
%TO.P,J2,8*%
%TO.N,/A15*%
X68580000Y-82804000D03*
%TO.P,J2,7*%
%TO.N,/A14*%
X66040000Y-82804000D03*
%TO.P,J2,6*%
%TO.N,/A13*%
X63500000Y-82804000D03*
%TO.P,J2,5*%
%TO.N,/A12*%
X60960000Y-82804000D03*
%TO.P,J2,4*%
%TO.N,/A11*%
X58420000Y-82804000D03*
%TO.P,J2,3*%
%TO.N,/A10*%
X55880000Y-82804000D03*
%TO.P,J2,2*%
%TO.N,/A9*%
X53340000Y-82804000D03*
D11*
%TO.P,J2,1*%
%TO.N,/A8*%
X50800000Y-82804000D03*
%TD*%
D10*
%TO.P,J1,3*%
%TO.N,/~RD*%
X35306000Y-88138000D03*
%TO.P,J1,2*%
%TO.N,/~IORQ*%
X35306000Y-85598000D03*
D11*
%TO.P,J1,1*%
%TO.N,/A0*%
X35306000Y-83058000D03*
%TD*%
D12*
%TO.P,IC2,14*%
%TO.N,+5V*%
X46990000Y-83312000D03*
%TO.P,IC2,13*%
%TO.N,/~RD*%
X46990000Y-85852000D03*
%TO.P,IC2,12*%
%TO.N,Net-(IC2-Pad10)*%
X46990000Y-88392000D03*
%TO.P,IC2,11*%
X46990000Y-90932000D03*
%TO.P,IC2,10*%
X46990000Y-93472000D03*
%TO.P,IC2,9*%
X46990000Y-96012000D03*
%TO.P,IC2,8*%
%TO.N,/KEY_ENBL*%
X46990000Y-98552000D03*
%TO.P,IC2,7*%
%TO.N,GND*%
X39050000Y-98552000D03*
%TO.P,IC2,6*%
%TO.N,N/C*%
X39050000Y-96012000D03*
%TO.P,IC2,5*%
%TO.N,GND*%
X39050000Y-93472000D03*
%TO.P,IC2,4*%
X39050000Y-90932000D03*
%TO.P,IC2,3*%
X39050000Y-88392000D03*
%TO.P,IC2,2*%
%TO.N,/~IORQ*%
X39050000Y-85852000D03*
D13*
%TO.P,IC2,1*%
%TO.N,/A0*%
X39050000Y-83312000D03*
%TD*%
D14*
%TO.P,IC1,20*%
%TO.N,+5V*%
X56007000Y-99213000D03*
%TO.P,IC1,19*%
%TO.N,GND*%
X57277000Y-99213000D03*
%TO.P,IC1,18*%
%TO.N,/K_A8*%
X58547000Y-99213000D03*
%TO.P,IC1,17*%
%TO.N,/K_A9*%
X59817000Y-99213000D03*
%TO.P,IC1,16*%
%TO.N,/K_A10*%
X61087000Y-99213000D03*
%TO.P,IC1,15*%
%TO.N,/K_A11*%
X62357000Y-99213000D03*
%TO.P,IC1,14*%
%TO.N,/K_A12*%
X63627000Y-99213000D03*
%TO.P,IC1,13*%
%TO.N,/K_A13*%
X64897000Y-99213000D03*
%TO.P,IC1,12*%
%TO.N,/K_A14*%
X66167000Y-99213000D03*
%TO.P,IC1,11*%
%TO.N,/K_A15*%
X67437000Y-99213000D03*
%TO.P,IC1,10*%
%TO.N,GND*%
X67437000Y-89763000D03*
%TO.P,IC1,9*%
%TO.N,/A15*%
X66167000Y-89763000D03*
%TO.P,IC1,8*%
%TO.N,/A14*%
X64897000Y-89763000D03*
%TO.P,IC1,7*%
%TO.N,/A13*%
X63627000Y-89763000D03*
%TO.P,IC1,6*%
%TO.N,/A12*%
X62357000Y-89763000D03*
%TO.P,IC1,5*%
%TO.N,/A11*%
X61087000Y-89763000D03*
%TO.P,IC1,4*%
%TO.N,/A10*%
X59817000Y-89763000D03*
%TO.P,IC1,3*%
%TO.N,/A9*%
X58547000Y-89763000D03*
%TO.P,IC1,2*%
%TO.N,/A8*%
X57277000Y-89763000D03*
%TO.P,IC1,1*%
%TO.N,+5V*%
X56007000Y-89763000D03*
%TD*%
D15*
%TO.N,GND*%
X68580000Y-87884000D03*
X61976000Y-96520000D03*
%TD*%
D16*
%TO.N,+5V*%
X53441000Y-89763000D02*
X46990000Y-83312000D01*
X56007000Y-89763000D02*
X53441000Y-89763000D01*
X46099999Y-84202001D02*
X46990000Y-83312000D01*
X46099999Y-87739203D02*
X46099999Y-84202001D01*
X38589202Y-95250000D02*
X46099999Y-87739203D01*
X35306000Y-95250000D02*
X38589202Y-95250000D01*
X56007000Y-99213000D02*
X56007000Y-89763000D01*
%TO.N,GND*%
X68580000Y-87884000D02*
X68072000Y-88392000D01*
X68072000Y-89128000D02*
X67437000Y-89763000D01*
X68072000Y-88392000D02*
X68072000Y-89128000D01*
X67437000Y-90988000D02*
X61143000Y-97282000D01*
X67437000Y-89763000D02*
X67437000Y-90988000D01*
X57277000Y-97988000D02*
X57277000Y-99213000D01*
X57983000Y-97282000D02*
X57277000Y-97988000D01*
X61143000Y-97282000D02*
X57983000Y-97282000D01*
%TO.N,/K_A8*%
X58547000Y-100438000D02*
X58147000Y-100838000D01*
X58547000Y-99213000D02*
X58547000Y-100438000D01*
X54102000Y-100838000D02*
X51816000Y-103124000D01*
X58147000Y-100838000D02*
X54102000Y-100838000D01*
%TO.N,/K_A9*%
X59817000Y-100438000D02*
X58966990Y-101288010D01*
X59817000Y-99213000D02*
X59817000Y-100438000D01*
X56191990Y-101288010D02*
X54356000Y-103124000D01*
X58966990Y-101288010D02*
X56191990Y-101288010D01*
%TO.N,/K_A10*%
X58071001Y-101948999D02*
X56896000Y-103124000D01*
X59576001Y-101948999D02*
X58071001Y-101948999D01*
X61087000Y-100438000D02*
X59576001Y-101948999D01*
X61087000Y-99213000D02*
X61087000Y-100438000D01*
%TO.N,/K_A11*%
X59671000Y-103124000D02*
X59436000Y-103124000D01*
X62357000Y-100438000D02*
X59671000Y-103124000D01*
X62357000Y-99213000D02*
X62357000Y-100438000D01*
%TO.N,/K_A12*%
X63627000Y-101473000D02*
X61976000Y-103124000D01*
X63627000Y-99213000D02*
X63627000Y-101473000D01*
%TO.N,/K_A13*%
X64897000Y-102743000D02*
X64516000Y-103124000D01*
X64897000Y-99213000D02*
X64897000Y-102743000D01*
%TO.N,/K_A14*%
X66167000Y-102235000D02*
X67056000Y-103124000D01*
X66167000Y-99213000D02*
X66167000Y-102235000D01*
%TO.N,/K_A15*%
X67437000Y-100965000D02*
X69596000Y-103124000D01*
X67437000Y-99213000D02*
X67437000Y-100965000D01*
%TO.N,/A15*%
X66167000Y-85217000D02*
X68580000Y-82804000D01*
X66167000Y-89763000D02*
X66167000Y-85217000D01*
%TO.N,/A14*%
X64897000Y-83947000D02*
X66040000Y-82804000D01*
X64897000Y-89763000D02*
X64897000Y-83947000D01*
%TO.N,/A13*%
X63627000Y-82931000D02*
X63500000Y-82804000D01*
X63627000Y-89763000D02*
X63627000Y-82931000D01*
%TO.N,/A12*%
X62357000Y-84201000D02*
X60960000Y-82804000D01*
X62357000Y-89763000D02*
X62357000Y-84201000D01*
%TO.N,/A11*%
X60267010Y-84651010D02*
X58420000Y-82804000D01*
X60267010Y-87718010D02*
X60267010Y-84651010D01*
X61087000Y-88538000D02*
X60267010Y-87718010D01*
X61087000Y-89763000D02*
X61087000Y-88538000D01*
%TO.N,/A10*%
X59817000Y-86741000D02*
X55880000Y-82804000D01*
X59817000Y-89763000D02*
X59817000Y-86741000D01*
%TO.N,/A9*%
X53340000Y-83331000D02*
X53340000Y-82804000D01*
X58547000Y-88538000D02*
X53340000Y-83331000D01*
X58547000Y-89763000D02*
X58547000Y-88538000D01*
%TO.N,/A8*%
X57277000Y-88538000D02*
X53829000Y-85090000D01*
X57277000Y-89763000D02*
X57277000Y-88538000D01*
X53086000Y-85090000D02*
X50800000Y-82804000D01*
X53829000Y-85090000D02*
X53086000Y-85090000D01*
%TD*%
M02*
